<?xml version="1.0" encoding="utf-8" standalone="no"?>
<!DOCTYPE svg PUBLIC "-//W3C//DTD SVG 1.1//EN"
  "http://www.w3.org/Graphics/SVG/1.1/DTD/svg11.dtd">
<svg xmlns:xlink="http://www.w3.org/1999/xlink" width="460.8pt" height="345.6pt" viewBox="0 0 460.8 345.6" xmlns="http://www.w3.org/2000/svg" version="1.1">
 <metadata>
  <rdf:RDF xmlns:dc="http://purl.org/dc/elements/1.1/" xmlns:cc="http://creativecommons.org/ns#" xmlns:rdf="http://www.w3.org/1999/02/22-rdf-syntax-ns#">
   <cc:Work>
    <dc:type rdf:resource="http://purl.org/dc/dcmitype/StillImage"/>
    <dc:date>2023-04-17T09:47:42.131506</dc:date>
    <dc:format>image/svg+xml</dc:format>
    <dc:creator>
     <cc:Agent>
      <dc:title>Matplotlib v3.7.1, https://matplotlib.org/</dc:title>
     </cc:Agent>
    </dc:creator>
   </cc:Work>
  </rdf:RDF>
 </metadata>
 <defs>
  <style type="text/css">*{stroke-linejoin: round; stroke-linecap: butt}</style>
 </defs>
 <g id="figure_1">
  <g id="patch_1">
   <path d="M 0 345.6 
L 460.8 345.6 
L 460.8 0 
L 0 0 
z
" style="fill: #ffffff"/>
  </g>
  <g id="axes_1">
   <g id="patch_2">
    <path d="M 48.367091 306.088647 
L 450 306.088647 
L 450 14.259249 
L 48.367091 14.259249 
z
" style="fill: #ffffff"/>
   </g>
   <g id="patch_3">
    <path d="M 51.235897 816.790092 
L 74.186349 816.790092 
L 74.186349 123.127825 
L 51.235897 123.127825 
z
" clip-path="url(#p380243bb34)" style="fill: #1f77b4; opacity: 0.5"/>
   </g>
   <g id="patch_4">
    <path d="M 79.923962 816.790092 
L 102.874414 816.790092 
L 102.874414 60.305011 
L 79.923962 60.305011 
z
" clip-path="url(#p380243bb34)" style="fill: #1f77b4; opacity: 0.5"/>
   </g>
   <g id="patch_5">
    <path d="M 108.612027 816.790092 
L 131.562479 816.790092 
L 131.562479 242.729558 
L 108.612027 242.729558 
z
" clip-path="url(#p380243bb34)" style="fill: #1f77b4; opacity: 0.5"/>
   </g>
   <g id="patch_6">
    <path d="M 137.300092 816.790092 
L 160.250544 816.790092 
L 160.250544 129.850456 
L 137.300092 129.850456 
z
" clip-path="url(#p380243bb34)" style="fill: #1f77b4; opacity: 0.5"/>
   </g>
   <g id="patch_7">
    <path d="M 165.988157 816.790092 
L 188.938609 816.790092 
L 188.938609 82.57665 
L 165.988157 82.57665 
z
" clip-path="url(#p380243bb34)" style="fill: #1f77b4; opacity: 0.5"/>
   </g>
   <g id="patch_8">
    <path d="M 194.676222 816.790092 
L 217.626674 816.790092 
L 217.626674 112.391036 
L 194.676222 112.391036 
z
" clip-path="url(#p380243bb34)" style="fill: #1f77b4; opacity: 0.5"/>
   </g>
   <g id="patch_9">
    <path d="M 223.364287 816.790092 
L 246.314739 816.790092 
L 246.314739 210.801472 
L 223.364287 210.801472 
z
" clip-path="url(#p380243bb34)" style="fill: #1f77b4; opacity: 0.5"/>
   </g>
   <g id="patch_10">
    <path d="M 252.052352 816.790092 
L 275.002804 816.790092 
L 275.002804 92.304851 
L 252.052352 92.304851 
z
" clip-path="url(#p380243bb34)" style="fill: #1f77b4; opacity: 0.5"/>
   </g>
   <g id="patch_11">
    <path d="M 280.740417 816.790092 
L 303.690869 816.790092 
L 303.690869 114.210102 
L 280.740417 114.210102 
z
" clip-path="url(#p380243bb34)" style="fill: #1f77b4; opacity: 0.5"/>
   </g>
   <g id="patch_12">
    <path d="M 309.428482 816.790092 
L 332.378934 816.790092 
L 332.378934 25.624658 
L 309.428482 25.624658 
z
" clip-path="url(#p380243bb34)" style="fill: #1f77b4; opacity: 0.5"/>
   </g>
   <g id="patch_13">
    <path d="M 338.116547 816.790092 
L 361.066999 816.790092 
L 361.066999 156.722299 
L 338.116547 156.722299 
z
" clip-path="url(#p380243bb34)" style="fill: #1f77b4; opacity: 0.5"/>
   </g>
   <g id="patch_14">
    <path d="M 366.804612 816.790092 
L 389.755064 816.790092 
L 389.755064 61.848435 
L 366.804612 61.848435 
z
" clip-path="url(#p380243bb34)" style="fill: #1f77b4; opacity: 0.5"/>
   </g>
   <g id="patch_15">
    <path d="M 395.492677 816.790092 
L 418.443129 816.790092 
L 418.443129 103.014943 
L 395.492677 103.014943 
z
" clip-path="url(#p380243bb34)" style="fill: #1f77b4; opacity: 0.5"/>
   </g>
   <g id="patch_16">
    <path d="M 424.180742 816.790092 
L 447.131194 816.790092 
L 447.131194 109.198333 
L 424.180742 109.198333 
z
" clip-path="url(#p380243bb34)" style="fill: #1f77b4; opacity: 0.5"/>
   </g>
   <g id="matplotlib.axis_1">
    <g id="xtick_1">
     <g id="line2d_1">
      <path d="M 62.711123 306.088647 
L 62.711123 14.259249 
" clip-path="url(#p380243bb34)" style="fill: none; stroke: #b0b0b0; stroke-width: 0.8; stroke-linecap: square"/>
     </g>
     <g id="line2d_2">
      <defs>
       <path id="mb20e901797" d="M 0 0 
L 0 3.5 
" style="stroke: #000000; stroke-width: 0.8"/>
      </defs>
      <g>
       <use xlink:href="#mb20e901797" x="62.711123" y="306.088647" style="stroke: #000000; stroke-width: 0.8"/>
      </g>
     </g>
     <g id="text_1">
      <!-- R1 -->
      <g transform="translate(56.553649 320.007145) scale(0.1 -0.1)">
       <defs>
        <path id="CMR17-52" d="M 2509 2146 
C 3117 2268 3629 2676 3629 3186 
C 3629 3785 2950 4326 2054 4326 
L 333 4326 
L 333 4160 
C 774 4160 845 4160 845 3873 
L 845 415 
C 845 128 774 128 333 128 
L 333 -26 
C 518 -26 851 -26 1050 -26 
C 1248 -26 1581 -26 1766 -26 
L 1766 128 
C 1325 128 1254 128 1254 417 
L 1254 2112 
L 2003 2112 
C 2368 2112 2573 1964 2662 1881 
C 2918 1632 2918 1459 2918 1024 
C 2918 595 2918 377 3110 160 
C 3354 -102 3680 -128 3821 -128 
C 4294 -128 4365 396 4365 503 
C 4365 540 4365 585 4307 585 
C 4256 585 4250 547 4250 522 
C 4218 112 4032 -26 3834 -26 
C 3482 -26 3443 375 3405 764 
C 3386 898 3373 993 3360 1133 
C 3322 1452 3270 1917 2509 2146 
z
M 1984 2214 
L 1254 2214 
L 1254 3913 
C 1254 4129 1267 4160 1523 4160 
L 1990 4160 
C 2522 4160 3142 3977 3142 3190 
C 3142 2372 2464 2214 1984 2214 
z
" transform="scale(0.015625)"/>
        <path id="CMR17-31" d="M 1702 4058 
C 1702 4192 1696 4192 1606 4192 
C 1357 3916 979 3827 621 3827 
C 602 3827 570 3827 563 3808 
C 557 3795 557 3782 557 3648 
C 755 3648 1088 3686 1344 3839 
L 1344 461 
C 1344 236 1331 160 781 160 
L 589 160 
L 589 0 
C 896 0 1216 0 1523 0 
C 1830 0 2150 0 2458 0 
L 2458 160 
L 2266 160 
C 1715 160 1702 230 1702 458 
L 1702 4058 
z
" transform="scale(0.015625)"/>
       </defs>
       <use xlink:href="#CMR17-52" transform="scale(0.996264)"/>
       <use xlink:href="#CMR17-31" transform="translate(67.791102 0) scale(0.996264)"/>
      </g>
     </g>
    </g>
    <g id="xtick_2">
     <g id="line2d_3">
      <path d="M 91.399188 306.088647 
L 91.399188 14.259249 
" clip-path="url(#p380243bb34)" style="fill: none; stroke: #b0b0b0; stroke-width: 0.8; stroke-linecap: square"/>
     </g>
     <g id="line2d_4">
      <g>
       <use xlink:href="#mb20e901797" x="91.399188" y="306.088647" style="stroke: #000000; stroke-width: 0.8"/>
      </g>
     </g>
     <g id="text_2">
      <!-- R2 -->
      <g transform="translate(85.241714 320.007145) scale(0.1 -0.1)">
       <defs>
        <path id="CMR17-32" d="M 2669 989 
L 2554 989 
C 2490 536 2438 459 2413 420 
C 2381 369 1920 369 1830 369 
L 602 369 
C 832 619 1280 1072 1824 1597 
C 2214 1967 2669 2402 2669 3035 
C 2669 3790 2067 4224 1395 4224 
C 691 4224 262 3604 262 3030 
C 262 2780 448 2748 525 2748 
C 589 2748 781 2787 781 3010 
C 781 3207 614 3264 525 3264 
C 486 3264 448 3258 422 3245 
C 544 3790 915 4058 1306 4058 
C 1862 4058 2227 3617 2227 3035 
C 2227 2479 1901 2000 1536 1584 
L 262 146 
L 262 0 
L 2515 0 
L 2669 989 
z
" transform="scale(0.015625)"/>
       </defs>
       <use xlink:href="#CMR17-52" transform="scale(0.996264)"/>
       <use xlink:href="#CMR17-32" transform="translate(67.791102 0) scale(0.996264)"/>
      </g>
     </g>
    </g>
    <g id="xtick_3">
     <g id="line2d_5">
      <path d="M 120.087253 306.088647 
L 120.087253 14.259249 
" clip-path="url(#p380243bb34)" style="fill: none; stroke: #b0b0b0; stroke-width: 0.8; stroke-linecap: square"/>
     </g>
     <g id="line2d_6">
      <g>
       <use xlink:href="#mb20e901797" x="120.087253" y="306.088647" style="stroke: #000000; stroke-width: 0.8"/>
      </g>
     </g>
     <g id="text_3">
      <!-- R3 -->
      <g transform="translate(113.929779 320.007145) scale(0.1 -0.1)">
       <defs>
        <path id="CMR17-33" d="M 1414 2157 
C 1984 2157 2234 1662 2234 1090 
C 2234 320 1824 25 1453 25 
C 1114 25 563 194 390 693 
C 422 680 454 680 486 680 
C 640 680 755 782 755 948 
C 755 1133 614 1216 486 1216 
C 378 1216 211 1165 211 926 
C 211 335 787 -128 1466 -128 
C 2176 -128 2720 430 2720 1085 
C 2720 1707 2208 2157 1600 2227 
C 2086 2328 2554 2756 2554 3329 
C 2554 3820 2048 4179 1472 4179 
C 890 4179 378 3829 378 3329 
C 378 3110 544 3072 627 3072 
C 762 3072 877 3155 877 3321 
C 877 3486 762 3569 627 3569 
C 602 3569 570 3569 544 3557 
C 730 3959 1235 4032 1459 4032 
C 1683 4032 2106 3925 2106 3320 
C 2106 3143 2080 2828 1862 2550 
C 1670 2304 1453 2304 1242 2284 
C 1210 2284 1062 2269 1037 2269 
C 992 2263 966 2257 966 2208 
C 966 2163 973 2157 1101 2157 
L 1414 2157 
z
" transform="scale(0.015625)"/>
       </defs>
       <use xlink:href="#CMR17-52" transform="scale(0.996264)"/>
       <use xlink:href="#CMR17-33" transform="translate(67.791102 0) scale(0.996264)"/>
      </g>
     </g>
    </g>
    <g id="xtick_4">
     <g id="line2d_7">
      <path d="M 148.775318 306.088647 
L 148.775318 14.259249 
" clip-path="url(#p380243bb34)" style="fill: none; stroke: #b0b0b0; stroke-width: 0.8; stroke-linecap: square"/>
     </g>
     <g id="line2d_8">
      <g>
       <use xlink:href="#mb20e901797" x="148.775318" y="306.088647" style="stroke: #000000; stroke-width: 0.8"/>
      </g>
     </g>
     <g id="text_4">
      <!-- R4 -->
      <g transform="translate(142.617844 320.007145) scale(0.1 -0.1)">
       <defs>
        <path id="CMR17-34" d="M 2150 4122 
C 2150 4256 2144 4256 2029 4256 
L 128 1254 
L 128 1088 
L 1779 1088 
L 1779 457 
C 1779 224 1766 160 1318 160 
L 1197 160 
L 1197 0 
C 1402 0 1747 0 1965 0 
C 2182 0 2528 0 2733 0 
L 2733 160 
L 2611 160 
C 2163 160 2150 224 2150 457 
L 2150 1088 
L 2803 1088 
L 2803 1254 
L 2150 1254 
L 2150 4122 
z
M 1798 3703 
L 1798 1254 
L 256 1254 
L 1798 3703 
z
" transform="scale(0.015625)"/>
       </defs>
       <use xlink:href="#CMR17-52" transform="scale(0.996264)"/>
       <use xlink:href="#CMR17-34" transform="translate(67.791102 0) scale(0.996264)"/>
      </g>
     </g>
    </g>
    <g id="xtick_5">
     <g id="line2d_9">
      <path d="M 177.463383 306.088647 
L 177.463383 14.259249 
" clip-path="url(#p380243bb34)" style="fill: none; stroke: #b0b0b0; stroke-width: 0.8; stroke-linecap: square"/>
     </g>
     <g id="line2d_10">
      <g>
       <use xlink:href="#mb20e901797" x="177.463383" y="306.088647" style="stroke: #000000; stroke-width: 0.8"/>
      </g>
     </g>
     <g id="text_5">
      <!-- R5 -->
      <g transform="translate(171.305909 320.007145) scale(0.1 -0.1)">
       <defs>
        <path id="CMR17-35" d="M 730 3692 
C 794 3666 1056 3584 1325 3584 
C 1920 3584 2246 3911 2432 4100 
C 2432 4157 2432 4192 2394 4192 
C 2387 4192 2374 4192 2323 4163 
C 2099 4058 1837 3973 1517 3973 
C 1325 3973 1037 3999 723 4139 
C 653 4171 640 4171 634 4171 
C 602 4171 595 4164 595 4037 
L 595 2203 
C 595 2089 595 2057 659 2057 
C 691 2057 704 2070 736 2114 
C 941 2401 1222 2522 1542 2522 
C 1766 2522 2246 2382 2246 1289 
C 2246 1085 2246 715 2054 421 
C 1894 159 1645 25 1370 25 
C 947 25 518 320 403 814 
C 429 807 480 795 506 795 
C 589 795 749 840 749 1038 
C 749 1210 627 1280 506 1280 
C 358 1280 262 1190 262 1011 
C 262 454 704 -128 1382 -128 
C 2042 -128 2669 440 2669 1264 
C 2669 2030 2170 2624 1549 2624 
C 1222 2624 947 2503 730 2274 
L 730 3692 
z
" transform="scale(0.015625)"/>
       </defs>
       <use xlink:href="#CMR17-52" transform="scale(0.996264)"/>
       <use xlink:href="#CMR17-35" transform="translate(67.791102 0) scale(0.996264)"/>
      </g>
     </g>
    </g>
    <g id="xtick_6">
     <g id="line2d_11">
      <path d="M 206.151448 306.088647 
L 206.151448 14.259249 
" clip-path="url(#p380243bb34)" style="fill: none; stroke: #b0b0b0; stroke-width: 0.8; stroke-linecap: square"/>
     </g>
     <g id="line2d_12">
      <g>
       <use xlink:href="#mb20e901797" x="206.151448" y="306.088647" style="stroke: #000000; stroke-width: 0.8"/>
      </g>
     </g>
     <g id="text_6">
      <!-- R6 -->
      <g transform="translate(199.993974 320.007145) scale(0.1 -0.1)">
       <defs>
        <path id="CMR17-36" d="M 678 2176 
C 678 3690 1395 4032 1811 4032 
C 1946 4032 2272 4009 2400 3776 
C 2298 3776 2106 3776 2106 3553 
C 2106 3381 2246 3323 2336 3323 
C 2394 3323 2566 3348 2566 3560 
C 2566 3954 2246 4179 1805 4179 
C 1043 4179 243 3390 243 1984 
C 243 253 966 -128 1478 -128 
C 2099 -128 2688 427 2688 1283 
C 2688 2081 2170 2662 1517 2662 
C 1126 2662 838 2407 678 1960 
L 678 2176 
z
M 1478 25 
C 691 25 691 1200 691 1436 
C 691 1896 909 2560 1504 2560 
C 1613 2560 1926 2560 2138 2120 
C 2253 1870 2253 1609 2253 1289 
C 2253 944 2253 690 2118 434 
C 1978 171 1773 25 1478 25 
z
" transform="scale(0.015625)"/>
       </defs>
       <use xlink:href="#CMR17-52" transform="scale(0.996264)"/>
       <use xlink:href="#CMR17-36" transform="translate(67.791102 0) scale(0.996264)"/>
      </g>
     </g>
    </g>
    <g id="xtick_7">
     <g id="line2d_13">
      <path d="M 234.839513 306.088647 
L 234.839513 14.259249 
" clip-path="url(#p380243bb34)" style="fill: none; stroke: #b0b0b0; stroke-width: 0.8; stroke-linecap: square"/>
     </g>
     <g id="line2d_14">
      <g>
       <use xlink:href="#mb20e901797" x="234.839513" y="306.088647" style="stroke: #000000; stroke-width: 0.8"/>
      </g>
     </g>
     <g id="text_7">
      <!-- R7 -->
      <g transform="translate(228.682039 320.007145) scale(0.1 -0.1)">
       <defs>
        <path id="CMR17-37" d="M 2886 3941 
L 2886 4081 
L 1382 4081 
C 634 4081 621 4165 595 4288 
L 480 4288 
L 294 3094 
L 410 3094 
C 429 3215 474 3540 550 3661 
C 589 3712 1062 3712 1171 3712 
L 2579 3712 
L 1869 2661 
C 1395 1954 1069 999 1069 165 
C 1069 89 1069 -128 1299 -128 
C 1530 -128 1530 89 1530 171 
L 1530 465 
C 1530 1508 1709 2196 2003 2636 
L 2886 3941 
z
" transform="scale(0.015625)"/>
       </defs>
       <use xlink:href="#CMR17-52" transform="scale(0.996264)"/>
       <use xlink:href="#CMR17-37" transform="translate(67.791102 0) scale(0.996264)"/>
      </g>
     </g>
    </g>
    <g id="xtick_8">
     <g id="line2d_15">
      <path d="M 263.527578 306.088647 
L 263.527578 14.259249 
" clip-path="url(#p380243bb34)" style="fill: none; stroke: #b0b0b0; stroke-width: 0.8; stroke-linecap: square"/>
     </g>
     <g id="line2d_16">
      <g>
       <use xlink:href="#mb20e901797" x="263.527578" y="306.088647" style="stroke: #000000; stroke-width: 0.8"/>
      </g>
     </g>
     <g id="text_8">
      <!-- R8 -->
      <g transform="translate(257.370104 320.007145) scale(0.1 -0.1)">
       <defs>
        <path id="CMR17-38" d="M 1741 2264 
C 2144 2467 2554 2773 2554 3263 
C 2554 3841 1990 4179 1472 4179 
C 890 4179 378 3759 378 3180 
C 378 3021 416 2747 666 2505 
C 730 2442 998 2251 1171 2130 
C 883 1983 211 1634 211 934 
C 211 279 838 -128 1459 -128 
C 2144 -128 2720 362 2720 1010 
C 2720 1590 2330 1857 2074 2029 
L 1741 2264 
z
M 902 2822 
C 851 2854 595 3051 595 3351 
C 595 3739 998 4032 1459 4032 
C 1965 4032 2336 3676 2336 3262 
C 2336 2669 1670 2331 1638 2331 
C 1632 2331 1626 2331 1574 2370 
L 902 2822 
z
M 2080 1519 
C 2176 1449 2483 1240 2483 851 
C 2483 381 2010 25 1472 25 
C 890 25 448 438 448 940 
C 448 1443 838 1862 1280 2060 
L 2080 1519 
z
" transform="scale(0.015625)"/>
       </defs>
       <use xlink:href="#CMR17-52" transform="scale(0.996264)"/>
       <use xlink:href="#CMR17-38" transform="translate(67.791102 0) scale(0.996264)"/>
      </g>
     </g>
    </g>
    <g id="xtick_9">
     <g id="line2d_17">
      <path d="M 292.215643 306.088647 
L 292.215643 14.259249 
" clip-path="url(#p380243bb34)" style="fill: none; stroke: #b0b0b0; stroke-width: 0.8; stroke-linecap: square"/>
     </g>
     <g id="line2d_18">
      <g>
       <use xlink:href="#mb20e901797" x="292.215643" y="306.088647" style="stroke: #000000; stroke-width: 0.8"/>
      </g>
     </g>
     <g id="text_9">
      <!-- R9 -->
      <g transform="translate(286.058169 320.007145) scale(0.1 -0.1)">
       <defs>
        <path id="CMR17-39" d="M 2253 1864 
C 2253 464 1670 31 1190 31 
C 1043 31 685 31 538 294 
C 704 268 826 357 826 518 
C 826 692 685 749 595 749 
C 538 749 365 723 365 506 
C 365 71 742 -128 1203 -128 
C 1939 -128 2688 674 2688 2073 
C 2688 3817 1971 4179 1485 4179 
C 851 4179 243 3628 243 2778 
C 243 1991 762 1408 1414 1408 
C 1952 1408 2189 1903 2253 2112 
L 2253 1864 
z
M 1427 1510 
C 1254 1510 1011 1542 813 1922 
C 678 2169 678 2461 678 2771 
C 678 3146 678 3405 858 3684 
C 947 3817 1114 4032 1485 4032 
C 2240 4032 2240 2885 2240 2632 
C 2240 2182 2035 1510 1427 1510 
z
" transform="scale(0.015625)"/>
       </defs>
       <use xlink:href="#CMR17-52" transform="scale(0.996264)"/>
       <use xlink:href="#CMR17-39" transform="translate(67.791102 0) scale(0.996264)"/>
      </g>
     </g>
    </g>
    <g id="xtick_10">
     <g id="line2d_19">
      <path d="M 320.903708 306.088647 
L 320.903708 14.259249 
" clip-path="url(#p380243bb34)" style="fill: none; stroke: #b0b0b0; stroke-width: 0.8; stroke-linecap: square"/>
     </g>
     <g id="line2d_20">
      <g>
       <use xlink:href="#mb20e901797" x="320.903708" y="306.088647" style="stroke: #000000; stroke-width: 0.8"/>
      </g>
     </g>
     <g id="text_10">
      <!-- R10 -->
      <g transform="translate(312.255566 320.007145) scale(0.1 -0.1)">
       <defs>
        <path id="CMR17-30" d="M 2688 2025 
C 2688 2416 2682 3080 2413 3591 
C 2176 4039 1798 4198 1466 4198 
C 1158 4198 768 4058 525 3597 
C 269 3118 243 2524 243 2025 
C 243 1661 250 1106 448 619 
C 723 -39 1216 -128 1466 -128 
C 1760 -128 2208 -7 2470 600 
C 2662 1042 2688 1559 2688 2025 
z
M 1466 -26 
C 1056 -26 813 325 723 812 
C 653 1188 653 1738 653 2096 
C 653 2588 653 2997 736 3387 
C 858 3929 1216 4096 1466 4096 
C 1728 4096 2067 3923 2189 3400 
C 2272 3036 2278 2607 2278 2096 
C 2278 1680 2278 1169 2202 792 
C 2067 95 1690 -26 1466 -26 
z
" transform="scale(0.015625)"/>
       </defs>
       <use xlink:href="#CMR17-52" transform="scale(0.996264)"/>
       <use xlink:href="#CMR17-31" transform="translate(67.791102 0) scale(0.996264)"/>
       <use xlink:href="#CMR17-30" transform="translate(113.481579 0) scale(0.996264)"/>
      </g>
     </g>
    </g>
    <g id="xtick_11">
     <g id="line2d_21">
      <path d="M 349.591773 306.088647 
L 349.591773 14.259249 
" clip-path="url(#p380243bb34)" style="fill: none; stroke: #b0b0b0; stroke-width: 0.8; stroke-linecap: square"/>
     </g>
     <g id="line2d_22">
      <g>
       <use xlink:href="#mb20e901797" x="349.591773" y="306.088647" style="stroke: #000000; stroke-width: 0.8"/>
      </g>
     </g>
     <g id="text_11">
      <!-- F1 -->
      <g transform="translate(343.849398 320.007145) scale(0.1 -0.1)">
       <defs>
        <path id="CMR17-46" d="M 3482 4325 
L 326 4325 
L 326 4160 
C 768 4160 838 4160 838 3874 
L 838 446 
C 838 160 768 160 326 160 
L 326 0 
C 512 0 870 0 1069 0 
C 1331 0 1638 0 1901 0 
L 1901 160 
L 1760 160 
C 1274 160 1261 223 1261 452 
L 1261 2075 
L 1837 2075 
C 2432 2075 2490 1865 2490 1332 
L 2605 1332 
L 2605 2987 
L 2490 2987 
C 2490 2450 2432 2240 1837 2240 
L 1261 2240 
L 1261 3911 
C 1261 4128 1274 4160 1530 4160 
L 2355 4160 
C 3322 4160 3430 3765 3520 2916 
L 3635 2916 
L 3482 4325 
z
" transform="scale(0.015625)"/>
       </defs>
       <use xlink:href="#CMR17-46" transform="scale(0.996264)"/>
       <use xlink:href="#CMR17-31" transform="translate(59.983847 0) scale(0.996264)"/>
      </g>
     </g>
    </g>
    <g id="xtick_12">
     <g id="line2d_23">
      <path d="M 378.279838 306.088647 
L 378.279838 14.259249 
" clip-path="url(#p380243bb34)" style="fill: none; stroke: #b0b0b0; stroke-width: 0.8; stroke-linecap: square"/>
     </g>
     <g id="line2d_24">
      <g>
       <use xlink:href="#mb20e901797" x="378.279838" y="306.088647" style="stroke: #000000; stroke-width: 0.8"/>
      </g>
     </g>
     <g id="text_12">
      <!-- F2 -->
      <g transform="translate(372.537463 320.007145) scale(0.1 -0.1)">
       <use xlink:href="#CMR17-46" transform="scale(0.996264)"/>
       <use xlink:href="#CMR17-32" transform="translate(59.983847 0) scale(0.996264)"/>
      </g>
     </g>
    </g>
    <g id="xtick_13">
     <g id="line2d_25">
      <path d="M 406.967903 306.088647 
L 406.967903 14.259249 
" clip-path="url(#p380243bb34)" style="fill: none; stroke: #b0b0b0; stroke-width: 0.8; stroke-linecap: square"/>
     </g>
     <g id="line2d_26">
      <g>
       <use xlink:href="#mb20e901797" x="406.967903" y="306.088647" style="stroke: #000000; stroke-width: 0.8"/>
      </g>
     </g>
     <g id="text_13">
      <!-- F3 -->
      <g transform="translate(401.225528 320.007145) scale(0.1 -0.1)">
       <use xlink:href="#CMR17-46" transform="scale(0.996264)"/>
       <use xlink:href="#CMR17-33" transform="translate(59.983847 0) scale(0.996264)"/>
      </g>
     </g>
    </g>
    <g id="xtick_14">
     <g id="line2d_27">
      <path d="M 435.655968 306.088647 
L 435.655968 14.259249 
" clip-path="url(#p380243bb34)" style="fill: none; stroke: #b0b0b0; stroke-width: 0.8; stroke-linecap: square"/>
     </g>
     <g id="line2d_28">
      <g>
       <use xlink:href="#mb20e901797" x="435.655968" y="306.088647" style="stroke: #000000; stroke-width: 0.8"/>
      </g>
     </g>
     <g id="text_14">
      <!-- F4 -->
      <g transform="translate(429.913593 320.007145) scale(0.1 -0.1)">
       <use xlink:href="#CMR17-46" transform="scale(0.996264)"/>
       <use xlink:href="#CMR17-34" transform="translate(59.983847 0) scale(0.996264)"/>
      </g>
     </g>
    </g>
    <g id="text_15">
     <!-- Roll Pass -->
     <g transform="translate(228.926152 332.862822) scale(0.1 -0.1)">
      <defs>
       <path id="CMR17-6f" d="M 2758 1356 
C 2758 2176 2163 2816 1466 2816 
C 768 2816 173 2176 173 1356 
C 173 551 768 -64 1466 -64 
C 2163 -64 2758 551 2758 1356 
z
M 1466 51 
C 1165 51 909 230 762 480 
C 602 767 582 1126 582 1408 
C 582 1677 595 2010 762 2298 
C 890 2509 1139 2714 1466 2714 
C 1754 2714 1997 2554 2150 2330 
C 2349 2029 2349 1607 2349 1408 
C 2349 1158 2336 775 2163 467 
C 1984 173 1709 51 1466 51 
z
" transform="scale(0.015625)"/>
       <path id="CMR17-6c" d="M 979 4396 
L 218 4326 
L 218 4160 
C 595 4160 653 4122 653 3817 
L 653 426 
C 653 184 627 153 218 153 
L 218 -13 
C 371 0 653 0 813 0 
C 979 0 1261 0 1414 -13 
L 1414 153 
C 1005 153 979 178 979 426 
L 979 4396 
z
" transform="scale(0.015625)"/>
       <path id="CMR17-50" d="M 1267 2042 
L 2291 2042 
C 3117 2042 3718 2578 3718 3184 
C 3718 3791 3130 4352 2291 4352 
L 333 4352 
L 333 4186 
C 774 4186 845 4186 845 3899 
L 845 446 
C 845 160 774 160 333 160 
L 333 0 
C 518 0 858 0 1056 0 
C 1254 0 1594 0 1779 0 
L 1779 160 
C 1338 160 1267 160 1267 446 
L 1267 2042 
z
M 1254 2176 
L 1254 3938 
C 1254 4155 1267 4186 1523 4186 
L 2170 4186 
C 2995 4186 3232 3714 3232 3184 
C 3232 2604 2950 2176 2170 2176 
L 1254 2176 
z
" transform="scale(0.015625)"/>
       <path id="CMR17-61" d="M 2304 1653 
C 2304 2072 2304 2294 2035 2543 
C 1798 2752 1523 2816 1306 2816 
C 800 2816 435 2407 435 1971 
C 435 1728 627 1728 666 1728 
C 749 1728 896 1778 896 1954 
C 896 2112 774 2181 666 2181 
C 640 2181 608 2174 589 2168 
C 723 2592 1069 2714 1293 2714 
C 1613 2714 1965 2429 1965 1885 
L 1965 1600 
C 1587 1600 1133 1549 774 1357 
C 371 1133 256 813 256 570 
C 256 77 832 -64 1171 -64 
C 1523 -64 1850 139 1990 511 
C 2003 233 2182 -18 2464 -18 
C 2598 -18 2938 70 2938 567 
L 2938 920 
L 2822 920 
L 2822 562 
C 2822 178 2650 128 2566 128 
C 2304 128 2304 458 2304 738 
L 2304 1653 
z
M 1965 870 
C 1965 317 1568 38 1216 38 
C 896 38 646 275 646 570 
C 646 761 730 1100 1101 1305 
C 1408 1478 1760 1504 1965 1504 
L 1965 870 
z
" transform="scale(0.015625)"/>
       <path id="CMR17-73" d="M 1978 2697 
C 1978 2813 1971 2819 1933 2819 
C 1907 2819 1901 2813 1824 2717 
C 1805 2691 1747 2626 1728 2601 
C 1523 2819 1235 2819 1126 2819 
C 416 2819 160 2447 160 2076 
C 160 1498 813 1365 998 1325 
C 1402 1243 1542 1217 1677 1101 
C 1760 1025 1901 884 1901 654 
C 1901 384 1747 38 1158 38 
C 602 38 403 460 288 1021 
C 269 1110 269 1117 218 1117 
C 166 1117 160 1110 160 983 
L 160 63 
C 160 -51 166 -58 205 -58 
C 237 -58 243 -51 275 0 
C 314 57 410 211 448 276 
C 576 103 800 -64 1158 -64 
C 1792 -64 2131 283 2131 784 
C 2131 1112 1958 1285 1875 1362 
C 1683 1561 1459 1606 1190 1657 
C 838 1735 390 1825 390 2217 
C 390 2383 480 2737 1126 2737 
C 1811 2737 1850 2094 1862 1888 
C 1869 1856 1901 1849 1920 1849 
C 1978 1849 1978 1869 1978 1978 
L 1978 2697 
z
" transform="scale(0.015625)"/>
      </defs>
      <use xlink:href="#CMR17-52" transform="scale(0.996264)"/>
      <use xlink:href="#CMR17-6f" transform="translate(67.791102 0) scale(0.996264)"/>
      <use xlink:href="#CMR17-6c" transform="translate(113.481579 0) scale(0.996264)"/>
      <use xlink:href="#CMR17-6c" transform="translate(138.352638 0) scale(0.996264)"/>
      <use xlink:href="#CMR17-50" transform="translate(193.299662 0) scale(0.996264)"/>
      <use xlink:href="#CMR17-61" transform="translate(253.283509 0) scale(0.996264)"/>
      <use xlink:href="#CMR17-73" transform="translate(298.973986 0) scale(0.996264)"/>
      <use xlink:href="#CMR17-73" transform="translate(334.775324 0) scale(0.996264)"/>
     </g>
    </g>
   </g>
   <g id="matplotlib.axis_2">
    <g id="ytick_1">
     <g id="line2d_29">
      <path d="M 48.367091 306.088647 
L 450 306.088647 
" clip-path="url(#p380243bb34)" style="fill: none; stroke: #b0b0b0; stroke-width: 0.8; stroke-linecap: square"/>
     </g>
     <g id="line2d_30">
      <defs>
       <path id="m3606665895" d="M 0 0 
L -3.5 0 
" style="stroke: #000000; stroke-width: 0.8"/>
      </defs>
      <g>
       <use xlink:href="#m3606665895" x="48.367091" y="306.088647" style="stroke: #000000; stroke-width: 0.8"/>
      </g>
     </g>
     <g id="text_16">
      <!-- $\mathdefault{0.70}$ -->
      <g transform="translate(23.655677 309.547896) scale(0.1 -0.1)">
       <defs>
        <path id="CMMI12-3a" d="M 1178 307 
C 1178 492 1024 619 870 619 
C 685 619 557 466 557 313 
C 557 128 710 0 864 0 
C 1050 0 1178 153 1178 307 
z
" transform="scale(0.015625)"/>
       </defs>
       <use xlink:href="#CMR17-30" transform="scale(0.996264)"/>
       <use xlink:href="#CMMI12-3a" transform="translate(45.690477 0) scale(0.996264)"/>
       <use xlink:href="#CMR17-37" transform="translate(72.787654 0) scale(0.996264)"/>
       <use xlink:href="#CMR17-30" transform="translate(118.478131 0) scale(0.996264)"/>
      </g>
     </g>
    </g>
    <g id="ytick_2">
     <g id="line2d_31">
      <path d="M 48.367091 269.609972 
L 450 269.609972 
" clip-path="url(#p380243bb34)" style="fill: none; stroke: #b0b0b0; stroke-width: 0.8; stroke-linecap: square"/>
     </g>
     <g id="line2d_32">
      <g>
       <use xlink:href="#m3606665895" x="48.367091" y="269.609972" style="stroke: #000000; stroke-width: 0.8"/>
      </g>
     </g>
     <g id="text_17">
      <!-- $\mathdefault{0.75}$ -->
      <g transform="translate(23.655677 273.069221) scale(0.1 -0.1)">
       <use xlink:href="#CMR17-30" transform="scale(0.996264)"/>
       <use xlink:href="#CMMI12-3a" transform="translate(45.690477 0) scale(0.996264)"/>
       <use xlink:href="#CMR17-37" transform="translate(72.787654 0) scale(0.996264)"/>
       <use xlink:href="#CMR17-35" transform="translate(118.478131 0) scale(0.996264)"/>
      </g>
     </g>
    </g>
    <g id="ytick_3">
     <g id="line2d_33">
      <path d="M 48.367091 233.131297 
L 450 233.131297 
" clip-path="url(#p380243bb34)" style="fill: none; stroke: #b0b0b0; stroke-width: 0.8; stroke-linecap: square"/>
     </g>
     <g id="line2d_34">
      <g>
       <use xlink:href="#m3606665895" x="48.367091" y="233.131297" style="stroke: #000000; stroke-width: 0.8"/>
      </g>
     </g>
     <g id="text_18">
      <!-- $\mathdefault{0.80}$ -->
      <g transform="translate(23.655677 236.590546) scale(0.1 -0.1)">
       <use xlink:href="#CMR17-30" transform="scale(0.996264)"/>
       <use xlink:href="#CMMI12-3a" transform="translate(45.690477 0) scale(0.996264)"/>
       <use xlink:href="#CMR17-38" transform="translate(72.787654 0) scale(0.996264)"/>
       <use xlink:href="#CMR17-30" transform="translate(118.478131 0) scale(0.996264)"/>
      </g>
     </g>
    </g>
    <g id="ytick_4">
     <g id="line2d_35">
      <path d="M 48.367091 196.652623 
L 450 196.652623 
" clip-path="url(#p380243bb34)" style="fill: none; stroke: #b0b0b0; stroke-width: 0.8; stroke-linecap: square"/>
     </g>
     <g id="line2d_36">
      <g>
       <use xlink:href="#m3606665895" x="48.367091" y="196.652623" style="stroke: #000000; stroke-width: 0.8"/>
      </g>
     </g>
     <g id="text_19">
      <!-- $\mathdefault{0.85}$ -->
      <g transform="translate(23.655677 200.111872) scale(0.1 -0.1)">
       <use xlink:href="#CMR17-30" transform="scale(0.996264)"/>
       <use xlink:href="#CMMI12-3a" transform="translate(45.690477 0) scale(0.996264)"/>
       <use xlink:href="#CMR17-38" transform="translate(72.787654 0) scale(0.996264)"/>
       <use xlink:href="#CMR17-35" transform="translate(118.478131 0) scale(0.996264)"/>
      </g>
     </g>
    </g>
    <g id="ytick_5">
     <g id="line2d_37">
      <path d="M 48.367091 160.173948 
L 450 160.173948 
" clip-path="url(#p380243bb34)" style="fill: none; stroke: #b0b0b0; stroke-width: 0.8; stroke-linecap: square"/>
     </g>
     <g id="line2d_38">
      <g>
       <use xlink:href="#m3606665895" x="48.367091" y="160.173948" style="stroke: #000000; stroke-width: 0.8"/>
      </g>
     </g>
     <g id="text_20">
      <!-- $\mathdefault{0.90}$ -->
      <g transform="translate(23.655677 163.633197) scale(0.1 -0.1)">
       <use xlink:href="#CMR17-30" transform="scale(0.996264)"/>
       <use xlink:href="#CMMI12-3a" transform="translate(45.690477 0) scale(0.996264)"/>
       <use xlink:href="#CMR17-39" transform="translate(72.787654 0) scale(0.996264)"/>
       <use xlink:href="#CMR17-30" transform="translate(118.478131 0) scale(0.996264)"/>
      </g>
     </g>
    </g>
    <g id="ytick_6">
     <g id="line2d_39">
      <path d="M 48.367091 123.695273 
L 450 123.695273 
" clip-path="url(#p380243bb34)" style="fill: none; stroke: #b0b0b0; stroke-width: 0.8; stroke-linecap: square"/>
     </g>
     <g id="line2d_40">
      <g>
       <use xlink:href="#m3606665895" x="48.367091" y="123.695273" style="stroke: #000000; stroke-width: 0.8"/>
      </g>
     </g>
     <g id="text_21">
      <!-- $\mathdefault{0.95}$ -->
      <g transform="translate(23.655677 127.154522) scale(0.1 -0.1)">
       <use xlink:href="#CMR17-30" transform="scale(0.996264)"/>
       <use xlink:href="#CMMI12-3a" transform="translate(45.690477 0) scale(0.996264)"/>
       <use xlink:href="#CMR17-39" transform="translate(72.787654 0) scale(0.996264)"/>
       <use xlink:href="#CMR17-35" transform="translate(118.478131 0) scale(0.996264)"/>
      </g>
     </g>
    </g>
    <g id="ytick_7">
     <g id="line2d_41">
      <path d="M 48.367091 87.216599 
L 450 87.216599 
" clip-path="url(#p380243bb34)" style="fill: none; stroke: #b0b0b0; stroke-width: 0.8; stroke-linecap: square"/>
     </g>
     <g id="line2d_42">
      <g>
       <use xlink:href="#m3606665895" x="48.367091" y="87.216599" style="stroke: #000000; stroke-width: 0.8"/>
      </g>
     </g>
     <g id="text_22">
      <!-- $\mathdefault{1.00}$ -->
      <g transform="translate(23.655677 90.675848) scale(0.1 -0.1)">
       <use xlink:href="#CMR17-31" transform="scale(0.996264)"/>
       <use xlink:href="#CMMI12-3a" transform="translate(45.690477 0) scale(0.996264)"/>
       <use xlink:href="#CMR17-30" transform="translate(72.787654 0) scale(0.996264)"/>
       <use xlink:href="#CMR17-30" transform="translate(118.478131 0) scale(0.996264)"/>
      </g>
     </g>
    </g>
    <g id="ytick_8">
     <g id="line2d_43">
      <path d="M 48.367091 50.737924 
L 450 50.737924 
" clip-path="url(#p380243bb34)" style="fill: none; stroke: #b0b0b0; stroke-width: 0.8; stroke-linecap: square"/>
     </g>
     <g id="line2d_44">
      <g>
       <use xlink:href="#m3606665895" x="48.367091" y="50.737924" style="stroke: #000000; stroke-width: 0.8"/>
      </g>
     </g>
     <g id="text_23">
      <!-- $\mathdefault{1.05}$ -->
      <g transform="translate(23.655677 54.197173) scale(0.1 -0.1)">
       <use xlink:href="#CMR17-31" transform="scale(0.996264)"/>
       <use xlink:href="#CMMI12-3a" transform="translate(45.690477 0) scale(0.996264)"/>
       <use xlink:href="#CMR17-30" transform="translate(72.787654 0) scale(0.996264)"/>
       <use xlink:href="#CMR17-35" transform="translate(118.478131 0) scale(0.996264)"/>
      </g>
     </g>
    </g>
    <g id="ytick_9">
     <g id="line2d_45">
      <path d="M 48.367091 14.259249 
L 450 14.259249 
" clip-path="url(#p380243bb34)" style="fill: none; stroke: #b0b0b0; stroke-width: 0.8; stroke-linecap: square"/>
     </g>
     <g id="line2d_46">
      <g>
       <use xlink:href="#m3606665895" x="48.367091" y="14.259249" style="stroke: #000000; stroke-width: 0.8"/>
      </g>
     </g>
     <g id="text_24">
      <!-- $\mathdefault{1.10}$ -->
      <g transform="translate(23.655677 17.718498) scale(0.1 -0.1)">
       <use xlink:href="#CMR17-31" transform="scale(0.996264)"/>
       <use xlink:href="#CMMI12-3a" transform="translate(45.690477 0) scale(0.996264)"/>
       <use xlink:href="#CMR17-31" transform="translate(72.787654 0) scale(0.996264)"/>
       <use xlink:href="#CMR17-30" transform="translate(118.478131 0) scale(0.996264)"/>
      </g>
     </g>
    </g>
    <g id="text_25">
     <!-- Filling Ratio $\FillingRatio$ -->
     <g transform="translate(17.718498 191.224584) rotate(-90) scale(0.1 -0.1)">
      <defs>
       <path id="CMR17-69" d="M 992 3909 
C 992 4049 877 4170 730 4170 
C 589 4170 467 4056 467 3909 
C 467 3769 582 3648 730 3648 
C 870 3648 992 3763 992 3909 
z
M 243 2706 
L 243 2541 
C 602 2541 653 2502 653 2197 
L 653 427 
C 653 184 627 153 218 153 
L 218 -13 
C 371 0 646 0 806 0 
C 960 0 1222 0 1370 -13 
L 1370 153 
C 992 153 979 191 979 420 
L 979 2776 
L 243 2706 
z
" transform="scale(0.015625)"/>
       <path id="CMR17-6e" d="M 2656 1933 
C 2656 2259 2592 2790 1837 2790 
C 1331 2790 1069 2400 973 2144 
L 966 2144 
L 966 2790 
L 211 2720 
L 211 2554 
C 589 2554 646 2515 646 2208 
L 646 428 
C 646 184 621 153 211 153 
L 211 -13 
C 365 0 646 0 813 0 
C 979 0 1267 0 1421 -13 
L 1421 153 
C 1011 153 986 178 986 428 
L 986 1658 
C 986 2247 1344 2688 1792 2688 
C 2266 2688 2317 2266 2317 1958 
L 2317 428 
C 2317 184 2291 153 1882 153 
L 1882 -13 
C 2035 0 2317 0 2483 0 
C 2650 0 2938 0 3091 -13 
L 3091 153 
C 2682 153 2656 178 2656 428 
L 2656 1933 
z
" transform="scale(0.015625)"/>
       <path id="CMR17-67" d="M 710 1164 
C 832 1068 1043 960 1299 960 
C 1805 960 2240 1357 2240 1888 
C 2240 2054 2189 2310 1997 2509 
C 2176 2692 2438 2752 2586 2752 
C 2611 2752 2650 2752 2682 2734 
C 2656 2728 2598 2703 2598 2605 
C 2598 2527 2656 2471 2739 2471 
C 2835 2471 2886 2533 2886 2614 
C 2886 2731 2790 2854 2586 2854 
C 2330 2854 2106 2738 1926 2580 
C 1734 2753 1504 2816 1299 2816 
C 794 2816 358 2419 358 1888 
C 358 1522 570 1292 634 1228 
C 442 1004 442 743 442 711 
C 442 545 506 302 723 168 
C 390 85 128 -169 128 -486 
C 128 -943 736 -1280 1466 -1280 
C 2170 -1280 2803 -956 2803 -479 
C 2803 384 1856 384 1363 384 
C 1216 384 954 384 922 391 
C 723 423 589 602 589 826 
C 589 883 589 1024 710 1164 
z
M 1299 1068 
C 736 1068 736 1760 736 1889 
C 736 2016 736 2708 1299 2708 
C 1862 2708 1862 2016 1862 1889 
C 1862 1760 1862 1068 1299 1068 
z
M 1466 -1171 
C 826 -1171 384 -835 384 -486 
C 384 -289 493 -105 634 -4 
C 794 104 858 104 1293 104 
C 1818 104 2547 104 2547 -486 
C 2547 -835 2106 -1171 1466 -1171 
z
" transform="scale(0.015625)"/>
       <path id="CMR17-74" d="M 966 2560 
L 1862 2560 
L 1862 2725 
L 966 2725 
L 966 3904 
L 851 3904 
C 838 3245 614 2668 70 2668 
L 70 2560 
L 627 2560 
L 627 771 
C 627 650 627 -64 1370 -64 
C 1747 -64 1965 306 1965 777 
L 1965 1140 
L 1850 1140 
L 1850 783 
C 1850 344 1677 51 1408 51 
C 1222 51 966 178 966 758 
L 966 2560 
z
" transform="scale(0.015625)"/>
       <path id="CMMI12-69" d="M 1811 913 
C 1811 945 1786 971 1747 971 
C 1690 971 1683 952 1651 843 
C 1485 262 1222 64 1011 64 
C 934 64 845 83 845 275 
C 845 447 922 639 992 830 
L 1440 2018 
C 1459 2069 1504 2184 1504 2305 
C 1504 2574 1312 2816 998 2816 
C 410 2816 173 1890 173 1839 
C 173 1814 198 1782 243 1782 
C 301 1782 307 1807 333 1896 
C 486 2428 730 2682 979 2682 
C 1037 2682 1146 2682 1146 2478 
C 1146 2312 1062 2101 1011 1961 
L 563 773 
C 525 671 486 568 486 453 
C 486 166 685 -64 992 -64 
C 1581 -64 1811 869 1811 913 
z
M 1760 4013 
C 1760 4109 1683 4224 1542 4224 
C 1395 4224 1229 4083 1229 3917 
C 1229 3758 1363 3707 1440 3707 
C 1613 3707 1760 3873 1760 4013 
z
" transform="scale(0.015625)"/>
      </defs>
      <use xlink:href="#CMR17-46" transform="scale(0.996264)"/>
      <use xlink:href="#CMR17-69" transform="translate(59.983847 0) scale(0.996264)"/>
      <use xlink:href="#CMR17-6c" transform="translate(84.854905 0) scale(0.996264)"/>
      <use xlink:href="#CMR17-6c" transform="translate(109.725964 0) scale(0.996264)"/>
      <use xlink:href="#CMR17-69" transform="translate(134.597022 0) scale(0.996264)"/>
      <use xlink:href="#CMR17-6e" transform="translate(159.468081 0) scale(0.996264)"/>
      <use xlink:href="#CMR17-67" transform="translate(210.36345 0) scale(0.996264)"/>
      <use xlink:href="#CMR17-52" transform="translate(286.129894 0) scale(0.996264)"/>
      <use xlink:href="#CMR17-61" transform="translate(353.920996 0) scale(0.996264)"/>
      <use xlink:href="#CMR17-74" transform="translate(399.611473 0) scale(0.996264)"/>
      <use xlink:href="#CMR17-69" transform="translate(434.892241 0) scale(0.996264)"/>
      <use xlink:href="#CMR17-6f" transform="translate(459.763299 0) scale(0.996264)"/>
      <use xlink:href="#CMMI12-69" transform="translate(535.529743 0) scale(0.996264)"/>
     </g>
    </g>
   </g>
   <g id="line2d_47">
    <path d="M 55.539107 134.539461 
L 69.88314 134.539461 
L 69.88314 112.714424 
L 55.539107 112.714424 
L 55.539107 134.539461 
" clip-path="url(#p380243bb34)" style="fill: none; stroke: #000000; stroke-linecap: square"/>
   </g>
   <g id="line2d_48">
    <path d="M 62.711123 134.539461 
L 62.711123 166.265549 
" clip-path="url(#p380243bb34)" style="fill: none; stroke: #000000; stroke-linecap: square"/>
   </g>
   <g id="line2d_49">
    <path d="M 62.711123 112.714424 
L 62.711123 88.69698 
" clip-path="url(#p380243bb34)" style="fill: none; stroke: #000000; stroke-linecap: square"/>
   </g>
   <g id="line2d_50">
    <path d="M 59.125115 166.265549 
L 66.297132 166.265549 
" clip-path="url(#p380243bb34)" style="fill: none; stroke: #000000; stroke-linecap: square"/>
   </g>
   <g id="line2d_51">
    <path d="M 59.125115 88.69698 
L 66.297132 88.69698 
" clip-path="url(#p380243bb34)" style="fill: none; stroke: #000000; stroke-linecap: square"/>
   </g>
   <g id="line2d_52"/>
   <g id="line2d_53">
    <path d="M 84.227172 66.679037 
L 98.571205 66.679037 
L 98.571205 54.968211 
L 84.227172 54.968211 
L 84.227172 66.679037 
" clip-path="url(#p380243bb34)" style="fill: none; stroke: #000000; stroke-linecap: square"/>
   </g>
   <g id="line2d_54">
    <path d="M 91.399188 66.679037 
L 91.399188 78.579596 
" clip-path="url(#p380243bb34)" style="fill: none; stroke: #000000; stroke-linecap: square"/>
   </g>
   <g id="line2d_55">
    <path d="M 91.399188 54.968211 
L 91.399188 42.056131 
" clip-path="url(#p380243bb34)" style="fill: none; stroke: #000000; stroke-linecap: square"/>
   </g>
   <g id="line2d_56">
    <path d="M 87.81318 78.579596 
L 94.985196 78.579596 
" clip-path="url(#p380243bb34)" style="fill: none; stroke: #000000; stroke-linecap: square"/>
   </g>
   <g id="line2d_57">
    <path d="M 87.81318 42.056131 
L 94.985196 42.056131 
" clip-path="url(#p380243bb34)" style="fill: none; stroke: #000000; stroke-linecap: square"/>
   </g>
   <g id="line2d_58">
    <defs>
     <path id="ma9cc8444f9" d="M -2 0 
L 2 0 
M 0 2 
L 0 -2 
" style="stroke: #000000"/>
    </defs>
    <g clip-path="url(#p380243bb34)">
     <use xlink:href="#ma9cc8444f9" x="91.399188" y="85.110123" style="fill-opacity: 0; stroke: #000000"/>
    </g>
   </g>
   <g id="line2d_59">
    <path d="M 112.915237 243.255632 
L 127.25927 243.255632 
L 127.25927 242.264393 
L 112.915237 242.264393 
L 112.915237 243.255632 
" clip-path="url(#p380243bb34)" style="fill: none; stroke: #000000; stroke-linecap: square"/>
   </g>
   <g id="line2d_60">
    <path d="M 120.087253 243.255632 
L 120.087253 244.29205 
" clip-path="url(#p380243bb34)" style="fill: none; stroke: #000000; stroke-linecap: square"/>
   </g>
   <g id="line2d_61">
    <path d="M 120.087253 242.264393 
L 120.087253 241.301149 
" clip-path="url(#p380243bb34)" style="fill: none; stroke: #000000; stroke-linecap: square"/>
   </g>
   <g id="line2d_62">
    <path d="M 116.501245 244.29205 
L 123.673261 244.29205 
" clip-path="url(#p380243bb34)" style="fill: none; stroke: #000000; stroke-linecap: square"/>
   </g>
   <g id="line2d_63">
    <path d="M 116.501245 241.301149 
L 123.673261 241.301149 
" clip-path="url(#p380243bb34)" style="fill: none; stroke: #000000; stroke-linecap: square"/>
   </g>
   <g id="line2d_64">
    <g clip-path="url(#p380243bb34)">
     <use xlink:href="#ma9cc8444f9" x="120.087253" y="244.922046" style="fill-opacity: 0; stroke: #000000"/>
    </g>
   </g>
   <g id="line2d_65">
    <path d="M 141.603302 130.693114 
L 155.947334 130.693114 
L 155.947334 129.086024 
L 141.603302 129.086024 
L 141.603302 130.693114 
" clip-path="url(#p380243bb34)" style="fill: none; stroke: #000000; stroke-linecap: square"/>
   </g>
   <g id="line2d_66">
    <path d="M 148.775318 130.693114 
L 148.775318 132.905182 
" clip-path="url(#p380243bb34)" style="fill: none; stroke: #000000; stroke-linecap: square"/>
   </g>
   <g id="line2d_67">
    <path d="M 148.775318 129.086024 
L 148.775318 126.735394 
" clip-path="url(#p380243bb34)" style="fill: none; stroke: #000000; stroke-linecap: square"/>
   </g>
   <g id="line2d_68">
    <path d="M 145.18931 132.905182 
L 152.361326 132.905182 
" clip-path="url(#p380243bb34)" style="fill: none; stroke: #000000; stroke-linecap: square"/>
   </g>
   <g id="line2d_69">
    <path d="M 145.18931 126.735394 
L 152.361326 126.735394 
" clip-path="url(#p380243bb34)" style="fill: none; stroke: #000000; stroke-linecap: square"/>
   </g>
   <g id="line2d_70">
    <g clip-path="url(#p380243bb34)">
     <use xlink:href="#ma9cc8444f9" x="148.775318" y="133.902404" style="fill-opacity: 0; stroke: #000000"/>
     <use xlink:href="#ma9cc8444f9" x="148.775318" y="133.473902" style="fill-opacity: 0; stroke: #000000"/>
     <use xlink:href="#ma9cc8444f9" x="148.775318" y="126.115584" style="fill-opacity: 0; stroke: #000000"/>
     <use xlink:href="#ma9cc8444f9" x="148.775318" y="126.577368" style="fill-opacity: 0; stroke: #000000"/>
    </g>
   </g>
   <g id="line2d_71">
    <path d="M 170.291367 82.744597 
L 184.635399 82.744597 
L 184.635399 82.426691 
L 170.291367 82.426691 
L 170.291367 82.744597 
" clip-path="url(#p380243bb34)" style="fill: none; stroke: #000000; stroke-linecap: square"/>
   </g>
   <g id="line2d_72">
    <path d="M 177.463383 82.744597 
L 177.463383 83.178201 
" clip-path="url(#p380243bb34)" style="fill: none; stroke: #000000; stroke-linecap: square"/>
   </g>
   <g id="line2d_73">
    <path d="M 177.463383 82.426691 
L 177.463383 81.972357 
" clip-path="url(#p380243bb34)" style="fill: none; stroke: #000000; stroke-linecap: square"/>
   </g>
   <g id="line2d_74">
    <path d="M 173.877375 83.178201 
L 181.049391 83.178201 
" clip-path="url(#p380243bb34)" style="fill: none; stroke: #000000; stroke-linecap: square"/>
   </g>
   <g id="line2d_75">
    <path d="M 173.877375 81.972357 
L 181.049391 81.972357 
" clip-path="url(#p380243bb34)" style="fill: none; stroke: #000000; stroke-linecap: square"/>
   </g>
   <g id="line2d_76">
    <g clip-path="url(#p380243bb34)">
     <use xlink:href="#ma9cc8444f9" x="177.463383" y="83.371595" style="fill-opacity: 0; stroke: #000000"/>
     <use xlink:href="#ma9cc8444f9" x="177.463383" y="83.343533" style="fill-opacity: 0; stroke: #000000"/>
     <use xlink:href="#ma9cc8444f9" x="177.463383" y="81.889963" style="fill-opacity: 0; stroke: #000000"/>
    </g>
   </g>
   <g id="line2d_77">
    <path d="M 198.979432 112.892546 
L 213.323464 112.892546 
L 213.323464 111.9781 
L 198.979432 111.9781 
L 198.979432 112.892546 
" clip-path="url(#p380243bb34)" style="fill: none; stroke: #000000; stroke-linecap: square"/>
   </g>
   <g id="line2d_78">
    <path d="M 206.151448 112.892546 
L 206.151448 114.188434 
" clip-path="url(#p380243bb34)" style="fill: none; stroke: #000000; stroke-linecap: square"/>
   </g>
   <g id="line2d_79">
    <path d="M 206.151448 111.9781 
L 206.151448 110.675426 
" clip-path="url(#p380243bb34)" style="fill: none; stroke: #000000; stroke-linecap: square"/>
   </g>
   <g id="line2d_80">
    <path d="M 202.56544 114.188434 
L 209.737456 114.188434 
" clip-path="url(#p380243bb34)" style="fill: none; stroke: #000000; stroke-linecap: square"/>
   </g>
   <g id="line2d_81">
    <path d="M 202.56544 110.675426 
L 209.737456 110.675426 
" clip-path="url(#p380243bb34)" style="fill: none; stroke: #000000; stroke-linecap: square"/>
   </g>
   <g id="line2d_82">
    <g clip-path="url(#p380243bb34)">
     <use xlink:href="#ma9cc8444f9" x="206.151448" y="110.258075" style="fill-opacity: 0; stroke: #000000"/>
    </g>
   </g>
   <g id="line2d_83">
    <path d="M 227.667497 210.828616 
L 242.011529 210.828616 
L 242.011529 210.777119 
L 227.667497 210.777119 
L 227.667497 210.828616 
" clip-path="url(#p380243bb34)" style="fill: none; stroke: #000000; stroke-linecap: square"/>
   </g>
   <g id="line2d_84">
    <path d="M 234.839513 210.828616 
L 234.839513 210.878189 
" clip-path="url(#p380243bb34)" style="fill: none; stroke: #000000; stroke-linecap: square"/>
   </g>
   <g id="line2d_85">
    <path d="M 234.839513 210.777119 
L 234.839513 210.729758 
" clip-path="url(#p380243bb34)" style="fill: none; stroke: #000000; stroke-linecap: square"/>
   </g>
   <g id="line2d_86">
    <path d="M 231.253505 210.878189 
L 238.425521 210.878189 
" clip-path="url(#p380243bb34)" style="fill: none; stroke: #000000; stroke-linecap: square"/>
   </g>
   <g id="line2d_87">
    <path d="M 231.253505 210.729758 
L 238.425521 210.729758 
" clip-path="url(#p380243bb34)" style="fill: none; stroke: #000000; stroke-linecap: square"/>
   </g>
   <g id="line2d_88">
    <g clip-path="url(#p380243bb34)">
     <use xlink:href="#ma9cc8444f9" x="234.839513" y="210.908875" style="fill-opacity: 0; stroke: #000000"/>
    </g>
   </g>
   <g id="line2d_89">
    <path d="M 256.355562 92.80605 
L 270.699594 92.80605 
L 270.699594 91.825138 
L 256.355562 91.825138 
L 256.355562 92.80605 
" clip-path="url(#p380243bb34)" style="fill: none; stroke: #000000; stroke-linecap: square"/>
   </g>
   <g id="line2d_90">
    <path d="M 263.527578 92.80605 
L 263.527578 93.829628 
" clip-path="url(#p380243bb34)" style="fill: none; stroke: #000000; stroke-linecap: square"/>
   </g>
   <g id="line2d_91">
    <path d="M 263.527578 91.825138 
L 263.527578 90.537001 
" clip-path="url(#p380243bb34)" style="fill: none; stroke: #000000; stroke-linecap: square"/>
   </g>
   <g id="line2d_92">
    <path d="M 259.94157 93.829628 
L 267.113586 93.829628 
" clip-path="url(#p380243bb34)" style="fill: none; stroke: #000000; stroke-linecap: square"/>
   </g>
   <g id="line2d_93">
    <path d="M 259.94157 90.537001 
L 267.113586 90.537001 
" clip-path="url(#p380243bb34)" style="fill: none; stroke: #000000; stroke-linecap: square"/>
   </g>
   <g id="line2d_94">
    <g clip-path="url(#p380243bb34)">
     <use xlink:href="#ma9cc8444f9" x="263.527578" y="90.182484" style="fill-opacity: 0; stroke: #000000"/>
    </g>
   </g>
   <g id="line2d_95">
    <path d="M 285.043627 114.367873 
L 299.387659 114.367873 
L 299.387659 114.058547 
L 285.043627 114.058547 
L 285.043627 114.367873 
" clip-path="url(#p380243bb34)" style="fill: none; stroke: #000000; stroke-linecap: square"/>
   </g>
   <g id="line2d_96">
    <path d="M 292.215643 114.367873 
L 292.215643 114.687113 
" clip-path="url(#p380243bb34)" style="fill: none; stroke: #000000; stroke-linecap: square"/>
   </g>
   <g id="line2d_97">
    <path d="M 292.215643 114.058547 
L 292.215643 113.650278 
" clip-path="url(#p380243bb34)" style="fill: none; stroke: #000000; stroke-linecap: square"/>
   </g>
   <g id="line2d_98">
    <path d="M 288.629635 114.687113 
L 295.801651 114.687113 
" clip-path="url(#p380243bb34)" style="fill: none; stroke: #000000; stroke-linecap: square"/>
   </g>
   <g id="line2d_99">
    <path d="M 288.629635 113.650278 
L 295.801651 113.650278 
" clip-path="url(#p380243bb34)" style="fill: none; stroke: #000000; stroke-linecap: square"/>
   </g>
   <g id="line2d_100">
    <g clip-path="url(#p380243bb34)">
     <use xlink:href="#ma9cc8444f9" x="292.215643" y="113.539079" style="fill-opacity: 0; stroke: #000000"/>
    </g>
   </g>
   <g id="line2d_101">
    <path d="M 313.731692 25.979964 
L 328.075724 25.979964 
L 328.075724 25.299668 
L 313.731692 25.299668 
L 313.731692 25.979964 
" clip-path="url(#p380243bb34)" style="fill: none; stroke: #000000; stroke-linecap: square"/>
   </g>
   <g id="line2d_102">
    <path d="M 320.903708 25.979964 
L 320.903708 26.647702 
" clip-path="url(#p380243bb34)" style="fill: none; stroke: #000000; stroke-linecap: square"/>
   </g>
   <g id="line2d_103">
    <path d="M 320.903708 25.299668 
L 320.903708 24.436213 
" clip-path="url(#p380243bb34)" style="fill: none; stroke: #000000; stroke-linecap: square"/>
   </g>
   <g id="line2d_104">
    <path d="M 317.3177 26.647702 
L 324.489716 26.647702 
" clip-path="url(#p380243bb34)" style="fill: none; stroke: #000000; stroke-linecap: square"/>
   </g>
   <g id="line2d_105">
    <path d="M 317.3177 24.436213 
L 324.489716 24.436213 
" clip-path="url(#p380243bb34)" style="fill: none; stroke: #000000; stroke-linecap: square"/>
   </g>
   <g id="line2d_106">
    <g clip-path="url(#p380243bb34)">
     <use xlink:href="#ma9cc8444f9" x="320.903708" y="24.185679" style="fill-opacity: 0; stroke: #000000"/>
    </g>
   </g>
   <g id="line2d_107">
    <path d="M 342.419757 156.87029 
L 356.763789 156.87029 
L 356.763789 156.590204 
L 342.419757 156.590204 
L 342.419757 156.87029 
" clip-path="url(#p380243bb34)" style="fill: none; stroke: #000000; stroke-linecap: square"/>
   </g>
   <g id="line2d_108">
    <path d="M 349.591773 156.87029 
L 349.591773 157.145493 
" clip-path="url(#p380243bb34)" style="fill: none; stroke: #000000; stroke-linecap: square"/>
   </g>
   <g id="line2d_109">
    <path d="M 349.591773 156.590204 
L 349.591773 156.234494 
" clip-path="url(#p380243bb34)" style="fill: none; stroke: #000000; stroke-linecap: square"/>
   </g>
   <g id="line2d_110">
    <path d="M 346.005765 157.145493 
L 353.177781 157.145493 
" clip-path="url(#p380243bb34)" style="fill: none; stroke: #000000; stroke-linecap: square"/>
   </g>
   <g id="line2d_111">
    <path d="M 346.005765 156.234494 
L 353.177781 156.234494 
" clip-path="url(#p380243bb34)" style="fill: none; stroke: #000000; stroke-linecap: square"/>
   </g>
   <g id="line2d_112">
    <g clip-path="url(#p380243bb34)">
     <use xlink:href="#ma9cc8444f9" x="349.591773" y="156.1305" style="fill-opacity: 0; stroke: #000000"/>
    </g>
   </g>
   <g id="line2d_113">
    <path d="M 371.107821 62.023578 
L 385.451854 62.023578 
L 385.451854 61.696224 
L 371.107821 61.696224 
L 371.107821 62.023578 
" clip-path="url(#p380243bb34)" style="fill: none; stroke: #000000; stroke-linecap: square"/>
   </g>
   <g id="line2d_114">
    <path d="M 378.279838 62.023578 
L 378.279838 62.346239 
" clip-path="url(#p380243bb34)" style="fill: none; stroke: #000000; stroke-linecap: square"/>
   </g>
   <g id="line2d_115">
    <path d="M 378.279838 61.696224 
L 378.279838 61.278856 
" clip-path="url(#p380243bb34)" style="fill: none; stroke: #000000; stroke-linecap: square"/>
   </g>
   <g id="line2d_116">
    <path d="M 374.69383 62.346239 
L 381.865846 62.346239 
" clip-path="url(#p380243bb34)" style="fill: none; stroke: #000000; stroke-linecap: square"/>
   </g>
   <g id="line2d_117">
    <path d="M 374.69383 61.278856 
L 381.865846 61.278856 
" clip-path="url(#p380243bb34)" style="fill: none; stroke: #000000; stroke-linecap: square"/>
   </g>
   <g id="line2d_118">
    <g clip-path="url(#p380243bb34)">
     <use xlink:href="#ma9cc8444f9" x="378.279838" y="61.156153" style="fill-opacity: 0; stroke: #000000"/>
    </g>
   </g>
   <g id="line2d_119">
    <path d="M 399.795886 103.043403 
L 414.139919 103.043403 
L 414.139919 102.990124 
L 399.795886 102.990124 
L 399.795886 103.043403 
" clip-path="url(#p380243bb34)" style="fill: none; stroke: #000000; stroke-linecap: square"/>
   </g>
   <g id="line2d_120">
    <path d="M 406.967903 103.043403 
L 406.967903 103.096043 
" clip-path="url(#p380243bb34)" style="fill: none; stroke: #000000; stroke-linecap: square"/>
   </g>
   <g id="line2d_121">
    <path d="M 406.967903 102.990124 
L 406.967903 102.921873 
" clip-path="url(#p380243bb34)" style="fill: none; stroke: #000000; stroke-linecap: square"/>
   </g>
   <g id="line2d_122">
    <path d="M 403.381894 103.096043 
L 410.553911 103.096043 
" clip-path="url(#p380243bb34)" style="fill: none; stroke: #000000; stroke-linecap: square"/>
   </g>
   <g id="line2d_123">
    <path d="M 403.381894 102.921873 
L 410.553911 102.921873 
" clip-path="url(#p380243bb34)" style="fill: none; stroke: #000000; stroke-linecap: square"/>
   </g>
   <g id="line2d_124">
    <g clip-path="url(#p380243bb34)">
     <use xlink:href="#ma9cc8444f9" x="406.967903" y="102.901724" style="fill-opacity: 0; stroke: #000000"/>
    </g>
   </g>
   <g id="line2d_125">
    <path d="M 428.483951 109.32051 
L 442.827984 109.32051 
L 442.827984 109.095318 
L 428.483951 109.095318 
L 428.483951 109.32051 
" clip-path="url(#p380243bb34)" style="fill: none; stroke: #000000; stroke-linecap: square"/>
   </g>
   <g id="line2d_126">
    <path d="M 435.655968 109.32051 
L 435.655968 109.541903 
" clip-path="url(#p380243bb34)" style="fill: none; stroke: #000000; stroke-linecap: square"/>
   </g>
   <g id="line2d_127">
    <path d="M 435.655968 109.095318 
L 435.655968 108.808289 
" clip-path="url(#p380243bb34)" style="fill: none; stroke: #000000; stroke-linecap: square"/>
   </g>
   <g id="line2d_128">
    <path d="M 432.069959 109.541903 
L 439.241976 109.541903 
" clip-path="url(#p380243bb34)" style="fill: none; stroke: #000000; stroke-linecap: square"/>
   </g>
   <g id="line2d_129">
    <path d="M 432.069959 108.808289 
L 439.241976 108.808289 
" clip-path="url(#p380243bb34)" style="fill: none; stroke: #000000; stroke-linecap: square"/>
   </g>
   <g id="line2d_130">
    <g clip-path="url(#p380243bb34)">
     <use xlink:href="#ma9cc8444f9" x="435.655968" y="108.723822" style="fill-opacity: 0; stroke: #000000"/>
    </g>
   </g>
   <g id="line2d_131">
    <path d="M 55.539107 123.537934 
L 69.88314 123.537934 
" clip-path="url(#p380243bb34)" style="fill: none; stroke: #ff7f0e; stroke-linecap: square"/>
   </g>
   <g id="line2d_132">
    <path d="M 84.227172 60.305011 
L 98.571205 60.305011 
" clip-path="url(#p380243bb34)" style="fill: none; stroke: #ff7f0e; stroke-linecap: square"/>
   </g>
   <g id="line2d_133">
    <path d="M 112.915237 242.751209 
L 127.25927 242.751209 
" clip-path="url(#p380243bb34)" style="fill: none; stroke: #ff7f0e; stroke-linecap: square"/>
   </g>
   <g id="line2d_134">
    <path d="M 141.603302 129.907317 
L 155.947334 129.907317 
" clip-path="url(#p380243bb34)" style="fill: none; stroke: #ff7f0e; stroke-linecap: square"/>
   </g>
   <g id="line2d_135">
    <path d="M 170.291367 82.577926 
L 184.635399 82.577926 
" clip-path="url(#p380243bb34)" style="fill: none; stroke: #ff7f0e; stroke-linecap: square"/>
   </g>
   <g id="line2d_136">
    <path d="M 198.979432 112.414177 
L 213.323464 112.414177 
" clip-path="url(#p380243bb34)" style="fill: none; stroke: #ff7f0e; stroke-linecap: square"/>
   </g>
   <g id="line2d_137">
    <path d="M 227.667497 210.801957 
L 242.011529 210.801957 
" clip-path="url(#p380243bb34)" style="fill: none; stroke: #ff7f0e; stroke-linecap: square"/>
   </g>
   <g id="line2d_138">
    <path d="M 256.355562 92.304851 
L 270.699594 92.304851 
" clip-path="url(#p380243bb34)" style="fill: none; stroke: #ff7f0e; stroke-linecap: square"/>
   </g>
   <g id="line2d_139">
    <path d="M 285.043627 114.210102 
L 299.387659 114.210102 
" clip-path="url(#p380243bb34)" style="fill: none; stroke: #ff7f0e; stroke-linecap: square"/>
   </g>
   <g id="line2d_140">
    <path d="M 313.731692 25.624658 
L 328.075724 25.624658 
" clip-path="url(#p380243bb34)" style="fill: none; stroke: #ff7f0e; stroke-linecap: square"/>
   </g>
   <g id="line2d_141">
    <path d="M 342.419757 156.722299 
L 356.763789 156.722299 
" clip-path="url(#p380243bb34)" style="fill: none; stroke: #ff7f0e; stroke-linecap: square"/>
   </g>
   <g id="line2d_142">
    <path d="M 371.107821 61.848435 
L 385.451854 61.848435 
" clip-path="url(#p380243bb34)" style="fill: none; stroke: #ff7f0e; stroke-linecap: square"/>
   </g>
   <g id="line2d_143">
    <path d="M 399.795886 103.014943 
L 414.139919 103.014943 
" clip-path="url(#p380243bb34)" style="fill: none; stroke: #ff7f0e; stroke-linecap: square"/>
   </g>
   <g id="line2d_144">
    <path d="M 428.483951 109.19728 
L 442.827984 109.19728 
" clip-path="url(#p380243bb34)" style="fill: none; stroke: #ff7f0e; stroke-linecap: square"/>
   </g>
   <g id="patch_17">
    <path d="M 48.367091 306.088647 
L 48.367091 14.259249 
" style="fill: none; stroke: #000000; stroke-width: 0.8; stroke-linejoin: miter; stroke-linecap: square"/>
   </g>
   <g id="patch_18">
    <path d="M 450 306.088647 
L 450 14.259249 
" style="fill: none; stroke: #000000; stroke-width: 0.8; stroke-linejoin: miter; stroke-linecap: square"/>
   </g>
   <g id="patch_19">
    <path d="M 48.367091 306.088647 
L 450 306.088647 
" style="fill: none; stroke: #000000; stroke-width: 0.8; stroke-linejoin: miter; stroke-linecap: square"/>
   </g>
   <g id="patch_20">
    <path d="M 48.367091 14.259249 
L 450 14.259249 
" style="fill: none; stroke: #000000; stroke-width: 0.8; stroke-linejoin: miter; stroke-linecap: square"/>
   </g>
   <g id="legend_1">
    <g id="patch_21">
     <path d="M 376.130653 36.196428 
L 443 36.196428 
Q 445 36.196428 445 34.196428 
L 445 21.259249 
Q 445 19.259249 443 19.259249 
L 376.130653 19.259249 
Q 374.130653 19.259249 374.130653 21.259249 
L 374.130653 34.196428 
Q 374.130653 36.196428 376.130653 36.196428 
z
" style="fill: #ffffff; opacity: 0.8; stroke: #cccccc; stroke-linejoin: miter"/>
    </g>
    <g id="patch_22">
     <path d="M 378.130653 30.259249 
L 398.130653 30.259249 
L 398.130653 23.259249 
L 378.130653 23.259249 
z
" style="fill: #1f77b4; opacity: 0.5"/>
    </g>
    <g id="text_26">
     <!-- nominal -->
     <g transform="translate(406.130653 30.259249) scale(0.1 -0.1)">
      <defs>
       <path id="CMR17-6d" d="M 4326 1933 
C 4326 2252 4269 2790 3507 2790 
C 3072 2790 2771 2496 2656 2151 
L 2650 2151 
C 2573 2676 2195 2790 1837 2790 
C 1331 2790 1069 2400 973 2144 
L 966 2144 
L 966 2790 
L 211 2720 
L 211 2554 
C 589 2554 646 2515 646 2208 
L 646 428 
C 646 184 621 153 211 153 
L 211 -13 
C 365 0 646 0 813 0 
C 979 0 1267 0 1421 -13 
L 1421 153 
C 1011 153 986 178 986 428 
L 986 1658 
C 986 2247 1344 2688 1792 2688 
C 2266 2688 2317 2266 2317 1958 
L 2317 428 
C 2317 184 2291 153 1882 153 
L 1882 -13 
C 2035 0 2317 0 2483 0 
C 2650 0 2938 0 3091 -13 
L 3091 153 
C 2682 153 2656 178 2656 428 
L 2656 1658 
C 2656 2247 3014 2688 3462 2688 
C 3936 2688 3987 2266 3987 1958 
L 3987 428 
C 3987 184 3962 153 3552 153 
L 3552 -13 
C 3706 0 3987 0 4154 0 
C 4320 0 4608 0 4762 -13 
L 4762 153 
C 4352 153 4326 178 4326 428 
L 4326 1933 
z
" transform="scale(0.015625)"/>
      </defs>
      <use xlink:href="#CMR17-6e" transform="scale(0.996264)"/>
      <use xlink:href="#CMR17-6f" transform="translate(50.89537 0) scale(0.996264)"/>
      <use xlink:href="#CMR17-6d" transform="translate(96.585847 0) scale(0.996264)"/>
      <use xlink:href="#CMR17-69" transform="translate(173.505437 0) scale(0.996264)"/>
      <use xlink:href="#CMR17-6e" transform="translate(198.376495 0) scale(0.996264)"/>
      <use xlink:href="#CMR17-61" transform="translate(249.271865 0) scale(0.996264)"/>
      <use xlink:href="#CMR17-6c" transform="translate(294.962342 0) scale(0.996264)"/>
     </g>
    </g>
   </g>
  </g>
 </g>
 <defs>
  <clipPath id="p380243bb34">
   <rect x="48.367091" y="14.259249" width="401.632909" height="291.829397"/>
  </clipPath>
 </defs>
</svg>
