<?xml version="1.0" encoding="utf-8" standalone="no"?>
<!DOCTYPE svg PUBLIC "-//W3C//DTD SVG 1.1//EN"
  "http://www.w3.org/Graphics/SVG/1.1/DTD/svg11.dtd">
<svg xmlns:xlink="http://www.w3.org/1999/xlink" width="460.8pt" height="345.6pt" viewBox="0 0 460.8 345.6" xmlns="http://www.w3.org/2000/svg" version="1.1">
 <metadata>
  <rdf:RDF xmlns:dc="http://purl.org/dc/elements/1.1/" xmlns:cc="http://creativecommons.org/ns#" xmlns:rdf="http://www.w3.org/1999/02/22-rdf-syntax-ns#">
   <cc:Work>
    <dc:type rdf:resource="http://purl.org/dc/dcmitype/StillImage"/>
    <dc:date>2023-04-17T14:41:41.476595</dc:date>
    <dc:format>image/svg+xml</dc:format>
    <dc:creator>
     <cc:Agent>
      <dc:title>Matplotlib v3.7.1, https://matplotlib.org/</dc:title>
     </cc:Agent>
    </dc:creator>
   </cc:Work>
  </rdf:RDF>
 </metadata>
 <defs>
  <style type="text/css">*{stroke-linejoin: round; stroke-linecap: butt}</style>
 </defs>
 <g id="figure_1">
  <g id="patch_1">
   <path d="M 0 345.6 
L 460.8 345.6 
L 460.8 0 
L 0 0 
z
" style="fill: #ffffff"/>
  </g>
  <g id="axes_1">
   <g id="patch_2">
    <path d="M 35.637012 306.088647 
L 450 306.088647 
L 450 14.259249 
L 35.637012 14.259249 
z
" style="fill: #ffffff"/>
   </g>
   <g id="patch_3">
    <path d="M 38.596748 306.088647 
L 62.274633 306.088647 
L 62.274633 68.77274 
L 38.596748 68.77274 
z
" clip-path="url(#pe2d1ea9d5c)" style="fill: #1f77b4; opacity: 0.5"/>
   </g>
   <g id="patch_4">
    <path d="M 68.194104 306.088647 
L 91.871989 306.088647 
L 91.871989 161.16378 
L 68.194104 161.16378 
z
" clip-path="url(#pe2d1ea9d5c)" style="fill: #1f77b4; opacity: 0.5"/>
   </g>
   <g id="patch_5">
    <path d="M 97.79146 306.088647 
L 121.469345 306.088647 
L 121.469345 117.638339 
L 97.79146 117.638339 
z
" clip-path="url(#pe2d1ea9d5c)" style="fill: #1f77b4; opacity: 0.5"/>
   </g>
   <g id="patch_6">
    <path d="M 127.388816 306.088647 
L 151.066701 306.088647 
L 151.066701 208.122506 
L 127.388816 208.122506 
z
" clip-path="url(#pe2d1ea9d5c)" style="fill: #1f77b4; opacity: 0.5"/>
   </g>
   <g id="patch_7">
    <path d="M 156.986173 306.088647 
L 180.664058 306.088647 
L 180.664058 215.023148 
L 156.986173 215.023148 
z
" clip-path="url(#pe2d1ea9d5c)" style="fill: #1f77b4; opacity: 0.5"/>
   </g>
   <g id="patch_8">
    <path d="M 186.583529 306.088647 
L 210.261414 306.088647 
L 210.261414 244.147917 
L 186.583529 244.147917 
z
" clip-path="url(#pe2d1ea9d5c)" style="fill: #1f77b4; opacity: 0.5"/>
   </g>
   <g id="patch_9">
    <path d="M 216.180885 306.088647 
L 239.85877 306.088647 
L 239.85877 224.328032 
L 216.180885 224.328032 
z
" clip-path="url(#pe2d1ea9d5c)" style="fill: #1f77b4; opacity: 0.5"/>
   </g>
   <g id="patch_10">
    <path d="M 245.778242 306.088647 
L 269.456127 306.088647 
L 269.456127 257.31202 
L 245.778242 257.31202 
z
" clip-path="url(#pe2d1ea9d5c)" style="fill: #1f77b4; opacity: 0.5"/>
   </g>
   <g id="patch_11">
    <path d="M 275.375598 306.088647 
L 299.053483 306.088647 
L 299.053483 269.016208 
L 275.375598 269.016208 
z
" clip-path="url(#pe2d1ea9d5c)" style="fill: #1f77b4; opacity: 0.5"/>
   </g>
   <g id="patch_12">
    <path d="M 304.972954 306.088647 
L 328.650839 306.088647 
L 328.650839 277.333582 
L 304.972954 277.333582 
z
" clip-path="url(#pe2d1ea9d5c)" style="fill: #1f77b4; opacity: 0.5"/>
   </g>
   <g id="patch_13">
    <path d="M 334.57031 306.088647 
L 358.248196 306.088647 
L 358.248196 291.615997 
L 334.57031 291.615997 
z
" clip-path="url(#pe2d1ea9d5c)" style="fill: #1f77b4; opacity: 0.5"/>
   </g>
   <g id="patch_14">
    <path d="M 364.167667 306.088647 
L 387.845552 306.088647 
L 387.845552 295.513026 
L 364.167667 295.513026 
z
" clip-path="url(#pe2d1ea9d5c)" style="fill: #1f77b4; opacity: 0.5"/>
   </g>
   <g id="patch_15">
    <path d="M 393.765023 306.088647 
L 417.442908 306.088647 
L 417.442908 293.10657 
L 393.765023 293.10657 
z
" clip-path="url(#pe2d1ea9d5c)" style="fill: #1f77b4; opacity: 0.5"/>
   </g>
   <g id="patch_16">
    <path d="M 423.362379 306.088647 
L 447.040264 306.088647 
L 447.040264 301.040053 
L 423.362379 301.040053 
z
" clip-path="url(#pe2d1ea9d5c)" style="fill: #1f77b4; opacity: 0.5"/>
   </g>
   <g id="PathCollection_1">
    <defs>
     <path id="mb6ded0380d" d="M -3 3 
L 3 -3 
M -3 -3 
L 3 3 
" style="stroke: #ff0000"/>
    </defs>
    <g clip-path="url(#pe2d1ea9d5c)">
     <use xlink:href="#mb6ded0380d" x="50.43569" y="99.29185" style="fill: #ff0000; stroke: #ff0000"/>
     <use xlink:href="#mb6ded0380d" x="80.033046" y="93.993201" style="fill: #ff0000; stroke: #ff0000"/>
     <use xlink:href="#mb6ded0380d" x="109.630403" y="54.780247" style="fill: #ff0000; stroke: #ff0000"/>
     <use xlink:href="#mb6ded0380d" x="139.227759" y="121.299354" style="fill: #ff0000; stroke: #ff0000"/>
     <use xlink:href="#mb6ded0380d" x="168.825115" y="158.464022" style="fill: #ff0000; stroke: #ff0000"/>
     <use xlink:href="#mb6ded0380d" x="198.422472" y="198.278112" style="fill: #ff0000; stroke: #ff0000"/>
     <use xlink:href="#mb6ded0380d" x="228.019828" y="174.951216" style="fill: #ff0000; stroke: #ff0000"/>
     <use xlink:href="#mb6ded0380d" x="257.617184" y="217.224666" style="fill: #ff0000; stroke: #ff0000"/>
     <use xlink:href="#mb6ded0380d" x="287.21454" y="251.645051" style="fill: #ff0000; stroke: #ff0000"/>
     <use xlink:href="#mb6ded0380d" x="316.811897" y="247.992985" style="fill: #ff0000; stroke: #ff0000"/>
     <use xlink:href="#mb6ded0380d" x="346.409253" y="289.665451" style="fill: #ff0000; stroke: #ff0000"/>
     <use xlink:href="#mb6ded0380d" x="376.006609" y="286.933468" style="fill: #ff0000; stroke: #ff0000"/>
     <use xlink:href="#mb6ded0380d" x="405.603966" y="280.95565" style="fill: #ff0000; stroke: #ff0000"/>
     <use xlink:href="#mb6ded0380d" x="435.201322" y="293.287336" style="fill: #ff0000; stroke: #ff0000"/>
    </g>
   </g>
   <g id="PathCollection_2">
    <g clip-path="url(#pe2d1ea9d5c)">
     <use xlink:href="#mb6ded0380d" x="50.43569" y="105.762195" style="fill: #ff0000; stroke: #ff0000"/>
     <use xlink:href="#mb6ded0380d" x="80.033046" y="96.124853" style="fill: #ff0000; stroke: #ff0000"/>
     <use xlink:href="#mb6ded0380d" x="109.630403" y="56.184271" style="fill: #ff0000; stroke: #ff0000"/>
     <use xlink:href="#mb6ded0380d" x="139.227759" y="122.745531" style="fill: #ff0000; stroke: #ff0000"/>
     <use xlink:href="#mb6ded0380d" x="168.825115" y="160.638378" style="fill: #ff0000; stroke: #ff0000"/>
     <use xlink:href="#mb6ded0380d" x="198.422472" y="202.014631" style="fill: #ff0000; stroke: #ff0000"/>
     <use xlink:href="#mb6ded0380d" x="228.019828" y="181.199851" style="fill: #ff0000; stroke: #ff0000"/>
     <use xlink:href="#mb6ded0380d" x="257.617184" y="219.546801" style="fill: #ff0000; stroke: #ff0000"/>
     <use xlink:href="#mb6ded0380d" x="287.21454" y="253.228339" style="fill: #ff0000; stroke: #ff0000"/>
     <use xlink:href="#mb6ded0380d" x="316.811897" y="249.090734" style="fill: #ff0000; stroke: #ff0000"/>
     <use xlink:href="#mb6ded0380d" x="346.409253" y="290.050659" style="fill: #ff0000; stroke: #ff0000"/>
     <use xlink:href="#mb6ded0380d" x="376.006609" y="285.829007" style="fill: #ff0000; stroke: #ff0000"/>
     <use xlink:href="#mb6ded0380d" x="405.603966" y="281.3444" style="fill: #ff0000; stroke: #ff0000"/>
     <use xlink:href="#mb6ded0380d" x="435.201322" y="293.704266" style="fill: #ff0000; stroke: #ff0000"/>
    </g>
   </g>
   <g id="PathCollection_3">
    <g clip-path="url(#pe2d1ea9d5c)">
     <use xlink:href="#mb6ded0380d" x="50.43569" y="109.340185" style="fill: #ff0000; stroke: #ff0000"/>
     <use xlink:href="#mb6ded0380d" x="80.033046" y="101.867407" style="fill: #ff0000; stroke: #ff0000"/>
     <use xlink:href="#mb6ded0380d" x="109.630403" y="58.970755" style="fill: #ff0000; stroke: #ff0000"/>
     <use xlink:href="#mb6ded0380d" x="139.227759" y="125.658637" style="fill: #ff0000; stroke: #ff0000"/>
     <use xlink:href="#mb6ded0380d" x="168.825115" y="163.636034" style="fill: #ff0000; stroke: #ff0000"/>
     <use xlink:href="#mb6ded0380d" x="198.422472" y="203.133505" style="fill: #ff0000; stroke: #ff0000"/>
     <use xlink:href="#mb6ded0380d" x="228.019828" y="180.355442" style="fill: #ff0000; stroke: #ff0000"/>
     <use xlink:href="#mb6ded0380d" x="257.617184" y="219.810663" style="fill: #ff0000; stroke: #ff0000"/>
     <use xlink:href="#mb6ded0380d" x="287.21454" y="253.122811" style="fill: #ff0000; stroke: #ff0000"/>
     <use xlink:href="#mb6ded0380d" x="316.811897" y="249.734574" style="fill: #ff0000; stroke: #ff0000"/>
     <use xlink:href="#mb6ded0380d" x="346.409253" y="290.249661" style="fill: #ff0000; stroke: #ff0000"/>
     <use xlink:href="#mb6ded0380d" x="376.006609" y="287.342856" style="fill: #ff0000; stroke: #ff0000"/>
     <use xlink:href="#mb6ded0380d" x="405.603966" y="281.337996" style="fill: #ff0000; stroke: #ff0000"/>
     <use xlink:href="#mb6ded0380d" x="435.201322" y="293.571795" style="fill: #ff0000; stroke: #ff0000"/>
    </g>
   </g>
   <g id="PathCollection_4">
    <g clip-path="url(#pe2d1ea9d5c)">
     <use xlink:href="#mb6ded0380d" x="50.43569" y="108.274359" style="fill: #ff0000; stroke: #ff0000"/>
     <use xlink:href="#mb6ded0380d" x="80.033046" y="103.556126" style="fill: #ff0000; stroke: #ff0000"/>
     <use xlink:href="#mb6ded0380d" x="109.630403" y="67.404625" style="fill: #ff0000; stroke: #ff0000"/>
     <use xlink:href="#mb6ded0380d" x="139.227759" y="131.759492" style="fill: #ff0000; stroke: #ff0000"/>
     <use xlink:href="#mb6ded0380d" x="168.825115" y="168.238102" style="fill: #ff0000; stroke: #ff0000"/>
     <use xlink:href="#mb6ded0380d" x="198.422472" y="207.75665" style="fill: #ff0000; stroke: #ff0000"/>
     <use xlink:href="#mb6ded0380d" x="228.019828" y="185.823028" style="fill: #ff0000; stroke: #ff0000"/>
     <use xlink:href="#mb6ded0380d" x="257.617184" y="222.639463" style="fill: #ff0000; stroke: #ff0000"/>
     <use xlink:href="#mb6ded0380d" x="287.21454" y="254.938314" style="fill: #ff0000; stroke: #ff0000"/>
     <use xlink:href="#mb6ded0380d" x="316.811897" y="250.927346" style="fill: #ff0000; stroke: #ff0000"/>
     <use xlink:href="#mb6ded0380d" x="346.409253" y="290.702387" style="fill: #ff0000; stroke: #ff0000"/>
     <use xlink:href="#mb6ded0380d" x="376.006609" y="287.11257" style="fill: #ff0000; stroke: #ff0000"/>
     <use xlink:href="#mb6ded0380d" x="405.603966" y="282.438873" style="fill: #ff0000; stroke: #ff0000"/>
     <use xlink:href="#mb6ded0380d" x="435.201322" y="294.27002" style="fill: #ff0000; stroke: #ff0000"/>
    </g>
   </g>
   <g id="matplotlib.axis_1">
    <g id="xtick_1">
     <g id="line2d_1">
      <path d="M 50.43569 306.088647 
L 50.43569 14.259249 
" clip-path="url(#pe2d1ea9d5c)" style="fill: none; stroke: #b0b0b0; stroke-width: 0.8; stroke-linecap: square"/>
     </g>
     <g id="line2d_2">
      <defs>
       <path id="m631e868cc1" d="M 0 0 
L 0 3.5 
" style="stroke: #000000; stroke-width: 0.8"/>
      </defs>
      <g>
       <use xlink:href="#m631e868cc1" x="50.43569" y="306.088647" style="stroke: #000000; stroke-width: 0.8"/>
      </g>
     </g>
     <g id="text_1">
      <!-- R1 -->
      <g transform="translate(44.278216 320.007145) scale(0.1 -0.1)">
       <defs>
        <path id="CMR17-52" d="M 2509 2146 
C 3117 2268 3629 2676 3629 3186 
C 3629 3785 2950 4326 2054 4326 
L 333 4326 
L 333 4160 
C 774 4160 845 4160 845 3873 
L 845 415 
C 845 128 774 128 333 128 
L 333 -26 
C 518 -26 851 -26 1050 -26 
C 1248 -26 1581 -26 1766 -26 
L 1766 128 
C 1325 128 1254 128 1254 417 
L 1254 2112 
L 2003 2112 
C 2368 2112 2573 1964 2662 1881 
C 2918 1632 2918 1459 2918 1024 
C 2918 595 2918 377 3110 160 
C 3354 -102 3680 -128 3821 -128 
C 4294 -128 4365 396 4365 503 
C 4365 540 4365 585 4307 585 
C 4256 585 4250 547 4250 522 
C 4218 112 4032 -26 3834 -26 
C 3482 -26 3443 375 3405 764 
C 3386 898 3373 993 3360 1133 
C 3322 1452 3270 1917 2509 2146 
z
M 1984 2214 
L 1254 2214 
L 1254 3913 
C 1254 4129 1267 4160 1523 4160 
L 1990 4160 
C 2522 4160 3142 3977 3142 3190 
C 3142 2372 2464 2214 1984 2214 
z
" transform="scale(0.015625)"/>
        <path id="CMR17-31" d="M 1702 4058 
C 1702 4192 1696 4192 1606 4192 
C 1357 3916 979 3827 621 3827 
C 602 3827 570 3827 563 3808 
C 557 3795 557 3782 557 3648 
C 755 3648 1088 3686 1344 3839 
L 1344 461 
C 1344 236 1331 160 781 160 
L 589 160 
L 589 0 
C 896 0 1216 0 1523 0 
C 1830 0 2150 0 2458 0 
L 2458 160 
L 2266 160 
C 1715 160 1702 230 1702 458 
L 1702 4058 
z
" transform="scale(0.015625)"/>
       </defs>
       <use xlink:href="#CMR17-52" transform="scale(0.996264)"/>
       <use xlink:href="#CMR17-31" transform="translate(67.791102 0) scale(0.996264)"/>
      </g>
     </g>
    </g>
    <g id="xtick_2">
     <g id="line2d_3">
      <path d="M 80.033046 306.088647 
L 80.033046 14.259249 
" clip-path="url(#pe2d1ea9d5c)" style="fill: none; stroke: #b0b0b0; stroke-width: 0.8; stroke-linecap: square"/>
     </g>
     <g id="line2d_4">
      <g>
       <use xlink:href="#m631e868cc1" x="80.033046" y="306.088647" style="stroke: #000000; stroke-width: 0.8"/>
      </g>
     </g>
     <g id="text_2">
      <!-- R2 -->
      <g transform="translate(73.875572 320.007145) scale(0.1 -0.1)">
       <defs>
        <path id="CMR17-32" d="M 2669 989 
L 2554 989 
C 2490 536 2438 459 2413 420 
C 2381 369 1920 369 1830 369 
L 602 369 
C 832 619 1280 1072 1824 1597 
C 2214 1967 2669 2402 2669 3035 
C 2669 3790 2067 4224 1395 4224 
C 691 4224 262 3604 262 3030 
C 262 2780 448 2748 525 2748 
C 589 2748 781 2787 781 3010 
C 781 3207 614 3264 525 3264 
C 486 3264 448 3258 422 3245 
C 544 3790 915 4058 1306 4058 
C 1862 4058 2227 3617 2227 3035 
C 2227 2479 1901 2000 1536 1584 
L 262 146 
L 262 0 
L 2515 0 
L 2669 989 
z
" transform="scale(0.015625)"/>
       </defs>
       <use xlink:href="#CMR17-52" transform="scale(0.996264)"/>
       <use xlink:href="#CMR17-32" transform="translate(67.791102 0) scale(0.996264)"/>
      </g>
     </g>
    </g>
    <g id="xtick_3">
     <g id="line2d_5">
      <path d="M 109.630403 306.088647 
L 109.630403 14.259249 
" clip-path="url(#pe2d1ea9d5c)" style="fill: none; stroke: #b0b0b0; stroke-width: 0.8; stroke-linecap: square"/>
     </g>
     <g id="line2d_6">
      <g>
       <use xlink:href="#m631e868cc1" x="109.630403" y="306.088647" style="stroke: #000000; stroke-width: 0.8"/>
      </g>
     </g>
     <g id="text_3">
      <!-- R3 -->
      <g transform="translate(103.472928 320.007145) scale(0.1 -0.1)">
       <defs>
        <path id="CMR17-33" d="M 1414 2157 
C 1984 2157 2234 1662 2234 1090 
C 2234 320 1824 25 1453 25 
C 1114 25 563 194 390 693 
C 422 680 454 680 486 680 
C 640 680 755 782 755 948 
C 755 1133 614 1216 486 1216 
C 378 1216 211 1165 211 926 
C 211 335 787 -128 1466 -128 
C 2176 -128 2720 430 2720 1085 
C 2720 1707 2208 2157 1600 2227 
C 2086 2328 2554 2756 2554 3329 
C 2554 3820 2048 4179 1472 4179 
C 890 4179 378 3829 378 3329 
C 378 3110 544 3072 627 3072 
C 762 3072 877 3155 877 3321 
C 877 3486 762 3569 627 3569 
C 602 3569 570 3569 544 3557 
C 730 3959 1235 4032 1459 4032 
C 1683 4032 2106 3925 2106 3320 
C 2106 3143 2080 2828 1862 2550 
C 1670 2304 1453 2304 1242 2284 
C 1210 2284 1062 2269 1037 2269 
C 992 2263 966 2257 966 2208 
C 966 2163 973 2157 1101 2157 
L 1414 2157 
z
" transform="scale(0.015625)"/>
       </defs>
       <use xlink:href="#CMR17-52" transform="scale(0.996264)"/>
       <use xlink:href="#CMR17-33" transform="translate(67.791102 0) scale(0.996264)"/>
      </g>
     </g>
    </g>
    <g id="xtick_4">
     <g id="line2d_7">
      <path d="M 139.227759 306.088647 
L 139.227759 14.259249 
" clip-path="url(#pe2d1ea9d5c)" style="fill: none; stroke: #b0b0b0; stroke-width: 0.8; stroke-linecap: square"/>
     </g>
     <g id="line2d_8">
      <g>
       <use xlink:href="#m631e868cc1" x="139.227759" y="306.088647" style="stroke: #000000; stroke-width: 0.8"/>
      </g>
     </g>
     <g id="text_4">
      <!-- R4 -->
      <g transform="translate(133.070285 320.007145) scale(0.1 -0.1)">
       <defs>
        <path id="CMR17-34" d="M 2150 4122 
C 2150 4256 2144 4256 2029 4256 
L 128 1254 
L 128 1088 
L 1779 1088 
L 1779 457 
C 1779 224 1766 160 1318 160 
L 1197 160 
L 1197 0 
C 1402 0 1747 0 1965 0 
C 2182 0 2528 0 2733 0 
L 2733 160 
L 2611 160 
C 2163 160 2150 224 2150 457 
L 2150 1088 
L 2803 1088 
L 2803 1254 
L 2150 1254 
L 2150 4122 
z
M 1798 3703 
L 1798 1254 
L 256 1254 
L 1798 3703 
z
" transform="scale(0.015625)"/>
       </defs>
       <use xlink:href="#CMR17-52" transform="scale(0.996264)"/>
       <use xlink:href="#CMR17-34" transform="translate(67.791102 0) scale(0.996264)"/>
      </g>
     </g>
    </g>
    <g id="xtick_5">
     <g id="line2d_9">
      <path d="M 168.825115 306.088647 
L 168.825115 14.259249 
" clip-path="url(#pe2d1ea9d5c)" style="fill: none; stroke: #b0b0b0; stroke-width: 0.8; stroke-linecap: square"/>
     </g>
     <g id="line2d_10">
      <g>
       <use xlink:href="#m631e868cc1" x="168.825115" y="306.088647" style="stroke: #000000; stroke-width: 0.8"/>
      </g>
     </g>
     <g id="text_5">
      <!-- R5 -->
      <g transform="translate(162.667641 320.007145) scale(0.1 -0.1)">
       <defs>
        <path id="CMR17-35" d="M 730 3692 
C 794 3666 1056 3584 1325 3584 
C 1920 3584 2246 3911 2432 4100 
C 2432 4157 2432 4192 2394 4192 
C 2387 4192 2374 4192 2323 4163 
C 2099 4058 1837 3973 1517 3973 
C 1325 3973 1037 3999 723 4139 
C 653 4171 640 4171 634 4171 
C 602 4171 595 4164 595 4037 
L 595 2203 
C 595 2089 595 2057 659 2057 
C 691 2057 704 2070 736 2114 
C 941 2401 1222 2522 1542 2522 
C 1766 2522 2246 2382 2246 1289 
C 2246 1085 2246 715 2054 421 
C 1894 159 1645 25 1370 25 
C 947 25 518 320 403 814 
C 429 807 480 795 506 795 
C 589 795 749 840 749 1038 
C 749 1210 627 1280 506 1280 
C 358 1280 262 1190 262 1011 
C 262 454 704 -128 1382 -128 
C 2042 -128 2669 440 2669 1264 
C 2669 2030 2170 2624 1549 2624 
C 1222 2624 947 2503 730 2274 
L 730 3692 
z
" transform="scale(0.015625)"/>
       </defs>
       <use xlink:href="#CMR17-52" transform="scale(0.996264)"/>
       <use xlink:href="#CMR17-35" transform="translate(67.791102 0) scale(0.996264)"/>
      </g>
     </g>
    </g>
    <g id="xtick_6">
     <g id="line2d_11">
      <path d="M 198.422472 306.088647 
L 198.422472 14.259249 
" clip-path="url(#pe2d1ea9d5c)" style="fill: none; stroke: #b0b0b0; stroke-width: 0.8; stroke-linecap: square"/>
     </g>
     <g id="line2d_12">
      <g>
       <use xlink:href="#m631e868cc1" x="198.422472" y="306.088647" style="stroke: #000000; stroke-width: 0.8"/>
      </g>
     </g>
     <g id="text_6">
      <!-- R6 -->
      <g transform="translate(192.264997 320.007145) scale(0.1 -0.1)">
       <defs>
        <path id="CMR17-36" d="M 678 2176 
C 678 3690 1395 4032 1811 4032 
C 1946 4032 2272 4009 2400 3776 
C 2298 3776 2106 3776 2106 3553 
C 2106 3381 2246 3323 2336 3323 
C 2394 3323 2566 3348 2566 3560 
C 2566 3954 2246 4179 1805 4179 
C 1043 4179 243 3390 243 1984 
C 243 253 966 -128 1478 -128 
C 2099 -128 2688 427 2688 1283 
C 2688 2081 2170 2662 1517 2662 
C 1126 2662 838 2407 678 1960 
L 678 2176 
z
M 1478 25 
C 691 25 691 1200 691 1436 
C 691 1896 909 2560 1504 2560 
C 1613 2560 1926 2560 2138 2120 
C 2253 1870 2253 1609 2253 1289 
C 2253 944 2253 690 2118 434 
C 1978 171 1773 25 1478 25 
z
" transform="scale(0.015625)"/>
       </defs>
       <use xlink:href="#CMR17-52" transform="scale(0.996264)"/>
       <use xlink:href="#CMR17-36" transform="translate(67.791102 0) scale(0.996264)"/>
      </g>
     </g>
    </g>
    <g id="xtick_7">
     <g id="line2d_13">
      <path d="M 228.019828 306.088647 
L 228.019828 14.259249 
" clip-path="url(#pe2d1ea9d5c)" style="fill: none; stroke: #b0b0b0; stroke-width: 0.8; stroke-linecap: square"/>
     </g>
     <g id="line2d_14">
      <g>
       <use xlink:href="#m631e868cc1" x="228.019828" y="306.088647" style="stroke: #000000; stroke-width: 0.8"/>
      </g>
     </g>
     <g id="text_7">
      <!-- R7 -->
      <g transform="translate(221.862353 320.007145) scale(0.1 -0.1)">
       <defs>
        <path id="CMR17-37" d="M 2886 3941 
L 2886 4081 
L 1382 4081 
C 634 4081 621 4165 595 4288 
L 480 4288 
L 294 3094 
L 410 3094 
C 429 3215 474 3540 550 3661 
C 589 3712 1062 3712 1171 3712 
L 2579 3712 
L 1869 2661 
C 1395 1954 1069 999 1069 165 
C 1069 89 1069 -128 1299 -128 
C 1530 -128 1530 89 1530 171 
L 1530 465 
C 1530 1508 1709 2196 2003 2636 
L 2886 3941 
z
" transform="scale(0.015625)"/>
       </defs>
       <use xlink:href="#CMR17-52" transform="scale(0.996264)"/>
       <use xlink:href="#CMR17-37" transform="translate(67.791102 0) scale(0.996264)"/>
      </g>
     </g>
    </g>
    <g id="xtick_8">
     <g id="line2d_15">
      <path d="M 257.617184 306.088647 
L 257.617184 14.259249 
" clip-path="url(#pe2d1ea9d5c)" style="fill: none; stroke: #b0b0b0; stroke-width: 0.8; stroke-linecap: square"/>
     </g>
     <g id="line2d_16">
      <g>
       <use xlink:href="#m631e868cc1" x="257.617184" y="306.088647" style="stroke: #000000; stroke-width: 0.8"/>
      </g>
     </g>
     <g id="text_8">
      <!-- R8 -->
      <g transform="translate(251.45971 320.007145) scale(0.1 -0.1)">
       <defs>
        <path id="CMR17-38" d="M 1741 2264 
C 2144 2467 2554 2773 2554 3263 
C 2554 3841 1990 4179 1472 4179 
C 890 4179 378 3759 378 3180 
C 378 3021 416 2747 666 2505 
C 730 2442 998 2251 1171 2130 
C 883 1983 211 1634 211 934 
C 211 279 838 -128 1459 -128 
C 2144 -128 2720 362 2720 1010 
C 2720 1590 2330 1857 2074 2029 
L 1741 2264 
z
M 902 2822 
C 851 2854 595 3051 595 3351 
C 595 3739 998 4032 1459 4032 
C 1965 4032 2336 3676 2336 3262 
C 2336 2669 1670 2331 1638 2331 
C 1632 2331 1626 2331 1574 2370 
L 902 2822 
z
M 2080 1519 
C 2176 1449 2483 1240 2483 851 
C 2483 381 2010 25 1472 25 
C 890 25 448 438 448 940 
C 448 1443 838 1862 1280 2060 
L 2080 1519 
z
" transform="scale(0.015625)"/>
       </defs>
       <use xlink:href="#CMR17-52" transform="scale(0.996264)"/>
       <use xlink:href="#CMR17-38" transform="translate(67.791102 0) scale(0.996264)"/>
      </g>
     </g>
    </g>
    <g id="xtick_9">
     <g id="line2d_17">
      <path d="M 287.21454 306.088647 
L 287.21454 14.259249 
" clip-path="url(#pe2d1ea9d5c)" style="fill: none; stroke: #b0b0b0; stroke-width: 0.8; stroke-linecap: square"/>
     </g>
     <g id="line2d_18">
      <g>
       <use xlink:href="#m631e868cc1" x="287.21454" y="306.088647" style="stroke: #000000; stroke-width: 0.8"/>
      </g>
     </g>
     <g id="text_9">
      <!-- R9 -->
      <g transform="translate(281.057066 320.007145) scale(0.1 -0.1)">
       <defs>
        <path id="CMR17-39" d="M 2253 1864 
C 2253 464 1670 31 1190 31 
C 1043 31 685 31 538 294 
C 704 268 826 357 826 518 
C 826 692 685 749 595 749 
C 538 749 365 723 365 506 
C 365 71 742 -128 1203 -128 
C 1939 -128 2688 674 2688 2073 
C 2688 3817 1971 4179 1485 4179 
C 851 4179 243 3628 243 2778 
C 243 1991 762 1408 1414 1408 
C 1952 1408 2189 1903 2253 2112 
L 2253 1864 
z
M 1427 1510 
C 1254 1510 1011 1542 813 1922 
C 678 2169 678 2461 678 2771 
C 678 3146 678 3405 858 3684 
C 947 3817 1114 4032 1485 4032 
C 2240 4032 2240 2885 2240 2632 
C 2240 2182 2035 1510 1427 1510 
z
" transform="scale(0.015625)"/>
       </defs>
       <use xlink:href="#CMR17-52" transform="scale(0.996264)"/>
       <use xlink:href="#CMR17-39" transform="translate(67.791102 0) scale(0.996264)"/>
      </g>
     </g>
    </g>
    <g id="xtick_10">
     <g id="line2d_19">
      <path d="M 316.811897 306.088647 
L 316.811897 14.259249 
" clip-path="url(#pe2d1ea9d5c)" style="fill: none; stroke: #b0b0b0; stroke-width: 0.8; stroke-linecap: square"/>
     </g>
     <g id="line2d_20">
      <g>
       <use xlink:href="#m631e868cc1" x="316.811897" y="306.088647" style="stroke: #000000; stroke-width: 0.8"/>
      </g>
     </g>
     <g id="text_10">
      <!-- R10 -->
      <g transform="translate(308.163755 320.007145) scale(0.1 -0.1)">
       <defs>
        <path id="CMR17-30" d="M 2688 2025 
C 2688 2416 2682 3080 2413 3591 
C 2176 4039 1798 4198 1466 4198 
C 1158 4198 768 4058 525 3597 
C 269 3118 243 2524 243 2025 
C 243 1661 250 1106 448 619 
C 723 -39 1216 -128 1466 -128 
C 1760 -128 2208 -7 2470 600 
C 2662 1042 2688 1559 2688 2025 
z
M 1466 -26 
C 1056 -26 813 325 723 812 
C 653 1188 653 1738 653 2096 
C 653 2588 653 2997 736 3387 
C 858 3929 1216 4096 1466 4096 
C 1728 4096 2067 3923 2189 3400 
C 2272 3036 2278 2607 2278 2096 
C 2278 1680 2278 1169 2202 792 
C 2067 95 1690 -26 1466 -26 
z
" transform="scale(0.015625)"/>
       </defs>
       <use xlink:href="#CMR17-52" transform="scale(0.996264)"/>
       <use xlink:href="#CMR17-31" transform="translate(67.791102 0) scale(0.996264)"/>
       <use xlink:href="#CMR17-30" transform="translate(113.481579 0) scale(0.996264)"/>
      </g>
     </g>
    </g>
    <g id="xtick_11">
     <g id="line2d_21">
      <path d="M 346.409253 306.088647 
L 346.409253 14.259249 
" clip-path="url(#pe2d1ea9d5c)" style="fill: none; stroke: #b0b0b0; stroke-width: 0.8; stroke-linecap: square"/>
     </g>
     <g id="line2d_22">
      <g>
       <use xlink:href="#m631e868cc1" x="346.409253" y="306.088647" style="stroke: #000000; stroke-width: 0.8"/>
      </g>
     </g>
     <g id="text_11">
      <!-- F1 -->
      <g transform="translate(340.666879 320.007145) scale(0.1 -0.1)">
       <defs>
        <path id="CMR17-46" d="M 3482 4325 
L 326 4325 
L 326 4160 
C 768 4160 838 4160 838 3874 
L 838 446 
C 838 160 768 160 326 160 
L 326 0 
C 512 0 870 0 1069 0 
C 1331 0 1638 0 1901 0 
L 1901 160 
L 1760 160 
C 1274 160 1261 223 1261 452 
L 1261 2075 
L 1837 2075 
C 2432 2075 2490 1865 2490 1332 
L 2605 1332 
L 2605 2987 
L 2490 2987 
C 2490 2450 2432 2240 1837 2240 
L 1261 2240 
L 1261 3911 
C 1261 4128 1274 4160 1530 4160 
L 2355 4160 
C 3322 4160 3430 3765 3520 2916 
L 3635 2916 
L 3482 4325 
z
" transform="scale(0.015625)"/>
       </defs>
       <use xlink:href="#CMR17-46" transform="scale(0.996264)"/>
       <use xlink:href="#CMR17-31" transform="translate(59.983847 0) scale(0.996264)"/>
      </g>
     </g>
    </g>
    <g id="xtick_12">
     <g id="line2d_23">
      <path d="M 376.006609 306.088647 
L 376.006609 14.259249 
" clip-path="url(#pe2d1ea9d5c)" style="fill: none; stroke: #b0b0b0; stroke-width: 0.8; stroke-linecap: square"/>
     </g>
     <g id="line2d_24">
      <g>
       <use xlink:href="#m631e868cc1" x="376.006609" y="306.088647" style="stroke: #000000; stroke-width: 0.8"/>
      </g>
     </g>
     <g id="text_12">
      <!-- F2 -->
      <g transform="translate(370.264235 320.007145) scale(0.1 -0.1)">
       <use xlink:href="#CMR17-46" transform="scale(0.996264)"/>
       <use xlink:href="#CMR17-32" transform="translate(59.983847 0) scale(0.996264)"/>
      </g>
     </g>
    </g>
    <g id="xtick_13">
     <g id="line2d_25">
      <path d="M 405.603966 306.088647 
L 405.603966 14.259249 
" clip-path="url(#pe2d1ea9d5c)" style="fill: none; stroke: #b0b0b0; stroke-width: 0.8; stroke-linecap: square"/>
     </g>
     <g id="line2d_26">
      <g>
       <use xlink:href="#m631e868cc1" x="405.603966" y="306.088647" style="stroke: #000000; stroke-width: 0.8"/>
      </g>
     </g>
     <g id="text_13">
      <!-- F3 -->
      <g transform="translate(399.861591 320.007145) scale(0.1 -0.1)">
       <use xlink:href="#CMR17-46" transform="scale(0.996264)"/>
       <use xlink:href="#CMR17-33" transform="translate(59.983847 0) scale(0.996264)"/>
      </g>
     </g>
    </g>
    <g id="xtick_14">
     <g id="line2d_27">
      <path d="M 435.201322 306.088647 
L 435.201322 14.259249 
" clip-path="url(#pe2d1ea9d5c)" style="fill: none; stroke: #b0b0b0; stroke-width: 0.8; stroke-linecap: square"/>
     </g>
     <g id="line2d_28">
      <g>
       <use xlink:href="#m631e868cc1" x="435.201322" y="306.088647" style="stroke: #000000; stroke-width: 0.8"/>
      </g>
     </g>
     <g id="text_14">
      <!-- F4 -->
      <g transform="translate(429.458947 320.007145) scale(0.1 -0.1)">
       <use xlink:href="#CMR17-46" transform="scale(0.996264)"/>
       <use xlink:href="#CMR17-34" transform="translate(59.983847 0) scale(0.996264)"/>
      </g>
     </g>
    </g>
    <g id="text_15">
     <!-- Roll Pass -->
     <g transform="translate(222.561112 332.862822) scale(0.1 -0.1)">
      <defs>
       <path id="CMR17-6f" d="M 2758 1356 
C 2758 2176 2163 2816 1466 2816 
C 768 2816 173 2176 173 1356 
C 173 551 768 -64 1466 -64 
C 2163 -64 2758 551 2758 1356 
z
M 1466 51 
C 1165 51 909 230 762 480 
C 602 767 582 1126 582 1408 
C 582 1677 595 2010 762 2298 
C 890 2509 1139 2714 1466 2714 
C 1754 2714 1997 2554 2150 2330 
C 2349 2029 2349 1607 2349 1408 
C 2349 1158 2336 775 2163 467 
C 1984 173 1709 51 1466 51 
z
" transform="scale(0.015625)"/>
       <path id="CMR17-6c" d="M 979 4396 
L 218 4326 
L 218 4160 
C 595 4160 653 4122 653 3817 
L 653 426 
C 653 184 627 153 218 153 
L 218 -13 
C 371 0 653 0 813 0 
C 979 0 1261 0 1414 -13 
L 1414 153 
C 1005 153 979 178 979 426 
L 979 4396 
z
" transform="scale(0.015625)"/>
       <path id="CMR17-50" d="M 1267 2042 
L 2291 2042 
C 3117 2042 3718 2578 3718 3184 
C 3718 3791 3130 4352 2291 4352 
L 333 4352 
L 333 4186 
C 774 4186 845 4186 845 3899 
L 845 446 
C 845 160 774 160 333 160 
L 333 0 
C 518 0 858 0 1056 0 
C 1254 0 1594 0 1779 0 
L 1779 160 
C 1338 160 1267 160 1267 446 
L 1267 2042 
z
M 1254 2176 
L 1254 3938 
C 1254 4155 1267 4186 1523 4186 
L 2170 4186 
C 2995 4186 3232 3714 3232 3184 
C 3232 2604 2950 2176 2170 2176 
L 1254 2176 
z
" transform="scale(0.015625)"/>
       <path id="CMR17-61" d="M 2304 1653 
C 2304 2072 2304 2294 2035 2543 
C 1798 2752 1523 2816 1306 2816 
C 800 2816 435 2407 435 1971 
C 435 1728 627 1728 666 1728 
C 749 1728 896 1778 896 1954 
C 896 2112 774 2181 666 2181 
C 640 2181 608 2174 589 2168 
C 723 2592 1069 2714 1293 2714 
C 1613 2714 1965 2429 1965 1885 
L 1965 1600 
C 1587 1600 1133 1549 774 1357 
C 371 1133 256 813 256 570 
C 256 77 832 -64 1171 -64 
C 1523 -64 1850 139 1990 511 
C 2003 233 2182 -18 2464 -18 
C 2598 -18 2938 70 2938 567 
L 2938 920 
L 2822 920 
L 2822 562 
C 2822 178 2650 128 2566 128 
C 2304 128 2304 458 2304 738 
L 2304 1653 
z
M 1965 870 
C 1965 317 1568 38 1216 38 
C 896 38 646 275 646 570 
C 646 761 730 1100 1101 1305 
C 1408 1478 1760 1504 1965 1504 
L 1965 870 
z
" transform="scale(0.015625)"/>
       <path id="CMR17-73" d="M 1978 2697 
C 1978 2813 1971 2819 1933 2819 
C 1907 2819 1901 2813 1824 2717 
C 1805 2691 1747 2626 1728 2601 
C 1523 2819 1235 2819 1126 2819 
C 416 2819 160 2447 160 2076 
C 160 1498 813 1365 998 1325 
C 1402 1243 1542 1217 1677 1101 
C 1760 1025 1901 884 1901 654 
C 1901 384 1747 38 1158 38 
C 602 38 403 460 288 1021 
C 269 1110 269 1117 218 1117 
C 166 1117 160 1110 160 983 
L 160 63 
C 160 -51 166 -58 205 -58 
C 237 -58 243 -51 275 0 
C 314 57 410 211 448 276 
C 576 103 800 -64 1158 -64 
C 1792 -64 2131 283 2131 784 
C 2131 1112 1958 1285 1875 1362 
C 1683 1561 1459 1606 1190 1657 
C 838 1735 390 1825 390 2217 
C 390 2383 480 2737 1126 2737 
C 1811 2737 1850 2094 1862 1888 
C 1869 1856 1901 1849 1920 1849 
C 1978 1849 1978 1869 1978 1978 
L 1978 2697 
z
" transform="scale(0.015625)"/>
      </defs>
      <use xlink:href="#CMR17-52" transform="scale(0.996264)"/>
      <use xlink:href="#CMR17-6f" transform="translate(67.791102 0) scale(0.996264)"/>
      <use xlink:href="#CMR17-6c" transform="translate(113.481579 0) scale(0.996264)"/>
      <use xlink:href="#CMR17-6c" transform="translate(138.352638 0) scale(0.996264)"/>
      <use xlink:href="#CMR17-50" transform="translate(193.299662 0) scale(0.996264)"/>
      <use xlink:href="#CMR17-61" transform="translate(253.283509 0) scale(0.996264)"/>
      <use xlink:href="#CMR17-73" transform="translate(298.973986 0) scale(0.996264)"/>
      <use xlink:href="#CMR17-73" transform="translate(334.775324 0) scale(0.996264)"/>
     </g>
    </g>
   </g>
   <g id="matplotlib.axis_2">
    <g id="ytick_1">
     <g id="line2d_29">
      <path d="M 35.637012 306.088647 
L 450 306.088647 
" clip-path="url(#pe2d1ea9d5c)" style="fill: none; stroke: #b0b0b0; stroke-width: 0.8; stroke-linecap: square"/>
     </g>
     <g id="line2d_30">
      <defs>
       <path id="m982e48ad70" d="M 0 0 
L -3.5 0 
" style="stroke: #000000; stroke-width: 0.8"/>
      </defs>
      <g>
       <use xlink:href="#m982e48ad70" x="35.637012" y="306.088647" style="stroke: #000000; stroke-width: 0.8"/>
      </g>
     </g>
     <g id="text_16">
      <!-- $\mathdefault{0}$ -->
      <g transform="translate(23.655677 309.547896) scale(0.1 -0.1)">
       <use xlink:href="#CMR17-30" transform="scale(0.996264)"/>
      </g>
     </g>
    </g>
    <g id="ytick_2">
     <g id="line2d_31">
      <path d="M 35.637012 273.663158 
L 450 273.663158 
" clip-path="url(#pe2d1ea9d5c)" style="fill: none; stroke: #b0b0b0; stroke-width: 0.8; stroke-linecap: square"/>
     </g>
     <g id="line2d_32">
      <g>
       <use xlink:href="#m982e48ad70" x="35.637012" y="273.663158" style="stroke: #000000; stroke-width: 0.8"/>
      </g>
     </g>
     <g id="text_17">
      <!-- $\mathdefault{1}$ -->
      <g transform="translate(23.655677 277.122407) scale(0.1 -0.1)">
       <use xlink:href="#CMR17-31" transform="scale(0.996264)"/>
      </g>
     </g>
    </g>
    <g id="ytick_3">
     <g id="line2d_33">
      <path d="M 35.637012 241.237669 
L 450 241.237669 
" clip-path="url(#pe2d1ea9d5c)" style="fill: none; stroke: #b0b0b0; stroke-width: 0.8; stroke-linecap: square"/>
     </g>
     <g id="line2d_34">
      <g>
       <use xlink:href="#m982e48ad70" x="35.637012" y="241.237669" style="stroke: #000000; stroke-width: 0.8"/>
      </g>
     </g>
     <g id="text_18">
      <!-- $\mathdefault{2}$ -->
      <g transform="translate(23.655677 244.696919) scale(0.1 -0.1)">
       <use xlink:href="#CMR17-32" transform="scale(0.996264)"/>
      </g>
     </g>
    </g>
    <g id="ytick_4">
     <g id="line2d_35">
      <path d="M 35.637012 208.812181 
L 450 208.812181 
" clip-path="url(#pe2d1ea9d5c)" style="fill: none; stroke: #b0b0b0; stroke-width: 0.8; stroke-linecap: square"/>
     </g>
     <g id="line2d_36">
      <g>
       <use xlink:href="#m982e48ad70" x="35.637012" y="208.812181" style="stroke: #000000; stroke-width: 0.8"/>
      </g>
     </g>
     <g id="text_19">
      <!-- $\mathdefault{3}$ -->
      <g transform="translate(23.655677 212.27143) scale(0.1 -0.1)">
       <use xlink:href="#CMR17-33" transform="scale(0.996264)"/>
      </g>
     </g>
    </g>
    <g id="ytick_5">
     <g id="line2d_37">
      <path d="M 35.637012 176.386692 
L 450 176.386692 
" clip-path="url(#pe2d1ea9d5c)" style="fill: none; stroke: #b0b0b0; stroke-width: 0.8; stroke-linecap: square"/>
     </g>
     <g id="line2d_38">
      <g>
       <use xlink:href="#m982e48ad70" x="35.637012" y="176.386692" style="stroke: #000000; stroke-width: 0.8"/>
      </g>
     </g>
     <g id="text_20">
      <!-- $\mathdefault{4}$ -->
      <g transform="translate(23.655677 179.845941) scale(0.1 -0.1)">
       <use xlink:href="#CMR17-34" transform="scale(0.996264)"/>
      </g>
     </g>
    </g>
    <g id="ytick_6">
     <g id="line2d_39">
      <path d="M 35.637012 143.961204 
L 450 143.961204 
" clip-path="url(#pe2d1ea9d5c)" style="fill: none; stroke: #b0b0b0; stroke-width: 0.8; stroke-linecap: square"/>
     </g>
     <g id="line2d_40">
      <g>
       <use xlink:href="#m982e48ad70" x="35.637012" y="143.961204" style="stroke: #000000; stroke-width: 0.8"/>
      </g>
     </g>
     <g id="text_21">
      <!-- $\mathdefault{5}$ -->
      <g transform="translate(23.655677 147.420453) scale(0.1 -0.1)">
       <use xlink:href="#CMR17-35" transform="scale(0.996264)"/>
      </g>
     </g>
    </g>
    <g id="ytick_7">
     <g id="line2d_41">
      <path d="M 35.637012 111.535715 
L 450 111.535715 
" clip-path="url(#pe2d1ea9d5c)" style="fill: none; stroke: #b0b0b0; stroke-width: 0.8; stroke-linecap: square"/>
     </g>
     <g id="line2d_42">
      <g>
       <use xlink:href="#m982e48ad70" x="35.637012" y="111.535715" style="stroke: #000000; stroke-width: 0.8"/>
      </g>
     </g>
     <g id="text_22">
      <!-- $\mathdefault{6}$ -->
      <g transform="translate(23.655677 114.994964) scale(0.1 -0.1)">
       <use xlink:href="#CMR17-36" transform="scale(0.996264)"/>
      </g>
     </g>
    </g>
    <g id="ytick_8">
     <g id="line2d_43">
      <path d="M 35.637012 79.110226 
L 450 79.110226 
" clip-path="url(#pe2d1ea9d5c)" style="fill: none; stroke: #b0b0b0; stroke-width: 0.8; stroke-linecap: square"/>
     </g>
     <g id="line2d_44">
      <g>
       <use xlink:href="#m982e48ad70" x="35.637012" y="79.110226" style="stroke: #000000; stroke-width: 0.8"/>
      </g>
     </g>
     <g id="text_23">
      <!-- $\mathdefault{7}$ -->
      <g transform="translate(23.655677 82.569476) scale(0.1 -0.1)">
       <use xlink:href="#CMR17-37" transform="scale(0.996264)"/>
      </g>
     </g>
    </g>
    <g id="ytick_9">
     <g id="line2d_45">
      <path d="M 35.637012 46.684738 
L 450 46.684738 
" clip-path="url(#pe2d1ea9d5c)" style="fill: none; stroke: #b0b0b0; stroke-width: 0.8; stroke-linecap: square"/>
     </g>
     <g id="line2d_46">
      <g>
       <use xlink:href="#m982e48ad70" x="35.637012" y="46.684738" style="stroke: #000000; stroke-width: 0.8"/>
      </g>
     </g>
     <g id="text_24">
      <!-- $\mathdefault{8}$ -->
      <g transform="translate(23.655677 50.143987) scale(0.1 -0.1)">
       <use xlink:href="#CMR17-38" transform="scale(0.996264)"/>
      </g>
     </g>
    </g>
    <g id="ytick_10">
     <g id="line2d_47">
      <path d="M 35.637012 14.259249 
L 450 14.259249 
" clip-path="url(#pe2d1ea9d5c)" style="fill: none; stroke: #b0b0b0; stroke-width: 0.8; stroke-linecap: square"/>
     </g>
     <g id="line2d_48">
      <g>
       <use xlink:href="#m982e48ad70" x="35.637012" y="14.259249" style="stroke: #000000; stroke-width: 0.8"/>
      </g>
     </g>
     <g id="text_25">
      <!-- $\mathdefault{9}$ -->
      <g transform="translate(23.655677 17.718498) scale(0.1 -0.1)">
       <use xlink:href="#CMR17-39" transform="scale(0.996264)"/>
      </g>
     </g>
    </g>
    <g id="text_26">
     <!-- Roll Torque $\RollTorque$ in \unit{\kilo\newton\meter} -->
     <g transform="translate(17.718498 215.62061) rotate(-90) scale(0.1 -0.1)">
      <defs>
       <path id="CMR17-54" d="M 3981 4326 
L 288 4326 
L 179 2918 
L 294 2918 
C 378 3976 467 4160 1453 4160 
C 1568 4160 1754 4160 1805 4154 
C 1926 4135 1926 4058 1926 3912 
L 1926 459 
C 1926 230 1907 160 1376 160 
L 1197 160 
L 1197 0 
C 1504 0 1824 0 2138 0 
C 2451 0 2771 0 3078 0 
L 3078 160 
L 2899 160 
C 2368 160 2349 230 2349 459 
L 2349 3912 
C 2349 4052 2349 4129 2464 4154 
C 2515 4160 2701 4160 2816 4160 
C 3795 4160 3891 3976 3974 2918 
L 4090 2918 
L 3981 4326 
z
" transform="scale(0.015625)"/>
       <path id="CMR17-72" d="M 960 1497 
C 960 2112 1222 2688 1702 2688 
C 1747 2688 1792 2682 1837 2662 
C 1837 2662 1696 2617 1696 2452 
C 1696 2298 1818 2234 1914 2234 
C 1990 2234 2131 2279 2131 2458 
C 2131 2663 1926 2790 1709 2790 
C 1222 2790 1011 2317 947 2093 
L 941 2093 
L 941 2790 
L 198 2720 
L 198 2554 
C 576 2554 634 2515 634 2208 
L 634 428 
C 634 184 608 153 198 153 
L 198 -13 
C 352 0 646 0 813 0 
C 998 0 1325 0 1498 -13 
L 1498 153 
C 1037 153 960 153 960 440 
L 960 1497 
z
" transform="scale(0.015625)"/>
       <path id="CMR17-71" d="M 2630 2802 
L 2528 2802 
L 2336 2172 
C 2189 2509 1920 2802 1491 2802 
C 838 2802 211 2223 211 1383 
C 211 548 800 -38 1440 -38 
C 1933 -38 2208 338 2291 478 
L 2291 -789 
C 2291 -1031 2266 -1063 1856 -1063 
L 1856 -1228 
C 2010 -1216 2291 -1216 2458 -1216 
C 2624 -1216 2912 -1216 3066 -1228 
L 3066 -1063 
C 2656 -1063 2630 -1037 2630 -789 
L 2630 2802 
z
M 2304 886 
C 2304 612 2074 357 2054 338 
C 1856 115 1626 64 1472 64 
C 992 64 621 669 621 1375 
C 621 2121 1043 2688 1536 2688 
C 2048 2688 2304 2108 2304 1777 
L 2304 886 
z
" transform="scale(0.015625)"/>
       <path id="CMR17-75" d="M 1882 2693 
L 1882 2528 
C 2259 2528 2317 2489 2317 2186 
L 2317 1032 
C 2317 500 2029 38 1555 38 
C 1030 38 986 348 986 678 
L 986 2763 
L 211 2693 
L 211 2528 
C 467 2528 640 2528 646 2274 
L 646 1058 
C 646 633 646 361 813 183 
C 896 101 1056 -64 1517 -64 
C 2061 -64 2272 377 2323 506 
L 2330 506 
L 2330 -63 
L 3091 -63 
L 3091 128 
C 2714 128 2656 166 2656 473 
L 2656 2763 
L 1882 2693 
z
" transform="scale(0.015625)"/>
       <path id="CMR17-65" d="M 2438 1472 
C 2464 1498 2464 1511 2464 1576 
C 2464 2238 2118 2816 1389 2816 
C 710 2816 173 2169 173 1383 
C 173 551 781 -64 1459 -64 
C 2176 -64 2458 607 2458 740 
C 2458 784 2419 784 2406 784 
C 2362 784 2355 771 2330 696 
C 2189 265 1837 51 1504 51 
C 1229 51 954 203 781 480 
C 582 803 582 1176 582 1472 
L 2438 1472 
z
M 589 1568 
C 634 2505 1126 2714 1382 2714 
C 1818 2714 2112 2297 2118 1568 
L 589 1568 
z
" transform="scale(0.015625)"/>
       <path id="CMMI12-4d" d="M 5811 3886 
C 5869 4103 5882 4167 6336 4167 
C 6458 4167 6515 4167 6515 4288 
C 6515 4352 6470 4352 6349 4352 
L 5581 4352 
C 5421 4352 5414 4346 5344 4243 
L 3008 562 
L 2528 4211 
C 2509 4352 2502 4352 2336 4352 
L 1542 4352 
C 1421 4352 1363 4352 1363 4231 
C 1363 4167 1421 4167 1517 4167 
C 1907 4167 1907 4116 1907 4046 
C 1907 4034 1907 3995 1882 3899 
L 1062 634 
C 986 327 838 186 410 186 
C 390 186 314 186 314 73 
C 314 0 371 0 397 0 
C 525 0 851 0 979 0 
L 1286 0 
C 1376 0 1485 0 1574 0 
C 1619 0 1690 0 1690 122 
C 1690 180 1626 186 1600 186 
C 1389 186 1184 224 1184 454 
C 1184 518 1184 524 1210 613 
L 2093 4129 
L 2099 4129 
L 2630 172 
C 2650 19 2656 0 2714 0 
C 2784 0 2816 51 2848 109 
L 5421 4161 
L 5427 4161 
L 4499 473 
C 4442 250 4429 186 3981 186 
C 3859 186 3795 186 3795 70 
C 3795 0 3853 0 3891 0 
C 4000 0 4128 0 4237 0 
L 4992 0 
C 5101 0 5235 0 5344 0 
C 5395 0 5466 0 5466 122 
C 5466 186 5408 186 5312 186 
C 4922 186 4922 234 4922 294 
C 4922 301 4922 345 4934 396 
L 5811 3886 
z
" transform="scale(0.015625)"/>
       <path id="CMR17-57" d="M 5523 3764 
C 5581 3936 5677 4160 6048 4160 
L 6048 4326 
C 5939 4326 5715 4326 5600 4326 
C 5440 4326 5158 4326 5005 4332 
L 5005 4160 
C 5293 4160 5414 4000 5414 3847 
C 5414 3802 5408 3777 5382 3707 
L 4390 555 
L 3347 3873 
C 3328 3937 3322 3963 3322 3988 
C 3322 4160 3603 4160 3725 4160 
L 3725 4326 
C 3539 4326 3219 4326 3021 4326 
C 2861 4326 2573 4326 2426 4332 
L 2426 4160 
C 2720 4160 2797 4141 2861 4027 
C 2886 3969 2989 3638 2989 3619 
C 2989 3593 2976 3555 2970 3536 
L 2029 561 
L 986 3867 
C 954 3957 954 3969 954 3982 
C 954 4160 1235 4160 1363 4160 
L 1363 4326 
C 1178 4326 858 4326 659 4326 
C 493 4326 211 4326 58 4332 
L 58 4160 
C 442 4160 467 4122 531 3918 
L 1779 -20 
C 1811 -115 1811 -128 1869 -128 
C 1920 -128 1939 -115 1965 -26 
L 3053 3433 
L 4141 -26 
C 4166 -115 4186 -128 4237 -128 
C 4294 -128 4294 -115 4326 -20 
L 5523 3764 
z
" transform="scale(0.015625)"/>
       <path id="CMR17-69" d="M 992 3909 
C 992 4049 877 4170 730 4170 
C 589 4170 467 4056 467 3909 
C 467 3769 582 3648 730 3648 
C 870 3648 992 3763 992 3909 
z
M 243 2706 
L 243 2541 
C 602 2541 653 2502 653 2197 
L 653 427 
C 653 184 627 153 218 153 
L 218 -13 
C 371 0 646 0 806 0 
C 960 0 1222 0 1370 -13 
L 1370 153 
C 992 153 979 191 979 420 
L 979 2776 
L 243 2706 
z
" transform="scale(0.015625)"/>
       <path id="CMR17-6e" d="M 2656 1933 
C 2656 2259 2592 2790 1837 2790 
C 1331 2790 1069 2400 973 2144 
L 966 2144 
L 966 2790 
L 211 2720 
L 211 2554 
C 589 2554 646 2515 646 2208 
L 646 428 
C 646 184 621 153 211 153 
L 211 -13 
C 365 0 646 0 813 0 
C 979 0 1267 0 1421 -13 
L 1421 153 
C 1011 153 986 178 986 428 
L 986 1658 
C 986 2247 1344 2688 1792 2688 
C 2266 2688 2317 2266 2317 1958 
L 2317 428 
C 2317 184 2291 153 1882 153 
L 1882 -13 
C 2035 0 2317 0 2483 0 
C 2650 0 2938 0 3091 -13 
L 3091 153 
C 2682 153 2656 178 2656 428 
L 2656 1933 
z
" transform="scale(0.015625)"/>
       <path id="CMR17-6b" d="M 1670 1673 
C 1664 1686 1632 1724 1632 1743 
C 1632 1756 2086 2171 2144 2222 
C 2509 2528 2739 2560 2906 2560 
L 2906 2733 
C 2867 2733 2854 2733 2848 2720 
L 2534 2720 
C 2355 2720 2080 2720 1907 2733 
L 1907 2566 
C 1997 2559 2061 2508 2061 2419 
C 2061 2291 1933 2170 1926 2170 
L 960 1289 
L 960 4396 
L 198 4326 
L 198 4160 
C 576 4160 634 4122 634 3817 
L 634 426 
C 634 184 608 153 198 153 
L 198 -13 
C 352 0 634 0 794 0 
C 954 0 1235 0 1389 -13 
L 1389 153 
C 979 153 954 178 954 428 
L 954 1130 
L 1395 1532 
L 2042 574 
C 2118 459 2182 369 2182 286 
C 2182 172 2067 153 1990 153 
L 1990 -13 
C 2144 0 2419 0 2579 0 
C 2694 0 2931 0 3040 0 
L 3040 153 
C 2739 153 2669 210 2477 491 
L 1670 1673 
z
" transform="scale(0.015625)"/>
       <path id="CMR17-4e" d="M 1312 4250 
C 1267 4320 1261 4320 1139 4320 
L 326 4320 
L 326 4160 
L 448 4160 
C 704 4160 819 4129 838 4122 
L 838 610 
C 838 451 838 153 326 153 
L 326 -13 
C 474 0 742 0 902 0 
C 1062 0 1331 0 1478 -13 
L 1478 153 
C 966 153 966 451 966 610 
L 966 4033 
C 1011 3995 1011 3982 1056 3919 
L 3430 76 
C 3475 0 3494 0 3526 0 
C 3590 0 3590 19 3590 139 
L 3590 3705 
C 3590 3863 3590 4160 4102 4160 
L 4102 4326 
C 3955 4320 3686 4320 3526 4320 
C 3366 4320 3098 4320 2950 4326 
L 2950 4160 
C 3462 4160 3462 3862 3462 3703 
L 3462 763 
L 1312 4250 
z
" transform="scale(0.015625)"/>
       <path id="CMR17-6d" d="M 4326 1933 
C 4326 2252 4269 2790 3507 2790 
C 3072 2790 2771 2496 2656 2151 
L 2650 2151 
C 2573 2676 2195 2790 1837 2790 
C 1331 2790 1069 2400 973 2144 
L 966 2144 
L 966 2790 
L 211 2720 
L 211 2554 
C 589 2554 646 2515 646 2208 
L 646 428 
C 646 184 621 153 211 153 
L 211 -13 
C 365 0 646 0 813 0 
C 979 0 1267 0 1421 -13 
L 1421 153 
C 1011 153 986 178 986 428 
L 986 1658 
C 986 2247 1344 2688 1792 2688 
C 2266 2688 2317 2266 2317 1958 
L 2317 428 
C 2317 184 2291 153 1882 153 
L 1882 -13 
C 2035 0 2317 0 2483 0 
C 2650 0 2938 0 3091 -13 
L 3091 153 
C 2682 153 2656 178 2656 428 
L 2656 1658 
C 2656 2247 3014 2688 3462 2688 
C 3936 2688 3987 2266 3987 1958 
L 3987 428 
C 3987 184 3962 153 3552 153 
L 3552 -13 
C 3706 0 3987 0 4154 0 
C 4320 0 4608 0 4762 -13 
L 4762 153 
C 4352 153 4326 178 4326 428 
L 4326 1933 
z
" transform="scale(0.015625)"/>
      </defs>
      <use xlink:href="#CMR17-52" transform="scale(0.996264)"/>
      <use xlink:href="#CMR17-6f" transform="translate(67.791102 0) scale(0.996264)"/>
      <use xlink:href="#CMR17-6c" transform="translate(113.481579 0) scale(0.996264)"/>
      <use xlink:href="#CMR17-6c" transform="translate(138.352638 0) scale(0.996264)"/>
      <use xlink:href="#CMR17-54" transform="translate(193.299662 0) scale(0.996264)"/>
      <use xlink:href="#CMR17-6f" transform="translate(252.002288 0) scale(0.996264)"/>
      <use xlink:href="#CMR17-72" transform="translate(297.692765 0) scale(0.996264)"/>
      <use xlink:href="#CMR17-71" transform="translate(332.973532 0) scale(0.996264)"/>
      <use xlink:href="#CMR17-75" transform="translate(381.266448 0) scale(0.996264)"/>
      <use xlink:href="#CMR17-65" transform="translate(432.161818 0) scale(0.996264)"/>
      <use xlink:href="#CMMI12-4d" transform="translate(502.723445 0) scale(0.996264)"/>
      <use xlink:href="#CMR17-57" transform="translate(597.09687 -14.943915) scale(0.697382)"/>
      <use xlink:href="#CMR17-69" transform="translate(695.149142 0) scale(0.996264)"/>
      <use xlink:href="#CMR17-6e" transform="translate(720.0202 0) scale(0.996264)"/>
      <use xlink:href="#CMR17-6b" transform="translate(800.991536 0) scale(0.996264)"/>
      <use xlink:href="#CMR17-4e" transform="translate(849.284452 0) scale(0.996264)"/>
      <use xlink:href="#CMR17-6d" transform="translate(934.961287 0) scale(0.996264)"/>
     </g>
    </g>
   </g>
   <g id="patch_17">
    <path d="M 43.036351 77.873999 
L 57.835029 77.873999 
L 57.835029 60.788122 
L 43.036351 60.788122 
L 43.036351 77.873999 
z
" clip-path="url(#pe2d1ea9d5c)" style="fill: #2ca02c; fill-opacity: 0.5; stroke: #000000; stroke-linejoin: miter"/>
   </g>
   <g id="line2d_49">
    <path d="M 50.43569 77.873999 
L 50.43569 98.953816 
" clip-path="url(#pe2d1ea9d5c)" style="fill: none; stroke: #000000; stroke-linecap: square"/>
   </g>
   <g id="line2d_50">
    <path d="M 50.43569 60.788122 
L 50.43569 38.039496 
" clip-path="url(#pe2d1ea9d5c)" style="fill: none; stroke: #000000; stroke-linecap: square"/>
   </g>
   <g id="line2d_51">
    <path d="M 46.736021 98.953816 
L 54.13536 98.953816 
" clip-path="url(#pe2d1ea9d5c)" style="fill: none; stroke: #000000; stroke-linecap: square"/>
   </g>
   <g id="line2d_52">
    <path d="M 46.736021 38.039496 
L 54.13536 38.039496 
" clip-path="url(#pe2d1ea9d5c)" style="fill: none; stroke: #000000; stroke-linecap: square"/>
   </g>
   <g id="line2d_53">
    <defs>
     <path id="m8ff88d1b39" d="M -2 0 
L 2 0 
M 0 2 
L 0 -2 
" style="stroke: #000000"/>
    </defs>
    <g clip-path="url(#pe2d1ea9d5c)">
     <use xlink:href="#m8ff88d1b39" x="50.43569" y="106.872901" style="fill-opacity: 0; stroke: #000000"/>
     <use xlink:href="#m8ff88d1b39" x="50.43569" y="105.403295" style="fill-opacity: 0; stroke: #000000"/>
     <use xlink:href="#m8ff88d1b39" x="50.43569" y="33.814248" style="fill-opacity: 0; stroke: #000000"/>
     <use xlink:href="#m8ff88d1b39" x="50.43569" y="29.836851" style="fill-opacity: 0; stroke: #000000"/>
     <use xlink:href="#m8ff88d1b39" x="50.43569" y="34.632337" style="fill-opacity: 0; stroke: #000000"/>
    </g>
   </g>
   <g id="patch_18">
    <path d="M 72.633707 166.474648 
L 87.432385 166.474648 
L 87.432385 156.518063 
L 72.633707 156.518063 
L 72.633707 166.474648 
z
" clip-path="url(#pe2d1ea9d5c)" style="fill: #2ca02c; fill-opacity: 0.5; stroke: #000000; stroke-linejoin: miter"/>
   </g>
   <g id="line2d_54">
    <path d="M 80.033046 166.474648 
L 80.033046 179.278014 
" clip-path="url(#pe2d1ea9d5c)" style="fill: none; stroke: #000000; stroke-linecap: square"/>
   </g>
   <g id="line2d_55">
    <path d="M 80.033046 156.518063 
L 80.033046 143.39857 
" clip-path="url(#pe2d1ea9d5c)" style="fill: none; stroke: #000000; stroke-linecap: square"/>
   </g>
   <g id="line2d_56">
    <path d="M 76.333377 179.278014 
L 83.732716 179.278014 
" clip-path="url(#pe2d1ea9d5c)" style="fill: none; stroke: #000000; stroke-linecap: square"/>
   </g>
   <g id="line2d_57">
    <path d="M 76.333377 143.39857 
L 83.732716 143.39857 
" clip-path="url(#pe2d1ea9d5c)" style="fill: none; stroke: #000000; stroke-linecap: square"/>
   </g>
   <g id="line2d_58">
    <g clip-path="url(#pe2d1ea9d5c)">
     <use xlink:href="#m8ff88d1b39" x="80.033046" y="183.742168" style="fill-opacity: 0; stroke: #000000"/>
     <use xlink:href="#m8ff88d1b39" x="80.033046" y="183.764734" style="fill-opacity: 0; stroke: #000000"/>
     <use xlink:href="#m8ff88d1b39" x="80.033046" y="140.864612" style="fill-opacity: 0; stroke: #000000"/>
     <use xlink:href="#m8ff88d1b39" x="80.033046" y="138.775894" style="fill-opacity: 0; stroke: #000000"/>
     <use xlink:href="#m8ff88d1b39" x="80.033046" y="141.573094" style="fill-opacity: 0; stroke: #000000"/>
    </g>
   </g>
   <g id="patch_19">
    <path d="M 102.231064 121.296692 
L 117.029742 121.296692 
L 117.029742 113.922759 
L 102.231064 113.922759 
L 102.231064 121.296692 
z
" clip-path="url(#pe2d1ea9d5c)" style="fill: #2ca02c; fill-opacity: 0.5; stroke: #000000; stroke-linejoin: miter"/>
   </g>
   <g id="line2d_59">
    <path d="M 109.630403 121.296692 
L 109.630403 131.201645 
" clip-path="url(#pe2d1ea9d5c)" style="fill: none; stroke: #000000; stroke-linecap: square"/>
   </g>
   <g id="line2d_60">
    <path d="M 109.630403 113.922759 
L 109.630403 105.317839 
" clip-path="url(#pe2d1ea9d5c)" style="fill: none; stroke: #000000; stroke-linecap: square"/>
   </g>
   <g id="line2d_61">
    <path d="M 105.930733 131.201645 
L 113.330072 131.201645 
" clip-path="url(#pe2d1ea9d5c)" style="fill: none; stroke: #000000; stroke-linecap: square"/>
   </g>
   <g id="line2d_62">
    <path d="M 105.930733 105.317839 
L 113.330072 105.317839 
" clip-path="url(#pe2d1ea9d5c)" style="fill: none; stroke: #000000; stroke-linecap: square"/>
   </g>
   <g id="line2d_63">
    <g clip-path="url(#pe2d1ea9d5c)">
     <use xlink:href="#m8ff88d1b39" x="109.630403" y="135.436362" style="fill-opacity: 0; stroke: #000000"/>
     <use xlink:href="#m8ff88d1b39" x="109.630403" y="101.001536" style="fill-opacity: 0; stroke: #000000"/>
     <use xlink:href="#m8ff88d1b39" x="109.630403" y="100.352849" style="fill-opacity: 0; stroke: #000000"/>
     <use xlink:href="#m8ff88d1b39" x="109.630403" y="102.542898" style="fill-opacity: 0; stroke: #000000"/>
    </g>
   </g>
   <g id="patch_20">
    <path d="M 131.82842 209.750803 
L 146.627098 209.750803 
L 146.627098 206.588668 
L 131.82842 206.588668 
L 131.82842 209.750803 
z
" clip-path="url(#pe2d1ea9d5c)" style="fill: #2ca02c; fill-opacity: 0.5; stroke: #000000; stroke-linejoin: miter"/>
   </g>
   <g id="line2d_64">
    <path d="M 139.227759 209.750803 
L 139.227759 213.49501 
" clip-path="url(#pe2d1ea9d5c)" style="fill: none; stroke: #000000; stroke-linecap: square"/>
   </g>
   <g id="line2d_65">
    <path d="M 139.227759 206.588668 
L 139.227759 202.509194 
" clip-path="url(#pe2d1ea9d5c)" style="fill: none; stroke: #000000; stroke-linecap: square"/>
   </g>
   <g id="line2d_66">
    <path d="M 135.528089 213.49501 
L 142.927429 213.49501 
" clip-path="url(#pe2d1ea9d5c)" style="fill: none; stroke: #000000; stroke-linecap: square"/>
   </g>
   <g id="line2d_67">
    <path d="M 135.528089 202.509194 
L 142.927429 202.509194 
" clip-path="url(#pe2d1ea9d5c)" style="fill: none; stroke: #000000; stroke-linecap: square"/>
   </g>
   <g id="line2d_68">
    <g clip-path="url(#pe2d1ea9d5c)">
     <use xlink:href="#m8ff88d1b39" x="139.227759" y="200.985764" style="fill-opacity: 0; stroke: #000000"/>
    </g>
   </g>
   <g id="patch_21">
    <path d="M 161.425776 216.618135 
L 176.224454 216.618135 
L 176.224454 213.707124 
L 161.425776 213.707124 
L 161.425776 216.618135 
z
" clip-path="url(#pe2d1ea9d5c)" style="fill: #2ca02c; fill-opacity: 0.5; stroke: #000000; stroke-linejoin: miter"/>
   </g>
   <g id="line2d_69">
    <path d="M 168.825115 216.618135 
L 168.825115 219.853551 
" clip-path="url(#pe2d1ea9d5c)" style="fill: none; stroke: #000000; stroke-linecap: square"/>
   </g>
   <g id="line2d_70">
    <path d="M 168.825115 213.707124 
L 168.825115 210.09317 
" clip-path="url(#pe2d1ea9d5c)" style="fill: none; stroke: #000000; stroke-linecap: square"/>
   </g>
   <g id="line2d_71">
    <path d="M 165.125446 219.853551 
L 172.524785 219.853551 
" clip-path="url(#pe2d1ea9d5c)" style="fill: none; stroke: #000000; stroke-linecap: square"/>
   </g>
   <g id="line2d_72">
    <path d="M 165.125446 210.09317 
L 172.524785 210.09317 
" clip-path="url(#pe2d1ea9d5c)" style="fill: none; stroke: #000000; stroke-linecap: square"/>
   </g>
   <g id="line2d_73">
    <g clip-path="url(#pe2d1ea9d5c)">
     <use xlink:href="#m8ff88d1b39" x="168.825115" y="208.701503" style="fill-opacity: 0; stroke: #000000"/>
    </g>
   </g>
   <g id="patch_22">
    <path d="M 191.023132 244.975752 
L 205.821811 244.975752 
L 205.821811 243.356259 
L 191.023132 243.356259 
L 191.023132 244.975752 
z
" clip-path="url(#pe2d1ea9d5c)" style="fill: #2ca02c; fill-opacity: 0.5; stroke: #000000; stroke-linejoin: miter"/>
   </g>
   <g id="line2d_74">
    <path d="M 198.422472 244.975752 
L 198.422472 246.590448 
" clip-path="url(#pe2d1ea9d5c)" style="fill: none; stroke: #000000; stroke-linecap: square"/>
   </g>
   <g id="line2d_75">
    <path d="M 198.422472 243.356259 
L 198.422472 241.35024 
" clip-path="url(#pe2d1ea9d5c)" style="fill: none; stroke: #000000; stroke-linecap: square"/>
   </g>
   <g id="line2d_76">
    <path d="M 194.722802 246.590448 
L 202.122141 246.590448 
" clip-path="url(#pe2d1ea9d5c)" style="fill: none; stroke: #000000; stroke-linecap: square"/>
   </g>
   <g id="line2d_77">
    <path d="M 194.722802 241.35024 
L 202.122141 241.35024 
" clip-path="url(#pe2d1ea9d5c)" style="fill: none; stroke: #000000; stroke-linecap: square"/>
   </g>
   <g id="line2d_78">
    <g clip-path="url(#pe2d1ea9d5c)">
     <use xlink:href="#m8ff88d1b39" x="198.422472" y="240.689065" style="fill-opacity: 0; stroke: #000000"/>
    </g>
   </g>
   <g id="patch_23">
    <path d="M 220.620489 225.295772 
L 235.419167 225.295772 
L 235.419167 223.410118 
L 220.620489 223.410118 
L 220.620489 225.295772 
z
" clip-path="url(#pe2d1ea9d5c)" style="fill: #2ca02c; fill-opacity: 0.5; stroke: #000000; stroke-linejoin: miter"/>
   </g>
   <g id="line2d_79">
    <path d="M 228.019828 225.295772 
L 228.019828 227.16195 
" clip-path="url(#pe2d1ea9d5c)" style="fill: none; stroke: #000000; stroke-linecap: square"/>
   </g>
   <g id="line2d_80">
    <path d="M 228.019828 223.410118 
L 228.019828 221.075683 
" clip-path="url(#pe2d1ea9d5c)" style="fill: none; stroke: #000000; stroke-linecap: square"/>
   </g>
   <g id="line2d_81">
    <path d="M 224.320158 227.16195 
L 231.719497 227.16195 
" clip-path="url(#pe2d1ea9d5c)" style="fill: none; stroke: #000000; stroke-linecap: square"/>
   </g>
   <g id="line2d_82">
    <path d="M 224.320158 221.075683 
L 231.719497 221.075683 
" clip-path="url(#pe2d1ea9d5c)" style="fill: none; stroke: #000000; stroke-linecap: square"/>
   </g>
   <g id="line2d_83">
    <g clip-path="url(#pe2d1ea9d5c)">
     <use xlink:href="#m8ff88d1b39" x="228.019828" y="220.310751" style="fill-opacity: 0; stroke: #000000"/>
    </g>
   </g>
   <g id="patch_24">
    <path d="M 250.217845 257.796329 
L 265.016523 257.796329 
L 265.016523 256.885564 
L 250.217845 256.885564 
L 250.217845 257.796329 
z
" clip-path="url(#pe2d1ea9d5c)" style="fill: #2ca02c; fill-opacity: 0.5; stroke: #000000; stroke-linejoin: miter"/>
   </g>
   <g id="line2d_84">
    <path d="M 257.617184 257.796329 
L 257.617184 258.687479 
" clip-path="url(#pe2d1ea9d5c)" style="fill: none; stroke: #000000; stroke-linecap: square"/>
   </g>
   <g id="line2d_85">
    <path d="M 257.617184 256.885564 
L 257.617184 255.752661 
" clip-path="url(#pe2d1ea9d5c)" style="fill: none; stroke: #000000; stroke-linecap: square"/>
   </g>
   <g id="line2d_86">
    <path d="M 253.917515 258.687479 
L 261.316854 258.687479 
" clip-path="url(#pe2d1ea9d5c)" style="fill: none; stroke: #000000; stroke-linecap: square"/>
   </g>
   <g id="line2d_87">
    <path d="M 253.917515 255.752661 
L 261.316854 255.752661 
" clip-path="url(#pe2d1ea9d5c)" style="fill: none; stroke: #000000; stroke-linecap: square"/>
   </g>
   <g id="line2d_88">
    <g clip-path="url(#pe2d1ea9d5c)">
     <use xlink:href="#m8ff88d1b39" x="257.617184" y="255.400386" style="fill-opacity: 0; stroke: #000000"/>
    </g>
   </g>
   <g id="patch_25">
    <path d="M 279.815201 269.37805 
L 294.613879 269.37805 
L 294.613879 268.695307 
L 279.815201 268.695307 
L 279.815201 269.37805 
z
" clip-path="url(#pe2d1ea9d5c)" style="fill: #2ca02c; fill-opacity: 0.5; stroke: #000000; stroke-linejoin: miter"/>
   </g>
   <g id="line2d_89">
    <path d="M 287.21454 269.37805 
L 287.21454 270.04435 
" clip-path="url(#pe2d1ea9d5c)" style="fill: none; stroke: #000000; stroke-linecap: square"/>
   </g>
   <g id="line2d_90">
    <path d="M 287.21454 268.695307 
L 287.21454 267.826217 
" clip-path="url(#pe2d1ea9d5c)" style="fill: none; stroke: #000000; stroke-linecap: square"/>
   </g>
   <g id="line2d_91">
    <path d="M 283.514871 270.04435 
L 290.91421 270.04435 
" clip-path="url(#pe2d1ea9d5c)" style="fill: none; stroke: #000000; stroke-linecap: square"/>
   </g>
   <g id="line2d_92">
    <path d="M 283.514871 267.826217 
L 290.91421 267.826217 
" clip-path="url(#pe2d1ea9d5c)" style="fill: none; stroke: #000000; stroke-linecap: square"/>
   </g>
   <g id="line2d_93">
    <g clip-path="url(#pe2d1ea9d5c)">
     <use xlink:href="#m8ff88d1b39" x="287.21454" y="267.570539" style="fill-opacity: 0; stroke: #000000"/>
    </g>
   </g>
   <g id="patch_26">
    <path d="M 309.412558 277.551155 
L 324.211236 277.551155 
L 324.211236 277.147078 
L 309.412558 277.147078 
L 309.412558 277.551155 
z
" clip-path="url(#pe2d1ea9d5c)" style="fill: #2ca02c; fill-opacity: 0.5; stroke: #000000; stroke-linejoin: miter"/>
   </g>
   <g id="line2d_94">
    <path d="M 316.811897 277.551155 
L 316.811897 277.947985 
" clip-path="url(#pe2d1ea9d5c)" style="fill: none; stroke: #000000; stroke-linecap: square"/>
   </g>
   <g id="line2d_95">
    <path d="M 316.811897 277.147078 
L 316.811897 276.630475 
" clip-path="url(#pe2d1ea9d5c)" style="fill: none; stroke: #000000; stroke-linecap: square"/>
   </g>
   <g id="line2d_96">
    <path d="M 313.112227 277.947985 
L 320.511566 277.947985 
" clip-path="url(#pe2d1ea9d5c)" style="fill: none; stroke: #000000; stroke-linecap: square"/>
   </g>
   <g id="line2d_97">
    <path d="M 313.112227 276.630475 
L 320.511566 276.630475 
" clip-path="url(#pe2d1ea9d5c)" style="fill: none; stroke: #000000; stroke-linecap: square"/>
   </g>
   <g id="line2d_98">
    <g clip-path="url(#pe2d1ea9d5c)">
     <use xlink:href="#m8ff88d1b39" x="316.811897" y="276.478385" style="fill-opacity: 0; stroke: #000000"/>
    </g>
   </g>
   <g id="patch_27">
    <path d="M 339.009914 291.717442 
L 353.808592 291.717442 
L 353.808592 291.529286 
L 339.009914 291.529286 
L 339.009914 291.717442 
z
" clip-path="url(#pe2d1ea9d5c)" style="fill: #2ca02c; fill-opacity: 0.5; stroke: #000000; stroke-linejoin: miter"/>
   </g>
   <g id="line2d_99">
    <path d="M 346.409253 291.717442 
L 346.409253 291.902219 
" clip-path="url(#pe2d1ea9d5c)" style="fill: none; stroke: #000000; stroke-linecap: square"/>
   </g>
   <g id="line2d_100">
    <path d="M 346.409253 291.529286 
L 346.409253 291.288471 
" clip-path="url(#pe2d1ea9d5c)" style="fill: none; stroke: #000000; stroke-linecap: square"/>
   </g>
   <g id="line2d_101">
    <path d="M 342.709583 291.902219 
L 350.108923 291.902219 
" clip-path="url(#pe2d1ea9d5c)" style="fill: none; stroke: #000000; stroke-linecap: square"/>
   </g>
   <g id="line2d_102">
    <path d="M 342.709583 291.288471 
L 350.108923 291.288471 
" clip-path="url(#pe2d1ea9d5c)" style="fill: none; stroke: #000000; stroke-linecap: square"/>
   </g>
   <g id="line2d_103">
    <g clip-path="url(#pe2d1ea9d5c)">
     <use xlink:href="#m8ff88d1b39" x="346.409253" y="291.217415" style="fill-opacity: 0; stroke: #000000"/>
    </g>
   </g>
   <g id="patch_28">
    <path d="M 368.60727 295.578202 
L 383.405948 295.578202 
L 383.405948 295.458102 
L 368.60727 295.458102 
L 368.60727 295.578202 
z
" clip-path="url(#pe2d1ea9d5c)" style="fill: #2ca02c; fill-opacity: 0.5; stroke: #000000; stroke-linejoin: miter"/>
   </g>
   <g id="line2d_104">
    <path d="M 376.006609 295.578202 
L 376.006609 295.696609 
" clip-path="url(#pe2d1ea9d5c)" style="fill: none; stroke: #000000; stroke-linecap: square"/>
   </g>
   <g id="line2d_105">
    <path d="M 376.006609 295.458102 
L 376.006609 295.30457 
" clip-path="url(#pe2d1ea9d5c)" style="fill: none; stroke: #000000; stroke-linecap: square"/>
   </g>
   <g id="line2d_106">
    <path d="M 372.30694 295.696609 
L 379.706279 295.696609 
" clip-path="url(#pe2d1ea9d5c)" style="fill: none; stroke: #000000; stroke-linecap: square"/>
   </g>
   <g id="line2d_107">
    <path d="M 372.30694 295.30457 
L 379.706279 295.30457 
" clip-path="url(#pe2d1ea9d5c)" style="fill: none; stroke: #000000; stroke-linecap: square"/>
   </g>
   <g id="line2d_108">
    <g clip-path="url(#pe2d1ea9d5c)">
     <use xlink:href="#m8ff88d1b39" x="376.006609" y="295.259262" style="fill-opacity: 0; stroke: #000000"/>
    </g>
   </g>
   <g id="patch_29">
    <path d="M 398.204626 293.180807 
L 413.003305 293.180807 
L 413.003305 293.044274 
L 398.204626 293.044274 
L 398.204626 293.180807 
z
" clip-path="url(#pe2d1ea9d5c)" style="fill: #2ca02c; fill-opacity: 0.5; stroke: #000000; stroke-linejoin: miter"/>
   </g>
   <g id="line2d_109">
    <path d="M 405.603966 293.180807 
L 405.603966 293.315682 
" clip-path="url(#pe2d1ea9d5c)" style="fill: none; stroke: #000000; stroke-linecap: square"/>
   </g>
   <g id="line2d_110">
    <path d="M 405.603966 293.044274 
L 405.603966 292.869907 
" clip-path="url(#pe2d1ea9d5c)" style="fill: none; stroke: #000000; stroke-linecap: square"/>
   </g>
   <g id="line2d_111">
    <path d="M 401.904296 293.315682 
L 409.303635 293.315682 
" clip-path="url(#pe2d1ea9d5c)" style="fill: none; stroke: #000000; stroke-linecap: square"/>
   </g>
   <g id="line2d_112">
    <path d="M 401.904296 292.869907 
L 409.303635 292.869907 
" clip-path="url(#pe2d1ea9d5c)" style="fill: none; stroke: #000000; stroke-linecap: square"/>
   </g>
   <g id="line2d_113">
    <g clip-path="url(#pe2d1ea9d5c)">
     <use xlink:href="#m8ff88d1b39" x="405.603966" y="292.818466" style="fill-opacity: 0; stroke: #000000"/>
    </g>
   </g>
   <g id="patch_30">
    <path d="M 427.801983 301.065997 
L 442.600661 301.065997 
L 442.600661 301.018391 
L 427.801983 301.018391 
L 427.801983 301.065997 
z
" clip-path="url(#pe2d1ea9d5c)" style="fill: #2ca02c; fill-opacity: 0.5; stroke: #000000; stroke-linejoin: miter"/>
   </g>
   <g id="line2d_114">
    <path d="M 435.201322 301.065997 
L 435.201322 301.113098 
" clip-path="url(#pe2d1ea9d5c)" style="fill: none; stroke: #000000; stroke-linecap: square"/>
   </g>
   <g id="line2d_115">
    <path d="M 435.201322 301.018391 
L 435.201322 300.957722 
" clip-path="url(#pe2d1ea9d5c)" style="fill: none; stroke: #000000; stroke-linecap: square"/>
   </g>
   <g id="line2d_116">
    <path d="M 431.501652 301.113098 
L 438.900991 301.113098 
" clip-path="url(#pe2d1ea9d5c)" style="fill: none; stroke: #000000; stroke-linecap: square"/>
   </g>
   <g id="line2d_117">
    <path d="M 431.501652 300.957722 
L 438.900991 300.957722 
" clip-path="url(#pe2d1ea9d5c)" style="fill: none; stroke: #000000; stroke-linecap: square"/>
   </g>
   <g id="line2d_118">
    <g clip-path="url(#pe2d1ea9d5c)">
     <use xlink:href="#m8ff88d1b39" x="435.201322" y="300.939848" style="fill-opacity: 0; stroke: #000000"/>
    </g>
   </g>
   <g id="line2d_119">
    <path d="M 43.036351 68.77274 
L 57.835029 68.77274 
" clip-path="url(#pe2d1ea9d5c)" style="fill: none; stroke: #2ca02c; stroke-linecap: square"/>
   </g>
   <g id="line2d_120">
    <path d="M 72.633707 161.16378 
L 87.432385 161.16378 
" clip-path="url(#pe2d1ea9d5c)" style="fill: none; stroke: #2ca02c; stroke-linecap: square"/>
   </g>
   <g id="line2d_121">
    <path d="M 102.231064 118.206502 
L 117.029742 118.206502 
" clip-path="url(#pe2d1ea9d5c)" style="fill: none; stroke: #2ca02c; stroke-linecap: square"/>
   </g>
   <g id="line2d_122">
    <path d="M 131.82842 208.122506 
L 146.627098 208.122506 
" clip-path="url(#pe2d1ea9d5c)" style="fill: none; stroke: #2ca02c; stroke-linecap: square"/>
   </g>
   <g id="line2d_123">
    <path d="M 161.425776 215.023148 
L 176.224454 215.023148 
" clip-path="url(#pe2d1ea9d5c)" style="fill: none; stroke: #2ca02c; stroke-linecap: square"/>
   </g>
   <g id="line2d_124">
    <path d="M 191.023132 244.162169 
L 205.821811 244.162169 
" clip-path="url(#pe2d1ea9d5c)" style="fill: none; stroke: #2ca02c; stroke-linecap: square"/>
   </g>
   <g id="line2d_125">
    <path d="M 220.620489 224.3417 
L 235.419167 224.3417 
" clip-path="url(#pe2d1ea9d5c)" style="fill: none; stroke: #2ca02c; stroke-linecap: square"/>
   </g>
   <g id="line2d_126">
    <path d="M 250.217845 257.31202 
L 265.016523 257.31202 
" clip-path="url(#pe2d1ea9d5c)" style="fill: none; stroke: #2ca02c; stroke-linecap: square"/>
   </g>
   <g id="line2d_127">
    <path d="M 279.815201 269.016208 
L 294.613879 269.016208 
" clip-path="url(#pe2d1ea9d5c)" style="fill: none; stroke: #2ca02c; stroke-linecap: square"/>
   </g>
   <g id="line2d_128">
    <path d="M 309.412558 277.33317 
L 324.211236 277.33317 
" clip-path="url(#pe2d1ea9d5c)" style="fill: none; stroke: #2ca02c; stroke-linecap: square"/>
   </g>
   <g id="line2d_129">
    <path d="M 339.009914 291.615678 
L 353.808592 291.615678 
" clip-path="url(#pe2d1ea9d5c)" style="fill: none; stroke: #2ca02c; stroke-linecap: square"/>
   </g>
   <g id="line2d_130">
    <path d="M 368.60727 295.512483 
L 383.405948 295.512483 
" clip-path="url(#pe2d1ea9d5c)" style="fill: none; stroke: #2ca02c; stroke-linecap: square"/>
   </g>
   <g id="line2d_131">
    <path d="M 398.204626 293.105851 
L 413.003305 293.105851 
" clip-path="url(#pe2d1ea9d5c)" style="fill: none; stroke: #2ca02c; stroke-linecap: square"/>
   </g>
   <g id="line2d_132">
    <path d="M 427.801983 301.039757 
L 442.600661 301.039757 
" clip-path="url(#pe2d1ea9d5c)" style="fill: none; stroke: #2ca02c; stroke-linecap: square"/>
   </g>
   <g id="patch_31">
    <path d="M 35.637012 306.088647 
L 35.637012 14.259249 
" style="fill: none; stroke: #000000; stroke-width: 0.8; stroke-linejoin: miter; stroke-linecap: square"/>
   </g>
   <g id="patch_32">
    <path d="M 450 306.088647 
L 450 14.259249 
" style="fill: none; stroke: #000000; stroke-width: 0.8; stroke-linejoin: miter; stroke-linecap: square"/>
   </g>
   <g id="patch_33">
    <path d="M 35.637012 306.088647 
L 450 306.088647 
" style="fill: none; stroke: #000000; stroke-width: 0.8; stroke-linejoin: miter; stroke-linecap: square"/>
   </g>
   <g id="patch_34">
    <path d="M 35.637012 14.259249 
L 450 14.259249 
" style="fill: none; stroke: #000000; stroke-width: 0.8; stroke-linejoin: miter; stroke-linecap: square"/>
   </g>
   <g id="legend_1">
    <g id="patch_35">
     <path d="M 354.793979 50.133606 
L 443 50.133606 
Q 445 50.133606 445 48.133606 
L 445 21.259249 
Q 445 19.259249 443 19.259249 
L 354.793979 19.259249 
Q 352.793979 19.259249 352.793979 21.259249 
L 352.793979 48.133606 
Q 352.793979 50.133606 354.793979 50.133606 
z
" style="fill: #ffffff; opacity: 0.8; stroke: #cccccc; stroke-linejoin: miter"/>
    </g>
    <g id="PathCollection_5">
     <g>
      <use xlink:href="#mb6ded0380d" x="366.793979" y="27.634249" style="fill: #ff0000; stroke: #ff0000"/>
     </g>
    </g>
    <g id="text_27">
     <!-- experimental -->
     <g transform="translate(384.793979 30.259249) scale(0.1 -0.1)">
      <defs>
       <path id="CMR17-78" d="M 1664 1477 
C 1856 1726 2074 2006 2253 2216 
C 2464 2458 2707 2560 2989 2560 
L 2989 2726 
C 2880 2726 2656 2726 2541 2726 
C 2368 2726 2170 2726 2022 2732 
L 2022 2566 
C 2112 2553 2163 2489 2163 2400 
C 2163 2285 2099 2215 2067 2171 
L 1594 1573 
L 1030 2306 
C 973 2376 973 2388 973 2420 
C 973 2497 1037 2560 1146 2560 
L 1146 2732 
C 992 2726 717 2726 557 2726 
C 384 2726 179 2726 38 2732 
L 38 2560 
C 384 2560 461 2534 614 2343 
L 1350 1395 
C 1363 1382 1395 1344 1395 1325 
C 1395 1299 838 619 768 530 
C 480 185 179 160 6 160 
L 6 0 
C 115 0 339 0 454 0 
C 582 0 864 0 979 -6 
L 979 160 
C 941 166 838 179 838 325 
C 838 440 890 510 947 586 
L 1478 1236 
L 2035 512 
C 2086 442 2163 346 2163 301 
C 2163 211 2086 160 1984 160 
L 1984 -6 
C 2138 0 2413 0 2573 0 
C 2746 0 2950 0 3091 -6 
L 3091 160 
C 2771 160 2675 172 2522 370 
L 1664 1477 
z
" transform="scale(0.015625)"/>
       <path id="CMR17-70" d="M 1408 -1063 
C 998 -1063 973 -1037 973 -789 
L 973 402 
C 1158 134 1427 -38 1766 -38 
C 2406 -38 3053 523 3053 1388 
C 3053 2191 2496 2802 1837 2802 
C 1453 2802 1139 2592 960 2338 
L 960 2802 
L 198 2732 
L 198 2567 
C 576 2567 634 2528 634 2223 
L 634 -789 
C 634 -1031 608 -1063 198 -1063 
L 198 -1228 
C 352 -1216 634 -1216 800 -1216 
C 966 -1216 1254 -1216 1408 -1228 
L 1408 -1063 
z
M 973 2012 
C 973 2102 973 2235 1222 2471 
C 1254 2497 1472 2688 1792 2688 
C 2259 2688 2643 2108 2643 1382 
C 2643 656 2234 64 1728 64 
C 1498 64 1248 172 1056 472 
C 973 612 973 650 973 752 
L 973 2012 
z
" transform="scale(0.015625)"/>
       <path id="CMR17-74" d="M 966 2560 
L 1862 2560 
L 1862 2725 
L 966 2725 
L 966 3904 
L 851 3904 
C 838 3245 614 2668 70 2668 
L 70 2560 
L 627 2560 
L 627 771 
C 627 650 627 -64 1370 -64 
C 1747 -64 1965 306 1965 777 
L 1965 1140 
L 1850 1140 
L 1850 783 
C 1850 344 1677 51 1408 51 
C 1222 51 966 178 966 758 
L 966 2560 
z
" transform="scale(0.015625)"/>
      </defs>
      <use xlink:href="#CMR17-65" transform="scale(0.996264)"/>
      <use xlink:href="#CMR17-78" transform="translate(40.48566 0) scale(0.996264)"/>
      <use xlink:href="#CMR17-70" transform="translate(88.778576 0) scale(0.996264)"/>
      <use xlink:href="#CMR17-65" transform="translate(142.276385 0) scale(0.996264)"/>
      <use xlink:href="#CMR17-72" transform="translate(182.762045 0) scale(0.996264)"/>
      <use xlink:href="#CMR17-69" transform="translate(218.042813 0) scale(0.996264)"/>
      <use xlink:href="#CMR17-6d" transform="translate(242.913872 0) scale(0.996264)"/>
      <use xlink:href="#CMR17-65" transform="translate(319.833461 0) scale(0.996264)"/>
      <use xlink:href="#CMR17-6e" transform="translate(360.319122 0) scale(0.996264)"/>
      <use xlink:href="#CMR17-74" transform="translate(408.612038 0) scale(0.996264)"/>
      <use xlink:href="#CMR17-61" transform="translate(443.892806 0) scale(0.996264)"/>
      <use xlink:href="#CMR17-6c" transform="translate(489.583283 0) scale(0.996264)"/>
     </g>
    </g>
    <g id="patch_36">
     <path d="M 356.793979 44.196428 
L 376.793979 44.196428 
L 376.793979 37.196428 
L 356.793979 37.196428 
z
" style="fill: #1f77b4; opacity: 0.5"/>
    </g>
    <g id="text_28">
     <!-- nominal -->
     <g transform="translate(384.793979 44.196428) scale(0.1 -0.1)">
      <use xlink:href="#CMR17-6e" transform="scale(0.996264)"/>
      <use xlink:href="#CMR17-6f" transform="translate(50.89537 0) scale(0.996264)"/>
      <use xlink:href="#CMR17-6d" transform="translate(96.585847 0) scale(0.996264)"/>
      <use xlink:href="#CMR17-69" transform="translate(173.505437 0) scale(0.996264)"/>
      <use xlink:href="#CMR17-6e" transform="translate(198.376495 0) scale(0.996264)"/>
      <use xlink:href="#CMR17-61" transform="translate(249.271865 0) scale(0.996264)"/>
      <use xlink:href="#CMR17-6c" transform="translate(294.962342 0) scale(0.996264)"/>
     </g>
    </g>
   </g>
  </g>
 </g>
 <defs>
  <clipPath id="pe2d1ea9d5c">
   <rect x="35.637012" y="14.259249" width="414.362988" height="291.829397"/>
  </clipPath>
 </defs>
</svg>
