<?xml version="1.0" encoding="utf-8" standalone="no"?>
<!DOCTYPE svg PUBLIC "-//W3C//DTD SVG 1.1//EN"
  "http://www.w3.org/Graphics/SVG/1.1/DTD/svg11.dtd">
<svg xmlns:xlink="http://www.w3.org/1999/xlink" width="460.8pt" height="345.6pt" viewBox="0 0 460.8 345.6" xmlns="http://www.w3.org/2000/svg" version="1.1">
 <metadata>
  <rdf:RDF xmlns:dc="http://purl.org/dc/elements/1.1/" xmlns:cc="http://creativecommons.org/ns#" xmlns:rdf="http://www.w3.org/1999/02/22-rdf-syntax-ns#">
   <cc:Work>
    <dc:type rdf:resource="http://purl.org/dc/dcmitype/StillImage"/>
    <dc:date>2023-04-17T14:41:42.252589</dc:date>
    <dc:format>image/svg+xml</dc:format>
    <dc:creator>
     <cc:Agent>
      <dc:title>Matplotlib v3.7.1, https://matplotlib.org/</dc:title>
     </cc:Agent>
    </dc:creator>
   </cc:Work>
  </rdf:RDF>
 </metadata>
 <defs>
  <style type="text/css">*{stroke-linejoin: round; stroke-linecap: butt}</style>
 </defs>
 <g id="figure_1">
  <g id="patch_1">
   <path d="M 0 345.6 
L 460.8 345.6 
L 460.8 0 
L 0 0 
z
" style="fill: #ffffff"/>
  </g>
  <g id="axes_1">
   <g id="patch_2">
    <path d="M 45.599682 306.088647 
L 450 306.088647 
L 450 14.259249 
L 45.599682 14.259249 
z
" style="fill: #ffffff"/>
   </g>
   <g id="patch_3">
    <path d="M 48.488256 306.088647 
L 71.596846 306.088647 
L 71.596846 93.152275 
L 48.488256 93.152275 
z
" clip-path="url(#pae1b04a435)" style="fill: #1f77b4; opacity: 0.5"/>
   </g>
   <g id="patch_4">
    <path d="M 77.373993 306.088647 
L 100.482583 306.088647 
L 100.482583 182.266132 
L 77.373993 182.266132 
z
" clip-path="url(#pae1b04a435)" style="fill: #1f77b4; opacity: 0.5"/>
   </g>
   <g id="patch_5">
    <path d="M 106.25973 306.088647 
L 129.36832 306.088647 
L 129.36832 107.414935 
L 106.25973 107.414935 
z
" clip-path="url(#pae1b04a435)" style="fill: #1f77b4; opacity: 0.5"/>
   </g>
   <g id="patch_6">
    <path d="M 135.145467 306.088647 
L 158.254057 306.088647 
L 158.254057 215.464087 
L 135.145467 215.464087 
z
" clip-path="url(#pae1b04a435)" style="fill: #1f77b4; opacity: 0.5"/>
   </g>
   <g id="patch_7">
    <path d="M 164.031204 306.088647 
L 187.139794 306.088647 
L 187.139794 180.589423 
L 164.031204 180.589423 
z
" clip-path="url(#pae1b04a435)" style="fill: #1f77b4; opacity: 0.5"/>
   </g>
   <g id="patch_8">
    <path d="M 192.916941 306.088647 
L 216.025531 306.088647 
L 216.025531 233.090142 
L 192.916941 233.090142 
z
" clip-path="url(#pae1b04a435)" style="fill: #1f77b4; opacity: 0.5"/>
   </g>
   <g id="patch_9">
    <path d="M 221.802678 306.088647 
L 244.911268 306.088647 
L 244.911268 185.434954 
L 221.802678 185.434954 
z
" clip-path="url(#pae1b04a435)" style="fill: #1f77b4; opacity: 0.5"/>
   </g>
   <g id="patch_10">
    <path d="M 250.688415 306.088647 
L 273.797005 306.088647 
L 273.797005 243.713746 
L 250.688415 243.713746 
z
" clip-path="url(#pae1b04a435)" style="fill: #1f77b4; opacity: 0.5"/>
   </g>
   <g id="patch_11">
    <path d="M 279.574152 306.088647 
L 302.682741 306.088647 
L 302.682741 234.16493 
L 279.574152 234.16493 
z
" clip-path="url(#pae1b04a435)" style="fill: #1f77b4; opacity: 0.5"/>
   </g>
   <g id="patch_12">
    <path d="M 308.459889 306.088647 
L 331.568478 306.088647 
L 331.568478 257.690768 
L 308.459889 257.690768 
z
" clip-path="url(#pae1b04a435)" style="fill: #1f77b4; opacity: 0.5"/>
   </g>
   <g id="patch_13">
    <path d="M 337.345626 306.088647 
L 360.454215 306.088647 
L 360.454215 267.61251 
L 337.345626 267.61251 
z
" clip-path="url(#pae1b04a435)" style="fill: #1f77b4; opacity: 0.5"/>
   </g>
   <g id="patch_14">
    <path d="M 366.231363 306.088647 
L 389.339952 306.088647 
L 389.339952 280.320646 
L 366.231363 280.320646 
z
" clip-path="url(#pae1b04a435)" style="fill: #1f77b4; opacity: 0.5"/>
   </g>
   <g id="patch_15">
    <path d="M 395.1171 306.088647 
L 418.225689 306.088647 
L 418.225689 270.494578 
L 395.1171 270.494578 
z
" clip-path="url(#pae1b04a435)" style="fill: #1f77b4; opacity: 0.5"/>
   </g>
   <g id="patch_16">
    <path d="M 424.002837 306.088647 
L 447.111426 306.088647 
L 447.111426 291.693641 
L 424.002837 291.693641 
z
" clip-path="url(#pae1b04a435)" style="fill: #1f77b4; opacity: 0.5"/>
   </g>
   <g id="PathCollection_1">
    <defs>
     <path id="mf8d29e59fc" d="M -3 3 
L 3 -3 
M -3 -3 
L 3 3 
" style="stroke: #ff0000"/>
    </defs>
    <g clip-path="url(#pae1b04a435)">
     <use xlink:href="#mf8d29e59fc" x="60.042551" y="171.930033" style="fill: #ff0000; stroke: #ff0000"/>
     <use xlink:href="#mf8d29e59fc" x="88.928288" y="189.663907" style="fill: #ff0000; stroke: #ff0000"/>
     <use xlink:href="#mf8d29e59fc" x="117.814025" y="109.37217" style="fill: #ff0000; stroke: #ff0000"/>
     <use xlink:href="#mf8d29e59fc" x="146.699762" y="211.622872" style="fill: #ff0000; stroke: #ff0000"/>
     <use xlink:href="#mf8d29e59fc" x="175.585499" y="170.115437" style="fill: #ff0000; stroke: #ff0000"/>
     <use xlink:href="#mf8d29e59fc" x="204.471236" y="249.343806" style="fill: #ff0000; stroke: #ff0000"/>
     <use xlink:href="#mf8d29e59fc" x="233.356973" y="160.34032" style="fill: #ff0000; stroke: #ff0000"/>
     <use xlink:href="#mf8d29e59fc" x="262.24271" y="259.957968" style="fill: #ff0000; stroke: #ff0000"/>
     <use xlink:href="#mf8d29e59fc" x="291.128447" y="238.115031" style="fill: #ff0000; stroke: #ff0000"/>
     <use xlink:href="#mf8d29e59fc" x="320.014184" y="274.005294" style="fill: #ff0000; stroke: #ff0000"/>
     <use xlink:href="#mf8d29e59fc" x="348.899921" y="263.694298" style="fill: #ff0000; stroke: #ff0000"/>
     <use xlink:href="#mf8d29e59fc" x="377.785658" y="259.441921" style="fill: #ff0000; stroke: #ff0000"/>
     <use xlink:href="#mf8d29e59fc" x="406.671395" y="254.660493" style="fill: #ff0000; stroke: #ff0000"/>
     <use xlink:href="#mf8d29e59fc" x="435.557132" y="266.869139" style="fill: #ff0000; stroke: #ff0000"/>
    </g>
   </g>
   <g id="PathCollection_2">
    <g clip-path="url(#pae1b04a435)">
     <use xlink:href="#mf8d29e59fc" x="60.042551" y="174.751541" style="fill: #ff0000; stroke: #ff0000"/>
     <use xlink:href="#mf8d29e59fc" x="88.928288" y="190.179161" style="fill: #ff0000; stroke: #ff0000"/>
     <use xlink:href="#mf8d29e59fc" x="117.814025" y="114.375227" style="fill: #ff0000; stroke: #ff0000"/>
     <use xlink:href="#mf8d29e59fc" x="146.699762" y="212.110592" style="fill: #ff0000; stroke: #ff0000"/>
     <use xlink:href="#mf8d29e59fc" x="175.585499" y="175.297758" style="fill: #ff0000; stroke: #ff0000"/>
     <use xlink:href="#mf8d29e59fc" x="204.471236" y="250.302028" style="fill: #ff0000; stroke: #ff0000"/>
     <use xlink:href="#mf8d29e59fc" x="233.356973" y="168.398255" style="fill: #ff0000; stroke: #ff0000"/>
     <use xlink:href="#mf8d29e59fc" x="262.24271" y="263.799835" style="fill: #ff0000; stroke: #ff0000"/>
     <use xlink:href="#mf8d29e59fc" x="291.128447" y="239.771627" style="fill: #ff0000; stroke: #ff0000"/>
     <use xlink:href="#mf8d29e59fc" x="320.014184" y="274.373798" style="fill: #ff0000; stroke: #ff0000"/>
     <use xlink:href="#mf8d29e59fc" x="348.899921" y="261.890851" style="fill: #ff0000; stroke: #ff0000"/>
     <use xlink:href="#mf8d29e59fc" x="377.785658" y="258.443091" style="fill: #ff0000; stroke: #ff0000"/>
     <use xlink:href="#mf8d29e59fc" x="406.671395" y="253.245916" style="fill: #ff0000; stroke: #ff0000"/>
     <use xlink:href="#mf8d29e59fc" x="435.557132" y="266.143827" style="fill: #ff0000; stroke: #ff0000"/>
    </g>
   </g>
   <g id="PathCollection_3">
    <g clip-path="url(#pae1b04a435)">
     <use xlink:href="#mf8d29e59fc" x="60.042551" y="179.174274" style="fill: #ff0000; stroke: #ff0000"/>
     <use xlink:href="#mf8d29e59fc" x="88.928288" y="193.717928" style="fill: #ff0000; stroke: #ff0000"/>
     <use xlink:href="#mf8d29e59fc" x="117.814025" y="109.60448" style="fill: #ff0000; stroke: #ff0000"/>
     <use xlink:href="#mf8d29e59fc" x="146.699762" y="214.02616" style="fill: #ff0000; stroke: #ff0000"/>
     <use xlink:href="#mf8d29e59fc" x="175.585499" y="177.265761" style="fill: #ff0000; stroke: #ff0000"/>
     <use xlink:href="#mf8d29e59fc" x="204.471236" y="252.516722" style="fill: #ff0000; stroke: #ff0000"/>
     <use xlink:href="#mf8d29e59fc" x="233.356973" y="168.416939" style="fill: #ff0000; stroke: #ff0000"/>
     <use xlink:href="#mf8d29e59fc" x="262.24271" y="263.441319" style="fill: #ff0000; stroke: #ff0000"/>
     <use xlink:href="#mf8d29e59fc" x="291.128447" y="240.033408" style="fill: #ff0000; stroke: #ff0000"/>
     <use xlink:href="#mf8d29e59fc" x="320.014184" y="275.671205" style="fill: #ff0000; stroke: #ff0000"/>
     <use xlink:href="#mf8d29e59fc" x="348.899921" y="261.650004" style="fill: #ff0000; stroke: #ff0000"/>
     <use xlink:href="#mf8d29e59fc" x="377.785658" y="258.472478" style="fill: #ff0000; stroke: #ff0000"/>
     <use xlink:href="#mf8d29e59fc" x="406.671395" y="251.534168" style="fill: #ff0000; stroke: #ff0000"/>
     <use xlink:href="#mf8d29e59fc" x="435.557132" y="264.581934" style="fill: #ff0000; stroke: #ff0000"/>
    </g>
   </g>
   <g id="PathCollection_4">
    <g clip-path="url(#pae1b04a435)">
     <use xlink:href="#mf8d29e59fc" x="60.042551" y="179.005838" style="fill: #ff0000; stroke: #ff0000"/>
     <use xlink:href="#mf8d29e59fc" x="88.928288" y="193.778045" style="fill: #ff0000; stroke: #ff0000"/>
     <use xlink:href="#mf8d29e59fc" x="117.814025" y="123.198704" style="fill: #ff0000; stroke: #ff0000"/>
     <use xlink:href="#mf8d29e59fc" x="146.699762" y="219.125799" style="fill: #ff0000; stroke: #ff0000"/>
     <use xlink:href="#mf8d29e59fc" x="175.585499" y="178.171154" style="fill: #ff0000; stroke: #ff0000"/>
     <use xlink:href="#mf8d29e59fc" x="204.471236" y="255.569045" style="fill: #ff0000; stroke: #ff0000"/>
     <use xlink:href="#mf8d29e59fc" x="233.356973" y="176.54816" style="fill: #ff0000; stroke: #ff0000"/>
     <use xlink:href="#mf8d29e59fc" x="262.24271" y="264.217351" style="fill: #ff0000; stroke: #ff0000"/>
     <use xlink:href="#mf8d29e59fc" x="291.128447" y="239.745859" style="fill: #ff0000; stroke: #ff0000"/>
     <use xlink:href="#mf8d29e59fc" x="320.014184" y="277.079185" style="fill: #ff0000; stroke: #ff0000"/>
     <use xlink:href="#mf8d29e59fc" x="348.899921" y="259.806416" style="fill: #ff0000; stroke: #ff0000"/>
     <use xlink:href="#mf8d29e59fc" x="377.785658" y="256.332128" style="fill: #ff0000; stroke: #ff0000"/>
     <use xlink:href="#mf8d29e59fc" x="406.671395" y="249.604476" style="fill: #ff0000; stroke: #ff0000"/>
     <use xlink:href="#mf8d29e59fc" x="435.557132" y="262.987984" style="fill: #ff0000; stroke: #ff0000"/>
    </g>
   </g>
   <g id="matplotlib.axis_1">
    <g id="xtick_1">
     <g id="line2d_1">
      <path d="M 60.042551 306.088647 
L 60.042551 14.259249 
" clip-path="url(#pae1b04a435)" style="fill: none; stroke: #b0b0b0; stroke-width: 0.8; stroke-linecap: square"/>
     </g>
     <g id="line2d_2">
      <defs>
       <path id="mb7e0c4a02d" d="M 0 0 
L 0 3.5 
" style="stroke: #000000; stroke-width: 0.8"/>
      </defs>
      <g>
       <use xlink:href="#mb7e0c4a02d" x="60.042551" y="306.088647" style="stroke: #000000; stroke-width: 0.8"/>
      </g>
     </g>
     <g id="text_1">
      <!-- R1 -->
      <g transform="translate(53.885077 320.007145) scale(0.1 -0.1)">
       <defs>
        <path id="CMR17-52" d="M 2509 2146 
C 3117 2268 3629 2676 3629 3186 
C 3629 3785 2950 4326 2054 4326 
L 333 4326 
L 333 4160 
C 774 4160 845 4160 845 3873 
L 845 415 
C 845 128 774 128 333 128 
L 333 -26 
C 518 -26 851 -26 1050 -26 
C 1248 -26 1581 -26 1766 -26 
L 1766 128 
C 1325 128 1254 128 1254 417 
L 1254 2112 
L 2003 2112 
C 2368 2112 2573 1964 2662 1881 
C 2918 1632 2918 1459 2918 1024 
C 2918 595 2918 377 3110 160 
C 3354 -102 3680 -128 3821 -128 
C 4294 -128 4365 396 4365 503 
C 4365 540 4365 585 4307 585 
C 4256 585 4250 547 4250 522 
C 4218 112 4032 -26 3834 -26 
C 3482 -26 3443 375 3405 764 
C 3386 898 3373 993 3360 1133 
C 3322 1452 3270 1917 2509 2146 
z
M 1984 2214 
L 1254 2214 
L 1254 3913 
C 1254 4129 1267 4160 1523 4160 
L 1990 4160 
C 2522 4160 3142 3977 3142 3190 
C 3142 2372 2464 2214 1984 2214 
z
" transform="scale(0.015625)"/>
        <path id="CMR17-31" d="M 1702 4058 
C 1702 4192 1696 4192 1606 4192 
C 1357 3916 979 3827 621 3827 
C 602 3827 570 3827 563 3808 
C 557 3795 557 3782 557 3648 
C 755 3648 1088 3686 1344 3839 
L 1344 461 
C 1344 236 1331 160 781 160 
L 589 160 
L 589 0 
C 896 0 1216 0 1523 0 
C 1830 0 2150 0 2458 0 
L 2458 160 
L 2266 160 
C 1715 160 1702 230 1702 458 
L 1702 4058 
z
" transform="scale(0.015625)"/>
       </defs>
       <use xlink:href="#CMR17-52" transform="scale(0.996264)"/>
       <use xlink:href="#CMR17-31" transform="translate(67.791102 0) scale(0.996264)"/>
      </g>
     </g>
    </g>
    <g id="xtick_2">
     <g id="line2d_3">
      <path d="M 88.928288 306.088647 
L 88.928288 14.259249 
" clip-path="url(#pae1b04a435)" style="fill: none; stroke: #b0b0b0; stroke-width: 0.8; stroke-linecap: square"/>
     </g>
     <g id="line2d_4">
      <g>
       <use xlink:href="#mb7e0c4a02d" x="88.928288" y="306.088647" style="stroke: #000000; stroke-width: 0.8"/>
      </g>
     </g>
     <g id="text_2">
      <!-- R2 -->
      <g transform="translate(82.770814 320.007145) scale(0.1 -0.1)">
       <defs>
        <path id="CMR17-32" d="M 2669 989 
L 2554 989 
C 2490 536 2438 459 2413 420 
C 2381 369 1920 369 1830 369 
L 602 369 
C 832 619 1280 1072 1824 1597 
C 2214 1967 2669 2402 2669 3035 
C 2669 3790 2067 4224 1395 4224 
C 691 4224 262 3604 262 3030 
C 262 2780 448 2748 525 2748 
C 589 2748 781 2787 781 3010 
C 781 3207 614 3264 525 3264 
C 486 3264 448 3258 422 3245 
C 544 3790 915 4058 1306 4058 
C 1862 4058 2227 3617 2227 3035 
C 2227 2479 1901 2000 1536 1584 
L 262 146 
L 262 0 
L 2515 0 
L 2669 989 
z
" transform="scale(0.015625)"/>
       </defs>
       <use xlink:href="#CMR17-52" transform="scale(0.996264)"/>
       <use xlink:href="#CMR17-32" transform="translate(67.791102 0) scale(0.996264)"/>
      </g>
     </g>
    </g>
    <g id="xtick_3">
     <g id="line2d_5">
      <path d="M 117.814025 306.088647 
L 117.814025 14.259249 
" clip-path="url(#pae1b04a435)" style="fill: none; stroke: #b0b0b0; stroke-width: 0.8; stroke-linecap: square"/>
     </g>
     <g id="line2d_6">
      <g>
       <use xlink:href="#mb7e0c4a02d" x="117.814025" y="306.088647" style="stroke: #000000; stroke-width: 0.8"/>
      </g>
     </g>
     <g id="text_3">
      <!-- R3 -->
      <g transform="translate(111.656551 320.007145) scale(0.1 -0.1)">
       <defs>
        <path id="CMR17-33" d="M 1414 2157 
C 1984 2157 2234 1662 2234 1090 
C 2234 320 1824 25 1453 25 
C 1114 25 563 194 390 693 
C 422 680 454 680 486 680 
C 640 680 755 782 755 948 
C 755 1133 614 1216 486 1216 
C 378 1216 211 1165 211 926 
C 211 335 787 -128 1466 -128 
C 2176 -128 2720 430 2720 1085 
C 2720 1707 2208 2157 1600 2227 
C 2086 2328 2554 2756 2554 3329 
C 2554 3820 2048 4179 1472 4179 
C 890 4179 378 3829 378 3329 
C 378 3110 544 3072 627 3072 
C 762 3072 877 3155 877 3321 
C 877 3486 762 3569 627 3569 
C 602 3569 570 3569 544 3557 
C 730 3959 1235 4032 1459 4032 
C 1683 4032 2106 3925 2106 3320 
C 2106 3143 2080 2828 1862 2550 
C 1670 2304 1453 2304 1242 2284 
C 1210 2284 1062 2269 1037 2269 
C 992 2263 966 2257 966 2208 
C 966 2163 973 2157 1101 2157 
L 1414 2157 
z
" transform="scale(0.015625)"/>
       </defs>
       <use xlink:href="#CMR17-52" transform="scale(0.996264)"/>
       <use xlink:href="#CMR17-33" transform="translate(67.791102 0) scale(0.996264)"/>
      </g>
     </g>
    </g>
    <g id="xtick_4">
     <g id="line2d_7">
      <path d="M 146.699762 306.088647 
L 146.699762 14.259249 
" clip-path="url(#pae1b04a435)" style="fill: none; stroke: #b0b0b0; stroke-width: 0.8; stroke-linecap: square"/>
     </g>
     <g id="line2d_8">
      <g>
       <use xlink:href="#mb7e0c4a02d" x="146.699762" y="306.088647" style="stroke: #000000; stroke-width: 0.8"/>
      </g>
     </g>
     <g id="text_4">
      <!-- R4 -->
      <g transform="translate(140.542287 320.007145) scale(0.1 -0.1)">
       <defs>
        <path id="CMR17-34" d="M 2150 4122 
C 2150 4256 2144 4256 2029 4256 
L 128 1254 
L 128 1088 
L 1779 1088 
L 1779 457 
C 1779 224 1766 160 1318 160 
L 1197 160 
L 1197 0 
C 1402 0 1747 0 1965 0 
C 2182 0 2528 0 2733 0 
L 2733 160 
L 2611 160 
C 2163 160 2150 224 2150 457 
L 2150 1088 
L 2803 1088 
L 2803 1254 
L 2150 1254 
L 2150 4122 
z
M 1798 3703 
L 1798 1254 
L 256 1254 
L 1798 3703 
z
" transform="scale(0.015625)"/>
       </defs>
       <use xlink:href="#CMR17-52" transform="scale(0.996264)"/>
       <use xlink:href="#CMR17-34" transform="translate(67.791102 0) scale(0.996264)"/>
      </g>
     </g>
    </g>
    <g id="xtick_5">
     <g id="line2d_9">
      <path d="M 175.585499 306.088647 
L 175.585499 14.259249 
" clip-path="url(#pae1b04a435)" style="fill: none; stroke: #b0b0b0; stroke-width: 0.8; stroke-linecap: square"/>
     </g>
     <g id="line2d_10">
      <g>
       <use xlink:href="#mb7e0c4a02d" x="175.585499" y="306.088647" style="stroke: #000000; stroke-width: 0.8"/>
      </g>
     </g>
     <g id="text_5">
      <!-- R5 -->
      <g transform="translate(169.428024 320.007145) scale(0.1 -0.1)">
       <defs>
        <path id="CMR17-35" d="M 730 3692 
C 794 3666 1056 3584 1325 3584 
C 1920 3584 2246 3911 2432 4100 
C 2432 4157 2432 4192 2394 4192 
C 2387 4192 2374 4192 2323 4163 
C 2099 4058 1837 3973 1517 3973 
C 1325 3973 1037 3999 723 4139 
C 653 4171 640 4171 634 4171 
C 602 4171 595 4164 595 4037 
L 595 2203 
C 595 2089 595 2057 659 2057 
C 691 2057 704 2070 736 2114 
C 941 2401 1222 2522 1542 2522 
C 1766 2522 2246 2382 2246 1289 
C 2246 1085 2246 715 2054 421 
C 1894 159 1645 25 1370 25 
C 947 25 518 320 403 814 
C 429 807 480 795 506 795 
C 589 795 749 840 749 1038 
C 749 1210 627 1280 506 1280 
C 358 1280 262 1190 262 1011 
C 262 454 704 -128 1382 -128 
C 2042 -128 2669 440 2669 1264 
C 2669 2030 2170 2624 1549 2624 
C 1222 2624 947 2503 730 2274 
L 730 3692 
z
" transform="scale(0.015625)"/>
       </defs>
       <use xlink:href="#CMR17-52" transform="scale(0.996264)"/>
       <use xlink:href="#CMR17-35" transform="translate(67.791102 0) scale(0.996264)"/>
      </g>
     </g>
    </g>
    <g id="xtick_6">
     <g id="line2d_11">
      <path d="M 204.471236 306.088647 
L 204.471236 14.259249 
" clip-path="url(#pae1b04a435)" style="fill: none; stroke: #b0b0b0; stroke-width: 0.8; stroke-linecap: square"/>
     </g>
     <g id="line2d_12">
      <g>
       <use xlink:href="#mb7e0c4a02d" x="204.471236" y="306.088647" style="stroke: #000000; stroke-width: 0.8"/>
      </g>
     </g>
     <g id="text_6">
      <!-- R6 -->
      <g transform="translate(198.313761 320.007145) scale(0.1 -0.1)">
       <defs>
        <path id="CMR17-36" d="M 678 2176 
C 678 3690 1395 4032 1811 4032 
C 1946 4032 2272 4009 2400 3776 
C 2298 3776 2106 3776 2106 3553 
C 2106 3381 2246 3323 2336 3323 
C 2394 3323 2566 3348 2566 3560 
C 2566 3954 2246 4179 1805 4179 
C 1043 4179 243 3390 243 1984 
C 243 253 966 -128 1478 -128 
C 2099 -128 2688 427 2688 1283 
C 2688 2081 2170 2662 1517 2662 
C 1126 2662 838 2407 678 1960 
L 678 2176 
z
M 1478 25 
C 691 25 691 1200 691 1436 
C 691 1896 909 2560 1504 2560 
C 1613 2560 1926 2560 2138 2120 
C 2253 1870 2253 1609 2253 1289 
C 2253 944 2253 690 2118 434 
C 1978 171 1773 25 1478 25 
z
" transform="scale(0.015625)"/>
       </defs>
       <use xlink:href="#CMR17-52" transform="scale(0.996264)"/>
       <use xlink:href="#CMR17-36" transform="translate(67.791102 0) scale(0.996264)"/>
      </g>
     </g>
    </g>
    <g id="xtick_7">
     <g id="line2d_13">
      <path d="M 233.356973 306.088647 
L 233.356973 14.259249 
" clip-path="url(#pae1b04a435)" style="fill: none; stroke: #b0b0b0; stroke-width: 0.8; stroke-linecap: square"/>
     </g>
     <g id="line2d_14">
      <g>
       <use xlink:href="#mb7e0c4a02d" x="233.356973" y="306.088647" style="stroke: #000000; stroke-width: 0.8"/>
      </g>
     </g>
     <g id="text_7">
      <!-- R7 -->
      <g transform="translate(227.199498 320.007145) scale(0.1 -0.1)">
       <defs>
        <path id="CMR17-37" d="M 2886 3941 
L 2886 4081 
L 1382 4081 
C 634 4081 621 4165 595 4288 
L 480 4288 
L 294 3094 
L 410 3094 
C 429 3215 474 3540 550 3661 
C 589 3712 1062 3712 1171 3712 
L 2579 3712 
L 1869 2661 
C 1395 1954 1069 999 1069 165 
C 1069 89 1069 -128 1299 -128 
C 1530 -128 1530 89 1530 171 
L 1530 465 
C 1530 1508 1709 2196 2003 2636 
L 2886 3941 
z
" transform="scale(0.015625)"/>
       </defs>
       <use xlink:href="#CMR17-52" transform="scale(0.996264)"/>
       <use xlink:href="#CMR17-37" transform="translate(67.791102 0) scale(0.996264)"/>
      </g>
     </g>
    </g>
    <g id="xtick_8">
     <g id="line2d_15">
      <path d="M 262.24271 306.088647 
L 262.24271 14.259249 
" clip-path="url(#pae1b04a435)" style="fill: none; stroke: #b0b0b0; stroke-width: 0.8; stroke-linecap: square"/>
     </g>
     <g id="line2d_16">
      <g>
       <use xlink:href="#mb7e0c4a02d" x="262.24271" y="306.088647" style="stroke: #000000; stroke-width: 0.8"/>
      </g>
     </g>
     <g id="text_8">
      <!-- R8 -->
      <g transform="translate(256.085235 320.007145) scale(0.1 -0.1)">
       <defs>
        <path id="CMR17-38" d="M 1741 2264 
C 2144 2467 2554 2773 2554 3263 
C 2554 3841 1990 4179 1472 4179 
C 890 4179 378 3759 378 3180 
C 378 3021 416 2747 666 2505 
C 730 2442 998 2251 1171 2130 
C 883 1983 211 1634 211 934 
C 211 279 838 -128 1459 -128 
C 2144 -128 2720 362 2720 1010 
C 2720 1590 2330 1857 2074 2029 
L 1741 2264 
z
M 902 2822 
C 851 2854 595 3051 595 3351 
C 595 3739 998 4032 1459 4032 
C 1965 4032 2336 3676 2336 3262 
C 2336 2669 1670 2331 1638 2331 
C 1632 2331 1626 2331 1574 2370 
L 902 2822 
z
M 2080 1519 
C 2176 1449 2483 1240 2483 851 
C 2483 381 2010 25 1472 25 
C 890 25 448 438 448 940 
C 448 1443 838 1862 1280 2060 
L 2080 1519 
z
" transform="scale(0.015625)"/>
       </defs>
       <use xlink:href="#CMR17-52" transform="scale(0.996264)"/>
       <use xlink:href="#CMR17-38" transform="translate(67.791102 0) scale(0.996264)"/>
      </g>
     </g>
    </g>
    <g id="xtick_9">
     <g id="line2d_17">
      <path d="M 291.128447 306.088647 
L 291.128447 14.259249 
" clip-path="url(#pae1b04a435)" style="fill: none; stroke: #b0b0b0; stroke-width: 0.8; stroke-linecap: square"/>
     </g>
     <g id="line2d_18">
      <g>
       <use xlink:href="#mb7e0c4a02d" x="291.128447" y="306.088647" style="stroke: #000000; stroke-width: 0.8"/>
      </g>
     </g>
     <g id="text_9">
      <!-- R9 -->
      <g transform="translate(284.970972 320.007145) scale(0.1 -0.1)">
       <defs>
        <path id="CMR17-39" d="M 2253 1864 
C 2253 464 1670 31 1190 31 
C 1043 31 685 31 538 294 
C 704 268 826 357 826 518 
C 826 692 685 749 595 749 
C 538 749 365 723 365 506 
C 365 71 742 -128 1203 -128 
C 1939 -128 2688 674 2688 2073 
C 2688 3817 1971 4179 1485 4179 
C 851 4179 243 3628 243 2778 
C 243 1991 762 1408 1414 1408 
C 1952 1408 2189 1903 2253 2112 
L 2253 1864 
z
M 1427 1510 
C 1254 1510 1011 1542 813 1922 
C 678 2169 678 2461 678 2771 
C 678 3146 678 3405 858 3684 
C 947 3817 1114 4032 1485 4032 
C 2240 4032 2240 2885 2240 2632 
C 2240 2182 2035 1510 1427 1510 
z
" transform="scale(0.015625)"/>
       </defs>
       <use xlink:href="#CMR17-52" transform="scale(0.996264)"/>
       <use xlink:href="#CMR17-39" transform="translate(67.791102 0) scale(0.996264)"/>
      </g>
     </g>
    </g>
    <g id="xtick_10">
     <g id="line2d_19">
      <path d="M 320.014184 306.088647 
L 320.014184 14.259249 
" clip-path="url(#pae1b04a435)" style="fill: none; stroke: #b0b0b0; stroke-width: 0.8; stroke-linecap: square"/>
     </g>
     <g id="line2d_20">
      <g>
       <use xlink:href="#mb7e0c4a02d" x="320.014184" y="306.088647" style="stroke: #000000; stroke-width: 0.8"/>
      </g>
     </g>
     <g id="text_10">
      <!-- R10 -->
      <g transform="translate(311.366042 320.007145) scale(0.1 -0.1)">
       <defs>
        <path id="CMR17-30" d="M 2688 2025 
C 2688 2416 2682 3080 2413 3591 
C 2176 4039 1798 4198 1466 4198 
C 1158 4198 768 4058 525 3597 
C 269 3118 243 2524 243 2025 
C 243 1661 250 1106 448 619 
C 723 -39 1216 -128 1466 -128 
C 1760 -128 2208 -7 2470 600 
C 2662 1042 2688 1559 2688 2025 
z
M 1466 -26 
C 1056 -26 813 325 723 812 
C 653 1188 653 1738 653 2096 
C 653 2588 653 2997 736 3387 
C 858 3929 1216 4096 1466 4096 
C 1728 4096 2067 3923 2189 3400 
C 2272 3036 2278 2607 2278 2096 
C 2278 1680 2278 1169 2202 792 
C 2067 95 1690 -26 1466 -26 
z
" transform="scale(0.015625)"/>
       </defs>
       <use xlink:href="#CMR17-52" transform="scale(0.996264)"/>
       <use xlink:href="#CMR17-31" transform="translate(67.791102 0) scale(0.996264)"/>
       <use xlink:href="#CMR17-30" transform="translate(113.481579 0) scale(0.996264)"/>
      </g>
     </g>
    </g>
    <g id="xtick_11">
     <g id="line2d_21">
      <path d="M 348.899921 306.088647 
L 348.899921 14.259249 
" clip-path="url(#pae1b04a435)" style="fill: none; stroke: #b0b0b0; stroke-width: 0.8; stroke-linecap: square"/>
     </g>
     <g id="line2d_22">
      <g>
       <use xlink:href="#mb7e0c4a02d" x="348.899921" y="306.088647" style="stroke: #000000; stroke-width: 0.8"/>
      </g>
     </g>
     <g id="text_11">
      <!-- F1 -->
      <g transform="translate(343.157546 320.007145) scale(0.1 -0.1)">
       <defs>
        <path id="CMR17-46" d="M 3482 4325 
L 326 4325 
L 326 4160 
C 768 4160 838 4160 838 3874 
L 838 446 
C 838 160 768 160 326 160 
L 326 0 
C 512 0 870 0 1069 0 
C 1331 0 1638 0 1901 0 
L 1901 160 
L 1760 160 
C 1274 160 1261 223 1261 452 
L 1261 2075 
L 1837 2075 
C 2432 2075 2490 1865 2490 1332 
L 2605 1332 
L 2605 2987 
L 2490 2987 
C 2490 2450 2432 2240 1837 2240 
L 1261 2240 
L 1261 3911 
C 1261 4128 1274 4160 1530 4160 
L 2355 4160 
C 3322 4160 3430 3765 3520 2916 
L 3635 2916 
L 3482 4325 
z
" transform="scale(0.015625)"/>
       </defs>
       <use xlink:href="#CMR17-46" transform="scale(0.996264)"/>
       <use xlink:href="#CMR17-31" transform="translate(59.983847 0) scale(0.996264)"/>
      </g>
     </g>
    </g>
    <g id="xtick_12">
     <g id="line2d_23">
      <path d="M 377.785658 306.088647 
L 377.785658 14.259249 
" clip-path="url(#pae1b04a435)" style="fill: none; stroke: #b0b0b0; stroke-width: 0.8; stroke-linecap: square"/>
     </g>
     <g id="line2d_24">
      <g>
       <use xlink:href="#mb7e0c4a02d" x="377.785658" y="306.088647" style="stroke: #000000; stroke-width: 0.8"/>
      </g>
     </g>
     <g id="text_12">
      <!-- F2 -->
      <g transform="translate(372.043283 320.007145) scale(0.1 -0.1)">
       <use xlink:href="#CMR17-46" transform="scale(0.996264)"/>
       <use xlink:href="#CMR17-32" transform="translate(59.983847 0) scale(0.996264)"/>
      </g>
     </g>
    </g>
    <g id="xtick_13">
     <g id="line2d_25">
      <path d="M 406.671395 306.088647 
L 406.671395 14.259249 
" clip-path="url(#pae1b04a435)" style="fill: none; stroke: #b0b0b0; stroke-width: 0.8; stroke-linecap: square"/>
     </g>
     <g id="line2d_26">
      <g>
       <use xlink:href="#mb7e0c4a02d" x="406.671395" y="306.088647" style="stroke: #000000; stroke-width: 0.8"/>
      </g>
     </g>
     <g id="text_13">
      <!-- F3 -->
      <g transform="translate(400.92902 320.007145) scale(0.1 -0.1)">
       <use xlink:href="#CMR17-46" transform="scale(0.996264)"/>
       <use xlink:href="#CMR17-33" transform="translate(59.983847 0) scale(0.996264)"/>
      </g>
     </g>
    </g>
    <g id="xtick_14">
     <g id="line2d_27">
      <path d="M 435.557132 306.088647 
L 435.557132 14.259249 
" clip-path="url(#pae1b04a435)" style="fill: none; stroke: #b0b0b0; stroke-width: 0.8; stroke-linecap: square"/>
     </g>
     <g id="line2d_28">
      <g>
       <use xlink:href="#mb7e0c4a02d" x="435.557132" y="306.088647" style="stroke: #000000; stroke-width: 0.8"/>
      </g>
     </g>
     <g id="text_14">
      <!-- F4 -->
      <g transform="translate(429.814757 320.007145) scale(0.1 -0.1)">
       <use xlink:href="#CMR17-46" transform="scale(0.996264)"/>
       <use xlink:href="#CMR17-34" transform="translate(59.983847 0) scale(0.996264)"/>
      </g>
     </g>
    </g>
    <g id="text_15">
     <!-- Roll Pass -->
     <g transform="translate(227.542448 332.862822) scale(0.1 -0.1)">
      <defs>
       <path id="CMR17-6f" d="M 2758 1356 
C 2758 2176 2163 2816 1466 2816 
C 768 2816 173 2176 173 1356 
C 173 551 768 -64 1466 -64 
C 2163 -64 2758 551 2758 1356 
z
M 1466 51 
C 1165 51 909 230 762 480 
C 602 767 582 1126 582 1408 
C 582 1677 595 2010 762 2298 
C 890 2509 1139 2714 1466 2714 
C 1754 2714 1997 2554 2150 2330 
C 2349 2029 2349 1607 2349 1408 
C 2349 1158 2336 775 2163 467 
C 1984 173 1709 51 1466 51 
z
" transform="scale(0.015625)"/>
       <path id="CMR17-6c" d="M 979 4396 
L 218 4326 
L 218 4160 
C 595 4160 653 4122 653 3817 
L 653 426 
C 653 184 627 153 218 153 
L 218 -13 
C 371 0 653 0 813 0 
C 979 0 1261 0 1414 -13 
L 1414 153 
C 1005 153 979 178 979 426 
L 979 4396 
z
" transform="scale(0.015625)"/>
       <path id="CMR17-50" d="M 1267 2042 
L 2291 2042 
C 3117 2042 3718 2578 3718 3184 
C 3718 3791 3130 4352 2291 4352 
L 333 4352 
L 333 4186 
C 774 4186 845 4186 845 3899 
L 845 446 
C 845 160 774 160 333 160 
L 333 0 
C 518 0 858 0 1056 0 
C 1254 0 1594 0 1779 0 
L 1779 160 
C 1338 160 1267 160 1267 446 
L 1267 2042 
z
M 1254 2176 
L 1254 3938 
C 1254 4155 1267 4186 1523 4186 
L 2170 4186 
C 2995 4186 3232 3714 3232 3184 
C 3232 2604 2950 2176 2170 2176 
L 1254 2176 
z
" transform="scale(0.015625)"/>
       <path id="CMR17-61" d="M 2304 1653 
C 2304 2072 2304 2294 2035 2543 
C 1798 2752 1523 2816 1306 2816 
C 800 2816 435 2407 435 1971 
C 435 1728 627 1728 666 1728 
C 749 1728 896 1778 896 1954 
C 896 2112 774 2181 666 2181 
C 640 2181 608 2174 589 2168 
C 723 2592 1069 2714 1293 2714 
C 1613 2714 1965 2429 1965 1885 
L 1965 1600 
C 1587 1600 1133 1549 774 1357 
C 371 1133 256 813 256 570 
C 256 77 832 -64 1171 -64 
C 1523 -64 1850 139 1990 511 
C 2003 233 2182 -18 2464 -18 
C 2598 -18 2938 70 2938 567 
L 2938 920 
L 2822 920 
L 2822 562 
C 2822 178 2650 128 2566 128 
C 2304 128 2304 458 2304 738 
L 2304 1653 
z
M 1965 870 
C 1965 317 1568 38 1216 38 
C 896 38 646 275 646 570 
C 646 761 730 1100 1101 1305 
C 1408 1478 1760 1504 1965 1504 
L 1965 870 
z
" transform="scale(0.015625)"/>
       <path id="CMR17-73" d="M 1978 2697 
C 1978 2813 1971 2819 1933 2819 
C 1907 2819 1901 2813 1824 2717 
C 1805 2691 1747 2626 1728 2601 
C 1523 2819 1235 2819 1126 2819 
C 416 2819 160 2447 160 2076 
C 160 1498 813 1365 998 1325 
C 1402 1243 1542 1217 1677 1101 
C 1760 1025 1901 884 1901 654 
C 1901 384 1747 38 1158 38 
C 602 38 403 460 288 1021 
C 269 1110 269 1117 218 1117 
C 166 1117 160 1110 160 983 
L 160 63 
C 160 -51 166 -58 205 -58 
C 237 -58 243 -51 275 0 
C 314 57 410 211 448 276 
C 576 103 800 -64 1158 -64 
C 1792 -64 2131 283 2131 784 
C 2131 1112 1958 1285 1875 1362 
C 1683 1561 1459 1606 1190 1657 
C 838 1735 390 1825 390 2217 
C 390 2383 480 2737 1126 2737 
C 1811 2737 1850 2094 1862 1888 
C 1869 1856 1901 1849 1920 1849 
C 1978 1849 1978 1869 1978 1978 
L 1978 2697 
z
" transform="scale(0.015625)"/>
      </defs>
      <use xlink:href="#CMR17-52" transform="scale(0.996264)"/>
      <use xlink:href="#CMR17-6f" transform="translate(67.791102 0) scale(0.996264)"/>
      <use xlink:href="#CMR17-6c" transform="translate(113.481579 0) scale(0.996264)"/>
      <use xlink:href="#CMR17-6c" transform="translate(138.352638 0) scale(0.996264)"/>
      <use xlink:href="#CMR17-50" transform="translate(193.299662 0) scale(0.996264)"/>
      <use xlink:href="#CMR17-61" transform="translate(253.283509 0) scale(0.996264)"/>
      <use xlink:href="#CMR17-73" transform="translate(298.973986 0) scale(0.996264)"/>
      <use xlink:href="#CMR17-73" transform="translate(334.775324 0) scale(0.996264)"/>
     </g>
    </g>
   </g>
   <g id="matplotlib.axis_2">
    <g id="ytick_1">
     <g id="line2d_29">
      <path d="M 45.599682 306.088647 
L 450 306.088647 
" clip-path="url(#pae1b04a435)" style="fill: none; stroke: #b0b0b0; stroke-width: 0.8; stroke-linecap: square"/>
     </g>
     <g id="line2d_30">
      <defs>
       <path id="mf375a41f99" d="M 0 0 
L -3.5 0 
" style="stroke: #000000; stroke-width: 0.8"/>
      </defs>
      <g>
       <use xlink:href="#mf375a41f99" x="45.599682" y="306.088647" style="stroke: #000000; stroke-width: 0.8"/>
      </g>
     </g>
     <g id="text_16">
      <!-- $\mathdefault{0}$ -->
      <g transform="translate(33.618347 309.547896) scale(0.1 -0.1)">
       <use xlink:href="#CMR17-30" transform="scale(0.996264)"/>
      </g>
     </g>
    </g>
    <g id="ytick_2">
     <g id="line2d_31">
      <path d="M 45.599682 269.609972 
L 450 269.609972 
" clip-path="url(#pae1b04a435)" style="fill: none; stroke: #b0b0b0; stroke-width: 0.8; stroke-linecap: square"/>
     </g>
     <g id="line2d_32">
      <g>
       <use xlink:href="#mf375a41f99" x="45.599682" y="269.609972" style="stroke: #000000; stroke-width: 0.8"/>
      </g>
     </g>
     <g id="text_17">
      <!-- $\mathdefault{50}$ -->
      <g transform="translate(28.637012 273.069221) scale(0.1 -0.1)">
       <use xlink:href="#CMR17-35" transform="scale(0.996264)"/>
       <use xlink:href="#CMR17-30" transform="translate(45.690477 0) scale(0.996264)"/>
      </g>
     </g>
    </g>
    <g id="ytick_3">
     <g id="line2d_33">
      <path d="M 45.599682 233.131297 
L 450 233.131297 
" clip-path="url(#pae1b04a435)" style="fill: none; stroke: #b0b0b0; stroke-width: 0.8; stroke-linecap: square"/>
     </g>
     <g id="line2d_34">
      <g>
       <use xlink:href="#mf375a41f99" x="45.599682" y="233.131297" style="stroke: #000000; stroke-width: 0.8"/>
      </g>
     </g>
     <g id="text_18">
      <!-- $\mathdefault{100}$ -->
      <g transform="translate(23.655677 236.590546) scale(0.1 -0.1)">
       <use xlink:href="#CMR17-31" transform="scale(0.996264)"/>
       <use xlink:href="#CMR17-30" transform="translate(45.690477 0) scale(0.996264)"/>
       <use xlink:href="#CMR17-30" transform="translate(91.380954 0) scale(0.996264)"/>
      </g>
     </g>
    </g>
    <g id="ytick_4">
     <g id="line2d_35">
      <path d="M 45.599682 196.652623 
L 450 196.652623 
" clip-path="url(#pae1b04a435)" style="fill: none; stroke: #b0b0b0; stroke-width: 0.8; stroke-linecap: square"/>
     </g>
     <g id="line2d_36">
      <g>
       <use xlink:href="#mf375a41f99" x="45.599682" y="196.652623" style="stroke: #000000; stroke-width: 0.8"/>
      </g>
     </g>
     <g id="text_19">
      <!-- $\mathdefault{150}$ -->
      <g transform="translate(23.655677 200.111872) scale(0.1 -0.1)">
       <use xlink:href="#CMR17-31" transform="scale(0.996264)"/>
       <use xlink:href="#CMR17-35" transform="translate(45.690477 0) scale(0.996264)"/>
       <use xlink:href="#CMR17-30" transform="translate(91.380954 0) scale(0.996264)"/>
      </g>
     </g>
    </g>
    <g id="ytick_5">
     <g id="line2d_37">
      <path d="M 45.599682 160.173948 
L 450 160.173948 
" clip-path="url(#pae1b04a435)" style="fill: none; stroke: #b0b0b0; stroke-width: 0.8; stroke-linecap: square"/>
     </g>
     <g id="line2d_38">
      <g>
       <use xlink:href="#mf375a41f99" x="45.599682" y="160.173948" style="stroke: #000000; stroke-width: 0.8"/>
      </g>
     </g>
     <g id="text_20">
      <!-- $\mathdefault{200}$ -->
      <g transform="translate(23.655677 163.633197) scale(0.1 -0.1)">
       <use xlink:href="#CMR17-32" transform="scale(0.996264)"/>
       <use xlink:href="#CMR17-30" transform="translate(45.690477 0) scale(0.996264)"/>
       <use xlink:href="#CMR17-30" transform="translate(91.380954 0) scale(0.996264)"/>
      </g>
     </g>
    </g>
    <g id="ytick_6">
     <g id="line2d_39">
      <path d="M 45.599682 123.695273 
L 450 123.695273 
" clip-path="url(#pae1b04a435)" style="fill: none; stroke: #b0b0b0; stroke-width: 0.8; stroke-linecap: square"/>
     </g>
     <g id="line2d_40">
      <g>
       <use xlink:href="#mf375a41f99" x="45.599682" y="123.695273" style="stroke: #000000; stroke-width: 0.8"/>
      </g>
     </g>
     <g id="text_21">
      <!-- $\mathdefault{250}$ -->
      <g transform="translate(23.655677 127.154522) scale(0.1 -0.1)">
       <use xlink:href="#CMR17-32" transform="scale(0.996264)"/>
       <use xlink:href="#CMR17-35" transform="translate(45.690477 0) scale(0.996264)"/>
       <use xlink:href="#CMR17-30" transform="translate(91.380954 0) scale(0.996264)"/>
      </g>
     </g>
    </g>
    <g id="ytick_7">
     <g id="line2d_41">
      <path d="M 45.599682 87.216599 
L 450 87.216599 
" clip-path="url(#pae1b04a435)" style="fill: none; stroke: #b0b0b0; stroke-width: 0.8; stroke-linecap: square"/>
     </g>
     <g id="line2d_42">
      <g>
       <use xlink:href="#mf375a41f99" x="45.599682" y="87.216599" style="stroke: #000000; stroke-width: 0.8"/>
      </g>
     </g>
     <g id="text_22">
      <!-- $\mathdefault{300}$ -->
      <g transform="translate(23.655677 90.675848) scale(0.1 -0.1)">
       <use xlink:href="#CMR17-33" transform="scale(0.996264)"/>
       <use xlink:href="#CMR17-30" transform="translate(45.690477 0) scale(0.996264)"/>
       <use xlink:href="#CMR17-30" transform="translate(91.380954 0) scale(0.996264)"/>
      </g>
     </g>
    </g>
    <g id="ytick_8">
     <g id="line2d_43">
      <path d="M 45.599682 50.737924 
L 450 50.737924 
" clip-path="url(#pae1b04a435)" style="fill: none; stroke: #b0b0b0; stroke-width: 0.8; stroke-linecap: square"/>
     </g>
     <g id="line2d_44">
      <g>
       <use xlink:href="#mf375a41f99" x="45.599682" y="50.737924" style="stroke: #000000; stroke-width: 0.8"/>
      </g>
     </g>
     <g id="text_23">
      <!-- $\mathdefault{350}$ -->
      <g transform="translate(23.655677 54.197173) scale(0.1 -0.1)">
       <use xlink:href="#CMR17-33" transform="scale(0.996264)"/>
       <use xlink:href="#CMR17-35" transform="translate(45.690477 0) scale(0.996264)"/>
       <use xlink:href="#CMR17-30" transform="translate(91.380954 0) scale(0.996264)"/>
      </g>
     </g>
    </g>
    <g id="ytick_9">
     <g id="line2d_45">
      <path d="M 45.599682 14.259249 
L 450 14.259249 
" clip-path="url(#pae1b04a435)" style="fill: none; stroke: #b0b0b0; stroke-width: 0.8; stroke-linecap: square"/>
     </g>
     <g id="line2d_46">
      <g>
       <use xlink:href="#mf375a41f99" x="45.599682" y="14.259249" style="stroke: #000000; stroke-width: 0.8"/>
      </g>
     </g>
     <g id="text_24">
      <!-- $\mathdefault{400}$ -->
      <g transform="translate(23.655677 17.718498) scale(0.1 -0.1)">
       <use xlink:href="#CMR17-34" transform="scale(0.996264)"/>
       <use xlink:href="#CMR17-30" transform="translate(45.690477 0) scale(0.996264)"/>
       <use xlink:href="#CMR17-30" transform="translate(91.380954 0) scale(0.996264)"/>
      </g>
     </g>
    </g>
    <g id="text_25">
     <!-- Roll Force $\RollForce$ in \unit{\kilo\newton} -->
     <g transform="translate(17.718498 205.481545) rotate(-90) scale(0.1 -0.1)">
      <defs>
       <path id="CMR17-72" d="M 960 1497 
C 960 2112 1222 2688 1702 2688 
C 1747 2688 1792 2682 1837 2662 
C 1837 2662 1696 2617 1696 2452 
C 1696 2298 1818 2234 1914 2234 
C 1990 2234 2131 2279 2131 2458 
C 2131 2663 1926 2790 1709 2790 
C 1222 2790 1011 2317 947 2093 
L 941 2093 
L 941 2790 
L 198 2720 
L 198 2554 
C 576 2554 634 2515 634 2208 
L 634 428 
C 634 184 608 153 198 153 
L 198 -13 
C 352 0 646 0 813 0 
C 998 0 1325 0 1498 -13 
L 1498 153 
C 1037 153 960 153 960 440 
L 960 1497 
z
" transform="scale(0.015625)"/>
       <path id="CMR17-63" d="M 2234 2240 
C 2112 2240 1933 2240 1933 2017 
C 1933 1838 2080 1787 2163 1787 
C 2208 1787 2394 1807 2394 2024 
C 2394 2467 1958 2803 1466 2803 
C 787 2803 211 2178 211 1363 
C 211 516 813 -64 1466 -64 
C 2259 -64 2458 677 2458 748 
C 2458 774 2451 793 2406 793 
C 2362 793 2355 787 2330 703 
C 2163 180 1798 51 1523 51 
C 1114 51 621 427 621 1369 
C 621 2338 1094 2688 1472 2688 
C 1722 2688 2093 2573 2234 2240 
z
" transform="scale(0.015625)"/>
       <path id="CMR17-65" d="M 2438 1472 
C 2464 1498 2464 1511 2464 1576 
C 2464 2238 2118 2816 1389 2816 
C 710 2816 173 2169 173 1383 
C 173 551 781 -64 1459 -64 
C 2176 -64 2458 607 2458 740 
C 2458 784 2419 784 2406 784 
C 2362 784 2355 771 2330 696 
C 2189 265 1837 51 1504 51 
C 1229 51 954 203 781 480 
C 582 803 582 1176 582 1472 
L 2438 1472 
z
M 589 1568 
C 634 2505 1126 2714 1382 2714 
C 1818 2714 2112 2297 2118 1568 
L 589 1568 
z
" transform="scale(0.015625)"/>
       <path id="CMMI12-46" d="M 1901 2055 
L 2515 2055 
C 3002 2055 3040 1946 3040 1761 
C 3040 1678 3027 1589 2995 1448 
C 2982 1423 2976 1391 2976 1378 
C 2976 1333 3002 1308 3046 1308 
C 3098 1308 3104 1333 3130 1435 
L 3501 2935 
C 3501 2961 3482 2999 3437 2999 
C 3379 2999 3373 2974 3347 2863 
C 3213 2376 3085 2240 2528 2240 
L 1946 2240 
L 2362 3926 
C 2419 4154 2432 4154 2694 4154 
L 3552 4154 
C 4352 4154 4467 3918 4467 3464 
C 4467 3426 4467 3285 4448 3119 
C 4442 3094 4429 3011 4429 2985 
C 4429 2934 4461 2915 4499 2915 
C 4544 2915 4570 2941 4582 3055 
L 4717 4174 
C 4717 4195 4730 4263 4730 4277 
C 4730 4352 4672 4352 4557 4352 
L 1523 4352 
C 1402 4352 1338 4352 1338 4229 
C 1338 4154 1382 4154 1491 4154 
C 1888 4154 1888 4113 1888 4050 
C 1888 4018 1882 3992 1862 3922 
L 998 473 
C 941 249 928 185 480 185 
C 358 185 294 185 294 70 
C 294 0 352 0 390 0 
C 512 0 640 0 762 0 
L 1594 0 
C 1734 0 1888 0 2029 0 
C 2086 0 2163 0 2163 115 
C 2163 185 2125 185 1984 185 
C 1478 185 1466 229 1466 324 
C 1466 356 1478 406 1491 449 
L 1901 2055 
z
" transform="scale(0.015625)"/>
       <path id="CMR17-57" d="M 5523 3764 
C 5581 3936 5677 4160 6048 4160 
L 6048 4326 
C 5939 4326 5715 4326 5600 4326 
C 5440 4326 5158 4326 5005 4332 
L 5005 4160 
C 5293 4160 5414 4000 5414 3847 
C 5414 3802 5408 3777 5382 3707 
L 4390 555 
L 3347 3873 
C 3328 3937 3322 3963 3322 3988 
C 3322 4160 3603 4160 3725 4160 
L 3725 4326 
C 3539 4326 3219 4326 3021 4326 
C 2861 4326 2573 4326 2426 4332 
L 2426 4160 
C 2720 4160 2797 4141 2861 4027 
C 2886 3969 2989 3638 2989 3619 
C 2989 3593 2976 3555 2970 3536 
L 2029 561 
L 986 3867 
C 954 3957 954 3969 954 3982 
C 954 4160 1235 4160 1363 4160 
L 1363 4326 
C 1178 4326 858 4326 659 4326 
C 493 4326 211 4326 58 4332 
L 58 4160 
C 442 4160 467 4122 531 3918 
L 1779 -20 
C 1811 -115 1811 -128 1869 -128 
C 1920 -128 1939 -115 1965 -26 
L 3053 3433 
L 4141 -26 
C 4166 -115 4186 -128 4237 -128 
C 4294 -128 4294 -115 4326 -20 
L 5523 3764 
z
" transform="scale(0.015625)"/>
       <path id="CMR17-69" d="M 992 3909 
C 992 4049 877 4170 730 4170 
C 589 4170 467 4056 467 3909 
C 467 3769 582 3648 730 3648 
C 870 3648 992 3763 992 3909 
z
M 243 2706 
L 243 2541 
C 602 2541 653 2502 653 2197 
L 653 427 
C 653 184 627 153 218 153 
L 218 -13 
C 371 0 646 0 806 0 
C 960 0 1222 0 1370 -13 
L 1370 153 
C 992 153 979 191 979 420 
L 979 2776 
L 243 2706 
z
" transform="scale(0.015625)"/>
       <path id="CMR17-6e" d="M 2656 1933 
C 2656 2259 2592 2790 1837 2790 
C 1331 2790 1069 2400 973 2144 
L 966 2144 
L 966 2790 
L 211 2720 
L 211 2554 
C 589 2554 646 2515 646 2208 
L 646 428 
C 646 184 621 153 211 153 
L 211 -13 
C 365 0 646 0 813 0 
C 979 0 1267 0 1421 -13 
L 1421 153 
C 1011 153 986 178 986 428 
L 986 1658 
C 986 2247 1344 2688 1792 2688 
C 2266 2688 2317 2266 2317 1958 
L 2317 428 
C 2317 184 2291 153 1882 153 
L 1882 -13 
C 2035 0 2317 0 2483 0 
C 2650 0 2938 0 3091 -13 
L 3091 153 
C 2682 153 2656 178 2656 428 
L 2656 1933 
z
" transform="scale(0.015625)"/>
       <path id="CMR17-6b" d="M 1670 1673 
C 1664 1686 1632 1724 1632 1743 
C 1632 1756 2086 2171 2144 2222 
C 2509 2528 2739 2560 2906 2560 
L 2906 2733 
C 2867 2733 2854 2733 2848 2720 
L 2534 2720 
C 2355 2720 2080 2720 1907 2733 
L 1907 2566 
C 1997 2559 2061 2508 2061 2419 
C 2061 2291 1933 2170 1926 2170 
L 960 1289 
L 960 4396 
L 198 4326 
L 198 4160 
C 576 4160 634 4122 634 3817 
L 634 426 
C 634 184 608 153 198 153 
L 198 -13 
C 352 0 634 0 794 0 
C 954 0 1235 0 1389 -13 
L 1389 153 
C 979 153 954 178 954 428 
L 954 1130 
L 1395 1532 
L 2042 574 
C 2118 459 2182 369 2182 286 
C 2182 172 2067 153 1990 153 
L 1990 -13 
C 2144 0 2419 0 2579 0 
C 2694 0 2931 0 3040 0 
L 3040 153 
C 2739 153 2669 210 2477 491 
L 1670 1673 
z
" transform="scale(0.015625)"/>
       <path id="CMR17-4e" d="M 1312 4250 
C 1267 4320 1261 4320 1139 4320 
L 326 4320 
L 326 4160 
L 448 4160 
C 704 4160 819 4129 838 4122 
L 838 610 
C 838 451 838 153 326 153 
L 326 -13 
C 474 0 742 0 902 0 
C 1062 0 1331 0 1478 -13 
L 1478 153 
C 966 153 966 451 966 610 
L 966 4033 
C 1011 3995 1011 3982 1056 3919 
L 3430 76 
C 3475 0 3494 0 3526 0 
C 3590 0 3590 19 3590 139 
L 3590 3705 
C 3590 3863 3590 4160 4102 4160 
L 4102 4326 
C 3955 4320 3686 4320 3526 4320 
C 3366 4320 3098 4320 2950 4326 
L 2950 4160 
C 3462 4160 3462 3862 3462 3703 
L 3462 763 
L 1312 4250 
z
" transform="scale(0.015625)"/>
      </defs>
      <use xlink:href="#CMR17-52" transform="scale(0.996264)"/>
      <use xlink:href="#CMR17-6f" transform="translate(67.791102 0) scale(0.996264)"/>
      <use xlink:href="#CMR17-6c" transform="translate(113.481579 0) scale(0.996264)"/>
      <use xlink:href="#CMR17-6c" transform="translate(138.352638 0) scale(0.996264)"/>
      <use xlink:href="#CMR17-46" transform="translate(193.299662 0) scale(0.996264)"/>
      <use xlink:href="#CMR17-6f" transform="translate(245.476254 0) scale(0.996264)"/>
      <use xlink:href="#CMR17-72" transform="translate(291.166731 0) scale(0.996264)"/>
      <use xlink:href="#CMR17-63" transform="translate(326.447499 0) scale(0.996264)"/>
      <use xlink:href="#CMR17-65" transform="translate(366.933159 0) scale(0.996264)"/>
      <use xlink:href="#CMMI12-46" transform="translate(437.494786 0) scale(0.996264)"/>
      <use xlink:href="#CMR17-57" transform="translate(500.64299 -14.943915) scale(0.697382)"/>
      <use xlink:href="#CMR17-69" transform="translate(598.695261 0) scale(0.996264)"/>
      <use xlink:href="#CMR17-6e" transform="translate(623.56632 0) scale(0.996264)"/>
      <use xlink:href="#CMR17-6b" transform="translate(704.537656 0) scale(0.996264)"/>
      <use xlink:href="#CMR17-4e" transform="translate(752.830572 0) scale(0.996264)"/>
     </g>
    </g>
   </g>
   <g id="patch_17">
    <path d="M 52.821117 99.525949 
L 67.263985 99.525949 
L 67.263985 87.261048 
L 52.821117 87.261048 
L 52.821117 99.525949 
z
" clip-path="url(#pae1b04a435)" style="fill: #2ca02c; fill-opacity: 0.5; stroke: #000000; stroke-linejoin: miter"/>
   </g>
   <g id="line2d_47">
    <path d="M 60.042551 99.525949 
L 60.042551 114.854741 
" clip-path="url(#pae1b04a435)" style="fill: none; stroke: #000000; stroke-linecap: square"/>
   </g>
   <g id="line2d_48">
    <path d="M 60.042551 87.261048 
L 60.042551 71.322184 
" clip-path="url(#pae1b04a435)" style="fill: none; stroke: #000000; stroke-linecap: square"/>
   </g>
   <g id="line2d_49">
    <path d="M 56.431834 114.854741 
L 63.653268 114.854741 
" clip-path="url(#pae1b04a435)" style="fill: none; stroke: #000000; stroke-linecap: square"/>
   </g>
   <g id="line2d_50">
    <path d="M 56.431834 71.322184 
L 63.653268 71.322184 
" clip-path="url(#pae1b04a435)" style="fill: none; stroke: #000000; stroke-linecap: square"/>
   </g>
   <g id="line2d_51">
    <defs>
     <path id="mc33e9136fe" d="M -2 0 
L 2 0 
M 0 2 
L 0 -2 
" style="stroke: #000000"/>
    </defs>
    <g clip-path="url(#pae1b04a435)">
     <use xlink:href="#mc33e9136fe" x="60.042551" y="121.615015" style="fill-opacity: 0; stroke: #000000"/>
     <use xlink:href="#mc33e9136fe" x="60.042551" y="119.212394" style="fill-opacity: 0; stroke: #000000"/>
     <use xlink:href="#mc33e9136fe" x="60.042551" y="68.549924" style="fill-opacity: 0; stroke: #000000"/>
     <use xlink:href="#mc33e9136fe" x="60.042551" y="64.724189" style="fill-opacity: 0; stroke: #000000"/>
     <use xlink:href="#mc33e9136fe" x="60.042551" y="68.196398" style="fill-opacity: 0; stroke: #000000"/>
    </g>
   </g>
   <g id="patch_18">
    <path d="M 81.706854 185.655176 
L 96.149722 185.655176 
L 96.149722 179.176745 
L 81.706854 179.176745 
L 81.706854 185.655176 
z
" clip-path="url(#pae1b04a435)" style="fill: #2ca02c; fill-opacity: 0.5; stroke: #000000; stroke-linejoin: miter"/>
   </g>
   <g id="line2d_52">
    <path d="M 88.928288 185.655176 
L 88.928288 193.729042 
" clip-path="url(#pae1b04a435)" style="fill: none; stroke: #000000; stroke-linecap: square"/>
   </g>
   <g id="line2d_53">
    <path d="M 88.928288 179.176745 
L 88.928288 169.84328 
" clip-path="url(#pae1b04a435)" style="fill: none; stroke: #000000; stroke-linecap: square"/>
   </g>
   <g id="line2d_54">
    <path d="M 85.317571 193.729042 
L 92.539005 193.729042 
" clip-path="url(#pae1b04a435)" style="fill: none; stroke: #000000; stroke-linecap: square"/>
   </g>
   <g id="line2d_55">
    <path d="M 85.317571 169.84328 
L 92.539005 169.84328 
" clip-path="url(#pae1b04a435)" style="fill: none; stroke: #000000; stroke-linecap: square"/>
   </g>
   <g id="line2d_56">
    <g clip-path="url(#pae1b04a435)">
     <use xlink:href="#mc33e9136fe" x="88.928288" y="197.344513" style="fill-opacity: 0; stroke: #000000"/>
     <use xlink:href="#mc33e9136fe" x="88.928288" y="196.018302" style="fill-opacity: 0; stroke: #000000"/>
     <use xlink:href="#mc33e9136fe" x="88.928288" y="167.558567" style="fill-opacity: 0; stroke: #000000"/>
     <use xlink:href="#mc33e9136fe" x="88.928288" y="169.39509" style="fill-opacity: 0; stroke: #000000"/>
    </g>
   </g>
   <g id="patch_19">
    <path d="M 110.592591 110.766577 
L 125.035459 110.766577 
L 125.035459 103.92395 
L 110.592591 103.92395 
L 110.592591 110.766577 
z
" clip-path="url(#pae1b04a435)" style="fill: #2ca02c; fill-opacity: 0.5; stroke: #000000; stroke-linejoin: miter"/>
   </g>
   <g id="line2d_57">
    <path d="M 117.814025 110.766577 
L 117.814025 118.864008 
" clip-path="url(#pae1b04a435)" style="fill: none; stroke: #000000; stroke-linecap: square"/>
   </g>
   <g id="line2d_58">
    <path d="M 117.814025 103.92395 
L 117.814025 94.804036 
" clip-path="url(#pae1b04a435)" style="fill: none; stroke: #000000; stroke-linecap: square"/>
   </g>
   <g id="line2d_59">
    <path d="M 114.203308 118.864008 
L 121.424742 118.864008 
" clip-path="url(#pae1b04a435)" style="fill: none; stroke: #000000; stroke-linecap: square"/>
   </g>
   <g id="line2d_60">
    <path d="M 114.203308 94.804036 
L 121.424742 94.804036 
" clip-path="url(#pae1b04a435)" style="fill: none; stroke: #000000; stroke-linecap: square"/>
   </g>
   <g id="line2d_61">
    <g clip-path="url(#pae1b04a435)">
     <use xlink:href="#mc33e9136fe" x="117.814025" y="122.437762" style="fill-opacity: 0; stroke: #000000"/>
     <use xlink:href="#mc33e9136fe" x="117.814025" y="92.240018" style="fill-opacity: 0; stroke: #000000"/>
     <use xlink:href="#mc33e9136fe" x="117.814025" y="92.976621" style="fill-opacity: 0; stroke: #000000"/>
    </g>
   </g>
   <g id="patch_20">
    <path d="M 139.478328 216.827252 
L 153.921196 216.827252 
L 153.921196 214.145258 
L 139.478328 214.145258 
L 139.478328 216.827252 
z
" clip-path="url(#pae1b04a435)" style="fill: #2ca02c; fill-opacity: 0.5; stroke: #000000; stroke-linejoin: miter"/>
   </g>
   <g id="line2d_62">
    <path d="M 146.699762 216.827252 
L 146.699762 219.978116 
" clip-path="url(#pae1b04a435)" style="fill: none; stroke: #000000; stroke-linecap: square"/>
   </g>
   <g id="line2d_63">
    <path d="M 146.699762 214.145258 
L 146.699762 210.699391 
" clip-path="url(#pae1b04a435)" style="fill: none; stroke: #000000; stroke-linecap: square"/>
   </g>
   <g id="line2d_64">
    <path d="M 143.089045 219.978116 
L 150.310479 219.978116 
" clip-path="url(#pae1b04a435)" style="fill: none; stroke: #000000; stroke-linecap: square"/>
   </g>
   <g id="line2d_65">
    <path d="M 143.089045 210.699391 
L 150.310479 210.699391 
" clip-path="url(#pae1b04a435)" style="fill: none; stroke: #000000; stroke-linecap: square"/>
   </g>
   <g id="line2d_66">
    <g clip-path="url(#pae1b04a435)">
     <use xlink:href="#mc33e9136fe" x="146.699762" y="209.429991" style="fill-opacity: 0; stroke: #000000"/>
    </g>
   </g>
   <g id="patch_21">
    <path d="M 168.364065 182.29679 
L 182.806933 182.29679 
L 182.806933 178.946297 
L 168.364065 178.946297 
L 168.364065 182.29679 
z
" clip-path="url(#pae1b04a435)" style="fill: #2ca02c; fill-opacity: 0.5; stroke: #000000; stroke-linejoin: miter"/>
   </g>
   <g id="line2d_67">
    <path d="M 175.585499 182.29679 
L 175.585499 186.214394 
" clip-path="url(#pae1b04a435)" style="fill: none; stroke: #000000; stroke-linecap: square"/>
   </g>
   <g id="line2d_68">
    <path d="M 175.585499 178.946297 
L 175.585499 174.640535 
" clip-path="url(#pae1b04a435)" style="fill: none; stroke: #000000; stroke-linecap: square"/>
   </g>
   <g id="line2d_69">
    <path d="M 171.974782 186.214394 
L 179.196216 186.214394 
" clip-path="url(#pae1b04a435)" style="fill: none; stroke: #000000; stroke-linecap: square"/>
   </g>
   <g id="line2d_70">
    <path d="M 171.974782 174.640535 
L 179.196216 174.640535 
" clip-path="url(#pae1b04a435)" style="fill: none; stroke: #000000; stroke-linecap: square"/>
   </g>
   <g id="line2d_71">
    <g clip-path="url(#pae1b04a435)">
     <use xlink:href="#mc33e9136fe" x="175.585499" y="173.063318" style="fill-opacity: 0; stroke: #000000"/>
    </g>
   </g>
   <g id="patch_22">
    <path d="M 197.249802 233.983485 
L 211.69267 233.983485 
L 211.69267 232.246917 
L 197.249802 232.246917 
L 197.249802 233.983485 
z
" clip-path="url(#pae1b04a435)" style="fill: #2ca02c; fill-opacity: 0.5; stroke: #000000; stroke-linejoin: miter"/>
   </g>
   <g id="line2d_72">
    <path d="M 204.471236 233.983485 
L 204.471236 235.699147 
" clip-path="url(#pae1b04a435)" style="fill: none; stroke: #000000; stroke-linecap: square"/>
   </g>
   <g id="line2d_73">
    <path d="M 204.471236 232.246917 
L 204.471236 230.099039 
" clip-path="url(#pae1b04a435)" style="fill: none; stroke: #000000; stroke-linecap: square"/>
   </g>
   <g id="line2d_74">
    <path d="M 200.860519 235.699147 
L 208.081953 235.699147 
" clip-path="url(#pae1b04a435)" style="fill: none; stroke: #000000; stroke-linecap: square"/>
   </g>
   <g id="line2d_75">
    <path d="M 200.860519 230.099039 
L 208.081953 230.099039 
" clip-path="url(#pae1b04a435)" style="fill: none; stroke: #000000; stroke-linecap: square"/>
   </g>
   <g id="line2d_76">
    <g clip-path="url(#pae1b04a435)">
     <use xlink:href="#mc33e9136fe" x="204.471236" y="229.400768" style="fill-opacity: 0; stroke: #000000"/>
    </g>
   </g>
   <g id="patch_23">
    <path d="M 226.135539 186.713489 
L 240.578407 186.713489 
L 240.578407 184.253166 
L 226.135539 184.253166 
L 226.135539 186.713489 
z
" clip-path="url(#pae1b04a435)" style="fill: #2ca02c; fill-opacity: 0.5; stroke: #000000; stroke-linejoin: miter"/>
   </g>
   <g id="line2d_77">
    <path d="M 233.356973 186.713489 
L 233.356973 189.130407 
" clip-path="url(#pae1b04a435)" style="fill: none; stroke: #000000; stroke-linecap: square"/>
   </g>
   <g id="line2d_78">
    <path d="M 233.356973 184.253166 
L 233.356973 181.212755 
" clip-path="url(#pae1b04a435)" style="fill: none; stroke: #000000; stroke-linecap: square"/>
   </g>
   <g id="line2d_79">
    <path d="M 229.746256 189.130407 
L 236.96769 189.130407 
" clip-path="url(#pae1b04a435)" style="fill: none; stroke: #000000; stroke-linecap: square"/>
   </g>
   <g id="line2d_80">
    <path d="M 229.746256 181.212755 
L 236.96769 181.212755 
" clip-path="url(#pae1b04a435)" style="fill: none; stroke: #000000; stroke-linecap: square"/>
   </g>
   <g id="line2d_81">
    <g clip-path="url(#pae1b04a435)">
     <use xlink:href="#mc33e9136fe" x="233.356973" y="180.244147" style="fill-opacity: 0; stroke: #000000"/>
    </g>
   </g>
   <g id="patch_24">
    <path d="M 255.021275 244.282713 
L 269.464144 244.282713 
L 269.464144 243.217121 
L 255.021275 243.217121 
L 255.021275 244.282713 
z
" clip-path="url(#pae1b04a435)" style="fill: #2ca02c; fill-opacity: 0.5; stroke: #000000; stroke-linejoin: miter"/>
   </g>
   <g id="line2d_82">
    <path d="M 262.24271 244.282713 
L 262.24271 245.327071 
" clip-path="url(#pae1b04a435)" style="fill: none; stroke: #000000; stroke-linecap: square"/>
   </g>
   <g id="line2d_83">
    <path d="M 262.24271 243.217121 
L 262.24271 241.887647 
" clip-path="url(#pae1b04a435)" style="fill: none; stroke: #000000; stroke-linecap: square"/>
   </g>
   <g id="line2d_84">
    <path d="M 258.631993 245.327071 
L 265.853427 245.327071 
" clip-path="url(#pae1b04a435)" style="fill: none; stroke: #000000; stroke-linecap: square"/>
   </g>
   <g id="line2d_85">
    <path d="M 258.631993 241.887647 
L 265.853427 241.887647 
" clip-path="url(#pae1b04a435)" style="fill: none; stroke: #000000; stroke-linecap: square"/>
   </g>
   <g id="line2d_86">
    <g clip-path="url(#pae1b04a435)">
     <use xlink:href="#mc33e9136fe" x="262.24271" y="241.478888" style="fill-opacity: 0; stroke: #000000"/>
    </g>
   </g>
   <g id="patch_25">
    <path d="M 283.907012 234.764429 
L 298.349881 234.764429 
L 298.349881 233.641534 
L 283.907012 233.641534 
L 283.907012 234.764429 
z
" clip-path="url(#pae1b04a435)" style="fill: #2ca02c; fill-opacity: 0.5; stroke: #000000; stroke-linejoin: miter"/>
   </g>
   <g id="line2d_87">
    <path d="M 291.128447 234.764429 
L 291.128447 235.864843 
" clip-path="url(#pae1b04a435)" style="fill: none; stroke: #000000; stroke-linecap: square"/>
   </g>
   <g id="line2d_88">
    <path d="M 291.128447 233.641534 
L 291.128447 232.212817 
" clip-path="url(#pae1b04a435)" style="fill: none; stroke: #000000; stroke-linecap: square"/>
   </g>
   <g id="line2d_89">
    <path d="M 287.51773 235.864843 
L 294.739164 235.864843 
" clip-path="url(#pae1b04a435)" style="fill: none; stroke: #000000; stroke-linecap: square"/>
   </g>
   <g id="line2d_90">
    <path d="M 287.51773 232.212817 
L 294.739164 232.212817 
" clip-path="url(#pae1b04a435)" style="fill: none; stroke: #000000; stroke-linecap: square"/>
   </g>
   <g id="line2d_91">
    <g clip-path="url(#pae1b04a435)">
     <use xlink:href="#mc33e9136fe" x="291.128447" y="231.792734" style="fill-opacity: 0; stroke: #000000"/>
    </g>
   </g>
   <g id="patch_26">
    <path d="M 312.792749 258.017188 
L 327.235618 258.017188 
L 327.235618 257.412497 
L 312.792749 257.412497 
L 312.792749 258.017188 
z
" clip-path="url(#pae1b04a435)" style="fill: #2ca02c; fill-opacity: 0.5; stroke: #000000; stroke-linejoin: miter"/>
   </g>
   <g id="line2d_92">
    <path d="M 320.014184 258.017188 
L 320.014184 258.612219 
" clip-path="url(#pae1b04a435)" style="fill: none; stroke: #000000; stroke-linecap: square"/>
   </g>
   <g id="line2d_93">
    <path d="M 320.014184 257.412497 
L 320.014184 256.640386 
" clip-path="url(#pae1b04a435)" style="fill: none; stroke: #000000; stroke-linecap: square"/>
   </g>
   <g id="line2d_94">
    <path d="M 316.403467 258.612219 
L 323.624901 258.612219 
" clip-path="url(#pae1b04a435)" style="fill: none; stroke: #000000; stroke-linecap: square"/>
   </g>
   <g id="line2d_95">
    <path d="M 316.403467 256.640386 
L 323.624901 256.640386 
" clip-path="url(#pae1b04a435)" style="fill: none; stroke: #000000; stroke-linecap: square"/>
   </g>
   <g id="line2d_96">
    <g clip-path="url(#pae1b04a435)">
     <use xlink:href="#mc33e9136fe" x="320.014184" y="256.413107" style="fill-opacity: 0; stroke: #000000"/>
    </g>
   </g>
   <g id="patch_27">
    <path d="M 341.678486 267.844125 
L 356.121355 267.844125 
L 356.121355 267.415619 
L 341.678486 267.415619 
L 341.678486 267.844125 
z
" clip-path="url(#pae1b04a435)" style="fill: #2ca02c; fill-opacity: 0.5; stroke: #000000; stroke-linejoin: miter"/>
   </g>
   <g id="line2d_97">
    <path d="M 348.899921 267.844125 
L 348.899921 268.266097 
" clip-path="url(#pae1b04a435)" style="fill: none; stroke: #000000; stroke-linecap: square"/>
   </g>
   <g id="line2d_98">
    <path d="M 348.899921 267.415619 
L 348.899921 266.868336 
" clip-path="url(#pae1b04a435)" style="fill: none; stroke: #000000; stroke-linecap: square"/>
   </g>
   <g id="line2d_99">
    <path d="M 345.289203 268.266097 
L 352.510638 268.266097 
" clip-path="url(#pae1b04a435)" style="fill: none; stroke: #000000; stroke-linecap: square"/>
   </g>
   <g id="line2d_100">
    <path d="M 345.289203 266.868336 
L 352.510638 266.868336 
" clip-path="url(#pae1b04a435)" style="fill: none; stroke: #000000; stroke-linecap: square"/>
   </g>
   <g id="line2d_101">
    <g clip-path="url(#pae1b04a435)">
     <use xlink:href="#mc33e9136fe" x="348.899921" y="266.707041" style="fill-opacity: 0; stroke: #000000"/>
    </g>
   </g>
   <g id="patch_28">
    <path d="M 370.564223 280.461058 
L 385.007092 280.461058 
L 385.007092 280.202594 
L 370.564223 280.202594 
L 370.564223 280.461058 
z
" clip-path="url(#pae1b04a435)" style="fill: #2ca02c; fill-opacity: 0.5; stroke: #000000; stroke-linejoin: miter"/>
   </g>
   <g id="line2d_102">
    <path d="M 377.785658 280.461058 
L 377.785658 280.716316 
" clip-path="url(#pae1b04a435)" style="fill: none; stroke: #000000; stroke-linecap: square"/>
   </g>
   <g id="line2d_103">
    <path d="M 377.785658 280.202594 
L 377.785658 279.872702 
" clip-path="url(#pae1b04a435)" style="fill: none; stroke: #000000; stroke-linecap: square"/>
   </g>
   <g id="line2d_104">
    <path d="M 374.17494 280.716316 
L 381.396375 280.716316 
" clip-path="url(#pae1b04a435)" style="fill: none; stroke: #000000; stroke-linecap: square"/>
   </g>
   <g id="line2d_105">
    <path d="M 374.17494 279.872702 
L 381.396375 279.872702 
" clip-path="url(#pae1b04a435)" style="fill: none; stroke: #000000; stroke-linecap: square"/>
   </g>
   <g id="line2d_106">
    <g clip-path="url(#pae1b04a435)">
     <use xlink:href="#mc33e9136fe" x="377.785658" y="279.775445" style="fill-opacity: 0; stroke: #000000"/>
    </g>
   </g>
   <g id="patch_29">
    <path d="M 399.44996 270.672011 
L 413.892829 270.672011 
L 413.892829 270.346041 
L 399.44996 270.346041 
L 399.44996 270.672011 
z
" clip-path="url(#pae1b04a435)" style="fill: #2ca02c; fill-opacity: 0.5; stroke: #000000; stroke-linejoin: miter"/>
   </g>
   <g id="line2d_107">
    <path d="M 406.671395 270.672011 
L 406.671395 270.994611 
" clip-path="url(#pae1b04a435)" style="fill: none; stroke: #000000; stroke-linecap: square"/>
   </g>
   <g id="line2d_108">
    <path d="M 406.671395 270.346041 
L 406.671395 269.930537 
" clip-path="url(#pae1b04a435)" style="fill: none; stroke: #000000; stroke-linecap: square"/>
   </g>
   <g id="line2d_109">
    <path d="M 403.060677 270.994611 
L 410.282112 270.994611 
" clip-path="url(#pae1b04a435)" style="fill: none; stroke: #000000; stroke-linecap: square"/>
   </g>
   <g id="line2d_110">
    <path d="M 403.060677 269.930537 
L 410.282112 269.930537 
" clip-path="url(#pae1b04a435)" style="fill: none; stroke: #000000; stroke-linecap: square"/>
   </g>
   <g id="line2d_111">
    <g clip-path="url(#pae1b04a435)">
     <use xlink:href="#mc33e9136fe" x="406.671395" y="269.808113" style="fill-opacity: 0; stroke: #000000"/>
    </g>
   </g>
   <g id="patch_30">
    <path d="M 428.335697 291.760449 
L 442.778566 291.760449 
L 442.778566 291.637898 
L 428.335697 291.637898 
L 428.335697 291.760449 
z
" clip-path="url(#pae1b04a435)" style="fill: #2ca02c; fill-opacity: 0.5; stroke: #000000; stroke-linejoin: miter"/>
   </g>
   <g id="line2d_112">
    <path d="M 435.557132 291.760449 
L 435.557132 291.881857 
" clip-path="url(#pae1b04a435)" style="fill: none; stroke: #000000; stroke-linecap: square"/>
   </g>
   <g id="line2d_113">
    <path d="M 435.557132 291.637898 
L 435.557132 291.481882 
" clip-path="url(#pae1b04a435)" style="fill: none; stroke: #000000; stroke-linecap: square"/>
   </g>
   <g id="line2d_114">
    <path d="M 431.946414 291.881857 
L 439.167849 291.881857 
" clip-path="url(#pae1b04a435)" style="fill: none; stroke: #000000; stroke-linecap: square"/>
   </g>
   <g id="line2d_115">
    <path d="M 431.946414 291.481882 
L 439.167849 291.481882 
" clip-path="url(#pae1b04a435)" style="fill: none; stroke: #000000; stroke-linecap: square"/>
   </g>
   <g id="line2d_116">
    <g clip-path="url(#pae1b04a435)">
     <use xlink:href="#mc33e9136fe" x="435.557132" y="291.435951" style="fill-opacity: 0; stroke: #000000"/>
    </g>
   </g>
   <g id="line2d_117">
    <path d="M 52.821117 93.152275 
L 67.263985 93.152275 
" clip-path="url(#pae1b04a435)" style="fill: none; stroke: #2ca02c; stroke-linecap: square"/>
   </g>
   <g id="line2d_118">
    <path d="M 81.706854 182.409605 
L 96.149722 182.409605 
" clip-path="url(#pae1b04a435)" style="fill: none; stroke: #2ca02c; stroke-linecap: square"/>
   </g>
   <g id="line2d_119">
    <path d="M 110.592591 107.960194 
L 125.035459 107.960194 
" clip-path="url(#pae1b04a435)" style="fill: none; stroke: #2ca02c; stroke-linecap: square"/>
   </g>
   <g id="line2d_120">
    <path d="M 139.478328 215.464087 
L 153.921196 215.464087 
" clip-path="url(#pae1b04a435)" style="fill: none; stroke: #2ca02c; stroke-linecap: square"/>
   </g>
   <g id="line2d_121">
    <path d="M 168.364065 180.589423 
L 182.806933 180.589423 
" clip-path="url(#pae1b04a435)" style="fill: none; stroke: #2ca02c; stroke-linecap: square"/>
   </g>
   <g id="line2d_122">
    <path d="M 197.249802 233.096818 
L 211.69267 233.096818 
" clip-path="url(#pae1b04a435)" style="fill: none; stroke: #2ca02c; stroke-linecap: square"/>
   </g>
   <g id="line2d_123">
    <path d="M 226.135539 185.434954 
L 240.578407 185.434954 
" clip-path="url(#pae1b04a435)" style="fill: none; stroke: #2ca02c; stroke-linecap: square"/>
   </g>
   <g id="line2d_124">
    <path d="M 255.021275 243.713746 
L 269.464144 243.713746 
" clip-path="url(#pae1b04a435)" style="fill: none; stroke: #2ca02c; stroke-linecap: square"/>
   </g>
   <g id="line2d_125">
    <path d="M 283.907012 234.16493 
L 298.349881 234.16493 
" clip-path="url(#pae1b04a435)" style="fill: none; stroke: #2ca02c; stroke-linecap: square"/>
   </g>
   <g id="line2d_126">
    <path d="M 312.792749 257.689519 
L 327.235618 257.689519 
" clip-path="url(#pae1b04a435)" style="fill: none; stroke: #2ca02c; stroke-linecap: square"/>
   </g>
   <g id="line2d_127">
    <path d="M 341.678486 267.611376 
L 356.121355 267.611376 
" clip-path="url(#pae1b04a435)" style="fill: none; stroke: #2ca02c; stroke-linecap: square"/>
   </g>
   <g id="line2d_128">
    <path d="M 370.564223 280.319392 
L 385.007092 280.319392 
" clip-path="url(#pae1b04a435)" style="fill: none; stroke: #2ca02c; stroke-linecap: square"/>
   </g>
   <g id="line2d_129">
    <path d="M 399.44996 270.49275 
L 413.892829 270.49275 
" clip-path="url(#pae1b04a435)" style="fill: none; stroke: #2ca02c; stroke-linecap: square"/>
   </g>
   <g id="line2d_130">
    <path d="M 428.335697 291.692874 
L 442.778566 291.692874 
" clip-path="url(#pae1b04a435)" style="fill: none; stroke: #2ca02c; stroke-linecap: square"/>
   </g>
   <g id="patch_31">
    <path d="M 45.599682 306.088647 
L 45.599682 14.259249 
" style="fill: none; stroke: #000000; stroke-width: 0.8; stroke-linejoin: miter; stroke-linecap: square"/>
   </g>
   <g id="patch_32">
    <path d="M 450 306.088647 
L 450 14.259249 
" style="fill: none; stroke: #000000; stroke-width: 0.8; stroke-linejoin: miter; stroke-linecap: square"/>
   </g>
   <g id="patch_33">
    <path d="M 45.599682 306.088647 
L 450 306.088647 
" style="fill: none; stroke: #000000; stroke-width: 0.8; stroke-linejoin: miter; stroke-linecap: square"/>
   </g>
   <g id="patch_34">
    <path d="M 45.599682 14.259249 
L 450 14.259249 
" style="fill: none; stroke: #000000; stroke-width: 0.8; stroke-linejoin: miter; stroke-linecap: square"/>
   </g>
   <g id="legend_1">
    <g id="patch_35">
     <path d="M 354.793979 50.133606 
L 443 50.133606 
Q 445 50.133606 445 48.133606 
L 445 21.259249 
Q 445 19.259249 443 19.259249 
L 354.793979 19.259249 
Q 352.793979 19.259249 352.793979 21.259249 
L 352.793979 48.133606 
Q 352.793979 50.133606 354.793979 50.133606 
z
" style="fill: #ffffff; opacity: 0.8; stroke: #cccccc; stroke-linejoin: miter"/>
    </g>
    <g id="PathCollection_5">
     <g>
      <use xlink:href="#mf8d29e59fc" x="366.793979" y="27.634249" style="fill: #ff0000; stroke: #ff0000"/>
     </g>
    </g>
    <g id="text_26">
     <!-- experimental -->
     <g transform="translate(384.793979 30.259249) scale(0.1 -0.1)">
      <defs>
       <path id="CMR17-78" d="M 1664 1477 
C 1856 1726 2074 2006 2253 2216 
C 2464 2458 2707 2560 2989 2560 
L 2989 2726 
C 2880 2726 2656 2726 2541 2726 
C 2368 2726 2170 2726 2022 2732 
L 2022 2566 
C 2112 2553 2163 2489 2163 2400 
C 2163 2285 2099 2215 2067 2171 
L 1594 1573 
L 1030 2306 
C 973 2376 973 2388 973 2420 
C 973 2497 1037 2560 1146 2560 
L 1146 2732 
C 992 2726 717 2726 557 2726 
C 384 2726 179 2726 38 2732 
L 38 2560 
C 384 2560 461 2534 614 2343 
L 1350 1395 
C 1363 1382 1395 1344 1395 1325 
C 1395 1299 838 619 768 530 
C 480 185 179 160 6 160 
L 6 0 
C 115 0 339 0 454 0 
C 582 0 864 0 979 -6 
L 979 160 
C 941 166 838 179 838 325 
C 838 440 890 510 947 586 
L 1478 1236 
L 2035 512 
C 2086 442 2163 346 2163 301 
C 2163 211 2086 160 1984 160 
L 1984 -6 
C 2138 0 2413 0 2573 0 
C 2746 0 2950 0 3091 -6 
L 3091 160 
C 2771 160 2675 172 2522 370 
L 1664 1477 
z
" transform="scale(0.015625)"/>
       <path id="CMR17-70" d="M 1408 -1063 
C 998 -1063 973 -1037 973 -789 
L 973 402 
C 1158 134 1427 -38 1766 -38 
C 2406 -38 3053 523 3053 1388 
C 3053 2191 2496 2802 1837 2802 
C 1453 2802 1139 2592 960 2338 
L 960 2802 
L 198 2732 
L 198 2567 
C 576 2567 634 2528 634 2223 
L 634 -789 
C 634 -1031 608 -1063 198 -1063 
L 198 -1228 
C 352 -1216 634 -1216 800 -1216 
C 966 -1216 1254 -1216 1408 -1228 
L 1408 -1063 
z
M 973 2012 
C 973 2102 973 2235 1222 2471 
C 1254 2497 1472 2688 1792 2688 
C 2259 2688 2643 2108 2643 1382 
C 2643 656 2234 64 1728 64 
C 1498 64 1248 172 1056 472 
C 973 612 973 650 973 752 
L 973 2012 
z
" transform="scale(0.015625)"/>
       <path id="CMR17-6d" d="M 4326 1933 
C 4326 2252 4269 2790 3507 2790 
C 3072 2790 2771 2496 2656 2151 
L 2650 2151 
C 2573 2676 2195 2790 1837 2790 
C 1331 2790 1069 2400 973 2144 
L 966 2144 
L 966 2790 
L 211 2720 
L 211 2554 
C 589 2554 646 2515 646 2208 
L 646 428 
C 646 184 621 153 211 153 
L 211 -13 
C 365 0 646 0 813 0 
C 979 0 1267 0 1421 -13 
L 1421 153 
C 1011 153 986 178 986 428 
L 986 1658 
C 986 2247 1344 2688 1792 2688 
C 2266 2688 2317 2266 2317 1958 
L 2317 428 
C 2317 184 2291 153 1882 153 
L 1882 -13 
C 2035 0 2317 0 2483 0 
C 2650 0 2938 0 3091 -13 
L 3091 153 
C 2682 153 2656 178 2656 428 
L 2656 1658 
C 2656 2247 3014 2688 3462 2688 
C 3936 2688 3987 2266 3987 1958 
L 3987 428 
C 3987 184 3962 153 3552 153 
L 3552 -13 
C 3706 0 3987 0 4154 0 
C 4320 0 4608 0 4762 -13 
L 4762 153 
C 4352 153 4326 178 4326 428 
L 4326 1933 
z
" transform="scale(0.015625)"/>
       <path id="CMR17-74" d="M 966 2560 
L 1862 2560 
L 1862 2725 
L 966 2725 
L 966 3904 
L 851 3904 
C 838 3245 614 2668 70 2668 
L 70 2560 
L 627 2560 
L 627 771 
C 627 650 627 -64 1370 -64 
C 1747 -64 1965 306 1965 777 
L 1965 1140 
L 1850 1140 
L 1850 783 
C 1850 344 1677 51 1408 51 
C 1222 51 966 178 966 758 
L 966 2560 
z
" transform="scale(0.015625)"/>
      </defs>
      <use xlink:href="#CMR17-65" transform="scale(0.996264)"/>
      <use xlink:href="#CMR17-78" transform="translate(40.48566 0) scale(0.996264)"/>
      <use xlink:href="#CMR17-70" transform="translate(88.778576 0) scale(0.996264)"/>
      <use xlink:href="#CMR17-65" transform="translate(142.276385 0) scale(0.996264)"/>
      <use xlink:href="#CMR17-72" transform="translate(182.762045 0) scale(0.996264)"/>
      <use xlink:href="#CMR17-69" transform="translate(218.042813 0) scale(0.996264)"/>
      <use xlink:href="#CMR17-6d" transform="translate(242.913872 0) scale(0.996264)"/>
      <use xlink:href="#CMR17-65" transform="translate(319.833461 0) scale(0.996264)"/>
      <use xlink:href="#CMR17-6e" transform="translate(360.319122 0) scale(0.996264)"/>
      <use xlink:href="#CMR17-74" transform="translate(408.612038 0) scale(0.996264)"/>
      <use xlink:href="#CMR17-61" transform="translate(443.892806 0) scale(0.996264)"/>
      <use xlink:href="#CMR17-6c" transform="translate(489.583283 0) scale(0.996264)"/>
     </g>
    </g>
    <g id="patch_36">
     <path d="M 356.793979 44.196428 
L 376.793979 44.196428 
L 376.793979 37.196428 
L 356.793979 37.196428 
z
" style="fill: #1f77b4; opacity: 0.5"/>
    </g>
    <g id="text_27">
     <!-- nominal -->
     <g transform="translate(384.793979 44.196428) scale(0.1 -0.1)">
      <use xlink:href="#CMR17-6e" transform="scale(0.996264)"/>
      <use xlink:href="#CMR17-6f" transform="translate(50.89537 0) scale(0.996264)"/>
      <use xlink:href="#CMR17-6d" transform="translate(96.585847 0) scale(0.996264)"/>
      <use xlink:href="#CMR17-69" transform="translate(173.505437 0) scale(0.996264)"/>
      <use xlink:href="#CMR17-6e" transform="translate(198.376495 0) scale(0.996264)"/>
      <use xlink:href="#CMR17-61" transform="translate(249.271865 0) scale(0.996264)"/>
      <use xlink:href="#CMR17-6c" transform="translate(294.962342 0) scale(0.996264)"/>
     </g>
    </g>
   </g>
  </g>
 </g>
 <defs>
  <clipPath id="pae1b04a435">
   <rect x="45.599682" y="14.259249" width="404.400318" height="291.829397"/>
  </clipPath>
 </defs>
</svg>
