<?xml version="1.0" encoding="utf-8" standalone="no"?>
<!DOCTYPE svg PUBLIC "-//W3C//DTD SVG 1.1//EN"
  "http://www.w3.org/Graphics/SVG/1.1/DTD/svg11.dtd">
<svg xmlns:xlink="http://www.w3.org/1999/xlink" width="997.932392pt" height="446.19952pt" viewBox="0 0 997.932392 446.19952" xmlns="http://www.w3.org/2000/svg" version="1.1">
 <metadata>
  <rdf:RDF xmlns:dc="http://purl.org/dc/elements/1.1/" xmlns:cc="http://creativecommons.org/ns#" xmlns:rdf="http://www.w3.org/1999/02/22-rdf-syntax-ns#">
   <cc:Work>
    <dc:type rdf:resource="http://purl.org/dc/dcmitype/StillImage"/>
    <dc:date>2023-04-06T08:29:29.353582</dc:date>
    <dc:format>image/svg+xml</dc:format>
    <dc:creator>
     <cc:Agent>
      <dc:title>Matplotlib v3.7.1, https://matplotlib.org/</dc:title>
     </cc:Agent>
    </dc:creator>
   </cc:Work>
  </rdf:RDF>
 </metadata>
 <defs>
  <style type="text/css">*{stroke-linejoin: round; stroke-linecap: butt}</style>
 </defs>
 <g id="figure_1">
  <g id="patch_1">
   <path d="M 0 446.19952 
L 997.932392 446.19952 
L 997.932392 0 
L 0 0 
L 0 446.19952 
z
" style="fill: none"/>
  </g>
  <g id="axes_1">
   <g id="patch_2">
    <path d="M 294.803335 82.158345 
L 303.679981 46.651761 
L 410.199735 46.651761 
L 392.446442 117.66493 
L 285.926689 117.66493 
L 294.803335 82.158345 
z
" clip-path="url(#p11b26e94db)" style="fill: none; stroke: #000000; stroke-width: 2; stroke-linecap: round"/>
   </g>
   <g id="patch_3">
    <path d="M 436.829673 82.158345 
L 436.829673 46.651761 
L 561.102719 46.651761 
L 561.102719 117.66493 
L 436.829673 117.66493 
L 436.829673 82.158345 
z
" clip-path="url(#p11b26e94db)" style="fill: none"/>
   </g>
   <g id="patch_4">
    <path d="M 596.609304 82.158345 
L 605.48595 46.651761 
L 712.005703 46.651761 
L 694.252411 117.66493 
L 587.732658 117.66493 
L 596.609304 82.158345 
z
" clip-path="url(#p11b26e94db)" style="fill: none; stroke: #000000; stroke-width: 2; stroke-linecap: round"/>
   </g>
   <g id="patch_5">
    <path d="M 708.455045 124.766247 
L 708.624049 124.764906 
L 708.79301 124.760884 
L 708.961886 124.754182 
L 709.130635 124.744801 
L 709.299214 124.732744 
L 709.46758 124.718014 
L 709.635691 124.700614 
L 709.803505 124.68055 
L 709.970979 124.657825 
L 710.138072 124.632446 
L 710.304741 124.604419 
L 710.470945 124.573752 
L 710.636641 124.540451 
L 710.801787 124.504525 
L 710.966343 124.465984 
L 711.130267 124.424837 
L 711.293518 124.381094 
L 711.456053 124.334767 
L 711.617834 124.285866 
L 711.778818 124.234405 
L 711.938965 124.180397 
L 712.098235 124.123854 
L 712.256588 124.064791 
L 712.413984 124.003224 
L 712.570384 123.939167 
L 712.725747 123.872636 
L 712.880036 123.803649 
L 713.03321 123.732223 
L 713.185232 123.658375 
L 713.336063 123.582125 
L 713.485665 123.503491 
L 713.634001 123.422493 
L 713.781033 123.339153 
L 713.926724 123.253489 
L 714.071038 123.165526 
L 714.213938 123.075283 
L 714.355388 122.982785 
L 714.495353 122.888054 
L 714.633797 122.791114 
L 714.770686 122.69199 
L 714.905985 122.590707 
L 715.039659 122.487289 
L 715.171677 122.381764 
L 715.302003 122.274158 
L 715.430605 122.164497 
L 715.557452 122.05281 
L 715.682511 121.939124 
L 715.80575 121.823468 
L 715.927138 121.705872 
L 716.046646 121.586365 
L 716.164242 121.464976 
L 716.279898 121.341737 
L 716.393584 121.216678 
L 716.505271 121.089832 
L 716.614932 120.961229 
L 716.722538 120.830903 
L 716.828063 120.698886 
L 716.931481 120.565211 
L 717.032764 120.429912 
L 717.131888 120.293023 
L 717.228828 120.154579 
L 717.323559 120.014614 
L 717.416057 119.873164 
L 717.506299 119.730264 
L 717.594263 119.58595 
L 717.679926 119.440259 
L 717.763267 119.293227 
L 717.844265 119.144891 
L 717.922898 118.995289 
L 717.999149 118.844458 
L 718.072996 118.692436 
L 718.144423 118.539262 
L 718.21341 118.384973 
L 718.27994 118.22961 
L 718.343997 118.073211 
L 718.405565 117.915815 
L 718.464628 117.757461 
L 718.52117 117.598191 
L 718.575179 117.438044 
L 718.62664 117.27706 
L 718.675541 117.11528 
L 718.721868 116.952744 
L 718.765611 116.789493 
L 718.806758 116.62557 
L 718.845299 116.461014 
L 718.881225 116.295867 
L 718.914525 116.130171 
L 718.945193 115.963967 
L 718.97322 115.797298 
L 718.998599 115.630205 
L 719.021323 115.462731 
L 719.041388 115.294917 
L 719.058787 115.126806 
L 719.073518 114.95844 
L 719.085575 114.789861 
L 719.094955 114.621113 
L 719.101658 114.452236 
L 719.10568 114.283275 
L 719.10702 114.114271 
L 719.10702 50.202419 
L 719.10568 50.033415 
L 719.101658 49.864454 
L 719.094955 49.695578 
L 719.085575 49.526829 
L 719.073518 49.35825 
L 719.058787 49.189884 
L 719.041388 49.021773 
L 719.021323 48.853959 
L 718.998599 48.686485 
L 718.97322 48.519392 
L 718.945193 48.352723 
L 718.914525 48.186519 
L 718.881225 48.020823 
L 718.845299 47.855677 
L 718.806758 47.691121 
L 718.765611 47.527197 
L 718.721868 47.363947 
L 718.675541 47.201411 
L 718.62664 47.039631 
L 718.575179 46.878646 
L 718.52117 46.718499 
L 718.464628 46.559229 
L 718.405565 46.400876 
L 718.343997 46.24348 
L 718.27994 46.08708 
L 718.21341 45.931717 
L 718.144423 45.777429 
L 718.072996 45.624254 
L 717.999149 45.472232 
L 717.922898 45.321401 
L 717.844265 45.171799 
L 717.763267 45.023463 
L 717.679926 44.876431 
L 717.594263 44.73074 
L 717.506299 44.586426 
L 717.416057 44.443526 
L 717.323559 44.302076 
L 717.228828 44.162111 
L 717.131888 44.023667 
L 717.032764 43.886778 
L 716.931481 43.75148 
L 716.828063 43.617805 
L 716.722538 43.485788 
L 716.614932 43.355461 
L 716.505271 43.226859 
L 716.393584 43.100012 
L 716.279898 42.974954 
L 716.164242 42.851714 
L 716.046646 42.730326 
L 715.927138 42.610818 
L 715.80575 42.493222 
L 715.682511 42.377566 
L 715.557452 42.263881 
L 715.430605 42.152193 
L 715.302003 42.042533 
L 715.171677 41.934926 
L 715.039659 41.829401 
L 714.905985 41.725984 
L 714.770686 41.6247 
L 714.633797 41.525576 
L 714.495353 41.428636 
L 714.355388 41.333905 
L 714.213938 41.241407 
L 714.071038 41.151165 
L 713.926724 41.063201 
L 713.781033 40.977538 
L 713.634001 40.894197 
L 713.485665 40.8132 
L 713.336063 40.734566 
L 713.185232 40.658315 
L 713.03321 40.584468 
L 712.880036 40.513041 
L 712.725747 40.444054 
L 712.570384 40.377524 
L 712.413984 40.313467 
L 712.256588 40.251899 
L 712.098235 40.192836 
L 711.938965 40.136294 
L 711.778818 40.082285 
L 711.617834 40.030824 
L 711.456053 39.981924 
L 711.293518 39.935596 
L 711.130267 39.891853 
L 710.966343 39.850706 
L 710.801787 39.812165 
L 710.636641 39.77624 
L 710.470945 39.742939 
L 710.304741 39.712271 
L 710.138072 39.684244 
L 709.970979 39.658865 
L 709.803505 39.636141 
L 709.635691 39.616076 
L 709.46758 39.598677 
L 709.299214 39.583947 
L 709.130635 39.57189 
L 708.961886 39.562509 
L 708.79301 39.555807 
L 708.624049 39.551784 
L 708.455045 39.550444 
L 289.477347 39.550444 
L 289.308343 39.551784 
L 289.139382 39.555807 
L 288.970506 39.562509 
L 288.801757 39.57189 
L 288.633179 39.583947 
L 288.464813 39.598677 
L 288.296701 39.616076 
L 288.128888 39.636141 
L 287.961413 39.658865 
L 287.79432 39.684244 
L 287.627651 39.712271 
L 287.461448 39.742939 
L 287.295752 39.77624 
L 287.130605 39.812165 
L 286.966049 39.850706 
L 286.802125 39.891853 
L 286.638875 39.935596 
L 286.476339 39.981924 
L 286.314559 40.030824 
L 286.153575 40.082285 
L 285.993427 40.136294 
L 285.834157 40.192836 
L 285.675804 40.251899 
L 285.518408 40.313467 
L 285.362008 40.377524 
L 285.206645 40.444054 
L 285.052357 40.513041 
L 284.899182 40.584468 
L 284.747161 40.658315 
L 284.59633 40.734566 
L 284.446727 40.8132 
L 284.298392 40.894197 
L 284.15136 40.977538 
L 284.005668 41.063201 
L 283.861355 41.151165 
L 283.718455 41.241407 
L 283.577004 41.333905 
L 283.43704 41.428636 
L 283.298595 41.525576 
L 283.161707 41.6247 
L 283.026408 41.725984 
L 282.892733 41.829401 
L 282.760716 41.934926 
L 282.630389 42.042533 
L 282.501787 42.152193 
L 282.37494 42.263881 
L 282.249882 42.377566 
L 282.126643 42.493222 
L 282.005254 42.610818 
L 281.885746 42.730326 
L 281.76815 42.851714 
L 281.652494 42.974954 
L 281.538809 43.100012 
L 281.427121 43.226859 
L 281.317461 43.355461 
L 281.209854 43.485788 
L 281.104329 43.617805 
L 281.000912 43.75148 
L 280.899628 43.886778 
L 280.800504 44.023667 
L 280.703565 44.162111 
L 280.608834 44.302076 
L 280.516335 44.443526 
L 280.426093 44.586426 
L 280.338129 44.73074 
L 280.252466 44.876431 
L 280.169125 45.023463 
L 280.088128 45.171799 
L 280.009494 45.321401 
L 279.933244 45.472232 
L 279.859396 45.624254 
L 279.78797 45.777429 
L 279.718983 45.931717 
L 279.652452 46.08708 
L 279.588395 46.24348 
L 279.526827 46.400876 
L 279.467765 46.559229 
L 279.411222 46.718499 
L 279.357213 46.878646 
L 279.305752 47.039631 
L 279.256852 47.201411 
L 279.210524 47.363947 
L 279.166782 47.527197 
L 279.125634 47.691121 
L 279.087093 47.855677 
L 279.051168 48.020823 
L 279.017867 48.186519 
L 278.987199 48.352723 
L 278.959173 48.519392 
L 278.933794 48.686485 
L 278.911069 48.853959 
L 278.891004 49.021773 
L 278.873605 49.189884 
L 278.858875 49.35825 
L 278.846818 49.526829 
L 278.837437 49.695578 
L 278.830735 49.864454 
L 278.826713 50.033415 
L 278.825372 50.202419 
L 278.825372 114.114271 
L 278.826713 114.283275 
L 278.830735 114.452236 
L 278.837437 114.621113 
L 278.846818 114.789861 
L 278.858875 114.95844 
L 278.873605 115.126806 
L 278.891004 115.294917 
L 278.911069 115.462731 
L 278.933794 115.630205 
L 278.959173 115.797298 
L 278.987199 115.963967 
L 279.017867 116.130171 
L 279.051168 116.295867 
L 279.087093 116.461014 
L 279.125634 116.62557 
L 279.166782 116.789493 
L 279.210524 116.952744 
L 279.256852 117.11528 
L 279.305752 117.27706 
L 279.357213 117.438044 
L 279.411222 117.598191 
L 279.467765 117.757461 
L 279.526827 117.915815 
L 279.588395 118.073211 
L 279.652452 118.22961 
L 279.718983 118.384973 
L 279.78797 118.539262 
L 279.859396 118.692436 
L 279.933244 118.844458 
L 280.009494 118.995289 
L 280.088128 119.144891 
L 280.169125 119.293227 
L 280.252466 119.440259 
L 280.338129 119.58595 
L 280.426093 119.730264 
L 280.516335 119.873164 
L 280.608834 120.014614 
L 280.703565 120.154579 
L 280.800504 120.293023 
L 280.899628 120.429912 
L 281.000912 120.565211 
L 281.104329 120.698886 
L 281.209854 120.830903 
L 281.317461 120.961229 
L 281.427121 121.089832 
L 281.538809 121.216678 
L 281.652494 121.341737 
L 281.76815 121.464976 
L 281.885746 121.586365 
L 282.005254 121.705872 
L 282.126643 121.823468 
L 282.249882 121.939124 
L 282.37494 122.05281 
L 282.501787 122.164497 
L 282.630389 122.274158 
L 282.760716 122.381764 
L 282.892733 122.487289 
L 283.026408 122.590707 
L 283.161707 122.69199 
L 283.298595 122.791114 
L 283.43704 122.888054 
L 283.577004 122.982785 
L 283.718455 123.075283 
L 283.861355 123.165526 
L 284.005668 123.253489 
L 284.15136 123.339153 
L 284.298392 123.422493 
L 284.446727 123.503491 
L 284.59633 123.582125 
L 284.747161 123.658375 
L 284.899182 123.732223 
L 285.052357 123.803649 
L 285.206645 123.872636 
L 285.362008 123.939167 
L 285.518408 124.003224 
L 285.675804 124.064791 
L 285.834157 124.123854 
L 285.993427 124.180397 
L 286.153575 124.234405 
L 286.314559 124.285866 
L 286.476339 124.334767 
L 286.638875 124.381094 
L 286.802125 124.424837 
L 286.966049 124.465984 
L 287.130605 124.504525 
L 287.295752 124.540451 
L 287.461448 124.573752 
L 287.627651 124.604419 
L 287.79432 124.632446 
L 287.961413 124.657825 
L 288.128888 124.68055 
L 288.296701 124.700614 
L 288.464813 124.718014 
L 288.633179 124.732744 
L 288.801757 124.744801 
L 288.970506 124.754182 
L 289.139382 124.760884 
L 289.308343 124.764906 
L 289.477347 124.766247 
L 708.455045 124.766247 
z
" clip-path="url(#p11b26e94db)" style="fill: none; stroke-dasharray: 3.7,1.6; stroke-dashoffset: 0; stroke: #000000; stroke-linecap: round"/>
   </g>
   <g id="patch_6">
    <path d="M 294.803335 206.431391 
L 303.679981 170.924807 
L 410.199735 170.924807 
L 392.446442 241.937976 
L 285.926689 241.937976 
L 294.803335 206.431391 
z
" clip-path="url(#p11b26e94db)" style="fill: none; stroke: #000000; stroke-width: 2; stroke-linecap: round"/>
   </g>
   <g id="patch_7">
    <path d="M 436.829673 206.431391 
L 436.829673 170.924807 
L 561.102719 170.924807 
L 561.102719 241.937976 
L 436.829673 241.937976 
L 436.829673 206.431391 
z
" clip-path="url(#p11b26e94db)" style="fill: none"/>
   </g>
   <g id="patch_8">
    <path d="M 596.609304 206.431391 
L 605.48595 170.924807 
L 712.005703 170.924807 
L 694.252411 241.937976 
L 587.732658 241.937976 
L 596.609304 206.431391 
z
" clip-path="url(#p11b26e94db)" style="fill: none; stroke: #000000; stroke-width: 2; stroke-linecap: round"/>
   </g>
   <g id="patch_9">
    <path d="M 708.455045 249.039293 
L 708.624049 249.037952 
L 708.79301 249.03393 
L 708.961886 249.027228 
L 709.130635 249.017847 
L 709.299214 249.00579 
L 709.46758 248.99106 
L 709.635691 248.97366 
L 709.803505 248.953595 
L 709.970979 248.930871 
L 710.138072 248.905492 
L 710.304741 248.877465 
L 710.470945 248.846798 
L 710.636641 248.813497 
L 710.801787 248.777571 
L 710.966343 248.73903 
L 711.130267 248.697883 
L 711.293518 248.65414 
L 711.456053 248.607813 
L 711.617834 248.558912 
L 711.778818 248.507451 
L 711.938965 248.453443 
L 712.098235 248.3969 
L 712.256588 248.337837 
L 712.413984 248.27627 
L 712.570384 248.212212 
L 712.725747 248.145682 
L 712.880036 248.076695 
L 713.03321 248.005268 
L 713.185232 247.931421 
L 713.336063 247.855171 
L 713.485665 247.776537 
L 713.634001 247.695539 
L 713.781033 247.612199 
L 713.926724 247.526535 
L 714.071038 247.438572 
L 714.213938 247.348329 
L 714.355388 247.255831 
L 714.495353 247.1611 
L 714.633797 247.06416 
L 714.770686 246.965036 
L 714.905985 246.863753 
L 715.039659 246.760335 
L 715.171677 246.65481 
L 715.302003 246.547204 
L 715.430605 246.437543 
L 715.557452 246.325856 
L 715.682511 246.21217 
L 715.80575 246.096514 
L 715.927138 245.978918 
L 716.046646 245.85941 
L 716.164242 245.738022 
L 716.279898 245.614783 
L 716.393584 245.489724 
L 716.505271 245.362878 
L 716.614932 245.234275 
L 716.722538 245.103949 
L 716.828063 244.971932 
L 716.931481 244.838257 
L 717.032764 244.702958 
L 717.131888 244.566069 
L 717.228828 244.427625 
L 717.323559 244.28766 
L 717.416057 244.14621 
L 717.506299 244.00331 
L 717.594263 243.858996 
L 717.679926 243.713305 
L 717.763267 243.566273 
L 717.844265 243.417937 
L 717.922898 243.268335 
L 717.999149 243.117504 
L 718.072996 242.965482 
L 718.144423 242.812308 
L 718.21341 242.658019 
L 718.27994 242.502656 
L 718.343997 242.346257 
L 718.405565 242.18886 
L 718.464628 242.030507 
L 718.52117 241.871237 
L 718.575179 241.71109 
L 718.62664 241.550106 
L 718.675541 241.388325 
L 718.721868 241.22579 
L 718.765611 241.062539 
L 718.806758 240.898616 
L 718.845299 240.73406 
L 718.881225 240.568913 
L 718.914525 240.403217 
L 718.945193 240.237013 
L 718.97322 240.070344 
L 718.998599 239.903251 
L 719.021323 239.735777 
L 719.041388 239.567963 
L 719.058787 239.399852 
L 719.073518 239.231486 
L 719.085575 239.062907 
L 719.094955 238.894159 
L 719.101658 238.725282 
L 719.10568 238.556321 
L 719.10702 238.387317 
L 719.10702 174.475465 
L 719.10568 174.306461 
L 719.101658 174.1375 
L 719.094955 173.968624 
L 719.085575 173.799875 
L 719.073518 173.631296 
L 719.058787 173.46293 
L 719.041388 173.294819 
L 719.021323 173.127005 
L 718.998599 172.959531 
L 718.97322 172.792438 
L 718.945193 172.625769 
L 718.914525 172.459565 
L 718.881225 172.293869 
L 718.845299 172.128723 
L 718.806758 171.964167 
L 718.765611 171.800243 
L 718.721868 171.636993 
L 718.675541 171.474457 
L 718.62664 171.312677 
L 718.575179 171.151692 
L 718.52117 170.991545 
L 718.464628 170.832275 
L 718.405565 170.673922 
L 718.343997 170.516526 
L 718.27994 170.360126 
L 718.21341 170.204763 
L 718.144423 170.050475 
L 718.072996 169.8973 
L 717.999149 169.745278 
L 717.922898 169.594447 
L 717.844265 169.444845 
L 717.763267 169.296509 
L 717.679926 169.149477 
L 717.594263 169.003786 
L 717.506299 168.859472 
L 717.416057 168.716572 
L 717.323559 168.575122 
L 717.228828 168.435157 
L 717.131888 168.296713 
L 717.032764 168.159824 
L 716.931481 168.024526 
L 716.828063 167.890851 
L 716.722538 167.758834 
L 716.614932 167.628507 
L 716.505271 167.499905 
L 716.393584 167.373058 
L 716.279898 167.247999 
L 716.164242 167.12476 
L 716.046646 167.003372 
L 715.927138 166.883864 
L 715.80575 166.766268 
L 715.682511 166.650612 
L 715.557452 166.536926 
L 715.430605 166.425239 
L 715.302003 166.315578 
L 715.171677 166.207972 
L 715.039659 166.102447 
L 714.905985 165.99903 
L 714.770686 165.897746 
L 714.633797 165.798622 
L 714.495353 165.701682 
L 714.355388 165.606951 
L 714.213938 165.514453 
L 714.071038 165.424211 
L 713.926724 165.336247 
L 713.781033 165.250584 
L 713.634001 165.167243 
L 713.485665 165.086246 
L 713.336063 165.007612 
L 713.185232 164.931361 
L 713.03321 164.857514 
L 712.880036 164.786087 
L 712.725747 164.7171 
L 712.570384 164.65057 
L 712.413984 164.586513 
L 712.256588 164.524945 
L 712.098235 164.465882 
L 711.938965 164.40934 
L 711.778818 164.355331 
L 711.617834 164.30387 
L 711.456053 164.25497 
L 711.293518 164.208642 
L 711.130267 164.164899 
L 710.966343 164.123752 
L 710.801787 164.085211 
L 710.636641 164.049285 
L 710.470945 164.015985 
L 710.304741 163.985317 
L 710.138072 163.95729 
L 709.970979 163.931911 
L 709.803505 163.909187 
L 709.635691 163.889122 
L 709.46758 163.871723 
L 709.299214 163.856993 
L 709.130635 163.844936 
L 708.961886 163.835555 
L 708.79301 163.828852 
L 708.624049 163.82483 
L 708.455045 163.82349 
L 289.477347 163.82349 
L 289.308343 163.82483 
L 289.139382 163.828852 
L 288.970506 163.835555 
L 288.801757 163.844936 
L 288.633179 163.856993 
L 288.464813 163.871723 
L 288.296701 163.889122 
L 288.128888 163.909187 
L 287.961413 163.931911 
L 287.79432 163.95729 
L 287.627651 163.985317 
L 287.461448 164.015985 
L 287.295752 164.049285 
L 287.130605 164.085211 
L 286.966049 164.123752 
L 286.802125 164.164899 
L 286.638875 164.208642 
L 286.476339 164.25497 
L 286.314559 164.30387 
L 286.153575 164.355331 
L 285.993427 164.40934 
L 285.834157 164.465882 
L 285.675804 164.524945 
L 285.518408 164.586513 
L 285.362008 164.65057 
L 285.206645 164.7171 
L 285.052357 164.786087 
L 284.899182 164.857514 
L 284.747161 164.931361 
L 284.59633 165.007612 
L 284.446727 165.086246 
L 284.298392 165.167243 
L 284.15136 165.250584 
L 284.005668 165.336247 
L 283.861355 165.424211 
L 283.718455 165.514453 
L 283.577004 165.606951 
L 283.43704 165.701682 
L 283.298595 165.798622 
L 283.161707 165.897746 
L 283.026408 165.99903 
L 282.892733 166.102447 
L 282.760716 166.207972 
L 282.630389 166.315578 
L 282.501787 166.425239 
L 282.37494 166.536926 
L 282.249882 166.650612 
L 282.126643 166.766268 
L 282.005254 166.883864 
L 281.885746 167.003372 
L 281.76815 167.12476 
L 281.652494 167.247999 
L 281.538809 167.373058 
L 281.427121 167.499905 
L 281.317461 167.628507 
L 281.209854 167.758834 
L 281.104329 167.890851 
L 281.000912 168.024526 
L 280.899628 168.159824 
L 280.800504 168.296713 
L 280.703565 168.435157 
L 280.608834 168.575122 
L 280.516335 168.716572 
L 280.426093 168.859472 
L 280.338129 169.003786 
L 280.252466 169.149477 
L 280.169125 169.296509 
L 280.088128 169.444845 
L 280.009494 169.594447 
L 279.933244 169.745278 
L 279.859396 169.8973 
L 279.78797 170.050475 
L 279.718983 170.204763 
L 279.652452 170.360126 
L 279.588395 170.516526 
L 279.526827 170.673922 
L 279.467765 170.832275 
L 279.411222 170.991545 
L 279.357213 171.151692 
L 279.305752 171.312677 
L 279.256852 171.474457 
L 279.210524 171.636993 
L 279.166782 171.800243 
L 279.125634 171.964167 
L 279.087093 172.128723 
L 279.051168 172.293869 
L 279.017867 172.459565 
L 278.987199 172.625769 
L 278.959173 172.792438 
L 278.933794 172.959531 
L 278.911069 173.127005 
L 278.891004 173.294819 
L 278.873605 173.46293 
L 278.858875 173.631296 
L 278.846818 173.799875 
L 278.837437 173.968624 
L 278.830735 174.1375 
L 278.826713 174.306461 
L 278.825372 174.475465 
L 278.825372 238.387317 
L 278.826713 238.556321 
L 278.830735 238.725282 
L 278.837437 238.894159 
L 278.846818 239.062907 
L 278.858875 239.231486 
L 278.873605 239.399852 
L 278.891004 239.567963 
L 278.911069 239.735777 
L 278.933794 239.903251 
L 278.959173 240.070344 
L 278.987199 240.237013 
L 279.017867 240.403217 
L 279.051168 240.568913 
L 279.087093 240.73406 
L 279.125634 240.898616 
L 279.166782 241.062539 
L 279.210524 241.22579 
L 279.256852 241.388325 
L 279.305752 241.550106 
L 279.357213 241.71109 
L 279.411222 241.871237 
L 279.467765 242.030507 
L 279.526827 242.18886 
L 279.588395 242.346257 
L 279.652452 242.502656 
L 279.718983 242.658019 
L 279.78797 242.812308 
L 279.859396 242.965482 
L 279.933244 243.117504 
L 280.009494 243.268335 
L 280.088128 243.417937 
L 280.169125 243.566273 
L 280.252466 243.713305 
L 280.338129 243.858996 
L 280.426093 244.00331 
L 280.516335 244.14621 
L 280.608834 244.28766 
L 280.703565 244.427625 
L 280.800504 244.566069 
L 280.899628 244.702958 
L 281.000912 244.838257 
L 281.104329 244.971932 
L 281.209854 245.103949 
L 281.317461 245.234275 
L 281.427121 245.362878 
L 281.538809 245.489724 
L 281.652494 245.614783 
L 281.76815 245.738022 
L 281.885746 245.85941 
L 282.005254 245.978918 
L 282.126643 246.096514 
L 282.249882 246.21217 
L 282.37494 246.325856 
L 282.501787 246.437543 
L 282.630389 246.547204 
L 282.760716 246.65481 
L 282.892733 246.760335 
L 283.026408 246.863753 
L 283.161707 246.965036 
L 283.298595 247.06416 
L 283.43704 247.1611 
L 283.577004 247.255831 
L 283.718455 247.348329 
L 283.861355 247.438572 
L 284.005668 247.526535 
L 284.15136 247.612199 
L 284.298392 247.695539 
L 284.446727 247.776537 
L 284.59633 247.855171 
L 284.747161 247.931421 
L 284.899182 248.005268 
L 285.052357 248.076695 
L 285.206645 248.145682 
L 285.362008 248.212212 
L 285.518408 248.27627 
L 285.675804 248.337837 
L 285.834157 248.3969 
L 285.993427 248.453443 
L 286.153575 248.507451 
L 286.314559 248.558912 
L 286.476339 248.607813 
L 286.638875 248.65414 
L 286.802125 248.697883 
L 286.966049 248.73903 
L 287.130605 248.777571 
L 287.295752 248.813497 
L 287.461448 248.846798 
L 287.627651 248.877465 
L 287.79432 248.905492 
L 287.961413 248.930871 
L 288.128888 248.953595 
L 288.296701 248.97366 
L 288.464813 248.99106 
L 288.633179 249.00579 
L 288.801757 249.017847 
L 288.970506 249.027228 
L 289.139382 249.03393 
L 289.308343 249.037952 
L 289.477347 249.039293 
L 708.455045 249.039293 
z
" clip-path="url(#p11b26e94db)" style="fill: none; stroke-dasharray: 3.7,1.6; stroke-dashoffset: 0; stroke: #000000; stroke-linecap: round"/>
   </g>
   <g id="patch_10">
    <path d="M 498.966196 275.225399 
C 499.67243 275.225399 500.349834 274.944809 500.849217 274.445426 
C 501.3486 273.946043 501.62919 273.268639 501.62919 272.562405 
C 501.62919 271.856171 501.3486 271.178767 500.849217 270.679384 
C 500.349834 270.180001 499.67243 269.899411 498.966196 269.899411 
C 498.259962 269.899411 497.582558 270.180001 497.083175 270.679384 
C 496.583792 271.178767 496.303202 271.856171 496.303202 272.562405 
C 496.303202 273.268639 496.583792 273.946043 497.083175 274.445426 
C 497.582558 274.944809 498.259962 275.225399 498.966196 275.225399 
z
" clip-path="url(#p11b26e94db)" style="stroke: #000000; stroke-width: 2; stroke-linejoin: miter"/>
   </g>
   <g id="patch_11">
    <path d="M 498.966196 292.978691 
C 499.67243 292.978691 500.349834 292.698101 500.849217 292.198718 
C 501.3486 291.699335 501.62919 291.021931 501.62919 290.315697 
C 501.62919 289.609463 501.3486 288.932059 500.849217 288.432676 
C 500.349834 287.933293 499.67243 287.652703 498.966196 287.652703 
C 498.259962 287.652703 497.582558 287.933293 497.083175 288.432676 
C 496.583792 288.932059 496.303202 289.609463 496.303202 290.315697 
C 496.303202 291.021931 496.583792 291.699335 497.083175 292.198718 
C 497.582558 292.698101 498.259962 292.978691 498.966196 292.978691 
z
" clip-path="url(#p11b26e94db)" style="stroke: #000000; stroke-width: 2; stroke-linejoin: miter"/>
   </g>
   <g id="patch_12">
    <path d="M 498.966196 310.731983 
C 499.67243 310.731983 500.349834 310.451393 500.849217 309.95201 
C 501.3486 309.452627 501.62919 308.775224 501.62919 308.068989 
C 501.62919 307.362755 501.3486 306.685351 500.849217 306.185968 
C 500.349834 305.686585 499.67243 305.405996 498.966196 305.405996 
C 498.259962 305.405996 497.582558 305.686585 497.083175 306.185968 
C 496.583792 306.685351 496.303202 307.362755 496.303202 308.068989 
C 496.303202 308.775224 496.583792 309.452627 497.083175 309.95201 
C 497.582558 310.451393 498.259962 310.731983 498.966196 310.731983 
z
" clip-path="url(#p11b26e94db)" style="stroke: #000000; stroke-width: 2; stroke-linejoin: miter"/>
   </g>
   <g id="patch_13">
    <path d="M 294.803335 392.84096 
L 303.679981 357.334376 
L 410.199735 357.334376 
L 392.446442 428.347545 
L 285.926689 428.347545 
L 294.803335 392.84096 
z
" clip-path="url(#p11b26e94db)" style="fill: none; stroke: #000000; stroke-width: 2; stroke-linecap: round"/>
   </g>
   <g id="patch_14">
    <path d="M 436.829673 392.84096 
L 436.829673 357.334376 
L 561.102719 357.334376 
L 561.102719 428.347545 
L 436.829673 428.347545 
L 436.829673 392.84096 
z
" clip-path="url(#p11b26e94db)" style="fill: none"/>
   </g>
   <g id="patch_15">
    <path d="M 596.609304 392.84096 
L 605.48595 357.334376 
L 712.005703 357.334376 
L 694.252411 428.347545 
L 587.732658 428.347545 
L 596.609304 392.84096 
z
" clip-path="url(#p11b26e94db)" style="fill: none; stroke: #000000; stroke-width: 2; stroke-linecap: round"/>
   </g>
   <g id="patch_16">
    <path d="M 708.455045 435.448862 
L 708.624049 435.447521 
L 708.79301 435.443499 
L 708.961886 435.436796 
L 709.130635 435.427416 
L 709.299214 435.415359 
L 709.46758 435.400629 
L 709.635691 435.383229 
L 709.803505 435.363164 
L 709.970979 435.34044 
L 710.138072 435.315061 
L 710.304741 435.287034 
L 710.470945 435.256366 
L 710.636641 435.223066 
L 710.801787 435.18714 
L 710.966343 435.148599 
L 711.130267 435.107452 
L 711.293518 435.063709 
L 711.456053 435.017382 
L 711.617834 434.968481 
L 711.778818 434.91702 
L 711.938965 434.863012 
L 712.098235 434.806469 
L 712.256588 434.747406 
L 712.413984 434.685839 
L 712.570384 434.621781 
L 712.725747 434.555251 
L 712.880036 434.486264 
L 713.03321 434.414837 
L 713.185232 434.34099 
L 713.336063 434.264739 
L 713.485665 434.186106 
L 713.634001 434.105108 
L 713.781033 434.021767 
L 713.926724 433.936104 
L 714.071038 433.848141 
L 714.213938 433.757898 
L 714.355388 433.6654 
L 714.495353 433.570669 
L 714.633797 433.473729 
L 714.770686 433.374605 
L 714.905985 433.273322 
L 715.039659 433.169904 
L 715.171677 433.064379 
L 715.302003 432.956773 
L 715.430605 432.847112 
L 715.557452 432.735425 
L 715.682511 432.621739 
L 715.80575 432.506083 
L 715.927138 432.388487 
L 716.046646 432.268979 
L 716.164242 432.147591 
L 716.279898 432.024352 
L 716.393584 431.899293 
L 716.505271 431.772447 
L 716.614932 431.643844 
L 716.722538 431.513518 
L 716.828063 431.3815 
L 716.931481 431.247826 
L 717.032764 431.112527 
L 717.131888 430.975638 
L 717.228828 430.837194 
L 717.323559 430.697229 
L 717.416057 430.555779 
L 717.506299 430.412879 
L 717.594263 430.268565 
L 717.679926 430.122874 
L 717.763267 429.975842 
L 717.844265 429.827506 
L 717.922898 429.677904 
L 717.999149 429.527073 
L 718.072996 429.375051 
L 718.144423 429.221877 
L 718.21341 429.067588 
L 718.27994 428.912225 
L 718.343997 428.755825 
L 718.405565 428.598429 
L 718.464628 428.440076 
L 718.52117 428.280806 
L 718.575179 428.120659 
L 718.62664 427.959675 
L 718.675541 427.797894 
L 718.721868 427.635359 
L 718.765611 427.472108 
L 718.806758 427.308185 
L 718.845299 427.143629 
L 718.881225 426.978482 
L 718.914525 426.812786 
L 718.945193 426.646582 
L 718.97322 426.479913 
L 718.998599 426.31282 
L 719.021323 426.145346 
L 719.041388 425.977532 
L 719.058787 425.809421 
L 719.073518 425.641055 
L 719.085575 425.472476 
L 719.094955 425.303728 
L 719.101658 425.134851 
L 719.10568 424.96589 
L 719.10702 424.796886 
L 719.10702 360.885034 
L 719.10568 360.71603 
L 719.101658 360.547069 
L 719.094955 360.378193 
L 719.085575 360.209444 
L 719.073518 360.040865 
L 719.058787 359.872499 
L 719.041388 359.704388 
L 719.021323 359.536574 
L 718.998599 359.3691 
L 718.97322 359.202007 
L 718.945193 359.035338 
L 718.914525 358.869134 
L 718.881225 358.703438 
L 718.845299 358.538292 
L 718.806758 358.373736 
L 718.765611 358.209812 
L 718.721868 358.046561 
L 718.675541 357.884026 
L 718.62664 357.722245 
L 718.575179 357.561261 
L 718.52117 357.401114 
L 718.464628 357.241844 
L 718.405565 357.083491 
L 718.343997 356.926095 
L 718.27994 356.769695 
L 718.21341 356.614332 
L 718.144423 356.460043 
L 718.072996 356.306869 
L 717.999149 356.154847 
L 717.922898 356.004016 
L 717.844265 355.854414 
L 717.763267 355.706078 
L 717.679926 355.559046 
L 717.594263 355.413355 
L 717.506299 355.269041 
L 717.416057 355.126141 
L 717.323559 354.984691 
L 717.228828 354.844726 
L 717.131888 354.706282 
L 717.032764 354.569393 
L 716.931481 354.434094 
L 716.828063 354.30042 
L 716.722538 354.168402 
L 716.614932 354.038076 
L 716.505271 353.909474 
L 716.393584 353.782627 
L 716.279898 353.657568 
L 716.164242 353.534329 
L 716.046646 353.412941 
L 715.927138 353.293433 
L 715.80575 353.175837 
L 715.682511 353.060181 
L 715.557452 352.946495 
L 715.430605 352.834808 
L 715.302003 352.725147 
L 715.171677 352.617541 
L 715.039659 352.512016 
L 714.905985 352.408598 
L 714.770686 352.307315 
L 714.633797 352.208191 
L 714.495353 352.111251 
L 714.355388 352.01652 
L 714.213938 351.924022 
L 714.071038 351.83378 
L 713.926724 351.745816 
L 713.781033 351.660153 
L 713.634001 351.576812 
L 713.485665 351.495814 
L 713.336063 351.417181 
L 713.185232 351.34093 
L 713.03321 351.267083 
L 712.880036 351.195656 
L 712.725747 351.126669 
L 712.570384 351.060139 
L 712.413984 350.996082 
L 712.256588 350.934514 
L 712.098235 350.875451 
L 711.938965 350.818909 
L 711.778818 350.7649 
L 711.617834 350.713439 
L 711.456053 350.664538 
L 711.293518 350.618211 
L 711.130267 350.574468 
L 710.966343 350.533321 
L 710.801787 350.49478 
L 710.636641 350.458854 
L 710.470945 350.425554 
L 710.304741 350.394886 
L 710.138072 350.366859 
L 709.970979 350.34148 
L 709.803505 350.318756 
L 709.635691 350.298691 
L 709.46758 350.281292 
L 709.299214 350.266561 
L 709.130635 350.254504 
L 708.961886 350.245124 
L 708.79301 350.238421 
L 708.624049 350.234399 
L 708.455045 350.233059 
L 289.477347 350.233059 
L 289.308343 350.234399 
L 289.139382 350.238421 
L 288.970506 350.245124 
L 288.801757 350.254504 
L 288.633179 350.266561 
L 288.464813 350.281292 
L 288.296701 350.298691 
L 288.128888 350.318756 
L 287.961413 350.34148 
L 287.79432 350.366859 
L 287.627651 350.394886 
L 287.461448 350.425554 
L 287.295752 350.458854 
L 287.130605 350.49478 
L 286.966049 350.533321 
L 286.802125 350.574468 
L 286.638875 350.618211 
L 286.476339 350.664538 
L 286.314559 350.713439 
L 286.153575 350.7649 
L 285.993427 350.818909 
L 285.834157 350.875451 
L 285.675804 350.934514 
L 285.518408 350.996082 
L 285.362008 351.060139 
L 285.206645 351.126669 
L 285.052357 351.195656 
L 284.899182 351.267083 
L 284.747161 351.34093 
L 284.59633 351.417181 
L 284.446727 351.495814 
L 284.298392 351.576812 
L 284.15136 351.660153 
L 284.005668 351.745816 
L 283.861355 351.83378 
L 283.718455 351.924022 
L 283.577004 352.01652 
L 283.43704 352.111251 
L 283.298595 352.208191 
L 283.161707 352.307315 
L 283.026408 352.408598 
L 282.892733 352.512016 
L 282.760716 352.617541 
L 282.630389 352.725147 
L 282.501787 352.834808 
L 282.37494 352.946495 
L 282.249882 353.060181 
L 282.126643 353.175837 
L 282.005254 353.293433 
L 281.885746 353.412941 
L 281.76815 353.534329 
L 281.652494 353.657568 
L 281.538809 353.782627 
L 281.427121 353.909474 
L 281.317461 354.038076 
L 281.209854 354.168402 
L 281.104329 354.30042 
L 281.000912 354.434094 
L 280.899628 354.569393 
L 280.800504 354.706282 
L 280.703565 354.844726 
L 280.608834 354.984691 
L 280.516335 355.126141 
L 280.426093 355.269041 
L 280.338129 355.413355 
L 280.252466 355.559046 
L 280.169125 355.706078 
L 280.088128 355.854414 
L 280.009494 356.004016 
L 279.933244 356.154847 
L 279.859396 356.306869 
L 279.78797 356.460043 
L 279.718983 356.614332 
L 279.652452 356.769695 
L 279.588395 356.926095 
L 279.526827 357.083491 
L 279.467765 357.241844 
L 279.411222 357.401114 
L 279.357213 357.561261 
L 279.305752 357.722245 
L 279.256852 357.884026 
L 279.210524 358.046561 
L 279.166782 358.209812 
L 279.125634 358.373736 
L 279.087093 358.538292 
L 279.051168 358.703438 
L 279.017867 358.869134 
L 278.987199 359.035338 
L 278.959173 359.202007 
L 278.933794 359.3691 
L 278.911069 359.536574 
L 278.891004 359.704388 
L 278.873605 359.872499 
L 278.858875 360.040865 
L 278.846818 360.209444 
L 278.837437 360.378193 
L 278.830735 360.547069 
L 278.826713 360.71603 
L 278.825372 360.885034 
L 278.825372 424.796886 
L 278.826713 424.96589 
L 278.830735 425.134851 
L 278.837437 425.303728 
L 278.846818 425.472476 
L 278.858875 425.641055 
L 278.873605 425.809421 
L 278.891004 425.977532 
L 278.911069 426.145346 
L 278.933794 426.31282 
L 278.959173 426.479913 
L 278.987199 426.646582 
L 279.017867 426.812786 
L 279.051168 426.978482 
L 279.087093 427.143629 
L 279.125634 427.308185 
L 279.166782 427.472108 
L 279.210524 427.635359 
L 279.256852 427.797894 
L 279.305752 427.959675 
L 279.357213 428.120659 
L 279.411222 428.280806 
L 279.467765 428.440076 
L 279.526827 428.598429 
L 279.588395 428.755825 
L 279.652452 428.912225 
L 279.718983 429.067588 
L 279.78797 429.221877 
L 279.859396 429.375051 
L 279.933244 429.527073 
L 280.009494 429.677904 
L 280.088128 429.827506 
L 280.169125 429.975842 
L 280.252466 430.122874 
L 280.338129 430.268565 
L 280.426093 430.412879 
L 280.516335 430.555779 
L 280.608834 430.697229 
L 280.703565 430.837194 
L 280.800504 430.975638 
L 280.899628 431.112527 
L 281.000912 431.247826 
L 281.104329 431.3815 
L 281.209854 431.513518 
L 281.317461 431.643844 
L 281.427121 431.772447 
L 281.538809 431.899293 
L 281.652494 432.024352 
L 281.76815 432.147591 
L 281.885746 432.268979 
L 282.005254 432.388487 
L 282.126643 432.506083 
L 282.249882 432.621739 
L 282.37494 432.735425 
L 282.501787 432.847112 
L 282.630389 432.956773 
L 282.760716 433.064379 
L 282.892733 433.169904 
L 283.026408 433.273322 
L 283.161707 433.374605 
L 283.298595 433.473729 
L 283.43704 433.570669 
L 283.577004 433.6654 
L 283.718455 433.757898 
L 283.861355 433.848141 
L 284.005668 433.936104 
L 284.15136 434.021767 
L 284.298392 434.105108 
L 284.446727 434.186106 
L 284.59633 434.264739 
L 284.747161 434.34099 
L 284.899182 434.414837 
L 285.052357 434.486264 
L 285.206645 434.555251 
L 285.362008 434.621781 
L 285.518408 434.685839 
L 285.675804 434.747406 
L 285.834157 434.806469 
L 285.993427 434.863012 
L 286.153575 434.91702 
L 286.314559 434.968481 
L 286.476339 435.017382 
L 286.638875 435.063709 
L 286.802125 435.107452 
L 286.966049 435.148599 
L 287.130605 435.18714 
L 287.295752 435.223066 
L 287.461448 435.256366 
L 287.627651 435.287034 
L 287.79432 435.315061 
L 287.961413 435.34044 
L 288.128888 435.363164 
L 288.296701 435.383229 
L 288.464813 435.400629 
L 288.633179 435.415359 
L 288.801757 435.427416 
L 288.970506 435.436796 
L 289.139382 435.443499 
L 289.308343 435.447521 
L 289.477347 435.448862 
L 708.455045 435.448862 
z
" clip-path="url(#p11b26e94db)" style="fill: none; stroke-dasharray: 3.7,1.6; stroke-dashoffset: 0; stroke: #000000; stroke-linecap: round"/>
   </g>
   <g id="patch_17">
    <path d="M 19.627305 82.158345 
L 28.503951 46.651761 
L 223.790166 46.651761 
L 206.036874 117.66493 
L 10.750658 117.66493 
L 19.627305 82.158345 
z
" clip-path="url(#p11b26e94db)" style="fill: none; stroke: #000000; stroke-width: 2; stroke-linecap: round"/>
   </g>
   <g id="patch_18">
    <path d="M 783.018873 82.158345 
L 791.895519 46.651761 
L 987.181734 46.651761 
L 969.428442 117.66493 
L 774.142226 117.66493 
L 783.018873 82.158345 
z
" clip-path="url(#p11b26e94db)" style="fill: none; stroke: #000000; stroke-width: 2; stroke-linecap: round"/>
   </g>
   <g id="line2d_1">
    <path d="M 81.763828 206.431391 
L 81.763828 170.924807 
L 188.283581 170.924807 
L 188.283581 241.937976 
L 81.763828 241.937976 
L 81.763828 206.431391 
" clip-path="url(#p11b26e94db)" style="fill: none; stroke: #000000; stroke-width: 2; stroke-linecap: round"/>
   </g>
   <g id="line2d_2">
    <path d="M 401.323089 82.158345 
L 419.076381 82.158345 
L 427.953027 82.158345 
" clip-path="url(#p11b26e94db)" style="fill: none; stroke: #000000; stroke-width: 2; stroke-linecap: round"/>
   </g>
   <g id="patch_19">
    <path d="M 427.953027 79.495351 
L 436.829673 82.158345 
L 427.953027 84.821339 
z
" clip-path="url(#p11b26e94db)"/>
   </g>
   <g id="line2d_3">
    <path d="M 436.829673 82.158345 
L 436.829673 46.651761 
L 561.102719 46.651761 
L 561.102719 117.66493 
L 436.829673 117.66493 
L 436.829673 82.158345 
" clip-path="url(#p11b26e94db)" style="fill: none; stroke: #000000; stroke-width: 2; stroke-linecap: round"/>
   </g>
   <g id="line2d_4">
    <path d="M 550.450744 46.651761 
L 550.450744 117.66493 
" clip-path="url(#p11b26e94db)" style="fill: none; stroke: #000000; stroke-width: 2; stroke-linecap: round"/>
   </g>
   <g id="line2d_5">
    <path d="M 447.481649 46.651761 
L 447.481649 117.66493 
" clip-path="url(#p11b26e94db)" style="fill: none; stroke: #000000; stroke-width: 2; stroke-linecap: round"/>
   </g>
   <g id="line2d_6">
    <path d="M 561.102719 82.158345 
L 578.856011 82.158345 
L 587.732658 82.158345 
" clip-path="url(#p11b26e94db)" style="fill: none; stroke: #000000; stroke-width: 2; stroke-linecap: round"/>
   </g>
   <g id="patch_20">
    <path d="M 587.732658 79.495351 
L 596.609304 82.158345 
L 587.732658 84.821339 
z
" clip-path="url(#p11b26e94db)"/>
   </g>
   <g id="line2d_7">
    <path d="M 401.323089 206.431391 
L 419.076381 206.431391 
L 427.953027 206.431391 
" clip-path="url(#p11b26e94db)" style="fill: none; stroke: #000000; stroke-width: 2; stroke-linecap: round"/>
   </g>
   <g id="patch_21">
    <path d="M 427.953027 203.768397 
L 436.829673 206.431391 
L 427.953027 209.094385 
z
" clip-path="url(#p11b26e94db)"/>
   </g>
   <g id="line2d_8">
    <path d="M 436.829673 206.431391 
L 436.829673 170.924807 
L 561.102719 170.924807 
L 561.102719 241.937976 
L 436.829673 241.937976 
L 436.829673 206.431391 
" clip-path="url(#p11b26e94db)" style="fill: none; stroke: #000000; stroke-width: 2; stroke-linecap: round"/>
   </g>
   <g id="line2d_9">
    <path d="M 550.450744 170.924807 
L 550.450744 241.937976 
" clip-path="url(#p11b26e94db)" style="fill: none; stroke: #000000; stroke-width: 2; stroke-linecap: round"/>
   </g>
   <g id="line2d_10">
    <path d="M 447.481649 170.924807 
L 447.481649 241.937976 
" clip-path="url(#p11b26e94db)" style="fill: none; stroke: #000000; stroke-width: 2; stroke-linecap: round"/>
   </g>
   <g id="line2d_11">
    <path d="M 561.102719 206.431391 
L 578.856011 206.431391 
L 587.732658 206.431391 
" clip-path="url(#p11b26e94db)" style="fill: none; stroke: #000000; stroke-width: 2; stroke-linecap: round"/>
   </g>
   <g id="patch_22">
    <path d="M 587.732658 203.768397 
L 596.609304 206.431391 
L 587.732658 209.094385 
z
" clip-path="url(#p11b26e94db)"/>
   </g>
   <g id="line2d_12">
    <path d="M 401.323089 392.84096 
L 419.076381 392.84096 
L 427.953027 392.84096 
" clip-path="url(#p11b26e94db)" style="fill: none; stroke: #000000; stroke-width: 2; stroke-linecap: round"/>
   </g>
   <g id="patch_23">
    <path d="M 427.953027 390.177966 
L 436.829673 392.84096 
L 427.953027 395.503954 
z
" clip-path="url(#p11b26e94db)"/>
   </g>
   <g id="line2d_13">
    <path d="M 436.829673 392.84096 
L 436.829673 357.334376 
L 561.102719 357.334376 
L 561.102719 428.347545 
L 436.829673 428.347545 
L 436.829673 392.84096 
" clip-path="url(#p11b26e94db)" style="fill: none; stroke: #000000; stroke-width: 2; stroke-linecap: round"/>
   </g>
   <g id="line2d_14">
    <path d="M 550.450744 357.334376 
L 550.450744 428.347545 
" clip-path="url(#p11b26e94db)" style="fill: none; stroke: #000000; stroke-width: 2; stroke-linecap: round"/>
   </g>
   <g id="line2d_15">
    <path d="M 447.481649 357.334376 
L 447.481649 428.347545 
" clip-path="url(#p11b26e94db)" style="fill: none; stroke: #000000; stroke-width: 2; stroke-linecap: round"/>
   </g>
   <g id="line2d_16">
    <path d="M 561.102719 392.84096 
L 578.856011 392.84096 
L 587.732658 392.84096 
" clip-path="url(#p11b26e94db)" style="fill: none; stroke: #000000; stroke-width: 2; stroke-linecap: round"/>
   </g>
   <g id="patch_24">
    <path d="M 587.732658 390.177966 
L 596.609304 392.84096 
L 587.732658 395.503954 
z
" clip-path="url(#p11b26e94db)"/>
   </g>
   <g id="line2d_17">
    <path d="M 188.283581 206.431391 
L 223.790166 206.431391 
L 259.29675 82.158345 
L 285.926689 82.158345 
" clip-path="url(#p11b26e94db)" style="fill: none; stroke: #000000; stroke-width: 2; stroke-linecap: round"/>
   </g>
   <g id="patch_25">
    <path d="M 285.926689 79.495351 
L 294.803335 82.158345 
L 285.926689 84.821339 
z
" clip-path="url(#p11b26e94db)"/>
   </g>
   <g id="line2d_18">
    <path d="M 188.283581 206.431391 
L 223.790166 206.431391 
L 259.29675 206.431391 
L 285.926689 206.431391 
" clip-path="url(#p11b26e94db)" style="fill: none; stroke: #000000; stroke-width: 2; stroke-linecap: round"/>
   </g>
   <g id="patch_26">
    <path d="M 285.926689 203.768397 
L 294.803335 206.431391 
L 285.926689 209.094385 
z
" clip-path="url(#p11b26e94db)"/>
   </g>
   <g id="line2d_19">
    <path d="M 188.283581 206.431391 
L 223.790166 206.431391 
L 259.29675 392.84096 
L 285.926689 392.84096 
" clip-path="url(#p11b26e94db)" style="fill: none; stroke: #000000; stroke-width: 2; stroke-linecap: round"/>
   </g>
   <g id="patch_27">
    <path d="M 285.926689 390.177966 
L 294.803335 392.84096 
L 285.926689 395.503954 
z
" clip-path="url(#p11b26e94db)"/>
   </g>
   <g id="line2d_20">
    <path d="M 809.648811 206.431391 
L 809.648811 170.924807 
L 916.168565 170.924807 
L 916.168565 241.937976 
L 809.648811 241.937976 
L 809.648811 206.431391 
" clip-path="url(#p11b26e94db)" style="fill: none; stroke: #000000; stroke-width: 2; stroke-linecap: round"/>
   </g>
   <g id="line2d_21">
    <path d="M 703.129057 82.158345 
L 738.635642 82.158345 
L 774.142226 206.431391 
L 800.772165 206.431391 
" clip-path="url(#p11b26e94db)" style="fill: none; stroke: #000000; stroke-width: 2; stroke-linecap: round"/>
   </g>
   <g id="patch_28">
    <path d="M 800.772165 203.768397 
L 809.648811 206.431391 
L 800.772165 209.094385 
z
" clip-path="url(#p11b26e94db)"/>
   </g>
   <g id="line2d_22">
    <path d="M 703.129057 206.431391 
L 738.635642 206.431391 
L 774.142226 206.431391 
L 800.772165 206.431391 
" clip-path="url(#p11b26e94db)" style="fill: none; stroke: #000000; stroke-width: 2; stroke-linecap: round"/>
   </g>
   <g id="patch_29">
    <path d="M 800.772165 203.768397 
L 809.648811 206.431391 
L 800.772165 209.094385 
z
" clip-path="url(#p11b26e94db)"/>
   </g>
   <g id="line2d_23">
    <path d="M 703.129057 392.84096 
L 738.635642 392.84096 
L 774.142226 206.431391 
L 800.772165 206.431391 
" clip-path="url(#p11b26e94db)" style="fill: none; stroke: #000000; stroke-width: 2; stroke-linecap: round"/>
   </g>
   <g id="patch_30">
    <path d="M 800.772165 203.768397 
L 809.648811 206.431391 
L 800.772165 209.094385 
z
" clip-path="url(#p11b26e94db)"/>
   </g>
   <g id="line2d_24">
    <path d="M 108.393766 117.66493 
L 121.708735 144.294868 
L 131.053948 162.985293 
" clip-path="url(#p11b26e94db)" style="fill: none; stroke: #000000; stroke-width: 2; stroke-linecap: round"/>
   </g>
   <g id="patch_31">
    <path d="M 133.435802 161.794366 
L 135.023704 170.924807 
L 128.672093 164.17622 
z
" clip-path="url(#p11b26e94db)"/>
   </g>
   <g id="line2d_25">
    <path d="M 870.326022 126.4208 
L 867.347011 144.294868 
L 862.908688 170.924807 
" clip-path="url(#p11b26e94db)" style="fill: none; stroke: #000000; stroke-width: 2; stroke-linecap: round"/>
   </g>
   <g id="patch_32">
    <path d="M 867.699261 125.983006 
L 871.785334 117.66493 
L 872.952783 126.858593 
z
" clip-path="url(#p11b26e94db)"/>
   </g>
   <g id="text_1">
    <g clip-path="url(#p11b26e94db)">
     <!-- random -->
     <g transform="translate(110.78347 202.881977) scale(0.125 -0.125)">
      <defs>
       <path id="DejaVuSans-72" d="M 2631 2963 
Q 2534 3019 2420 3045 
Q 2306 3072 2169 3072 
Q 1681 3072 1420 2755 
Q 1159 2438 1159 1844 
L 1159 0 
L 581 0 
L 581 3500 
L 1159 3500 
L 1159 2956 
Q 1341 3275 1631 3429 
Q 1922 3584 2338 3584 
Q 2397 3584 2469 3576 
Q 2541 3569 2628 3553 
L 2631 2963 
z
" transform="scale(0.015625)"/>
       <path id="DejaVuSans-61" d="M 2194 1759 
Q 1497 1759 1228 1600 
Q 959 1441 959 1056 
Q 959 750 1161 570 
Q 1363 391 1709 391 
Q 2188 391 2477 730 
Q 2766 1069 2766 1631 
L 2766 1759 
L 2194 1759 
z
M 3341 1997 
L 3341 0 
L 2766 0 
L 2766 531 
Q 2569 213 2275 61 
Q 1981 -91 1556 -91 
Q 1019 -91 701 211 
Q 384 513 384 1019 
Q 384 1609 779 1909 
Q 1175 2209 1959 2209 
L 2766 2209 
L 2766 2266 
Q 2766 2663 2505 2880 
Q 2244 3097 1772 3097 
Q 1472 3097 1187 3025 
Q 903 2953 641 2809 
L 641 3341 
Q 956 3463 1253 3523 
Q 1550 3584 1831 3584 
Q 2591 3584 2966 3190 
Q 3341 2797 3341 1997 
z
" transform="scale(0.015625)"/>
       <path id="DejaVuSans-6e" d="M 3513 2113 
L 3513 0 
L 2938 0 
L 2938 2094 
Q 2938 2591 2744 2837 
Q 2550 3084 2163 3084 
Q 1697 3084 1428 2787 
Q 1159 2491 1159 1978 
L 1159 0 
L 581 0 
L 581 3500 
L 1159 3500 
L 1159 2956 
Q 1366 3272 1645 3428 
Q 1925 3584 2291 3584 
Q 2894 3584 3203 3211 
Q 3513 2838 3513 2113 
z
" transform="scale(0.015625)"/>
       <path id="DejaVuSans-64" d="M 2906 2969 
L 2906 4863 
L 3481 4863 
L 3481 0 
L 2906 0 
L 2906 525 
Q 2725 213 2448 61 
Q 2172 -91 1784 -91 
Q 1150 -91 751 415 
Q 353 922 353 1747 
Q 353 2572 751 3078 
Q 1150 3584 1784 3584 
Q 2172 3584 2448 3432 
Q 2725 3281 2906 2969 
z
M 947 1747 
Q 947 1113 1208 752 
Q 1469 391 1925 391 
Q 2381 391 2643 752 
Q 2906 1113 2906 1747 
Q 2906 2381 2643 2742 
Q 2381 3103 1925 3103 
Q 1469 3103 1208 2742 
Q 947 2381 947 1747 
z
" transform="scale(0.015625)"/>
       <path id="DejaVuSans-6f" d="M 1959 3097 
Q 1497 3097 1228 2736 
Q 959 2375 959 1747 
Q 959 1119 1226 758 
Q 1494 397 1959 397 
Q 2419 397 2687 759 
Q 2956 1122 2956 1747 
Q 2956 2369 2687 2733 
Q 2419 3097 1959 3097 
z
M 1959 3584 
Q 2709 3584 3137 3096 
Q 3566 2609 3566 1747 
Q 3566 888 3137 398 
Q 2709 -91 1959 -91 
Q 1206 -91 779 398 
Q 353 888 353 1747 
Q 353 2609 779 3096 
Q 1206 3584 1959 3584 
z
" transform="scale(0.015625)"/>
       <path id="DejaVuSans-6d" d="M 3328 2828 
Q 3544 3216 3844 3400 
Q 4144 3584 4550 3584 
Q 5097 3584 5394 3201 
Q 5691 2819 5691 2113 
L 5691 0 
L 5113 0 
L 5113 2094 
Q 5113 2597 4934 2840 
Q 4756 3084 4391 3084 
Q 3944 3084 3684 2787 
Q 3425 2491 3425 1978 
L 3425 0 
L 2847 0 
L 2847 2094 
Q 2847 2600 2669 2842 
Q 2491 3084 2119 3084 
Q 1678 3084 1418 2786 
Q 1159 2488 1159 1978 
L 1159 0 
L 581 0 
L 581 3500 
L 1159 3500 
L 1159 2956 
Q 1356 3278 1631 3431 
Q 1906 3584 2284 3584 
Q 2666 3584 2933 3390 
Q 3200 3197 3328 2828 
z
" transform="scale(0.015625)"/>
      </defs>
      <use xlink:href="#DejaVuSans-72"/>
      <use xlink:href="#DejaVuSans-61" x="41.113281"/>
      <use xlink:href="#DejaVuSans-6e" x="102.392578"/>
      <use xlink:href="#DejaVuSans-64" x="165.771484"/>
      <use xlink:href="#DejaVuSans-6f" x="229.248047"/>
      <use xlink:href="#DejaVuSans-6d" x="290.429688"/>
     </g>
    </g>
    <g clip-path="url(#p11b26e94db)">
     <!-- sampling -->
     <g transform="translate(106.480736 216.879243) scale(0.125 -0.125)">
      <defs>
       <path id="DejaVuSans-73" d="M 2834 3397 
L 2834 2853 
Q 2591 2978 2328 3040 
Q 2066 3103 1784 3103 
Q 1356 3103 1142 2972 
Q 928 2841 928 2578 
Q 928 2378 1081 2264 
Q 1234 2150 1697 2047 
L 1894 2003 
Q 2506 1872 2764 1633 
Q 3022 1394 3022 966 
Q 3022 478 2636 193 
Q 2250 -91 1575 -91 
Q 1294 -91 989 -36 
Q 684 19 347 128 
L 347 722 
Q 666 556 975 473 
Q 1284 391 1588 391 
Q 1994 391 2212 530 
Q 2431 669 2431 922 
Q 2431 1156 2273 1281 
Q 2116 1406 1581 1522 
L 1381 1569 
Q 847 1681 609 1914 
Q 372 2147 372 2553 
Q 372 3047 722 3315 
Q 1072 3584 1716 3584 
Q 2034 3584 2315 3537 
Q 2597 3491 2834 3397 
z
" transform="scale(0.015625)"/>
       <path id="DejaVuSans-70" d="M 1159 525 
L 1159 -1331 
L 581 -1331 
L 581 3500 
L 1159 3500 
L 1159 2969 
Q 1341 3281 1617 3432 
Q 1894 3584 2278 3584 
Q 2916 3584 3314 3078 
Q 3713 2572 3713 1747 
Q 3713 922 3314 415 
Q 2916 -91 2278 -91 
Q 1894 -91 1617 61 
Q 1341 213 1159 525 
z
M 3116 1747 
Q 3116 2381 2855 2742 
Q 2594 3103 2138 3103 
Q 1681 3103 1420 2742 
Q 1159 2381 1159 1747 
Q 1159 1113 1420 752 
Q 1681 391 2138 391 
Q 2594 391 2855 752 
Q 3116 1113 3116 1747 
z
" transform="scale(0.015625)"/>
       <path id="DejaVuSans-6c" d="M 603 4863 
L 1178 4863 
L 1178 0 
L 603 0 
L 603 4863 
z
" transform="scale(0.015625)"/>
       <path id="DejaVuSans-69" d="M 603 3500 
L 1178 3500 
L 1178 0 
L 603 0 
L 603 3500 
z
M 603 4863 
L 1178 4863 
L 1178 4134 
L 603 4134 
L 603 4863 
z
" transform="scale(0.015625)"/>
       <path id="DejaVuSans-67" d="M 2906 1791 
Q 2906 2416 2648 2759 
Q 2391 3103 1925 3103 
Q 1463 3103 1205 2759 
Q 947 2416 947 1791 
Q 947 1169 1205 825 
Q 1463 481 1925 481 
Q 2391 481 2648 825 
Q 2906 1169 2906 1791 
z
M 3481 434 
Q 3481 -459 3084 -895 
Q 2688 -1331 1869 -1331 
Q 1566 -1331 1297 -1286 
Q 1028 -1241 775 -1147 
L 775 -588 
Q 1028 -725 1275 -790 
Q 1522 -856 1778 -856 
Q 2344 -856 2625 -561 
Q 2906 -266 2906 331 
L 2906 616 
Q 2728 306 2450 153 
Q 2172 0 1784 0 
Q 1141 0 747 490 
Q 353 981 353 1791 
Q 353 2603 747 3093 
Q 1141 3584 1784 3584 
Q 2172 3584 2450 3431 
Q 2728 3278 2906 2969 
L 2906 3500 
L 3481 3500 
L 3481 434 
z
" transform="scale(0.015625)"/>
      </defs>
      <use xlink:href="#DejaVuSans-73"/>
      <use xlink:href="#DejaVuSans-61" x="52.099609"/>
      <use xlink:href="#DejaVuSans-6d" x="113.378906"/>
      <use xlink:href="#DejaVuSans-70" x="210.791016"/>
      <use xlink:href="#DejaVuSans-6c" x="274.267578"/>
      <use xlink:href="#DejaVuSans-69" x="302.050781"/>
      <use xlink:href="#DejaVuSans-6e" x="329.833984"/>
      <use xlink:href="#DejaVuSans-67" x="393.212891"/>
     </g>
    </g>
   </g>
   <g id="text_2">
    <g clip-path="url(#p11b26e94db)">
     <!-- random -->
     <g transform="translate(323.822977 78.608931) scale(0.125 -0.125)">
      <use xlink:href="#DejaVuSans-72"/>
      <use xlink:href="#DejaVuSans-61" x="41.113281"/>
      <use xlink:href="#DejaVuSans-6e" x="102.392578"/>
      <use xlink:href="#DejaVuSans-64" x="165.771484"/>
      <use xlink:href="#DejaVuSans-6f" x="229.248047"/>
      <use xlink:href="#DejaVuSans-6d" x="290.429688"/>
     </g>
    </g>
    <g clip-path="url(#p11b26e94db)">
     <!-- input state -->
     <g transform="translate(314.168681 92.606197) scale(0.125 -0.125)">
      <defs>
       <path id="DejaVuSans-75" d="M 544 1381 
L 544 3500 
L 1119 3500 
L 1119 1403 
Q 1119 906 1312 657 
Q 1506 409 1894 409 
Q 2359 409 2629 706 
Q 2900 1003 2900 1516 
L 2900 3500 
L 3475 3500 
L 3475 0 
L 2900 0 
L 2900 538 
Q 2691 219 2414 64 
Q 2138 -91 1772 -91 
Q 1169 -91 856 284 
Q 544 659 544 1381 
z
M 1991 3584 
L 1991 3584 
z
" transform="scale(0.015625)"/>
       <path id="DejaVuSans-74" d="M 1172 4494 
L 1172 3500 
L 2356 3500 
L 2356 3053 
L 1172 3053 
L 1172 1153 
Q 1172 725 1289 603 
Q 1406 481 1766 481 
L 2356 481 
L 2356 0 
L 1766 0 
Q 1100 0 847 248 
Q 594 497 594 1153 
L 594 3053 
L 172 3053 
L 172 3500 
L 594 3500 
L 594 4494 
L 1172 4494 
z
" transform="scale(0.015625)"/>
       <path id="DejaVuSans-20" transform="scale(0.015625)"/>
       <path id="DejaVuSans-65" d="M 3597 1894 
L 3597 1613 
L 953 1613 
Q 991 1019 1311 708 
Q 1631 397 2203 397 
Q 2534 397 2845 478 
Q 3156 559 3463 722 
L 3463 178 
Q 3153 47 2828 -22 
Q 2503 -91 2169 -91 
Q 1331 -91 842 396 
Q 353 884 353 1716 
Q 353 2575 817 3079 
Q 1281 3584 2069 3584 
Q 2775 3584 3186 3129 
Q 3597 2675 3597 1894 
z
M 3022 2063 
Q 3016 2534 2758 2815 
Q 2500 3097 2075 3097 
Q 1594 3097 1305 2825 
Q 1016 2553 972 2059 
L 3022 2063 
z
" transform="scale(0.015625)"/>
      </defs>
      <use xlink:href="#DejaVuSans-69"/>
      <use xlink:href="#DejaVuSans-6e" x="27.783203"/>
      <use xlink:href="#DejaVuSans-70" x="91.162109"/>
      <use xlink:href="#DejaVuSans-75" x="154.638672"/>
      <use xlink:href="#DejaVuSans-74" x="218.017578"/>
      <use xlink:href="#DejaVuSans-20" x="257.226562"/>
      <use xlink:href="#DejaVuSans-73" x="289.013672"/>
      <use xlink:href="#DejaVuSans-74" x="341.113281"/>
      <use xlink:href="#DejaVuSans-61" x="380.322266"/>
      <use xlink:href="#DejaVuSans-74" x="441.601562"/>
      <use xlink:href="#DejaVuSans-65" x="480.810547"/>
     </g>
    </g>
   </g>
   <g id="text_3">
    <g clip-path="url(#p11b26e94db)">
     <!-- simulation -->
     <g transform="translate(466.387095 85.607564) scale(0.125 -0.125)">
      <use xlink:href="#DejaVuSans-73"/>
      <use xlink:href="#DejaVuSans-69" x="52.099609"/>
      <use xlink:href="#DejaVuSans-6d" x="79.882812"/>
      <use xlink:href="#DejaVuSans-75" x="177.294922"/>
      <use xlink:href="#DejaVuSans-6c" x="240.673828"/>
      <use xlink:href="#DejaVuSans-61" x="268.457031"/>
      <use xlink:href="#DejaVuSans-74" x="329.736328"/>
      <use xlink:href="#DejaVuSans-69" x="368.945312"/>
      <use xlink:href="#DejaVuSans-6f" x="396.728516"/>
      <use xlink:href="#DejaVuSans-6e" x="457.910156"/>
     </g>
    </g>
   </g>
   <g id="text_4">
    <g clip-path="url(#p11b26e94db)">
     <!-- result data -->
     <g transform="translate(616.126993 85.607564) scale(0.125 -0.125)">
      <use xlink:href="#DejaVuSans-72"/>
      <use xlink:href="#DejaVuSans-65" x="38.863281"/>
      <use xlink:href="#DejaVuSans-73" x="100.386719"/>
      <use xlink:href="#DejaVuSans-75" x="152.486328"/>
      <use xlink:href="#DejaVuSans-6c" x="215.865234"/>
      <use xlink:href="#DejaVuSans-74" x="243.648438"/>
      <use xlink:href="#DejaVuSans-20" x="282.857422"/>
      <use xlink:href="#DejaVuSans-64" x="314.644531"/>
      <use xlink:href="#DejaVuSans-61" x="378.121094"/>
      <use xlink:href="#DejaVuSans-74" x="439.400391"/>
      <use xlink:href="#DejaVuSans-61" x="478.609375"/>
     </g>
    </g>
   </g>
   <g id="text_5">
    <g clip-path="url(#p11b26e94db)">
     <!-- Run #1 -->
     <g transform="translate(475.782602 33.400176) scale(0.125 -0.125)">
      <defs>
       <path id="DejaVuSans-52" d="M 2841 2188 
Q 3044 2119 3236 1894 
Q 3428 1669 3622 1275 
L 4263 0 
L 3584 0 
L 2988 1197 
Q 2756 1666 2539 1819 
Q 2322 1972 1947 1972 
L 1259 1972 
L 1259 0 
L 628 0 
L 628 4666 
L 2053 4666 
Q 2853 4666 3247 4331 
Q 3641 3997 3641 3322 
Q 3641 2881 3436 2590 
Q 3231 2300 2841 2188 
z
M 1259 4147 
L 1259 2491 
L 2053 2491 
Q 2509 2491 2742 2702 
Q 2975 2913 2975 3322 
Q 2975 3731 2742 3939 
Q 2509 4147 2053 4147 
L 1259 4147 
z
" transform="scale(0.015625)"/>
       <path id="DejaVuSans-23" d="M 3272 2816 
L 2363 2816 
L 2100 1772 
L 3016 1772 
L 3272 2816 
z
M 2803 4594 
L 2478 3297 
L 3391 3297 
L 3719 4594 
L 4219 4594 
L 3897 3297 
L 4872 3297 
L 4872 2816 
L 3775 2816 
L 3519 1772 
L 4513 1772 
L 4513 1294 
L 3397 1294 
L 3072 0 
L 2572 0 
L 2894 1294 
L 1978 1294 
L 1656 0 
L 1153 0 
L 1478 1294 
L 494 1294 
L 494 1772 
L 1594 1772 
L 1856 2816 
L 850 2816 
L 850 3297 
L 1978 3297 
L 2297 4594 
L 2803 4594 
z
" transform="scale(0.015625)"/>
       <path id="DejaVuSans-31" d="M 794 531 
L 1825 531 
L 1825 4091 
L 703 3866 
L 703 4441 
L 1819 4666 
L 2450 4666 
L 2450 531 
L 3481 531 
L 3481 0 
L 794 0 
L 794 531 
z
" transform="scale(0.015625)"/>
      </defs>
      <use xlink:href="#DejaVuSans-52"/>
      <use xlink:href="#DejaVuSans-75" x="64.982422"/>
      <use xlink:href="#DejaVuSans-6e" x="128.361328"/>
      <use xlink:href="#DejaVuSans-20" x="191.740234"/>
      <use xlink:href="#DejaVuSans-23" x="223.527344"/>
      <use xlink:href="#DejaVuSans-31" x="307.316406"/>
     </g>
    </g>
   </g>
   <g id="text_6">
    <g clip-path="url(#p11b26e94db)">
     <!-- random -->
     <g transform="translate(323.822977 202.881977) scale(0.125 -0.125)">
      <use xlink:href="#DejaVuSans-72"/>
      <use xlink:href="#DejaVuSans-61" x="41.113281"/>
      <use xlink:href="#DejaVuSans-6e" x="102.392578"/>
      <use xlink:href="#DejaVuSans-64" x="165.771484"/>
      <use xlink:href="#DejaVuSans-6f" x="229.248047"/>
      <use xlink:href="#DejaVuSans-6d" x="290.429688"/>
     </g>
    </g>
    <g clip-path="url(#p11b26e94db)">
     <!-- input state -->
     <g transform="translate(314.168681 216.879243) scale(0.125 -0.125)">
      <use xlink:href="#DejaVuSans-69"/>
      <use xlink:href="#DejaVuSans-6e" x="27.783203"/>
      <use xlink:href="#DejaVuSans-70" x="91.162109"/>
      <use xlink:href="#DejaVuSans-75" x="154.638672"/>
      <use xlink:href="#DejaVuSans-74" x="218.017578"/>
      <use xlink:href="#DejaVuSans-20" x="257.226562"/>
      <use xlink:href="#DejaVuSans-73" x="289.013672"/>
      <use xlink:href="#DejaVuSans-74" x="341.113281"/>
      <use xlink:href="#DejaVuSans-61" x="380.322266"/>
      <use xlink:href="#DejaVuSans-74" x="441.601562"/>
      <use xlink:href="#DejaVuSans-65" x="480.810547"/>
     </g>
    </g>
   </g>
   <g id="text_7">
    <g clip-path="url(#p11b26e94db)">
     <!-- simulation -->
     <g transform="translate(466.387095 209.88061) scale(0.125 -0.125)">
      <use xlink:href="#DejaVuSans-73"/>
      <use xlink:href="#DejaVuSans-69" x="52.099609"/>
      <use xlink:href="#DejaVuSans-6d" x="79.882812"/>
      <use xlink:href="#DejaVuSans-75" x="177.294922"/>
      <use xlink:href="#DejaVuSans-6c" x="240.673828"/>
      <use xlink:href="#DejaVuSans-61" x="268.457031"/>
      <use xlink:href="#DejaVuSans-74" x="329.736328"/>
      <use xlink:href="#DejaVuSans-69" x="368.945312"/>
      <use xlink:href="#DejaVuSans-6f" x="396.728516"/>
      <use xlink:href="#DejaVuSans-6e" x="457.910156"/>
     </g>
    </g>
   </g>
   <g id="text_8">
    <g clip-path="url(#p11b26e94db)">
     <!-- result data -->
     <g transform="translate(616.126993 209.88061) scale(0.125 -0.125)">
      <use xlink:href="#DejaVuSans-72"/>
      <use xlink:href="#DejaVuSans-65" x="38.863281"/>
      <use xlink:href="#DejaVuSans-73" x="100.386719"/>
      <use xlink:href="#DejaVuSans-75" x="152.486328"/>
      <use xlink:href="#DejaVuSans-6c" x="215.865234"/>
      <use xlink:href="#DejaVuSans-74" x="243.648438"/>
      <use xlink:href="#DejaVuSans-20" x="282.857422"/>
      <use xlink:href="#DejaVuSans-64" x="314.644531"/>
      <use xlink:href="#DejaVuSans-61" x="378.121094"/>
      <use xlink:href="#DejaVuSans-74" x="439.400391"/>
      <use xlink:href="#DejaVuSans-61" x="478.609375"/>
     </g>
    </g>
   </g>
   <g id="text_9">
    <g clip-path="url(#p11b26e94db)">
     <!-- Run #2 -->
     <g transform="translate(475.782602 157.673222) scale(0.125 -0.125)">
      <defs>
       <path id="DejaVuSans-32" d="M 1228 531 
L 3431 531 
L 3431 0 
L 469 0 
L 469 531 
Q 828 903 1448 1529 
Q 2069 2156 2228 2338 
Q 2531 2678 2651 2914 
Q 2772 3150 2772 3378 
Q 2772 3750 2511 3984 
Q 2250 4219 1831 4219 
Q 1534 4219 1204 4116 
Q 875 4013 500 3803 
L 500 4441 
Q 881 4594 1212 4672 
Q 1544 4750 1819 4750 
Q 2544 4750 2975 4387 
Q 3406 4025 3406 3419 
Q 3406 3131 3298 2873 
Q 3191 2616 2906 2266 
Q 2828 2175 2409 1742 
Q 1991 1309 1228 531 
z
" transform="scale(0.015625)"/>
      </defs>
      <use xlink:href="#DejaVuSans-52"/>
      <use xlink:href="#DejaVuSans-75" x="64.982422"/>
      <use xlink:href="#DejaVuSans-6e" x="128.361328"/>
      <use xlink:href="#DejaVuSans-20" x="191.740234"/>
      <use xlink:href="#DejaVuSans-23" x="223.527344"/>
      <use xlink:href="#DejaVuSans-32" x="307.316406"/>
     </g>
    </g>
   </g>
   <g id="text_10">
    <g clip-path="url(#p11b26e94db)">
     <!-- random -->
     <g transform="translate(323.822977 389.291546) scale(0.125 -0.125)">
      <use xlink:href="#DejaVuSans-72"/>
      <use xlink:href="#DejaVuSans-61" x="41.113281"/>
      <use xlink:href="#DejaVuSans-6e" x="102.392578"/>
      <use xlink:href="#DejaVuSans-64" x="165.771484"/>
      <use xlink:href="#DejaVuSans-6f" x="229.248047"/>
      <use xlink:href="#DejaVuSans-6d" x="290.429688"/>
     </g>
    </g>
    <g clip-path="url(#p11b26e94db)">
     <!-- input state -->
     <g transform="translate(314.168681 403.288812) scale(0.125 -0.125)">
      <use xlink:href="#DejaVuSans-69"/>
      <use xlink:href="#DejaVuSans-6e" x="27.783203"/>
      <use xlink:href="#DejaVuSans-70" x="91.162109"/>
      <use xlink:href="#DejaVuSans-75" x="154.638672"/>
      <use xlink:href="#DejaVuSans-74" x="218.017578"/>
      <use xlink:href="#DejaVuSans-20" x="257.226562"/>
      <use xlink:href="#DejaVuSans-73" x="289.013672"/>
      <use xlink:href="#DejaVuSans-74" x="341.113281"/>
      <use xlink:href="#DejaVuSans-61" x="380.322266"/>
      <use xlink:href="#DejaVuSans-74" x="441.601562"/>
      <use xlink:href="#DejaVuSans-65" x="480.810547"/>
     </g>
    </g>
   </g>
   <g id="text_11">
    <g clip-path="url(#p11b26e94db)">
     <!-- simulation -->
     <g transform="translate(466.387095 396.290179) scale(0.125 -0.125)">
      <use xlink:href="#DejaVuSans-73"/>
      <use xlink:href="#DejaVuSans-69" x="52.099609"/>
      <use xlink:href="#DejaVuSans-6d" x="79.882812"/>
      <use xlink:href="#DejaVuSans-75" x="177.294922"/>
      <use xlink:href="#DejaVuSans-6c" x="240.673828"/>
      <use xlink:href="#DejaVuSans-61" x="268.457031"/>
      <use xlink:href="#DejaVuSans-74" x="329.736328"/>
      <use xlink:href="#DejaVuSans-69" x="368.945312"/>
      <use xlink:href="#DejaVuSans-6f" x="396.728516"/>
      <use xlink:href="#DejaVuSans-6e" x="457.910156"/>
     </g>
    </g>
   </g>
   <g id="text_12">
    <g clip-path="url(#p11b26e94db)">
     <!-- result data -->
     <g transform="translate(616.126993 396.290179) scale(0.125 -0.125)">
      <use xlink:href="#DejaVuSans-72"/>
      <use xlink:href="#DejaVuSans-65" x="38.863281"/>
      <use xlink:href="#DejaVuSans-73" x="100.386719"/>
      <use xlink:href="#DejaVuSans-75" x="152.486328"/>
      <use xlink:href="#DejaVuSans-6c" x="215.865234"/>
      <use xlink:href="#DejaVuSans-74" x="243.648438"/>
      <use xlink:href="#DejaVuSans-20" x="282.857422"/>
      <use xlink:href="#DejaVuSans-64" x="314.644531"/>
      <use xlink:href="#DejaVuSans-61" x="378.121094"/>
      <use xlink:href="#DejaVuSans-74" x="439.400391"/>
      <use xlink:href="#DejaVuSans-61" x="478.609375"/>
     </g>
    </g>
   </g>
   <g id="text_13">
    <g clip-path="url(#p11b26e94db)">
     <!-- Run #n -->
     <g transform="translate(475.798227 344.082791) scale(0.125 -0.125)">
      <use xlink:href="#DejaVuSans-52"/>
      <use xlink:href="#DejaVuSans-75" x="64.982422"/>
      <use xlink:href="#DejaVuSans-6e" x="128.361328"/>
      <use xlink:href="#DejaVuSans-20" x="191.740234"/>
      <use xlink:href="#DejaVuSans-23" x="223.527344"/>
      <use xlink:href="#DejaVuSans-6e" x="307.316406"/>
     </g>
    </g>
   </g>
   <g id="text_14">
    <g clip-path="url(#p11b26e94db)">
     <!-- collection -->
     <g transform="translate(832.921383 195.883344) scale(0.125 -0.125)">
      <defs>
       <path id="DejaVuSans-63" d="M 3122 3366 
L 3122 2828 
Q 2878 2963 2633 3030 
Q 2388 3097 2138 3097 
Q 1578 3097 1268 2742 
Q 959 2388 959 1747 
Q 959 1106 1268 751 
Q 1578 397 2138 397 
Q 2388 397 2633 464 
Q 2878 531 3122 666 
L 3122 134 
Q 2881 22 2623 -34 
Q 2366 -91 2075 -91 
Q 1284 -91 818 406 
Q 353 903 353 1747 
Q 353 2603 823 3093 
Q 1294 3584 2113 3584 
Q 2378 3584 2631 3529 
Q 2884 3475 3122 3366 
z
" transform="scale(0.015625)"/>
      </defs>
      <use xlink:href="#DejaVuSans-63"/>
      <use xlink:href="#DejaVuSans-6f" x="54.980469"/>
      <use xlink:href="#DejaVuSans-6c" x="116.162109"/>
      <use xlink:href="#DejaVuSans-6c" x="143.945312"/>
      <use xlink:href="#DejaVuSans-65" x="171.728516"/>
      <use xlink:href="#DejaVuSans-63" x="233.251953"/>
      <use xlink:href="#DejaVuSans-74" x="288.232422"/>
      <use xlink:href="#DejaVuSans-69" x="327.441406"/>
      <use xlink:href="#DejaVuSans-6f" x="355.224609"/>
      <use xlink:href="#DejaVuSans-6e" x="416.40625"/>
     </g>
    </g>
    <g clip-path="url(#p11b26e94db)">
     <!-- + -->
     <g transform="translate(857.671383 209.88061) scale(0.125 -0.125)">
      <defs>
       <path id="DejaVuSans-2b" d="M 2944 4013 
L 2944 2272 
L 4684 2272 
L 4684 1741 
L 2944 1741 
L 2944 0 
L 2419 0 
L 2419 1741 
L 678 1741 
L 678 2272 
L 2419 2272 
L 2419 4013 
L 2944 4013 
z
" transform="scale(0.015625)"/>
      </defs>
      <use xlink:href="#DejaVuSans-2b"/>
     </g>
    </g>
    <g clip-path="url(#p11b26e94db)">
     <!-- analysis -->
     <g transform="translate(837.604 223.877876) scale(0.125 -0.125)">
      <defs>
       <path id="DejaVuSans-79" d="M 2059 -325 
Q 1816 -950 1584 -1140 
Q 1353 -1331 966 -1331 
L 506 -1331 
L 506 -850 
L 844 -850 
Q 1081 -850 1212 -737 
Q 1344 -625 1503 -206 
L 1606 56 
L 191 3500 
L 800 3500 
L 1894 763 
L 2988 3500 
L 3597 3500 
L 2059 -325 
z
" transform="scale(0.015625)"/>
      </defs>
      <use xlink:href="#DejaVuSans-61"/>
      <use xlink:href="#DejaVuSans-6e" x="61.279297"/>
      <use xlink:href="#DejaVuSans-61" x="124.658203"/>
      <use xlink:href="#DejaVuSans-6c" x="185.9375"/>
      <use xlink:href="#DejaVuSans-79" x="213.720703"/>
      <use xlink:href="#DejaVuSans-73" x="272.900391"/>
      <use xlink:href="#DejaVuSans-69" x="325"/>
      <use xlink:href="#DejaVuSans-73" x="352.783203"/>
     </g>
    </g>
   </g>
   <g id="text_15">
    <g clip-path="url(#p11b26e94db)">
     <!-- statistically distributed -->
     <g transform="translate(45.772365 78.608931) scale(0.125 -0.125)">
      <defs>
       <path id="DejaVuSans-62" d="M 3116 1747 
Q 3116 2381 2855 2742 
Q 2594 3103 2138 3103 
Q 1681 3103 1420 2742 
Q 1159 2381 1159 1747 
Q 1159 1113 1420 752 
Q 1681 391 2138 391 
Q 2594 391 2855 752 
Q 3116 1113 3116 1747 
z
M 1159 2969 
Q 1341 3281 1617 3432 
Q 1894 3584 2278 3584 
Q 2916 3584 3314 3078 
Q 3713 2572 3713 1747 
Q 3713 922 3314 415 
Q 2916 -91 2278 -91 
Q 1894 -91 1617 61 
Q 1341 213 1159 525 
L 1159 0 
L 581 0 
L 581 4863 
L 1159 4863 
L 1159 2969 
z
" transform="scale(0.015625)"/>
      </defs>
      <use xlink:href="#DejaVuSans-73"/>
      <use xlink:href="#DejaVuSans-74" x="52.099609"/>
      <use xlink:href="#DejaVuSans-61" x="91.308594"/>
      <use xlink:href="#DejaVuSans-74" x="152.587891"/>
      <use xlink:href="#DejaVuSans-69" x="191.796875"/>
      <use xlink:href="#DejaVuSans-73" x="219.580078"/>
      <use xlink:href="#DejaVuSans-74" x="271.679688"/>
      <use xlink:href="#DejaVuSans-69" x="310.888672"/>
      <use xlink:href="#DejaVuSans-63" x="338.671875"/>
      <use xlink:href="#DejaVuSans-61" x="393.652344"/>
      <use xlink:href="#DejaVuSans-6c" x="454.931641"/>
      <use xlink:href="#DejaVuSans-6c" x="482.714844"/>
      <use xlink:href="#DejaVuSans-79" x="510.498047"/>
      <use xlink:href="#DejaVuSans-20" x="569.677734"/>
      <use xlink:href="#DejaVuSans-64" x="601.464844"/>
      <use xlink:href="#DejaVuSans-69" x="664.941406"/>
      <use xlink:href="#DejaVuSans-73" x="692.724609"/>
      <use xlink:href="#DejaVuSans-74" x="744.824219"/>
      <use xlink:href="#DejaVuSans-72" x="784.033203"/>
      <use xlink:href="#DejaVuSans-69" x="825.146484"/>
      <use xlink:href="#DejaVuSans-62" x="852.929688"/>
      <use xlink:href="#DejaVuSans-75" x="916.40625"/>
      <use xlink:href="#DejaVuSans-74" x="979.785156"/>
      <use xlink:href="#DejaVuSans-65" x="1018.994141"/>
      <use xlink:href="#DejaVuSans-64" x="1080.517578"/>
     </g>
    </g>
    <g clip-path="url(#p11b26e94db)">
     <!-- input data -->
     <g transform="translate(85.129787 92.606197) scale(0.125 -0.125)">
      <use xlink:href="#DejaVuSans-69"/>
      <use xlink:href="#DejaVuSans-6e" x="27.783203"/>
      <use xlink:href="#DejaVuSans-70" x="91.162109"/>
      <use xlink:href="#DejaVuSans-75" x="154.638672"/>
      <use xlink:href="#DejaVuSans-74" x="218.017578"/>
      <use xlink:href="#DejaVuSans-20" x="257.226562"/>
      <use xlink:href="#DejaVuSans-64" x="289.013672"/>
      <use xlink:href="#DejaVuSans-61" x="352.490234"/>
      <use xlink:href="#DejaVuSans-74" x="413.769531"/>
      <use xlink:href="#DejaVuSans-61" x="452.978516"/>
     </g>
    </g>
   </g>
   <g id="text_16">
    <g clip-path="url(#p11b26e94db)">
     <!-- statistically distributed -->
     <g transform="translate(809.163933 78.608931) scale(0.125 -0.125)">
      <use xlink:href="#DejaVuSans-73"/>
      <use xlink:href="#DejaVuSans-74" x="52.099609"/>
      <use xlink:href="#DejaVuSans-61" x="91.308594"/>
      <use xlink:href="#DejaVuSans-74" x="152.587891"/>
      <use xlink:href="#DejaVuSans-69" x="191.796875"/>
      <use xlink:href="#DejaVuSans-73" x="219.580078"/>
      <use xlink:href="#DejaVuSans-74" x="271.679688"/>
      <use xlink:href="#DejaVuSans-69" x="310.888672"/>
      <use xlink:href="#DejaVuSans-63" x="338.671875"/>
      <use xlink:href="#DejaVuSans-61" x="393.652344"/>
      <use xlink:href="#DejaVuSans-6c" x="454.931641"/>
      <use xlink:href="#DejaVuSans-6c" x="482.714844"/>
      <use xlink:href="#DejaVuSans-79" x="510.498047"/>
      <use xlink:href="#DejaVuSans-20" x="569.677734"/>
      <use xlink:href="#DejaVuSans-64" x="601.464844"/>
      <use xlink:href="#DejaVuSans-69" x="664.941406"/>
      <use xlink:href="#DejaVuSans-73" x="692.724609"/>
      <use xlink:href="#DejaVuSans-74" x="744.824219"/>
      <use xlink:href="#DejaVuSans-72" x="784.033203"/>
      <use xlink:href="#DejaVuSans-69" x="825.146484"/>
      <use xlink:href="#DejaVuSans-62" x="852.929688"/>
      <use xlink:href="#DejaVuSans-75" x="916.40625"/>
      <use xlink:href="#DejaVuSans-74" x="979.785156"/>
      <use xlink:href="#DejaVuSans-65" x="1018.994141"/>
      <use xlink:href="#DejaVuSans-64" x="1080.517578"/>
     </g>
    </g>
    <g clip-path="url(#p11b26e94db)">
     <!-- result data -->
     <g transform="translate(846.919793 92.606197) scale(0.125 -0.125)">
      <use xlink:href="#DejaVuSans-72"/>
      <use xlink:href="#DejaVuSans-65" x="38.863281"/>
      <use xlink:href="#DejaVuSans-73" x="100.386719"/>
      <use xlink:href="#DejaVuSans-75" x="152.486328"/>
      <use xlink:href="#DejaVuSans-6c" x="215.865234"/>
      <use xlink:href="#DejaVuSans-74" x="243.648438"/>
      <use xlink:href="#DejaVuSans-20" x="282.857422"/>
      <use xlink:href="#DejaVuSans-64" x="314.644531"/>
      <use xlink:href="#DejaVuSans-61" x="378.121094"/>
      <use xlink:href="#DejaVuSans-74" x="439.400391"/>
      <use xlink:href="#DejaVuSans-61" x="478.609375"/>
     </g>
    </g>
   </g>
  </g>
 </g>
 <defs>
  <clipPath id="p11b26e94db">
   <rect x="7.2" y="7.2" width="983.532392" height="431.79952"/>
  </clipPath>
 </defs>
</svg>
