<?xml version="1.0" encoding="utf-8" standalone="no"?>
<!DOCTYPE svg PUBLIC "-//W3C//DTD SVG 1.1//EN"
  "http://www.w3.org/Graphics/SVG/1.1/DTD/svg11.dtd">
<svg xmlns:xlink="http://www.w3.org/1999/xlink" width="460.8pt" height="216pt" viewBox="0 0 460.8 216" xmlns="http://www.w3.org/2000/svg" version="1.1">
 <metadata>
  <rdf:RDF xmlns:dc="http://purl.org/dc/elements/1.1/" xmlns:cc="http://creativecommons.org/ns#" xmlns:rdf="http://www.w3.org/1999/02/22-rdf-syntax-ns#">
   <cc:Work>
    <dc:type rdf:resource="http://purl.org/dc/dcmitype/StillImage"/>
    <dc:date>2023-04-17T14:41:37.188905</dc:date>
    <dc:format>image/svg+xml</dc:format>
    <dc:creator>
     <cc:Agent>
      <dc:title>Matplotlib v3.7.1, https://matplotlib.org/</dc:title>
     </cc:Agent>
    </dc:creator>
   </cc:Work>
  </rdf:RDF>
 </metadata>
 <defs>
  <style type="text/css">*{stroke-linejoin: round; stroke-linecap: butt}</style>
 </defs>
 <g id="figure_1">
  <g id="patch_1">
   <path d="M 0 216 
L 460.8 216 
L 460.8 0 
L 0 0 
z
" style="fill: #ffffff"/>
  </g>
  <g id="axes_1">
   <g id="patch_2">
    <path d="M 50.581018 176.488647 
L 450 176.488647 
L 450 14.259249 
L 50.581018 14.259249 
z
" style="fill: #ffffff"/>
   </g>
   <g id="PathCollection_1">
    <defs>
     <path id="m17261f4949" d="M -3 3 
L 3 -3 
M -3 -3 
L 3 3 
" style="stroke: #ff0000"/>
    </defs>
    <g clip-path="url(#p69b6fb5953)">
     <use xlink:href="#m17261f4949" x="339.815453" y="145.330776" style="fill: #ff0000; stroke: #ff0000"/>
     <use xlink:href="#m17261f4949" x="367.36159" y="142.25435" style="fill: #ff0000; stroke: #ff0000"/>
     <use xlink:href="#m17261f4949" x="394.907727" y="135.388663" style="fill: #ff0000; stroke: #ff0000"/>
     <use xlink:href="#m17261f4949" x="422.453863" y="129.022457" style="fill: #ff0000; stroke: #ff0000"/>
    </g>
   </g>
   <g id="PathCollection_2">
    <g clip-path="url(#p69b6fb5953)">
     <use xlink:href="#m17261f4949" x="339.815453" y="140.788167" style="fill: #ff0000; stroke: #ff0000"/>
     <use xlink:href="#m17261f4949" x="367.36159" y="132.765599" style="fill: #ff0000; stroke: #ff0000"/>
     <use xlink:href="#m17261f4949" x="394.907727" y="127.096099" style="fill: #ff0000; stroke: #ff0000"/>
     <use xlink:href="#m17261f4949" x="422.453863" y="126.927102" style="fill: #ff0000; stroke: #ff0000"/>
    </g>
   </g>
   <g id="PathCollection_3">
    <g clip-path="url(#p69b6fb5953)">
     <use xlink:href="#m17261f4949" x="339.815453" y="145.411242" style="fill: #ff0000; stroke: #ff0000"/>
     <use xlink:href="#m17261f4949" x="367.36159" y="135.984787" style="fill: #ff0000; stroke: #ff0000"/>
     <use xlink:href="#m17261f4949" x="394.907727" y="132.43136" style="fill: #ff0000; stroke: #ff0000"/>
     <use xlink:href="#m17261f4949" x="422.453863" y="123.576787" style="fill: #ff0000; stroke: #ff0000"/>
    </g>
   </g>
   <g id="PathCollection_4">
    <g clip-path="url(#p69b6fb5953)">
     <use xlink:href="#m17261f4949" x="339.815453" y="140.772083" style="fill: #ff0000; stroke: #ff0000"/>
     <use xlink:href="#m17261f4949" x="367.36159" y="128.633848" style="fill: #ff0000; stroke: #ff0000"/>
     <use xlink:href="#m17261f4949" x="394.907727" y="124.517022" style="fill: #ff0000; stroke: #ff0000"/>
     <use xlink:href="#m17261f4949" x="422.453863" y="120.083015" style="fill: #ff0000; stroke: #ff0000"/>
    </g>
   </g>
   <g id="PathCollection_5">
    <g clip-path="url(#p69b6fb5953)">
     <use xlink:href="#m17261f4949" x="78.127154" y="52.11432" style="fill: #ff0000; stroke: #ff0000"/>
     <use xlink:href="#m17261f4949" x="105.673291" y="35.874694" style="fill: #ff0000; stroke: #ff0000"/>
     <use xlink:href="#m17261f4949" x="133.219428" y="57.894322" style="fill: #ff0000; stroke: #ff0000"/>
     <use xlink:href="#m17261f4949" x="160.765565" y="43.986164" style="fill: #ff0000; stroke: #ff0000"/>
     <use xlink:href="#m17261f4949" x="188.311701" y="62.087257" style="fill: #ff0000; stroke: #ff0000"/>
     <use xlink:href="#m17261f4949" x="215.857838" y="62.001043" style="fill: #ff0000; stroke: #ff0000"/>
     <use xlink:href="#m17261f4949" x="243.403975" y="78.731993" style="fill: #ff0000; stroke: #ff0000"/>
     <use xlink:href="#m17261f4949" x="270.950111" y="79.787874" style="fill: #ff0000; stroke: #ff0000"/>
     <use xlink:href="#m17261f4949" x="298.496248" y="104.865573" style="fill: #ff0000; stroke: #ff0000"/>
     <use xlink:href="#m17261f4949" x="326.042385" y="111.016755" style="fill: #ff0000; stroke: #ff0000"/>
     <use xlink:href="#m17261f4949" x="353.588522" y="137.928295" style="fill: #ff0000; stroke: #ff0000"/>
     <use xlink:href="#m17261f4949" x="381.134658" y="136.064557" style="fill: #ff0000; stroke: #ff0000"/>
     <use xlink:href="#m17261f4949" x="408.680795" y="128.01288" style="fill: #ff0000; stroke: #ff0000"/>
     <use xlink:href="#m17261f4949" x="436.226932" y="117.520068" style="fill: #ff0000; stroke: #ff0000"/>
    </g>
   </g>
   <g id="PathCollection_6">
    <g clip-path="url(#p69b6fb5953)">
     <use xlink:href="#m17261f4949" x="78.127154" y="57.150848" style="fill: #ff0000; stroke: #ff0000"/>
     <use xlink:href="#m17261f4949" x="105.673291" y="37.24391" style="fill: #ff0000; stroke: #ff0000"/>
     <use xlink:href="#m17261f4949" x="133.219428" y="56.855127" style="fill: #ff0000; stroke: #ff0000"/>
     <use xlink:href="#m17261f4949" x="160.765565" y="41.241243" style="fill: #ff0000; stroke: #ff0000"/>
     <use xlink:href="#m17261f4949" x="188.311701" y="58.687855" style="fill: #ff0000; stroke: #ff0000"/>
     <use xlink:href="#m17261f4949" x="215.857838" y="56.432403" style="fill: #ff0000; stroke: #ff0000"/>
     <use xlink:href="#m17261f4949" x="243.403975" y="73.51006" style="fill: #ff0000; stroke: #ff0000"/>
     <use xlink:href="#m17261f4949" x="270.950111" y="78.681933" style="fill: #ff0000; stroke: #ff0000"/>
     <use xlink:href="#m17261f4949" x="298.496248" y="99.179108" style="fill: #ff0000; stroke: #ff0000"/>
     <use xlink:href="#m17261f4949" x="326.042385" y="105.997841" style="fill: #ff0000; stroke: #ff0000"/>
     <use xlink:href="#m17261f4949" x="353.588522" y="132.778253" style="fill: #ff0000; stroke: #ff0000"/>
     <use xlink:href="#m17261f4949" x="381.134658" y="127.775979" style="fill: #ff0000; stroke: #ff0000"/>
     <use xlink:href="#m17261f4949" x="408.680795" y="126.681997" style="fill: #ff0000; stroke: #ff0000"/>
     <use xlink:href="#m17261f4949" x="436.226932" y="113.556711" style="fill: #ff0000; stroke: #ff0000"/>
    </g>
   </g>
   <g id="PathCollection_7">
    <g clip-path="url(#p69b6fb5953)">
     <use xlink:href="#m17261f4949" x="78.127154" y="53.88123" style="fill: #ff0000; stroke: #ff0000"/>
     <use xlink:href="#m17261f4949" x="105.673291" y="38.22563" style="fill: #ff0000; stroke: #ff0000"/>
     <use xlink:href="#m17261f4949" x="160.765565" y="41.141124" style="fill: #ff0000; stroke: #ff0000"/>
     <use xlink:href="#m17261f4949" x="188.311701" y="58.59608" style="fill: #ff0000; stroke: #ff0000"/>
     <use xlink:href="#m17261f4949" x="215.857838" y="58.782412" style="fill: #ff0000; stroke: #ff0000"/>
     <use xlink:href="#m17261f4949" x="243.403975" y="74.920065" style="fill: #ff0000; stroke: #ff0000"/>
     <use xlink:href="#m17261f4949" x="270.950111" y="77.792916" style="fill: #ff0000; stroke: #ff0000"/>
     <use xlink:href="#m17261f4949" x="298.496248" y="140.116538" style="fill: #ff0000; stroke: #ff0000"/>
     <use xlink:href="#m17261f4949" x="326.042385" y="106.420194" style="fill: #ff0000; stroke: #ff0000"/>
     <use xlink:href="#m17261f4949" x="353.588522" y="133.281118" style="fill: #ff0000; stroke: #ff0000"/>
     <use xlink:href="#m17261f4949" x="381.134658" y="133.513523" style="fill: #ff0000; stroke: #ff0000"/>
     <use xlink:href="#m17261f4949" x="408.680795" y="123.39954" style="fill: #ff0000; stroke: #ff0000"/>
     <use xlink:href="#m17261f4949" x="436.226932" y="115.307074" style="fill: #ff0000; stroke: #ff0000"/>
    </g>
   </g>
   <g id="PathCollection_8">
    <g clip-path="url(#p69b6fb5953)">
     <use xlink:href="#m17261f4949" x="78.127154" y="51.449643" style="fill: #ff0000; stroke: #ff0000"/>
     <use xlink:href="#m17261f4949" x="105.673291" y="35.765305" style="fill: #ff0000; stroke: #ff0000"/>
     <use xlink:href="#m17261f4949" x="133.219428" y="55.368178" style="fill: #ff0000; stroke: #ff0000"/>
     <use xlink:href="#m17261f4949" x="160.765565" y="47.047201" style="fill: #ff0000; stroke: #ff0000"/>
     <use xlink:href="#m17261f4949" x="188.311701" y="54.987171" style="fill: #ff0000; stroke: #ff0000"/>
     <use xlink:href="#m17261f4949" x="215.857838" y="57.744144" style="fill: #ff0000; stroke: #ff0000"/>
     <use xlink:href="#m17261f4949" x="243.403975" y="69.782492" style="fill: #ff0000; stroke: #ff0000"/>
     <use xlink:href="#m17261f4949" x="270.950111" y="75.479062" style="fill: #ff0000; stroke: #ff0000"/>
     <use xlink:href="#m17261f4949" x="298.496248" y="96.289292" style="fill: #ff0000; stroke: #ff0000"/>
     <use xlink:href="#m17261f4949" x="326.042385" y="103.657288" style="fill: #ff0000; stroke: #ff0000"/>
     <use xlink:href="#m17261f4949" x="353.588522" y="128.608633" style="fill: #ff0000; stroke: #ff0000"/>
     <use xlink:href="#m17261f4949" x="381.134658" y="127.816305" style="fill: #ff0000; stroke: #ff0000"/>
     <use xlink:href="#m17261f4949" x="408.680795" y="118.046572" style="fill: #ff0000; stroke: #ff0000"/>
     <use xlink:href="#m17261f4949" x="436.226932" y="110.909313" style="fill: #ff0000; stroke: #ff0000"/>
    </g>
   </g>
   <g id="matplotlib.axis_1">
    <g id="xtick_1">
     <g id="line2d_1">
      <path d="M 71.24062 176.488647 
L 71.24062 14.259249 
" clip-path="url(#p69b6fb5953)" style="fill: none; stroke: #b0b0b0; stroke-width: 0.8; stroke-linecap: square"/>
     </g>
     <g id="line2d_2">
      <defs>
       <path id="m699457d771" d="M 0 0 
L 0 3.5 
" style="stroke: #000000; stroke-width: 0.8"/>
      </defs>
      <g>
       <use xlink:href="#m699457d771" x="71.24062" y="176.488647" style="stroke: #000000; stroke-width: 0.8"/>
      </g>
     </g>
     <g id="text_1">
      <!-- R1 -->
      <g transform="translate(65.083146 190.407145) scale(0.1 -0.1)">
       <defs>
        <path id="CMR17-52" d="M 2509 2146 
C 3117 2268 3629 2676 3629 3186 
C 3629 3785 2950 4326 2054 4326 
L 333 4326 
L 333 4160 
C 774 4160 845 4160 845 3873 
L 845 415 
C 845 128 774 128 333 128 
L 333 -26 
C 518 -26 851 -26 1050 -26 
C 1248 -26 1581 -26 1766 -26 
L 1766 128 
C 1325 128 1254 128 1254 417 
L 1254 2112 
L 2003 2112 
C 2368 2112 2573 1964 2662 1881 
C 2918 1632 2918 1459 2918 1024 
C 2918 595 2918 377 3110 160 
C 3354 -102 3680 -128 3821 -128 
C 4294 -128 4365 396 4365 503 
C 4365 540 4365 585 4307 585 
C 4256 585 4250 547 4250 522 
C 4218 112 4032 -26 3834 -26 
C 3482 -26 3443 375 3405 764 
C 3386 898 3373 993 3360 1133 
C 3322 1452 3270 1917 2509 2146 
z
M 1984 2214 
L 1254 2214 
L 1254 3913 
C 1254 4129 1267 4160 1523 4160 
L 1990 4160 
C 2522 4160 3142 3977 3142 3190 
C 3142 2372 2464 2214 1984 2214 
z
" transform="scale(0.015625)"/>
        <path id="CMR17-31" d="M 1702 4058 
C 1702 4192 1696 4192 1606 4192 
C 1357 3916 979 3827 621 3827 
C 602 3827 570 3827 563 3808 
C 557 3795 557 3782 557 3648 
C 755 3648 1088 3686 1344 3839 
L 1344 461 
C 1344 236 1331 160 781 160 
L 589 160 
L 589 0 
C 896 0 1216 0 1523 0 
C 1830 0 2150 0 2458 0 
L 2458 160 
L 2266 160 
C 1715 160 1702 230 1702 458 
L 1702 4058 
z
" transform="scale(0.015625)"/>
       </defs>
       <use xlink:href="#CMR17-52" transform="scale(0.996264)"/>
       <use xlink:href="#CMR17-31" transform="translate(67.791102 0) scale(0.996264)"/>
      </g>
     </g>
    </g>
    <g id="xtick_2">
     <g id="line2d_3">
      <path d="M 98.786757 176.488647 
L 98.786757 14.259249 
" clip-path="url(#p69b6fb5953)" style="fill: none; stroke: #b0b0b0; stroke-width: 0.8; stroke-linecap: square"/>
     </g>
     <g id="line2d_4">
      <g>
       <use xlink:href="#m699457d771" x="98.786757" y="176.488647" style="stroke: #000000; stroke-width: 0.8"/>
      </g>
     </g>
     <g id="text_2">
      <!-- R2 -->
      <g transform="translate(92.629283 190.407145) scale(0.1 -0.1)">
       <defs>
        <path id="CMR17-32" d="M 2669 989 
L 2554 989 
C 2490 536 2438 459 2413 420 
C 2381 369 1920 369 1830 369 
L 602 369 
C 832 619 1280 1072 1824 1597 
C 2214 1967 2669 2402 2669 3035 
C 2669 3790 2067 4224 1395 4224 
C 691 4224 262 3604 262 3030 
C 262 2780 448 2748 525 2748 
C 589 2748 781 2787 781 3010 
C 781 3207 614 3264 525 3264 
C 486 3264 448 3258 422 3245 
C 544 3790 915 4058 1306 4058 
C 1862 4058 2227 3617 2227 3035 
C 2227 2479 1901 2000 1536 1584 
L 262 146 
L 262 0 
L 2515 0 
L 2669 989 
z
" transform="scale(0.015625)"/>
       </defs>
       <use xlink:href="#CMR17-52" transform="scale(0.996264)"/>
       <use xlink:href="#CMR17-32" transform="translate(67.791102 0) scale(0.996264)"/>
      </g>
     </g>
    </g>
    <g id="xtick_3">
     <g id="line2d_5">
      <path d="M 126.332894 176.488647 
L 126.332894 14.259249 
" clip-path="url(#p69b6fb5953)" style="fill: none; stroke: #b0b0b0; stroke-width: 0.8; stroke-linecap: square"/>
     </g>
     <g id="line2d_6">
      <g>
       <use xlink:href="#m699457d771" x="126.332894" y="176.488647" style="stroke: #000000; stroke-width: 0.8"/>
      </g>
     </g>
     <g id="text_3">
      <!-- R3 -->
      <g transform="translate(120.175419 190.407145) scale(0.1 -0.1)">
       <defs>
        <path id="CMR17-33" d="M 1414 2157 
C 1984 2157 2234 1662 2234 1090 
C 2234 320 1824 25 1453 25 
C 1114 25 563 194 390 693 
C 422 680 454 680 486 680 
C 640 680 755 782 755 948 
C 755 1133 614 1216 486 1216 
C 378 1216 211 1165 211 926 
C 211 335 787 -128 1466 -128 
C 2176 -128 2720 430 2720 1085 
C 2720 1707 2208 2157 1600 2227 
C 2086 2328 2554 2756 2554 3329 
C 2554 3820 2048 4179 1472 4179 
C 890 4179 378 3829 378 3329 
C 378 3110 544 3072 627 3072 
C 762 3072 877 3155 877 3321 
C 877 3486 762 3569 627 3569 
C 602 3569 570 3569 544 3557 
C 730 3959 1235 4032 1459 4032 
C 1683 4032 2106 3925 2106 3320 
C 2106 3143 2080 2828 1862 2550 
C 1670 2304 1453 2304 1242 2284 
C 1210 2284 1062 2269 1037 2269 
C 992 2263 966 2257 966 2208 
C 966 2163 973 2157 1101 2157 
L 1414 2157 
z
" transform="scale(0.015625)"/>
       </defs>
       <use xlink:href="#CMR17-52" transform="scale(0.996264)"/>
       <use xlink:href="#CMR17-33" transform="translate(67.791102 0) scale(0.996264)"/>
      </g>
     </g>
    </g>
    <g id="xtick_4">
     <g id="line2d_7">
      <path d="M 153.87903 176.488647 
L 153.87903 14.259249 
" clip-path="url(#p69b6fb5953)" style="fill: none; stroke: #b0b0b0; stroke-width: 0.8; stroke-linecap: square"/>
     </g>
     <g id="line2d_8">
      <g>
       <use xlink:href="#m699457d771" x="153.87903" y="176.488647" style="stroke: #000000; stroke-width: 0.8"/>
      </g>
     </g>
     <g id="text_4">
      <!-- R4 -->
      <g transform="translate(147.721556 190.407145) scale(0.1 -0.1)">
       <defs>
        <path id="CMR17-34" d="M 2150 4122 
C 2150 4256 2144 4256 2029 4256 
L 128 1254 
L 128 1088 
L 1779 1088 
L 1779 457 
C 1779 224 1766 160 1318 160 
L 1197 160 
L 1197 0 
C 1402 0 1747 0 1965 0 
C 2182 0 2528 0 2733 0 
L 2733 160 
L 2611 160 
C 2163 160 2150 224 2150 457 
L 2150 1088 
L 2803 1088 
L 2803 1254 
L 2150 1254 
L 2150 4122 
z
M 1798 3703 
L 1798 1254 
L 256 1254 
L 1798 3703 
z
" transform="scale(0.015625)"/>
       </defs>
       <use xlink:href="#CMR17-52" transform="scale(0.996264)"/>
       <use xlink:href="#CMR17-34" transform="translate(67.791102 0) scale(0.996264)"/>
      </g>
     </g>
    </g>
    <g id="xtick_5">
     <g id="line2d_9">
      <path d="M 181.425167 176.488647 
L 181.425167 14.259249 
" clip-path="url(#p69b6fb5953)" style="fill: none; stroke: #b0b0b0; stroke-width: 0.8; stroke-linecap: square"/>
     </g>
     <g id="line2d_10">
      <g>
       <use xlink:href="#m699457d771" x="181.425167" y="176.488647" style="stroke: #000000; stroke-width: 0.8"/>
      </g>
     </g>
     <g id="text_5">
      <!-- R5 -->
      <g transform="translate(175.267693 190.407145) scale(0.1 -0.1)">
       <defs>
        <path id="CMR17-35" d="M 730 3692 
C 794 3666 1056 3584 1325 3584 
C 1920 3584 2246 3911 2432 4100 
C 2432 4157 2432 4192 2394 4192 
C 2387 4192 2374 4192 2323 4163 
C 2099 4058 1837 3973 1517 3973 
C 1325 3973 1037 3999 723 4139 
C 653 4171 640 4171 634 4171 
C 602 4171 595 4164 595 4037 
L 595 2203 
C 595 2089 595 2057 659 2057 
C 691 2057 704 2070 736 2114 
C 941 2401 1222 2522 1542 2522 
C 1766 2522 2246 2382 2246 1289 
C 2246 1085 2246 715 2054 421 
C 1894 159 1645 25 1370 25 
C 947 25 518 320 403 814 
C 429 807 480 795 506 795 
C 589 795 749 840 749 1038 
C 749 1210 627 1280 506 1280 
C 358 1280 262 1190 262 1011 
C 262 454 704 -128 1382 -128 
C 2042 -128 2669 440 2669 1264 
C 2669 2030 2170 2624 1549 2624 
C 1222 2624 947 2503 730 2274 
L 730 3692 
z
" transform="scale(0.015625)"/>
       </defs>
       <use xlink:href="#CMR17-52" transform="scale(0.996264)"/>
       <use xlink:href="#CMR17-35" transform="translate(67.791102 0) scale(0.996264)"/>
      </g>
     </g>
    </g>
    <g id="xtick_6">
     <g id="line2d_11">
      <path d="M 208.971304 176.488647 
L 208.971304 14.259249 
" clip-path="url(#p69b6fb5953)" style="fill: none; stroke: #b0b0b0; stroke-width: 0.8; stroke-linecap: square"/>
     </g>
     <g id="line2d_12">
      <g>
       <use xlink:href="#m699457d771" x="208.971304" y="176.488647" style="stroke: #000000; stroke-width: 0.8"/>
      </g>
     </g>
     <g id="text_6">
      <!-- R6 -->
      <g transform="translate(202.813829 190.407145) scale(0.1 -0.1)">
       <defs>
        <path id="CMR17-36" d="M 678 2176 
C 678 3690 1395 4032 1811 4032 
C 1946 4032 2272 4009 2400 3776 
C 2298 3776 2106 3776 2106 3553 
C 2106 3381 2246 3323 2336 3323 
C 2394 3323 2566 3348 2566 3560 
C 2566 3954 2246 4179 1805 4179 
C 1043 4179 243 3390 243 1984 
C 243 253 966 -128 1478 -128 
C 2099 -128 2688 427 2688 1283 
C 2688 2081 2170 2662 1517 2662 
C 1126 2662 838 2407 678 1960 
L 678 2176 
z
M 1478 25 
C 691 25 691 1200 691 1436 
C 691 1896 909 2560 1504 2560 
C 1613 2560 1926 2560 2138 2120 
C 2253 1870 2253 1609 2253 1289 
C 2253 944 2253 690 2118 434 
C 1978 171 1773 25 1478 25 
z
" transform="scale(0.015625)"/>
       </defs>
       <use xlink:href="#CMR17-52" transform="scale(0.996264)"/>
       <use xlink:href="#CMR17-36" transform="translate(67.791102 0) scale(0.996264)"/>
      </g>
     </g>
    </g>
    <g id="xtick_7">
     <g id="line2d_13">
      <path d="M 236.517441 176.488647 
L 236.517441 14.259249 
" clip-path="url(#p69b6fb5953)" style="fill: none; stroke: #b0b0b0; stroke-width: 0.8; stroke-linecap: square"/>
     </g>
     <g id="line2d_14">
      <g>
       <use xlink:href="#m699457d771" x="236.517441" y="176.488647" style="stroke: #000000; stroke-width: 0.8"/>
      </g>
     </g>
     <g id="text_7">
      <!-- R7 -->
      <g transform="translate(230.359966 190.407145) scale(0.1 -0.1)">
       <defs>
        <path id="CMR17-37" d="M 2886 3941 
L 2886 4081 
L 1382 4081 
C 634 4081 621 4165 595 4288 
L 480 4288 
L 294 3094 
L 410 3094 
C 429 3215 474 3540 550 3661 
C 589 3712 1062 3712 1171 3712 
L 2579 3712 
L 1869 2661 
C 1395 1954 1069 999 1069 165 
C 1069 89 1069 -128 1299 -128 
C 1530 -128 1530 89 1530 171 
L 1530 465 
C 1530 1508 1709 2196 2003 2636 
L 2886 3941 
z
" transform="scale(0.015625)"/>
       </defs>
       <use xlink:href="#CMR17-52" transform="scale(0.996264)"/>
       <use xlink:href="#CMR17-37" transform="translate(67.791102 0) scale(0.996264)"/>
      </g>
     </g>
    </g>
    <g id="xtick_8">
     <g id="line2d_15">
      <path d="M 264.063577 176.488647 
L 264.063577 14.259249 
" clip-path="url(#p69b6fb5953)" style="fill: none; stroke: #b0b0b0; stroke-width: 0.8; stroke-linecap: square"/>
     </g>
     <g id="line2d_16">
      <g>
       <use xlink:href="#m699457d771" x="264.063577" y="176.488647" style="stroke: #000000; stroke-width: 0.8"/>
      </g>
     </g>
     <g id="text_8">
      <!-- R8 -->
      <g transform="translate(257.906103 190.407145) scale(0.1 -0.1)">
       <defs>
        <path id="CMR17-38" d="M 1741 2264 
C 2144 2467 2554 2773 2554 3263 
C 2554 3841 1990 4179 1472 4179 
C 890 4179 378 3759 378 3180 
C 378 3021 416 2747 666 2505 
C 730 2442 998 2251 1171 2130 
C 883 1983 211 1634 211 934 
C 211 279 838 -128 1459 -128 
C 2144 -128 2720 362 2720 1010 
C 2720 1590 2330 1857 2074 2029 
L 1741 2264 
z
M 902 2822 
C 851 2854 595 3051 595 3351 
C 595 3739 998 4032 1459 4032 
C 1965 4032 2336 3676 2336 3262 
C 2336 2669 1670 2331 1638 2331 
C 1632 2331 1626 2331 1574 2370 
L 902 2822 
z
M 2080 1519 
C 2176 1449 2483 1240 2483 851 
C 2483 381 2010 25 1472 25 
C 890 25 448 438 448 940 
C 448 1443 838 1862 1280 2060 
L 2080 1519 
z
" transform="scale(0.015625)"/>
       </defs>
       <use xlink:href="#CMR17-52" transform="scale(0.996264)"/>
       <use xlink:href="#CMR17-38" transform="translate(67.791102 0) scale(0.996264)"/>
      </g>
     </g>
    </g>
    <g id="xtick_9">
     <g id="line2d_17">
      <path d="M 291.609714 176.488647 
L 291.609714 14.259249 
" clip-path="url(#p69b6fb5953)" style="fill: none; stroke: #b0b0b0; stroke-width: 0.8; stroke-linecap: square"/>
     </g>
     <g id="line2d_18">
      <g>
       <use xlink:href="#m699457d771" x="291.609714" y="176.488647" style="stroke: #000000; stroke-width: 0.8"/>
      </g>
     </g>
     <g id="text_9">
      <!-- R9 -->
      <g transform="translate(285.45224 190.407145) scale(0.1 -0.1)">
       <defs>
        <path id="CMR17-39" d="M 2253 1864 
C 2253 464 1670 31 1190 31 
C 1043 31 685 31 538 294 
C 704 268 826 357 826 518 
C 826 692 685 749 595 749 
C 538 749 365 723 365 506 
C 365 71 742 -128 1203 -128 
C 1939 -128 2688 674 2688 2073 
C 2688 3817 1971 4179 1485 4179 
C 851 4179 243 3628 243 2778 
C 243 1991 762 1408 1414 1408 
C 1952 1408 2189 1903 2253 2112 
L 2253 1864 
z
M 1427 1510 
C 1254 1510 1011 1542 813 1922 
C 678 2169 678 2461 678 2771 
C 678 3146 678 3405 858 3684 
C 947 3817 1114 4032 1485 4032 
C 2240 4032 2240 2885 2240 2632 
C 2240 2182 2035 1510 1427 1510 
z
" transform="scale(0.015625)"/>
       </defs>
       <use xlink:href="#CMR17-52" transform="scale(0.996264)"/>
       <use xlink:href="#CMR17-39" transform="translate(67.791102 0) scale(0.996264)"/>
      </g>
     </g>
    </g>
    <g id="xtick_10">
     <g id="line2d_19">
      <path d="M 319.155851 176.488647 
L 319.155851 14.259249 
" clip-path="url(#p69b6fb5953)" style="fill: none; stroke: #b0b0b0; stroke-width: 0.8; stroke-linecap: square"/>
     </g>
     <g id="line2d_20">
      <g>
       <use xlink:href="#m699457d771" x="319.155851" y="176.488647" style="stroke: #000000; stroke-width: 0.8"/>
      </g>
     </g>
     <g id="text_10">
      <!-- R10 -->
      <g transform="translate(310.507709 190.407145) scale(0.1 -0.1)">
       <defs>
        <path id="CMR17-30" d="M 2688 2025 
C 2688 2416 2682 3080 2413 3591 
C 2176 4039 1798 4198 1466 4198 
C 1158 4198 768 4058 525 3597 
C 269 3118 243 2524 243 2025 
C 243 1661 250 1106 448 619 
C 723 -39 1216 -128 1466 -128 
C 1760 -128 2208 -7 2470 600 
C 2662 1042 2688 1559 2688 2025 
z
M 1466 -26 
C 1056 -26 813 325 723 812 
C 653 1188 653 1738 653 2096 
C 653 2588 653 2997 736 3387 
C 858 3929 1216 4096 1466 4096 
C 1728 4096 2067 3923 2189 3400 
C 2272 3036 2278 2607 2278 2096 
C 2278 1680 2278 1169 2202 792 
C 2067 95 1690 -26 1466 -26 
z
" transform="scale(0.015625)"/>
       </defs>
       <use xlink:href="#CMR17-52" transform="scale(0.996264)"/>
       <use xlink:href="#CMR17-31" transform="translate(67.791102 0) scale(0.996264)"/>
       <use xlink:href="#CMR17-30" transform="translate(113.481579 0) scale(0.996264)"/>
      </g>
     </g>
    </g>
    <g id="xtick_11">
     <g id="line2d_21">
      <path d="M 346.701987 176.488647 
L 346.701987 14.259249 
" clip-path="url(#p69b6fb5953)" style="fill: none; stroke: #b0b0b0; stroke-width: 0.8; stroke-linecap: square"/>
     </g>
     <g id="line2d_22">
      <g>
       <use xlink:href="#m699457d771" x="346.701987" y="176.488647" style="stroke: #000000; stroke-width: 0.8"/>
      </g>
     </g>
     <g id="text_11">
      <!-- F1 -->
      <g transform="translate(340.959613 190.407145) scale(0.1 -0.1)">
       <defs>
        <path id="CMR17-46" d="M 3482 4325 
L 326 4325 
L 326 4160 
C 768 4160 838 4160 838 3874 
L 838 446 
C 838 160 768 160 326 160 
L 326 0 
C 512 0 870 0 1069 0 
C 1331 0 1638 0 1901 0 
L 1901 160 
L 1760 160 
C 1274 160 1261 223 1261 452 
L 1261 2075 
L 1837 2075 
C 2432 2075 2490 1865 2490 1332 
L 2605 1332 
L 2605 2987 
L 2490 2987 
C 2490 2450 2432 2240 1837 2240 
L 1261 2240 
L 1261 3911 
C 1261 4128 1274 4160 1530 4160 
L 2355 4160 
C 3322 4160 3430 3765 3520 2916 
L 3635 2916 
L 3482 4325 
z
" transform="scale(0.015625)"/>
       </defs>
       <use xlink:href="#CMR17-46" transform="scale(0.996264)"/>
       <use xlink:href="#CMR17-31" transform="translate(59.983847 0) scale(0.996264)"/>
      </g>
     </g>
    </g>
    <g id="xtick_12">
     <g id="line2d_23">
      <path d="M 374.248124 176.488647 
L 374.248124 14.259249 
" clip-path="url(#p69b6fb5953)" style="fill: none; stroke: #b0b0b0; stroke-width: 0.8; stroke-linecap: square"/>
     </g>
     <g id="line2d_24">
      <g>
       <use xlink:href="#m699457d771" x="374.248124" y="176.488647" style="stroke: #000000; stroke-width: 0.8"/>
      </g>
     </g>
     <g id="text_12">
      <!-- F2 -->
      <g transform="translate(368.50575 190.407145) scale(0.1 -0.1)">
       <use xlink:href="#CMR17-46" transform="scale(0.996264)"/>
       <use xlink:href="#CMR17-32" transform="translate(59.983847 0) scale(0.996264)"/>
      </g>
     </g>
    </g>
    <g id="xtick_13">
     <g id="line2d_25">
      <path d="M 401.794261 176.488647 
L 401.794261 14.259249 
" clip-path="url(#p69b6fb5953)" style="fill: none; stroke: #b0b0b0; stroke-width: 0.8; stroke-linecap: square"/>
     </g>
     <g id="line2d_26">
      <g>
       <use xlink:href="#m699457d771" x="401.794261" y="176.488647" style="stroke: #000000; stroke-width: 0.8"/>
      </g>
     </g>
     <g id="text_13">
      <!-- F3 -->
      <g transform="translate(396.051886 190.407145) scale(0.1 -0.1)">
       <use xlink:href="#CMR17-46" transform="scale(0.996264)"/>
       <use xlink:href="#CMR17-33" transform="translate(59.983847 0) scale(0.996264)"/>
      </g>
     </g>
    </g>
    <g id="xtick_14">
     <g id="line2d_27">
      <path d="M 429.340397 176.488647 
L 429.340397 14.259249 
" clip-path="url(#p69b6fb5953)" style="fill: none; stroke: #b0b0b0; stroke-width: 0.8; stroke-linecap: square"/>
     </g>
     <g id="line2d_28">
      <g>
       <use xlink:href="#m699457d771" x="429.340397" y="176.488647" style="stroke: #000000; stroke-width: 0.8"/>
      </g>
     </g>
     <g id="text_14">
      <!-- F4 -->
      <g transform="translate(423.598023 190.407145) scale(0.1 -0.1)">
       <use xlink:href="#CMR17-46" transform="scale(0.996264)"/>
       <use xlink:href="#CMR17-34" transform="translate(59.983847 0) scale(0.996264)"/>
      </g>
     </g>
    </g>
    <g id="text_15">
     <!-- Roll Pass -->
     <g transform="translate(230.033115 203.262822) scale(0.1 -0.1)">
      <defs>
       <path id="CMR17-6f" d="M 2758 1356 
C 2758 2176 2163 2816 1466 2816 
C 768 2816 173 2176 173 1356 
C 173 551 768 -64 1466 -64 
C 2163 -64 2758 551 2758 1356 
z
M 1466 51 
C 1165 51 909 230 762 480 
C 602 767 582 1126 582 1408 
C 582 1677 595 2010 762 2298 
C 890 2509 1139 2714 1466 2714 
C 1754 2714 1997 2554 2150 2330 
C 2349 2029 2349 1607 2349 1408 
C 2349 1158 2336 775 2163 467 
C 1984 173 1709 51 1466 51 
z
" transform="scale(0.015625)"/>
       <path id="CMR17-6c" d="M 979 4396 
L 218 4326 
L 218 4160 
C 595 4160 653 4122 653 3817 
L 653 426 
C 653 184 627 153 218 153 
L 218 -13 
C 371 0 653 0 813 0 
C 979 0 1261 0 1414 -13 
L 1414 153 
C 1005 153 979 178 979 426 
L 979 4396 
z
" transform="scale(0.015625)"/>
       <path id="CMR17-50" d="M 1267 2042 
L 2291 2042 
C 3117 2042 3718 2578 3718 3184 
C 3718 3791 3130 4352 2291 4352 
L 333 4352 
L 333 4186 
C 774 4186 845 4186 845 3899 
L 845 446 
C 845 160 774 160 333 160 
L 333 0 
C 518 0 858 0 1056 0 
C 1254 0 1594 0 1779 0 
L 1779 160 
C 1338 160 1267 160 1267 446 
L 1267 2042 
z
M 1254 2176 
L 1254 3938 
C 1254 4155 1267 4186 1523 4186 
L 2170 4186 
C 2995 4186 3232 3714 3232 3184 
C 3232 2604 2950 2176 2170 2176 
L 1254 2176 
z
" transform="scale(0.015625)"/>
       <path id="CMR17-61" d="M 2304 1653 
C 2304 2072 2304 2294 2035 2543 
C 1798 2752 1523 2816 1306 2816 
C 800 2816 435 2407 435 1971 
C 435 1728 627 1728 666 1728 
C 749 1728 896 1778 896 1954 
C 896 2112 774 2181 666 2181 
C 640 2181 608 2174 589 2168 
C 723 2592 1069 2714 1293 2714 
C 1613 2714 1965 2429 1965 1885 
L 1965 1600 
C 1587 1600 1133 1549 774 1357 
C 371 1133 256 813 256 570 
C 256 77 832 -64 1171 -64 
C 1523 -64 1850 139 1990 511 
C 2003 233 2182 -18 2464 -18 
C 2598 -18 2938 70 2938 567 
L 2938 920 
L 2822 920 
L 2822 562 
C 2822 178 2650 128 2566 128 
C 2304 128 2304 458 2304 738 
L 2304 1653 
z
M 1965 870 
C 1965 317 1568 38 1216 38 
C 896 38 646 275 646 570 
C 646 761 730 1100 1101 1305 
C 1408 1478 1760 1504 1965 1504 
L 1965 870 
z
" transform="scale(0.015625)"/>
       <path id="CMR17-73" d="M 1978 2697 
C 1978 2813 1971 2819 1933 2819 
C 1907 2819 1901 2813 1824 2717 
C 1805 2691 1747 2626 1728 2601 
C 1523 2819 1235 2819 1126 2819 
C 416 2819 160 2447 160 2076 
C 160 1498 813 1365 998 1325 
C 1402 1243 1542 1217 1677 1101 
C 1760 1025 1901 884 1901 654 
C 1901 384 1747 38 1158 38 
C 602 38 403 460 288 1021 
C 269 1110 269 1117 218 1117 
C 166 1117 160 1110 160 983 
L 160 63 
C 160 -51 166 -58 205 -58 
C 237 -58 243 -51 275 0 
C 314 57 410 211 448 276 
C 576 103 800 -64 1158 -64 
C 1792 -64 2131 283 2131 784 
C 2131 1112 1958 1285 1875 1362 
C 1683 1561 1459 1606 1190 1657 
C 838 1735 390 1825 390 2217 
C 390 2383 480 2737 1126 2737 
C 1811 2737 1850 2094 1862 1888 
C 1869 1856 1901 1849 1920 1849 
C 1978 1849 1978 1869 1978 1978 
L 1978 2697 
z
" transform="scale(0.015625)"/>
      </defs>
      <use xlink:href="#CMR17-52" transform="scale(0.996264)"/>
      <use xlink:href="#CMR17-6f" transform="translate(67.791102 0) scale(0.996264)"/>
      <use xlink:href="#CMR17-6c" transform="translate(113.481579 0) scale(0.996264)"/>
      <use xlink:href="#CMR17-6c" transform="translate(138.352638 0) scale(0.996264)"/>
      <use xlink:href="#CMR17-50" transform="translate(193.299662 0) scale(0.996264)"/>
      <use xlink:href="#CMR17-61" transform="translate(253.283509 0) scale(0.996264)"/>
      <use xlink:href="#CMR17-73" transform="translate(298.973986 0) scale(0.996264)"/>
      <use xlink:href="#CMR17-73" transform="translate(334.775324 0) scale(0.996264)"/>
     </g>
    </g>
   </g>
   <g id="matplotlib.axis_2">
    <g id="ytick_1">
     <g id="line2d_29">
      <path d="M 50.581018 176.488647 
L 450 176.488647 
" clip-path="url(#p69b6fb5953)" style="fill: none; stroke: #b0b0b0; stroke-width: 0.8; stroke-linecap: square"/>
     </g>
     <g id="line2d_30">
      <defs>
       <path id="mdbabb75a69" d="M 0 0 
L -3.5 0 
" style="stroke: #000000; stroke-width: 0.8"/>
      </defs>
      <g>
       <use xlink:href="#mdbabb75a69" x="50.581018" y="176.488647" style="stroke: #000000; stroke-width: 0.8"/>
      </g>
     </g>
     <g id="text_16">
      <!-- $\mathdefault{1100}$ -->
      <g transform="translate(23.655677 179.947896) scale(0.1 -0.1)">
       <use xlink:href="#CMR17-31" transform="scale(0.996264)"/>
       <use xlink:href="#CMR17-31" transform="translate(45.690477 0) scale(0.996264)"/>
       <use xlink:href="#CMR17-30" transform="translate(91.380954 0) scale(0.996264)"/>
       <use xlink:href="#CMR17-30" transform="translate(137.071431 0) scale(0.996264)"/>
      </g>
     </g>
    </g>
    <g id="ytick_2">
     <g id="line2d_31">
      <path d="M 50.581018 153.313018 
L 450 153.313018 
" clip-path="url(#p69b6fb5953)" style="fill: none; stroke: #b0b0b0; stroke-width: 0.8; stroke-linecap: square"/>
     </g>
     <g id="line2d_32">
      <g>
       <use xlink:href="#mdbabb75a69" x="50.581018" y="153.313018" style="stroke: #000000; stroke-width: 0.8"/>
      </g>
     </g>
     <g id="text_17">
      <!-- $\mathdefault{1150}$ -->
      <g transform="translate(23.655677 156.772268) scale(0.1 -0.1)">
       <use xlink:href="#CMR17-31" transform="scale(0.996264)"/>
       <use xlink:href="#CMR17-31" transform="translate(45.690477 0) scale(0.996264)"/>
       <use xlink:href="#CMR17-35" transform="translate(91.380954 0) scale(0.996264)"/>
       <use xlink:href="#CMR17-30" transform="translate(137.071431 0) scale(0.996264)"/>
      </g>
     </g>
    </g>
    <g id="ytick_3">
     <g id="line2d_33">
      <path d="M 50.581018 130.13739 
L 450 130.13739 
" clip-path="url(#p69b6fb5953)" style="fill: none; stroke: #b0b0b0; stroke-width: 0.8; stroke-linecap: square"/>
     </g>
     <g id="line2d_34">
      <g>
       <use xlink:href="#mdbabb75a69" x="50.581018" y="130.13739" style="stroke: #000000; stroke-width: 0.8"/>
      </g>
     </g>
     <g id="text_18">
      <!-- $\mathdefault{1200}$ -->
      <g transform="translate(23.655677 133.596639) scale(0.1 -0.1)">
       <use xlink:href="#CMR17-31" transform="scale(0.996264)"/>
       <use xlink:href="#CMR17-32" transform="translate(45.690477 0) scale(0.996264)"/>
       <use xlink:href="#CMR17-30" transform="translate(91.380954 0) scale(0.996264)"/>
       <use xlink:href="#CMR17-30" transform="translate(137.071431 0) scale(0.996264)"/>
      </g>
     </g>
    </g>
    <g id="ytick_4">
     <g id="line2d_35">
      <path d="M 50.581018 106.961762 
L 450 106.961762 
" clip-path="url(#p69b6fb5953)" style="fill: none; stroke: #b0b0b0; stroke-width: 0.8; stroke-linecap: square"/>
     </g>
     <g id="line2d_36">
      <g>
       <use xlink:href="#mdbabb75a69" x="50.581018" y="106.961762" style="stroke: #000000; stroke-width: 0.8"/>
      </g>
     </g>
     <g id="text_19">
      <!-- $\mathdefault{1250}$ -->
      <g transform="translate(23.655677 110.421011) scale(0.1 -0.1)">
       <use xlink:href="#CMR17-31" transform="scale(0.996264)"/>
       <use xlink:href="#CMR17-32" transform="translate(45.690477 0) scale(0.996264)"/>
       <use xlink:href="#CMR17-35" transform="translate(91.380954 0) scale(0.996264)"/>
       <use xlink:href="#CMR17-30" transform="translate(137.071431 0) scale(0.996264)"/>
      </g>
     </g>
    </g>
    <g id="ytick_5">
     <g id="line2d_37">
      <path d="M 50.581018 83.786134 
L 450 83.786134 
" clip-path="url(#p69b6fb5953)" style="fill: none; stroke: #b0b0b0; stroke-width: 0.8; stroke-linecap: square"/>
     </g>
     <g id="line2d_38">
      <g>
       <use xlink:href="#mdbabb75a69" x="50.581018" y="83.786134" style="stroke: #000000; stroke-width: 0.8"/>
      </g>
     </g>
     <g id="text_20">
      <!-- $\mathdefault{1300}$ -->
      <g transform="translate(23.655677 87.245383) scale(0.1 -0.1)">
       <use xlink:href="#CMR17-31" transform="scale(0.996264)"/>
       <use xlink:href="#CMR17-33" transform="translate(45.690477 0) scale(0.996264)"/>
       <use xlink:href="#CMR17-30" transform="translate(91.380954 0) scale(0.996264)"/>
       <use xlink:href="#CMR17-30" transform="translate(137.071431 0) scale(0.996264)"/>
      </g>
     </g>
    </g>
    <g id="ytick_6">
     <g id="line2d_39">
      <path d="M 50.581018 60.610506 
L 450 60.610506 
" clip-path="url(#p69b6fb5953)" style="fill: none; stroke: #b0b0b0; stroke-width: 0.8; stroke-linecap: square"/>
     </g>
     <g id="line2d_40">
      <g>
       <use xlink:href="#mdbabb75a69" x="50.581018" y="60.610506" style="stroke: #000000; stroke-width: 0.8"/>
      </g>
     </g>
     <g id="text_21">
      <!-- $\mathdefault{1350}$ -->
      <g transform="translate(23.655677 64.069755) scale(0.1 -0.1)">
       <use xlink:href="#CMR17-31" transform="scale(0.996264)"/>
       <use xlink:href="#CMR17-33" transform="translate(45.690477 0) scale(0.996264)"/>
       <use xlink:href="#CMR17-35" transform="translate(91.380954 0) scale(0.996264)"/>
       <use xlink:href="#CMR17-30" transform="translate(137.071431 0) scale(0.996264)"/>
      </g>
     </g>
    </g>
    <g id="ytick_7">
     <g id="line2d_41">
      <path d="M 50.581018 37.434877 
L 450 37.434877 
" clip-path="url(#p69b6fb5953)" style="fill: none; stroke: #b0b0b0; stroke-width: 0.8; stroke-linecap: square"/>
     </g>
     <g id="line2d_42">
      <g>
       <use xlink:href="#mdbabb75a69" x="50.581018" y="37.434877" style="stroke: #000000; stroke-width: 0.8"/>
      </g>
     </g>
     <g id="text_22">
      <!-- $\mathdefault{1400}$ -->
      <g transform="translate(23.655677 40.894127) scale(0.1 -0.1)">
       <use xlink:href="#CMR17-31" transform="scale(0.996264)"/>
       <use xlink:href="#CMR17-34" transform="translate(45.690477 0) scale(0.996264)"/>
       <use xlink:href="#CMR17-30" transform="translate(91.380954 0) scale(0.996264)"/>
       <use xlink:href="#CMR17-30" transform="translate(137.071431 0) scale(0.996264)"/>
      </g>
     </g>
    </g>
    <g id="ytick_8">
     <g id="line2d_43">
      <path d="M 50.581018 14.259249 
L 450 14.259249 
" clip-path="url(#p69b6fb5953)" style="fill: none; stroke: #b0b0b0; stroke-width: 0.8; stroke-linecap: square"/>
     </g>
     <g id="line2d_44">
      <g>
       <use xlink:href="#mdbabb75a69" x="50.581018" y="14.259249" style="stroke: #000000; stroke-width: 0.8"/>
      </g>
     </g>
     <g id="text_23">
      <!-- $\mathdefault{1450}$ -->
      <g transform="translate(23.655677 17.718498) scale(0.1 -0.1)">
       <use xlink:href="#CMR17-31" transform="scale(0.996264)"/>
       <use xlink:href="#CMR17-34" transform="translate(45.690477 0) scale(0.996264)"/>
       <use xlink:href="#CMR17-35" transform="translate(91.380954 0) scale(0.996264)"/>
       <use xlink:href="#CMR17-30" transform="translate(137.071431 0) scale(0.996264)"/>
      </g>
     </g>
    </g>
    <g id="text_24">
     <!-- Workpiece Temperature $\Temperature$ in \unit{\kelvin} -->
     <g transform="translate(17.718498 164.190646) rotate(-90) scale(0.1 -0.1)">
      <defs>
       <path id="CMR17-57" d="M 5523 3764 
C 5581 3936 5677 4160 6048 4160 
L 6048 4326 
C 5939 4326 5715 4326 5600 4326 
C 5440 4326 5158 4326 5005 4332 
L 5005 4160 
C 5293 4160 5414 4000 5414 3847 
C 5414 3802 5408 3777 5382 3707 
L 4390 555 
L 3347 3873 
C 3328 3937 3322 3963 3322 3988 
C 3322 4160 3603 4160 3725 4160 
L 3725 4326 
C 3539 4326 3219 4326 3021 4326 
C 2861 4326 2573 4326 2426 4332 
L 2426 4160 
C 2720 4160 2797 4141 2861 4027 
C 2886 3969 2989 3638 2989 3619 
C 2989 3593 2976 3555 2970 3536 
L 2029 561 
L 986 3867 
C 954 3957 954 3969 954 3982 
C 954 4160 1235 4160 1363 4160 
L 1363 4326 
C 1178 4326 858 4326 659 4326 
C 493 4326 211 4326 58 4332 
L 58 4160 
C 442 4160 467 4122 531 3918 
L 1779 -20 
C 1811 -115 1811 -128 1869 -128 
C 1920 -128 1939 -115 1965 -26 
L 3053 3433 
L 4141 -26 
C 4166 -115 4186 -128 4237 -128 
C 4294 -128 4294 -115 4326 -20 
L 5523 3764 
z
" transform="scale(0.015625)"/>
       <path id="CMR17-72" d="M 960 1497 
C 960 2112 1222 2688 1702 2688 
C 1747 2688 1792 2682 1837 2662 
C 1837 2662 1696 2617 1696 2452 
C 1696 2298 1818 2234 1914 2234 
C 1990 2234 2131 2279 2131 2458 
C 2131 2663 1926 2790 1709 2790 
C 1222 2790 1011 2317 947 2093 
L 941 2093 
L 941 2790 
L 198 2720 
L 198 2554 
C 576 2554 634 2515 634 2208 
L 634 428 
C 634 184 608 153 198 153 
L 198 -13 
C 352 0 646 0 813 0 
C 998 0 1325 0 1498 -13 
L 1498 153 
C 1037 153 960 153 960 440 
L 960 1497 
z
" transform="scale(0.015625)"/>
       <path id="CMR17-6b" d="M 1670 1673 
C 1664 1686 1632 1724 1632 1743 
C 1632 1756 2086 2171 2144 2222 
C 2509 2528 2739 2560 2906 2560 
L 2906 2733 
C 2867 2733 2854 2733 2848 2720 
L 2534 2720 
C 2355 2720 2080 2720 1907 2733 
L 1907 2566 
C 1997 2559 2061 2508 2061 2419 
C 2061 2291 1933 2170 1926 2170 
L 960 1289 
L 960 4396 
L 198 4326 
L 198 4160 
C 576 4160 634 4122 634 3817 
L 634 426 
C 634 184 608 153 198 153 
L 198 -13 
C 352 0 634 0 794 0 
C 954 0 1235 0 1389 -13 
L 1389 153 
C 979 153 954 178 954 428 
L 954 1130 
L 1395 1532 
L 2042 574 
C 2118 459 2182 369 2182 286 
C 2182 172 2067 153 1990 153 
L 1990 -13 
C 2144 0 2419 0 2579 0 
C 2694 0 2931 0 3040 0 
L 3040 153 
C 2739 153 2669 210 2477 491 
L 1670 1673 
z
" transform="scale(0.015625)"/>
       <path id="CMR17-70" d="M 1408 -1063 
C 998 -1063 973 -1037 973 -789 
L 973 402 
C 1158 134 1427 -38 1766 -38 
C 2406 -38 3053 523 3053 1388 
C 3053 2191 2496 2802 1837 2802 
C 1453 2802 1139 2592 960 2338 
L 960 2802 
L 198 2732 
L 198 2567 
C 576 2567 634 2528 634 2223 
L 634 -789 
C 634 -1031 608 -1063 198 -1063 
L 198 -1228 
C 352 -1216 634 -1216 800 -1216 
C 966 -1216 1254 -1216 1408 -1228 
L 1408 -1063 
z
M 973 2012 
C 973 2102 973 2235 1222 2471 
C 1254 2497 1472 2688 1792 2688 
C 2259 2688 2643 2108 2643 1382 
C 2643 656 2234 64 1728 64 
C 1498 64 1248 172 1056 472 
C 973 612 973 650 973 752 
L 973 2012 
z
" transform="scale(0.015625)"/>
       <path id="CMR17-69" d="M 992 3909 
C 992 4049 877 4170 730 4170 
C 589 4170 467 4056 467 3909 
C 467 3769 582 3648 730 3648 
C 870 3648 992 3763 992 3909 
z
M 243 2706 
L 243 2541 
C 602 2541 653 2502 653 2197 
L 653 427 
C 653 184 627 153 218 153 
L 218 -13 
C 371 0 646 0 806 0 
C 960 0 1222 0 1370 -13 
L 1370 153 
C 992 153 979 191 979 420 
L 979 2776 
L 243 2706 
z
" transform="scale(0.015625)"/>
       <path id="CMR17-65" d="M 2438 1472 
C 2464 1498 2464 1511 2464 1576 
C 2464 2238 2118 2816 1389 2816 
C 710 2816 173 2169 173 1383 
C 173 551 781 -64 1459 -64 
C 2176 -64 2458 607 2458 740 
C 2458 784 2419 784 2406 784 
C 2362 784 2355 771 2330 696 
C 2189 265 1837 51 1504 51 
C 1229 51 954 203 781 480 
C 582 803 582 1176 582 1472 
L 2438 1472 
z
M 589 1568 
C 634 2505 1126 2714 1382 2714 
C 1818 2714 2112 2297 2118 1568 
L 589 1568 
z
" transform="scale(0.015625)"/>
       <path id="CMR17-63" d="M 2234 2240 
C 2112 2240 1933 2240 1933 2017 
C 1933 1838 2080 1787 2163 1787 
C 2208 1787 2394 1807 2394 2024 
C 2394 2467 1958 2803 1466 2803 
C 787 2803 211 2178 211 1363 
C 211 516 813 -64 1466 -64 
C 2259 -64 2458 677 2458 748 
C 2458 774 2451 793 2406 793 
C 2362 793 2355 787 2330 703 
C 2163 180 1798 51 1523 51 
C 1114 51 621 427 621 1369 
C 621 2338 1094 2688 1472 2688 
C 1722 2688 2093 2573 2234 2240 
z
" transform="scale(0.015625)"/>
       <path id="CMR17-54" d="M 3981 4326 
L 288 4326 
L 179 2918 
L 294 2918 
C 378 3976 467 4160 1453 4160 
C 1568 4160 1754 4160 1805 4154 
C 1926 4135 1926 4058 1926 3912 
L 1926 459 
C 1926 230 1907 160 1376 160 
L 1197 160 
L 1197 0 
C 1504 0 1824 0 2138 0 
C 2451 0 2771 0 3078 0 
L 3078 160 
L 2899 160 
C 2368 160 2349 230 2349 459 
L 2349 3912 
C 2349 4052 2349 4129 2464 4154 
C 2515 4160 2701 4160 2816 4160 
C 3795 4160 3891 3976 3974 2918 
L 4090 2918 
L 3981 4326 
z
" transform="scale(0.015625)"/>
       <path id="CMR17-6d" d="M 4326 1933 
C 4326 2252 4269 2790 3507 2790 
C 3072 2790 2771 2496 2656 2151 
L 2650 2151 
C 2573 2676 2195 2790 1837 2790 
C 1331 2790 1069 2400 973 2144 
L 966 2144 
L 966 2790 
L 211 2720 
L 211 2554 
C 589 2554 646 2515 646 2208 
L 646 428 
C 646 184 621 153 211 153 
L 211 -13 
C 365 0 646 0 813 0 
C 979 0 1267 0 1421 -13 
L 1421 153 
C 1011 153 986 178 986 428 
L 986 1658 
C 986 2247 1344 2688 1792 2688 
C 2266 2688 2317 2266 2317 1958 
L 2317 428 
C 2317 184 2291 153 1882 153 
L 1882 -13 
C 2035 0 2317 0 2483 0 
C 2650 0 2938 0 3091 -13 
L 3091 153 
C 2682 153 2656 178 2656 428 
L 2656 1658 
C 2656 2247 3014 2688 3462 2688 
C 3936 2688 3987 2266 3987 1958 
L 3987 428 
C 3987 184 3962 153 3552 153 
L 3552 -13 
C 3706 0 3987 0 4154 0 
C 4320 0 4608 0 4762 -13 
L 4762 153 
C 4352 153 4326 178 4326 428 
L 4326 1933 
z
" transform="scale(0.015625)"/>
       <path id="CMR17-74" d="M 966 2560 
L 1862 2560 
L 1862 2725 
L 966 2725 
L 966 3904 
L 851 3904 
C 838 3245 614 2668 70 2668 
L 70 2560 
L 627 2560 
L 627 771 
C 627 650 627 -64 1370 -64 
C 1747 -64 1965 306 1965 777 
L 1965 1140 
L 1850 1140 
L 1850 783 
C 1850 344 1677 51 1408 51 
C 1222 51 966 178 966 758 
L 966 2560 
z
" transform="scale(0.015625)"/>
       <path id="CMR17-75" d="M 1882 2693 
L 1882 2528 
C 2259 2528 2317 2489 2317 2186 
L 2317 1032 
C 2317 500 2029 38 1555 38 
C 1030 38 986 348 986 678 
L 986 2763 
L 211 2693 
L 211 2528 
C 467 2528 640 2528 646 2274 
L 646 1058 
C 646 633 646 361 813 183 
C 896 101 1056 -64 1517 -64 
C 2061 -64 2272 377 2323 506 
L 2330 506 
L 2330 -63 
L 3091 -63 
L 3091 128 
C 2714 128 2656 166 2656 473 
L 2656 2763 
L 1882 2693 
z
" transform="scale(0.015625)"/>
       <path id="CMMI12-54" d="M 2669 3910 
C 2707 4064 2720 4121 2816 4147 
C 2867 4160 3078 4160 3213 4160 
C 3853 4160 4154 4134 4154 3634 
C 4154 3537 4128 3295 4090 3057 
L 4083 2980 
C 4083 2954 4109 2916 4147 2916 
C 4211 2916 4211 2948 4230 3050 
L 4416 4184 
C 4429 4243 4429 4256 4429 4275 
C 4429 4345 4390 4345 4262 4345 
L 762 4345 
C 614 4345 608 4339 570 4224 
L 179 3070 
C 173 3056 154 2986 154 2980 
C 154 2948 179 2916 218 2916 
C 269 2916 282 2941 307 3024 
C 576 3801 710 4160 1562 4160 
L 1990 4160 
C 2144 4160 2208 4160 2208 4089 
C 2208 4069 2208 4057 2176 3941 
L 1318 499 
C 1254 249 1242 185 563 185 
C 403 185 358 185 358 64 
C 358 0 429 0 461 0 
C 621 0 787 0 947 0 
L 1946 0 
C 2106 0 2278 0 2438 0 
C 2509 0 2573 0 2573 121 
C 2573 185 2528 185 2362 185 
C 1786 185 1786 243 1786 339 
C 1786 346 1786 391 1811 494 
L 2669 3910 
z
" transform="scale(0.015625)"/>
       <path id="CMR17-6e" d="M 2656 1933 
C 2656 2259 2592 2790 1837 2790 
C 1331 2790 1069 2400 973 2144 
L 966 2144 
L 966 2790 
L 211 2720 
L 211 2554 
C 589 2554 646 2515 646 2208 
L 646 428 
C 646 184 621 153 211 153 
L 211 -13 
C 365 0 646 0 813 0 
C 979 0 1267 0 1421 -13 
L 1421 153 
C 1011 153 986 178 986 428 
L 986 1658 
C 986 2247 1344 2688 1792 2688 
C 2266 2688 2317 2266 2317 1958 
L 2317 428 
C 2317 184 2291 153 1882 153 
L 1882 -13 
C 2035 0 2317 0 2483 0 
C 2650 0 2938 0 3091 -13 
L 3091 153 
C 2682 153 2656 178 2656 428 
L 2656 1933 
z
" transform="scale(0.015625)"/>
       <path id="CMR17-4b" d="M 2362 2675 
L 3469 3782 
C 3699 4006 3942 4186 4301 4186 
L 4301 4352 
C 4173 4352 4013 4352 3885 4352 
C 3712 4352 3411 4352 3245 4358 
L 3245 4192 
C 3411 4180 3437 4065 3437 4019 
C 3437 3975 3411 3905 3386 3867 
L 1261 1738 
L 1261 3900 
C 1261 4186 1331 4186 1773 4186 
L 1773 4352 
C 1587 4352 1248 4352 1050 4352 
C 851 4352 512 4352 326 4352 
L 326 4186 
C 768 4186 838 4186 838 3899 
L 838 446 
C 838 160 768 160 326 160 
L 326 0 
C 512 0 851 0 1050 0 
C 1248 0 1587 0 1773 0 
L 1773 160 
C 1331 160 1261 160 1261 447 
L 1261 1579 
L 2080 2390 
L 3290 537 
C 3328 473 3373 390 3373 326 
C 3373 160 3194 160 3110 160 
L 3110 0 
C 3315 0 3610 0 3821 0 
C 3974 0 4237 0 4384 -6 
L 4384 160 
C 4077 160 3981 198 3789 493 
L 2362 2675 
z
" transform="scale(0.015625)"/>
      </defs>
      <use xlink:href="#CMR17-57" transform="scale(0.996264)"/>
      <use xlink:href="#CMR17-6f" transform="translate(87.289395 0) scale(0.996264)"/>
      <use xlink:href="#CMR17-72" transform="translate(132.979872 0) scale(0.996264)"/>
      <use xlink:href="#CMR17-6b" transform="translate(168.260639 0) scale(0.996264)"/>
      <use xlink:href="#CMR17-70" transform="translate(216.553555 0) scale(0.996264)"/>
      <use xlink:href="#CMR17-69" transform="translate(267.448925 0) scale(0.996264)"/>
      <use xlink:href="#CMR17-65" transform="translate(292.319984 0) scale(0.996264)"/>
      <use xlink:href="#CMR17-63" transform="translate(332.805644 0) scale(0.996264)"/>
      <use xlink:href="#CMR17-65" transform="translate(373.291304 0) scale(0.996264)"/>
      <use xlink:href="#CMR17-54" transform="translate(443.852931 0) scale(0.996264)"/>
      <use xlink:href="#CMR17-65" transform="translate(502.555556 0) scale(0.996264)"/>
      <use xlink:href="#CMR17-6d" transform="translate(543.041217 0) scale(0.996264)"/>
      <use xlink:href="#CMR17-70" transform="translate(619.960807 0) scale(0.996264)"/>
      <use xlink:href="#CMR17-65" transform="translate(673.458615 0) scale(0.996264)"/>
      <use xlink:href="#CMR17-72" transform="translate(713.944276 0) scale(0.996264)"/>
      <use xlink:href="#CMR17-61" transform="translate(749.225044 0) scale(0.996264)"/>
      <use xlink:href="#CMR17-74" transform="translate(794.915521 0) scale(0.996264)"/>
      <use xlink:href="#CMR17-75" transform="translate(830.196288 0) scale(0.996264)"/>
      <use xlink:href="#CMR17-72" transform="translate(881.091658 0) scale(0.996264)"/>
      <use xlink:href="#CMR17-65" transform="translate(916.372426 0) scale(0.996264)"/>
      <use xlink:href="#CMMI12-54" transform="translate(986.934053 0) scale(0.996264)"/>
      <use xlink:href="#CMR17-69" transform="translate(1087.733651 0) scale(0.996264)"/>
      <use xlink:href="#CMR17-6e" transform="translate(1112.60471 0) scale(0.996264)"/>
      <use xlink:href="#CMR17-4b" transform="translate(1193.576046 0) scale(0.996264)"/>
     </g>
    </g>
   </g>
   <g id="patch_3">
    <path d="M 60.910819 52.79245 
L 67.797353 52.79245 
L 67.797353 46.599539 
L 60.910819 46.599539 
L 60.910819 52.79245 
z
" clip-path="url(#p69b6fb5953)" style="fill: #1f77b4; fill-opacity: 0.5; stroke: #000000; stroke-linejoin: miter"/>
   </g>
   <g id="line2d_45">
    <path d="M 64.354086 52.79245 
L 64.354086 60.58656 
" clip-path="url(#p69b6fb5953)" style="fill: none; stroke: #000000; stroke-linecap: square"/>
   </g>
   <g id="line2d_46">
    <path d="M 64.354086 46.599539 
L 64.354086 39.701764 
" clip-path="url(#p69b6fb5953)" style="fill: none; stroke: #000000; stroke-linecap: square"/>
   </g>
   <g id="line2d_47">
    <path d="M 62.632453 60.58656 
L 66.07572 60.58656 
" clip-path="url(#p69b6fb5953)" style="fill: none; stroke: #000000; stroke-linecap: square"/>
   </g>
   <g id="line2d_48">
    <path d="M 62.632453 39.701764 
L 66.07572 39.701764 
" clip-path="url(#p69b6fb5953)" style="fill: none; stroke: #000000; stroke-linecap: square"/>
   </g>
   <g id="line2d_49">
    <defs>
     <path id="m15c03c3bd6" d="M -2 0 
L 2 0 
M 0 2 
L 0 -2 
" style="stroke: #000000"/>
    </defs>
    <g clip-path="url(#p69b6fb5953)">
     <use xlink:href="#m15c03c3bd6" x="64.354086" y="63.168013" style="fill-opacity: 0; stroke: #000000"/>
    </g>
   </g>
   <g id="patch_4">
    <path d="M 88.456956 60.344195 
L 95.34349 60.344195 
L 95.34349 54.450176 
L 88.456956 54.450176 
L 88.456956 60.344195 
z
" clip-path="url(#p69b6fb5953)" style="fill: #1f77b4; fill-opacity: 0.5; stroke: #000000; stroke-linejoin: miter"/>
   </g>
   <g id="line2d_50">
    <path d="M 91.900223 60.344195 
L 91.900223 67.412413 
" clip-path="url(#p69b6fb5953)" style="fill: none; stroke: #000000; stroke-linecap: square"/>
   </g>
   <g id="line2d_51">
    <path d="M 91.900223 54.450176 
L 91.900223 48.458058 
" clip-path="url(#p69b6fb5953)" style="fill: none; stroke: #000000; stroke-linecap: square"/>
   </g>
   <g id="line2d_52">
    <path d="M 90.178589 67.412413 
L 93.621856 67.412413 
" clip-path="url(#p69b6fb5953)" style="fill: none; stroke: #000000; stroke-linecap: square"/>
   </g>
   <g id="line2d_53">
    <path d="M 90.178589 48.458058 
L 93.621856 48.458058 
" clip-path="url(#p69b6fb5953)" style="fill: none; stroke: #000000; stroke-linecap: square"/>
   </g>
   <g id="line2d_54">
    <g clip-path="url(#p69b6fb5953)">
     <use xlink:href="#m15c03c3bd6" x="91.900223" y="69.654403" style="fill-opacity: 0; stroke: #000000"/>
    </g>
   </g>
   <g id="patch_5">
    <path d="M 116.003092 66.891838 
L 122.889627 66.891838 
L 122.889627 61.47606 
L 116.003092 61.47606 
L 116.003092 66.891838 
z
" clip-path="url(#p69b6fb5953)" style="fill: #1f77b4; fill-opacity: 0.5; stroke: #000000; stroke-linejoin: miter"/>
   </g>
   <g id="line2d_55">
    <path d="M 119.446359 66.891838 
L 119.446359 73.423592 
" clip-path="url(#p69b6fb5953)" style="fill: none; stroke: #000000; stroke-linecap: square"/>
   </g>
   <g id="line2d_56">
    <path d="M 119.446359 61.47606 
L 119.446359 56.058517 
" clip-path="url(#p69b6fb5953)" style="fill: none; stroke: #000000; stroke-linecap: square"/>
   </g>
   <g id="line2d_57">
    <path d="M 117.724726 73.423592 
L 121.167993 73.423592 
" clip-path="url(#p69b6fb5953)" style="fill: none; stroke: #000000; stroke-linecap: square"/>
   </g>
   <g id="line2d_58">
    <path d="M 117.724726 56.058517 
L 121.167993 56.058517 
" clip-path="url(#p69b6fb5953)" style="fill: none; stroke: #000000; stroke-linecap: square"/>
   </g>
   <g id="line2d_59">
    <g clip-path="url(#p69b6fb5953)">
     <use xlink:href="#m15c03c3bd6" x="119.446359" y="75.412532" style="fill-opacity: 0; stroke: #000000"/>
    </g>
   </g>
   <g id="patch_6">
    <path d="M 143.549229 75.396409 
L 150.435763 75.396409 
L 150.435763 70.658459 
L 143.549229 70.658459 
L 143.549229 75.396409 
z
" clip-path="url(#p69b6fb5953)" style="fill: #1f77b4; fill-opacity: 0.5; stroke: #000000; stroke-linejoin: miter"/>
   </g>
   <g id="line2d_60">
    <path d="M 146.992496 75.396409 
L 146.992496 81.195219 
" clip-path="url(#p69b6fb5953)" style="fill: none; stroke: #000000; stroke-linecap: square"/>
   </g>
   <g id="line2d_61">
    <path d="M 146.992496 70.658459 
L 146.992496 65.920037 
" clip-path="url(#p69b6fb5953)" style="fill: none; stroke: #000000; stroke-linecap: square"/>
   </g>
   <g id="line2d_62">
    <path d="M 145.270863 81.195219 
L 148.71413 81.195219 
" clip-path="url(#p69b6fb5953)" style="fill: none; stroke: #000000; stroke-linecap: square"/>
   </g>
   <g id="line2d_63">
    <path d="M 145.270863 65.920037 
L 148.71413 65.920037 
" clip-path="url(#p69b6fb5953)" style="fill: none; stroke: #000000; stroke-linecap: square"/>
   </g>
   <g id="line2d_64">
    <g clip-path="url(#p69b6fb5953)">
     <use xlink:href="#m15c03c3bd6" x="146.992496" y="82.924941" style="fill-opacity: 0; stroke: #000000"/>
    </g>
   </g>
   <g id="patch_7">
    <path d="M 171.095366 82.707883 
L 177.9819 82.707883 
L 177.9819 78.494903 
L 171.095366 78.494903 
L 171.095366 82.707883 
z
" clip-path="url(#p69b6fb5953)" style="fill: #1f77b4; fill-opacity: 0.5; stroke: #000000; stroke-linejoin: miter"/>
   </g>
   <g id="line2d_65">
    <path d="M 174.538633 82.707883 
L 174.538633 87.886664 
" clip-path="url(#p69b6fb5953)" style="fill: none; stroke: #000000; stroke-linecap: square"/>
   </g>
   <g id="line2d_66">
    <path d="M 174.538633 78.494903 
L 174.538633 74.284125 
" clip-path="url(#p69b6fb5953)" style="fill: none; stroke: #000000; stroke-linecap: square"/>
   </g>
   <g id="line2d_67">
    <path d="M 172.816999 87.886664 
L 176.260266 87.886664 
" clip-path="url(#p69b6fb5953)" style="fill: none; stroke: #000000; stroke-linecap: square"/>
   </g>
   <g id="line2d_68">
    <path d="M 172.816999 74.284125 
L 176.260266 74.284125 
" clip-path="url(#p69b6fb5953)" style="fill: none; stroke: #000000; stroke-linecap: square"/>
   </g>
   <g id="line2d_69">
    <g clip-path="url(#p69b6fb5953)">
     <use xlink:href="#m15c03c3bd6" x="174.538633" y="89.423154" style="fill-opacity: 0; stroke: #000000"/>
    </g>
   </g>
   <g id="patch_8">
    <path d="M 198.641503 94.006985 
L 205.528037 94.006985 
L 205.528037 90.389504 
L 198.641503 90.389504 
L 198.641503 94.006985 
z
" clip-path="url(#p69b6fb5953)" style="fill: #1f77b4; fill-opacity: 0.5; stroke: #000000; stroke-linejoin: miter"/>
   </g>
   <g id="line2d_70">
    <path d="M 202.08477 94.006985 
L 202.08477 98.466628 
" clip-path="url(#p69b6fb5953)" style="fill: none; stroke: #000000; stroke-linecap: square"/>
   </g>
   <g id="line2d_71">
    <path d="M 202.08477 90.389504 
L 202.08477 86.777566 
" clip-path="url(#p69b6fb5953)" style="fill: none; stroke: #000000; stroke-linecap: square"/>
   </g>
   <g id="line2d_72">
    <path d="M 200.363136 98.466628 
L 203.806403 98.466628 
" clip-path="url(#p69b6fb5953)" style="fill: none; stroke: #000000; stroke-linecap: square"/>
   </g>
   <g id="line2d_73">
    <path d="M 200.363136 86.777566 
L 203.806403 86.777566 
" clip-path="url(#p69b6fb5953)" style="fill: none; stroke: #000000; stroke-linecap: square"/>
   </g>
   <g id="line2d_74">
    <g clip-path="url(#p69b6fb5953)">
     <use xlink:href="#m15c03c3bd6" x="202.08477" y="99.786634" style="fill-opacity: 0; stroke: #000000"/>
    </g>
   </g>
   <g id="patch_9">
    <path d="M 226.187639 103.736511 
L 233.074173 103.736511 
L 233.074173 100.559407 
L 226.187639 100.559407 
L 226.187639 103.736511 
z
" clip-path="url(#p69b6fb5953)" style="fill: #1f77b4; fill-opacity: 0.5; stroke: #000000; stroke-linejoin: miter"/>
   </g>
   <g id="line2d_75">
    <path d="M 229.630906 103.736511 
L 229.630906 107.660293 
" clip-path="url(#p69b6fb5953)" style="fill: none; stroke: #000000; stroke-linecap: square"/>
   </g>
   <g id="line2d_76">
    <path d="M 229.630906 100.559407 
L 229.630906 97.389848 
" clip-path="url(#p69b6fb5953)" style="fill: none; stroke: #000000; stroke-linecap: square"/>
   </g>
   <g id="line2d_77">
    <path d="M 227.909273 107.660293 
L 231.35254 107.660293 
" clip-path="url(#p69b6fb5953)" style="fill: none; stroke: #000000; stroke-linecap: square"/>
   </g>
   <g id="line2d_78">
    <path d="M 227.909273 97.389848 
L 231.35254 97.389848 
" clip-path="url(#p69b6fb5953)" style="fill: none; stroke: #000000; stroke-linecap: square"/>
   </g>
   <g id="line2d_79">
    <g clip-path="url(#p69b6fb5953)">
     <use xlink:href="#m15c03c3bd6" x="229.630906" y="108.820587" style="fill-opacity: 0; stroke: #000000"/>
    </g>
   </g>
   <g id="patch_10">
    <path d="M 253.733776 116.197582 
L 260.62031 116.197582 
L 260.62031 113.633375 
L 253.733776 113.633375 
L 253.733776 116.197582 
z
" clip-path="url(#p69b6fb5953)" style="fill: #1f77b4; fill-opacity: 0.5; stroke: #000000; stroke-linejoin: miter"/>
   </g>
   <g id="line2d_80">
    <path d="M 257.177043 116.197582 
L 257.177043 119.369025 
" clip-path="url(#p69b6fb5953)" style="fill: none; stroke: #000000; stroke-linecap: square"/>
   </g>
   <g id="line2d_81">
    <path d="M 257.177043 113.633375 
L 257.177043 111.077264 
" clip-path="url(#p69b6fb5953)" style="fill: none; stroke: #000000; stroke-linecap: square"/>
   </g>
   <g id="line2d_82">
    <path d="M 255.455409 119.369025 
L 258.898677 119.369025 
" clip-path="url(#p69b6fb5953)" style="fill: none; stroke: #000000; stroke-linecap: square"/>
   </g>
   <g id="line2d_83">
    <path d="M 255.455409 111.077264 
L 258.898677 111.077264 
" clip-path="url(#p69b6fb5953)" style="fill: none; stroke: #000000; stroke-linecap: square"/>
   </g>
   <g id="line2d_84">
    <g clip-path="url(#p69b6fb5953)">
     <use xlink:href="#m15c03c3bd6" x="257.177043" y="120.30616" style="fill-opacity: 0; stroke: #000000"/>
    </g>
   </g>
   <g id="patch_11">
    <path d="M 281.279913 126.006766 
L 288.166447 126.006766 
L 288.166447 123.835721 
L 281.279913 123.835721 
L 281.279913 126.006766 
z
" clip-path="url(#p69b6fb5953)" style="fill: #1f77b4; fill-opacity: 0.5; stroke: #000000; stroke-linejoin: miter"/>
   </g>
   <g id="line2d_85">
    <path d="M 284.72318 126.006766 
L 284.72318 128.694638 
" clip-path="url(#p69b6fb5953)" style="fill: none; stroke: #000000; stroke-linecap: square"/>
   </g>
   <g id="line2d_86">
    <path d="M 284.72318 123.835721 
L 284.72318 121.672874 
" clip-path="url(#p69b6fb5953)" style="fill: none; stroke: #000000; stroke-linecap: square"/>
   </g>
   <g id="line2d_87">
    <path d="M 283.001546 128.694638 
L 286.444813 128.694638 
" clip-path="url(#p69b6fb5953)" style="fill: none; stroke: #000000; stroke-linecap: square"/>
   </g>
   <g id="line2d_88">
    <path d="M 283.001546 121.672874 
L 286.444813 121.672874 
" clip-path="url(#p69b6fb5953)" style="fill: none; stroke: #000000; stroke-linecap: square"/>
   </g>
   <g id="line2d_89">
    <g clip-path="url(#p69b6fb5953)">
     <use xlink:href="#m15c03c3bd6" x="284.72318" y="129.488608" style="fill-opacity: 0; stroke: #000000"/>
    </g>
   </g>
   <g id="patch_12">
    <path d="M 308.826049 139.942493 
L 315.712584 139.942493 
L 315.712584 138.139599 
L 308.826049 138.139599 
L 308.826049 139.942493 
z
" clip-path="url(#p69b6fb5953)" style="fill: #1f77b4; fill-opacity: 0.5; stroke: #000000; stroke-linejoin: miter"/>
   </g>
   <g id="line2d_90">
    <path d="M 312.269316 139.942493 
L 312.269316 142.17738 
" clip-path="url(#p69b6fb5953)" style="fill: none; stroke: #000000; stroke-linecap: square"/>
   </g>
   <g id="line2d_91">
    <path d="M 312.269316 138.139599 
L 312.269316 136.345085 
" clip-path="url(#p69b6fb5953)" style="fill: none; stroke: #000000; stroke-linecap: square"/>
   </g>
   <g id="line2d_92">
    <path d="M 310.547683 142.17738 
L 313.99095 142.17738 
" clip-path="url(#p69b6fb5953)" style="fill: none; stroke: #000000; stroke-linecap: square"/>
   </g>
   <g id="line2d_93">
    <path d="M 310.547683 136.345085 
L 313.99095 136.345085 
" clip-path="url(#p69b6fb5953)" style="fill: none; stroke: #000000; stroke-linecap: square"/>
   </g>
   <g id="line2d_94">
    <g clip-path="url(#p69b6fb5953)">
     <use xlink:href="#m15c03c3bd6" x="312.269316" y="142.837443" style="fill-opacity: 0; stroke: #000000"/>
    </g>
   </g>
   <g id="patch_13">
    <path d="M 336.372186 151.077394 
L 343.25872 151.077394 
L 343.25872 149.556048 
L 336.372186 149.556048 
L 336.372186 151.077394 
z
" clip-path="url(#p69b6fb5953)" style="fill: #1f77b4; fill-opacity: 0.5; stroke: #000000; stroke-linejoin: miter"/>
   </g>
   <g id="line2d_95">
    <path d="M 339.815453 151.077394 
L 339.815453 152.965037 
" clip-path="url(#p69b6fb5953)" style="fill: none; stroke: #000000; stroke-linecap: square"/>
   </g>
   <g id="line2d_96">
    <path d="M 339.815453 149.556048 
L 339.815453 148.042733 
" clip-path="url(#p69b6fb5953)" style="fill: none; stroke: #000000; stroke-linecap: square"/>
   </g>
   <g id="line2d_97">
    <path d="M 338.09382 152.965037 
L 341.537087 152.965037 
" clip-path="url(#p69b6fb5953)" style="fill: none; stroke: #000000; stroke-linecap: square"/>
   </g>
   <g id="line2d_98">
    <path d="M 338.09382 148.042733 
L 341.537087 148.042733 
" clip-path="url(#p69b6fb5953)" style="fill: none; stroke: #000000; stroke-linecap: square"/>
   </g>
   <g id="line2d_99">
    <g clip-path="url(#p69b6fb5953)">
     <use xlink:href="#m15c03c3bd6" x="339.815453" y="153.522423" style="fill-opacity: 0; stroke: #000000"/>
    </g>
   </g>
   <g id="patch_14">
    <path d="M 363.918323 147.003105 
L 370.804857 147.003105 
L 370.804857 145.543743 
L 363.918323 145.543743 
L 363.918323 147.003105 
z
" clip-path="url(#p69b6fb5953)" style="fill: #1f77b4; fill-opacity: 0.5; stroke: #000000; stroke-linejoin: miter"/>
   </g>
   <g id="line2d_100">
    <path d="M 367.36159 147.003105 
L 367.36159 148.813373 
" clip-path="url(#p69b6fb5953)" style="fill: none; stroke: #000000; stroke-linecap: square"/>
   </g>
   <g id="line2d_101">
    <path d="M 367.36159 145.543743 
L 367.36159 144.091716 
" clip-path="url(#p69b6fb5953)" style="fill: none; stroke: #000000; stroke-linecap: square"/>
   </g>
   <g id="line2d_102">
    <path d="M 365.639956 148.813373 
L 369.083223 148.813373 
" clip-path="url(#p69b6fb5953)" style="fill: none; stroke: #000000; stroke-linecap: square"/>
   </g>
   <g id="line2d_103">
    <path d="M 365.639956 144.091716 
L 369.083223 144.091716 
" clip-path="url(#p69b6fb5953)" style="fill: none; stroke: #000000; stroke-linecap: square"/>
   </g>
   <g id="line2d_104">
    <g clip-path="url(#p69b6fb5953)">
     <use xlink:href="#m15c03c3bd6" x="367.36159" y="149.347761" style="fill-opacity: 0; stroke: #000000"/>
    </g>
   </g>
   <g id="patch_15">
    <path d="M 391.464459 142.696781 
L 398.350994 142.696781 
L 398.350994 141.294181 
L 391.464459 141.294181 
L 391.464459 142.696781 
z
" clip-path="url(#p69b6fb5953)" style="fill: #1f77b4; fill-opacity: 0.5; stroke: #000000; stroke-linejoin: miter"/>
   </g>
   <g id="line2d_105">
    <path d="M 394.907727 142.696781 
L 394.907727 144.436412 
" clip-path="url(#p69b6fb5953)" style="fill: none; stroke: #000000; stroke-linecap: square"/>
   </g>
   <g id="line2d_106">
    <path d="M 394.907727 141.294181 
L 394.907727 139.903224 
" clip-path="url(#p69b6fb5953)" style="fill: none; stroke: #000000; stroke-linecap: square"/>
   </g>
   <g id="line2d_107">
    <path d="M 393.186093 144.436412 
L 396.62936 144.436412 
" clip-path="url(#p69b6fb5953)" style="fill: none; stroke: #000000; stroke-linecap: square"/>
   </g>
   <g id="line2d_108">
    <path d="M 393.186093 139.903224 
L 396.62936 139.903224 
" clip-path="url(#p69b6fb5953)" style="fill: none; stroke: #000000; stroke-linecap: square"/>
   </g>
   <g id="line2d_109">
    <g clip-path="url(#p69b6fb5953)">
     <use xlink:href="#m15c03c3bd6" x="394.907727" y="144.949691" style="fill-opacity: 0; stroke: #000000"/>
    </g>
   </g>
   <g id="patch_16">
    <path d="M 419.010596 135.901219 
L 425.89713 135.901219 
L 425.89713 134.574727 
L 419.010596 134.574727 
L 419.010596 135.901219 
z
" clip-path="url(#p69b6fb5953)" style="fill: #1f77b4; fill-opacity: 0.5; stroke: #000000; stroke-linejoin: miter"/>
   </g>
   <g id="line2d_110">
    <path d="M 422.453863 135.901219 
L 422.453863 137.545778 
" clip-path="url(#p69b6fb5953)" style="fill: none; stroke: #000000; stroke-linecap: square"/>
   </g>
   <g id="line2d_111">
    <path d="M 422.453863 134.574727 
L 422.453863 133.258765 
" clip-path="url(#p69b6fb5953)" style="fill: none; stroke: #000000; stroke-linecap: square"/>
   </g>
   <g id="line2d_112">
    <path d="M 420.73223 137.545778 
L 424.175497 137.545778 
" clip-path="url(#p69b6fb5953)" style="fill: none; stroke: #000000; stroke-linecap: square"/>
   </g>
   <g id="line2d_113">
    <path d="M 420.73223 133.258765 
L 424.175497 133.258765 
" clip-path="url(#p69b6fb5953)" style="fill: none; stroke: #000000; stroke-linecap: square"/>
   </g>
   <g id="line2d_114">
    <g clip-path="url(#p69b6fb5953)">
     <use xlink:href="#m15c03c3bd6" x="422.453863" y="138.030842" style="fill-opacity: 0; stroke: #000000"/>
    </g>
   </g>
   <g id="patch_17">
    <path d="M 74.683887 50.985685 
L 81.570422 50.985685 
L 81.570422 44.749451 
L 74.683887 44.749451 
L 74.683887 50.985685 
z
" clip-path="url(#p69b6fb5953)" style="fill: #1f77b4; fill-opacity: 0.5; stroke: #000000; stroke-linejoin: miter"/>
   </g>
   <g id="line2d_115">
    <path d="M 78.127154 50.985685 
L 78.127154 58.440403 
" clip-path="url(#p69b6fb5953)" style="fill: none; stroke: #000000; stroke-linecap: square"/>
   </g>
   <g id="line2d_116">
    <path d="M 78.127154 44.749451 
L 78.127154 38.3301 
" clip-path="url(#p69b6fb5953)" style="fill: none; stroke: #000000; stroke-linecap: square"/>
   </g>
   <g id="line2d_117">
    <path d="M 76.405521 58.440403 
L 79.848788 58.440403 
" clip-path="url(#p69b6fb5953)" style="fill: none; stroke: #000000; stroke-linecap: square"/>
   </g>
   <g id="line2d_118">
    <path d="M 76.405521 38.3301 
L 79.848788 38.3301 
" clip-path="url(#p69b6fb5953)" style="fill: none; stroke: #000000; stroke-linecap: square"/>
   </g>
   <g id="line2d_119">
    <g clip-path="url(#p69b6fb5953)">
     <use xlink:href="#m15c03c3bd6" x="78.127154" y="60.827886" style="fill-opacity: 0; stroke: #000000"/>
    </g>
   </g>
   <g id="patch_18">
    <path d="M 102.230024 57.263292 
L 109.116558 57.263292 
L 109.116558 51.522333 
L 102.230024 51.522333 
L 102.230024 57.263292 
z
" clip-path="url(#p69b6fb5953)" style="fill: #1f77b4; fill-opacity: 0.5; stroke: #000000; stroke-linejoin: miter"/>
   </g>
   <g id="line2d_120">
    <path d="M 105.673291 57.263292 
L 105.673291 64.202079 
" clip-path="url(#p69b6fb5953)" style="fill: none; stroke: #000000; stroke-linecap: square"/>
   </g>
   <g id="line2d_121">
    <path d="M 105.673291 51.522333 
L 105.673291 45.767988 
" clip-path="url(#p69b6fb5953)" style="fill: none; stroke: #000000; stroke-linecap: square"/>
   </g>
   <g id="line2d_122">
    <path d="M 103.951658 64.202079 
L 107.394925 64.202079 
" clip-path="url(#p69b6fb5953)" style="fill: none; stroke: #000000; stroke-linecap: square"/>
   </g>
   <g id="line2d_123">
    <path d="M 103.951658 45.767988 
L 107.394925 45.767988 
" clip-path="url(#p69b6fb5953)" style="fill: none; stroke: #000000; stroke-linecap: square"/>
   </g>
   <g id="line2d_124">
    <g clip-path="url(#p69b6fb5953)">
     <use xlink:href="#m15c03c3bd6" x="105.673291" y="66.303277" style="fill-opacity: 0; stroke: #000000"/>
    </g>
   </g>
   <g id="patch_19">
    <path d="M 129.776161 61.630027 
L 136.662695 61.630027 
L 136.662695 56.463785 
L 129.776161 56.463785 
L 129.776161 61.630027 
z
" clip-path="url(#p69b6fb5953)" style="fill: #1f77b4; fill-opacity: 0.5; stroke: #000000; stroke-linejoin: miter"/>
   </g>
   <g id="line2d_125">
    <path d="M 133.219428 61.630027 
L 133.219428 67.933049 
" clip-path="url(#p69b6fb5953)" style="fill: none; stroke: #000000; stroke-linecap: square"/>
   </g>
   <g id="line2d_126">
    <path d="M 133.219428 56.463785 
L 133.219428 51.286153 
" clip-path="url(#p69b6fb5953)" style="fill: none; stroke: #000000; stroke-linecap: square"/>
   </g>
   <g id="line2d_127">
    <path d="M 131.497794 67.933049 
L 134.941061 67.933049 
" clip-path="url(#p69b6fb5953)" style="fill: none; stroke: #000000; stroke-linecap: square"/>
   </g>
   <g id="line2d_128">
    <path d="M 131.497794 51.286153 
L 134.941061 51.286153 
" clip-path="url(#p69b6fb5953)" style="fill: none; stroke: #000000; stroke-linecap: square"/>
   </g>
   <g id="line2d_129">
    <g clip-path="url(#p69b6fb5953)">
     <use xlink:href="#m15c03c3bd6" x="133.219428" y="69.813004" style="fill-opacity: 0; stroke: #000000"/>
    </g>
   </g>
   <g id="patch_20">
    <path d="M 157.322297 70.361875 
L 164.208832 70.361875 
L 164.208832 65.804704 
L 157.322297 65.804704 
L 157.322297 70.361875 
z
" clip-path="url(#p69b6fb5953)" style="fill: #1f77b4; fill-opacity: 0.5; stroke: #000000; stroke-linejoin: miter"/>
   </g>
   <g id="line2d_130">
    <path d="M 160.765565 70.361875 
L 160.765565 75.947418 
" clip-path="url(#p69b6fb5953)" style="fill: none; stroke: #000000; stroke-linecap: square"/>
   </g>
   <g id="line2d_131">
    <path d="M 160.765565 65.804704 
L 160.765565 61.242081 
" clip-path="url(#p69b6fb5953)" style="fill: none; stroke: #000000; stroke-linecap: square"/>
   </g>
   <g id="line2d_132">
    <path d="M 159.043931 75.947418 
L 162.487198 75.947418 
" clip-path="url(#p69b6fb5953)" style="fill: none; stroke: #000000; stroke-linecap: square"/>
   </g>
   <g id="line2d_133">
    <path d="M 159.043931 61.242081 
L 162.487198 61.242081 
" clip-path="url(#p69b6fb5953)" style="fill: none; stroke: #000000; stroke-linecap: square"/>
   </g>
   <g id="line2d_134">
    <g clip-path="url(#p69b6fb5953)">
     <use xlink:href="#m15c03c3bd6" x="160.765565" y="77.605329" style="fill-opacity: 0; stroke: #000000"/>
    </g>
   </g>
   <g id="patch_21">
    <path d="M 184.868434 77.253483 
L 191.754968 77.253483 
L 191.754968 73.226139 
L 184.868434 73.226139 
L 184.868434 77.253483 
z
" clip-path="url(#p69b6fb5953)" style="fill: #1f77b4; fill-opacity: 0.5; stroke: #000000; stroke-linejoin: miter"/>
   </g>
   <g id="line2d_135">
    <path d="M 188.311701 77.253483 
L 188.311701 82.20726 
" clip-path="url(#p69b6fb5953)" style="fill: none; stroke: #000000; stroke-linecap: square"/>
   </g>
   <g id="line2d_136">
    <path d="M 188.311701 73.226139 
L 188.311701 69.196626 
" clip-path="url(#p69b6fb5953)" style="fill: none; stroke: #000000; stroke-linecap: square"/>
   </g>
   <g id="line2d_137">
    <path d="M 186.590068 82.20726 
L 190.033335 82.20726 
" clip-path="url(#p69b6fb5953)" style="fill: none; stroke: #000000; stroke-linecap: square"/>
   </g>
   <g id="line2d_138">
    <path d="M 186.590068 69.196626 
L 190.033335 69.196626 
" clip-path="url(#p69b6fb5953)" style="fill: none; stroke: #000000; stroke-linecap: square"/>
   </g>
   <g id="line2d_139">
    <g clip-path="url(#p69b6fb5953)">
     <use xlink:href="#m15c03c3bd6" x="188.311701" y="83.67142" style="fill-opacity: 0; stroke: #000000"/>
    </g>
   </g>
   <g id="patch_22">
    <path d="M 212.414571 89.431784 
L 219.301105 89.431784 
L 219.301105 85.944338 
L 212.414571 85.944338 
L 212.414571 89.431784 
z
" clip-path="url(#p69b6fb5953)" style="fill: #1f77b4; fill-opacity: 0.5; stroke: #000000; stroke-linejoin: miter"/>
   </g>
   <g id="line2d_140">
    <path d="M 215.857838 89.431784 
L 215.857838 93.730043 
" clip-path="url(#p69b6fb5953)" style="fill: none; stroke: #000000; stroke-linecap: square"/>
   </g>
   <g id="line2d_141">
    <path d="M 215.857838 85.944338 
L 215.857838 82.459584 
" clip-path="url(#p69b6fb5953)" style="fill: none; stroke: #000000; stroke-linecap: square"/>
   </g>
   <g id="line2d_142">
    <path d="M 214.136204 93.730043 
L 217.579472 93.730043 
" clip-path="url(#p69b6fb5953)" style="fill: none; stroke: #000000; stroke-linecap: square"/>
   </g>
   <g id="line2d_143">
    <path d="M 214.136204 82.459584 
L 217.579472 82.459584 
" clip-path="url(#p69b6fb5953)" style="fill: none; stroke: #000000; stroke-linecap: square"/>
   </g>
   <g id="line2d_144">
    <g clip-path="url(#p69b6fb5953)">
     <use xlink:href="#m15c03c3bd6" x="215.857838" y="95.000283" style="fill-opacity: 0; stroke: #000000"/>
    </g>
   </g>
   <g id="patch_23">
    <path d="M 239.960708 94.553552 
L 246.847242 94.553552 
L 246.847242 91.596323 
L 239.960708 91.596323 
L 239.960708 94.553552 
z
" clip-path="url(#p69b6fb5953)" style="fill: #1f77b4; fill-opacity: 0.5; stroke: #000000; stroke-linejoin: miter"/>
   </g>
   <g id="line2d_145">
    <path d="M 243.403975 94.553552 
L 243.403975 98.202079 
" clip-path="url(#p69b6fb5953)" style="fill: none; stroke: #000000; stroke-linecap: square"/>
   </g>
   <g id="line2d_146">
    <path d="M 243.403975 91.596323 
L 243.403975 88.642291 
" clip-path="url(#p69b6fb5953)" style="fill: none; stroke: #000000; stroke-linecap: square"/>
   </g>
   <g id="line2d_147">
    <path d="M 241.682341 98.202079 
L 245.125608 98.202079 
" clip-path="url(#p69b6fb5953)" style="fill: none; stroke: #000000; stroke-linecap: square"/>
   </g>
   <g id="line2d_148">
    <path d="M 241.682341 88.642291 
L 245.125608 88.642291 
" clip-path="url(#p69b6fb5953)" style="fill: none; stroke: #000000; stroke-linecap: square"/>
   </g>
   <g id="line2d_149">
    <g clip-path="url(#p69b6fb5953)">
     <use xlink:href="#m15c03c3bd6" x="243.403975" y="99.27906" style="fill-opacity: 0; stroke: #000000"/>
    </g>
   </g>
   <g id="patch_24">
    <path d="M 267.506844 109.19682 
L 274.393378 109.19682 
L 274.393378 106.766514 
L 267.506844 106.766514 
L 267.506844 109.19682 
z
" clip-path="url(#p69b6fb5953)" style="fill: #1f77b4; fill-opacity: 0.5; stroke: #000000; stroke-linejoin: miter"/>
   </g>
   <g id="line2d_150">
    <path d="M 270.950111 109.19682 
L 270.950111 112.200348 
" clip-path="url(#p69b6fb5953)" style="fill: none; stroke: #000000; stroke-linecap: square"/>
   </g>
   <g id="line2d_151">
    <path d="M 270.950111 106.766514 
L 270.950111 104.341962 
" clip-path="url(#p69b6fb5953)" style="fill: none; stroke: #000000; stroke-linecap: square"/>
   </g>
   <g id="line2d_152">
    <path d="M 269.228478 112.200348 
L 272.671745 112.200348 
" clip-path="url(#p69b6fb5953)" style="fill: none; stroke: #000000; stroke-linecap: square"/>
   </g>
   <g id="line2d_153">
    <path d="M 269.228478 104.341962 
L 272.671745 104.341962 
" clip-path="url(#p69b6fb5953)" style="fill: none; stroke: #000000; stroke-linecap: square"/>
   </g>
   <g id="line2d_154">
    <g clip-path="url(#p69b6fb5953)">
     <use xlink:href="#m15c03c3bd6" x="270.950111" y="113.0871" style="fill-opacity: 0; stroke: #000000"/>
    </g>
   </g>
   <g id="patch_25">
    <path d="M 295.052981 119.940669 
L 301.939515 119.940669 
L 301.939515 117.873842 
L 295.052981 117.873842 
L 295.052981 119.940669 
z
" clip-path="url(#p69b6fb5953)" style="fill: #1f77b4; fill-opacity: 0.5; stroke: #000000; stroke-linejoin: miter"/>
   </g>
   <g id="line2d_155">
    <path d="M 298.496248 119.940669 
L 298.496248 122.497952 
" clip-path="url(#p69b6fb5953)" style="fill: none; stroke: #000000; stroke-linecap: square"/>
   </g>
   <g id="line2d_156">
    <path d="M 298.496248 117.873842 
L 298.496248 115.813562 
" clip-path="url(#p69b6fb5953)" style="fill: none; stroke: #000000; stroke-linecap: square"/>
   </g>
   <g id="line2d_157">
    <path d="M 296.774615 122.497952 
L 300.217882 122.497952 
" clip-path="url(#p69b6fb5953)" style="fill: none; stroke: #000000; stroke-linecap: square"/>
   </g>
   <g id="line2d_158">
    <path d="M 296.774615 115.813562 
L 300.217882 115.813562 
" clip-path="url(#p69b6fb5953)" style="fill: none; stroke: #000000; stroke-linecap: square"/>
   </g>
   <g id="line2d_159">
    <g clip-path="url(#p69b6fb5953)">
     <use xlink:href="#m15c03c3bd6" x="298.496248" y="123.252867" style="fill-opacity: 0; stroke: #000000"/>
    </g>
   </g>
   <g id="patch_26">
    <path d="M 322.599118 133.652319 
L 329.485652 133.652319 
L 329.485652 131.934926 
L 322.599118 131.934926 
L 322.599118 133.652319 
z
" clip-path="url(#p69b6fb5953)" style="fill: #1f77b4; fill-opacity: 0.5; stroke: #000000; stroke-linejoin: miter"/>
   </g>
   <g id="line2d_160">
    <path d="M 326.042385 133.652319 
L 326.042385 135.780069 
" clip-path="url(#p69b6fb5953)" style="fill: none; stroke: #000000; stroke-linecap: square"/>
   </g>
   <g id="line2d_161">
    <path d="M 326.042385 131.934926 
L 326.042385 130.224644 
" clip-path="url(#p69b6fb5953)" style="fill: none; stroke: #000000; stroke-linecap: square"/>
   </g>
   <g id="line2d_162">
    <path d="M 324.320751 135.780069 
L 327.764018 135.780069 
" clip-path="url(#p69b6fb5953)" style="fill: none; stroke: #000000; stroke-linecap: square"/>
   </g>
   <g id="line2d_163">
    <path d="M 324.320751 130.224644 
L 327.764018 130.224644 
" clip-path="url(#p69b6fb5953)" style="fill: none; stroke: #000000; stroke-linecap: square"/>
   </g>
   <g id="line2d_164">
    <g clip-path="url(#p69b6fb5953)">
     <use xlink:href="#m15c03c3bd6" x="326.042385" y="136.408193" style="fill-opacity: 0; stroke: #000000"/>
    </g>
   </g>
   <g id="patch_27">
    <path d="M 350.145254 146.004273 
L 357.031789 146.004273 
L 357.031789 144.534679 
L 350.145254 144.534679 
L 350.145254 146.004273 
z
" clip-path="url(#p69b6fb5953)" style="fill: #1f77b4; fill-opacity: 0.5; stroke: #000000; stroke-linejoin: miter"/>
   </g>
   <g id="line2d_165">
    <path d="M 353.588522 146.004273 
L 353.588522 147.827087 
" clip-path="url(#p69b6fb5953)" style="fill: none; stroke: #000000; stroke-linecap: square"/>
   </g>
   <g id="line2d_166">
    <path d="M 353.588522 144.534679 
L 353.588522 143.072382 
" clip-path="url(#p69b6fb5953)" style="fill: none; stroke: #000000; stroke-linecap: square"/>
   </g>
   <g id="line2d_167">
    <path d="M 351.866888 147.827087 
L 355.310155 147.827087 
" clip-path="url(#p69b6fb5953)" style="fill: none; stroke: #000000; stroke-linecap: square"/>
   </g>
   <g id="line2d_168">
    <path d="M 351.866888 143.072382 
L 355.310155 143.072382 
" clip-path="url(#p69b6fb5953)" style="fill: none; stroke: #000000; stroke-linecap: square"/>
   </g>
   <g id="line2d_169">
    <g clip-path="url(#p69b6fb5953)">
     <use xlink:href="#m15c03c3bd6" x="353.588522" y="148.365175" style="fill-opacity: 0; stroke: #000000"/>
    </g>
   </g>
   <g id="patch_28">
    <path d="M 377.691391 141.867025 
L 384.577925 141.867025 
L 384.577925 140.45632 
L 377.691391 140.45632 
L 377.691391 141.867025 
z
" clip-path="url(#p69b6fb5953)" style="fill: #1f77b4; fill-opacity: 0.5; stroke: #000000; stroke-linejoin: miter"/>
   </g>
   <g id="line2d_170">
    <path d="M 381.134658 141.867025 
L 381.134658 143.616597 
" clip-path="url(#p69b6fb5953)" style="fill: none; stroke: #000000; stroke-linecap: square"/>
   </g>
   <g id="line2d_171">
    <path d="M 381.134658 140.45632 
L 381.134658 139.057249 
" clip-path="url(#p69b6fb5953)" style="fill: none; stroke: #000000; stroke-linecap: square"/>
   </g>
   <g id="line2d_172">
    <path d="M 379.413025 143.616597 
L 382.856292 143.616597 
" clip-path="url(#p69b6fb5953)" style="fill: none; stroke: #000000; stroke-linecap: square"/>
   </g>
   <g id="line2d_173">
    <path d="M 379.413025 139.057249 
L 382.856292 139.057249 
" clip-path="url(#p69b6fb5953)" style="fill: none; stroke: #000000; stroke-linecap: square"/>
   </g>
   <g id="line2d_174">
    <g clip-path="url(#p69b6fb5953)">
     <use xlink:href="#m15c03c3bd6" x="381.134658" y="144.132807" style="fill-opacity: 0; stroke: #000000"/>
    </g>
   </g>
   <g id="patch_29">
    <path d="M 405.237528 135.041811 
L 412.124062 135.041811 
L 412.124062 133.707468 
L 405.237528 133.707468 
L 405.237528 135.041811 
z
" clip-path="url(#p69b6fb5953)" style="fill: #1f77b4; fill-opacity: 0.5; stroke: #000000; stroke-linejoin: miter"/>
   </g>
   <g id="line2d_175">
    <path d="M 408.680795 135.041811 
L 408.680795 136.696 
" clip-path="url(#p69b6fb5953)" style="fill: none; stroke: #000000; stroke-linecap: square"/>
   </g>
   <g id="line2d_176">
    <path d="M 408.680795 133.707468 
L 408.680795 132.383647 
" clip-path="url(#p69b6fb5953)" style="fill: none; stroke: #000000; stroke-linecap: square"/>
   </g>
   <g id="line2d_177">
    <path d="M 406.959161 136.696 
L 410.402428 136.696 
" clip-path="url(#p69b6fb5953)" style="fill: none; stroke: #000000; stroke-linecap: square"/>
   </g>
   <g id="line2d_178">
    <path d="M 406.959161 132.383647 
L 410.402428 132.383647 
" clip-path="url(#p69b6fb5953)" style="fill: none; stroke: #000000; stroke-linecap: square"/>
   </g>
   <g id="line2d_179">
    <g clip-path="url(#p69b6fb5953)">
     <use xlink:href="#m15c03c3bd6" x="408.680795" y="137.183903" style="fill-opacity: 0; stroke: #000000"/>
    </g>
   </g>
   <g id="patch_30">
    <path d="M 432.783665 131.83082 
L 439.670199 131.83082 
L 439.670199 130.538601 
L 432.783665 130.538601 
L 432.783665 131.83082 
z
" clip-path="url(#p69b6fb5953)" style="fill: #1f77b4; fill-opacity: 0.5; stroke: #000000; stroke-linejoin: miter"/>
   </g>
   <g id="line2d_180">
    <path d="M 436.226932 131.83082 
L 436.226932 133.432511 
" clip-path="url(#p69b6fb5953)" style="fill: none; stroke: #000000; stroke-linecap: square"/>
   </g>
   <g id="line2d_181">
    <path d="M 436.226932 130.538601 
L 436.226932 129.256373 
" clip-path="url(#p69b6fb5953)" style="fill: none; stroke: #000000; stroke-linecap: square"/>
   </g>
   <g id="line2d_182">
    <path d="M 434.505298 133.432511 
L 437.948565 133.432511 
" clip-path="url(#p69b6fb5953)" style="fill: none; stroke: #000000; stroke-linecap: square"/>
   </g>
   <g id="line2d_183">
    <path d="M 434.505298 129.256373 
L 437.948565 129.256373 
" clip-path="url(#p69b6fb5953)" style="fill: none; stroke: #000000; stroke-linecap: square"/>
   </g>
   <g id="line2d_184">
    <g clip-path="url(#p69b6fb5953)">
     <use xlink:href="#m15c03c3bd6" x="436.226932" y="133.904851" style="fill-opacity: 0; stroke: #000000"/>
    </g>
   </g>
   <g id="line2d_185">
    <path d="M 64.354086 49.83218 
L 78.127154 47.92051 
L 91.900223 57.472423 
L 105.673291 54.531331 
L 119.446359 64.307473 
L 133.219428 59.198864 
L 146.992496 73.170552 
L 160.765565 68.226805 
L 174.538633 80.737594 
L 188.311701 75.373164 
L 202.08477 92.3189 
L 215.857838 87.80514 
L 229.630906 102.255741 
L 243.403975 93.175412 
L 257.177043 115.00345 
L 270.950111 108.064927 
L 284.72318 124.996196 
L 298.496248 118.978511 
L 312.269316 139.103677 
L 326.042385 132.853185 
L 339.815453 150.369802 
L 353.588522 145.320696 
L 367.36159 146.324304 
L 381.134658 141.210973 
L 394.907727 142.044511 
L 408.680795 134.421198 
L 422.453863 135.28427 
L 436.226932 131.22977 
" clip-path="url(#p69b6fb5953)" style="fill: none; stroke-dasharray: 5.55,2.4; stroke-dashoffset: 0; stroke: #1f77b4; stroke-opacity: 0.5; stroke-width: 1.5"/>
   </g>
   <g id="line2d_186">
    <path d="M 64.354086 49.88019 
L 78.127154 47.971919 
L 91.900223 57.508345 
L 105.673291 54.562228 
L 119.446359 64.332156 
L 133.219428 59.223214 
L 146.992496 73.189891 
L 160.765565 68.246364 
L 174.538633 80.753438 
L 188.311701 75.389299 
L 202.08477 92.331173 
L 215.857838 87.81766 
L 229.630906 102.265597 
L 243.403975 93.185625 
L 257.177043 115.01066 
L 270.950111 108.072291 
L 284.72318 125.0018 
L 298.496248 118.984194 
L 312.269316 139.10776 
L 326.042385 132.85732 
L 339.815453 150.372876 
L 353.588522 145.323794 
L 367.36159 146.32735 
L 381.134658 141.21383 
L 394.907727 142.047328 
L 408.680795 134.424035 
L 422.453863 135.287068 
L 436.226932 131.232571 
" clip-path="url(#p69b6fb5953)" style="fill: none; stroke: #1f77b4; stroke-opacity: 0.5; stroke-width: 1.5; stroke-linecap: square"/>
   </g>
   <g id="line2d_187">
    <path d="M 60.910819 49.88019 
L 67.797353 49.88019 
" clip-path="url(#p69b6fb5953)" style="fill: none; stroke: #1f77b4; stroke-linecap: square"/>
   </g>
   <g id="line2d_188">
    <path d="M 88.456956 57.490941 
L 95.34349 57.490941 
" clip-path="url(#p69b6fb5953)" style="fill: none; stroke: #1f77b4; stroke-linecap: square"/>
   </g>
   <g id="line2d_189">
    <path d="M 116.003092 64.332156 
L 122.889627 64.332156 
" clip-path="url(#p69b6fb5953)" style="fill: none; stroke: #1f77b4; stroke-linecap: square"/>
   </g>
   <g id="line2d_190">
    <path d="M 143.549229 73.189891 
L 150.435763 73.189891 
" clip-path="url(#p69b6fb5953)" style="fill: none; stroke: #1f77b4; stroke-linecap: square"/>
   </g>
   <g id="line2d_191">
    <path d="M 171.095366 80.753438 
L 177.9819 80.753438 
" clip-path="url(#p69b6fb5953)" style="fill: none; stroke: #1f77b4; stroke-linecap: square"/>
   </g>
   <g id="line2d_192">
    <path d="M 198.641503 92.331173 
L 205.528037 92.331173 
" clip-path="url(#p69b6fb5953)" style="fill: none; stroke: #1f77b4; stroke-linecap: square"/>
   </g>
   <g id="line2d_193">
    <path d="M 226.187639 102.266428 
L 233.074173 102.266428 
" clip-path="url(#p69b6fb5953)" style="fill: none; stroke: #1f77b4; stroke-linecap: square"/>
   </g>
   <g id="line2d_194">
    <path d="M 253.733776 115.011984 
L 260.62031 115.011984 
" clip-path="url(#p69b6fb5953)" style="fill: none; stroke: #1f77b4; stroke-linecap: square"/>
   </g>
   <g id="line2d_195">
    <path d="M 281.279913 125.00318 
L 288.166447 125.00318 
" clip-path="url(#p69b6fb5953)" style="fill: none; stroke: #1f77b4; stroke-linecap: square"/>
   </g>
   <g id="line2d_196">
    <path d="M 308.826049 139.109053 
L 315.712584 139.109053 
" clip-path="url(#p69b6fb5953)" style="fill: none; stroke: #1f77b4; stroke-linecap: square"/>
   </g>
   <g id="line2d_197">
    <path d="M 336.372186 150.374051 
L 343.25872 150.374051 
" clip-path="url(#p69b6fb5953)" style="fill: none; stroke: #1f77b4; stroke-linecap: square"/>
   </g>
   <g id="line2d_198">
    <path d="M 363.918323 146.328496 
L 370.804857 146.328496 
" clip-path="url(#p69b6fb5953)" style="fill: none; stroke: #1f77b4; stroke-linecap: square"/>
   </g>
   <g id="line2d_199">
    <path d="M 391.464459 142.048458 
L 398.350994 142.048458 
" clip-path="url(#p69b6fb5953)" style="fill: none; stroke: #1f77b4; stroke-linecap: square"/>
   </g>
   <g id="line2d_200">
    <path d="M 419.010596 135.288141 
L 425.89713 135.288141 
" clip-path="url(#p69b6fb5953)" style="fill: none; stroke: #1f77b4; stroke-linecap: square"/>
   </g>
   <g id="line2d_201">
    <path d="M 74.683887 47.889391 
L 81.570422 47.889391 
" clip-path="url(#p69b6fb5953)" style="fill: none; stroke: #1f77b4; stroke-linecap: square"/>
   </g>
   <g id="line2d_202">
    <path d="M 102.230024 54.562228 
L 109.116558 54.562228 
" clip-path="url(#p69b6fb5953)" style="fill: none; stroke: #1f77b4; stroke-linecap: square"/>
   </g>
   <g id="line2d_203">
    <path d="M 129.776161 59.223214 
L 136.662695 59.223214 
" clip-path="url(#p69b6fb5953)" style="fill: none; stroke: #1f77b4; stroke-linecap: square"/>
   </g>
   <g id="line2d_204">
    <path d="M 157.322297 68.246364 
L 164.208832 68.246364 
" clip-path="url(#p69b6fb5953)" style="fill: none; stroke: #1f77b4; stroke-linecap: square"/>
   </g>
   <g id="line2d_205">
    <path d="M 184.868434 75.389299 
L 191.754968 75.389299 
" clip-path="url(#p69b6fb5953)" style="fill: none; stroke: #1f77b4; stroke-linecap: square"/>
   </g>
   <g id="line2d_206">
    <path d="M 212.414571 87.818201 
L 219.301105 87.818201 
" clip-path="url(#p69b6fb5953)" style="fill: none; stroke: #1f77b4; stroke-linecap: square"/>
   </g>
   <g id="line2d_207">
    <path d="M 239.960708 93.187104 
L 246.847242 93.187104 
" clip-path="url(#p69b6fb5953)" style="fill: none; stroke: #1f77b4; stroke-linecap: square"/>
   </g>
   <g id="line2d_208">
    <path d="M 267.506844 108.073717 
L 274.393378 108.073717 
" clip-path="url(#p69b6fb5953)" style="fill: none; stroke: #1f77b4; stroke-linecap: square"/>
   </g>
   <g id="line2d_209">
    <path d="M 295.052981 118.985599 
L 301.939515 118.985599 
" clip-path="url(#p69b6fb5953)" style="fill: none; stroke: #1f77b4; stroke-linecap: square"/>
   </g>
   <g id="line2d_210">
    <path d="M 322.599118 132.858587 
L 329.485652 132.858587 
" clip-path="url(#p69b6fb5953)" style="fill: none; stroke: #1f77b4; stroke-linecap: square"/>
   </g>
   <g id="line2d_211">
    <path d="M 350.145254 145.324944 
L 357.031789 145.324944 
" clip-path="url(#p69b6fb5953)" style="fill: none; stroke: #1f77b4; stroke-linecap: square"/>
   </g>
   <g id="line2d_212">
    <path d="M 377.691391 141.214964 
L 384.577925 141.214964 
" clip-path="url(#p69b6fb5953)" style="fill: none; stroke: #1f77b4; stroke-linecap: square"/>
   </g>
   <g id="line2d_213">
    <path d="M 405.237528 134.425111 
L 412.124062 134.425111 
" clip-path="url(#p69b6fb5953)" style="fill: none; stroke: #1f77b4; stroke-linecap: square"/>
   </g>
   <g id="line2d_214">
    <path d="M 432.783665 131.233616 
L 439.670199 131.233616 
" clip-path="url(#p69b6fb5953)" style="fill: none; stroke: #1f77b4; stroke-linecap: square"/>
   </g>
   <g id="patch_31">
    <path d="M 50.581018 176.488647 
L 50.581018 14.259249 
" style="fill: none; stroke: #000000; stroke-width: 0.8; stroke-linejoin: miter; stroke-linecap: square"/>
   </g>
   <g id="patch_32">
    <path d="M 450 176.488647 
L 450 14.259249 
" style="fill: none; stroke: #000000; stroke-width: 0.8; stroke-linejoin: miter; stroke-linecap: square"/>
   </g>
   <g id="patch_33">
    <path d="M 50.581018 176.488647 
L 450 176.488647 
" style="fill: none; stroke: #000000; stroke-width: 0.8; stroke-linejoin: miter; stroke-linecap: square"/>
   </g>
   <g id="patch_34">
    <path d="M 50.581018 14.259249 
L 450 14.259249 
" style="fill: none; stroke: #000000; stroke-width: 0.8; stroke-linejoin: miter; stroke-linecap: square"/>
   </g>
   <g id="legend_1">
    <g id="patch_35">
     <path d="M 354.793979 64.070784 
L 443 64.070784 
Q 445 64.070784 445 62.070784 
L 445 21.259249 
Q 445 19.259249 443 19.259249 
L 354.793979 19.259249 
Q 352.793979 19.259249 352.793979 21.259249 
L 352.793979 62.070784 
Q 352.793979 64.070784 354.793979 64.070784 
z
" style="fill: #ffffff; opacity: 0.8; stroke: #cccccc; stroke-linejoin: miter"/>
    </g>
    <g id="line2d_215">
     <path d="M 356.793979 26.759249 
L 366.793979 26.759249 
L 376.793979 26.759249 
" style="fill: none; stroke-dasharray: 5.55,2.4; stroke-dashoffset: 0; stroke: #1f77b4; stroke-opacity: 0.5; stroke-width: 1.5"/>
    </g>
    <g id="text_25">
     <!-- mean -->
     <g transform="translate(384.793979 30.259249) scale(0.1 -0.1)">
      <use xlink:href="#CMR17-6d" transform="scale(0.996264)"/>
      <use xlink:href="#CMR17-65" transform="translate(76.91959 0) scale(0.996264)"/>
      <use xlink:href="#CMR17-61" transform="translate(117.40525 0) scale(0.996264)"/>
      <use xlink:href="#CMR17-6e" transform="translate(163.095727 0) scale(0.996264)"/>
     </g>
    </g>
    <g id="line2d_216">
     <path d="M 356.793979 40.696428 
L 366.793979 40.696428 
L 376.793979 40.696428 
" style="fill: none; stroke: #1f77b4; stroke-opacity: 0.5; stroke-width: 1.5; stroke-linecap: square"/>
    </g>
    <g id="text_26">
     <!-- nominal -->
     <g transform="translate(384.793979 44.196428) scale(0.1 -0.1)">
      <use xlink:href="#CMR17-6e" transform="scale(0.996264)"/>
      <use xlink:href="#CMR17-6f" transform="translate(50.89537 0) scale(0.996264)"/>
      <use xlink:href="#CMR17-6d" transform="translate(96.585847 0) scale(0.996264)"/>
      <use xlink:href="#CMR17-69" transform="translate(173.505437 0) scale(0.996264)"/>
      <use xlink:href="#CMR17-6e" transform="translate(198.376495 0) scale(0.996264)"/>
      <use xlink:href="#CMR17-61" transform="translate(249.271865 0) scale(0.996264)"/>
      <use xlink:href="#CMR17-6c" transform="translate(294.962342 0) scale(0.996264)"/>
     </g>
    </g>
    <g id="PathCollection_9">
     <g>
      <use xlink:href="#m17261f4949" x="366.793979" y="55.508606" style="fill: #ff0000; stroke: #ff0000"/>
     </g>
    </g>
    <g id="text_27">
     <!-- experimental -->
     <g transform="translate(384.793979 58.133606) scale(0.1 -0.1)">
      <defs>
       <path id="CMR17-78" d="M 1664 1477 
C 1856 1726 2074 2006 2253 2216 
C 2464 2458 2707 2560 2989 2560 
L 2989 2726 
C 2880 2726 2656 2726 2541 2726 
C 2368 2726 2170 2726 2022 2732 
L 2022 2566 
C 2112 2553 2163 2489 2163 2400 
C 2163 2285 2099 2215 2067 2171 
L 1594 1573 
L 1030 2306 
C 973 2376 973 2388 973 2420 
C 973 2497 1037 2560 1146 2560 
L 1146 2732 
C 992 2726 717 2726 557 2726 
C 384 2726 179 2726 38 2732 
L 38 2560 
C 384 2560 461 2534 614 2343 
L 1350 1395 
C 1363 1382 1395 1344 1395 1325 
C 1395 1299 838 619 768 530 
C 480 185 179 160 6 160 
L 6 0 
C 115 0 339 0 454 0 
C 582 0 864 0 979 -6 
L 979 160 
C 941 166 838 179 838 325 
C 838 440 890 510 947 586 
L 1478 1236 
L 2035 512 
C 2086 442 2163 346 2163 301 
C 2163 211 2086 160 1984 160 
L 1984 -6 
C 2138 0 2413 0 2573 0 
C 2746 0 2950 0 3091 -6 
L 3091 160 
C 2771 160 2675 172 2522 370 
L 1664 1477 
z
" transform="scale(0.015625)"/>
      </defs>
      <use xlink:href="#CMR17-65" transform="scale(0.996264)"/>
      <use xlink:href="#CMR17-78" transform="translate(40.48566 0) scale(0.996264)"/>
      <use xlink:href="#CMR17-70" transform="translate(88.778576 0) scale(0.996264)"/>
      <use xlink:href="#CMR17-65" transform="translate(142.276385 0) scale(0.996264)"/>
      <use xlink:href="#CMR17-72" transform="translate(182.762045 0) scale(0.996264)"/>
      <use xlink:href="#CMR17-69" transform="translate(218.042813 0) scale(0.996264)"/>
      <use xlink:href="#CMR17-6d" transform="translate(242.913872 0) scale(0.996264)"/>
      <use xlink:href="#CMR17-65" transform="translate(319.833461 0) scale(0.996264)"/>
      <use xlink:href="#CMR17-6e" transform="translate(360.319122 0) scale(0.996264)"/>
      <use xlink:href="#CMR17-74" transform="translate(408.612038 0) scale(0.996264)"/>
      <use xlink:href="#CMR17-61" transform="translate(443.892806 0) scale(0.996264)"/>
      <use xlink:href="#CMR17-6c" transform="translate(489.583283 0) scale(0.996264)"/>
     </g>
    </g>
   </g>
  </g>
 </g>
 <defs>
  <clipPath id="p69b6fb5953">
   <rect x="50.581018" y="14.259249" width="399.418982" height="162.229397"/>
  </clipPath>
 </defs>
</svg>
