<?xml version="1.0" encoding="utf-8" standalone="no"?>
<!DOCTYPE svg PUBLIC "-//W3C//DTD SVG 1.1//EN"
  "http://www.w3.org/Graphics/SVG/1.1/DTD/svg11.dtd">
<svg xmlns:xlink="http://www.w3.org/1999/xlink" width="460.8pt" height="345.6pt" viewBox="0 0 460.8 345.6" xmlns="http://www.w3.org/2000/svg" version="1.1">
 <metadata>
  <rdf:RDF xmlns:dc="http://purl.org/dc/elements/1.1/" xmlns:cc="http://creativecommons.org/ns#" xmlns:rdf="http://www.w3.org/1999/02/22-rdf-syntax-ns#">
   <cc:Work>
    <dc:type rdf:resource="http://purl.org/dc/dcmitype/StillImage"/>
    <dc:date>2023-04-17T09:47:57.011295</dc:date>
    <dc:format>image/svg+xml</dc:format>
    <dc:creator>
     <cc:Agent>
      <dc:title>Matplotlib v3.7.1, https://matplotlib.org/</dc:title>
     </cc:Agent>
    </dc:creator>
   </cc:Work>
  </rdf:RDF>
 </metadata>
 <defs>
  <style type="text/css">*{stroke-linejoin: round; stroke-linecap: butt}</style>
 </defs>
 <g id="figure_1">
  <g id="patch_1">
   <path d="M 0 345.6 
L 460.8 345.6 
L 460.8 0 
L 0 0 
z
" style="fill: #ffffff"/>
  </g>
  <g id="axes_1">
   <g id="patch_2">
    <path d="M 50.581018 306.088647 
L 450 306.088647 
L 450 10.8 
L 50.581018 10.8 
z
" style="fill: #ffffff"/>
   </g>
   <g id="PathCollection_1">
    <defs>
     <path id="m13dcb6747f" d="M -3 3 
L 3 -3 
M -3 -3 
L 3 3 
" style="stroke: #ff0000"/>
    </defs>
    <g clip-path="url(#p29142071d3)">
     <use xlink:href="#m13dcb6747f" x="339.815453" y="236.860468" style="fill: #ff0000; stroke: #ff0000"/>
     <use xlink:href="#m13dcb6747f" x="367.36159" y="232.940688" style="fill: #ff0000; stroke: #ff0000"/>
     <use xlink:href="#m13dcb6747f" x="394.907727" y="224.19288" style="fill: #ff0000; stroke: #ff0000"/>
     <use xlink:href="#m13dcb6747f" x="422.453863" y="216.081478" style="fill: #ff0000; stroke: #ff0000"/>
    </g>
   </g>
   <g id="PathCollection_2">
    <g clip-path="url(#p29142071d3)">
     <use xlink:href="#m13dcb6747f" x="339.815453" y="231.072574" style="fill: #ff0000; stroke: #ff0000"/>
     <use xlink:href="#m13dcb6747f" x="367.36159" y="220.850744" style="fill: #ff0000; stroke: #ff0000"/>
     <use xlink:href="#m13dcb6747f" x="394.907727" y="213.627039" style="fill: #ff0000; stroke: #ff0000"/>
     <use xlink:href="#m13dcb6747f" x="422.453863" y="213.411714" style="fill: #ff0000; stroke: #ff0000"/>
    </g>
   </g>
   <g id="PathCollection_3">
    <g clip-path="url(#p29142071d3)">
     <use xlink:href="#m13dcb6747f" x="339.815453" y="236.962992" style="fill: #ff0000; stroke: #ff0000"/>
     <use xlink:href="#m13dcb6747f" x="367.36159" y="224.952421" style="fill: #ff0000; stroke: #ff0000"/>
     <use xlink:href="#m13dcb6747f" x="394.907727" y="220.424879" style="fill: #ff0000; stroke: #ff0000"/>
     <use xlink:href="#m13dcb6747f" x="422.453863" y="209.142963" style="fill: #ff0000; stroke: #ff0000"/>
    </g>
   </g>
   <g id="PathCollection_4">
    <g clip-path="url(#p29142071d3)">
     <use xlink:href="#m13dcb6747f" x="339.815453" y="231.052081" style="fill: #ff0000; stroke: #ff0000"/>
     <use xlink:href="#m13dcb6747f" x="367.36159" y="215.586338" style="fill: #ff0000; stroke: #ff0000"/>
     <use xlink:href="#m13dcb6747f" x="394.907727" y="210.340949" style="fill: #ff0000; stroke: #ff0000"/>
     <use xlink:href="#m13dcb6747f" x="422.453863" y="204.691427" style="fill: #ff0000; stroke: #ff0000"/>
    </g>
   </g>
   <g id="PathCollection_5">
    <g clip-path="url(#p29142071d3)">
     <use xlink:href="#m13dcb6747f" x="78.127154" y="118.090177" style="fill: #ff0000; stroke: #ff0000"/>
     <use xlink:href="#m13dcb6747f" x="105.673291" y="97.398711" style="fill: #ff0000; stroke: #ff0000"/>
     <use xlink:href="#m13dcb6747f" x="133.219428" y="125.454676" style="fill: #ff0000; stroke: #ff0000"/>
     <use xlink:href="#m13dcb6747f" x="160.765565" y="107.733813" style="fill: #ff0000; stroke: #ff0000"/>
     <use xlink:href="#m13dcb6747f" x="188.311701" y="130.797038" style="fill: #ff0000; stroke: #ff0000"/>
     <use xlink:href="#m13dcb6747f" x="215.857838" y="130.687191" style="fill: #ff0000; stroke: #ff0000"/>
     <use xlink:href="#m13dcb6747f" x="243.403975" y="152.004668" style="fill: #ff0000; stroke: #ff0000"/>
     <use xlink:href="#m13dcb6747f" x="270.950111" y="153.350004" style="fill: #ff0000; stroke: #ff0000"/>
     <use xlink:href="#m13dcb6747f" x="298.496248" y="185.302361" style="fill: #ff0000; stroke: #ff0000"/>
     <use xlink:href="#m13dcb6747f" x="326.042385" y="193.139794" style="fill: #ff0000; stroke: #ff0000"/>
     <use xlink:href="#m13dcb6747f" x="353.588522" y="227.428712" style="fill: #ff0000; stroke: #ff0000"/>
     <use xlink:href="#m13dcb6747f" x="381.134658" y="225.05406" style="fill: #ff0000; stroke: #ff0000"/>
     <use xlink:href="#m13dcb6747f" x="408.680795" y="214.795142" style="fill: #ff0000; stroke: #ff0000"/>
     <use xlink:href="#m13dcb6747f" x="436.226932" y="201.425889" style="fill: #ff0000; stroke: #ff0000"/>
    </g>
   </g>
   <g id="PathCollection_6">
    <g clip-path="url(#p29142071d3)">
     <use xlink:href="#m13dcb6747f" x="78.127154" y="124.50739" style="fill: #ff0000; stroke: #ff0000"/>
     <use xlink:href="#m13dcb6747f" x="105.673291" y="99.143276" style="fill: #ff0000; stroke: #ff0000"/>
     <use xlink:href="#m13dcb6747f" x="133.219428" y="124.130601" style="fill: #ff0000; stroke: #ff0000"/>
     <use xlink:href="#m13dcb6747f" x="160.765565" y="104.236415" style="fill: #ff0000; stroke: #ff0000"/>
     <use xlink:href="#m13dcb6747f" x="188.311701" y="126.465744" style="fill: #ff0000; stroke: #ff0000"/>
     <use xlink:href="#m13dcb6747f" x="215.857838" y="123.591995" style="fill: #ff0000; stroke: #ff0000"/>
     <use xlink:href="#m13dcb6747f" x="243.403975" y="145.351225" style="fill: #ff0000; stroke: #ff0000"/>
     <use xlink:href="#m13dcb6747f" x="270.950111" y="151.940886" style="fill: #ff0000; stroke: #ff0000"/>
     <use xlink:href="#m13dcb6747f" x="298.496248" y="178.057041" style="fill: #ff0000; stroke: #ff0000"/>
     <use xlink:href="#m13dcb6747f" x="326.042385" y="186.745023" style="fill: #ff0000; stroke: #ff0000"/>
     <use xlink:href="#m13dcb6747f" x="353.588522" y="220.866867" style="fill: #ff0000; stroke: #ff0000"/>
     <use xlink:href="#m13dcb6747f" x="381.134658" y="214.493298" style="fill: #ff0000; stroke: #ff0000"/>
     <use xlink:href="#m13dcb6747f" x="408.680795" y="213.099417" style="fill: #ff0000; stroke: #ff0000"/>
     <use xlink:href="#m13dcb6747f" x="436.226932" y="196.37604" style="fill: #ff0000; stroke: #ff0000"/>
    </g>
   </g>
   <g id="PathCollection_7">
    <g clip-path="url(#p29142071d3)">
     <use xlink:href="#m13dcb6747f" x="78.127154" y="120.341457" style="fill: #ff0000; stroke: #ff0000"/>
     <use xlink:href="#m13dcb6747f" x="105.673291" y="100.394119" style="fill: #ff0000; stroke: #ff0000"/>
     <use xlink:href="#m13dcb6747f" x="160.765565" y="104.10885" style="fill: #ff0000; stroke: #ff0000"/>
     <use xlink:href="#m13dcb6747f" x="188.311701" y="126.34881" style="fill: #ff0000; stroke: #ff0000"/>
     <use xlink:href="#m13dcb6747f" x="215.857838" y="126.586222" style="fill: #ff0000; stroke: #ff0000"/>
     <use xlink:href="#m13dcb6747f" x="243.403975" y="147.147761" style="fill: #ff0000; stroke: #ff0000"/>
     <use xlink:href="#m13dcb6747f" x="270.950111" y="150.808159" style="fill: #ff0000; stroke: #ff0000"/>
     <use xlink:href="#m13dcb6747f" x="298.496248" y="230.216827" style="fill: #ff0000; stroke: #ff0000"/>
     <use xlink:href="#m13dcb6747f" x="326.042385" y="187.283157" style="fill: #ff0000; stroke: #ff0000"/>
     <use xlink:href="#m13dcb6747f" x="353.588522" y="221.507584" style="fill: #ff0000; stroke: #ff0000"/>
     <use xlink:href="#m13dcb6747f" x="381.134658" y="221.803699" style="fill: #ff0000; stroke: #ff0000"/>
     <use xlink:href="#m13dcb6747f" x="408.680795" y="208.917126" style="fill: #ff0000; stroke: #ff0000"/>
     <use xlink:href="#m13dcb6747f" x="436.226932" y="198.606237" style="fill: #ff0000; stroke: #ff0000"/>
    </g>
   </g>
   <g id="PathCollection_8">
    <g clip-path="url(#p29142071d3)">
     <use xlink:href="#m13dcb6747f" x="78.127154" y="117.243289" style="fill: #ff0000; stroke: #ff0000"/>
     <use xlink:href="#m13dcb6747f" x="105.673291" y="97.259335" style="fill: #ff0000; stroke: #ff0000"/>
     <use xlink:href="#m13dcb6747f" x="133.219428" y="122.236029" style="fill: #ff0000; stroke: #ff0000"/>
     <use xlink:href="#m13dcb6747f" x="160.765565" y="111.633986" style="fill: #ff0000; stroke: #ff0000"/>
     <use xlink:href="#m13dcb6747f" x="188.311701" y="121.750575" style="fill: #ff0000; stroke: #ff0000"/>
     <use xlink:href="#m13dcb6747f" x="215.857838" y="125.263329" style="fill: #ff0000; stroke: #ff0000"/>
     <use xlink:href="#m13dcb6747f" x="243.403975" y="140.601802" style="fill: #ff0000; stroke: #ff0000"/>
     <use xlink:href="#m13dcb6747f" x="270.950111" y="147.859997" style="fill: #ff0000; stroke: #ff0000"/>
     <use xlink:href="#m13dcb6747f" x="298.496248" y="174.375028" style="fill: #ff0000; stroke: #ff0000"/>
     <use xlink:href="#m13dcb6747f" x="326.042385" y="183.762844" style="fill: #ff0000; stroke: #ff0000"/>
     <use xlink:href="#m13dcb6747f" x="353.588522" y="215.554211" style="fill: #ff0000; stroke: #ff0000"/>
     <use xlink:href="#m13dcb6747f" x="381.134658" y="214.544678" style="fill: #ff0000; stroke: #ff0000"/>
     <use xlink:href="#m13dcb6747f" x="408.680795" y="202.096726" style="fill: #ff0000; stroke: #ff0000"/>
     <use xlink:href="#m13dcb6747f" x="436.226932" y="193.002899" style="fill: #ff0000; stroke: #ff0000"/>
    </g>
   </g>
   <g id="matplotlib.axis_1">
    <g id="xtick_1">
     <g id="line2d_1">
      <path d="M 71.24062 306.088647 
L 71.24062 10.8 
" clip-path="url(#p29142071d3)" style="fill: none; stroke: #b0b0b0; stroke-width: 0.8; stroke-linecap: square"/>
     </g>
     <g id="line2d_2">
      <defs>
       <path id="m1c0a951b4d" d="M 0 0 
L 0 3.5 
" style="stroke: #000000; stroke-width: 0.8"/>
      </defs>
      <g>
       <use xlink:href="#m1c0a951b4d" x="71.24062" y="306.088647" style="stroke: #000000; stroke-width: 0.8"/>
      </g>
     </g>
     <g id="text_1">
      <!-- R1 -->
      <g transform="translate(65.083146 320.007145) scale(0.1 -0.1)">
       <defs>
        <path id="CMR17-52" d="M 2509 2146 
C 3117 2268 3629 2676 3629 3186 
C 3629 3785 2950 4326 2054 4326 
L 333 4326 
L 333 4160 
C 774 4160 845 4160 845 3873 
L 845 415 
C 845 128 774 128 333 128 
L 333 -26 
C 518 -26 851 -26 1050 -26 
C 1248 -26 1581 -26 1766 -26 
L 1766 128 
C 1325 128 1254 128 1254 417 
L 1254 2112 
L 2003 2112 
C 2368 2112 2573 1964 2662 1881 
C 2918 1632 2918 1459 2918 1024 
C 2918 595 2918 377 3110 160 
C 3354 -102 3680 -128 3821 -128 
C 4294 -128 4365 396 4365 503 
C 4365 540 4365 585 4307 585 
C 4256 585 4250 547 4250 522 
C 4218 112 4032 -26 3834 -26 
C 3482 -26 3443 375 3405 764 
C 3386 898 3373 993 3360 1133 
C 3322 1452 3270 1917 2509 2146 
z
M 1984 2214 
L 1254 2214 
L 1254 3913 
C 1254 4129 1267 4160 1523 4160 
L 1990 4160 
C 2522 4160 3142 3977 3142 3190 
C 3142 2372 2464 2214 1984 2214 
z
" transform="scale(0.015625)"/>
        <path id="CMR17-31" d="M 1702 4058 
C 1702 4192 1696 4192 1606 4192 
C 1357 3916 979 3827 621 3827 
C 602 3827 570 3827 563 3808 
C 557 3795 557 3782 557 3648 
C 755 3648 1088 3686 1344 3839 
L 1344 461 
C 1344 236 1331 160 781 160 
L 589 160 
L 589 0 
C 896 0 1216 0 1523 0 
C 1830 0 2150 0 2458 0 
L 2458 160 
L 2266 160 
C 1715 160 1702 230 1702 458 
L 1702 4058 
z
" transform="scale(0.015625)"/>
       </defs>
       <use xlink:href="#CMR17-52" transform="scale(0.996264)"/>
       <use xlink:href="#CMR17-31" transform="translate(67.791102 0) scale(0.996264)"/>
      </g>
     </g>
    </g>
    <g id="xtick_2">
     <g id="line2d_3">
      <path d="M 98.786757 306.088647 
L 98.786757 10.8 
" clip-path="url(#p29142071d3)" style="fill: none; stroke: #b0b0b0; stroke-width: 0.8; stroke-linecap: square"/>
     </g>
     <g id="line2d_4">
      <g>
       <use xlink:href="#m1c0a951b4d" x="98.786757" y="306.088647" style="stroke: #000000; stroke-width: 0.8"/>
      </g>
     </g>
     <g id="text_2">
      <!-- R2 -->
      <g transform="translate(92.629283 320.007145) scale(0.1 -0.1)">
       <defs>
        <path id="CMR17-32" d="M 2669 989 
L 2554 989 
C 2490 536 2438 459 2413 420 
C 2381 369 1920 369 1830 369 
L 602 369 
C 832 619 1280 1072 1824 1597 
C 2214 1967 2669 2402 2669 3035 
C 2669 3790 2067 4224 1395 4224 
C 691 4224 262 3604 262 3030 
C 262 2780 448 2748 525 2748 
C 589 2748 781 2787 781 3010 
C 781 3207 614 3264 525 3264 
C 486 3264 448 3258 422 3245 
C 544 3790 915 4058 1306 4058 
C 1862 4058 2227 3617 2227 3035 
C 2227 2479 1901 2000 1536 1584 
L 262 146 
L 262 0 
L 2515 0 
L 2669 989 
z
" transform="scale(0.015625)"/>
       </defs>
       <use xlink:href="#CMR17-52" transform="scale(0.996264)"/>
       <use xlink:href="#CMR17-32" transform="translate(67.791102 0) scale(0.996264)"/>
      </g>
     </g>
    </g>
    <g id="xtick_3">
     <g id="line2d_5">
      <path d="M 126.332894 306.088647 
L 126.332894 10.8 
" clip-path="url(#p29142071d3)" style="fill: none; stroke: #b0b0b0; stroke-width: 0.8; stroke-linecap: square"/>
     </g>
     <g id="line2d_6">
      <g>
       <use xlink:href="#m1c0a951b4d" x="126.332894" y="306.088647" style="stroke: #000000; stroke-width: 0.8"/>
      </g>
     </g>
     <g id="text_3">
      <!-- R3 -->
      <g transform="translate(120.175419 320.007145) scale(0.1 -0.1)">
       <defs>
        <path id="CMR17-33" d="M 1414 2157 
C 1984 2157 2234 1662 2234 1090 
C 2234 320 1824 25 1453 25 
C 1114 25 563 194 390 693 
C 422 680 454 680 486 680 
C 640 680 755 782 755 948 
C 755 1133 614 1216 486 1216 
C 378 1216 211 1165 211 926 
C 211 335 787 -128 1466 -128 
C 2176 -128 2720 430 2720 1085 
C 2720 1707 2208 2157 1600 2227 
C 2086 2328 2554 2756 2554 3329 
C 2554 3820 2048 4179 1472 4179 
C 890 4179 378 3829 378 3329 
C 378 3110 544 3072 627 3072 
C 762 3072 877 3155 877 3321 
C 877 3486 762 3569 627 3569 
C 602 3569 570 3569 544 3557 
C 730 3959 1235 4032 1459 4032 
C 1683 4032 2106 3925 2106 3320 
C 2106 3143 2080 2828 1862 2550 
C 1670 2304 1453 2304 1242 2284 
C 1210 2284 1062 2269 1037 2269 
C 992 2263 966 2257 966 2208 
C 966 2163 973 2157 1101 2157 
L 1414 2157 
z
" transform="scale(0.015625)"/>
       </defs>
       <use xlink:href="#CMR17-52" transform="scale(0.996264)"/>
       <use xlink:href="#CMR17-33" transform="translate(67.791102 0) scale(0.996264)"/>
      </g>
     </g>
    </g>
    <g id="xtick_4">
     <g id="line2d_7">
      <path d="M 153.87903 306.088647 
L 153.87903 10.8 
" clip-path="url(#p29142071d3)" style="fill: none; stroke: #b0b0b0; stroke-width: 0.8; stroke-linecap: square"/>
     </g>
     <g id="line2d_8">
      <g>
       <use xlink:href="#m1c0a951b4d" x="153.87903" y="306.088647" style="stroke: #000000; stroke-width: 0.8"/>
      </g>
     </g>
     <g id="text_4">
      <!-- R4 -->
      <g transform="translate(147.721556 320.007145) scale(0.1 -0.1)">
       <defs>
        <path id="CMR17-34" d="M 2150 4122 
C 2150 4256 2144 4256 2029 4256 
L 128 1254 
L 128 1088 
L 1779 1088 
L 1779 457 
C 1779 224 1766 160 1318 160 
L 1197 160 
L 1197 0 
C 1402 0 1747 0 1965 0 
C 2182 0 2528 0 2733 0 
L 2733 160 
L 2611 160 
C 2163 160 2150 224 2150 457 
L 2150 1088 
L 2803 1088 
L 2803 1254 
L 2150 1254 
L 2150 4122 
z
M 1798 3703 
L 1798 1254 
L 256 1254 
L 1798 3703 
z
" transform="scale(0.015625)"/>
       </defs>
       <use xlink:href="#CMR17-52" transform="scale(0.996264)"/>
       <use xlink:href="#CMR17-34" transform="translate(67.791102 0) scale(0.996264)"/>
      </g>
     </g>
    </g>
    <g id="xtick_5">
     <g id="line2d_9">
      <path d="M 181.425167 306.088647 
L 181.425167 10.8 
" clip-path="url(#p29142071d3)" style="fill: none; stroke: #b0b0b0; stroke-width: 0.8; stroke-linecap: square"/>
     </g>
     <g id="line2d_10">
      <g>
       <use xlink:href="#m1c0a951b4d" x="181.425167" y="306.088647" style="stroke: #000000; stroke-width: 0.8"/>
      </g>
     </g>
     <g id="text_5">
      <!-- R5 -->
      <g transform="translate(175.267693 320.007145) scale(0.1 -0.1)">
       <defs>
        <path id="CMR17-35" d="M 730 3692 
C 794 3666 1056 3584 1325 3584 
C 1920 3584 2246 3911 2432 4100 
C 2432 4157 2432 4192 2394 4192 
C 2387 4192 2374 4192 2323 4163 
C 2099 4058 1837 3973 1517 3973 
C 1325 3973 1037 3999 723 4139 
C 653 4171 640 4171 634 4171 
C 602 4171 595 4164 595 4037 
L 595 2203 
C 595 2089 595 2057 659 2057 
C 691 2057 704 2070 736 2114 
C 941 2401 1222 2522 1542 2522 
C 1766 2522 2246 2382 2246 1289 
C 2246 1085 2246 715 2054 421 
C 1894 159 1645 25 1370 25 
C 947 25 518 320 403 814 
C 429 807 480 795 506 795 
C 589 795 749 840 749 1038 
C 749 1210 627 1280 506 1280 
C 358 1280 262 1190 262 1011 
C 262 454 704 -128 1382 -128 
C 2042 -128 2669 440 2669 1264 
C 2669 2030 2170 2624 1549 2624 
C 1222 2624 947 2503 730 2274 
L 730 3692 
z
" transform="scale(0.015625)"/>
       </defs>
       <use xlink:href="#CMR17-52" transform="scale(0.996264)"/>
       <use xlink:href="#CMR17-35" transform="translate(67.791102 0) scale(0.996264)"/>
      </g>
     </g>
    </g>
    <g id="xtick_6">
     <g id="line2d_11">
      <path d="M 208.971304 306.088647 
L 208.971304 10.8 
" clip-path="url(#p29142071d3)" style="fill: none; stroke: #b0b0b0; stroke-width: 0.8; stroke-linecap: square"/>
     </g>
     <g id="line2d_12">
      <g>
       <use xlink:href="#m1c0a951b4d" x="208.971304" y="306.088647" style="stroke: #000000; stroke-width: 0.8"/>
      </g>
     </g>
     <g id="text_6">
      <!-- R6 -->
      <g transform="translate(202.813829 320.007145) scale(0.1 -0.1)">
       <defs>
        <path id="CMR17-36" d="M 678 2176 
C 678 3690 1395 4032 1811 4032 
C 1946 4032 2272 4009 2400 3776 
C 2298 3776 2106 3776 2106 3553 
C 2106 3381 2246 3323 2336 3323 
C 2394 3323 2566 3348 2566 3560 
C 2566 3954 2246 4179 1805 4179 
C 1043 4179 243 3390 243 1984 
C 243 253 966 -128 1478 -128 
C 2099 -128 2688 427 2688 1283 
C 2688 2081 2170 2662 1517 2662 
C 1126 2662 838 2407 678 1960 
L 678 2176 
z
M 1478 25 
C 691 25 691 1200 691 1436 
C 691 1896 909 2560 1504 2560 
C 1613 2560 1926 2560 2138 2120 
C 2253 1870 2253 1609 2253 1289 
C 2253 944 2253 690 2118 434 
C 1978 171 1773 25 1478 25 
z
" transform="scale(0.015625)"/>
       </defs>
       <use xlink:href="#CMR17-52" transform="scale(0.996264)"/>
       <use xlink:href="#CMR17-36" transform="translate(67.791102 0) scale(0.996264)"/>
      </g>
     </g>
    </g>
    <g id="xtick_7">
     <g id="line2d_13">
      <path d="M 236.517441 306.088647 
L 236.517441 10.8 
" clip-path="url(#p29142071d3)" style="fill: none; stroke: #b0b0b0; stroke-width: 0.8; stroke-linecap: square"/>
     </g>
     <g id="line2d_14">
      <g>
       <use xlink:href="#m1c0a951b4d" x="236.517441" y="306.088647" style="stroke: #000000; stroke-width: 0.8"/>
      </g>
     </g>
     <g id="text_7">
      <!-- R7 -->
      <g transform="translate(230.359966 320.007145) scale(0.1 -0.1)">
       <defs>
        <path id="CMR17-37" d="M 2886 3941 
L 2886 4081 
L 1382 4081 
C 634 4081 621 4165 595 4288 
L 480 4288 
L 294 3094 
L 410 3094 
C 429 3215 474 3540 550 3661 
C 589 3712 1062 3712 1171 3712 
L 2579 3712 
L 1869 2661 
C 1395 1954 1069 999 1069 165 
C 1069 89 1069 -128 1299 -128 
C 1530 -128 1530 89 1530 171 
L 1530 465 
C 1530 1508 1709 2196 2003 2636 
L 2886 3941 
z
" transform="scale(0.015625)"/>
       </defs>
       <use xlink:href="#CMR17-52" transform="scale(0.996264)"/>
       <use xlink:href="#CMR17-37" transform="translate(67.791102 0) scale(0.996264)"/>
      </g>
     </g>
    </g>
    <g id="xtick_8">
     <g id="line2d_15">
      <path d="M 264.063577 306.088647 
L 264.063577 10.8 
" clip-path="url(#p29142071d3)" style="fill: none; stroke: #b0b0b0; stroke-width: 0.8; stroke-linecap: square"/>
     </g>
     <g id="line2d_16">
      <g>
       <use xlink:href="#m1c0a951b4d" x="264.063577" y="306.088647" style="stroke: #000000; stroke-width: 0.8"/>
      </g>
     </g>
     <g id="text_8">
      <!-- R8 -->
      <g transform="translate(257.906103 320.007145) scale(0.1 -0.1)">
       <defs>
        <path id="CMR17-38" d="M 1741 2264 
C 2144 2467 2554 2773 2554 3263 
C 2554 3841 1990 4179 1472 4179 
C 890 4179 378 3759 378 3180 
C 378 3021 416 2747 666 2505 
C 730 2442 998 2251 1171 2130 
C 883 1983 211 1634 211 934 
C 211 279 838 -128 1459 -128 
C 2144 -128 2720 362 2720 1010 
C 2720 1590 2330 1857 2074 2029 
L 1741 2264 
z
M 902 2822 
C 851 2854 595 3051 595 3351 
C 595 3739 998 4032 1459 4032 
C 1965 4032 2336 3676 2336 3262 
C 2336 2669 1670 2331 1638 2331 
C 1632 2331 1626 2331 1574 2370 
L 902 2822 
z
M 2080 1519 
C 2176 1449 2483 1240 2483 851 
C 2483 381 2010 25 1472 25 
C 890 25 448 438 448 940 
C 448 1443 838 1862 1280 2060 
L 2080 1519 
z
" transform="scale(0.015625)"/>
       </defs>
       <use xlink:href="#CMR17-52" transform="scale(0.996264)"/>
       <use xlink:href="#CMR17-38" transform="translate(67.791102 0) scale(0.996264)"/>
      </g>
     </g>
    </g>
    <g id="xtick_9">
     <g id="line2d_17">
      <path d="M 291.609714 306.088647 
L 291.609714 10.8 
" clip-path="url(#p29142071d3)" style="fill: none; stroke: #b0b0b0; stroke-width: 0.8; stroke-linecap: square"/>
     </g>
     <g id="line2d_18">
      <g>
       <use xlink:href="#m1c0a951b4d" x="291.609714" y="306.088647" style="stroke: #000000; stroke-width: 0.8"/>
      </g>
     </g>
     <g id="text_9">
      <!-- R9 -->
      <g transform="translate(285.45224 320.007145) scale(0.1 -0.1)">
       <defs>
        <path id="CMR17-39" d="M 2253 1864 
C 2253 464 1670 31 1190 31 
C 1043 31 685 31 538 294 
C 704 268 826 357 826 518 
C 826 692 685 749 595 749 
C 538 749 365 723 365 506 
C 365 71 742 -128 1203 -128 
C 1939 -128 2688 674 2688 2073 
C 2688 3817 1971 4179 1485 4179 
C 851 4179 243 3628 243 2778 
C 243 1991 762 1408 1414 1408 
C 1952 1408 2189 1903 2253 2112 
L 2253 1864 
z
M 1427 1510 
C 1254 1510 1011 1542 813 1922 
C 678 2169 678 2461 678 2771 
C 678 3146 678 3405 858 3684 
C 947 3817 1114 4032 1485 4032 
C 2240 4032 2240 2885 2240 2632 
C 2240 2182 2035 1510 1427 1510 
z
" transform="scale(0.015625)"/>
       </defs>
       <use xlink:href="#CMR17-52" transform="scale(0.996264)"/>
       <use xlink:href="#CMR17-39" transform="translate(67.791102 0) scale(0.996264)"/>
      </g>
     </g>
    </g>
    <g id="xtick_10">
     <g id="line2d_19">
      <path d="M 319.155851 306.088647 
L 319.155851 10.8 
" clip-path="url(#p29142071d3)" style="fill: none; stroke: #b0b0b0; stroke-width: 0.8; stroke-linecap: square"/>
     </g>
     <g id="line2d_20">
      <g>
       <use xlink:href="#m1c0a951b4d" x="319.155851" y="306.088647" style="stroke: #000000; stroke-width: 0.8"/>
      </g>
     </g>
     <g id="text_10">
      <!-- R10 -->
      <g transform="translate(310.507709 320.007145) scale(0.1 -0.1)">
       <defs>
        <path id="CMR17-30" d="M 2688 2025 
C 2688 2416 2682 3080 2413 3591 
C 2176 4039 1798 4198 1466 4198 
C 1158 4198 768 4058 525 3597 
C 269 3118 243 2524 243 2025 
C 243 1661 250 1106 448 619 
C 723 -39 1216 -128 1466 -128 
C 1760 -128 2208 -7 2470 600 
C 2662 1042 2688 1559 2688 2025 
z
M 1466 -26 
C 1056 -26 813 325 723 812 
C 653 1188 653 1738 653 2096 
C 653 2588 653 2997 736 3387 
C 858 3929 1216 4096 1466 4096 
C 1728 4096 2067 3923 2189 3400 
C 2272 3036 2278 2607 2278 2096 
C 2278 1680 2278 1169 2202 792 
C 2067 95 1690 -26 1466 -26 
z
" transform="scale(0.015625)"/>
       </defs>
       <use xlink:href="#CMR17-52" transform="scale(0.996264)"/>
       <use xlink:href="#CMR17-31" transform="translate(67.791102 0) scale(0.996264)"/>
       <use xlink:href="#CMR17-30" transform="translate(113.481579 0) scale(0.996264)"/>
      </g>
     </g>
    </g>
    <g id="xtick_11">
     <g id="line2d_21">
      <path d="M 346.701987 306.088647 
L 346.701987 10.8 
" clip-path="url(#p29142071d3)" style="fill: none; stroke: #b0b0b0; stroke-width: 0.8; stroke-linecap: square"/>
     </g>
     <g id="line2d_22">
      <g>
       <use xlink:href="#m1c0a951b4d" x="346.701987" y="306.088647" style="stroke: #000000; stroke-width: 0.8"/>
      </g>
     </g>
     <g id="text_11">
      <!-- F1 -->
      <g transform="translate(340.959613 320.007145) scale(0.1 -0.1)">
       <defs>
        <path id="CMR17-46" d="M 3482 4325 
L 326 4325 
L 326 4160 
C 768 4160 838 4160 838 3874 
L 838 446 
C 838 160 768 160 326 160 
L 326 0 
C 512 0 870 0 1069 0 
C 1331 0 1638 0 1901 0 
L 1901 160 
L 1760 160 
C 1274 160 1261 223 1261 452 
L 1261 2075 
L 1837 2075 
C 2432 2075 2490 1865 2490 1332 
L 2605 1332 
L 2605 2987 
L 2490 2987 
C 2490 2450 2432 2240 1837 2240 
L 1261 2240 
L 1261 3911 
C 1261 4128 1274 4160 1530 4160 
L 2355 4160 
C 3322 4160 3430 3765 3520 2916 
L 3635 2916 
L 3482 4325 
z
" transform="scale(0.015625)"/>
       </defs>
       <use xlink:href="#CMR17-46" transform="scale(0.996264)"/>
       <use xlink:href="#CMR17-31" transform="translate(59.983847 0) scale(0.996264)"/>
      </g>
     </g>
    </g>
    <g id="xtick_12">
     <g id="line2d_23">
      <path d="M 374.248124 306.088647 
L 374.248124 10.8 
" clip-path="url(#p29142071d3)" style="fill: none; stroke: #b0b0b0; stroke-width: 0.8; stroke-linecap: square"/>
     </g>
     <g id="line2d_24">
      <g>
       <use xlink:href="#m1c0a951b4d" x="374.248124" y="306.088647" style="stroke: #000000; stroke-width: 0.8"/>
      </g>
     </g>
     <g id="text_12">
      <!-- F2 -->
      <g transform="translate(368.50575 320.007145) scale(0.1 -0.1)">
       <use xlink:href="#CMR17-46" transform="scale(0.996264)"/>
       <use xlink:href="#CMR17-32" transform="translate(59.983847 0) scale(0.996264)"/>
      </g>
     </g>
    </g>
    <g id="xtick_13">
     <g id="line2d_25">
      <path d="M 401.794261 306.088647 
L 401.794261 10.8 
" clip-path="url(#p29142071d3)" style="fill: none; stroke: #b0b0b0; stroke-width: 0.8; stroke-linecap: square"/>
     </g>
     <g id="line2d_26">
      <g>
       <use xlink:href="#m1c0a951b4d" x="401.794261" y="306.088647" style="stroke: #000000; stroke-width: 0.8"/>
      </g>
     </g>
     <g id="text_13">
      <!-- F3 -->
      <g transform="translate(396.051886 320.007145) scale(0.1 -0.1)">
       <use xlink:href="#CMR17-46" transform="scale(0.996264)"/>
       <use xlink:href="#CMR17-33" transform="translate(59.983847 0) scale(0.996264)"/>
      </g>
     </g>
    </g>
    <g id="xtick_14">
     <g id="line2d_27">
      <path d="M 429.340397 306.088647 
L 429.340397 10.8 
" clip-path="url(#p29142071d3)" style="fill: none; stroke: #b0b0b0; stroke-width: 0.8; stroke-linecap: square"/>
     </g>
     <g id="line2d_28">
      <g>
       <use xlink:href="#m1c0a951b4d" x="429.340397" y="306.088647" style="stroke: #000000; stroke-width: 0.8"/>
      </g>
     </g>
     <g id="text_14">
      <!-- F4 -->
      <g transform="translate(423.598023 320.007145) scale(0.1 -0.1)">
       <use xlink:href="#CMR17-46" transform="scale(0.996264)"/>
       <use xlink:href="#CMR17-34" transform="translate(59.983847 0) scale(0.996264)"/>
      </g>
     </g>
    </g>
    <g id="text_15">
     <!-- Roll Pass -->
     <g transform="translate(230.033115 332.862822) scale(0.1 -0.1)">
      <defs>
       <path id="CMR17-6f" d="M 2758 1356 
C 2758 2176 2163 2816 1466 2816 
C 768 2816 173 2176 173 1356 
C 173 551 768 -64 1466 -64 
C 2163 -64 2758 551 2758 1356 
z
M 1466 51 
C 1165 51 909 230 762 480 
C 602 767 582 1126 582 1408 
C 582 1677 595 2010 762 2298 
C 890 2509 1139 2714 1466 2714 
C 1754 2714 1997 2554 2150 2330 
C 2349 2029 2349 1607 2349 1408 
C 2349 1158 2336 775 2163 467 
C 1984 173 1709 51 1466 51 
z
" transform="scale(0.015625)"/>
       <path id="CMR17-6c" d="M 979 4396 
L 218 4326 
L 218 4160 
C 595 4160 653 4122 653 3817 
L 653 426 
C 653 184 627 153 218 153 
L 218 -13 
C 371 0 653 0 813 0 
C 979 0 1261 0 1414 -13 
L 1414 153 
C 1005 153 979 178 979 426 
L 979 4396 
z
" transform="scale(0.015625)"/>
       <path id="CMR17-50" d="M 1267 2042 
L 2291 2042 
C 3117 2042 3718 2578 3718 3184 
C 3718 3791 3130 4352 2291 4352 
L 333 4352 
L 333 4186 
C 774 4186 845 4186 845 3899 
L 845 446 
C 845 160 774 160 333 160 
L 333 0 
C 518 0 858 0 1056 0 
C 1254 0 1594 0 1779 0 
L 1779 160 
C 1338 160 1267 160 1267 446 
L 1267 2042 
z
M 1254 2176 
L 1254 3938 
C 1254 4155 1267 4186 1523 4186 
L 2170 4186 
C 2995 4186 3232 3714 3232 3184 
C 3232 2604 2950 2176 2170 2176 
L 1254 2176 
z
" transform="scale(0.015625)"/>
       <path id="CMR17-61" d="M 2304 1653 
C 2304 2072 2304 2294 2035 2543 
C 1798 2752 1523 2816 1306 2816 
C 800 2816 435 2407 435 1971 
C 435 1728 627 1728 666 1728 
C 749 1728 896 1778 896 1954 
C 896 2112 774 2181 666 2181 
C 640 2181 608 2174 589 2168 
C 723 2592 1069 2714 1293 2714 
C 1613 2714 1965 2429 1965 1885 
L 1965 1600 
C 1587 1600 1133 1549 774 1357 
C 371 1133 256 813 256 570 
C 256 77 832 -64 1171 -64 
C 1523 -64 1850 139 1990 511 
C 2003 233 2182 -18 2464 -18 
C 2598 -18 2938 70 2938 567 
L 2938 920 
L 2822 920 
L 2822 562 
C 2822 178 2650 128 2566 128 
C 2304 128 2304 458 2304 738 
L 2304 1653 
z
M 1965 870 
C 1965 317 1568 38 1216 38 
C 896 38 646 275 646 570 
C 646 761 730 1100 1101 1305 
C 1408 1478 1760 1504 1965 1504 
L 1965 870 
z
" transform="scale(0.015625)"/>
       <path id="CMR17-73" d="M 1978 2697 
C 1978 2813 1971 2819 1933 2819 
C 1907 2819 1901 2813 1824 2717 
C 1805 2691 1747 2626 1728 2601 
C 1523 2819 1235 2819 1126 2819 
C 416 2819 160 2447 160 2076 
C 160 1498 813 1365 998 1325 
C 1402 1243 1542 1217 1677 1101 
C 1760 1025 1901 884 1901 654 
C 1901 384 1747 38 1158 38 
C 602 38 403 460 288 1021 
C 269 1110 269 1117 218 1117 
C 166 1117 160 1110 160 983 
L 160 63 
C 160 -51 166 -58 205 -58 
C 237 -58 243 -51 275 0 
C 314 57 410 211 448 276 
C 576 103 800 -64 1158 -64 
C 1792 -64 2131 283 2131 784 
C 2131 1112 1958 1285 1875 1362 
C 1683 1561 1459 1606 1190 1657 
C 838 1735 390 1825 390 2217 
C 390 2383 480 2737 1126 2737 
C 1811 2737 1850 2094 1862 1888 
C 1869 1856 1901 1849 1920 1849 
C 1978 1849 1978 1869 1978 1978 
L 1978 2697 
z
" transform="scale(0.015625)"/>
      </defs>
      <use xlink:href="#CMR17-52" transform="scale(0.996264)"/>
      <use xlink:href="#CMR17-6f" transform="translate(67.791102 0) scale(0.996264)"/>
      <use xlink:href="#CMR17-6c" transform="translate(113.481579 0) scale(0.996264)"/>
      <use xlink:href="#CMR17-6c" transform="translate(138.352638 0) scale(0.996264)"/>
      <use xlink:href="#CMR17-50" transform="translate(193.299662 0) scale(0.996264)"/>
      <use xlink:href="#CMR17-61" transform="translate(253.283509 0) scale(0.996264)"/>
      <use xlink:href="#CMR17-73" transform="translate(298.973986 0) scale(0.996264)"/>
      <use xlink:href="#CMR17-73" transform="translate(334.775324 0) scale(0.996264)"/>
     </g>
    </g>
   </g>
   <g id="matplotlib.axis_2">
    <g id="ytick_1">
     <g id="line2d_29">
      <path d="M 50.581018 276.559782 
L 450 276.559782 
" clip-path="url(#p29142071d3)" style="fill: none; stroke: #b0b0b0; stroke-width: 0.8; stroke-linecap: square"/>
     </g>
     <g id="line2d_30">
      <defs>
       <path id="m9e45cf3c97" d="M 0 0 
L -3.5 0 
" style="stroke: #000000; stroke-width: 0.8"/>
      </defs>
      <g>
       <use xlink:href="#m9e45cf3c97" x="50.581018" y="276.559782" style="stroke: #000000; stroke-width: 0.8"/>
      </g>
     </g>
     <g id="text_16">
      <!-- $\mathdefault{1100}$ -->
      <g transform="translate(23.655677 280.019031) scale(0.1 -0.1)">
       <use xlink:href="#CMR17-31" transform="scale(0.996264)"/>
       <use xlink:href="#CMR17-31" transform="translate(45.690477 0) scale(0.996264)"/>
       <use xlink:href="#CMR17-30" transform="translate(91.380954 0) scale(0.996264)"/>
       <use xlink:href="#CMR17-30" transform="translate(137.071431 0) scale(0.996264)"/>
      </g>
     </g>
    </g>
    <g id="ytick_2">
     <g id="line2d_31">
      <path d="M 50.581018 217.502053 
L 450 217.502053 
" clip-path="url(#p29142071d3)" style="fill: none; stroke: #b0b0b0; stroke-width: 0.8; stroke-linecap: square"/>
     </g>
     <g id="line2d_32">
      <g>
       <use xlink:href="#m9e45cf3c97" x="50.581018" y="217.502053" style="stroke: #000000; stroke-width: 0.8"/>
      </g>
     </g>
     <g id="text_17">
      <!-- $\mathdefault{1200}$ -->
      <g transform="translate(23.655677 220.961302) scale(0.1 -0.1)">
       <use xlink:href="#CMR17-31" transform="scale(0.996264)"/>
       <use xlink:href="#CMR17-32" transform="translate(45.690477 0) scale(0.996264)"/>
       <use xlink:href="#CMR17-30" transform="translate(91.380954 0) scale(0.996264)"/>
       <use xlink:href="#CMR17-30" transform="translate(137.071431 0) scale(0.996264)"/>
      </g>
     </g>
    </g>
    <g id="ytick_3">
     <g id="line2d_33">
      <path d="M 50.581018 158.444323 
L 450 158.444323 
" clip-path="url(#p29142071d3)" style="fill: none; stroke: #b0b0b0; stroke-width: 0.8; stroke-linecap: square"/>
     </g>
     <g id="line2d_34">
      <g>
       <use xlink:href="#m9e45cf3c97" x="50.581018" y="158.444323" style="stroke: #000000; stroke-width: 0.8"/>
      </g>
     </g>
     <g id="text_18">
      <!-- $\mathdefault{1300}$ -->
      <g transform="translate(23.655677 161.903572) scale(0.1 -0.1)">
       <use xlink:href="#CMR17-31" transform="scale(0.996264)"/>
       <use xlink:href="#CMR17-33" transform="translate(45.690477 0) scale(0.996264)"/>
       <use xlink:href="#CMR17-30" transform="translate(91.380954 0) scale(0.996264)"/>
       <use xlink:href="#CMR17-30" transform="translate(137.071431 0) scale(0.996264)"/>
      </g>
     </g>
    </g>
    <g id="ytick_4">
     <g id="line2d_35">
      <path d="M 50.581018 99.386594 
L 450 99.386594 
" clip-path="url(#p29142071d3)" style="fill: none; stroke: #b0b0b0; stroke-width: 0.8; stroke-linecap: square"/>
     </g>
     <g id="line2d_36">
      <g>
       <use xlink:href="#m9e45cf3c97" x="50.581018" y="99.386594" style="stroke: #000000; stroke-width: 0.8"/>
      </g>
     </g>
     <g id="text_19">
      <!-- $\mathdefault{1400}$ -->
      <g transform="translate(23.655677 102.845843) scale(0.1 -0.1)">
       <use xlink:href="#CMR17-31" transform="scale(0.996264)"/>
       <use xlink:href="#CMR17-34" transform="translate(45.690477 0) scale(0.996264)"/>
       <use xlink:href="#CMR17-30" transform="translate(91.380954 0) scale(0.996264)"/>
       <use xlink:href="#CMR17-30" transform="translate(137.071431 0) scale(0.996264)"/>
      </g>
     </g>
    </g>
    <g id="ytick_5">
     <g id="line2d_37">
      <path d="M 50.581018 40.328865 
L 450 40.328865 
" clip-path="url(#p29142071d3)" style="fill: none; stroke: #b0b0b0; stroke-width: 0.8; stroke-linecap: square"/>
     </g>
     <g id="line2d_38">
      <g>
       <use xlink:href="#m9e45cf3c97" x="50.581018" y="40.328865" style="stroke: #000000; stroke-width: 0.8"/>
      </g>
     </g>
     <g id="text_20">
      <!-- $\mathdefault{1500}$ -->
      <g transform="translate(23.655677 43.788114) scale(0.1 -0.1)">
       <use xlink:href="#CMR17-31" transform="scale(0.996264)"/>
       <use xlink:href="#CMR17-35" transform="translate(45.690477 0) scale(0.996264)"/>
       <use xlink:href="#CMR17-30" transform="translate(91.380954 0) scale(0.996264)"/>
       <use xlink:href="#CMR17-30" transform="translate(137.071431 0) scale(0.996264)"/>
      </g>
     </g>
    </g>
    <g id="text_21">
     <!-- Workpiece Temperature $\Temperature$ in \unit{\kelvin} -->
     <g transform="translate(17.718498 227.261021) rotate(-90) scale(0.1 -0.1)">
      <defs>
       <path id="CMR17-57" d="M 5523 3764 
C 5581 3936 5677 4160 6048 4160 
L 6048 4326 
C 5939 4326 5715 4326 5600 4326 
C 5440 4326 5158 4326 5005 4332 
L 5005 4160 
C 5293 4160 5414 4000 5414 3847 
C 5414 3802 5408 3777 5382 3707 
L 4390 555 
L 3347 3873 
C 3328 3937 3322 3963 3322 3988 
C 3322 4160 3603 4160 3725 4160 
L 3725 4326 
C 3539 4326 3219 4326 3021 4326 
C 2861 4326 2573 4326 2426 4332 
L 2426 4160 
C 2720 4160 2797 4141 2861 4027 
C 2886 3969 2989 3638 2989 3619 
C 2989 3593 2976 3555 2970 3536 
L 2029 561 
L 986 3867 
C 954 3957 954 3969 954 3982 
C 954 4160 1235 4160 1363 4160 
L 1363 4326 
C 1178 4326 858 4326 659 4326 
C 493 4326 211 4326 58 4332 
L 58 4160 
C 442 4160 467 4122 531 3918 
L 1779 -20 
C 1811 -115 1811 -128 1869 -128 
C 1920 -128 1939 -115 1965 -26 
L 3053 3433 
L 4141 -26 
C 4166 -115 4186 -128 4237 -128 
C 4294 -128 4294 -115 4326 -20 
L 5523 3764 
z
" transform="scale(0.015625)"/>
       <path id="CMR17-72" d="M 960 1497 
C 960 2112 1222 2688 1702 2688 
C 1747 2688 1792 2682 1837 2662 
C 1837 2662 1696 2617 1696 2452 
C 1696 2298 1818 2234 1914 2234 
C 1990 2234 2131 2279 2131 2458 
C 2131 2663 1926 2790 1709 2790 
C 1222 2790 1011 2317 947 2093 
L 941 2093 
L 941 2790 
L 198 2720 
L 198 2554 
C 576 2554 634 2515 634 2208 
L 634 428 
C 634 184 608 153 198 153 
L 198 -13 
C 352 0 646 0 813 0 
C 998 0 1325 0 1498 -13 
L 1498 153 
C 1037 153 960 153 960 440 
L 960 1497 
z
" transform="scale(0.015625)"/>
       <path id="CMR17-6b" d="M 1670 1673 
C 1664 1686 1632 1724 1632 1743 
C 1632 1756 2086 2171 2144 2222 
C 2509 2528 2739 2560 2906 2560 
L 2906 2733 
C 2867 2733 2854 2733 2848 2720 
L 2534 2720 
C 2355 2720 2080 2720 1907 2733 
L 1907 2566 
C 1997 2559 2061 2508 2061 2419 
C 2061 2291 1933 2170 1926 2170 
L 960 1289 
L 960 4396 
L 198 4326 
L 198 4160 
C 576 4160 634 4122 634 3817 
L 634 426 
C 634 184 608 153 198 153 
L 198 -13 
C 352 0 634 0 794 0 
C 954 0 1235 0 1389 -13 
L 1389 153 
C 979 153 954 178 954 428 
L 954 1130 
L 1395 1532 
L 2042 574 
C 2118 459 2182 369 2182 286 
C 2182 172 2067 153 1990 153 
L 1990 -13 
C 2144 0 2419 0 2579 0 
C 2694 0 2931 0 3040 0 
L 3040 153 
C 2739 153 2669 210 2477 491 
L 1670 1673 
z
" transform="scale(0.015625)"/>
       <path id="CMR17-70" d="M 1408 -1063 
C 998 -1063 973 -1037 973 -789 
L 973 402 
C 1158 134 1427 -38 1766 -38 
C 2406 -38 3053 523 3053 1388 
C 3053 2191 2496 2802 1837 2802 
C 1453 2802 1139 2592 960 2338 
L 960 2802 
L 198 2732 
L 198 2567 
C 576 2567 634 2528 634 2223 
L 634 -789 
C 634 -1031 608 -1063 198 -1063 
L 198 -1228 
C 352 -1216 634 -1216 800 -1216 
C 966 -1216 1254 -1216 1408 -1228 
L 1408 -1063 
z
M 973 2012 
C 973 2102 973 2235 1222 2471 
C 1254 2497 1472 2688 1792 2688 
C 2259 2688 2643 2108 2643 1382 
C 2643 656 2234 64 1728 64 
C 1498 64 1248 172 1056 472 
C 973 612 973 650 973 752 
L 973 2012 
z
" transform="scale(0.015625)"/>
       <path id="CMR17-69" d="M 992 3909 
C 992 4049 877 4170 730 4170 
C 589 4170 467 4056 467 3909 
C 467 3769 582 3648 730 3648 
C 870 3648 992 3763 992 3909 
z
M 243 2706 
L 243 2541 
C 602 2541 653 2502 653 2197 
L 653 427 
C 653 184 627 153 218 153 
L 218 -13 
C 371 0 646 0 806 0 
C 960 0 1222 0 1370 -13 
L 1370 153 
C 992 153 979 191 979 420 
L 979 2776 
L 243 2706 
z
" transform="scale(0.015625)"/>
       <path id="CMR17-65" d="M 2438 1472 
C 2464 1498 2464 1511 2464 1576 
C 2464 2238 2118 2816 1389 2816 
C 710 2816 173 2169 173 1383 
C 173 551 781 -64 1459 -64 
C 2176 -64 2458 607 2458 740 
C 2458 784 2419 784 2406 784 
C 2362 784 2355 771 2330 696 
C 2189 265 1837 51 1504 51 
C 1229 51 954 203 781 480 
C 582 803 582 1176 582 1472 
L 2438 1472 
z
M 589 1568 
C 634 2505 1126 2714 1382 2714 
C 1818 2714 2112 2297 2118 1568 
L 589 1568 
z
" transform="scale(0.015625)"/>
       <path id="CMR17-63" d="M 2234 2240 
C 2112 2240 1933 2240 1933 2017 
C 1933 1838 2080 1787 2163 1787 
C 2208 1787 2394 1807 2394 2024 
C 2394 2467 1958 2803 1466 2803 
C 787 2803 211 2178 211 1363 
C 211 516 813 -64 1466 -64 
C 2259 -64 2458 677 2458 748 
C 2458 774 2451 793 2406 793 
C 2362 793 2355 787 2330 703 
C 2163 180 1798 51 1523 51 
C 1114 51 621 427 621 1369 
C 621 2338 1094 2688 1472 2688 
C 1722 2688 2093 2573 2234 2240 
z
" transform="scale(0.015625)"/>
       <path id="CMR17-54" d="M 3981 4326 
L 288 4326 
L 179 2918 
L 294 2918 
C 378 3976 467 4160 1453 4160 
C 1568 4160 1754 4160 1805 4154 
C 1926 4135 1926 4058 1926 3912 
L 1926 459 
C 1926 230 1907 160 1376 160 
L 1197 160 
L 1197 0 
C 1504 0 1824 0 2138 0 
C 2451 0 2771 0 3078 0 
L 3078 160 
L 2899 160 
C 2368 160 2349 230 2349 459 
L 2349 3912 
C 2349 4052 2349 4129 2464 4154 
C 2515 4160 2701 4160 2816 4160 
C 3795 4160 3891 3976 3974 2918 
L 4090 2918 
L 3981 4326 
z
" transform="scale(0.015625)"/>
       <path id="CMR17-6d" d="M 4326 1933 
C 4326 2252 4269 2790 3507 2790 
C 3072 2790 2771 2496 2656 2151 
L 2650 2151 
C 2573 2676 2195 2790 1837 2790 
C 1331 2790 1069 2400 973 2144 
L 966 2144 
L 966 2790 
L 211 2720 
L 211 2554 
C 589 2554 646 2515 646 2208 
L 646 428 
C 646 184 621 153 211 153 
L 211 -13 
C 365 0 646 0 813 0 
C 979 0 1267 0 1421 -13 
L 1421 153 
C 1011 153 986 178 986 428 
L 986 1658 
C 986 2247 1344 2688 1792 2688 
C 2266 2688 2317 2266 2317 1958 
L 2317 428 
C 2317 184 2291 153 1882 153 
L 1882 -13 
C 2035 0 2317 0 2483 0 
C 2650 0 2938 0 3091 -13 
L 3091 153 
C 2682 153 2656 178 2656 428 
L 2656 1658 
C 2656 2247 3014 2688 3462 2688 
C 3936 2688 3987 2266 3987 1958 
L 3987 428 
C 3987 184 3962 153 3552 153 
L 3552 -13 
C 3706 0 3987 0 4154 0 
C 4320 0 4608 0 4762 -13 
L 4762 153 
C 4352 153 4326 178 4326 428 
L 4326 1933 
z
" transform="scale(0.015625)"/>
       <path id="CMR17-74" d="M 966 2560 
L 1862 2560 
L 1862 2725 
L 966 2725 
L 966 3904 
L 851 3904 
C 838 3245 614 2668 70 2668 
L 70 2560 
L 627 2560 
L 627 771 
C 627 650 627 -64 1370 -64 
C 1747 -64 1965 306 1965 777 
L 1965 1140 
L 1850 1140 
L 1850 783 
C 1850 344 1677 51 1408 51 
C 1222 51 966 178 966 758 
L 966 2560 
z
" transform="scale(0.015625)"/>
       <path id="CMR17-75" d="M 1882 2693 
L 1882 2528 
C 2259 2528 2317 2489 2317 2186 
L 2317 1032 
C 2317 500 2029 38 1555 38 
C 1030 38 986 348 986 678 
L 986 2763 
L 211 2693 
L 211 2528 
C 467 2528 640 2528 646 2274 
L 646 1058 
C 646 633 646 361 813 183 
C 896 101 1056 -64 1517 -64 
C 2061 -64 2272 377 2323 506 
L 2330 506 
L 2330 -63 
L 3091 -63 
L 3091 128 
C 2714 128 2656 166 2656 473 
L 2656 2763 
L 1882 2693 
z
" transform="scale(0.015625)"/>
       <path id="CMMI12-54" d="M 2669 3910 
C 2707 4064 2720 4121 2816 4147 
C 2867 4160 3078 4160 3213 4160 
C 3853 4160 4154 4134 4154 3634 
C 4154 3537 4128 3295 4090 3057 
L 4083 2980 
C 4083 2954 4109 2916 4147 2916 
C 4211 2916 4211 2948 4230 3050 
L 4416 4184 
C 4429 4243 4429 4256 4429 4275 
C 4429 4345 4390 4345 4262 4345 
L 762 4345 
C 614 4345 608 4339 570 4224 
L 179 3070 
C 173 3056 154 2986 154 2980 
C 154 2948 179 2916 218 2916 
C 269 2916 282 2941 307 3024 
C 576 3801 710 4160 1562 4160 
L 1990 4160 
C 2144 4160 2208 4160 2208 4089 
C 2208 4069 2208 4057 2176 3941 
L 1318 499 
C 1254 249 1242 185 563 185 
C 403 185 358 185 358 64 
C 358 0 429 0 461 0 
C 621 0 787 0 947 0 
L 1946 0 
C 2106 0 2278 0 2438 0 
C 2509 0 2573 0 2573 121 
C 2573 185 2528 185 2362 185 
C 1786 185 1786 243 1786 339 
C 1786 346 1786 391 1811 494 
L 2669 3910 
z
" transform="scale(0.015625)"/>
       <path id="CMR17-6e" d="M 2656 1933 
C 2656 2259 2592 2790 1837 2790 
C 1331 2790 1069 2400 973 2144 
L 966 2144 
L 966 2790 
L 211 2720 
L 211 2554 
C 589 2554 646 2515 646 2208 
L 646 428 
C 646 184 621 153 211 153 
L 211 -13 
C 365 0 646 0 813 0 
C 979 0 1267 0 1421 -13 
L 1421 153 
C 1011 153 986 178 986 428 
L 986 1658 
C 986 2247 1344 2688 1792 2688 
C 2266 2688 2317 2266 2317 1958 
L 2317 428 
C 2317 184 2291 153 1882 153 
L 1882 -13 
C 2035 0 2317 0 2483 0 
C 2650 0 2938 0 3091 -13 
L 3091 153 
C 2682 153 2656 178 2656 428 
L 2656 1933 
z
" transform="scale(0.015625)"/>
       <path id="CMR17-4b" d="M 2362 2675 
L 3469 3782 
C 3699 4006 3942 4186 4301 4186 
L 4301 4352 
C 4173 4352 4013 4352 3885 4352 
C 3712 4352 3411 4352 3245 4358 
L 3245 4192 
C 3411 4180 3437 4065 3437 4019 
C 3437 3975 3411 3905 3386 3867 
L 1261 1738 
L 1261 3900 
C 1261 4186 1331 4186 1773 4186 
L 1773 4352 
C 1587 4352 1248 4352 1050 4352 
C 851 4352 512 4352 326 4352 
L 326 4186 
C 768 4186 838 4186 838 3899 
L 838 446 
C 838 160 768 160 326 160 
L 326 0 
C 512 0 851 0 1050 0 
C 1248 0 1587 0 1773 0 
L 1773 160 
C 1331 160 1261 160 1261 447 
L 1261 1579 
L 2080 2390 
L 3290 537 
C 3328 473 3373 390 3373 326 
C 3373 160 3194 160 3110 160 
L 3110 0 
C 3315 0 3610 0 3821 0 
C 3974 0 4237 0 4384 -6 
L 4384 160 
C 4077 160 3981 198 3789 493 
L 2362 2675 
z
" transform="scale(0.015625)"/>
      </defs>
      <use xlink:href="#CMR17-57" transform="scale(0.996264)"/>
      <use xlink:href="#CMR17-6f" transform="translate(87.289395 0) scale(0.996264)"/>
      <use xlink:href="#CMR17-72" transform="translate(132.979872 0) scale(0.996264)"/>
      <use xlink:href="#CMR17-6b" transform="translate(168.260639 0) scale(0.996264)"/>
      <use xlink:href="#CMR17-70" transform="translate(216.553555 0) scale(0.996264)"/>
      <use xlink:href="#CMR17-69" transform="translate(267.448925 0) scale(0.996264)"/>
      <use xlink:href="#CMR17-65" transform="translate(292.319984 0) scale(0.996264)"/>
      <use xlink:href="#CMR17-63" transform="translate(332.805644 0) scale(0.996264)"/>
      <use xlink:href="#CMR17-65" transform="translate(373.291304 0) scale(0.996264)"/>
      <use xlink:href="#CMR17-54" transform="translate(443.852931 0) scale(0.996264)"/>
      <use xlink:href="#CMR17-65" transform="translate(502.555556 0) scale(0.996264)"/>
      <use xlink:href="#CMR17-6d" transform="translate(543.041217 0) scale(0.996264)"/>
      <use xlink:href="#CMR17-70" transform="translate(619.960807 0) scale(0.996264)"/>
      <use xlink:href="#CMR17-65" transform="translate(673.458615 0) scale(0.996264)"/>
      <use xlink:href="#CMR17-72" transform="translate(713.944276 0) scale(0.996264)"/>
      <use xlink:href="#CMR17-61" transform="translate(749.225044 0) scale(0.996264)"/>
      <use xlink:href="#CMR17-74" transform="translate(794.915521 0) scale(0.996264)"/>
      <use xlink:href="#CMR17-75" transform="translate(830.196288 0) scale(0.996264)"/>
      <use xlink:href="#CMR17-72" transform="translate(881.091658 0) scale(0.996264)"/>
      <use xlink:href="#CMR17-65" transform="translate(916.372426 0) scale(0.996264)"/>
      <use xlink:href="#CMMI12-54" transform="translate(986.934053 0) scale(0.996264)"/>
      <use xlink:href="#CMR17-69" transform="translate(1087.733651 0) scale(0.996264)"/>
      <use xlink:href="#CMR17-6e" transform="translate(1112.60471 0) scale(0.996264)"/>
      <use xlink:href="#CMR17-4b" transform="translate(1193.576046 0) scale(0.996264)"/>
     </g>
    </g>
   </g>
   <g id="line2d_39">
    <path d="M 60.910819 118.954205 
L 67.797353 118.954205 
L 67.797353 111.063605 
L 60.910819 111.063605 
L 60.910819 118.954205 
" clip-path="url(#p29142071d3)" style="fill: none; stroke: #000000; stroke-linecap: square"/>
   </g>
   <g id="line2d_40">
    <path d="M 64.354086 118.954205 
L 64.354086 128.884949 
" clip-path="url(#p29142071d3)" style="fill: none; stroke: #000000; stroke-linecap: square"/>
   </g>
   <g id="line2d_41">
    <path d="M 64.354086 111.063605 
L 64.354086 102.274912 
" clip-path="url(#p29142071d3)" style="fill: none; stroke: #000000; stroke-linecap: square"/>
   </g>
   <g id="line2d_42">
    <path d="M 62.632453 128.884949 
L 66.07572 128.884949 
" clip-path="url(#p29142071d3)" style="fill: none; stroke: #000000; stroke-linecap: square"/>
   </g>
   <g id="line2d_43">
    <path d="M 62.632453 102.274912 
L 66.07572 102.274912 
" clip-path="url(#p29142071d3)" style="fill: none; stroke: #000000; stroke-linecap: square"/>
   </g>
   <g id="line2d_44">
    <defs>
     <path id="m3a489ac577" d="M -2 0 
L 2 0 
M 0 2 
L 0 -2 
" style="stroke: #000000"/>
    </defs>
    <g clip-path="url(#p29142071d3)">
     <use xlink:href="#m3a489ac577" x="64.354086" y="132.174066" style="fill-opacity: 0; stroke: #000000"/>
    </g>
   </g>
   <g id="line2d_45">
    <path d="M 88.456956 128.576144 
L 95.34349 128.576144 
L 95.34349 121.06637 
L 88.456956 121.06637 
L 88.456956 128.576144 
" clip-path="url(#p29142071d3)" style="fill: none; stroke: #000000; stroke-linecap: square"/>
   </g>
   <g id="line2d_46">
    <path d="M 91.900223 128.576144 
L 91.900223 137.582003 
" clip-path="url(#p29142071d3)" style="fill: none; stroke: #000000; stroke-linecap: square"/>
   </g>
   <g id="line2d_47">
    <path d="M 91.900223 121.06637 
L 91.900223 113.431608 
" clip-path="url(#p29142071d3)" style="fill: none; stroke: #000000; stroke-linecap: square"/>
   </g>
   <g id="line2d_48">
    <path d="M 90.178589 137.582003 
L 93.621856 137.582003 
" clip-path="url(#p29142071d3)" style="fill: none; stroke: #000000; stroke-linecap: square"/>
   </g>
   <g id="line2d_49">
    <path d="M 90.178589 113.431608 
L 93.621856 113.431608 
" clip-path="url(#p29142071d3)" style="fill: none; stroke: #000000; stroke-linecap: square"/>
   </g>
   <g id="line2d_50">
    <g clip-path="url(#p29142071d3)">
     <use xlink:href="#m3a489ac577" x="91.900223" y="140.4386" style="fill-opacity: 0; stroke: #000000"/>
    </g>
   </g>
   <g id="line2d_51">
    <path d="M 116.003092 136.91872 
L 122.889627 136.91872 
L 122.889627 130.018291 
L 116.003092 130.018291 
L 116.003092 136.91872 
" clip-path="url(#p29142071d3)" style="fill: none; stroke: #000000; stroke-linecap: square"/>
   </g>
   <g id="line2d_52">
    <path d="M 119.446359 136.91872 
L 119.446359 145.241053 
" clip-path="url(#p29142071d3)" style="fill: none; stroke: #000000; stroke-linecap: square"/>
   </g>
   <g id="line2d_53">
    <path d="M 119.446359 130.018291 
L 119.446359 123.115613 
" clip-path="url(#p29142071d3)" style="fill: none; stroke: #000000; stroke-linecap: square"/>
   </g>
   <g id="line2d_54">
    <path d="M 117.724726 145.241053 
L 121.167993 145.241053 
" clip-path="url(#p29142071d3)" style="fill: none; stroke: #000000; stroke-linecap: square"/>
   </g>
   <g id="line2d_55">
    <path d="M 117.724726 123.115613 
L 121.167993 123.115613 
" clip-path="url(#p29142071d3)" style="fill: none; stroke: #000000; stroke-linecap: square"/>
   </g>
   <g id="line2d_56">
    <g clip-path="url(#p29142071d3)">
     <use xlink:href="#m3a489ac577" x="119.446359" y="147.77523" style="fill-opacity: 0; stroke: #000000"/>
    </g>
   </g>
   <g id="line2d_57">
    <path d="M 143.549229 147.754687 
L 150.435763 147.754687 
L 150.435763 141.717901 
L 143.549229 141.717901 
L 143.549229 147.754687 
" clip-path="url(#p29142071d3)" style="fill: none; stroke: #000000; stroke-linecap: square"/>
   </g>
   <g id="line2d_58">
    <path d="M 146.992496 147.754687 
L 146.992496 155.14315 
" clip-path="url(#p29142071d3)" style="fill: none; stroke: #000000; stroke-linecap: square"/>
   </g>
   <g id="line2d_59">
    <path d="M 146.992496 141.717901 
L 146.992496 135.680515 
" clip-path="url(#p29142071d3)" style="fill: none; stroke: #000000; stroke-linecap: square"/>
   </g>
   <g id="line2d_60">
    <path d="M 145.270863 155.14315 
L 148.71413 155.14315 
" clip-path="url(#p29142071d3)" style="fill: none; stroke: #000000; stroke-linecap: square"/>
   </g>
   <g id="line2d_61">
    <path d="M 145.270863 135.680515 
L 148.71413 135.680515 
" clip-path="url(#p29142071d3)" style="fill: none; stroke: #000000; stroke-linecap: square"/>
   </g>
   <g id="line2d_62">
    <g clip-path="url(#p29142071d3)">
     <use xlink:href="#m3a489ac577" x="146.992496" y="157.347048" style="fill-opacity: 0; stroke: #000000"/>
    </g>
   </g>
   <g id="line2d_63">
    <path d="M 171.095366 157.070487 
L 177.9819 157.070487 
L 177.9819 151.702585 
L 171.095366 151.702585 
L 171.095366 157.070487 
" clip-path="url(#p29142071d3)" style="fill: none; stroke: #000000; stroke-linecap: square"/>
   </g>
   <g id="line2d_64">
    <path d="M 174.538633 157.070487 
L 174.538633 163.668949 
" clip-path="url(#p29142071d3)" style="fill: none; stroke: #000000; stroke-linecap: square"/>
   </g>
   <g id="line2d_65">
    <path d="M 174.538633 151.702585 
L 174.538633 146.337488 
" clip-path="url(#p29142071d3)" style="fill: none; stroke: #000000; stroke-linecap: square"/>
   </g>
   <g id="line2d_66">
    <path d="M 172.816999 163.668949 
L 176.260266 163.668949 
" clip-path="url(#p29142071d3)" style="fill: none; stroke: #000000; stroke-linecap: square"/>
   </g>
   <g id="line2d_67">
    <path d="M 172.816999 146.337488 
L 176.260266 146.337488 
" clip-path="url(#p29142071d3)" style="fill: none; stroke: #000000; stroke-linecap: square"/>
   </g>
   <g id="line2d_68">
    <g clip-path="url(#p29142071d3)">
     <use xlink:href="#m3a489ac577" x="174.538633" y="165.626645" style="fill-opacity: 0; stroke: #000000"/>
    </g>
   </g>
   <g id="line2d_69">
    <path d="M 198.641503 171.467061 
L 205.528037 171.467061 
L 205.528037 166.857904 
L 198.641503 166.857904 
L 198.641503 171.467061 
" clip-path="url(#p29142071d3)" style="fill: none; stroke: #000000; stroke-linecap: square"/>
   </g>
   <g id="line2d_70">
    <path d="M 202.08477 171.467061 
L 202.08477 177.149246 
" clip-path="url(#p29142071d3)" style="fill: none; stroke: #000000; stroke-linecap: square"/>
   </g>
   <g id="line2d_71">
    <path d="M 202.08477 166.857904 
L 202.08477 162.25581 
" clip-path="url(#p29142071d3)" style="fill: none; stroke: #000000; stroke-linecap: square"/>
   </g>
   <g id="line2d_72">
    <path d="M 200.363136 177.149246 
L 203.806403 177.149246 
" clip-path="url(#p29142071d3)" style="fill: none; stroke: #000000; stroke-linecap: square"/>
   </g>
   <g id="line2d_73">
    <path d="M 200.363136 162.25581 
L 203.806403 162.25581 
" clip-path="url(#p29142071d3)" style="fill: none; stroke: #000000; stroke-linecap: square"/>
   </g>
   <g id="line2d_74">
    <g clip-path="url(#p29142071d3)">
     <use xlink:href="#m3a489ac577" x="202.08477" y="178.83111" style="fill-opacity: 0; stroke: #000000"/>
    </g>
   </g>
   <g id="line2d_75">
    <path d="M 226.187639 183.863784 
L 233.074173 183.863784 
L 233.074173 179.815728 
L 226.187639 179.815728 
L 226.187639 183.863784 
" clip-path="url(#p29142071d3)" style="fill: none; stroke: #000000; stroke-linecap: square"/>
   </g>
   <g id="line2d_76">
    <path d="M 229.630906 183.863784 
L 229.630906 188.86321 
" clip-path="url(#p29142071d3)" style="fill: none; stroke: #000000; stroke-linecap: square"/>
   </g>
   <g id="line2d_77">
    <path d="M 229.630906 179.815728 
L 229.630906 175.777283 
" clip-path="url(#p29142071d3)" style="fill: none; stroke: #000000; stroke-linecap: square"/>
   </g>
   <g id="line2d_78">
    <path d="M 227.909273 188.86321 
L 231.35254 188.86321 
" clip-path="url(#p29142071d3)" style="fill: none; stroke: #000000; stroke-linecap: square"/>
   </g>
   <g id="line2d_79">
    <path d="M 227.909273 175.777283 
L 231.35254 175.777283 
" clip-path="url(#p29142071d3)" style="fill: none; stroke: #000000; stroke-linecap: square"/>
   </g>
   <g id="line2d_80">
    <g clip-path="url(#p29142071d3)">
     <use xlink:href="#m3a489ac577" x="229.630906" y="190.341581" style="fill-opacity: 0; stroke: #000000"/>
    </g>
   </g>
   <g id="line2d_81">
    <path d="M 253.733776 199.740864 
L 260.62031 199.740864 
L 260.62031 196.473719 
L 253.733776 196.473719 
L 253.733776 199.740864 
" clip-path="url(#p29142071d3)" style="fill: none; stroke: #000000; stroke-linecap: square"/>
   </g>
   <g id="line2d_82">
    <path d="M 257.177043 199.740864 
L 257.177043 203.781708 
" clip-path="url(#p29142071d3)" style="fill: none; stroke: #000000; stroke-linecap: square"/>
   </g>
   <g id="line2d_83">
    <path d="M 257.177043 196.473719 
L 257.177043 193.216891 
" clip-path="url(#p29142071d3)" style="fill: none; stroke: #000000; stroke-linecap: square"/>
   </g>
   <g id="line2d_84">
    <path d="M 255.455409 203.781708 
L 258.898677 203.781708 
" clip-path="url(#p29142071d3)" style="fill: none; stroke: #000000; stroke-linecap: square"/>
   </g>
   <g id="line2d_85">
    <path d="M 255.455409 193.216891 
L 258.898677 193.216891 
" clip-path="url(#p29142071d3)" style="fill: none; stroke: #000000; stroke-linecap: square"/>
   </g>
   <g id="line2d_86">
    <g clip-path="url(#p29142071d3)">
     <use xlink:href="#m3a489ac577" x="257.177043" y="204.975744" style="fill-opacity: 0; stroke: #000000"/>
    </g>
   </g>
   <g id="line2d_87">
    <path d="M 281.279913 212.239083 
L 288.166447 212.239083 
L 288.166447 209.472879 
L 281.279913 209.472879 
L 281.279913 212.239083 
" clip-path="url(#p29142071d3)" style="fill: none; stroke: #000000; stroke-linecap: square"/>
   </g>
   <g id="line2d_88">
    <path d="M 284.72318 212.239083 
L 284.72318 215.663792 
" clip-path="url(#p29142071d3)" style="fill: none; stroke: #000000; stroke-linecap: square"/>
   </g>
   <g id="line2d_89">
    <path d="M 284.72318 209.472879 
L 284.72318 206.717121 
" clip-path="url(#p29142071d3)" style="fill: none; stroke: #000000; stroke-linecap: square"/>
   </g>
   <g id="line2d_90">
    <path d="M 283.001546 215.663792 
L 286.444813 215.663792 
" clip-path="url(#p29142071d3)" style="fill: none; stroke: #000000; stroke-linecap: square"/>
   </g>
   <g id="line2d_91">
    <path d="M 283.001546 206.717121 
L 286.444813 206.717121 
" clip-path="url(#p29142071d3)" style="fill: none; stroke: #000000; stroke-linecap: square"/>
   </g>
   <g id="line2d_92">
    <g clip-path="url(#p29142071d3)">
     <use xlink:href="#m3a489ac577" x="284.72318" y="216.675417" style="fill-opacity: 0; stroke: #000000"/>
    </g>
   </g>
   <g id="line2d_93">
    <path d="M 308.826049 229.995071 
L 315.712584 229.995071 
L 315.712584 227.697942 
L 308.826049 227.697942 
L 308.826049 229.995071 
" clip-path="url(#p29142071d3)" style="fill: none; stroke: #000000; stroke-linecap: square"/>
   </g>
   <g id="line2d_94">
    <path d="M 312.269316 229.995071 
L 312.269316 232.842617 
" clip-path="url(#p29142071d3)" style="fill: none; stroke: #000000; stroke-linecap: square"/>
   </g>
   <g id="line2d_95">
    <path d="M 312.269316 227.697942 
L 312.269316 225.41149 
" clip-path="url(#p29142071d3)" style="fill: none; stroke: #000000; stroke-linecap: square"/>
   </g>
   <g id="line2d_96">
    <path d="M 310.547683 232.842617 
L 313.99095 232.842617 
" clip-path="url(#p29142071d3)" style="fill: none; stroke: #000000; stroke-linecap: square"/>
   </g>
   <g id="line2d_97">
    <path d="M 310.547683 225.41149 
L 313.99095 225.41149 
" clip-path="url(#p29142071d3)" style="fill: none; stroke: #000000; stroke-linecap: square"/>
   </g>
   <g id="line2d_98">
    <g clip-path="url(#p29142071d3)">
     <use xlink:href="#m3a489ac577" x="312.269316" y="233.683627" style="fill-opacity: 0; stroke: #000000"/>
    </g>
   </g>
   <g id="line2d_99">
    <path d="M 336.372186 244.182431 
L 343.25872 244.182431 
L 343.25872 242.244032 
L 336.372186 242.244032 
L 336.372186 244.182431 
" clip-path="url(#p29142071d3)" style="fill: none; stroke: #000000; stroke-linecap: square"/>
   </g>
   <g id="line2d_100">
    <path d="M 339.815453 244.182431 
L 339.815453 246.587543 
" clip-path="url(#p29142071d3)" style="fill: none; stroke: #000000; stroke-linecap: square"/>
   </g>
   <g id="line2d_101">
    <path d="M 339.815453 242.244032 
L 339.815453 240.315865 
" clip-path="url(#p29142071d3)" style="fill: none; stroke: #000000; stroke-linecap: square"/>
   </g>
   <g id="line2d_102">
    <path d="M 338.09382 246.587543 
L 341.537087 246.587543 
" clip-path="url(#p29142071d3)" style="fill: none; stroke: #000000; stroke-linecap: square"/>
   </g>
   <g id="line2d_103">
    <path d="M 338.09382 240.315865 
L 341.537087 240.315865 
" clip-path="url(#p29142071d3)" style="fill: none; stroke: #000000; stroke-linecap: square"/>
   </g>
   <g id="line2d_104">
    <g clip-path="url(#p29142071d3)">
     <use xlink:href="#m3a489ac577" x="339.815453" y="247.297726" style="fill-opacity: 0; stroke: #000000"/>
    </g>
   </g>
   <g id="line2d_105">
    <path d="M 363.918323 238.99124 
L 370.804857 238.99124 
L 370.804857 237.131817 
L 363.918323 237.131817 
L 363.918323 238.99124 
" clip-path="url(#p29142071d3)" style="fill: none; stroke: #000000; stroke-linecap: square"/>
   </g>
   <g id="line2d_106">
    <path d="M 367.36159 238.99124 
L 367.36159 241.297764 
" clip-path="url(#p29142071d3)" style="fill: none; stroke: #000000; stroke-linecap: square"/>
   </g>
   <g id="line2d_107">
    <path d="M 367.36159 237.131817 
L 367.36159 235.281738 
" clip-path="url(#p29142071d3)" style="fill: none; stroke: #000000; stroke-linecap: square"/>
   </g>
   <g id="line2d_108">
    <path d="M 365.639956 241.297764 
L 369.083223 241.297764 
" clip-path="url(#p29142071d3)" style="fill: none; stroke: #000000; stroke-linecap: square"/>
   </g>
   <g id="line2d_109">
    <path d="M 365.639956 235.281738 
L 369.083223 235.281738 
" clip-path="url(#p29142071d3)" style="fill: none; stroke: #000000; stroke-linecap: square"/>
   </g>
   <g id="line2d_110">
    <g clip-path="url(#p29142071d3)">
     <use xlink:href="#m3a489ac577" x="367.36159" y="241.978647" style="fill-opacity: 0; stroke: #000000"/>
    </g>
   </g>
   <g id="line2d_111">
    <path d="M 391.464459 233.504404 
L 398.350994 233.504404 
L 398.350994 231.717303 
L 391.464459 231.717303 
L 391.464459 233.504404 
" clip-path="url(#p29142071d3)" style="fill: none; stroke: #000000; stroke-linecap: square"/>
   </g>
   <g id="line2d_112">
    <path d="M 394.907727 233.504404 
L 394.907727 235.720928 
" clip-path="url(#p29142071d3)" style="fill: none; stroke: #000000; stroke-linecap: square"/>
   </g>
   <g id="line2d_113">
    <path d="M 394.907727 231.717303 
L 394.907727 229.945037 
" clip-path="url(#p29142071d3)" style="fill: none; stroke: #000000; stroke-linecap: square"/>
   </g>
   <g id="line2d_114">
    <path d="M 393.186093 235.720928 
L 396.62936 235.720928 
" clip-path="url(#p29142071d3)" style="fill: none; stroke: #000000; stroke-linecap: square"/>
   </g>
   <g id="line2d_115">
    <path d="M 393.186093 229.945037 
L 396.62936 229.945037 
" clip-path="url(#p29142071d3)" style="fill: none; stroke: #000000; stroke-linecap: square"/>
   </g>
   <g id="line2d_116">
    <g clip-path="url(#p29142071d3)">
     <use xlink:href="#m3a489ac577" x="394.907727" y="236.374915" style="fill-opacity: 0; stroke: #000000"/>
    </g>
   </g>
   <g id="line2d_117">
    <path d="M 419.010596 224.845945 
L 425.89713 224.845945 
L 425.89713 223.155816 
L 419.010596 223.155816 
L 419.010596 224.845945 
" clip-path="url(#p29142071d3)" style="fill: none; stroke: #000000; stroke-linecap: square"/>
   </g>
   <g id="line2d_118">
    <path d="M 422.453863 224.845945 
L 422.453863 226.941335 
" clip-path="url(#p29142071d3)" style="fill: none; stroke: #000000; stroke-linecap: square"/>
   </g>
   <g id="line2d_119">
    <path d="M 422.453863 223.155816 
L 422.453863 221.479103 
" clip-path="url(#p29142071d3)" style="fill: none; stroke: #000000; stroke-linecap: square"/>
   </g>
   <g id="line2d_120">
    <path d="M 420.73223 226.941335 
L 424.175497 226.941335 
" clip-path="url(#p29142071d3)" style="fill: none; stroke: #000000; stroke-linecap: square"/>
   </g>
   <g id="line2d_121">
    <path d="M 420.73223 221.479103 
L 424.175497 221.479103 
" clip-path="url(#p29142071d3)" style="fill: none; stroke: #000000; stroke-linecap: square"/>
   </g>
   <g id="line2d_122">
    <g clip-path="url(#p29142071d3)">
     <use xlink:href="#m3a489ac577" x="422.453863" y="227.559372" style="fill-opacity: 0; stroke: #000000"/>
    </g>
   </g>
   <g id="line2d_123">
    <path d="M 74.683887 116.652144 
L 81.570422 116.652144 
L 81.570422 108.706344 
L 74.683887 108.706344 
L 74.683887 116.652144 
" clip-path="url(#p29142071d3)" style="fill: none; stroke: #000000; stroke-linecap: square"/>
   </g>
   <g id="line2d_124">
    <path d="M 78.127154 116.652144 
L 78.127154 126.150457 
" clip-path="url(#p29142071d3)" style="fill: none; stroke: #000000; stroke-linecap: square"/>
   </g>
   <g id="line2d_125">
    <path d="M 78.127154 108.706344 
L 78.127154 100.527227 
" clip-path="url(#p29142071d3)" style="fill: none; stroke: #000000; stroke-linecap: square"/>
   </g>
   <g id="line2d_126">
    <path d="M 76.405521 126.150457 
L 79.848788 126.150457 
" clip-path="url(#p29142071d3)" style="fill: none; stroke: #000000; stroke-linecap: square"/>
   </g>
   <g id="line2d_127">
    <path d="M 76.405521 100.527227 
L 79.848788 100.527227 
" clip-path="url(#p29142071d3)" style="fill: none; stroke: #000000; stroke-linecap: square"/>
   </g>
   <g id="line2d_128">
    <g clip-path="url(#p29142071d3)">
     <use xlink:href="#m3a489ac577" x="78.127154" y="129.192431" style="fill-opacity: 0; stroke: #000000"/>
    </g>
   </g>
   <g id="line2d_129">
    <path d="M 102.230024 124.650659 
L 109.116558 124.650659 
L 109.116558 117.335906 
L 102.230024 117.335906 
L 102.230024 124.650659 
" clip-path="url(#p29142071d3)" style="fill: none; stroke: #000000; stroke-linecap: square"/>
   </g>
   <g id="line2d_130">
    <path d="M 105.673291 124.650659 
L 105.673291 133.491606 
" clip-path="url(#p29142071d3)" style="fill: none; stroke: #000000; stroke-linecap: square"/>
   </g>
   <g id="line2d_131">
    <path d="M 105.673291 117.335906 
L 105.673291 110.004097 
" clip-path="url(#p29142071d3)" style="fill: none; stroke: #000000; stroke-linecap: square"/>
   </g>
   <g id="line2d_132">
    <path d="M 103.951658 133.491606 
L 107.394925 133.491606 
" clip-path="url(#p29142071d3)" style="fill: none; stroke: #000000; stroke-linecap: square"/>
   </g>
   <g id="line2d_133">
    <path d="M 103.951658 110.004097 
L 107.394925 110.004097 
" clip-path="url(#p29142071d3)" style="fill: none; stroke: #000000; stroke-linecap: square"/>
   </g>
   <g id="line2d_134">
    <g clip-path="url(#p29142071d3)">
     <use xlink:href="#m3a489ac577" x="105.673291" y="136.168814" style="fill-opacity: 0; stroke: #000000"/>
    </g>
   </g>
   <g id="line2d_135">
    <path d="M 129.776161 130.214466 
L 136.662695 130.214466 
L 136.662695 123.631979 
L 129.776161 123.631979 
L 129.776161 130.214466 
" clip-path="url(#p29142071d3)" style="fill: none; stroke: #000000; stroke-linecap: square"/>
   </g>
   <g id="line2d_136">
    <path d="M 133.219428 130.214466 
L 133.219428 138.245363 
" clip-path="url(#p29142071d3)" style="fill: none; stroke: #000000; stroke-linecap: square"/>
   </g>
   <g id="line2d_137">
    <path d="M 133.219428 123.631979 
L 133.219428 117.034981 
" clip-path="url(#p29142071d3)" style="fill: none; stroke: #000000; stroke-linecap: square"/>
   </g>
   <g id="line2d_138">
    <path d="M 131.497794 138.245363 
L 134.941061 138.245363 
" clip-path="url(#p29142071d3)" style="fill: none; stroke: #000000; stroke-linecap: square"/>
   </g>
   <g id="line2d_139">
    <path d="M 131.497794 117.034981 
L 134.941061 117.034981 
" clip-path="url(#p29142071d3)" style="fill: none; stroke: #000000; stroke-linecap: square"/>
   </g>
   <g id="line2d_140">
    <g clip-path="url(#p29142071d3)">
     <use xlink:href="#m3a489ac577" x="133.219428" y="140.640679" style="fill-opacity: 0; stroke: #000000"/>
    </g>
   </g>
   <g id="line2d_141">
    <path d="M 157.322297 141.340014 
L 164.208832 141.340014 
L 164.208832 135.533565 
L 157.322297 135.533565 
L 157.322297 141.340014 
" clip-path="url(#p29142071d3)" style="fill: none; stroke: #000000; stroke-linecap: square"/>
   </g>
   <g id="line2d_142">
    <path d="M 160.765565 141.340014 
L 160.765565 148.456746 
" clip-path="url(#p29142071d3)" style="fill: none; stroke: #000000; stroke-linecap: square"/>
   </g>
   <g id="line2d_143">
    <path d="M 160.765565 135.533565 
L 160.765565 129.720171 
" clip-path="url(#p29142071d3)" style="fill: none; stroke: #000000; stroke-linecap: square"/>
   </g>
   <g id="line2d_144">
    <path d="M 159.043931 148.456746 
L 162.487198 148.456746 
" clip-path="url(#p29142071d3)" style="fill: none; stroke: #000000; stroke-linecap: square"/>
   </g>
   <g id="line2d_145">
    <path d="M 159.043931 129.720171 
L 162.487198 129.720171 
" clip-path="url(#p29142071d3)" style="fill: none; stroke: #000000; stroke-linecap: square"/>
   </g>
   <g id="line2d_146">
    <g clip-path="url(#p29142071d3)">
     <use xlink:href="#m3a489ac577" x="160.765565" y="150.569148" style="fill-opacity: 0; stroke: #000000"/>
    </g>
   </g>
   <g id="line2d_147">
    <path d="M 184.868434 150.120848 
L 191.754968 150.120848 
L 191.754968 144.989471 
L 184.868434 144.989471 
L 184.868434 150.120848 
" clip-path="url(#p29142071d3)" style="fill: none; stroke: #000000; stroke-linecap: square"/>
   </g>
   <g id="line2d_148">
    <path d="M 188.311701 150.120848 
L 188.311701 156.432626 
" clip-path="url(#p29142071d3)" style="fill: none; stroke: #000000; stroke-linecap: square"/>
   </g>
   <g id="line2d_149">
    <path d="M 188.311701 144.989471 
L 188.311701 139.85533 
" clip-path="url(#p29142071d3)" style="fill: none; stroke: #000000; stroke-linecap: square"/>
   </g>
   <g id="line2d_150">
    <path d="M 186.590068 156.432626 
L 190.033335 156.432626 
" clip-path="url(#p29142071d3)" style="fill: none; stroke: #000000; stroke-linecap: square"/>
   </g>
   <g id="line2d_151">
    <path d="M 186.590068 139.85533 
L 190.033335 139.85533 
" clip-path="url(#p29142071d3)" style="fill: none; stroke: #000000; stroke-linecap: square"/>
   </g>
   <g id="line2d_152">
    <g clip-path="url(#p29142071d3)">
     <use xlink:href="#m3a489ac577" x="188.311701" y="158.298162" style="fill-opacity: 0; stroke: #000000"/>
    </g>
   </g>
   <g id="line2d_153">
    <path d="M 212.414571 165.63764 
L 219.301105 165.63764 
L 219.301105 161.194165 
L 212.414571 161.194165 
L 212.414571 165.63764 
" clip-path="url(#p29142071d3)" style="fill: none; stroke: #000000; stroke-linecap: square"/>
   </g>
   <g id="line2d_154">
    <path d="M 215.857838 165.63764 
L 215.857838 171.114199 
" clip-path="url(#p29142071d3)" style="fill: none; stroke: #000000; stroke-linecap: square"/>
   </g>
   <g id="line2d_155">
    <path d="M 215.857838 161.194165 
L 215.857838 156.754121 
" clip-path="url(#p29142071d3)" style="fill: none; stroke: #000000; stroke-linecap: square"/>
   </g>
   <g id="line2d_156">
    <path d="M 214.136204 171.114199 
L 217.579472 171.114199 
" clip-path="url(#p29142071d3)" style="fill: none; stroke: #000000; stroke-linecap: square"/>
   </g>
   <g id="line2d_157">
    <path d="M 214.136204 156.754121 
L 217.579472 156.754121 
" clip-path="url(#p29142071d3)" style="fill: none; stroke: #000000; stroke-linecap: square"/>
   </g>
   <g id="line2d_158">
    <g clip-path="url(#p29142071d3)">
     <use xlink:href="#m3a489ac577" x="215.857838" y="172.732656" style="fill-opacity: 0; stroke: #000000"/>
    </g>
   </g>
   <g id="line2d_159">
    <path d="M 239.960708 172.163461 
L 246.847242 172.163461 
L 246.847242 168.395553 
L 239.960708 168.395553 
L 239.960708 172.163461 
" clip-path="url(#p29142071d3)" style="fill: none; stroke: #000000; stroke-linecap: square"/>
   </g>
   <g id="line2d_160">
    <path d="M 243.403975 172.163461 
L 243.403975 176.812175 
" clip-path="url(#p29142071d3)" style="fill: none; stroke: #000000; stroke-linecap: square"/>
   </g>
   <g id="line2d_161">
    <path d="M 243.403975 168.395553 
L 243.403975 164.63172 
" clip-path="url(#p29142071d3)" style="fill: none; stroke: #000000; stroke-linecap: square"/>
   </g>
   <g id="line2d_162">
    <path d="M 241.682341 176.812175 
L 245.125608 176.812175 
" clip-path="url(#p29142071d3)" style="fill: none; stroke: #000000; stroke-linecap: square"/>
   </g>
   <g id="line2d_163">
    <path d="M 241.682341 164.63172 
L 245.125608 164.63172 
" clip-path="url(#p29142071d3)" style="fill: none; stroke: #000000; stroke-linecap: square"/>
   </g>
   <g id="line2d_164">
    <g clip-path="url(#p29142071d3)">
     <use xlink:href="#m3a489ac577" x="243.403975" y="178.184393" style="fill-opacity: 0; stroke: #000000"/>
    </g>
   </g>
   <g id="line2d_165">
    <path d="M 267.506844 190.820952 
L 274.393378 190.820952 
L 274.393378 187.724415 
L 267.506844 187.724415 
L 267.506844 190.820952 
" clip-path="url(#p29142071d3)" style="fill: none; stroke: #000000; stroke-linecap: square"/>
   </g>
   <g id="line2d_166">
    <path d="M 270.950111 190.820952 
L 270.950111 194.64785 
" clip-path="url(#p29142071d3)" style="fill: none; stroke: #000000; stroke-linecap: square"/>
   </g>
   <g id="line2d_167">
    <path d="M 270.950111 187.724415 
L 270.950111 184.635211 
" clip-path="url(#p29142071d3)" style="fill: none; stroke: #000000; stroke-linecap: square"/>
   </g>
   <g id="line2d_168">
    <path d="M 269.228478 194.64785 
L 272.671745 194.64785 
" clip-path="url(#p29142071d3)" style="fill: none; stroke: #000000; stroke-linecap: square"/>
   </g>
   <g id="line2d_169">
    <path d="M 269.228478 184.635211 
L 272.671745 184.635211 
" clip-path="url(#p29142071d3)" style="fill: none; stroke: #000000; stroke-linecap: square"/>
   </g>
   <g id="line2d_170">
    <g clip-path="url(#p29142071d3)">
     <use xlink:href="#m3a489ac577" x="270.950111" y="195.777692" style="fill-opacity: 0; stroke: #000000"/>
    </g>
   </g>
   <g id="line2d_171">
    <path d="M 295.052981 204.510059 
L 301.939515 204.510059 
L 301.939515 201.876645 
L 295.052981 201.876645 
L 295.052981 204.510059 
" clip-path="url(#p29142071d3)" style="fill: none; stroke: #000000; stroke-linecap: square"/>
   </g>
   <g id="line2d_172">
    <path d="M 298.496248 204.510059 
L 298.496248 207.768381 
" clip-path="url(#p29142071d3)" style="fill: none; stroke: #000000; stroke-linecap: square"/>
   </g>
   <g id="line2d_173">
    <path d="M 298.496248 201.876645 
L 298.496248 199.251571 
" clip-path="url(#p29142071d3)" style="fill: none; stroke: #000000; stroke-linecap: square"/>
   </g>
   <g id="line2d_174">
    <path d="M 296.774615 207.768381 
L 300.217882 207.768381 
" clip-path="url(#p29142071d3)" style="fill: none; stroke: #000000; stroke-linecap: square"/>
   </g>
   <g id="line2d_175">
    <path d="M 296.774615 199.251571 
L 300.217882 199.251571 
" clip-path="url(#p29142071d3)" style="fill: none; stroke: #000000; stroke-linecap: square"/>
   </g>
   <g id="line2d_176">
    <g clip-path="url(#p29142071d3)">
     <use xlink:href="#m3a489ac577" x="298.496248" y="208.730245" style="fill-opacity: 0; stroke: #000000"/>
    </g>
   </g>
   <g id="line2d_177">
    <path d="M 322.599118 221.980544 
L 329.485652 221.980544 
L 329.485652 219.792355 
L 322.599118 219.792355 
L 322.599118 221.980544 
" clip-path="url(#p29142071d3)" style="fill: none; stroke: #000000; stroke-linecap: square"/>
   </g>
   <g id="line2d_178">
    <path d="M 326.042385 221.980544 
L 326.042385 224.691583 
" clip-path="url(#p29142071d3)" style="fill: none; stroke: #000000; stroke-linecap: square"/>
   </g>
   <g id="line2d_179">
    <path d="M 326.042385 219.792355 
L 326.042385 217.613226 
" clip-path="url(#p29142071d3)" style="fill: none; stroke: #000000; stroke-linecap: square"/>
   </g>
   <g id="line2d_180">
    <path d="M 324.320751 224.691583 
L 327.764018 224.691583 
" clip-path="url(#p29142071d3)" style="fill: none; stroke: #000000; stroke-linecap: square"/>
   </g>
   <g id="line2d_181">
    <path d="M 324.320751 217.613226 
L 327.764018 217.613226 
" clip-path="url(#p29142071d3)" style="fill: none; stroke: #000000; stroke-linecap: square"/>
   </g>
   <g id="line2d_182">
    <g clip-path="url(#p29142071d3)">
     <use xlink:href="#m3a489ac577" x="326.042385" y="225.491898" style="fill-opacity: 0; stroke: #000000"/>
    </g>
   </g>
   <g id="line2d_183">
    <path d="M 350.145254 237.718594 
L 357.031789 237.718594 
L 357.031789 235.846133 
L 350.145254 235.846133 
L 350.145254 237.718594 
" clip-path="url(#p29142071d3)" style="fill: none; stroke: #000000; stroke-linecap: square"/>
   </g>
   <g id="line2d_184">
    <path d="M 353.588522 237.718594 
L 353.588522 240.041104 
" clip-path="url(#p29142071d3)" style="fill: none; stroke: #000000; stroke-linecap: square"/>
   </g>
   <g id="line2d_185">
    <path d="M 353.588522 235.846133 
L 353.588522 233.98297 
" clip-path="url(#p29142071d3)" style="fill: none; stroke: #000000; stroke-linecap: square"/>
   </g>
   <g id="line2d_186">
    <path d="M 351.866888 240.041104 
L 355.310155 240.041104 
" clip-path="url(#p29142071d3)" style="fill: none; stroke: #000000; stroke-linecap: square"/>
   </g>
   <g id="line2d_187">
    <path d="M 351.866888 233.98297 
L 355.310155 233.98297 
" clip-path="url(#p29142071d3)" style="fill: none; stroke: #000000; stroke-linecap: square"/>
   </g>
   <g id="line2d_188">
    <g clip-path="url(#p29142071d3)">
     <use xlink:href="#m3a489ac577" x="353.588522" y="240.7267" style="fill-opacity: 0; stroke: #000000"/>
    </g>
   </g>
   <g id="line2d_189">
    <path d="M 377.691391 232.447184 
L 384.577925 232.447184 
L 384.577925 230.649756 
L 377.691391 230.649756 
L 377.691391 232.447184 
" clip-path="url(#p29142071d3)" style="fill: none; stroke: #000000; stroke-linecap: square"/>
   </g>
   <g id="line2d_190">
    <path d="M 381.134658 232.447184 
L 381.134658 234.676373 
" clip-path="url(#p29142071d3)" style="fill: none; stroke: #000000; stroke-linecap: square"/>
   </g>
   <g id="line2d_191">
    <path d="M 381.134658 230.649756 
L 381.134658 228.867152 
" clip-path="url(#p29142071d3)" style="fill: none; stroke: #000000; stroke-linecap: square"/>
   </g>
   <g id="line2d_192">
    <path d="M 379.413025 234.676373 
L 382.856292 234.676373 
" clip-path="url(#p29142071d3)" style="fill: none; stroke: #000000; stroke-linecap: square"/>
   </g>
   <g id="line2d_193">
    <path d="M 379.413025 228.867152 
L 382.856292 228.867152 
" clip-path="url(#p29142071d3)" style="fill: none; stroke: #000000; stroke-linecap: square"/>
   </g>
   <g id="line2d_194">
    <g clip-path="url(#p29142071d3)">
     <use xlink:href="#m3a489ac577" x="381.134658" y="235.334094" style="fill-opacity: 0; stroke: #000000"/>
    </g>
   </g>
   <g id="line2d_195">
    <path d="M 405.237528 223.750943 
L 412.124062 223.750943 
L 412.124062 222.050811 
L 405.237528 222.050811 
L 405.237528 223.750943 
" clip-path="url(#p29142071d3)" style="fill: none; stroke: #000000; stroke-linecap: square"/>
   </g>
   <g id="line2d_196">
    <path d="M 408.680795 223.750943 
L 408.680795 225.858603 
" clip-path="url(#p29142071d3)" style="fill: none; stroke: #000000; stroke-linecap: square"/>
   </g>
   <g id="line2d_197">
    <path d="M 408.680795 222.050811 
L 408.680795 220.364086 
" clip-path="url(#p29142071d3)" style="fill: none; stroke: #000000; stroke-linecap: square"/>
   </g>
   <g id="line2d_198">
    <path d="M 406.959161 225.858603 
L 410.402428 225.858603 
" clip-path="url(#p29142071d3)" style="fill: none; stroke: #000000; stroke-linecap: square"/>
   </g>
   <g id="line2d_199">
    <path d="M 406.959161 220.364086 
L 410.402428 220.364086 
" clip-path="url(#p29142071d3)" style="fill: none; stroke: #000000; stroke-linecap: square"/>
   </g>
   <g id="line2d_200">
    <g clip-path="url(#p29142071d3)">
     <use xlink:href="#m3a489ac577" x="408.680795" y="226.480257" style="fill-opacity: 0; stroke: #000000"/>
    </g>
   </g>
   <g id="line2d_201">
    <path d="M 432.783665 219.65971 
L 439.670199 219.65971 
L 439.670199 218.013249 
L 432.783665 218.013249 
L 432.783665 219.65971 
" clip-path="url(#p29142071d3)" style="fill: none; stroke: #000000; stroke-linecap: square"/>
   </g>
   <g id="line2d_202">
    <path d="M 436.226932 219.65971 
L 436.226932 221.70048 
" clip-path="url(#p29142071d3)" style="fill: none; stroke: #000000; stroke-linecap: square"/>
   </g>
   <g id="line2d_203">
    <path d="M 436.226932 218.013249 
L 436.226932 216.379518 
" clip-path="url(#p29142071d3)" style="fill: none; stroke: #000000; stroke-linecap: square"/>
   </g>
   <g id="line2d_204">
    <path d="M 434.505298 221.70048 
L 437.948565 221.70048 
" clip-path="url(#p29142071d3)" style="fill: none; stroke: #000000; stroke-linecap: square"/>
   </g>
   <g id="line2d_205">
    <path d="M 434.505298 216.379518 
L 437.948565 216.379518 
" clip-path="url(#p29142071d3)" style="fill: none; stroke: #000000; stroke-linecap: square"/>
   </g>
   <g id="line2d_206">
    <g clip-path="url(#p29142071d3)">
     <use xlink:href="#m3a489ac577" x="436.226932" y="222.302303" style="fill-opacity: 0; stroke: #000000"/>
    </g>
   </g>
   <g id="line2d_207">
    <path d="M 64.354086 115.182423 
L 78.127154 112.746699 
L 91.900223 124.91712 
L 105.673291 121.169774 
L 119.446359 133.625892 
L 133.219428 127.116837 
L 146.992496 144.918645 
L 160.765565 138.619648 
L 174.538633 154.560074 
L 188.311701 147.725069 
L 202.08477 169.316215 
L 215.857838 163.565077 
L 229.630906 181.977085 
L 243.403975 170.407526 
L 257.177043 198.219379 
L 270.950111 189.378768 
L 284.72318 210.95148 
L 298.496248 203.28414 
L 312.269316 228.926307 
L 326.042385 220.962341 
L 339.815453 243.280864 
L 353.588522 236.847624 
L 367.36159 238.126356 
L 381.134658 231.611285 
L 394.907727 232.673324 
L 408.680795 222.9602 
L 422.453863 224.05987 
L 436.226932 218.893892 
" clip-path="url(#p29142071d3)" style="fill: none; stroke: #ff7f0e; stroke-opacity: 0.5; stroke-width: 1.5; stroke-linecap: square"/>
   </g>
   <g id="line2d_208">
    <path d="M 64.354086 115.243594 
L 78.127154 112.812202 
L 91.900223 124.962889 
L 105.673291 121.20914 
L 119.446359 133.657342 
L 133.219428 127.147862 
L 146.992496 144.943287 
L 160.765565 138.644568 
L 174.538633 154.580262 
L 188.311701 147.745627 
L 202.08477 169.331851 
L 215.857838 163.581029 
L 229.630906 181.989643 
L 243.403975 170.420538 
L 257.177043 198.228566 
L 270.950111 189.388151 
L 284.72318 210.958621 
L 298.496248 203.291382 
L 312.269316 228.931509 
L 326.042385 220.967608 
L 339.815453 243.284781 
L 353.588522 236.851572 
L 367.36159 238.130237 
L 381.134658 231.614926 
L 394.907727 232.676914 
L 408.680795 222.963815 
L 422.453863 224.063435 
L 436.226932 218.897461 
" clip-path="url(#p29142071d3)" style="fill: none; stroke: #1f77b4; stroke-opacity: 0.5; stroke-width: 1.5; stroke-linecap: square"/>
   </g>
   <g id="line2d_209">
    <path d="M 60.910819 115.243594 
L 67.797353 115.243594 
" clip-path="url(#p29142071d3)" style="fill: none; stroke: #ff7f0e; stroke-linecap: square"/>
   </g>
   <g id="line2d_210">
    <path d="M 88.456956 124.940714 
L 95.34349 124.940714 
" clip-path="url(#p29142071d3)" style="fill: none; stroke: #ff7f0e; stroke-linecap: square"/>
   </g>
   <g id="line2d_211">
    <path d="M 116.003092 133.657342 
L 122.889627 133.657342 
" clip-path="url(#p29142071d3)" style="fill: none; stroke: #ff7f0e; stroke-linecap: square"/>
   </g>
   <g id="line2d_212">
    <path d="M 143.549229 144.943287 
L 150.435763 144.943287 
" clip-path="url(#p29142071d3)" style="fill: none; stroke: #ff7f0e; stroke-linecap: square"/>
   </g>
   <g id="line2d_213">
    <path d="M 171.095366 154.580262 
L 177.9819 154.580262 
" clip-path="url(#p29142071d3)" style="fill: none; stroke: #ff7f0e; stroke-linecap: square"/>
   </g>
   <g id="line2d_214">
    <path d="M 198.641503 169.331851 
L 205.528037 169.331851 
" clip-path="url(#p29142071d3)" style="fill: none; stroke: #ff7f0e; stroke-linecap: square"/>
   </g>
   <g id="line2d_215">
    <path d="M 226.187639 181.990701 
L 233.074173 181.990701 
" clip-path="url(#p29142071d3)" style="fill: none; stroke: #ff7f0e; stroke-linecap: square"/>
   </g>
   <g id="line2d_216">
    <path d="M 253.733776 198.230253 
L 260.62031 198.230253 
" clip-path="url(#p29142071d3)" style="fill: none; stroke: #ff7f0e; stroke-linecap: square"/>
   </g>
   <g id="line2d_217">
    <path d="M 281.279913 210.960379 
L 288.166447 210.960379 
" clip-path="url(#p29142071d3)" style="fill: none; stroke: #ff7f0e; stroke-linecap: square"/>
   </g>
   <g id="line2d_218">
    <path d="M 308.826049 228.933157 
L 315.712584 228.933157 
" clip-path="url(#p29142071d3)" style="fill: none; stroke: #ff7f0e; stroke-linecap: square"/>
   </g>
   <g id="line2d_219">
    <path d="M 336.372186 243.286278 
L 343.25872 243.286278 
" clip-path="url(#p29142071d3)" style="fill: none; stroke: #ff7f0e; stroke-linecap: square"/>
   </g>
   <g id="line2d_220">
    <path d="M 363.918323 238.131697 
L 370.804857 238.131697 
" clip-path="url(#p29142071d3)" style="fill: none; stroke: #ff7f0e; stroke-linecap: square"/>
   </g>
   <g id="line2d_221">
    <path d="M 391.464459 232.678353 
L 398.350994 232.678353 
" clip-path="url(#p29142071d3)" style="fill: none; stroke: #ff7f0e; stroke-linecap: square"/>
   </g>
   <g id="line2d_222">
    <path d="M 419.010596 224.064801 
L 425.89713 224.064801 
" clip-path="url(#p29142071d3)" style="fill: none; stroke: #ff7f0e; stroke-linecap: square"/>
   </g>
   <g id="line2d_223">
    <path d="M 74.683887 112.707049 
L 81.570422 112.707049 
" clip-path="url(#p29142071d3)" style="fill: none; stroke: #ff7f0e; stroke-linecap: square"/>
   </g>
   <g id="line2d_224">
    <path d="M 102.230024 121.20914 
L 109.116558 121.20914 
" clip-path="url(#p29142071d3)" style="fill: none; stroke: #ff7f0e; stroke-linecap: square"/>
   </g>
   <g id="line2d_225">
    <path d="M 129.776161 127.147862 
L 136.662695 127.147862 
" clip-path="url(#p29142071d3)" style="fill: none; stroke: #ff7f0e; stroke-linecap: square"/>
   </g>
   <g id="line2d_226">
    <path d="M 157.322297 138.644568 
L 164.208832 138.644568 
" clip-path="url(#p29142071d3)" style="fill: none; stroke: #ff7f0e; stroke-linecap: square"/>
   </g>
   <g id="line2d_227">
    <path d="M 184.868434 147.745627 
L 191.754968 147.745627 
" clip-path="url(#p29142071d3)" style="fill: none; stroke: #ff7f0e; stroke-linecap: square"/>
   </g>
   <g id="line2d_228">
    <path d="M 212.414571 163.581719 
L 219.301105 163.581719 
" clip-path="url(#p29142071d3)" style="fill: none; stroke: #ff7f0e; stroke-linecap: square"/>
   </g>
   <g id="line2d_229">
    <path d="M 239.960708 170.422422 
L 246.847242 170.422422 
" clip-path="url(#p29142071d3)" style="fill: none; stroke: #ff7f0e; stroke-linecap: square"/>
   </g>
   <g id="line2d_230">
    <path d="M 267.506844 189.389968 
L 274.393378 189.389968 
" clip-path="url(#p29142071d3)" style="fill: none; stroke: #ff7f0e; stroke-linecap: square"/>
   </g>
   <g id="line2d_231">
    <path d="M 295.052981 203.293173 
L 301.939515 203.293173 
" clip-path="url(#p29142071d3)" style="fill: none; stroke: #ff7f0e; stroke-linecap: square"/>
   </g>
   <g id="line2d_232">
    <path d="M 322.599118 220.969223 
L 329.485652 220.969223 
" clip-path="url(#p29142071d3)" style="fill: none; stroke: #ff7f0e; stroke-linecap: square"/>
   </g>
   <g id="line2d_233">
    <path d="M 350.145254 236.853038 
L 357.031789 236.853038 
" clip-path="url(#p29142071d3)" style="fill: none; stroke: #ff7f0e; stroke-linecap: square"/>
   </g>
   <g id="line2d_234">
    <path d="M 377.691391 231.616371 
L 384.577925 231.616371 
" clip-path="url(#p29142071d3)" style="fill: none; stroke: #ff7f0e; stroke-linecap: square"/>
   </g>
   <g id="line2d_235">
    <path d="M 405.237528 222.965186 
L 412.124062 222.965186 
" clip-path="url(#p29142071d3)" style="fill: none; stroke: #ff7f0e; stroke-linecap: square"/>
   </g>
   <g id="line2d_236">
    <path d="M 432.783665 218.898792 
L 439.670199 218.898792 
" clip-path="url(#p29142071d3)" style="fill: none; stroke: #ff7f0e; stroke-linecap: square"/>
   </g>
   <g id="patch_3">
    <path d="M 50.581018 306.088647 
L 50.581018 10.8 
" style="fill: none; stroke: #000000; stroke-width: 0.8; stroke-linejoin: miter; stroke-linecap: square"/>
   </g>
   <g id="patch_4">
    <path d="M 450 306.088647 
L 450 10.8 
" style="fill: none; stroke: #000000; stroke-width: 0.8; stroke-linejoin: miter; stroke-linecap: square"/>
   </g>
   <g id="patch_5">
    <path d="M 50.581018 306.088647 
L 450 306.088647 
" style="fill: none; stroke: #000000; stroke-width: 0.8; stroke-linejoin: miter; stroke-linecap: square"/>
   </g>
   <g id="patch_6">
    <path d="M 50.581018 10.8 
L 450 10.8 
" style="fill: none; stroke: #000000; stroke-width: 0.8; stroke-linejoin: miter; stroke-linecap: square"/>
   </g>
   <g id="legend_1">
    <g id="patch_7">
     <path d="M 354.793979 60.611535 
L 443 60.611535 
Q 445 60.611535 445 58.611535 
L 445 17.8 
Q 445 15.8 443 15.8 
L 354.793979 15.8 
Q 352.793979 15.8 352.793979 17.8 
L 352.793979 58.611535 
Q 352.793979 60.611535 354.793979 60.611535 
z
" style="fill: #ffffff; opacity: 0.8; stroke: #cccccc; stroke-linejoin: miter"/>
    </g>
    <g id="line2d_237">
     <path d="M 356.793979 23.3 
L 366.793979 23.3 
L 376.793979 23.3 
" style="fill: none; stroke: #ff7f0e; stroke-opacity: 0.5; stroke-width: 1.5; stroke-linecap: square"/>
    </g>
    <g id="text_22">
     <!-- mean -->
     <g transform="translate(384.793979 26.8) scale(0.1 -0.1)">
      <use xlink:href="#CMR17-6d" transform="scale(0.996264)"/>
      <use xlink:href="#CMR17-65" transform="translate(76.91959 0) scale(0.996264)"/>
      <use xlink:href="#CMR17-61" transform="translate(117.40525 0) scale(0.996264)"/>
      <use xlink:href="#CMR17-6e" transform="translate(163.095727 0) scale(0.996264)"/>
     </g>
    </g>
    <g id="line2d_238">
     <path d="M 356.793979 37.237178 
L 366.793979 37.237178 
L 376.793979 37.237178 
" style="fill: none; stroke: #1f77b4; stroke-opacity: 0.5; stroke-width: 1.5; stroke-linecap: square"/>
    </g>
    <g id="text_23">
     <!-- nominal -->
     <g transform="translate(384.793979 40.737178) scale(0.1 -0.1)">
      <use xlink:href="#CMR17-6e" transform="scale(0.996264)"/>
      <use xlink:href="#CMR17-6f" transform="translate(50.89537 0) scale(0.996264)"/>
      <use xlink:href="#CMR17-6d" transform="translate(96.585847 0) scale(0.996264)"/>
      <use xlink:href="#CMR17-69" transform="translate(173.505437 0) scale(0.996264)"/>
      <use xlink:href="#CMR17-6e" transform="translate(198.376495 0) scale(0.996264)"/>
      <use xlink:href="#CMR17-61" transform="translate(249.271865 0) scale(0.996264)"/>
      <use xlink:href="#CMR17-6c" transform="translate(294.962342 0) scale(0.996264)"/>
     </g>
    </g>
    <g id="PathCollection_9">
     <g>
      <use xlink:href="#m13dcb6747f" x="366.793979" y="52.049357" style="fill: #ff0000; stroke: #ff0000"/>
     </g>
    </g>
    <g id="text_24">
     <!-- experimental -->
     <g transform="translate(384.793979 54.674357) scale(0.1 -0.1)">
      <defs>
       <path id="CMR17-78" d="M 1664 1477 
C 1856 1726 2074 2006 2253 2216 
C 2464 2458 2707 2560 2989 2560 
L 2989 2726 
C 2880 2726 2656 2726 2541 2726 
C 2368 2726 2170 2726 2022 2732 
L 2022 2566 
C 2112 2553 2163 2489 2163 2400 
C 2163 2285 2099 2215 2067 2171 
L 1594 1573 
L 1030 2306 
C 973 2376 973 2388 973 2420 
C 973 2497 1037 2560 1146 2560 
L 1146 2732 
C 992 2726 717 2726 557 2726 
C 384 2726 179 2726 38 2732 
L 38 2560 
C 384 2560 461 2534 614 2343 
L 1350 1395 
C 1363 1382 1395 1344 1395 1325 
C 1395 1299 838 619 768 530 
C 480 185 179 160 6 160 
L 6 0 
C 115 0 339 0 454 0 
C 582 0 864 0 979 -6 
L 979 160 
C 941 166 838 179 838 325 
C 838 440 890 510 947 586 
L 1478 1236 
L 2035 512 
C 2086 442 2163 346 2163 301 
C 2163 211 2086 160 1984 160 
L 1984 -6 
C 2138 0 2413 0 2573 0 
C 2746 0 2950 0 3091 -6 
L 3091 160 
C 2771 160 2675 172 2522 370 
L 1664 1477 
z
" transform="scale(0.015625)"/>
      </defs>
      <use xlink:href="#CMR17-65" transform="scale(0.996264)"/>
      <use xlink:href="#CMR17-78" transform="translate(40.48566 0) scale(0.996264)"/>
      <use xlink:href="#CMR17-70" transform="translate(88.778576 0) scale(0.996264)"/>
      <use xlink:href="#CMR17-65" transform="translate(142.276385 0) scale(0.996264)"/>
      <use xlink:href="#CMR17-72" transform="translate(182.762045 0) scale(0.996264)"/>
      <use xlink:href="#CMR17-69" transform="translate(218.042813 0) scale(0.996264)"/>
      <use xlink:href="#CMR17-6d" transform="translate(242.913872 0) scale(0.996264)"/>
      <use xlink:href="#CMR17-65" transform="translate(319.833461 0) scale(0.996264)"/>
      <use xlink:href="#CMR17-6e" transform="translate(360.319122 0) scale(0.996264)"/>
      <use xlink:href="#CMR17-74" transform="translate(408.612038 0) scale(0.996264)"/>
      <use xlink:href="#CMR17-61" transform="translate(443.892806 0) scale(0.996264)"/>
      <use xlink:href="#CMR17-6c" transform="translate(489.583283 0) scale(0.996264)"/>
     </g>
    </g>
   </g>
  </g>
 </g>
 <defs>
  <clipPath id="p29142071d3">
   <rect x="50.581018" y="10.8" width="399.418982" height="295.288647"/>
  </clipPath>
 </defs>
</svg>
