<?xml version="1.0" encoding="utf-8" standalone="no"?>
<!DOCTYPE svg PUBLIC "-//W3C//DTD SVG 1.1//EN"
  "http://www.w3.org/Graphics/SVG/1.1/DTD/svg11.dtd">
<svg xmlns:xlink="http://www.w3.org/1999/xlink" width="460.8pt" height="324pt" viewBox="0 0 460.8 324" xmlns="http://www.w3.org/2000/svg" version="1.1">
 <metadata>
  <rdf:RDF xmlns:dc="http://purl.org/dc/elements/1.1/" xmlns:cc="http://creativecommons.org/ns#" xmlns:rdf="http://www.w3.org/1999/02/22-rdf-syntax-ns#">
   <cc:Work>
    <dc:type rdf:resource="http://purl.org/dc/dcmitype/StillImage"/>
    <dc:date>2023-04-13T10:17:48.873036</dc:date>
    <dc:format>image/svg+xml</dc:format>
    <dc:creator>
     <cc:Agent>
      <dc:title>Matplotlib v3.7.1, https://matplotlib.org/</dc:title>
     </cc:Agent>
    </dc:creator>
   </cc:Work>
  </rdf:RDF>
 </metadata>
 <defs>
  <style type="text/css">*{stroke-linejoin: round; stroke-linecap: butt}</style>
 </defs>
 <g id="figure_1">
  <g id="patch_1">
   <path d="M 0 324 
L 460.8 324 
L 460.8 0 
L 0 0 
z
" style="fill: #ffffff"/>
  </g>
  <g id="axes_1">
   <g id="patch_2">
    <path d="M 53.795 138.44 
L 450 138.44 
L 450 10.8 
L 53.795 10.8 
z
" style="fill: #ffffff"/>
   </g>
   <g id="patch_3">
    <path d="M 71.804318 138.44 
L 89.813636 138.44 
L 89.813636 75.922449 
L 71.804318 75.922449 
z
" clip-path="url(#p76b993c89a)" style="fill: #1f77b4; opacity: 0.5"/>
   </g>
   <g id="patch_4">
    <path d="M 89.813636 138.44 
L 107.822955 138.44 
L 107.822955 65.502857 
L 89.813636 65.502857 
z
" clip-path="url(#p76b993c89a)" style="fill: #1f77b4; opacity: 0.5"/>
   </g>
   <g id="patch_5">
    <path d="M 107.822955 138.44 
L 125.832273 138.44 
L 125.832273 16.878095 
L 107.822955 16.878095 
z
" clip-path="url(#p76b993c89a)" style="fill: #1f77b4; opacity: 0.5"/>
   </g>
   <g id="patch_6">
    <path d="M 125.832273 138.44 
L 143.841591 138.44 
L 143.841591 79.395646 
L 125.832273 79.395646 
z
" clip-path="url(#p76b993c89a)" style="fill: #1f77b4; opacity: 0.5"/>
   </g>
   <g id="patch_7">
    <path d="M 143.841591 138.44 
L 161.850909 138.44 
L 161.850909 82.868844 
L 143.841591 82.868844 
z
" clip-path="url(#p76b993c89a)" style="fill: #1f77b4; opacity: 0.5"/>
   </g>
   <g id="patch_8">
    <path d="M 161.850909 138.44 
L 179.860227 138.44 
L 179.860227 75.922449 
L 161.850909 75.922449 
z
" clip-path="url(#p76b993c89a)" style="fill: #1f77b4; opacity: 0.5"/>
   </g>
   <g id="patch_9">
    <path d="M 179.860227 138.44 
L 197.869545 138.44 
L 197.869545 121.074014 
L 179.860227 121.074014 
z
" clip-path="url(#p76b993c89a)" style="fill: #1f77b4; opacity: 0.5"/>
   </g>
   <g id="patch_10">
    <path d="M 197.869545 138.44 
L 215.878864 138.44 
L 215.878864 107.181224 
L 197.869545 107.181224 
z
" clip-path="url(#p76b993c89a)" style="fill: #1f77b4; opacity: 0.5"/>
   </g>
   <g id="patch_11">
    <path d="M 215.878864 138.44 
L 233.888182 138.44 
L 233.888182 121.074014 
L 215.878864 121.074014 
z
" clip-path="url(#p76b993c89a)" style="fill: #1f77b4; opacity: 0.5"/>
   </g>
   <g id="patch_12">
    <path d="M 233.888182 138.44 
L 251.8975 138.44 
L 251.8975 131.493605 
L 233.888182 131.493605 
z
" clip-path="url(#p76b993c89a)" style="fill: #1f77b4; opacity: 0.5"/>
   </g>
   <g id="patch_13">
    <path d="M 251.8975 138.44 
L 269.906818 138.44 
L 269.906818 134.966803 
L 251.8975 134.966803 
z
" clip-path="url(#p76b993c89a)" style="fill: #1f77b4; opacity: 0.5"/>
   </g>
   <g id="patch_14">
    <path d="M 269.906818 138.44 
L 287.916136 138.44 
L 287.916136 128.020408 
L 269.906818 128.020408 
z
" clip-path="url(#p76b993c89a)" style="fill: #1f77b4; opacity: 0.5"/>
   </g>
   <g id="patch_15">
    <path d="M 287.916136 138.44 
L 305.925455 138.44 
L 305.925455 131.493605 
L 287.916136 131.493605 
z
" clip-path="url(#p76b993c89a)" style="fill: #1f77b4; opacity: 0.5"/>
   </g>
   <g id="patch_16">
    <path d="M 305.925455 138.44 
L 323.934773 138.44 
L 323.934773 134.966803 
L 305.925455 134.966803 
z
" clip-path="url(#p76b993c89a)" style="fill: #1f77b4; opacity: 0.5"/>
   </g>
   <g id="patch_17">
    <path d="M 323.934773 138.44 
L 341.944091 138.44 
L 341.944091 131.493605 
L 323.934773 131.493605 
z
" clip-path="url(#p76b993c89a)" style="fill: #1f77b4; opacity: 0.5"/>
   </g>
   <g id="patch_18">
    <path d="M 341.944091 138.44 
L 359.953409 138.44 
L 359.953409 134.966803 
L 341.944091 134.966803 
z
" clip-path="url(#p76b993c89a)" style="fill: #1f77b4; opacity: 0.5"/>
   </g>
   <g id="patch_19">
    <path d="M 359.953409 138.44 
L 377.962727 138.44 
L 377.962727 134.966803 
L 359.953409 134.966803 
z
" clip-path="url(#p76b993c89a)" style="fill: #1f77b4; opacity: 0.5"/>
   </g>
   <g id="patch_20">
    <path d="M 377.962727 138.44 
L 395.972045 138.44 
L 395.972045 138.44 
L 377.962727 138.44 
z
" clip-path="url(#p76b993c89a)" style="fill: #1f77b4; opacity: 0.5"/>
   </g>
   <g id="patch_21">
    <path d="M 395.972045 138.44 
L 413.981364 138.44 
L 413.981364 138.44 
L 395.972045 138.44 
z
" clip-path="url(#p76b993c89a)" style="fill: #1f77b4; opacity: 0.5"/>
   </g>
   <g id="patch_22">
    <path d="M 413.981364 138.44 
L 431.990682 138.44 
L 431.990682 134.966803 
L 413.981364 134.966803 
z
" clip-path="url(#p76b993c89a)" style="fill: #1f77b4; opacity: 0.5"/>
   </g>
   <g id="matplotlib.axis_1">
    <g id="xtick_1">
     <g id="line2d_1">
      <path d="M 65.28842 138.44 
L 65.28842 10.8 
" clip-path="url(#p76b993c89a)" style="fill: none; stroke: #b0b0b0; stroke-width: 0.8; stroke-linecap: square"/>
     </g>
     <g id="line2d_2">
      <defs>
       <path id="m9fe6030c7b" d="M 0 0 
L 0 3.5 
" style="stroke: #000000; stroke-width: 0.8"/>
      </defs>
      <g>
       <use xlink:href="#m9fe6030c7b" x="65.28842" y="138.44" style="stroke: #000000; stroke-width: 0.8"/>
      </g>
     </g>
    </g>
    <g id="xtick_2">
     <g id="line2d_3">
      <path d="M 138.592221 138.44 
L 138.592221 10.8 
" clip-path="url(#p76b993c89a)" style="fill: none; stroke: #b0b0b0; stroke-width: 0.8; stroke-linecap: square"/>
     </g>
     <g id="line2d_4">
      <g>
       <use xlink:href="#m9fe6030c7b" x="138.592221" y="138.44" style="stroke: #000000; stroke-width: 0.8"/>
      </g>
     </g>
    </g>
    <g id="xtick_3">
     <g id="line2d_5">
      <path d="M 211.896021 138.44 
L 211.896021 10.8 
" clip-path="url(#p76b993c89a)" style="fill: none; stroke: #b0b0b0; stroke-width: 0.8; stroke-linecap: square"/>
     </g>
     <g id="line2d_6">
      <g>
       <use xlink:href="#m9fe6030c7b" x="211.896021" y="138.44" style="stroke: #000000; stroke-width: 0.8"/>
      </g>
     </g>
    </g>
    <g id="xtick_4">
     <g id="line2d_7">
      <path d="M 285.199822 138.44 
L 285.199822 10.8 
" clip-path="url(#p76b993c89a)" style="fill: none; stroke: #b0b0b0; stroke-width: 0.8; stroke-linecap: square"/>
     </g>
     <g id="line2d_8">
      <g>
       <use xlink:href="#m9fe6030c7b" x="285.199822" y="138.44" style="stroke: #000000; stroke-width: 0.8"/>
      </g>
     </g>
    </g>
    <g id="xtick_5">
     <g id="line2d_9">
      <path d="M 358.503622 138.44 
L 358.503622 10.8 
" clip-path="url(#p76b993c89a)" style="fill: none; stroke: #b0b0b0; stroke-width: 0.8; stroke-linecap: square"/>
     </g>
     <g id="line2d_10">
      <g>
       <use xlink:href="#m9fe6030c7b" x="358.503622" y="138.44" style="stroke: #000000; stroke-width: 0.8"/>
      </g>
     </g>
    </g>
    <g id="xtick_6">
     <g id="line2d_11">
      <path d="M 431.807422 138.44 
L 431.807422 10.8 
" clip-path="url(#p76b993c89a)" style="fill: none; stroke: #b0b0b0; stroke-width: 0.8; stroke-linecap: square"/>
     </g>
     <g id="line2d_12">
      <g>
       <use xlink:href="#m9fe6030c7b" x="431.807422" y="138.44" style="stroke: #000000; stroke-width: 0.8"/>
      </g>
     </g>
    </g>
   </g>
   <g id="matplotlib.axis_2">
    <g id="ytick_1">
     <g id="line2d_13">
      <path d="M 53.795 138.44 
L 450 138.44 
" clip-path="url(#p76b993c89a)" style="fill: none; stroke: #b0b0b0; stroke-width: 0.8; stroke-linecap: square"/>
     </g>
     <g id="line2d_14">
      <defs>
       <path id="mf089ca55d2" d="M 0 0 
L -3.5 0 
" style="stroke: #000000; stroke-width: 0.8"/>
      </defs>
      <g>
       <use xlink:href="#mf089ca55d2" x="53.795" y="138.44" style="stroke: #000000; stroke-width: 0.8"/>
      </g>
     </g>
     <g id="text_1">
      <!-- 0.0 -->
      <g transform="translate(30.891875 142.239219) scale(0.1 -0.1)">
       <defs>
        <path id="DejaVuSans-30" d="M 2034 4250 
Q 1547 4250 1301 3770 
Q 1056 3291 1056 2328 
Q 1056 1369 1301 889 
Q 1547 409 2034 409 
Q 2525 409 2770 889 
Q 3016 1369 3016 2328 
Q 3016 3291 2770 3770 
Q 2525 4250 2034 4250 
z
M 2034 4750 
Q 2819 4750 3233 4129 
Q 3647 3509 3647 2328 
Q 3647 1150 3233 529 
Q 2819 -91 2034 -91 
Q 1250 -91 836 529 
Q 422 1150 422 2328 
Q 422 3509 836 4129 
Q 1250 4750 2034 4750 
z
" transform="scale(0.015625)"/>
        <path id="DejaVuSans-2e" d="M 684 794 
L 1344 794 
L 1344 0 
L 684 0 
L 684 794 
z
" transform="scale(0.015625)"/>
       </defs>
       <use xlink:href="#DejaVuSans-30"/>
       <use xlink:href="#DejaVuSans-2e" x="63.623047"/>
       <use xlink:href="#DejaVuSans-30" x="95.410156"/>
      </g>
     </g>
    </g>
    <g id="ytick_2">
     <g id="line2d_15">
      <path d="M 53.795 111.475814 
L 450 111.475814 
" clip-path="url(#p76b993c89a)" style="fill: none; stroke: #b0b0b0; stroke-width: 0.8; stroke-linecap: square"/>
     </g>
     <g id="line2d_16">
      <g>
       <use xlink:href="#mf089ca55d2" x="53.795" y="111.475814" style="stroke: #000000; stroke-width: 0.8"/>
      </g>
     </g>
     <g id="text_2">
      <!-- 0.1 -->
      <g transform="translate(30.891875 115.275033) scale(0.1 -0.1)">
       <defs>
        <path id="DejaVuSans-31" d="M 794 531 
L 1825 531 
L 1825 4091 
L 703 3866 
L 703 4441 
L 1819 4666 
L 2450 4666 
L 2450 531 
L 3481 531 
L 3481 0 
L 794 0 
L 794 531 
z
" transform="scale(0.015625)"/>
       </defs>
       <use xlink:href="#DejaVuSans-30"/>
       <use xlink:href="#DejaVuSans-2e" x="63.623047"/>
       <use xlink:href="#DejaVuSans-31" x="95.410156"/>
      </g>
     </g>
    </g>
    <g id="ytick_3">
     <g id="line2d_17">
      <path d="M 53.795 84.511628 
L 450 84.511628 
" clip-path="url(#p76b993c89a)" style="fill: none; stroke: #b0b0b0; stroke-width: 0.8; stroke-linecap: square"/>
     </g>
     <g id="line2d_18">
      <g>
       <use xlink:href="#mf089ca55d2" x="53.795" y="84.511628" style="stroke: #000000; stroke-width: 0.8"/>
      </g>
     </g>
     <g id="text_3">
      <!-- 0.2 -->
      <g transform="translate(30.891875 88.310847) scale(0.1 -0.1)">
       <defs>
        <path id="DejaVuSans-32" d="M 1228 531 
L 3431 531 
L 3431 0 
L 469 0 
L 469 531 
Q 828 903 1448 1529 
Q 2069 2156 2228 2338 
Q 2531 2678 2651 2914 
Q 2772 3150 2772 3378 
Q 2772 3750 2511 3984 
Q 2250 4219 1831 4219 
Q 1534 4219 1204 4116 
Q 875 4013 500 3803 
L 500 4441 
Q 881 4594 1212 4672 
Q 1544 4750 1819 4750 
Q 2544 4750 2975 4387 
Q 3406 4025 3406 3419 
Q 3406 3131 3298 2873 
Q 3191 2616 2906 2266 
Q 2828 2175 2409 1742 
Q 1991 1309 1228 531 
z
" transform="scale(0.015625)"/>
       </defs>
       <use xlink:href="#DejaVuSans-30"/>
       <use xlink:href="#DejaVuSans-2e" x="63.623047"/>
       <use xlink:href="#DejaVuSans-32" x="95.410156"/>
      </g>
     </g>
    </g>
    <g id="ytick_4">
     <g id="line2d_19">
      <path d="M 53.795 57.547442 
L 450 57.547442 
" clip-path="url(#p76b993c89a)" style="fill: none; stroke: #b0b0b0; stroke-width: 0.8; stroke-linecap: square"/>
     </g>
     <g id="line2d_20">
      <g>
       <use xlink:href="#mf089ca55d2" x="53.795" y="57.547442" style="stroke: #000000; stroke-width: 0.8"/>
      </g>
     </g>
     <g id="text_4">
      <!-- 0.3 -->
      <g transform="translate(30.891875 61.346661) scale(0.1 -0.1)">
       <defs>
        <path id="DejaVuSans-33" d="M 2597 2516 
Q 3050 2419 3304 2112 
Q 3559 1806 3559 1356 
Q 3559 666 3084 287 
Q 2609 -91 1734 -91 
Q 1441 -91 1130 -33 
Q 819 25 488 141 
L 488 750 
Q 750 597 1062 519 
Q 1375 441 1716 441 
Q 2309 441 2620 675 
Q 2931 909 2931 1356 
Q 2931 1769 2642 2001 
Q 2353 2234 1838 2234 
L 1294 2234 
L 1294 2753 
L 1863 2753 
Q 2328 2753 2575 2939 
Q 2822 3125 2822 3475 
Q 2822 3834 2567 4026 
Q 2313 4219 1838 4219 
Q 1578 4219 1281 4162 
Q 984 4106 628 3988 
L 628 4550 
Q 988 4650 1302 4700 
Q 1616 4750 1894 4750 
Q 2613 4750 3031 4423 
Q 3450 4097 3450 3541 
Q 3450 3153 3228 2886 
Q 3006 2619 2597 2516 
z
" transform="scale(0.015625)"/>
       </defs>
       <use xlink:href="#DejaVuSans-30"/>
       <use xlink:href="#DejaVuSans-2e" x="63.623047"/>
       <use xlink:href="#DejaVuSans-33" x="95.410156"/>
      </g>
     </g>
    </g>
    <g id="ytick_5">
     <g id="line2d_21">
      <path d="M 53.795 30.583256 
L 450 30.583256 
" clip-path="url(#p76b993c89a)" style="fill: none; stroke: #b0b0b0; stroke-width: 0.8; stroke-linecap: square"/>
     </g>
     <g id="line2d_22">
      <g>
       <use xlink:href="#mf089ca55d2" x="53.795" y="30.583256" style="stroke: #000000; stroke-width: 0.8"/>
      </g>
     </g>
     <g id="text_5">
      <!-- 0.4 -->
      <g transform="translate(30.891875 34.382475) scale(0.1 -0.1)">
       <defs>
        <path id="DejaVuSans-34" d="M 2419 4116 
L 825 1625 
L 2419 1625 
L 2419 4116 
z
M 2253 4666 
L 3047 4666 
L 3047 1625 
L 3713 1625 
L 3713 1100 
L 3047 1100 
L 3047 0 
L 2419 0 
L 2419 1100 
L 313 1100 
L 313 1709 
L 2253 4666 
z
" transform="scale(0.015625)"/>
       </defs>
       <use xlink:href="#DejaVuSans-30"/>
       <use xlink:href="#DejaVuSans-2e" x="63.623047"/>
       <use xlink:href="#DejaVuSans-34" x="95.410156"/>
      </g>
     </g>
    </g>
    <g id="text_6">
     <!-- Probability Density -->
     <g transform="translate(24.812187 121.646563) rotate(-90) scale(0.1 -0.1)">
      <defs>
       <path id="DejaVuSans-50" d="M 1259 4147 
L 1259 2394 
L 2053 2394 
Q 2494 2394 2734 2622 
Q 2975 2850 2975 3272 
Q 2975 3691 2734 3919 
Q 2494 4147 2053 4147 
L 1259 4147 
z
M 628 4666 
L 2053 4666 
Q 2838 4666 3239 4311 
Q 3641 3956 3641 3272 
Q 3641 2581 3239 2228 
Q 2838 1875 2053 1875 
L 1259 1875 
L 1259 0 
L 628 0 
L 628 4666 
z
" transform="scale(0.015625)"/>
       <path id="DejaVuSans-72" d="M 2631 2963 
Q 2534 3019 2420 3045 
Q 2306 3072 2169 3072 
Q 1681 3072 1420 2755 
Q 1159 2438 1159 1844 
L 1159 0 
L 581 0 
L 581 3500 
L 1159 3500 
L 1159 2956 
Q 1341 3275 1631 3429 
Q 1922 3584 2338 3584 
Q 2397 3584 2469 3576 
Q 2541 3569 2628 3553 
L 2631 2963 
z
" transform="scale(0.015625)"/>
       <path id="DejaVuSans-6f" d="M 1959 3097 
Q 1497 3097 1228 2736 
Q 959 2375 959 1747 
Q 959 1119 1226 758 
Q 1494 397 1959 397 
Q 2419 397 2687 759 
Q 2956 1122 2956 1747 
Q 2956 2369 2687 2733 
Q 2419 3097 1959 3097 
z
M 1959 3584 
Q 2709 3584 3137 3096 
Q 3566 2609 3566 1747 
Q 3566 888 3137 398 
Q 2709 -91 1959 -91 
Q 1206 -91 779 398 
Q 353 888 353 1747 
Q 353 2609 779 3096 
Q 1206 3584 1959 3584 
z
" transform="scale(0.015625)"/>
       <path id="DejaVuSans-62" d="M 3116 1747 
Q 3116 2381 2855 2742 
Q 2594 3103 2138 3103 
Q 1681 3103 1420 2742 
Q 1159 2381 1159 1747 
Q 1159 1113 1420 752 
Q 1681 391 2138 391 
Q 2594 391 2855 752 
Q 3116 1113 3116 1747 
z
M 1159 2969 
Q 1341 3281 1617 3432 
Q 1894 3584 2278 3584 
Q 2916 3584 3314 3078 
Q 3713 2572 3713 1747 
Q 3713 922 3314 415 
Q 2916 -91 2278 -91 
Q 1894 -91 1617 61 
Q 1341 213 1159 525 
L 1159 0 
L 581 0 
L 581 4863 
L 1159 4863 
L 1159 2969 
z
" transform="scale(0.015625)"/>
       <path id="DejaVuSans-61" d="M 2194 1759 
Q 1497 1759 1228 1600 
Q 959 1441 959 1056 
Q 959 750 1161 570 
Q 1363 391 1709 391 
Q 2188 391 2477 730 
Q 2766 1069 2766 1631 
L 2766 1759 
L 2194 1759 
z
M 3341 1997 
L 3341 0 
L 2766 0 
L 2766 531 
Q 2569 213 2275 61 
Q 1981 -91 1556 -91 
Q 1019 -91 701 211 
Q 384 513 384 1019 
Q 384 1609 779 1909 
Q 1175 2209 1959 2209 
L 2766 2209 
L 2766 2266 
Q 2766 2663 2505 2880 
Q 2244 3097 1772 3097 
Q 1472 3097 1187 3025 
Q 903 2953 641 2809 
L 641 3341 
Q 956 3463 1253 3523 
Q 1550 3584 1831 3584 
Q 2591 3584 2966 3190 
Q 3341 2797 3341 1997 
z
" transform="scale(0.015625)"/>
       <path id="DejaVuSans-69" d="M 603 3500 
L 1178 3500 
L 1178 0 
L 603 0 
L 603 3500 
z
M 603 4863 
L 1178 4863 
L 1178 4134 
L 603 4134 
L 603 4863 
z
" transform="scale(0.015625)"/>
       <path id="DejaVuSans-6c" d="M 603 4863 
L 1178 4863 
L 1178 0 
L 603 0 
L 603 4863 
z
" transform="scale(0.015625)"/>
       <path id="DejaVuSans-74" d="M 1172 4494 
L 1172 3500 
L 2356 3500 
L 2356 3053 
L 1172 3053 
L 1172 1153 
Q 1172 725 1289 603 
Q 1406 481 1766 481 
L 2356 481 
L 2356 0 
L 1766 0 
Q 1100 0 847 248 
Q 594 497 594 1153 
L 594 3053 
L 172 3053 
L 172 3500 
L 594 3500 
L 594 4494 
L 1172 4494 
z
" transform="scale(0.015625)"/>
       <path id="DejaVuSans-79" d="M 2059 -325 
Q 1816 -950 1584 -1140 
Q 1353 -1331 966 -1331 
L 506 -1331 
L 506 -850 
L 844 -850 
Q 1081 -850 1212 -737 
Q 1344 -625 1503 -206 
L 1606 56 
L 191 3500 
L 800 3500 
L 1894 763 
L 2988 3500 
L 3597 3500 
L 2059 -325 
z
" transform="scale(0.015625)"/>
       <path id="DejaVuSans-20" transform="scale(0.015625)"/>
       <path id="DejaVuSans-44" d="M 1259 4147 
L 1259 519 
L 2022 519 
Q 2988 519 3436 956 
Q 3884 1394 3884 2338 
Q 3884 3275 3436 3711 
Q 2988 4147 2022 4147 
L 1259 4147 
z
M 628 4666 
L 1925 4666 
Q 3281 4666 3915 4102 
Q 4550 3538 4550 2338 
Q 4550 1131 3912 565 
Q 3275 0 1925 0 
L 628 0 
L 628 4666 
z
" transform="scale(0.015625)"/>
       <path id="DejaVuSans-65" d="M 3597 1894 
L 3597 1613 
L 953 1613 
Q 991 1019 1311 708 
Q 1631 397 2203 397 
Q 2534 397 2845 478 
Q 3156 559 3463 722 
L 3463 178 
Q 3153 47 2828 -22 
Q 2503 -91 2169 -91 
Q 1331 -91 842 396 
Q 353 884 353 1716 
Q 353 2575 817 3079 
Q 1281 3584 2069 3584 
Q 2775 3584 3186 3129 
Q 3597 2675 3597 1894 
z
M 3022 2063 
Q 3016 2534 2758 2815 
Q 2500 3097 2075 3097 
Q 1594 3097 1305 2825 
Q 1016 2553 972 2059 
L 3022 2063 
z
" transform="scale(0.015625)"/>
       <path id="DejaVuSans-6e" d="M 3513 2113 
L 3513 0 
L 2938 0 
L 2938 2094 
Q 2938 2591 2744 2837 
Q 2550 3084 2163 3084 
Q 1697 3084 1428 2787 
Q 1159 2491 1159 1978 
L 1159 0 
L 581 0 
L 581 3500 
L 1159 3500 
L 1159 2956 
Q 1366 3272 1645 3428 
Q 1925 3584 2291 3584 
Q 2894 3584 3203 3211 
Q 3513 2838 3513 2113 
z
" transform="scale(0.015625)"/>
       <path id="DejaVuSans-73" d="M 2834 3397 
L 2834 2853 
Q 2591 2978 2328 3040 
Q 2066 3103 1784 3103 
Q 1356 3103 1142 2972 
Q 928 2841 928 2578 
Q 928 2378 1081 2264 
Q 1234 2150 1697 2047 
L 1894 2003 
Q 2506 1872 2764 1633 
Q 3022 1394 3022 966 
Q 3022 478 2636 193 
Q 2250 -91 1575 -91 
Q 1294 -91 989 -36 
Q 684 19 347 128 
L 347 722 
Q 666 556 975 473 
Q 1284 391 1588 391 
Q 1994 391 2212 530 
Q 2431 669 2431 922 
Q 2431 1156 2273 1281 
Q 2116 1406 1581 1522 
L 1381 1569 
Q 847 1681 609 1914 
Q 372 2147 372 2553 
Q 372 3047 722 3315 
Q 1072 3584 1716 3584 
Q 2034 3584 2315 3537 
Q 2597 3491 2834 3397 
z
" transform="scale(0.015625)"/>
      </defs>
      <use xlink:href="#DejaVuSans-50"/>
      <use xlink:href="#DejaVuSans-72" x="58.552734"/>
      <use xlink:href="#DejaVuSans-6f" x="97.416016"/>
      <use xlink:href="#DejaVuSans-62" x="158.597656"/>
      <use xlink:href="#DejaVuSans-61" x="222.074219"/>
      <use xlink:href="#DejaVuSans-62" x="283.353516"/>
      <use xlink:href="#DejaVuSans-69" x="346.830078"/>
      <use xlink:href="#DejaVuSans-6c" x="374.613281"/>
      <use xlink:href="#DejaVuSans-69" x="402.396484"/>
      <use xlink:href="#DejaVuSans-74" x="430.179688"/>
      <use xlink:href="#DejaVuSans-79" x="469.388672"/>
      <use xlink:href="#DejaVuSans-20" x="528.568359"/>
      <use xlink:href="#DejaVuSans-44" x="560.355469"/>
      <use xlink:href="#DejaVuSans-65" x="637.357422"/>
      <use xlink:href="#DejaVuSans-6e" x="698.880859"/>
      <use xlink:href="#DejaVuSans-73" x="762.259766"/>
      <use xlink:href="#DejaVuSans-69" x="814.359375"/>
      <use xlink:href="#DejaVuSans-74" x="842.142578"/>
      <use xlink:href="#DejaVuSans-79" x="881.351562"/>
     </g>
    </g>
   </g>
   <g id="line2d_23">
    <path d="M 71.804318 138.44 
L 72.5485 129.10134 
L 73.671559 119.335692 
L 75.181732 108.698365 
L 76.70662 99.682867 
L 78.246365 91.844582 
L 79.801114 84.955224 
L 81.371011 78.87134 
L 82.956205 73.491914 
L 84.556845 68.740379 
L 86.17308 64.555654 
L 87.805064 60.887152 
L 89.452949 57.691783 
L 91.11689 54.932037 
L 92.797044 52.574699 
L 94.493569 50.589961 
L 96.206624 48.950773 
L 97.936371 47.632376 
L 99.682972 46.61194 
L 101.446591 45.868292 
L 103.227394 45.381698 
L 105.025548 45.133694 
L 106.841223 45.106947 
L 108.67459 45.28514 
L 110.991439 45.772711 
L 113.33654 46.528289 
L 115.710239 47.525524 
L 118.596916 49.006611 
L 121.525886 50.760673 
L 124.997299 53.103391 
L 129.037431 56.106522 
L 134.199033 60.244191 
L 141.638744 66.533372 
L 157.297491 79.834445 
L 164.340655 85.493364 
L 170.979366 90.532699 
L 177.170113 94.941506 
L 182.871558 98.740441 
L 188.698759 102.359944 
L 194.654489 105.786269 
L 200.741584 109.009929 
L 206.96294 112.025226 
L 213.32152 114.829799 
L 219.82035 117.424191 
L 226.462522 119.811438 
L 233.2512 121.996678 
L 240.189615 123.986793 
L 247.281068 125.790065 
L 254.528936 127.415868 
L 262.769771 129.026574 
L 271.212815 130.445506 
L 280.739639 131.80297 
L 290.523916 132.967142 
L 301.499477 134.040289 
L 313.755548 134.999418 
L 327.393569 135.829378 
L 342.528589 136.523401 
L 360.360257 137.112583 
L 382.301503 137.598807 
L 410.074479 137.970493 
L 431.990682 138.144808 
L 431.990682 138.144808 
" clip-path="url(#p76b993c89a)" style="fill: none; stroke: #1f77b4; stroke-width: 1.5; stroke-linecap: square"/>
   </g>
   <g id="patch_23">
    <path d="M 53.795 138.44 
L 53.795 10.8 
" style="fill: none; stroke: #000000; stroke-width: 0.8; stroke-linejoin: miter; stroke-linecap: square"/>
   </g>
   <g id="patch_24">
    <path d="M 450 138.44 
L 450 10.8 
" style="fill: none; stroke: #000000; stroke-width: 0.8; stroke-linejoin: miter; stroke-linecap: square"/>
   </g>
   <g id="patch_25">
    <path d="M 53.795 138.44 
L 450 138.44 
" style="fill: none; stroke: #000000; stroke-width: 0.8; stroke-linejoin: miter; stroke-linecap: square"/>
   </g>
   <g id="patch_26">
    <path d="M 53.795 10.8 
L 450 10.8 
" style="fill: none; stroke: #000000; stroke-width: 0.8; stroke-linejoin: miter; stroke-linecap: square"/>
   </g>
   <g id="text_7">
    <g id="patch_27">
     <path d="M 358.503622 97.642943 
L 408.103622 97.642943 
Q 411.103622 97.642943 411.103622 94.642943 
L 411.103622 30.562943 
Q 411.103622 27.562943 408.103622 27.562943 
L 358.503622 27.562943 
Q 355.503622 27.562943 355.503622 30.562943 
L 355.503622 94.642943 
Q 355.503622 97.642943 358.503622 97.642943 
z
" style="fill: #ffffff; stroke: #000000; stroke-linejoin: miter"/>
    </g>
    <!-- $\hat{\mu} = 6.124$ -->
    <g transform="translate(358.503622 39.783256) scale(0.1 -0.1)">
     <defs>
      <path id="DejaVuSans-302" d="M -1831 5119 
L -1369 5119 
L -603 3944 
L -1038 3944 
L -1600 4709 
L -2163 3944 
L -2597 3944 
L -1831 5119 
z
M -1600 3584 
L -1600 3584 
z
" transform="scale(0.015625)"/>
      <path id="DejaVuSans-Oblique-3bc" d="M -84 -1331 
L 856 3500 
L 1434 3500 
L 1009 1322 
Q 997 1256 987 1175 
Q 978 1094 978 1013 
Q 978 722 1161 565 
Q 1344 409 1684 409 
Q 2147 409 2431 671 
Q 2716 934 2816 1459 
L 3213 3500 
L 3788 3500 
L 3266 809 
Q 3253 750 3248 706 
Q 3244 663 3244 628 
Q 3244 531 3283 486 
Q 3322 441 3406 441 
Q 3438 441 3492 456 
Q 3547 472 3647 513 
L 3559 50 
Q 3422 -19 3297 -55 
Q 3172 -91 3053 -91 
Q 2847 -91 2730 40 
Q 2613 172 2613 403 
Q 2438 153 2195 31 
Q 1953 -91 1625 -91 
Q 1334 -91 1117 43 
Q 900 178 831 397 
L 494 -1331 
L -84 -1331 
z
" transform="scale(0.015625)"/>
      <path id="DejaVuSans-3d" d="M 678 2906 
L 4684 2906 
L 4684 2381 
L 678 2381 
L 678 2906 
z
M 678 1631 
L 4684 1631 
L 4684 1100 
L 678 1100 
L 678 1631 
z
" transform="scale(0.015625)"/>
      <path id="DejaVuSans-36" d="M 2113 2584 
Q 1688 2584 1439 2293 
Q 1191 2003 1191 1497 
Q 1191 994 1439 701 
Q 1688 409 2113 409 
Q 2538 409 2786 701 
Q 3034 994 3034 1497 
Q 3034 2003 2786 2293 
Q 2538 2584 2113 2584 
z
M 3366 4563 
L 3366 3988 
Q 3128 4100 2886 4159 
Q 2644 4219 2406 4219 
Q 1781 4219 1451 3797 
Q 1122 3375 1075 2522 
Q 1259 2794 1537 2939 
Q 1816 3084 2150 3084 
Q 2853 3084 3261 2657 
Q 3669 2231 3669 1497 
Q 3669 778 3244 343 
Q 2819 -91 2113 -91 
Q 1303 -91 875 529 
Q 447 1150 447 2328 
Q 447 3434 972 4092 
Q 1497 4750 2381 4750 
Q 2619 4750 2861 4703 
Q 3103 4656 3366 4563 
z
" transform="scale(0.015625)"/>
     </defs>
     <use xlink:href="#DejaVuSans-302" transform="translate(64.483887 12.015625)"/>
     <use xlink:href="#DejaVuSans-Oblique-3bc" transform="translate(0 0.828125)"/>
     <use xlink:href="#DejaVuSans-3d" transform="translate(83.105469 0.828125)"/>
     <use xlink:href="#DejaVuSans-36" transform="translate(186.376953 0.828125)"/>
     <use xlink:href="#DejaVuSans-2e" transform="translate(250 0.828125)"/>
     <use xlink:href="#DejaVuSans-31" transform="translate(281.787109 0.828125)"/>
     <use xlink:href="#DejaVuSans-32" transform="translate(345.410156 0.828125)"/>
     <use xlink:href="#DejaVuSans-34" transform="translate(409.033203 0.828125)"/>
    </g>
    <!-- $\hat{\sigma} = 1.791$ -->
    <g transform="translate(358.503622 51.001381) scale(0.1 -0.1)">
     <defs>
      <path id="DejaVuSans-Oblique-3c3" d="M 2219 3044 
Q 1744 3044 1422 2700 
Q 1081 2341 969 1747 
Q 844 1119 1044 756 
Q 1241 397 1706 397 
Q 2166 397 2503 759 
Q 2844 1122 2966 1747 
Q 3075 2319 2881 2700 
Q 2700 3044 2219 3044 
z
M 2309 3503 
L 4219 3500 
L 4106 2925 
L 3463 2925 
Q 3706 2438 3575 1747 
Q 3406 888 2884 400 
Q 2359 -91 1609 -91 
Q 856 -91 525 400 
Q 194 888 363 1747 
Q 528 2609 1050 3097 
Q 1484 3503 2309 3503 
z
" transform="scale(0.015625)"/>
      <path id="DejaVuSans-37" d="M 525 4666 
L 3525 4666 
L 3525 4397 
L 1831 0 
L 1172 0 
L 2766 4134 
L 525 4134 
L 525 4666 
z
" transform="scale(0.015625)"/>
      <path id="DejaVuSans-39" d="M 703 97 
L 703 672 
Q 941 559 1184 500 
Q 1428 441 1663 441 
Q 2288 441 2617 861 
Q 2947 1281 2994 2138 
Q 2813 1869 2534 1725 
Q 2256 1581 1919 1581 
Q 1219 1581 811 2004 
Q 403 2428 403 3163 
Q 403 3881 828 4315 
Q 1253 4750 1959 4750 
Q 2769 4750 3195 4129 
Q 3622 3509 3622 2328 
Q 3622 1225 3098 567 
Q 2575 -91 1691 -91 
Q 1453 -91 1209 -44 
Q 966 3 703 97 
z
M 1959 2075 
Q 2384 2075 2632 2365 
Q 2881 2656 2881 3163 
Q 2881 3666 2632 3958 
Q 2384 4250 1959 4250 
Q 1534 4250 1286 3958 
Q 1038 3666 1038 3163 
Q 1038 2656 1286 2365 
Q 1534 2075 1959 2075 
z
" transform="scale(0.015625)"/>
     </defs>
     <use xlink:href="#DejaVuSans-302" transform="translate(64.422852 12.015625)"/>
     <use xlink:href="#DejaVuSans-Oblique-3c3" transform="translate(0 0.78125)"/>
     <use xlink:href="#DejaVuSans-3d" transform="translate(82.861328 0.78125)"/>
     <use xlink:href="#DejaVuSans-31" transform="translate(186.132812 0.78125)"/>
     <use xlink:href="#DejaVuSans-2e" transform="translate(249.755859 0.78125)"/>
     <use xlink:href="#DejaVuSans-37" transform="translate(273.792969 0.78125)"/>
     <use xlink:href="#DejaVuSans-39" transform="translate(337.416016 0.78125)"/>
     <use xlink:href="#DejaVuSans-31" transform="translate(401.039062 0.78125)"/>
    </g>
    <!-- $\hat{\alpha} = 1.807$ -->
    <g transform="translate(358.503622 62.199193) scale(0.1 -0.1)">
     <defs>
      <path id="DejaVuSans-Oblique-3b1" d="M 2619 1628 
L 2622 2350 
Q 2625 3088 2069 3091 
Q 1653 3094 1394 2747 
Q 1069 2319 959 1747 
Q 825 1059 994 731 
Q 1169 397 1547 397 
Q 1966 397 2319 1063 
L 2619 1628 
z
M 2166 3578 
Q 3141 3594 3128 2584 
Q 3128 2584 3616 3500 
L 4128 3500 
L 3119 1603 
L 3109 919 
Q 3109 766 3194 638 
Q 3291 488 3391 488 
L 3669 488 
L 3575 0 
L 3228 0 
Q 2934 0 2722 263 
Q 2622 394 2619 669 
Q 2416 334 2066 50 
Q 1900 -81 1453 -78 
Q 722 -72 456 397 
Q 184 884 353 1747 
Q 534 2675 1009 3097 
Q 1544 3569 2166 3578 
z
" transform="scale(0.015625)"/>
      <path id="DejaVuSans-38" d="M 2034 2216 
Q 1584 2216 1326 1975 
Q 1069 1734 1069 1313 
Q 1069 891 1326 650 
Q 1584 409 2034 409 
Q 2484 409 2743 651 
Q 3003 894 3003 1313 
Q 3003 1734 2745 1975 
Q 2488 2216 2034 2216 
z
M 1403 2484 
Q 997 2584 770 2862 
Q 544 3141 544 3541 
Q 544 4100 942 4425 
Q 1341 4750 2034 4750 
Q 2731 4750 3128 4425 
Q 3525 4100 3525 3541 
Q 3525 3141 3298 2862 
Q 3072 2584 2669 2484 
Q 3125 2378 3379 2068 
Q 3634 1759 3634 1313 
Q 3634 634 3220 271 
Q 2806 -91 2034 -91 
Q 1263 -91 848 271 
Q 434 634 434 1313 
Q 434 1759 690 2068 
Q 947 2378 1403 2484 
z
M 1172 3481 
Q 1172 3119 1398 2916 
Q 1625 2713 2034 2713 
Q 2441 2713 2670 2916 
Q 2900 3119 2900 3481 
Q 2900 3844 2670 4047 
Q 2441 4250 2034 4250 
Q 1625 4250 1398 4047 
Q 1172 3844 1172 3481 
z
" transform="scale(0.015625)"/>
     </defs>
     <use xlink:href="#DejaVuSans-302" transform="translate(66.057617 13.015625)"/>
     <use xlink:href="#DejaVuSans-Oblique-3b1" transform="translate(0 0.359375)"/>
     <use xlink:href="#DejaVuSans-3d" transform="translate(85.400391 0.359375)"/>
     <use xlink:href="#DejaVuSans-31" transform="translate(188.671875 0.359375)"/>
     <use xlink:href="#DejaVuSans-2e" transform="translate(252.294922 0.359375)"/>
     <use xlink:href="#DejaVuSans-38" transform="translate(281.457031 0.359375)"/>
     <use xlink:href="#DejaVuSans-30" transform="translate(345.080078 0.359375)"/>
     <use xlink:href="#DejaVuSans-37" transform="translate(408.703125 0.359375)"/>
    </g>
    <!-- $\hat{\beta} = 1.162$ -->
    <g transform="translate(358.503622 77.958881) scale(0.1 -0.1)">
     <defs>
      <path id="DejaVuSans-Oblique-3b2" d="M 872 216 
L 572 -1331 
L -6 -1331 
L 928 3478 
Q 1206 4903 2538 4903 
Q 3888 4903 3659 3700 
Q 3503 2844 2894 2531 
Q 3713 2250 3553 1416 
Q 3272 -69 1759 -66 
Q 1097 -63 872 216 
z
M 1019 966 
Q 1259 422 1875 425 
Q 2775 425 2966 1406 
Q 3138 2288 1675 2219 
L 1778 2750 
Q 2909 2731 3106 3750 
Q 3241 4438 2509 4434 
Q 1691 4434 1503 3459 
L 1019 966 
z
" transform="scale(0.015625)"/>
     </defs>
     <use xlink:href="#DejaVuSans-302" transform="translate(64.532715 34.015625)"/>
     <use xlink:href="#DejaVuSans-Oblique-3b2" transform="translate(0 0.90625)"/>
     <use xlink:href="#DejaVuSans-3d" transform="translate(83.300781 0.90625)"/>
     <use xlink:href="#DejaVuSans-31" transform="translate(186.572266 0.90625)"/>
     <use xlink:href="#DejaVuSans-2e" transform="translate(250.195312 0.90625)"/>
     <use xlink:href="#DejaVuSans-31" transform="translate(281.982422 0.90625)"/>
     <use xlink:href="#DejaVuSans-36" transform="translate(345.605469 0.90625)"/>
     <use xlink:href="#DejaVuSans-32" transform="translate(409.228516 0.90625)"/>
    </g>
    <!-- $\hat{t_0} = 4.178$ -->
    <g transform="translate(358.503622 92.563256) scale(0.1 -0.1)">
     <defs>
      <path id="DejaVuSans-Oblique-74" d="M 2706 3500 
L 2619 3053 
L 1472 3053 
L 1100 1153 
Q 1081 1047 1072 975 
Q 1063 903 1063 863 
Q 1063 663 1183 572 
Q 1303 481 1569 481 
L 2150 481 
L 2053 0 
L 1503 0 
Q 991 0 739 200 
Q 488 400 488 806 
Q 488 878 497 964 
Q 506 1050 525 1153 
L 897 3053 
L 409 3053 
L 500 3500 
L 978 3500 
L 1172 4494 
L 1747 4494 
L 1556 3500 
L 2706 3500 
z
" transform="scale(0.015625)"/>
     </defs>
     <use xlink:href="#DejaVuSans-302" transform="translate(79.197998 27.015625)"/>
     <use xlink:href="#DejaVuSans-Oblique-74" transform="translate(0 0.296875)"/>
     <use xlink:href="#DejaVuSans-30" transform="translate(39.208984 -16.109375) scale(0.7)"/>
     <use xlink:href="#DejaVuSans-3d" transform="translate(105.961914 0.296875)"/>
     <use xlink:href="#DejaVuSans-34" transform="translate(209.233398 0.296875)"/>
     <use xlink:href="#DejaVuSans-2e" transform="translate(272.856445 0.296875)"/>
     <use xlink:href="#DejaVuSans-31" transform="translate(304.643555 0.296875)"/>
     <use xlink:href="#DejaVuSans-37" transform="translate(368.266602 0.296875)"/>
     <use xlink:href="#DejaVuSans-38" transform="translate(431.889648 0.296875)"/>
    </g>
   </g>
  </g>
  <g id="axes_2">
   <g id="patch_28">
    <path d="M 53.795 282.76 
L 450 282.76 
L 450 155.12 
L 53.795 155.12 
z
" style="fill: #ffffff"/>
   </g>
   <g id="patch_29">
    <path d="M 71.804318 282.76 
L 89.813636 282.76 
L 89.813636 269.540667 
L 71.804318 269.540667 
z
" clip-path="url(#p0bae8c8780)" style="fill: #1f77b4; opacity: 0.5"/>
   </g>
   <g id="patch_30">
    <path d="M 89.813636 282.76 
L 107.822955 282.76 
L 107.822955 254.118113 
L 89.813636 254.118113 
z
" clip-path="url(#p0bae8c8780)" style="fill: #1f77b4; opacity: 0.5"/>
   </g>
   <g id="patch_31">
    <path d="M 107.822955 282.76 
L 125.832273 282.76 
L 125.832273 228.413855 
L 107.822955 228.413855 
z
" clip-path="url(#p0bae8c8780)" style="fill: #1f77b4; opacity: 0.5"/>
   </g>
   <g id="patch_32">
    <path d="M 125.832273 282.76 
L 143.841591 282.76 
L 143.841591 215.92893 
L 125.832273 215.92893 
z
" clip-path="url(#p0bae8c8780)" style="fill: #1f77b4; opacity: 0.5"/>
   </g>
   <g id="patch_33">
    <path d="M 143.841591 282.76 
L 161.850909 282.76 
L 161.850909 204.178412 
L 143.841591 204.178412 
z
" clip-path="url(#p0bae8c8780)" style="fill: #1f77b4; opacity: 0.5"/>
   </g>
   <g id="patch_34">
    <path d="M 161.850909 282.76 
L 179.860227 282.76 
L 179.860227 190.959079 
L 161.850909 190.959079 
z
" clip-path="url(#p0bae8c8780)" style="fill: #1f77b4; opacity: 0.5"/>
   </g>
   <g id="patch_35">
    <path d="M 179.860227 282.76 
L 197.869545 282.76 
L 197.869545 187.287043 
L 179.860227 187.287043 
z
" clip-path="url(#p0bae8c8780)" style="fill: #1f77b4; opacity: 0.5"/>
   </g>
   <g id="patch_36">
    <path d="M 197.869545 282.76 
L 215.878864 282.76 
L 215.878864 180.677376 
L 197.869545 180.677376 
z
" clip-path="url(#p0bae8c8780)" style="fill: #1f77b4; opacity: 0.5"/>
   </g>
   <g id="patch_37">
    <path d="M 215.878864 282.76 
L 233.888182 282.76 
L 233.888182 177.005339 
L 215.878864 177.005339 
z
" clip-path="url(#p0bae8c8780)" style="fill: #1f77b4; opacity: 0.5"/>
   </g>
   <g id="patch_38">
    <path d="M 233.888182 282.76 
L 251.8975 282.76 
L 251.8975 175.536525 
L 233.888182 175.536525 
z
" clip-path="url(#p0bae8c8780)" style="fill: #1f77b4; opacity: 0.5"/>
   </g>
   <g id="patch_39">
    <path d="M 251.8975 282.76 
L 269.906818 282.76 
L 269.906818 174.802117 
L 251.8975 174.802117 
z
" clip-path="url(#p0bae8c8780)" style="fill: #1f77b4; opacity: 0.5"/>
   </g>
   <g id="patch_40">
    <path d="M 269.906818 282.76 
L 287.916136 282.76 
L 287.916136 172.598895 
L 269.906818 172.598895 
z
" clip-path="url(#p0bae8c8780)" style="fill: #1f77b4; opacity: 0.5"/>
   </g>
   <g id="patch_41">
    <path d="M 287.916136 282.76 
L 305.925455 282.76 
L 305.925455 171.130081 
L 287.916136 171.130081 
z
" clip-path="url(#p0bae8c8780)" style="fill: #1f77b4; opacity: 0.5"/>
   </g>
   <g id="patch_42">
    <path d="M 305.925455 282.76 
L 323.934773 282.76 
L 323.934773 170.395673 
L 305.925455 170.395673 
z
" clip-path="url(#p0bae8c8780)" style="fill: #1f77b4; opacity: 0.5"/>
   </g>
   <g id="patch_43">
    <path d="M 323.934773 282.76 
L 341.944091 282.76 
L 341.944091 168.926858 
L 323.934773 168.926858 
z
" clip-path="url(#p0bae8c8780)" style="fill: #1f77b4; opacity: 0.5"/>
   </g>
   <g id="patch_44">
    <path d="M 341.944091 282.76 
L 359.953409 282.76 
L 359.953409 168.192451 
L 341.944091 168.192451 
z
" clip-path="url(#p0bae8c8780)" style="fill: #1f77b4; opacity: 0.5"/>
   </g>
   <g id="patch_45">
    <path d="M 359.953409 282.76 
L 377.962727 282.76 
L 377.962727 167.458044 
L 359.953409 167.458044 
z
" clip-path="url(#p0bae8c8780)" style="fill: #1f77b4; opacity: 0.5"/>
   </g>
   <g id="patch_46">
    <path d="M 377.962727 282.76 
L 395.972045 282.76 
L 395.972045 167.458044 
L 377.962727 167.458044 
z
" clip-path="url(#p0bae8c8780)" style="fill: #1f77b4; opacity: 0.5"/>
   </g>
   <g id="patch_47">
    <path d="M 395.972045 282.76 
L 413.981364 282.76 
L 413.981364 167.458044 
L 395.972045 167.458044 
z
" clip-path="url(#p0bae8c8780)" style="fill: #1f77b4; opacity: 0.5"/>
   </g>
   <g id="patch_48">
    <path d="M 413.981364 282.76 
L 431.990682 282.76 
L 431.990682 166.723636 
L 413.981364 166.723636 
z
" clip-path="url(#p0bae8c8780)" style="fill: #1f77b4; opacity: 0.5"/>
   </g>
   <g id="matplotlib.axis_3">
    <g id="xtick_7">
     <g id="line2d_24">
      <path d="M 65.28842 282.76 
L 65.28842 155.12 
" clip-path="url(#p0bae8c8780)" style="fill: none; stroke: #b0b0b0; stroke-width: 0.8; stroke-linecap: square"/>
     </g>
     <g id="line2d_25">
      <g>
       <use xlink:href="#m9fe6030c7b" x="65.28842" y="282.76" style="stroke: #000000; stroke-width: 0.8"/>
      </g>
     </g>
     <g id="text_8">
      <!-- 4 -->
      <g transform="translate(62.10717 297.358438) scale(0.1 -0.1)">
       <use xlink:href="#DejaVuSans-34"/>
      </g>
     </g>
    </g>
    <g id="xtick_8">
     <g id="line2d_26">
      <path d="M 138.592221 282.76 
L 138.592221 155.12 
" clip-path="url(#p0bae8c8780)" style="fill: none; stroke: #b0b0b0; stroke-width: 0.8; stroke-linecap: square"/>
     </g>
     <g id="line2d_27">
      <g>
       <use xlink:href="#m9fe6030c7b" x="138.592221" y="282.76" style="stroke: #000000; stroke-width: 0.8"/>
      </g>
     </g>
     <g id="text_9">
      <!-- 6 -->
      <g transform="translate(135.410971 297.358438) scale(0.1 -0.1)">
       <use xlink:href="#DejaVuSans-36"/>
      </g>
     </g>
    </g>
    <g id="xtick_9">
     <g id="line2d_28">
      <path d="M 211.896021 282.76 
L 211.896021 155.12 
" clip-path="url(#p0bae8c8780)" style="fill: none; stroke: #b0b0b0; stroke-width: 0.8; stroke-linecap: square"/>
     </g>
     <g id="line2d_29">
      <g>
       <use xlink:href="#m9fe6030c7b" x="211.896021" y="282.76" style="stroke: #000000; stroke-width: 0.8"/>
      </g>
     </g>
     <g id="text_10">
      <!-- 8 -->
      <g transform="translate(208.714771 297.358438) scale(0.1 -0.1)">
       <use xlink:href="#DejaVuSans-38"/>
      </g>
     </g>
    </g>
    <g id="xtick_10">
     <g id="line2d_30">
      <path d="M 285.199822 282.76 
L 285.199822 155.12 
" clip-path="url(#p0bae8c8780)" style="fill: none; stroke: #b0b0b0; stroke-width: 0.8; stroke-linecap: square"/>
     </g>
     <g id="line2d_31">
      <g>
       <use xlink:href="#m9fe6030c7b" x="285.199822" y="282.76" style="stroke: #000000; stroke-width: 0.8"/>
      </g>
     </g>
     <g id="text_11">
      <!-- 10 -->
      <g transform="translate(278.837322 297.358438) scale(0.1 -0.1)">
       <use xlink:href="#DejaVuSans-31"/>
       <use xlink:href="#DejaVuSans-30" x="63.623047"/>
      </g>
     </g>
    </g>
    <g id="xtick_11">
     <g id="line2d_32">
      <path d="M 358.503622 282.76 
L 358.503622 155.12 
" clip-path="url(#p0bae8c8780)" style="fill: none; stroke: #b0b0b0; stroke-width: 0.8; stroke-linecap: square"/>
     </g>
     <g id="line2d_33">
      <g>
       <use xlink:href="#m9fe6030c7b" x="358.503622" y="282.76" style="stroke: #000000; stroke-width: 0.8"/>
      </g>
     </g>
     <g id="text_12">
      <!-- 12 -->
      <g transform="translate(352.141122 297.358438) scale(0.1 -0.1)">
       <use xlink:href="#DejaVuSans-31"/>
       <use xlink:href="#DejaVuSans-32" x="63.623047"/>
      </g>
     </g>
    </g>
    <g id="xtick_12">
     <g id="line2d_34">
      <path d="M 431.807422 282.76 
L 431.807422 155.12 
" clip-path="url(#p0bae8c8780)" style="fill: none; stroke: #b0b0b0; stroke-width: 0.8; stroke-linecap: square"/>
     </g>
     <g id="line2d_35">
      <g>
       <use xlink:href="#m9fe6030c7b" x="431.807422" y="282.76" style="stroke: #000000; stroke-width: 0.8"/>
      </g>
     </g>
     <g id="text_13">
      <!-- 14 -->
      <g transform="translate(425.444922 297.358438) scale(0.1 -0.1)">
       <use xlink:href="#DejaVuSans-31"/>
       <use xlink:href="#DejaVuSans-34" x="63.623047"/>
      </g>
     </g>
    </g>
    <g id="text_14">
     <!-- Pause Duration $t$ in s -->
     <g transform="translate(199.7475 311.036563) scale(0.1 -0.1)">
      <defs>
       <path id="DejaVuSans-75" d="M 544 1381 
L 544 3500 
L 1119 3500 
L 1119 1403 
Q 1119 906 1312 657 
Q 1506 409 1894 409 
Q 2359 409 2629 706 
Q 2900 1003 2900 1516 
L 2900 3500 
L 3475 3500 
L 3475 0 
L 2900 0 
L 2900 538 
Q 2691 219 2414 64 
Q 2138 -91 1772 -91 
Q 1169 -91 856 284 
Q 544 659 544 1381 
z
M 1991 3584 
L 1991 3584 
z
" transform="scale(0.015625)"/>
      </defs>
      <use xlink:href="#DejaVuSans-50" transform="translate(0 0.015625)"/>
      <use xlink:href="#DejaVuSans-61" transform="translate(60.302734 0.015625)"/>
      <use xlink:href="#DejaVuSans-75" transform="translate(121.582031 0.015625)"/>
      <use xlink:href="#DejaVuSans-73" transform="translate(184.960938 0.015625)"/>
      <use xlink:href="#DejaVuSans-65" transform="translate(237.060547 0.015625)"/>
      <use xlink:href="#DejaVuSans-20" transform="translate(298.583984 0.015625)"/>
      <use xlink:href="#DejaVuSans-44" transform="translate(330.371094 0.015625)"/>
      <use xlink:href="#DejaVuSans-75" transform="translate(407.373047 0.015625)"/>
      <use xlink:href="#DejaVuSans-72" transform="translate(470.751953 0.015625)"/>
      <use xlink:href="#DejaVuSans-61" transform="translate(511.865234 0.015625)"/>
      <use xlink:href="#DejaVuSans-74" transform="translate(573.144531 0.015625)"/>
      <use xlink:href="#DejaVuSans-69" transform="translate(612.353516 0.015625)"/>
      <use xlink:href="#DejaVuSans-6f" transform="translate(640.136719 0.015625)"/>
      <use xlink:href="#DejaVuSans-6e" transform="translate(701.318359 0.015625)"/>
      <use xlink:href="#DejaVuSans-20" transform="translate(764.697266 0.015625)"/>
      <use xlink:href="#DejaVuSans-Oblique-74" transform="translate(796.484375 0.015625)"/>
      <use xlink:href="#DejaVuSans-20" transform="translate(835.693359 0.015625)"/>
      <use xlink:href="#DejaVuSans-69" transform="translate(867.480469 0.015625)"/>
      <use xlink:href="#DejaVuSans-6e" transform="translate(895.263672 0.015625)"/>
      <use xlink:href="#DejaVuSans-20" transform="translate(958.642578 0.015625)"/>
      <use xlink:href="#DejaVuSans-73" transform="translate(990.429688 0.015625)"/>
     </g>
    </g>
   </g>
   <g id="matplotlib.axis_4">
    <g id="ytick_6">
     <g id="line2d_36">
      <path d="M 53.795 282.76 
L 450 282.76 
" clip-path="url(#p0bae8c8780)" style="fill: none; stroke: #b0b0b0; stroke-width: 0.8; stroke-linecap: square"/>
     </g>
     <g id="line2d_37">
      <g>
       <use xlink:href="#mf089ca55d2" x="53.795" y="282.76" style="stroke: #000000; stroke-width: 0.8"/>
      </g>
     </g>
     <g id="text_15">
      <!-- 0.0 -->
      <g transform="translate(30.891875 286.559219) scale(0.1 -0.1)">
       <use xlink:href="#DejaVuSans-30"/>
       <use xlink:href="#DejaVuSans-2e" x="63.623047"/>
       <use xlink:href="#DejaVuSans-30" x="95.410156"/>
      </g>
     </g>
    </g>
    <g id="ytick_7">
     <g id="line2d_38">
      <path d="M 53.795 259.552727 
L 450 259.552727 
" clip-path="url(#p0bae8c8780)" style="fill: none; stroke: #b0b0b0; stroke-width: 0.8; stroke-linecap: square"/>
     </g>
     <g id="line2d_39">
      <g>
       <use xlink:href="#mf089ca55d2" x="53.795" y="259.552727" style="stroke: #000000; stroke-width: 0.8"/>
      </g>
     </g>
     <g id="text_16">
      <!-- 0.2 -->
      <g transform="translate(30.891875 263.351946) scale(0.1 -0.1)">
       <use xlink:href="#DejaVuSans-30"/>
       <use xlink:href="#DejaVuSans-2e" x="63.623047"/>
       <use xlink:href="#DejaVuSans-32" x="95.410156"/>
      </g>
     </g>
    </g>
    <g id="ytick_8">
     <g id="line2d_40">
      <path d="M 53.795 236.345455 
L 450 236.345455 
" clip-path="url(#p0bae8c8780)" style="fill: none; stroke: #b0b0b0; stroke-width: 0.8; stroke-linecap: square"/>
     </g>
     <g id="line2d_41">
      <g>
       <use xlink:href="#mf089ca55d2" x="53.795" y="236.345455" style="stroke: #000000; stroke-width: 0.8"/>
      </g>
     </g>
     <g id="text_17">
      <!-- 0.4 -->
      <g transform="translate(30.891875 240.144673) scale(0.1 -0.1)">
       <use xlink:href="#DejaVuSans-30"/>
       <use xlink:href="#DejaVuSans-2e" x="63.623047"/>
       <use xlink:href="#DejaVuSans-34" x="95.410156"/>
      </g>
     </g>
    </g>
    <g id="ytick_9">
     <g id="line2d_42">
      <path d="M 53.795 213.138182 
L 450 213.138182 
" clip-path="url(#p0bae8c8780)" style="fill: none; stroke: #b0b0b0; stroke-width: 0.8; stroke-linecap: square"/>
     </g>
     <g id="line2d_43">
      <g>
       <use xlink:href="#mf089ca55d2" x="53.795" y="213.138182" style="stroke: #000000; stroke-width: 0.8"/>
      </g>
     </g>
     <g id="text_18">
      <!-- 0.6 -->
      <g transform="translate(30.891875 216.937401) scale(0.1 -0.1)">
       <use xlink:href="#DejaVuSans-30"/>
       <use xlink:href="#DejaVuSans-2e" x="63.623047"/>
       <use xlink:href="#DejaVuSans-36" x="95.410156"/>
      </g>
     </g>
    </g>
    <g id="ytick_10">
     <g id="line2d_44">
      <path d="M 53.795 189.930909 
L 450 189.930909 
" clip-path="url(#p0bae8c8780)" style="fill: none; stroke: #b0b0b0; stroke-width: 0.8; stroke-linecap: square"/>
     </g>
     <g id="line2d_45">
      <g>
       <use xlink:href="#mf089ca55d2" x="53.795" y="189.930909" style="stroke: #000000; stroke-width: 0.8"/>
      </g>
     </g>
     <g id="text_19">
      <!-- 0.8 -->
      <g transform="translate(30.891875 193.730128) scale(0.1 -0.1)">
       <use xlink:href="#DejaVuSans-30"/>
       <use xlink:href="#DejaVuSans-2e" x="63.623047"/>
       <use xlink:href="#DejaVuSans-38" x="95.410156"/>
      </g>
     </g>
    </g>
    <g id="ytick_11">
     <g id="line2d_46">
      <path d="M 53.795 166.723636 
L 450 166.723636 
" clip-path="url(#p0bae8c8780)" style="fill: none; stroke: #b0b0b0; stroke-width: 0.8; stroke-linecap: square"/>
     </g>
     <g id="line2d_47">
      <g>
       <use xlink:href="#mf089ca55d2" x="53.795" y="166.723636" style="stroke: #000000; stroke-width: 0.8"/>
      </g>
     </g>
     <g id="text_20">
      <!-- 1.0 -->
      <g transform="translate(30.891875 170.522855) scale(0.1 -0.1)">
       <use xlink:href="#DejaVuSans-31"/>
       <use xlink:href="#DejaVuSans-2e" x="63.623047"/>
       <use xlink:href="#DejaVuSans-30" x="95.410156"/>
      </g>
     </g>
    </g>
    <g id="text_21">
     <!-- Cumulative Density -->
     <g transform="translate(24.812187 268.075156) rotate(-90) scale(0.1 -0.1)">
      <defs>
       <path id="DejaVuSans-43" d="M 4122 4306 
L 4122 3641 
Q 3803 3938 3442 4084 
Q 3081 4231 2675 4231 
Q 1875 4231 1450 3742 
Q 1025 3253 1025 2328 
Q 1025 1406 1450 917 
Q 1875 428 2675 428 
Q 3081 428 3442 575 
Q 3803 722 4122 1019 
L 4122 359 
Q 3791 134 3420 21 
Q 3050 -91 2638 -91 
Q 1578 -91 968 557 
Q 359 1206 359 2328 
Q 359 3453 968 4101 
Q 1578 4750 2638 4750 
Q 3056 4750 3426 4639 
Q 3797 4528 4122 4306 
z
" transform="scale(0.015625)"/>
       <path id="DejaVuSans-6d" d="M 3328 2828 
Q 3544 3216 3844 3400 
Q 4144 3584 4550 3584 
Q 5097 3584 5394 3201 
Q 5691 2819 5691 2113 
L 5691 0 
L 5113 0 
L 5113 2094 
Q 5113 2597 4934 2840 
Q 4756 3084 4391 3084 
Q 3944 3084 3684 2787 
Q 3425 2491 3425 1978 
L 3425 0 
L 2847 0 
L 2847 2094 
Q 2847 2600 2669 2842 
Q 2491 3084 2119 3084 
Q 1678 3084 1418 2786 
Q 1159 2488 1159 1978 
L 1159 0 
L 581 0 
L 581 3500 
L 1159 3500 
L 1159 2956 
Q 1356 3278 1631 3431 
Q 1906 3584 2284 3584 
Q 2666 3584 2933 3390 
Q 3200 3197 3328 2828 
z
" transform="scale(0.015625)"/>
       <path id="DejaVuSans-76" d="M 191 3500 
L 800 3500 
L 1894 563 
L 2988 3500 
L 3597 3500 
L 2284 0 
L 1503 0 
L 191 3500 
z
" transform="scale(0.015625)"/>
      </defs>
      <use xlink:href="#DejaVuSans-43"/>
      <use xlink:href="#DejaVuSans-75" x="69.824219"/>
      <use xlink:href="#DejaVuSans-6d" x="133.203125"/>
      <use xlink:href="#DejaVuSans-75" x="230.615234"/>
      <use xlink:href="#DejaVuSans-6c" x="293.994141"/>
      <use xlink:href="#DejaVuSans-61" x="321.777344"/>
      <use xlink:href="#DejaVuSans-74" x="383.056641"/>
      <use xlink:href="#DejaVuSans-69" x="422.265625"/>
      <use xlink:href="#DejaVuSans-76" x="450.048828"/>
      <use xlink:href="#DejaVuSans-65" x="509.228516"/>
      <use xlink:href="#DejaVuSans-20" x="570.751953"/>
      <use xlink:href="#DejaVuSans-44" x="602.539062"/>
      <use xlink:href="#DejaVuSans-65" x="679.541016"/>
      <use xlink:href="#DejaVuSans-6e" x="741.064453"/>
      <use xlink:href="#DejaVuSans-73" x="804.443359"/>
      <use xlink:href="#DejaVuSans-69" x="856.542969"/>
      <use xlink:href="#DejaVuSans-74" x="884.326172"/>
      <use xlink:href="#DejaVuSans-79" x="923.535156"/>
     </g>
    </g>
   </g>
   <g id="line2d_48">
    <path d="M 71.804318 282.76 
L 73.296298 282.602103 
L 74.802815 282.215218 
L 76.70662 281.473054 
L 78.63364 280.483855 
L 80.977109 279.01397 
L 83.754585 276.961522 
L 86.579594 274.597473 
L 90.282902 271.174597 
L 94.493569 266.961264 
L 100.122275 260.998496 
L 122.511715 236.924817 
L 128.528119 230.924955 
L 134.199033 225.565788 
L 139.487286 220.847938 
L 144.9053 216.304245 
L 150.456257 211.956061 
L 155.568481 208.223752 
L 160.793463 204.672591 
L 166.133692 201.309185 
L 171.591709 198.137755 
L 177.170113 195.160354 
L 182.871558 192.37707 
L 188.698759 189.786243 
L 194.654489 187.38466 
L 200.741584 185.16776 
L 206.96294 183.129823 
L 213.32152 181.264159 
L 220.551233 179.384123 
L 227.958344 177.696355 
L 235.547206 176.189005 
L 244.110203 174.724622 
L 252.904606 173.447002 
L 262.769771 172.246652 
L 273.785897 171.150051 
L 285.154708 170.240002 
L 298.725583 169.389645 
L 313.755548 168.680924 
L 331.375917 168.082152 
L 352.928706 167.589512 
L 380.0592 167.212308 
L 416.066702 166.95066 
L 431.990682 166.885005 
L 431.990682 166.885005 
" clip-path="url(#p0bae8c8780)" style="fill: none; stroke: #1f77b4; stroke-width: 1.5; stroke-linecap: square"/>
   </g>
   <g id="patch_49">
    <path d="M 53.795 282.76 
L 53.795 155.12 
" style="fill: none; stroke: #000000; stroke-width: 0.8; stroke-linejoin: miter; stroke-linecap: square"/>
   </g>
   <g id="patch_50">
    <path d="M 450 282.76 
L 450 155.12 
" style="fill: none; stroke: #000000; stroke-width: 0.8; stroke-linejoin: miter; stroke-linecap: square"/>
   </g>
   <g id="patch_51">
    <path d="M 53.795 282.76 
L 450 282.76 
" style="fill: none; stroke: #000000; stroke-width: 0.8; stroke-linejoin: miter; stroke-linecap: square"/>
   </g>
   <g id="patch_52">
    <path d="M 53.795 155.12 
L 450 155.12 
" style="fill: none; stroke: #000000; stroke-width: 0.8; stroke-linejoin: miter; stroke-linecap: square"/>
   </g>
  </g>
 </g>
 <defs>
  <clipPath id="p76b993c89a">
   <rect x="53.795" y="10.8" width="396.205" height="127.64"/>
  </clipPath>
  <clipPath id="p0bae8c8780">
   <rect x="53.795" y="155.12" width="396.205" height="127.64"/>
  </clipPath>
 </defs>
</svg>
