<?xml version="1.0" encoding="utf-8" standalone="no"?>
<!DOCTYPE svg PUBLIC "-//W3C//DTD SVG 1.1//EN"
  "http://www.w3.org/Graphics/SVG/1.1/DTD/svg11.dtd">
<svg xmlns:xlink="http://www.w3.org/1999/xlink" width="460.8pt" height="324pt" viewBox="0 0 460.8 324" xmlns="http://www.w3.org/2000/svg" version="1.1">
 <metadata>
  <rdf:RDF xmlns:dc="http://purl.org/dc/elements/1.1/" xmlns:cc="http://creativecommons.org/ns#" xmlns:rdf="http://www.w3.org/1999/02/22-rdf-syntax-ns#">
   <cc:Work>
    <dc:type rdf:resource="http://purl.org/dc/dcmitype/StillImage"/>
    <dc:date>2023-04-17T09:48:14.751596</dc:date>
    <dc:format>image/svg+xml</dc:format>
    <dc:creator>
     <cc:Agent>
      <dc:title>Matplotlib v3.7.1, https://matplotlib.org/</dc:title>
     </cc:Agent>
    </dc:creator>
   </cc:Work>
  </rdf:RDF>
 </metadata>
 <defs>
  <style type="text/css">*{stroke-linejoin: round; stroke-linecap: butt}</style>
 </defs>
 <g id="figure_1">
  <g id="patch_1">
   <path d="M 0 324 
L 460.8 324 
L 460.8 0 
L 0 0 
z
" style="fill: #ffffff"/>
  </g>
  <g id="axes_1">
   <g id="patch_2">
    <path d="M 48.367091 139.54611 
L 450 139.54611 
L 450 10.8 
L 48.367091 10.8 
z
" style="fill: #ffffff"/>
   </g>
   <g id="patch_3">
    <path d="M 66.623132 139.54611 
L 84.879174 139.54611 
L 84.879174 76.486791 
L 66.623132 76.486791 
z
" clip-path="url(#p30f0b55bfb)" style="fill: #1f77b4; opacity: 0.5"/>
   </g>
   <g id="patch_4">
    <path d="M 84.879174 139.54611 
L 103.135215 139.54611 
L 103.135215 65.976904 
L 84.879174 65.976904 
z
" clip-path="url(#p30f0b55bfb)" style="fill: #1f77b4; opacity: 0.5"/>
   </g>
   <g id="patch_5">
    <path d="M 103.135215 139.54611 
L 121.391256 139.54611 
L 121.391256 16.930767 
L 103.135215 16.930767 
z
" clip-path="url(#p30f0b55bfb)" style="fill: #1f77b4; opacity: 0.5"/>
   </g>
   <g id="patch_6">
    <path d="M 121.391256 139.54611 
L 139.647298 139.54611 
L 139.647298 79.990086 
L 121.391256 79.990086 
z
" clip-path="url(#p30f0b55bfb)" style="fill: #1f77b4; opacity: 0.5"/>
   </g>
   <g id="patch_7">
    <path d="M 139.647298 139.54611 
L 157.903339 139.54611 
L 157.903339 83.493382 
L 139.647298 83.493382 
z
" clip-path="url(#p30f0b55bfb)" style="fill: #1f77b4; opacity: 0.5"/>
   </g>
   <g id="patch_8">
    <path d="M 157.903339 139.54611 
L 176.15938 139.54611 
L 176.15938 76.486791 
L 157.903339 76.486791 
z
" clip-path="url(#p30f0b55bfb)" style="fill: #1f77b4; opacity: 0.5"/>
   </g>
   <g id="patch_9">
    <path d="M 176.15938 139.54611 
L 194.415422 139.54611 
L 194.415422 122.029632 
L 176.15938 122.029632 
z
" clip-path="url(#p30f0b55bfb)" style="fill: #1f77b4; opacity: 0.5"/>
   </g>
   <g id="patch_10">
    <path d="M 194.415422 139.54611 
L 212.671463 139.54611 
L 212.671463 108.01645 
L 194.415422 108.01645 
z
" clip-path="url(#p30f0b55bfb)" style="fill: #1f77b4; opacity: 0.5"/>
   </g>
   <g id="patch_11">
    <path d="M 212.671463 139.54611 
L 230.927504 139.54611 
L 230.927504 122.029632 
L 212.671463 122.029632 
z
" clip-path="url(#p30f0b55bfb)" style="fill: #1f77b4; opacity: 0.5"/>
   </g>
   <g id="patch_12">
    <path d="M 230.927504 139.54611 
L 249.183545 139.54611 
L 249.183545 132.539519 
L 230.927504 132.539519 
z
" clip-path="url(#p30f0b55bfb)" style="fill: #1f77b4; opacity: 0.5"/>
   </g>
   <g id="patch_13">
    <path d="M 249.183545 139.54611 
L 267.439587 139.54611 
L 267.439587 136.042814 
L 249.183545 136.042814 
z
" clip-path="url(#p30f0b55bfb)" style="fill: #1f77b4; opacity: 0.5"/>
   </g>
   <g id="patch_14">
    <path d="M 267.439587 139.54611 
L 285.695628 139.54611 
L 285.695628 129.036223 
L 267.439587 129.036223 
z
" clip-path="url(#p30f0b55bfb)" style="fill: #1f77b4; opacity: 0.5"/>
   </g>
   <g id="patch_15">
    <path d="M 285.695628 139.54611 
L 303.951669 139.54611 
L 303.951669 132.539519 
L 285.695628 132.539519 
z
" clip-path="url(#p30f0b55bfb)" style="fill: #1f77b4; opacity: 0.5"/>
   </g>
   <g id="patch_16">
    <path d="M 303.951669 139.54611 
L 322.207711 139.54611 
L 322.207711 136.042814 
L 303.951669 136.042814 
z
" clip-path="url(#p30f0b55bfb)" style="fill: #1f77b4; opacity: 0.5"/>
   </g>
   <g id="patch_17">
    <path d="M 322.207711 139.54611 
L 340.463752 139.54611 
L 340.463752 132.539519 
L 322.207711 132.539519 
z
" clip-path="url(#p30f0b55bfb)" style="fill: #1f77b4; opacity: 0.5"/>
   </g>
   <g id="patch_18">
    <path d="M 340.463752 139.54611 
L 358.719793 139.54611 
L 358.719793 136.042814 
L 340.463752 136.042814 
z
" clip-path="url(#p30f0b55bfb)" style="fill: #1f77b4; opacity: 0.5"/>
   </g>
   <g id="patch_19">
    <path d="M 358.719793 139.54611 
L 376.975835 139.54611 
L 376.975835 136.042814 
L 358.719793 136.042814 
z
" clip-path="url(#p30f0b55bfb)" style="fill: #1f77b4; opacity: 0.5"/>
   </g>
   <g id="patch_20">
    <path d="M 376.975835 139.54611 
L 395.231876 139.54611 
L 395.231876 139.54611 
L 376.975835 139.54611 
z
" clip-path="url(#p30f0b55bfb)" style="fill: #1f77b4; opacity: 0.5"/>
   </g>
   <g id="patch_21">
    <path d="M 395.231876 139.54611 
L 413.487917 139.54611 
L 413.487917 139.54611 
L 395.231876 139.54611 
z
" clip-path="url(#p30f0b55bfb)" style="fill: #1f77b4; opacity: 0.5"/>
   </g>
   <g id="patch_22">
    <path d="M 413.487917 139.54611 
L 431.743959 139.54611 
L 431.743959 136.042814 
L 413.487917 136.042814 
z
" clip-path="url(#p30f0b55bfb)" style="fill: #1f77b4; opacity: 0.5"/>
   </g>
   <g id="matplotlib.axis_1">
    <g id="xtick_1">
     <g id="line2d_1">
      <path d="M 60.017968 139.54611 
L 60.017968 10.8 
" clip-path="url(#p30f0b55bfb)" style="fill: none; stroke: #b0b0b0; stroke-width: 0.8; stroke-linecap: square"/>
     </g>
     <g id="line2d_2">
      <defs>
       <path id="mabef9850b1" d="M 0 0 
L 0 3.5 
" style="stroke: #000000; stroke-width: 0.8"/>
      </defs>
      <g>
       <use xlink:href="#mabef9850b1" x="60.017968" y="139.54611" style="stroke: #000000; stroke-width: 0.8"/>
      </g>
     </g>
    </g>
    <g id="xtick_2">
     <g id="line2d_3">
      <path d="M 134.326012 139.54611 
L 134.326012 10.8 
" clip-path="url(#p30f0b55bfb)" style="fill: none; stroke: #b0b0b0; stroke-width: 0.8; stroke-linecap: square"/>
     </g>
     <g id="line2d_4">
      <g>
       <use xlink:href="#mabef9850b1" x="134.326012" y="139.54611" style="stroke: #000000; stroke-width: 0.8"/>
      </g>
     </g>
    </g>
    <g id="xtick_3">
     <g id="line2d_5">
      <path d="M 208.634056 139.54611 
L 208.634056 10.8 
" clip-path="url(#p30f0b55bfb)" style="fill: none; stroke: #b0b0b0; stroke-width: 0.8; stroke-linecap: square"/>
     </g>
     <g id="line2d_6">
      <g>
       <use xlink:href="#mabef9850b1" x="208.634056" y="139.54611" style="stroke: #000000; stroke-width: 0.8"/>
      </g>
     </g>
    </g>
    <g id="xtick_4">
     <g id="line2d_7">
      <path d="M 282.9421 139.54611 
L 282.9421 10.8 
" clip-path="url(#p30f0b55bfb)" style="fill: none; stroke: #b0b0b0; stroke-width: 0.8; stroke-linecap: square"/>
     </g>
     <g id="line2d_8">
      <g>
       <use xlink:href="#mabef9850b1" x="282.9421" y="139.54611" style="stroke: #000000; stroke-width: 0.8"/>
      </g>
     </g>
    </g>
    <g id="xtick_5">
     <g id="line2d_9">
      <path d="M 357.250145 139.54611 
L 357.250145 10.8 
" clip-path="url(#p30f0b55bfb)" style="fill: none; stroke: #b0b0b0; stroke-width: 0.8; stroke-linecap: square"/>
     </g>
     <g id="line2d_10">
      <g>
       <use xlink:href="#mabef9850b1" x="357.250145" y="139.54611" style="stroke: #000000; stroke-width: 0.8"/>
      </g>
     </g>
    </g>
    <g id="xtick_6">
     <g id="line2d_11">
      <path d="M 431.558189 139.54611 
L 431.558189 10.8 
" clip-path="url(#p30f0b55bfb)" style="fill: none; stroke: #b0b0b0; stroke-width: 0.8; stroke-linecap: square"/>
     </g>
     <g id="line2d_12">
      <g>
       <use xlink:href="#mabef9850b1" x="431.558189" y="139.54611" style="stroke: #000000; stroke-width: 0.8"/>
      </g>
     </g>
    </g>
   </g>
   <g id="matplotlib.axis_2">
    <g id="ytick_1">
     <g id="line2d_13">
      <path d="M 48.367091 139.54611 
L 450 139.54611 
" clip-path="url(#p30f0b55bfb)" style="fill: none; stroke: #b0b0b0; stroke-width: 0.8; stroke-linecap: square"/>
     </g>
     <g id="line2d_14">
      <defs>
       <path id="mf7e8232ea7" d="M 0 0 
L -3.5 0 
" style="stroke: #000000; stroke-width: 0.8"/>
      </defs>
      <g>
       <use xlink:href="#mf7e8232ea7" x="48.367091" y="139.54611" style="stroke: #000000; stroke-width: 0.8"/>
      </g>
     </g>
     <g id="text_1">
      <!-- $\mathdefault{0.0}$ -->
      <g transform="translate(28.637012 143.005359) scale(0.1 -0.1)">
       <defs>
        <path id="CMR17-30" d="M 2688 2025 
C 2688 2416 2682 3080 2413 3591 
C 2176 4039 1798 4198 1466 4198 
C 1158 4198 768 4058 525 3597 
C 269 3118 243 2524 243 2025 
C 243 1661 250 1106 448 619 
C 723 -39 1216 -128 1466 -128 
C 1760 -128 2208 -7 2470 600 
C 2662 1042 2688 1559 2688 2025 
z
M 1466 -26 
C 1056 -26 813 325 723 812 
C 653 1188 653 1738 653 2096 
C 653 2588 653 2997 736 3387 
C 858 3929 1216 4096 1466 4096 
C 1728 4096 2067 3923 2189 3400 
C 2272 3036 2278 2607 2278 2096 
C 2278 1680 2278 1169 2202 792 
C 2067 95 1690 -26 1466 -26 
z
" transform="scale(0.015625)"/>
        <path id="CMMI12-3a" d="M 1178 307 
C 1178 492 1024 619 870 619 
C 685 619 557 466 557 313 
C 557 128 710 0 864 0 
C 1050 0 1178 153 1178 307 
z
" transform="scale(0.015625)"/>
       </defs>
       <use xlink:href="#CMR17-30" transform="scale(0.996264)"/>
       <use xlink:href="#CMMI12-3a" transform="translate(45.690477 0) scale(0.996264)"/>
       <use xlink:href="#CMR17-30" transform="translate(72.787654 0) scale(0.996264)"/>
      </g>
     </g>
    </g>
    <g id="ytick_2">
     <g id="line2d_15">
      <path d="M 48.367091 112.348256 
L 450 112.348256 
" clip-path="url(#p30f0b55bfb)" style="fill: none; stroke: #b0b0b0; stroke-width: 0.8; stroke-linecap: square"/>
     </g>
     <g id="line2d_16">
      <g>
       <use xlink:href="#mf7e8232ea7" x="48.367091" y="112.348256" style="stroke: #000000; stroke-width: 0.8"/>
      </g>
     </g>
     <g id="text_2">
      <!-- $\mathdefault{0.1}$ -->
      <g transform="translate(28.637012 115.807505) scale(0.1 -0.1)">
       <defs>
        <path id="CMR17-31" d="M 1702 4058 
C 1702 4192 1696 4192 1606 4192 
C 1357 3916 979 3827 621 3827 
C 602 3827 570 3827 563 3808 
C 557 3795 557 3782 557 3648 
C 755 3648 1088 3686 1344 3839 
L 1344 461 
C 1344 236 1331 160 781 160 
L 589 160 
L 589 0 
C 896 0 1216 0 1523 0 
C 1830 0 2150 0 2458 0 
L 2458 160 
L 2266 160 
C 1715 160 1702 230 1702 458 
L 1702 4058 
z
" transform="scale(0.015625)"/>
       </defs>
       <use xlink:href="#CMR17-30" transform="scale(0.996264)"/>
       <use xlink:href="#CMMI12-3a" transform="translate(45.690477 0) scale(0.996264)"/>
       <use xlink:href="#CMR17-31" transform="translate(72.787654 0) scale(0.996264)"/>
      </g>
     </g>
    </g>
    <g id="ytick_3">
     <g id="line2d_17">
      <path d="M 48.367091 85.150402 
L 450 85.150402 
" clip-path="url(#p30f0b55bfb)" style="fill: none; stroke: #b0b0b0; stroke-width: 0.8; stroke-linecap: square"/>
     </g>
     <g id="line2d_18">
      <g>
       <use xlink:href="#mf7e8232ea7" x="48.367091" y="85.150402" style="stroke: #000000; stroke-width: 0.8"/>
      </g>
     </g>
     <g id="text_3">
      <!-- $\mathdefault{0.2}$ -->
      <g transform="translate(28.637012 88.609651) scale(0.1 -0.1)">
       <defs>
        <path id="CMR17-32" d="M 2669 989 
L 2554 989 
C 2490 536 2438 459 2413 420 
C 2381 369 1920 369 1830 369 
L 602 369 
C 832 619 1280 1072 1824 1597 
C 2214 1967 2669 2402 2669 3035 
C 2669 3790 2067 4224 1395 4224 
C 691 4224 262 3604 262 3030 
C 262 2780 448 2748 525 2748 
C 589 2748 781 2787 781 3010 
C 781 3207 614 3264 525 3264 
C 486 3264 448 3258 422 3245 
C 544 3790 915 4058 1306 4058 
C 1862 4058 2227 3617 2227 3035 
C 2227 2479 1901 2000 1536 1584 
L 262 146 
L 262 0 
L 2515 0 
L 2669 989 
z
" transform="scale(0.015625)"/>
       </defs>
       <use xlink:href="#CMR17-30" transform="scale(0.996264)"/>
       <use xlink:href="#CMMI12-3a" transform="translate(45.690477 0) scale(0.996264)"/>
       <use xlink:href="#CMR17-32" transform="translate(72.787654 0) scale(0.996264)"/>
      </g>
     </g>
    </g>
    <g id="ytick_4">
     <g id="line2d_19">
      <path d="M 48.367091 57.952548 
L 450 57.952548 
" clip-path="url(#p30f0b55bfb)" style="fill: none; stroke: #b0b0b0; stroke-width: 0.8; stroke-linecap: square"/>
     </g>
     <g id="line2d_20">
      <g>
       <use xlink:href="#mf7e8232ea7" x="48.367091" y="57.952548" style="stroke: #000000; stroke-width: 0.8"/>
      </g>
     </g>
     <g id="text_4">
      <!-- $\mathdefault{0.3}$ -->
      <g transform="translate(28.637012 61.411798) scale(0.1 -0.1)">
       <defs>
        <path id="CMR17-33" d="M 1414 2157 
C 1984 2157 2234 1662 2234 1090 
C 2234 320 1824 25 1453 25 
C 1114 25 563 194 390 693 
C 422 680 454 680 486 680 
C 640 680 755 782 755 948 
C 755 1133 614 1216 486 1216 
C 378 1216 211 1165 211 926 
C 211 335 787 -128 1466 -128 
C 2176 -128 2720 430 2720 1085 
C 2720 1707 2208 2157 1600 2227 
C 2086 2328 2554 2756 2554 3329 
C 2554 3820 2048 4179 1472 4179 
C 890 4179 378 3829 378 3329 
C 378 3110 544 3072 627 3072 
C 762 3072 877 3155 877 3321 
C 877 3486 762 3569 627 3569 
C 602 3569 570 3569 544 3557 
C 730 3959 1235 4032 1459 4032 
C 1683 4032 2106 3925 2106 3320 
C 2106 3143 2080 2828 1862 2550 
C 1670 2304 1453 2304 1242 2284 
C 1210 2284 1062 2269 1037 2269 
C 992 2263 966 2257 966 2208 
C 966 2163 973 2157 1101 2157 
L 1414 2157 
z
" transform="scale(0.015625)"/>
       </defs>
       <use xlink:href="#CMR17-30" transform="scale(0.996264)"/>
       <use xlink:href="#CMMI12-3a" transform="translate(45.690477 0) scale(0.996264)"/>
       <use xlink:href="#CMR17-33" transform="translate(72.787654 0) scale(0.996264)"/>
      </g>
     </g>
    </g>
    <g id="ytick_5">
     <g id="line2d_21">
      <path d="M 48.367091 30.754695 
L 450 30.754695 
" clip-path="url(#p30f0b55bfb)" style="fill: none; stroke: #b0b0b0; stroke-width: 0.8; stroke-linecap: square"/>
     </g>
     <g id="line2d_22">
      <g>
       <use xlink:href="#mf7e8232ea7" x="48.367091" y="30.754695" style="stroke: #000000; stroke-width: 0.8"/>
      </g>
     </g>
     <g id="text_5">
      <!-- $\mathdefault{0.4}$ -->
      <g transform="translate(28.637012 34.213944) scale(0.1 -0.1)">
       <defs>
        <path id="CMR17-34" d="M 2150 4122 
C 2150 4256 2144 4256 2029 4256 
L 128 1254 
L 128 1088 
L 1779 1088 
L 1779 457 
C 1779 224 1766 160 1318 160 
L 1197 160 
L 1197 0 
C 1402 0 1747 0 1965 0 
C 2182 0 2528 0 2733 0 
L 2733 160 
L 2611 160 
C 2163 160 2150 224 2150 457 
L 2150 1088 
L 2803 1088 
L 2803 1254 
L 2150 1254 
L 2150 4122 
z
M 1798 3703 
L 1798 1254 
L 256 1254 
L 1798 3703 
z
" transform="scale(0.015625)"/>
       </defs>
       <use xlink:href="#CMR17-30" transform="scale(0.996264)"/>
       <use xlink:href="#CMMI12-3a" transform="translate(45.690477 0) scale(0.996264)"/>
       <use xlink:href="#CMR17-34" transform="translate(72.787654 0) scale(0.996264)"/>
      </g>
     </g>
    </g>
    <g id="text_6">
     <!-- Probability Density -->
     <g transform="translate(22.699834 117.832623) rotate(-90) scale(0.1 -0.1)">
      <defs>
       <path id="CMR17-50" d="M 1267 2042 
L 2291 2042 
C 3117 2042 3718 2578 3718 3184 
C 3718 3791 3130 4352 2291 4352 
L 333 4352 
L 333 4186 
C 774 4186 845 4186 845 3899 
L 845 446 
C 845 160 774 160 333 160 
L 333 0 
C 518 0 858 0 1056 0 
C 1254 0 1594 0 1779 0 
L 1779 160 
C 1338 160 1267 160 1267 446 
L 1267 2042 
z
M 1254 2176 
L 1254 3938 
C 1254 4155 1267 4186 1523 4186 
L 2170 4186 
C 2995 4186 3232 3714 3232 3184 
C 3232 2604 2950 2176 2170 2176 
L 1254 2176 
z
" transform="scale(0.015625)"/>
       <path id="CMR17-72" d="M 960 1497 
C 960 2112 1222 2688 1702 2688 
C 1747 2688 1792 2682 1837 2662 
C 1837 2662 1696 2617 1696 2452 
C 1696 2298 1818 2234 1914 2234 
C 1990 2234 2131 2279 2131 2458 
C 2131 2663 1926 2790 1709 2790 
C 1222 2790 1011 2317 947 2093 
L 941 2093 
L 941 2790 
L 198 2720 
L 198 2554 
C 576 2554 634 2515 634 2208 
L 634 428 
C 634 184 608 153 198 153 
L 198 -13 
C 352 0 646 0 813 0 
C 998 0 1325 0 1498 -13 
L 1498 153 
C 1037 153 960 153 960 440 
L 960 1497 
z
" transform="scale(0.015625)"/>
       <path id="CMR17-6f" d="M 2758 1356 
C 2758 2176 2163 2816 1466 2816 
C 768 2816 173 2176 173 1356 
C 173 551 768 -64 1466 -64 
C 2163 -64 2758 551 2758 1356 
z
M 1466 51 
C 1165 51 909 230 762 480 
C 602 767 582 1126 582 1408 
C 582 1677 595 2010 762 2298 
C 890 2509 1139 2714 1466 2714 
C 1754 2714 1997 2554 2150 2330 
C 2349 2029 2349 1607 2349 1408 
C 2349 1158 2336 775 2163 467 
C 1984 173 1709 51 1466 51 
z
" transform="scale(0.015625)"/>
       <path id="CMR17-62" d="M 960 4396 
L 198 4326 
L 198 4160 
C 576 4160 634 4122 634 3817 
L 634 -13 
L 749 -13 
L 934 441 
C 1120 141 1395 -64 1766 -64 
C 2406 -64 3053 500 3053 1370 
C 3053 2188 2477 2790 1830 2790 
C 1434 2790 1152 2579 960 2330 
L 960 4396 
z
M 973 2004 
C 973 2118 973 2138 1062 2272 
C 1312 2657 1670 2688 1792 2688 
C 1984 2688 2643 2585 2643 1376 
C 2643 108 1888 38 1734 38 
C 1536 38 1248 114 1043 486 
C 973 608 973 621 973 735 
L 973 2004 
z
" transform="scale(0.015625)"/>
       <path id="CMR17-61" d="M 2304 1653 
C 2304 2072 2304 2294 2035 2543 
C 1798 2752 1523 2816 1306 2816 
C 800 2816 435 2407 435 1971 
C 435 1728 627 1728 666 1728 
C 749 1728 896 1778 896 1954 
C 896 2112 774 2181 666 2181 
C 640 2181 608 2174 589 2168 
C 723 2592 1069 2714 1293 2714 
C 1613 2714 1965 2429 1965 1885 
L 1965 1600 
C 1587 1600 1133 1549 774 1357 
C 371 1133 256 813 256 570 
C 256 77 832 -64 1171 -64 
C 1523 -64 1850 139 1990 511 
C 2003 233 2182 -18 2464 -18 
C 2598 -18 2938 70 2938 567 
L 2938 920 
L 2822 920 
L 2822 562 
C 2822 178 2650 128 2566 128 
C 2304 128 2304 458 2304 738 
L 2304 1653 
z
M 1965 870 
C 1965 317 1568 38 1216 38 
C 896 38 646 275 646 570 
C 646 761 730 1100 1101 1305 
C 1408 1478 1760 1504 1965 1504 
L 1965 870 
z
" transform="scale(0.015625)"/>
       <path id="CMR17-69" d="M 992 3909 
C 992 4049 877 4170 730 4170 
C 589 4170 467 4056 467 3909 
C 467 3769 582 3648 730 3648 
C 870 3648 992 3763 992 3909 
z
M 243 2706 
L 243 2541 
C 602 2541 653 2502 653 2197 
L 653 427 
C 653 184 627 153 218 153 
L 218 -13 
C 371 0 646 0 806 0 
C 960 0 1222 0 1370 -13 
L 1370 153 
C 992 153 979 191 979 420 
L 979 2776 
L 243 2706 
z
" transform="scale(0.015625)"/>
       <path id="CMR17-6c" d="M 979 4396 
L 218 4326 
L 218 4160 
C 595 4160 653 4122 653 3817 
L 653 426 
C 653 184 627 153 218 153 
L 218 -13 
C 371 0 653 0 813 0 
C 979 0 1261 0 1414 -13 
L 1414 153 
C 1005 153 979 178 979 426 
L 979 4396 
z
" transform="scale(0.015625)"/>
       <path id="CMR17-74" d="M 966 2560 
L 1862 2560 
L 1862 2725 
L 966 2725 
L 966 3904 
L 851 3904 
C 838 3245 614 2668 70 2668 
L 70 2560 
L 627 2560 
L 627 771 
C 627 650 627 -64 1370 -64 
C 1747 -64 1965 306 1965 777 
L 1965 1140 
L 1850 1140 
L 1850 783 
C 1850 344 1677 51 1408 51 
C 1222 51 966 178 966 758 
L 966 2560 
z
" transform="scale(0.015625)"/>
       <path id="CMR17-79" d="M 2496 2197 
C 2656 2586 2944 2586 3034 2586 
L 3034 2752 
C 2912 2752 2752 2752 2630 2752 
C 2496 2752 2285 2752 2157 2758 
L 2157 2592 
C 2400 2573 2406 2394 2406 2343 
C 2406 2280 2394 2248 2362 2171 
L 1664 449 
L 902 2306 
C 870 2382 870 2426 870 2433 
C 870 2573 1018 2586 1171 2586 
L 1171 2758 
C 1018 2752 742 2752 582 2752 
C 410 2752 205 2752 64 2758 
L 64 2586 
C 410 2586 448 2554 531 2350 
L 1485 15 
C 1197 -738 1030 -1178 627 -1178 
C 557 -1178 397 -1159 282 -1044 
C 429 -1031 493 -942 493 -833 
C 493 -725 416 -629 288 -629 
C 147 -629 77 -725 77 -840 
C 77 -1095 339 -1280 627 -1280 
C 998 -1280 1229 -922 1357 -604 
L 2496 2197 
z
" transform="scale(0.015625)"/>
       <path id="CMR17-44" d="M 333 4352 
L 333 4186 
C 774 4186 845 4186 845 3900 
L 845 452 
C 845 166 774 166 333 166 
L 333 0 
L 2368 0 
C 3398 0 4224 943 4224 2141 
C 4224 3346 3411 4352 2368 4352 
L 333 4352 
z
M 1523 166 
C 1267 166 1254 197 1254 414 
L 1254 3938 
C 1254 4155 1267 4186 1523 4186 
L 2240 4186 
C 2771 4186 3750 3874 3750 2141 
C 3750 1242 3488 879 3366 707 
C 3213 510 2848 166 2240 166 
L 1523 166 
z
" transform="scale(0.015625)"/>
       <path id="CMR17-65" d="M 2438 1472 
C 2464 1498 2464 1511 2464 1576 
C 2464 2238 2118 2816 1389 2816 
C 710 2816 173 2169 173 1383 
C 173 551 781 -64 1459 -64 
C 2176 -64 2458 607 2458 740 
C 2458 784 2419 784 2406 784 
C 2362 784 2355 771 2330 696 
C 2189 265 1837 51 1504 51 
C 1229 51 954 203 781 480 
C 582 803 582 1176 582 1472 
L 2438 1472 
z
M 589 1568 
C 634 2505 1126 2714 1382 2714 
C 1818 2714 2112 2297 2118 1568 
L 589 1568 
z
" transform="scale(0.015625)"/>
       <path id="CMR17-6e" d="M 2656 1933 
C 2656 2259 2592 2790 1837 2790 
C 1331 2790 1069 2400 973 2144 
L 966 2144 
L 966 2790 
L 211 2720 
L 211 2554 
C 589 2554 646 2515 646 2208 
L 646 428 
C 646 184 621 153 211 153 
L 211 -13 
C 365 0 646 0 813 0 
C 979 0 1267 0 1421 -13 
L 1421 153 
C 1011 153 986 178 986 428 
L 986 1658 
C 986 2247 1344 2688 1792 2688 
C 2266 2688 2317 2266 2317 1958 
L 2317 428 
C 2317 184 2291 153 1882 153 
L 1882 -13 
C 2035 0 2317 0 2483 0 
C 2650 0 2938 0 3091 -13 
L 3091 153 
C 2682 153 2656 178 2656 428 
L 2656 1933 
z
" transform="scale(0.015625)"/>
       <path id="CMR17-73" d="M 1978 2697 
C 1978 2813 1971 2819 1933 2819 
C 1907 2819 1901 2813 1824 2717 
C 1805 2691 1747 2626 1728 2601 
C 1523 2819 1235 2819 1126 2819 
C 416 2819 160 2447 160 2076 
C 160 1498 813 1365 998 1325 
C 1402 1243 1542 1217 1677 1101 
C 1760 1025 1901 884 1901 654 
C 1901 384 1747 38 1158 38 
C 602 38 403 460 288 1021 
C 269 1110 269 1117 218 1117 
C 166 1117 160 1110 160 983 
L 160 63 
C 160 -51 166 -58 205 -58 
C 237 -58 243 -51 275 0 
C 314 57 410 211 448 276 
C 576 103 800 -64 1158 -64 
C 1792 -64 2131 283 2131 784 
C 2131 1112 1958 1285 1875 1362 
C 1683 1561 1459 1606 1190 1657 
C 838 1735 390 1825 390 2217 
C 390 2383 480 2737 1126 2737 
C 1811 2737 1850 2094 1862 1888 
C 1869 1856 1901 1849 1920 1849 
C 1978 1849 1978 1869 1978 1978 
L 1978 2697 
z
" transform="scale(0.015625)"/>
      </defs>
      <use xlink:href="#CMR17-50" transform="scale(0.996264)"/>
      <use xlink:href="#CMR17-72" transform="translate(62.586301 0) scale(0.996264)"/>
      <use xlink:href="#CMR17-6f" transform="translate(97.867068 0) scale(0.996264)"/>
      <use xlink:href="#CMR17-62" transform="translate(143.557545 0) scale(0.996264)"/>
      <use xlink:href="#CMR17-61" transform="translate(194.452915 0) scale(0.996264)"/>
      <use xlink:href="#CMR17-62" transform="translate(240.143392 0) scale(0.996264)"/>
      <use xlink:href="#CMR17-69" transform="translate(291.038762 0) scale(0.996264)"/>
      <use xlink:href="#CMR17-6c" transform="translate(315.909821 0) scale(0.996264)"/>
      <use xlink:href="#CMR17-69" transform="translate(340.780879 0) scale(0.996264)"/>
      <use xlink:href="#CMR17-74" transform="translate(365.651938 0) scale(0.996264)"/>
      <use xlink:href="#CMR17-79" transform="translate(398.330251 0) scale(0.996264)"/>
      <use xlink:href="#CMR17-44" transform="translate(476.699134 0) scale(0.996264)"/>
      <use xlink:href="#CMR17-65" transform="translate(547.09269 0) scale(0.996264)"/>
      <use xlink:href="#CMR17-6e" transform="translate(587.57835 0) scale(0.996264)"/>
      <use xlink:href="#CMR17-73" transform="translate(638.47372 0) scale(0.996264)"/>
      <use xlink:href="#CMR17-69" transform="translate(674.275057 0) scale(0.996264)"/>
      <use xlink:href="#CMR17-74" transform="translate(699.146116 0) scale(0.996264)"/>
      <use xlink:href="#CMR17-79" transform="translate(731.82443 0) scale(0.996264)"/>
     </g>
    </g>
   </g>
   <g id="line2d_23">
    <path d="M 66.623132 139.54611 
L 67.377509 130.126522 
L 68.515953 120.276247 
L 70.046816 109.546738 
L 71.592594 100.453113 
L 73.153434 92.546902 
L 74.729482 85.597842 
L 76.320887 79.461236 
L 77.927797 74.035193 
L 79.550365 69.242482 
L 81.188743 65.021493 
L 82.843084 61.3212 
L 84.513544 58.09814 
L 86.200281 55.314478 
L 87.903453 52.936713 
L 89.62322 50.934775 
L 91.359744 49.281382 
L 93.113188 47.95156 
L 94.883716 46.922281 
L 96.671496 46.172188 
L 98.476696 45.681378 
L 100.299485 45.431225 
L 102.140034 45.404246 
L 103.998517 45.583984 
L 105.875109 45.954911 
L 108.246582 46.665155 
L 110.646973 47.624323 
L 113.566113 49.068555 
L 116.52802 50.794571 
L 120.03847 53.114634 
L 124.124035 56.103718 
L 129.343681 60.239278 
L 136.321163 66.08415 
L 153.874611 80.912779 
L 161.031593 86.60968 
L 167.156853 91.223651 
L 173.432412 95.670664 
L 179.211966 99.50252 
L 185.118998 103.153389 
L 191.15632 106.609406 
L 197.326806 109.861002 
L 202.925848 112.574972 
L 208.634531 115.121049 
L 214.455003 117.499303 
L 221.139384 119.976406 
L 227.9712 122.24781 
L 234.953705 124.319911 
L 242.090221 126.200628 
L 249.384146 127.899083 
L 257.677347 129.584708 
L 266.174042 131.072372 
L 274.879224 132.3773 
L 284.701835 133.62009 
L 295.720398 134.768967 
L 307.064192 135.726984 
L 319.731457 136.577867 
L 334.852287 137.354874 
L 351.598853 137.985082 
L 371.231679 138.500871 
L 396.420371 138.924363 
L 429.227323 139.23224 
L 431.743959 139.24836 
L 431.743959 139.24836 
" clip-path="url(#p30f0b55bfb)" style="fill: none; stroke: #1f77b4; stroke-width: 1.5; stroke-linecap: square"/>
   </g>
   <g id="patch_23">
    <path d="M 48.367091 139.54611 
L 48.367091 10.8 
" style="fill: none; stroke: #000000; stroke-width: 0.8; stroke-linejoin: miter; stroke-linecap: square"/>
   </g>
   <g id="patch_24">
    <path d="M 450 139.54611 
L 450 10.8 
" style="fill: none; stroke: #000000; stroke-width: 0.8; stroke-linejoin: miter; stroke-linecap: square"/>
   </g>
   <g id="patch_25">
    <path d="M 48.367091 139.54611 
L 450 139.54611 
" style="fill: none; stroke: #000000; stroke-width: 0.8; stroke-linejoin: miter; stroke-linecap: square"/>
   </g>
   <g id="patch_26">
    <path d="M 48.367091 10.8 
L 450 10.8 
" style="fill: none; stroke: #000000; stroke-width: 0.8; stroke-linejoin: miter; stroke-linecap: square"/>
   </g>
   <g id="text_7">
    <g id="patch_27">
     <path d="M 357.250145 88.397392 
L 401.293296 88.397392 
Q 404.293296 88.397392 404.293296 85.397392 
L 404.293296 30.754695 
Q 404.293296 27.754695 401.293296 27.754695 
L 357.250145 27.754695 
Q 354.250145 27.754695 354.250145 30.754695 
L 354.250145 85.397392 
Q 354.250145 88.397392 357.250145 88.397392 
z
" style="fill: #ffffff; stroke: #000000; stroke-linejoin: miter"/>
    </g>
    <!-- $\Estimated{\Mean} = \num{6.124}$ -->
    <g transform="translate(357.250145 37.673193) scale(0.1 -0.1)">
     <defs>
      <path id="CMR17-5e" d="M 1466 4421 
L 678 3555 
L 755 3478 
L 1466 4166 
L 2176 3478 
L 2253 3555 
L 1466 4421 
z
" transform="scale(0.015625)"/>
      <path id="CMMI12-16" d="M 922 140 
C 1082 -6 1318 -64 1536 -64 
C 1946 -64 2227 208 2374 405 
C 2438 69 2707 -64 2931 -64 
C 3123 -64 3277 50 3392 277 
C 3494 493 3584 879 3584 903 
C 3584 935 3558 960 3520 960 
C 3462 960 3456 928 3430 834 
C 3334 461 3213 64 2950 64 
C 2765 64 2752 229 2752 358 
C 2752 504 2810 735 2854 926 
L 3034 1615 
C 3059 1737 3130 2023 3162 2139 
C 3200 2292 3270 2567 3270 2592 
C 3270 2688 3194 2752 3098 2752 
C 3040 2752 2906 2726 2854 2535 
L 2406 760 
C 2374 632 2374 619 2291 517 
C 2214 409 1965 64 1562 64 
C 1203 64 1088 326 1088 625 
C 1088 811 1146 1034 1171 1143 
L 1459 2293 
C 1491 2414 1542 2618 1542 2657 
C 1542 2759 1459 2816 1376 2816 
C 1318 2816 1178 2797 1126 2592 
L 198 -1107 
C 192 -1139 179 -1177 179 -1216 
C 179 -1312 256 -1376 352 -1376 
C 538 -1376 576 -1228 621 -1050 
L 922 140 
z
" transform="scale(0.015625)"/>
      <path id="CMR17-3d" d="M 4115 2017 
C 4211 2017 4307 2017 4307 2125 
C 4307 2240 4198 2240 4090 2240 
L 512 2240 
C 403 2240 294 2240 294 2125 
C 294 2017 390 2017 486 2017 
L 4115 2017 
z
M 4090 896 
C 4198 896 4307 896 4307 1011 
C 4307 1119 4211 1119 4115 1119 
L 486 1119 
C 390 1119 294 1119 294 1011 
C 294 896 403 896 512 896 
L 4090 896 
z
" transform="scale(0.015625)"/>
      <path id="CMR17-36" d="M 678 2176 
C 678 3690 1395 4032 1811 4032 
C 1946 4032 2272 4009 2400 3776 
C 2298 3776 2106 3776 2106 3553 
C 2106 3381 2246 3323 2336 3323 
C 2394 3323 2566 3348 2566 3560 
C 2566 3954 2246 4179 1805 4179 
C 1043 4179 243 3390 243 1984 
C 243 253 966 -128 1478 -128 
C 2099 -128 2688 427 2688 1283 
C 2688 2081 2170 2662 1517 2662 
C 1126 2662 838 2407 678 1960 
L 678 2176 
z
M 1478 25 
C 691 25 691 1200 691 1436 
C 691 1896 909 2560 1504 2560 
C 1613 2560 1926 2560 2138 2120 
C 2253 1870 2253 1609 2253 1289 
C 2253 944 2253 690 2118 434 
C 1978 171 1773 25 1478 25 
z
" transform="scale(0.015625)"/>
     </defs>
     <use xlink:href="#CMR17-5e" transform="translate(9.210197 0.006461) scale(0.996264)"/>
     <use xlink:href="#CMMI12-16" transform="scale(0.996264)"/>
     <use xlink:href="#CMR17-3d" transform="translate(86.36543 0) scale(0.996264)"/>
     <use xlink:href="#CMR17-36" transform="translate(185.754227 0) scale(0.996264)"/>
     <use xlink:href="#CMMI12-3a" transform="translate(231.444704 0) scale(0.996264)"/>
     <use xlink:href="#CMR17-31" transform="translate(258.541882 0) scale(0.996264)"/>
     <use xlink:href="#CMR17-32" transform="translate(304.232359 0) scale(0.996264)"/>
     <use xlink:href="#CMR17-34" transform="translate(349.922836 0) scale(0.996264)"/>
    </g>
    <!-- $\Estimated{\StandardDeviation} = \num{1.791}$ -->
    <g transform="translate(357.250145 47.912569) scale(0.1 -0.1)">
     <defs>
      <path id="CMMI12-1b" d="M 3251 2408 
C 3334 2408 3546 2408 3546 2612 
C 3546 2752 3424 2752 3309 2752 
L 1894 2752 
C 934 2752 243 1686 243 932 
C 243 390 595 -64 1171 -64 
C 1926 -64 2752 747 2752 1705 
C 2752 1954 2694 2196 2541 2408 
L 3251 2408 
z
M 1178 64 
C 851 64 614 313 614 754 
C 614 1137 845 2408 1786 2408 
C 2061 2408 2368 2274 2368 1781 
C 2368 1558 2266 1021 2042 652 
C 1811 275 1466 64 1178 64 
z
" transform="scale(0.015625)"/>
      <path id="CMR17-37" d="M 2886 3941 
L 2886 4081 
L 1382 4081 
C 634 4081 621 4165 595 4288 
L 480 4288 
L 294 3094 
L 410 3094 
C 429 3215 474 3540 550 3661 
C 589 3712 1062 3712 1171 3712 
L 2579 3712 
L 1869 2661 
C 1395 1954 1069 999 1069 165 
C 1069 89 1069 -128 1299 -128 
C 1530 -128 1530 89 1530 171 
L 1530 465 
C 1530 1508 1709 2196 2003 2636 
L 2886 3941 
z
" transform="scale(0.015625)"/>
      <path id="CMR17-39" d="M 2253 1864 
C 2253 464 1670 31 1190 31 
C 1043 31 685 31 538 294 
C 704 268 826 357 826 518 
C 826 692 685 749 595 749 
C 538 749 365 723 365 506 
C 365 71 742 -128 1203 -128 
C 1939 -128 2688 674 2688 2073 
C 2688 3817 1971 4179 1485 4179 
C 851 4179 243 3628 243 2778 
C 243 1991 762 1408 1414 1408 
C 1952 1408 2189 1903 2253 2112 
L 2253 1864 
z
M 1427 1510 
C 1254 1510 1011 1542 813 1922 
C 678 2169 678 2461 678 2771 
C 678 3146 678 3405 858 3684 
C 947 3817 1114 4032 1485 4032 
C 2240 4032 2240 2885 2240 2632 
C 2240 2182 2035 1510 1427 1510 
z
" transform="scale(0.015625)"/>
     </defs>
     <use xlink:href="#CMR17-5e" transform="translate(6.664796 0.006461) scale(0.996264)"/>
     <use xlink:href="#CMMI12-1b" transform="scale(0.996264)"/>
     <use xlink:href="#CMR17-3d" transform="translate(86.694062 0) scale(0.996264)"/>
     <use xlink:href="#CMR17-31" transform="translate(186.082859 0) scale(0.996264)"/>
     <use xlink:href="#CMMI12-3a" transform="translate(231.773337 0) scale(0.996264)"/>
     <use xlink:href="#CMR17-37" transform="translate(258.870514 0) scale(0.996264)"/>
     <use xlink:href="#CMR17-39" transform="translate(304.560991 0) scale(0.996264)"/>
     <use xlink:href="#CMR17-31" transform="translate(350.251468 0) scale(0.996264)"/>
    </g>
    <!-- $\Estimated{\GammaDistributionAlpha} = \num{1.807}$ -->
    <g transform="translate(357.250145 58.151946) scale(0.1 -0.1)">
     <defs>
      <path id="CMMI12-b" d="M 2963 1616 
C 2963 2235 2611 2815 1933 2815 
C 1094 2815 256 1902 256 996 
C 256 441 602 -64 1254 -64 
C 1651 -64 2125 89 2579 472 
C 2669 115 2867 -64 3142 -64 
C 3488 -64 3661 294 3661 377 
C 3661 434 3616 434 3597 434 
C 3546 434 3539 415 3520 364 
C 3462 204 3315 64 3162 64 
C 2963 64 2963 472 2963 862 
C 3616 1641 3770 2446 3770 2452 
C 3770 2510 3718 2510 3699 2510 
C 3642 2510 3635 2491 3610 2376 
C 3526 2095 3360 1597 2963 1073 
L 2963 1616 
z
M 2560 626 
C 1997 121 1491 64 1267 64 
C 813 64 685 466 685 766 
C 685 1040 826 1692 1024 2044 
C 1286 2491 1645 2688 1933 2688 
C 2554 2688 2554 1877 2554 1341 
C 2554 1182 2547 1016 2547 856 
C 2547 728 2554 696 2560 626 
z
" transform="scale(0.015625)"/>
      <path id="CMR17-38" d="M 1741 2264 
C 2144 2467 2554 2773 2554 3263 
C 2554 3841 1990 4179 1472 4179 
C 890 4179 378 3759 378 3180 
C 378 3021 416 2747 666 2505 
C 730 2442 998 2251 1171 2130 
C 883 1983 211 1634 211 934 
C 211 279 838 -128 1459 -128 
C 2144 -128 2720 362 2720 1010 
C 2720 1590 2330 1857 2074 2029 
L 1741 2264 
z
M 902 2822 
C 851 2854 595 3051 595 3351 
C 595 3739 998 4032 1459 4032 
C 1965 4032 2336 3676 2336 3262 
C 2336 2669 1670 2331 1638 2331 
C 1632 2331 1626 2331 1574 2370 
L 902 2822 
z
M 2080 1519 
C 2176 1449 2483 1240 2483 851 
C 2483 381 2010 25 1472 25 
C 890 25 448 438 448 940 
C 448 1443 838 1862 1280 2060 
L 2080 1519 
z
" transform="scale(0.015625)"/>
     </defs>
     <use xlink:href="#CMR17-5e" transform="translate(11.204991 0.006461) scale(0.996264)"/>
     <use xlink:href="#CMMI12-b" transform="scale(0.996264)"/>
     <use xlink:href="#CMR17-3d" transform="translate(90.355032 0) scale(0.996264)"/>
     <use xlink:href="#CMR17-31" transform="translate(189.743829 0) scale(0.996264)"/>
     <use xlink:href="#CMMI12-3a" transform="translate(235.434306 0) scale(0.996264)"/>
     <use xlink:href="#CMR17-38" transform="translate(262.531483 0) scale(0.996264)"/>
     <use xlink:href="#CMR17-30" transform="translate(308.22196 0) scale(0.996264)"/>
     <use xlink:href="#CMR17-37" transform="translate(353.912437 0) scale(0.996264)"/>
    </g>
    <!-- $\Estimated{\GammaDistributionBeta} = \num{1.162}$ -->
    <g transform="translate(357.250145 71.546172) scale(0.1 -0.1)">
     <defs>
      <path id="CMMI12-c" d="M 3622 3701 
C 3622 4081 3296 4480 2714 4480 
C 1888 4480 1363 3477 1197 2816 
L 186 -1172 
C 173 -1223 211 -1236 243 -1236 
C 288 -1236 320 -1230 326 -1198 
L 774 586 
C 838 229 1190 -64 1568 -64 
C 2483 -64 3347 650 3347 1599 
C 3347 1841 3290 2083 3155 2287 
C 3078 2408 2982 2497 2880 2574 
C 3341 2815 3622 3200 3622 3701 
z
M 2509 2580 
C 2406 2542 2304 2529 2182 2529 
C 2093 2529 2010 2523 1894 2561 
C 1958 2606 2054 2618 2189 2618 
C 2304 2618 2419 2606 2509 2580 
z
M 3290 3758 
C 3290 3410 3117 2903 2701 2669 
C 2579 2718 2413 2752 2272 2752 
C 2138 2752 1754 2752 1754 2555 
C 1754 2389 2106 2389 2214 2389 
C 2381 2389 2528 2432 2682 2484 
C 2886 2318 2976 2101 2976 1783 
C 2976 1413 2874 1115 2752 841 
C 2541 369 2042 64 1600 64 
C 1133 64 890 432 890 864 
C 890 922 890 1005 915 1099 
L 1331 2771 
C 1542 3603 2080 4353 2701 4353 
C 3162 4353 3290 4036 3290 3758 
z
" transform="scale(0.015625)"/>
     </defs>
     <use xlink:href="#CMR17-5e" transform="translate(15.58093 26.296621) scale(0.996264)"/>
     <use xlink:href="#CMMI12-c" transform="scale(0.996264)"/>
     <use xlink:href="#CMR17-3d" transform="translate(88.268024 0) scale(0.996264)"/>
     <use xlink:href="#CMR17-31" transform="translate(187.656822 0) scale(0.996264)"/>
     <use xlink:href="#CMMI12-3a" transform="translate(233.347299 0) scale(0.996264)"/>
     <use xlink:href="#CMR17-31" transform="translate(260.444476 0) scale(0.996264)"/>
     <use xlink:href="#CMR17-36" transform="translate(306.134953 0) scale(0.996264)"/>
     <use xlink:href="#CMR17-32" transform="translate(351.82543 0) scale(0.996264)"/>
    </g>
    <!-- $\Estimated{\MinPauseDuration} = \num{4.178}$ -->
    <g transform="translate(357.250145 83.460214) scale(0.1 -0.1)">
     <defs>
      <path id="CMMI12-74" d="M 1286 2566 
L 1875 2566 
C 1997 2566 2061 2566 2061 2681 
C 2061 2752 2022 2752 1894 2752 
L 1331 2752 
L 1568 3692 
C 1594 3781 1594 3794 1594 3840 
C 1594 3943 1510 4000 1427 4000 
C 1376 4000 1229 3981 1178 3775 
L 928 2752 
L 326 2752 
C 198 2752 141 2752 141 2630 
C 141 2566 186 2566 307 2566 
L 877 2566 
L 454 881 
C 403 658 384 594 384 511 
C 384 211 595 -64 954 -64 
C 1600 -64 1946 868 1946 912 
C 1946 951 1920 970 1882 970 
C 1869 970 1843 970 1830 944 
C 1824 938 1818 931 1773 829 
C 1638 511 1344 64 973 64 
C 781 64 768 224 768 364 
C 768 370 768 492 787 568 
L 1286 2566 
z
" transform="scale(0.015625)"/>
     </defs>
     <use xlink:href="#CMR17-5e" transform="translate(11.008584 18.389976) scale(0.996264)"/>
     <use xlink:href="#CMMI12-74" transform="scale(0.996264)"/>
     <use xlink:href="#CMR17-30" transform="translate(35.22633 -14.943915) scale(0.697382)"/>
     <use xlink:href="#CMR17-3d" transform="translate(95.381653 0) scale(0.996264)"/>
     <use xlink:href="#CMR17-34" transform="translate(194.77045 0) scale(0.996264)"/>
     <use xlink:href="#CMMI12-3a" transform="translate(240.460927 0) scale(0.996264)"/>
     <use xlink:href="#CMR17-31" transform="translate(267.558104 0) scale(0.996264)"/>
     <use xlink:href="#CMR17-37" transform="translate(313.248581 0) scale(0.996264)"/>
     <use xlink:href="#CMR17-38" transform="translate(358.939058 0) scale(0.996264)"/>
    </g>
   </g>
  </g>
  <g id="axes_2">
   <g id="patch_28">
    <path d="M 48.367091 284.488647 
L 450 284.488647 
L 450 155.742537 
L 48.367091 155.742537 
z
" style="fill: #ffffff"/>
   </g>
   <g id="patch_29">
    <path d="M 66.623132 284.488647 
L 84.879174 284.488647 
L 84.879174 271.154757 
L 66.623132 271.154757 
z
" clip-path="url(#pa5d7613d32)" style="fill: #1f77b4; opacity: 0.5"/>
   </g>
   <g id="patch_30">
    <path d="M 84.879174 284.488647 
L 103.135215 284.488647 
L 103.135215 255.598553 
L 84.879174 255.598553 
z
" clip-path="url(#pa5d7613d32)" style="fill: #1f77b4; opacity: 0.5"/>
   </g>
   <g id="patch_31">
    <path d="M 103.135215 284.488647 
L 121.391256 284.488647 
L 121.391256 229.671546 
L 103.135215 229.671546 
z
" clip-path="url(#pa5d7613d32)" style="fill: #1f77b4; opacity: 0.5"/>
   </g>
   <g id="patch_32">
    <path d="M 121.391256 284.488647 
L 139.647298 284.488647 
L 139.647298 217.078428 
L 121.391256 217.078428 
z
" clip-path="url(#pa5d7613d32)" style="fill: #1f77b4; opacity: 0.5"/>
   </g>
   <g id="patch_33">
    <path d="M 139.647298 284.488647 
L 157.903339 284.488647 
L 157.903339 205.226082 
L 139.647298 205.226082 
z
" clip-path="url(#pa5d7613d32)" style="fill: #1f77b4; opacity: 0.5"/>
   </g>
   <g id="patch_34">
    <path d="M 157.903339 284.488647 
L 176.15938 284.488647 
L 176.15938 191.892193 
L 157.903339 191.892193 
z
" clip-path="url(#pa5d7613d32)" style="fill: #1f77b4; opacity: 0.5"/>
   </g>
   <g id="patch_35">
    <path d="M 176.15938 284.488647 
L 194.415422 284.488647 
L 194.415422 188.188335 
L 176.15938 188.188335 
z
" clip-path="url(#pa5d7613d32)" style="fill: #1f77b4; opacity: 0.5"/>
   </g>
   <g id="patch_36">
    <path d="M 194.415422 284.488647 
L 212.671463 284.488647 
L 212.671463 181.52139 
L 194.415422 181.52139 
z
" clip-path="url(#pa5d7613d32)" style="fill: #1f77b4; opacity: 0.5"/>
   </g>
   <g id="patch_37">
    <path d="M 212.671463 284.488647 
L 230.927504 284.488647 
L 230.927504 177.817532 
L 212.671463 177.817532 
z
" clip-path="url(#pa5d7613d32)" style="fill: #1f77b4; opacity: 0.5"/>
   </g>
   <g id="patch_38">
    <path d="M 230.927504 284.488647 
L 249.183545 284.488647 
L 249.183545 176.335988 
L 230.927504 176.335988 
z
" clip-path="url(#pa5d7613d32)" style="fill: #1f77b4; opacity: 0.5"/>
   </g>
   <g id="patch_39">
    <path d="M 249.183545 284.488647 
L 267.439587 284.488647 
L 267.439587 175.595217 
L 249.183545 175.595217 
z
" clip-path="url(#pa5d7613d32)" style="fill: #1f77b4; opacity: 0.5"/>
   </g>
   <g id="patch_40">
    <path d="M 267.439587 284.488647 
L 285.695628 284.488647 
L 285.695628 173.372902 
L 267.439587 173.372902 
z
" clip-path="url(#pa5d7613d32)" style="fill: #1f77b4; opacity: 0.5"/>
   </g>
   <g id="patch_41">
    <path d="M 285.695628 284.488647 
L 303.951669 284.488647 
L 303.951669 171.891359 
L 285.695628 171.891359 
z
" clip-path="url(#pa5d7613d32)" style="fill: #1f77b4; opacity: 0.5"/>
   </g>
   <g id="patch_42">
    <path d="M 303.951669 284.488647 
L 322.207711 284.488647 
L 322.207711 171.150587 
L 303.951669 171.150587 
z
" clip-path="url(#pa5d7613d32)" style="fill: #1f77b4; opacity: 0.5"/>
   </g>
   <g id="patch_43">
    <path d="M 322.207711 284.488647 
L 340.463752 284.488647 
L 340.463752 169.669044 
L 322.207711 169.669044 
z
" clip-path="url(#pa5d7613d32)" style="fill: #1f77b4; opacity: 0.5"/>
   </g>
   <g id="patch_44">
    <path d="M 340.463752 284.488647 
L 358.719793 284.488647 
L 358.719793 168.928272 
L 340.463752 168.928272 
z
" clip-path="url(#pa5d7613d32)" style="fill: #1f77b4; opacity: 0.5"/>
   </g>
   <g id="patch_45">
    <path d="M 358.719793 284.488647 
L 376.975835 284.488647 
L 376.975835 168.1875 
L 358.719793 168.1875 
z
" clip-path="url(#pa5d7613d32)" style="fill: #1f77b4; opacity: 0.5"/>
   </g>
   <g id="patch_46">
    <path d="M 376.975835 284.488647 
L 395.231876 284.488647 
L 395.231876 168.1875 
L 376.975835 168.1875 
z
" clip-path="url(#pa5d7613d32)" style="fill: #1f77b4; opacity: 0.5"/>
   </g>
   <g id="patch_47">
    <path d="M 395.231876 284.488647 
L 413.487917 284.488647 
L 413.487917 168.1875 
L 395.231876 168.1875 
z
" clip-path="url(#pa5d7613d32)" style="fill: #1f77b4; opacity: 0.5"/>
   </g>
   <g id="patch_48">
    <path d="M 413.487917 284.488647 
L 431.743959 284.488647 
L 431.743959 167.446729 
L 413.487917 167.446729 
z
" clip-path="url(#pa5d7613d32)" style="fill: #1f77b4; opacity: 0.5"/>
   </g>
   <g id="matplotlib.axis_3">
    <g id="xtick_7">
     <g id="line2d_24">
      <path d="M 60.017968 284.488647 
L 60.017968 155.742537 
" clip-path="url(#pa5d7613d32)" style="fill: none; stroke: #b0b0b0; stroke-width: 0.8; stroke-linecap: square"/>
     </g>
     <g id="line2d_25">
      <g>
       <use xlink:href="#mabef9850b1" x="60.017968" y="284.488647" style="stroke: #000000; stroke-width: 0.8"/>
      </g>
     </g>
     <g id="text_8">
      <!-- $\mathdefault{4}$ -->
      <g transform="translate(57.527301 298.407145) scale(0.1 -0.1)">
       <use xlink:href="#CMR17-34" transform="scale(0.996264)"/>
      </g>
     </g>
    </g>
    <g id="xtick_8">
     <g id="line2d_26">
      <path d="M 134.326012 284.488647 
L 134.326012 155.742537 
" clip-path="url(#pa5d7613d32)" style="fill: none; stroke: #b0b0b0; stroke-width: 0.8; stroke-linecap: square"/>
     </g>
     <g id="line2d_27">
      <g>
       <use xlink:href="#mabef9850b1" x="134.326012" y="284.488647" style="stroke: #000000; stroke-width: 0.8"/>
      </g>
     </g>
     <g id="text_9">
      <!-- $\mathdefault{6}$ -->
      <g transform="translate(131.835345 298.407145) scale(0.1 -0.1)">
       <use xlink:href="#CMR17-36" transform="scale(0.996264)"/>
      </g>
     </g>
    </g>
    <g id="xtick_9">
     <g id="line2d_28">
      <path d="M 208.634056 284.488647 
L 208.634056 155.742537 
" clip-path="url(#pa5d7613d32)" style="fill: none; stroke: #b0b0b0; stroke-width: 0.8; stroke-linecap: square"/>
     </g>
     <g id="line2d_29">
      <g>
       <use xlink:href="#mabef9850b1" x="208.634056" y="284.488647" style="stroke: #000000; stroke-width: 0.8"/>
      </g>
     </g>
     <g id="text_10">
      <!-- $\mathdefault{8}$ -->
      <g transform="translate(206.143389 298.407145) scale(0.1 -0.1)">
       <use xlink:href="#CMR17-38" transform="scale(0.996264)"/>
      </g>
     </g>
    </g>
    <g id="xtick_10">
     <g id="line2d_30">
      <path d="M 282.9421 284.488647 
L 282.9421 155.742537 
" clip-path="url(#pa5d7613d32)" style="fill: none; stroke: #b0b0b0; stroke-width: 0.8; stroke-linecap: square"/>
     </g>
     <g id="line2d_31">
      <g>
       <use xlink:href="#mabef9850b1" x="282.9421" y="284.488647" style="stroke: #000000; stroke-width: 0.8"/>
      </g>
     </g>
     <g id="text_11">
      <!-- $\mathdefault{10}$ -->
      <g transform="translate(277.960765 298.407145) scale(0.1 -0.1)">
       <use xlink:href="#CMR17-31" transform="scale(0.996264)"/>
       <use xlink:href="#CMR17-30" transform="translate(45.690477 0) scale(0.996264)"/>
      </g>
     </g>
    </g>
    <g id="xtick_11">
     <g id="line2d_32">
      <path d="M 357.250145 284.488647 
L 357.250145 155.742537 
" clip-path="url(#pa5d7613d32)" style="fill: none; stroke: #b0b0b0; stroke-width: 0.8; stroke-linecap: square"/>
     </g>
     <g id="line2d_33">
      <g>
       <use xlink:href="#mabef9850b1" x="357.250145" y="284.488647" style="stroke: #000000; stroke-width: 0.8"/>
      </g>
     </g>
     <g id="text_12">
      <!-- $\mathdefault{12}$ -->
      <g transform="translate(352.268809 298.407145) scale(0.1 -0.1)">
       <use xlink:href="#CMR17-31" transform="scale(0.996264)"/>
       <use xlink:href="#CMR17-32" transform="translate(45.690477 0) scale(0.996264)"/>
      </g>
     </g>
    </g>
    <g id="xtick_12">
     <g id="line2d_34">
      <path d="M 431.558189 284.488647 
L 431.558189 155.742537 
" clip-path="url(#pa5d7613d32)" style="fill: none; stroke: #b0b0b0; stroke-width: 0.8; stroke-linecap: square"/>
     </g>
     <g id="line2d_35">
      <g>
       <use xlink:href="#mabef9850b1" x="431.558189" y="284.488647" style="stroke: #000000; stroke-width: 0.8"/>
      </g>
     </g>
     <g id="text_13">
      <!-- $\mathdefault{14}$ -->
      <g transform="translate(426.576853 298.407145) scale(0.1 -0.1)">
       <use xlink:href="#CMR17-31" transform="scale(0.996264)"/>
       <use xlink:href="#CMR17-34" transform="translate(45.690477 0) scale(0.996264)"/>
      </g>
     </g>
    </g>
    <g id="text_14">
     <!-- Pause Duration $\PauseDuration$ in s -->
     <g transform="translate(202.345227 311.262822) scale(0.1 -0.1)">
      <defs>
       <path id="CMR17-75" d="M 1882 2693 
L 1882 2528 
C 2259 2528 2317 2489 2317 2186 
L 2317 1032 
C 2317 500 2029 38 1555 38 
C 1030 38 986 348 986 678 
L 986 2763 
L 211 2693 
L 211 2528 
C 467 2528 640 2528 646 2274 
L 646 1058 
C 646 633 646 361 813 183 
C 896 101 1056 -64 1517 -64 
C 2061 -64 2272 377 2323 506 
L 2330 506 
L 2330 -63 
L 3091 -63 
L 3091 128 
C 2714 128 2656 166 2656 473 
L 2656 2763 
L 1882 2693 
z
" transform="scale(0.015625)"/>
      </defs>
      <use xlink:href="#CMR17-50" transform="scale(0.996264)"/>
      <use xlink:href="#CMR17-61" transform="translate(59.983847 0) scale(0.996264)"/>
      <use xlink:href="#CMR17-75" transform="translate(105.674324 0) scale(0.996264)"/>
      <use xlink:href="#CMR17-73" transform="translate(156.569693 0) scale(0.996264)"/>
      <use xlink:href="#CMR17-65" transform="translate(192.371031 0) scale(0.996264)"/>
      <use xlink:href="#CMR17-44" transform="translate(262.932658 0) scale(0.996264)"/>
      <use xlink:href="#CMR17-75" transform="translate(333.326214 0) scale(0.996264)"/>
      <use xlink:href="#CMR17-72" transform="translate(384.221584 0) scale(0.996264)"/>
      <use xlink:href="#CMR17-61" transform="translate(419.502351 0) scale(0.996264)"/>
      <use xlink:href="#CMR17-74" transform="translate(465.192829 0) scale(0.996264)"/>
      <use xlink:href="#CMR17-69" transform="translate(500.473596 0) scale(0.996264)"/>
      <use xlink:href="#CMR17-6f" transform="translate(525.344655 0) scale(0.996264)"/>
      <use xlink:href="#CMR17-6e" transform="translate(571.035132 0) scale(0.996264)"/>
      <use xlink:href="#CMMI12-74" transform="translate(652.006468 0) scale(0.996264)"/>
      <use xlink:href="#CMR17-69" transform="translate(717.308765 0) scale(0.996264)"/>
      <use xlink:href="#CMR17-6e" transform="translate(742.179823 0) scale(0.996264)"/>
      <use xlink:href="#CMR17-73" transform="translate(823.151159 0) scale(0.996264)"/>
     </g>
    </g>
   </g>
   <g id="matplotlib.axis_4">
    <g id="ytick_6">
     <g id="line2d_36">
      <path d="M 48.367091 284.488647 
L 450 284.488647 
" clip-path="url(#pa5d7613d32)" style="fill: none; stroke: #b0b0b0; stroke-width: 0.8; stroke-linecap: square"/>
     </g>
     <g id="line2d_37">
      <g>
       <use xlink:href="#mf7e8232ea7" x="48.367091" y="284.488647" style="stroke: #000000; stroke-width: 0.8"/>
      </g>
     </g>
     <g id="text_15">
      <!-- $\mathdefault{0.0}$ -->
      <g transform="translate(28.637012 287.947896) scale(0.1 -0.1)">
       <use xlink:href="#CMR17-30" transform="scale(0.996264)"/>
       <use xlink:href="#CMMI12-3a" transform="translate(45.690477 0) scale(0.996264)"/>
       <use xlink:href="#CMR17-30" transform="translate(72.787654 0) scale(0.996264)"/>
      </g>
     </g>
    </g>
    <g id="ytick_7">
     <g id="line2d_38">
      <path d="M 48.367091 261.080263 
L 450 261.080263 
" clip-path="url(#pa5d7613d32)" style="fill: none; stroke: #b0b0b0; stroke-width: 0.8; stroke-linecap: square"/>
     </g>
     <g id="line2d_39">
      <g>
       <use xlink:href="#mf7e8232ea7" x="48.367091" y="261.080263" style="stroke: #000000; stroke-width: 0.8"/>
      </g>
     </g>
     <g id="text_16">
      <!-- $\mathdefault{0.2}$ -->
      <g transform="translate(28.637012 264.539512) scale(0.1 -0.1)">
       <use xlink:href="#CMR17-30" transform="scale(0.996264)"/>
       <use xlink:href="#CMMI12-3a" transform="translate(45.690477 0) scale(0.996264)"/>
       <use xlink:href="#CMR17-32" transform="translate(72.787654 0) scale(0.996264)"/>
      </g>
     </g>
    </g>
    <g id="ytick_8">
     <g id="line2d_40">
      <path d="M 48.367091 237.671879 
L 450 237.671879 
" clip-path="url(#pa5d7613d32)" style="fill: none; stroke: #b0b0b0; stroke-width: 0.8; stroke-linecap: square"/>
     </g>
     <g id="line2d_41">
      <g>
       <use xlink:href="#mf7e8232ea7" x="48.367091" y="237.671879" style="stroke: #000000; stroke-width: 0.8"/>
      </g>
     </g>
     <g id="text_17">
      <!-- $\mathdefault{0.4}$ -->
      <g transform="translate(28.637012 241.131129) scale(0.1 -0.1)">
       <use xlink:href="#CMR17-30" transform="scale(0.996264)"/>
       <use xlink:href="#CMMI12-3a" transform="translate(45.690477 0) scale(0.996264)"/>
       <use xlink:href="#CMR17-34" transform="translate(72.787654 0) scale(0.996264)"/>
      </g>
     </g>
    </g>
    <g id="ytick_9">
     <g id="line2d_42">
      <path d="M 48.367091 214.263496 
L 450 214.263496 
" clip-path="url(#pa5d7613d32)" style="fill: none; stroke: #b0b0b0; stroke-width: 0.8; stroke-linecap: square"/>
     </g>
     <g id="line2d_43">
      <g>
       <use xlink:href="#mf7e8232ea7" x="48.367091" y="214.263496" style="stroke: #000000; stroke-width: 0.8"/>
      </g>
     </g>
     <g id="text_18">
      <!-- $\mathdefault{0.6}$ -->
      <g transform="translate(28.637012 217.722745) scale(0.1 -0.1)">
       <use xlink:href="#CMR17-30" transform="scale(0.996264)"/>
       <use xlink:href="#CMMI12-3a" transform="translate(45.690477 0) scale(0.996264)"/>
       <use xlink:href="#CMR17-36" transform="translate(72.787654 0) scale(0.996264)"/>
      </g>
     </g>
    </g>
    <g id="ytick_10">
     <g id="line2d_44">
      <path d="M 48.367091 190.855112 
L 450 190.855112 
" clip-path="url(#pa5d7613d32)" style="fill: none; stroke: #b0b0b0; stroke-width: 0.8; stroke-linecap: square"/>
     </g>
     <g id="line2d_45">
      <g>
       <use xlink:href="#mf7e8232ea7" x="48.367091" y="190.855112" style="stroke: #000000; stroke-width: 0.8"/>
      </g>
     </g>
     <g id="text_19">
      <!-- $\mathdefault{0.8}$ -->
      <g transform="translate(28.637012 194.314362) scale(0.1 -0.1)">
       <use xlink:href="#CMR17-30" transform="scale(0.996264)"/>
       <use xlink:href="#CMMI12-3a" transform="translate(45.690477 0) scale(0.996264)"/>
       <use xlink:href="#CMR17-38" transform="translate(72.787654 0) scale(0.996264)"/>
      </g>
     </g>
    </g>
    <g id="ytick_11">
     <g id="line2d_46">
      <path d="M 48.367091 167.446729 
L 450 167.446729 
" clip-path="url(#pa5d7613d32)" style="fill: none; stroke: #b0b0b0; stroke-width: 0.8; stroke-linecap: square"/>
     </g>
     <g id="line2d_47">
      <g>
       <use xlink:href="#mf7e8232ea7" x="48.367091" y="167.446729" style="stroke: #000000; stroke-width: 0.8"/>
      </g>
     </g>
     <g id="text_20">
      <!-- $\mathdefault{1.0}$ -->
      <g transform="translate(28.637012 170.905978) scale(0.1 -0.1)">
       <use xlink:href="#CMR17-31" transform="scale(0.996264)"/>
       <use xlink:href="#CMMI12-3a" transform="translate(45.690477 0) scale(0.996264)"/>
       <use xlink:href="#CMR17-30" transform="translate(72.787654 0) scale(0.996264)"/>
      </g>
     </g>
    </g>
    <g id="text_21">
     <!-- Cumulative Density -->
     <g transform="translate(22.699834 263.383977) rotate(-90) scale(0.1 -0.1)">
      <defs>
       <path id="CMR17-43" d="M 3974 4289 
C 3974 4403 3968 4410 3930 4410 
C 3904 4410 3898 4403 3853 4327 
L 3571 3792 
C 3258 4187 2874 4416 2381 4416 
C 1286 4416 294 3456 294 2148 
C 294 826 1286 -128 2387 -128 
C 3366 -128 3974 730 3974 1461 
C 3974 1524 3974 1550 3917 1550 
C 3866 1550 3866 1531 3859 1474 
C 3808 585 3168 38 2477 38 
C 1824 38 781 495 781 2147 
C 781 3805 1843 4250 2464 4250 
C 3187 4250 3712 3628 3834 2745 
C 3846 2668 3846 2655 3904 2655 
C 3974 2655 3974 2668 3974 2783 
L 3974 4289 
z
" transform="scale(0.015625)"/>
       <path id="CMR17-6d" d="M 4326 1933 
C 4326 2252 4269 2790 3507 2790 
C 3072 2790 2771 2496 2656 2151 
L 2650 2151 
C 2573 2676 2195 2790 1837 2790 
C 1331 2790 1069 2400 973 2144 
L 966 2144 
L 966 2790 
L 211 2720 
L 211 2554 
C 589 2554 646 2515 646 2208 
L 646 428 
C 646 184 621 153 211 153 
L 211 -13 
C 365 0 646 0 813 0 
C 979 0 1267 0 1421 -13 
L 1421 153 
C 1011 153 986 178 986 428 
L 986 1658 
C 986 2247 1344 2688 1792 2688 
C 2266 2688 2317 2266 2317 1958 
L 2317 428 
C 2317 184 2291 153 1882 153 
L 1882 -13 
C 2035 0 2317 0 2483 0 
C 2650 0 2938 0 3091 -13 
L 3091 153 
C 2682 153 2656 178 2656 428 
L 2656 1658 
C 2656 2247 3014 2688 3462 2688 
C 3936 2688 3987 2266 3987 1958 
L 3987 428 
C 3987 184 3962 153 3552 153 
L 3552 -13 
C 3706 0 3987 0 4154 0 
C 4320 0 4608 0 4762 -13 
L 4762 153 
C 4352 153 4326 178 4326 428 
L 4326 1933 
z
" transform="scale(0.015625)"/>
       <path id="CMR17-76" d="M 2502 2163 
C 2560 2304 2662 2560 3034 2560 
L 3034 2726 
C 2912 2726 2752 2726 2630 2726 
C 2496 2726 2285 2726 2157 2732 
L 2157 2566 
C 2317 2553 2406 2477 2406 2311 
C 2406 2253 2406 2240 2368 2151 
L 1664 377 
L 902 2286 
C 864 2369 864 2381 864 2407 
C 864 2560 1075 2560 1171 2560 
L 1171 2732 
C 1018 2726 736 2726 576 2726 
C 403 2726 205 2726 64 2732 
L 64 2560 
C 307 2560 442 2560 518 2362 
L 1446 44 
C 1485 -51 1491 -64 1549 -64 
C 1606 -64 1613 -51 1651 44 
L 2502 2163 
z
" transform="scale(0.015625)"/>
      </defs>
      <use xlink:href="#CMR17-43" transform="scale(0.996264)"/>
      <use xlink:href="#CMR17-75" transform="translate(66.509881 0) scale(0.996264)"/>
      <use xlink:href="#CMR17-6d" transform="translate(117.40525 0) scale(0.996264)"/>
      <use xlink:href="#CMR17-75" transform="translate(191.722386 0) scale(0.996264)"/>
      <use xlink:href="#CMR17-6c" transform="translate(242.617756 0) scale(0.996264)"/>
      <use xlink:href="#CMR17-61" transform="translate(267.488815 0) scale(0.996264)"/>
      <use xlink:href="#CMR17-74" transform="translate(313.179292 0) scale(0.996264)"/>
      <use xlink:href="#CMR17-69" transform="translate(348.460059 0) scale(0.996264)"/>
      <use xlink:href="#CMR17-76" transform="translate(373.331118 0) scale(0.996264)"/>
      <use xlink:href="#CMR17-65" transform="translate(419.02158 0) scale(0.996264)"/>
      <use xlink:href="#CMR17-44" transform="translate(489.583207 0) scale(0.996264)"/>
      <use xlink:href="#CMR17-65" transform="translate(559.976763 0) scale(0.996264)"/>
      <use xlink:href="#CMR17-6e" transform="translate(600.462423 0) scale(0.996264)"/>
      <use xlink:href="#CMR17-73" transform="translate(651.357793 0) scale(0.996264)"/>
      <use xlink:href="#CMR17-69" transform="translate(687.15913 0) scale(0.996264)"/>
      <use xlink:href="#CMR17-74" transform="translate(712.030189 0) scale(0.996264)"/>
      <use xlink:href="#CMR17-79" transform="translate(744.708503 0) scale(0.996264)"/>
     </g>
    </g>
   </g>
   <g id="line2d_48">
    <path d="M 66.623132 284.488647 
L 68.135552 284.329381 
L 69.662707 283.939144 
L 71.592594 283.190548 
L 73.546014 282.192777 
L 75.921588 280.710154 
L 78.737114 278.63992 
L 81.600825 276.255385 
L 84.933697 273.205496 
L 89.191714 268.994715 
L 94.883716 263.016863 
L 119.029399 237.238996 
L 125.157867 231.209988 
L 130.934408 225.834199 
L 136.321163 221.108637 
L 141.840094 216.563443 
L 146.922822 212.644078 
L 152.11766 208.899318 
L 157.427078 205.338144 
L 162.853605 201.966938 
L 168.399825 198.789706 
L 174.068375 195.808288 
L 179.861956 193.022567 
L 185.783325 190.430685 
L 191.8353 188.029238 
L 198.020763 185.813488 
L 204.342657 183.777547 
L 210.803991 181.91457 
L 218.150537 180.038156 
L 225.677347 178.354507 
L 233.388846 176.851616 
L 242.090221 175.392365 
L 251.026742 174.119963 
L 261.051329 172.92525 
L 272.245476 171.834538 
L 283.798008 170.930027 
L 297.588189 170.085508 
L 312.861039 169.382283 
L 330.766155 168.788749 
L 352.667237 168.301 
L 380.236162 167.92808 
L 416.825547 167.66988 
L 431.743959 167.609495 
L 431.743959 167.609495 
" clip-path="url(#pa5d7613d32)" style="fill: none; stroke: #1f77b4; stroke-width: 1.5; stroke-linecap: square"/>
   </g>
   <g id="patch_49">
    <path d="M 48.367091 284.488647 
L 48.367091 155.742537 
" style="fill: none; stroke: #000000; stroke-width: 0.8; stroke-linejoin: miter; stroke-linecap: square"/>
   </g>
   <g id="patch_50">
    <path d="M 450 284.488647 
L 450 155.742537 
" style="fill: none; stroke: #000000; stroke-width: 0.8; stroke-linejoin: miter; stroke-linecap: square"/>
   </g>
   <g id="patch_51">
    <path d="M 48.367091 284.488647 
L 450 284.488647 
" style="fill: none; stroke: #000000; stroke-width: 0.8; stroke-linejoin: miter; stroke-linecap: square"/>
   </g>
   <g id="patch_52">
    <path d="M 48.367091 155.742537 
L 450 155.742537 
" style="fill: none; stroke: #000000; stroke-width: 0.8; stroke-linejoin: miter; stroke-linecap: square"/>
   </g>
  </g>
 </g>
 <defs>
  <clipPath id="p30f0b55bfb">
   <rect x="48.367091" y="10.8" width="401.632909" height="128.74611"/>
  </clipPath>
  <clipPath id="pa5d7613d32">
   <rect x="48.367091" y="155.742537" width="401.632909" height="128.74611"/>
  </clipPath>
 </defs>
</svg>
