<?xml version="1.0" encoding="utf-8" standalone="no"?>
<!DOCTYPE svg PUBLIC "-//W3C//DTD SVG 1.1//EN"
  "http://www.w3.org/Graphics/SVG/1.1/DTD/svg11.dtd">
<svg xmlns:xlink="http://www.w3.org/1999/xlink" width="432pt" height="216pt" viewBox="0 0 432 216" xmlns="http://www.w3.org/2000/svg" version="1.1">
 <metadata>
  <rdf:RDF xmlns:dc="http://purl.org/dc/elements/1.1/" xmlns:cc="http://creativecommons.org/ns#" xmlns:rdf="http://www.w3.org/1999/02/22-rdf-syntax-ns#">
   <cc:Work>
    <dc:type rdf:resource="http://purl.org/dc/dcmitype/StillImage"/>
    <dc:date>2023-04-17T14:41:45.318329</dc:date>
    <dc:format>image/svg+xml</dc:format>
    <dc:creator>
     <cc:Agent>
      <dc:title>Matplotlib v3.7.1, https://matplotlib.org/</dc:title>
     </cc:Agent>
    </dc:creator>
   </cc:Work>
  </rdf:RDF>
 </metadata>
 <defs>
  <style type="text/css">*{stroke-linejoin: round; stroke-linecap: butt}</style>
 </defs>
 <g id="figure_1">
  <g id="patch_1">
   <path d="M 0 216 
L 432 216 
L 432 0 
L 0 0 
z
" style="fill: #ffffff"/>
  </g>
  <g id="axes_1">
   <g id="patch_2">
    <path d="M 58.606467 176.488647 
L 421.2 176.488647 
L 421.2 10.8 
L 58.606467 10.8 
z
" style="fill: #ffffff"/>
   </g>
   <g id="patch_3">
    <path d="M 87.296528 176.488647 
L 87.296528 10.8 
L 99.505064 10.8 
L 99.505064 176.488647 
z
" clip-path="url(#p9dbf4652f6)" style="fill: #2ca02c; opacity: 0.4"/>
   </g>
   <g id="patch_4">
    <path d="M 111.713601 176.488647 
L 111.713601 10.8 
L 123.922137 10.8 
L 123.922137 176.488647 
z
" clip-path="url(#p9dbf4652f6)" style="fill: #d62728; opacity: 0.4"/>
   </g>
   <g id="patch_5">
    <path d="M 136.130674 176.488647 
L 136.130674 10.8 
L 148.33921 10.8 
L 148.33921 176.488647 
z
" clip-path="url(#p9dbf4652f6)" style="fill: #2ca02c; opacity: 0.4"/>
   </g>
   <g id="patch_6">
    <path d="M 160.547747 176.488647 
L 160.547747 10.8 
L 172.756283 10.8 
L 172.756283 176.488647 
z
" clip-path="url(#p9dbf4652f6)" style="fill: #d62728; opacity: 0.4"/>
   </g>
   <g id="patch_7">
    <path d="M 184.96482 176.488647 
L 184.96482 10.8 
L 197.173356 10.8 
L 197.173356 176.488647 
z
" clip-path="url(#p9dbf4652f6)" style="fill: #2ca02c; opacity: 0.4"/>
   </g>
   <g id="patch_8">
    <path d="M 209.381893 176.488647 
L 209.381893 10.8 
L 221.590429 10.8 
L 221.590429 176.488647 
z
" clip-path="url(#p9dbf4652f6)" style="fill: #d62728; opacity: 0.4"/>
   </g>
   <g id="patch_9">
    <path d="M 233.798965 176.488647 
L 233.798965 10.8 
L 246.007502 10.8 
L 246.007502 176.488647 
z
" clip-path="url(#p9dbf4652f6)" style="fill: #2ca02c; opacity: 0.4"/>
   </g>
   <g id="patch_10">
    <path d="M 258.216038 176.488647 
L 258.216038 10.8 
L 270.424575 10.8 
L 270.424575 176.488647 
z
" clip-path="url(#p9dbf4652f6)" style="fill: #d62728; opacity: 0.4"/>
   </g>
   <g id="patch_11">
    <path d="M 282.633111 176.488647 
L 282.633111 10.8 
L 294.841648 10.8 
L 294.841648 176.488647 
z
" clip-path="url(#p9dbf4652f6)" style="fill: #2ca02c; opacity: 0.4"/>
   </g>
   <g id="patch_12">
    <path d="M 307.050184 176.488647 
L 307.050184 10.8 
L 319.258721 10.8 
L 319.258721 176.488647 
z
" clip-path="url(#p9dbf4652f6)" style="fill: #d62728; opacity: 0.4"/>
   </g>
   <g id="patch_13">
    <path d="M 331.467257 176.488647 
L 331.467257 10.8 
L 343.675794 10.8 
L 343.675794 176.488647 
z
" clip-path="url(#p9dbf4652f6)" style="fill: #2ca02c; opacity: 0.4"/>
   </g>
   <g id="patch_14">
    <path d="M 355.88433 176.488647 
L 355.88433 10.8 
L 368.092866 10.8 
L 368.092866 176.488647 
z
" clip-path="url(#p9dbf4652f6)" style="fill: #d62728; opacity: 0.4"/>
   </g>
   <g id="patch_15">
    <path d="M 380.301403 176.488647 
L 380.301403 10.8 
L 392.509939 10.8 
L 392.509939 176.488647 
z
" clip-path="url(#p9dbf4652f6)" style="fill: #2ca02c; opacity: 0.4"/>
   </g>
   <g id="matplotlib.axis_1">
    <g id="xtick_1">
     <g id="line2d_1">
      <path d="M 81.19226 176.488647 
L 81.19226 10.8 
" clip-path="url(#p9dbf4652f6)" style="fill: none; stroke: #b0b0b0; stroke-width: 0.8; stroke-linecap: square"/>
     </g>
     <g id="line2d_2">
      <defs>
       <path id="me42244fe30" d="M 0 0 
L 0 3.5 
" style="stroke: #000000; stroke-width: 0.8"/>
      </defs>
      <g>
       <use xlink:href="#me42244fe30" x="81.19226" y="176.488647" style="stroke: #000000; stroke-width: 0.8"/>
      </g>
     </g>
     <g id="text_1">
      <!-- R1 -->
      <g transform="translate(75.034785 190.407145) scale(0.1 -0.1)">
       <defs>
        <path id="CMR17-52" d="M 2509 2146 
C 3117 2268 3629 2676 3629 3186 
C 3629 3785 2950 4326 2054 4326 
L 333 4326 
L 333 4160 
C 774 4160 845 4160 845 3873 
L 845 415 
C 845 128 774 128 333 128 
L 333 -26 
C 518 -26 851 -26 1050 -26 
C 1248 -26 1581 -26 1766 -26 
L 1766 128 
C 1325 128 1254 128 1254 417 
L 1254 2112 
L 2003 2112 
C 2368 2112 2573 1964 2662 1881 
C 2918 1632 2918 1459 2918 1024 
C 2918 595 2918 377 3110 160 
C 3354 -102 3680 -128 3821 -128 
C 4294 -128 4365 396 4365 503 
C 4365 540 4365 585 4307 585 
C 4256 585 4250 547 4250 522 
C 4218 112 4032 -26 3834 -26 
C 3482 -26 3443 375 3405 764 
C 3386 898 3373 993 3360 1133 
C 3322 1452 3270 1917 2509 2146 
z
M 1984 2214 
L 1254 2214 
L 1254 3913 
C 1254 4129 1267 4160 1523 4160 
L 1990 4160 
C 2522 4160 3142 3977 3142 3190 
C 3142 2372 2464 2214 1984 2214 
z
" transform="scale(0.015625)"/>
        <path id="CMR17-31" d="M 1702 4058 
C 1702 4192 1696 4192 1606 4192 
C 1357 3916 979 3827 621 3827 
C 602 3827 570 3827 563 3808 
C 557 3795 557 3782 557 3648 
C 755 3648 1088 3686 1344 3839 
L 1344 461 
C 1344 236 1331 160 781 160 
L 589 160 
L 589 0 
C 896 0 1216 0 1523 0 
C 1830 0 2150 0 2458 0 
L 2458 160 
L 2266 160 
C 1715 160 1702 230 1702 458 
L 1702 4058 
z
" transform="scale(0.015625)"/>
       </defs>
       <use xlink:href="#CMR17-52" transform="scale(0.996264)"/>
       <use xlink:href="#CMR17-31" transform="translate(67.791102 0) scale(0.996264)"/>
      </g>
     </g>
    </g>
    <g id="xtick_2">
     <g id="line2d_3">
      <path d="M 105.609333 176.488647 
L 105.609333 10.8 
" clip-path="url(#p9dbf4652f6)" style="fill: none; stroke: #b0b0b0; stroke-width: 0.8; stroke-linecap: square"/>
     </g>
     <g id="line2d_4">
      <g>
       <use xlink:href="#me42244fe30" x="105.609333" y="176.488647" style="stroke: #000000; stroke-width: 0.8"/>
      </g>
     </g>
     <g id="text_2">
      <!-- R2 -->
      <g transform="translate(99.451858 190.407145) scale(0.1 -0.1)">
       <defs>
        <path id="CMR17-32" d="M 2669 989 
L 2554 989 
C 2490 536 2438 459 2413 420 
C 2381 369 1920 369 1830 369 
L 602 369 
C 832 619 1280 1072 1824 1597 
C 2214 1967 2669 2402 2669 3035 
C 2669 3790 2067 4224 1395 4224 
C 691 4224 262 3604 262 3030 
C 262 2780 448 2748 525 2748 
C 589 2748 781 2787 781 3010 
C 781 3207 614 3264 525 3264 
C 486 3264 448 3258 422 3245 
C 544 3790 915 4058 1306 4058 
C 1862 4058 2227 3617 2227 3035 
C 2227 2479 1901 2000 1536 1584 
L 262 146 
L 262 0 
L 2515 0 
L 2669 989 
z
" transform="scale(0.015625)"/>
       </defs>
       <use xlink:href="#CMR17-52" transform="scale(0.996264)"/>
       <use xlink:href="#CMR17-32" transform="translate(67.791102 0) scale(0.996264)"/>
      </g>
     </g>
    </g>
    <g id="xtick_3">
     <g id="line2d_5">
      <path d="M 130.026406 176.488647 
L 130.026406 10.8 
" clip-path="url(#p9dbf4652f6)" style="fill: none; stroke: #b0b0b0; stroke-width: 0.8; stroke-linecap: square"/>
     </g>
     <g id="line2d_6">
      <g>
       <use xlink:href="#me42244fe30" x="130.026406" y="176.488647" style="stroke: #000000; stroke-width: 0.8"/>
      </g>
     </g>
     <g id="text_3">
      <!-- R3 -->
      <g transform="translate(123.868931 190.407145) scale(0.1 -0.1)">
       <defs>
        <path id="CMR17-33" d="M 1414 2157 
C 1984 2157 2234 1662 2234 1090 
C 2234 320 1824 25 1453 25 
C 1114 25 563 194 390 693 
C 422 680 454 680 486 680 
C 640 680 755 782 755 948 
C 755 1133 614 1216 486 1216 
C 378 1216 211 1165 211 926 
C 211 335 787 -128 1466 -128 
C 2176 -128 2720 430 2720 1085 
C 2720 1707 2208 2157 1600 2227 
C 2086 2328 2554 2756 2554 3329 
C 2554 3820 2048 4179 1472 4179 
C 890 4179 378 3829 378 3329 
C 378 3110 544 3072 627 3072 
C 762 3072 877 3155 877 3321 
C 877 3486 762 3569 627 3569 
C 602 3569 570 3569 544 3557 
C 730 3959 1235 4032 1459 4032 
C 1683 4032 2106 3925 2106 3320 
C 2106 3143 2080 2828 1862 2550 
C 1670 2304 1453 2304 1242 2284 
C 1210 2284 1062 2269 1037 2269 
C 992 2263 966 2257 966 2208 
C 966 2163 973 2157 1101 2157 
L 1414 2157 
z
" transform="scale(0.015625)"/>
       </defs>
       <use xlink:href="#CMR17-52" transform="scale(0.996264)"/>
       <use xlink:href="#CMR17-33" transform="translate(67.791102 0) scale(0.996264)"/>
      </g>
     </g>
    </g>
    <g id="xtick_4">
     <g id="line2d_7">
      <path d="M 154.443478 176.488647 
L 154.443478 10.8 
" clip-path="url(#p9dbf4652f6)" style="fill: none; stroke: #b0b0b0; stroke-width: 0.8; stroke-linecap: square"/>
     </g>
     <g id="line2d_8">
      <g>
       <use xlink:href="#me42244fe30" x="154.443478" y="176.488647" style="stroke: #000000; stroke-width: 0.8"/>
      </g>
     </g>
     <g id="text_4">
      <!-- R4 -->
      <g transform="translate(148.286004 190.407145) scale(0.1 -0.1)">
       <defs>
        <path id="CMR17-34" d="M 2150 4122 
C 2150 4256 2144 4256 2029 4256 
L 128 1254 
L 128 1088 
L 1779 1088 
L 1779 457 
C 1779 224 1766 160 1318 160 
L 1197 160 
L 1197 0 
C 1402 0 1747 0 1965 0 
C 2182 0 2528 0 2733 0 
L 2733 160 
L 2611 160 
C 2163 160 2150 224 2150 457 
L 2150 1088 
L 2803 1088 
L 2803 1254 
L 2150 1254 
L 2150 4122 
z
M 1798 3703 
L 1798 1254 
L 256 1254 
L 1798 3703 
z
" transform="scale(0.015625)"/>
       </defs>
       <use xlink:href="#CMR17-52" transform="scale(0.996264)"/>
       <use xlink:href="#CMR17-34" transform="translate(67.791102 0) scale(0.996264)"/>
      </g>
     </g>
    </g>
    <g id="xtick_5">
     <g id="line2d_9">
      <path d="M 178.860551 176.488647 
L 178.860551 10.8 
" clip-path="url(#p9dbf4652f6)" style="fill: none; stroke: #b0b0b0; stroke-width: 0.8; stroke-linecap: square"/>
     </g>
     <g id="line2d_10">
      <g>
       <use xlink:href="#me42244fe30" x="178.860551" y="176.488647" style="stroke: #000000; stroke-width: 0.8"/>
      </g>
     </g>
     <g id="text_5">
      <!-- R5 -->
      <g transform="translate(172.703077 190.407145) scale(0.1 -0.1)">
       <defs>
        <path id="CMR17-35" d="M 730 3692 
C 794 3666 1056 3584 1325 3584 
C 1920 3584 2246 3911 2432 4100 
C 2432 4157 2432 4192 2394 4192 
C 2387 4192 2374 4192 2323 4163 
C 2099 4058 1837 3973 1517 3973 
C 1325 3973 1037 3999 723 4139 
C 653 4171 640 4171 634 4171 
C 602 4171 595 4164 595 4037 
L 595 2203 
C 595 2089 595 2057 659 2057 
C 691 2057 704 2070 736 2114 
C 941 2401 1222 2522 1542 2522 
C 1766 2522 2246 2382 2246 1289 
C 2246 1085 2246 715 2054 421 
C 1894 159 1645 25 1370 25 
C 947 25 518 320 403 814 
C 429 807 480 795 506 795 
C 589 795 749 840 749 1038 
C 749 1210 627 1280 506 1280 
C 358 1280 262 1190 262 1011 
C 262 454 704 -128 1382 -128 
C 2042 -128 2669 440 2669 1264 
C 2669 2030 2170 2624 1549 2624 
C 1222 2624 947 2503 730 2274 
L 730 3692 
z
" transform="scale(0.015625)"/>
       </defs>
       <use xlink:href="#CMR17-52" transform="scale(0.996264)"/>
       <use xlink:href="#CMR17-35" transform="translate(67.791102 0) scale(0.996264)"/>
      </g>
     </g>
    </g>
    <g id="xtick_6">
     <g id="line2d_11">
      <path d="M 203.277624 176.488647 
L 203.277624 10.8 
" clip-path="url(#p9dbf4652f6)" style="fill: none; stroke: #b0b0b0; stroke-width: 0.8; stroke-linecap: square"/>
     </g>
     <g id="line2d_12">
      <g>
       <use xlink:href="#me42244fe30" x="203.277624" y="176.488647" style="stroke: #000000; stroke-width: 0.8"/>
      </g>
     </g>
     <g id="text_6">
      <!-- R6 -->
      <g transform="translate(197.12015 190.407145) scale(0.1 -0.1)">
       <defs>
        <path id="CMR17-36" d="M 678 2176 
C 678 3690 1395 4032 1811 4032 
C 1946 4032 2272 4009 2400 3776 
C 2298 3776 2106 3776 2106 3553 
C 2106 3381 2246 3323 2336 3323 
C 2394 3323 2566 3348 2566 3560 
C 2566 3954 2246 4179 1805 4179 
C 1043 4179 243 3390 243 1984 
C 243 253 966 -128 1478 -128 
C 2099 -128 2688 427 2688 1283 
C 2688 2081 2170 2662 1517 2662 
C 1126 2662 838 2407 678 1960 
L 678 2176 
z
M 1478 25 
C 691 25 691 1200 691 1436 
C 691 1896 909 2560 1504 2560 
C 1613 2560 1926 2560 2138 2120 
C 2253 1870 2253 1609 2253 1289 
C 2253 944 2253 690 2118 434 
C 1978 171 1773 25 1478 25 
z
" transform="scale(0.015625)"/>
       </defs>
       <use xlink:href="#CMR17-52" transform="scale(0.996264)"/>
       <use xlink:href="#CMR17-36" transform="translate(67.791102 0) scale(0.996264)"/>
      </g>
     </g>
    </g>
    <g id="xtick_7">
     <g id="line2d_13">
      <path d="M 227.694697 176.488647 
L 227.694697 10.8 
" clip-path="url(#p9dbf4652f6)" style="fill: none; stroke: #b0b0b0; stroke-width: 0.8; stroke-linecap: square"/>
     </g>
     <g id="line2d_14">
      <g>
       <use xlink:href="#me42244fe30" x="227.694697" y="176.488647" style="stroke: #000000; stroke-width: 0.8"/>
      </g>
     </g>
     <g id="text_7">
      <!-- R7 -->
      <g transform="translate(221.537223 190.407145) scale(0.1 -0.1)">
       <defs>
        <path id="CMR17-37" d="M 2886 3941 
L 2886 4081 
L 1382 4081 
C 634 4081 621 4165 595 4288 
L 480 4288 
L 294 3094 
L 410 3094 
C 429 3215 474 3540 550 3661 
C 589 3712 1062 3712 1171 3712 
L 2579 3712 
L 1869 2661 
C 1395 1954 1069 999 1069 165 
C 1069 89 1069 -128 1299 -128 
C 1530 -128 1530 89 1530 171 
L 1530 465 
C 1530 1508 1709 2196 2003 2636 
L 2886 3941 
z
" transform="scale(0.015625)"/>
       </defs>
       <use xlink:href="#CMR17-52" transform="scale(0.996264)"/>
       <use xlink:href="#CMR17-37" transform="translate(67.791102 0) scale(0.996264)"/>
      </g>
     </g>
    </g>
    <g id="xtick_8">
     <g id="line2d_15">
      <path d="M 252.11177 176.488647 
L 252.11177 10.8 
" clip-path="url(#p9dbf4652f6)" style="fill: none; stroke: #b0b0b0; stroke-width: 0.8; stroke-linecap: square"/>
     </g>
     <g id="line2d_16">
      <g>
       <use xlink:href="#me42244fe30" x="252.11177" y="176.488647" style="stroke: #000000; stroke-width: 0.8"/>
      </g>
     </g>
     <g id="text_8">
      <!-- R8 -->
      <g transform="translate(245.954296 190.407145) scale(0.1 -0.1)">
       <defs>
        <path id="CMR17-38" d="M 1741 2264 
C 2144 2467 2554 2773 2554 3263 
C 2554 3841 1990 4179 1472 4179 
C 890 4179 378 3759 378 3180 
C 378 3021 416 2747 666 2505 
C 730 2442 998 2251 1171 2130 
C 883 1983 211 1634 211 934 
C 211 279 838 -128 1459 -128 
C 2144 -128 2720 362 2720 1010 
C 2720 1590 2330 1857 2074 2029 
L 1741 2264 
z
M 902 2822 
C 851 2854 595 3051 595 3351 
C 595 3739 998 4032 1459 4032 
C 1965 4032 2336 3676 2336 3262 
C 2336 2669 1670 2331 1638 2331 
C 1632 2331 1626 2331 1574 2370 
L 902 2822 
z
M 2080 1519 
C 2176 1449 2483 1240 2483 851 
C 2483 381 2010 25 1472 25 
C 890 25 448 438 448 940 
C 448 1443 838 1862 1280 2060 
L 2080 1519 
z
" transform="scale(0.015625)"/>
       </defs>
       <use xlink:href="#CMR17-52" transform="scale(0.996264)"/>
       <use xlink:href="#CMR17-38" transform="translate(67.791102 0) scale(0.996264)"/>
      </g>
     </g>
    </g>
    <g id="xtick_9">
     <g id="line2d_17">
      <path d="M 276.528843 176.488647 
L 276.528843 10.8 
" clip-path="url(#p9dbf4652f6)" style="fill: none; stroke: #b0b0b0; stroke-width: 0.8; stroke-linecap: square"/>
     </g>
     <g id="line2d_18">
      <g>
       <use xlink:href="#me42244fe30" x="276.528843" y="176.488647" style="stroke: #000000; stroke-width: 0.8"/>
      </g>
     </g>
     <g id="text_9">
      <!-- R9 -->
      <g transform="translate(270.371369 190.407145) scale(0.1 -0.1)">
       <defs>
        <path id="CMR17-39" d="M 2253 1864 
C 2253 464 1670 31 1190 31 
C 1043 31 685 31 538 294 
C 704 268 826 357 826 518 
C 826 692 685 749 595 749 
C 538 749 365 723 365 506 
C 365 71 742 -128 1203 -128 
C 1939 -128 2688 674 2688 2073 
C 2688 3817 1971 4179 1485 4179 
C 851 4179 243 3628 243 2778 
C 243 1991 762 1408 1414 1408 
C 1952 1408 2189 1903 2253 2112 
L 2253 1864 
z
M 1427 1510 
C 1254 1510 1011 1542 813 1922 
C 678 2169 678 2461 678 2771 
C 678 3146 678 3405 858 3684 
C 947 3817 1114 4032 1485 4032 
C 2240 4032 2240 2885 2240 2632 
C 2240 2182 2035 1510 1427 1510 
z
" transform="scale(0.015625)"/>
       </defs>
       <use xlink:href="#CMR17-52" transform="scale(0.996264)"/>
       <use xlink:href="#CMR17-39" transform="translate(67.791102 0) scale(0.996264)"/>
      </g>
     </g>
    </g>
    <g id="xtick_10">
     <g id="line2d_19">
      <path d="M 300.945916 176.488647 
L 300.945916 10.8 
" clip-path="url(#p9dbf4652f6)" style="fill: none; stroke: #b0b0b0; stroke-width: 0.8; stroke-linecap: square"/>
     </g>
     <g id="line2d_20">
      <g>
       <use xlink:href="#me42244fe30" x="300.945916" y="176.488647" style="stroke: #000000; stroke-width: 0.8"/>
      </g>
     </g>
     <g id="text_10">
      <!-- R10 -->
      <g transform="translate(292.297774 190.407145) scale(0.1 -0.1)">
       <defs>
        <path id="CMR17-30" d="M 2688 2025 
C 2688 2416 2682 3080 2413 3591 
C 2176 4039 1798 4198 1466 4198 
C 1158 4198 768 4058 525 3597 
C 269 3118 243 2524 243 2025 
C 243 1661 250 1106 448 619 
C 723 -39 1216 -128 1466 -128 
C 1760 -128 2208 -7 2470 600 
C 2662 1042 2688 1559 2688 2025 
z
M 1466 -26 
C 1056 -26 813 325 723 812 
C 653 1188 653 1738 653 2096 
C 653 2588 653 2997 736 3387 
C 858 3929 1216 4096 1466 4096 
C 1728 4096 2067 3923 2189 3400 
C 2272 3036 2278 2607 2278 2096 
C 2278 1680 2278 1169 2202 792 
C 2067 95 1690 -26 1466 -26 
z
" transform="scale(0.015625)"/>
       </defs>
       <use xlink:href="#CMR17-52" transform="scale(0.996264)"/>
       <use xlink:href="#CMR17-31" transform="translate(67.791102 0) scale(0.996264)"/>
       <use xlink:href="#CMR17-30" transform="translate(113.481579 0) scale(0.996264)"/>
      </g>
     </g>
    </g>
    <g id="xtick_11">
     <g id="line2d_21">
      <path d="M 325.362989 176.488647 
L 325.362989 10.8 
" clip-path="url(#p9dbf4652f6)" style="fill: none; stroke: #b0b0b0; stroke-width: 0.8; stroke-linecap: square"/>
     </g>
     <g id="line2d_22">
      <g>
       <use xlink:href="#me42244fe30" x="325.362989" y="176.488647" style="stroke: #000000; stroke-width: 0.8"/>
      </g>
     </g>
     <g id="text_11">
      <!-- F1 -->
      <g transform="translate(319.620614 190.407145) scale(0.1 -0.1)">
       <defs>
        <path id="CMR17-46" d="M 3482 4325 
L 326 4325 
L 326 4160 
C 768 4160 838 4160 838 3874 
L 838 446 
C 838 160 768 160 326 160 
L 326 0 
C 512 0 870 0 1069 0 
C 1331 0 1638 0 1901 0 
L 1901 160 
L 1760 160 
C 1274 160 1261 223 1261 452 
L 1261 2075 
L 1837 2075 
C 2432 2075 2490 1865 2490 1332 
L 2605 1332 
L 2605 2987 
L 2490 2987 
C 2490 2450 2432 2240 1837 2240 
L 1261 2240 
L 1261 3911 
C 1261 4128 1274 4160 1530 4160 
L 2355 4160 
C 3322 4160 3430 3765 3520 2916 
L 3635 2916 
L 3482 4325 
z
" transform="scale(0.015625)"/>
       </defs>
       <use xlink:href="#CMR17-46" transform="scale(0.996264)"/>
       <use xlink:href="#CMR17-31" transform="translate(59.983847 0) scale(0.996264)"/>
      </g>
     </g>
    </g>
    <g id="xtick_12">
     <g id="line2d_23">
      <path d="M 349.780062 176.488647 
L 349.780062 10.8 
" clip-path="url(#p9dbf4652f6)" style="fill: none; stroke: #b0b0b0; stroke-width: 0.8; stroke-linecap: square"/>
     </g>
     <g id="line2d_24">
      <g>
       <use xlink:href="#me42244fe30" x="349.780062" y="176.488647" style="stroke: #000000; stroke-width: 0.8"/>
      </g>
     </g>
     <g id="text_12">
      <!-- F2 -->
      <g transform="translate(344.037687 190.407145) scale(0.1 -0.1)">
       <use xlink:href="#CMR17-46" transform="scale(0.996264)"/>
       <use xlink:href="#CMR17-32" transform="translate(59.983847 0) scale(0.996264)"/>
      </g>
     </g>
    </g>
    <g id="xtick_13">
     <g id="line2d_25">
      <path d="M 374.197135 176.488647 
L 374.197135 10.8 
" clip-path="url(#p9dbf4652f6)" style="fill: none; stroke: #b0b0b0; stroke-width: 0.8; stroke-linecap: square"/>
     </g>
     <g id="line2d_26">
      <g>
       <use xlink:href="#me42244fe30" x="374.197135" y="176.488647" style="stroke: #000000; stroke-width: 0.8"/>
      </g>
     </g>
     <g id="text_13">
      <!-- F3 -->
      <g transform="translate(368.45476 190.407145) scale(0.1 -0.1)">
       <use xlink:href="#CMR17-46" transform="scale(0.996264)"/>
       <use xlink:href="#CMR17-33" transform="translate(59.983847 0) scale(0.996264)"/>
      </g>
     </g>
    </g>
    <g id="xtick_14">
     <g id="line2d_27">
      <path d="M 398.614208 176.488647 
L 398.614208 10.8 
" clip-path="url(#p9dbf4652f6)" style="fill: none; stroke: #b0b0b0; stroke-width: 0.8; stroke-linecap: square"/>
     </g>
     <g id="line2d_28">
      <g>
       <use xlink:href="#me42244fe30" x="398.614208" y="176.488647" style="stroke: #000000; stroke-width: 0.8"/>
      </g>
     </g>
     <g id="text_14">
      <!-- F4 -->
      <g transform="translate(392.871833 190.407145) scale(0.1 -0.1)">
       <use xlink:href="#CMR17-46" transform="scale(0.996264)"/>
       <use xlink:href="#CMR17-34" transform="translate(59.983847 0) scale(0.996264)"/>
      </g>
     </g>
    </g>
    <g id="text_15">
     <!-- Roll Pass -->
     <g transform="translate(219.64584 203.262822) scale(0.1 -0.1)">
      <defs>
       <path id="CMR17-6f" d="M 2758 1356 
C 2758 2176 2163 2816 1466 2816 
C 768 2816 173 2176 173 1356 
C 173 551 768 -64 1466 -64 
C 2163 -64 2758 551 2758 1356 
z
M 1466 51 
C 1165 51 909 230 762 480 
C 602 767 582 1126 582 1408 
C 582 1677 595 2010 762 2298 
C 890 2509 1139 2714 1466 2714 
C 1754 2714 1997 2554 2150 2330 
C 2349 2029 2349 1607 2349 1408 
C 2349 1158 2336 775 2163 467 
C 1984 173 1709 51 1466 51 
z
" transform="scale(0.015625)"/>
       <path id="CMR17-6c" d="M 979 4396 
L 218 4326 
L 218 4160 
C 595 4160 653 4122 653 3817 
L 653 426 
C 653 184 627 153 218 153 
L 218 -13 
C 371 0 653 0 813 0 
C 979 0 1261 0 1414 -13 
L 1414 153 
C 1005 153 979 178 979 426 
L 979 4396 
z
" transform="scale(0.015625)"/>
       <path id="CMR17-50" d="M 1267 2042 
L 2291 2042 
C 3117 2042 3718 2578 3718 3184 
C 3718 3791 3130 4352 2291 4352 
L 333 4352 
L 333 4186 
C 774 4186 845 4186 845 3899 
L 845 446 
C 845 160 774 160 333 160 
L 333 0 
C 518 0 858 0 1056 0 
C 1254 0 1594 0 1779 0 
L 1779 160 
C 1338 160 1267 160 1267 446 
L 1267 2042 
z
M 1254 2176 
L 1254 3938 
C 1254 4155 1267 4186 1523 4186 
L 2170 4186 
C 2995 4186 3232 3714 3232 3184 
C 3232 2604 2950 2176 2170 2176 
L 1254 2176 
z
" transform="scale(0.015625)"/>
       <path id="CMR17-61" d="M 2304 1653 
C 2304 2072 2304 2294 2035 2543 
C 1798 2752 1523 2816 1306 2816 
C 800 2816 435 2407 435 1971 
C 435 1728 627 1728 666 1728 
C 749 1728 896 1778 896 1954 
C 896 2112 774 2181 666 2181 
C 640 2181 608 2174 589 2168 
C 723 2592 1069 2714 1293 2714 
C 1613 2714 1965 2429 1965 1885 
L 1965 1600 
C 1587 1600 1133 1549 774 1357 
C 371 1133 256 813 256 570 
C 256 77 832 -64 1171 -64 
C 1523 -64 1850 139 1990 511 
C 2003 233 2182 -18 2464 -18 
C 2598 -18 2938 70 2938 567 
L 2938 920 
L 2822 920 
L 2822 562 
C 2822 178 2650 128 2566 128 
C 2304 128 2304 458 2304 738 
L 2304 1653 
z
M 1965 870 
C 1965 317 1568 38 1216 38 
C 896 38 646 275 646 570 
C 646 761 730 1100 1101 1305 
C 1408 1478 1760 1504 1965 1504 
L 1965 870 
z
" transform="scale(0.015625)"/>
       <path id="CMR17-73" d="M 1978 2697 
C 1978 2813 1971 2819 1933 2819 
C 1907 2819 1901 2813 1824 2717 
C 1805 2691 1747 2626 1728 2601 
C 1523 2819 1235 2819 1126 2819 
C 416 2819 160 2447 160 2076 
C 160 1498 813 1365 998 1325 
C 1402 1243 1542 1217 1677 1101 
C 1760 1025 1901 884 1901 654 
C 1901 384 1747 38 1158 38 
C 602 38 403 460 288 1021 
C 269 1110 269 1117 218 1117 
C 166 1117 160 1110 160 983 
L 160 63 
C 160 -51 166 -58 205 -58 
C 237 -58 243 -51 275 0 
C 314 57 410 211 448 276 
C 576 103 800 -64 1158 -64 
C 1792 -64 2131 283 2131 784 
C 2131 1112 1958 1285 1875 1362 
C 1683 1561 1459 1606 1190 1657 
C 838 1735 390 1825 390 2217 
C 390 2383 480 2737 1126 2737 
C 1811 2737 1850 2094 1862 1888 
C 1869 1856 1901 1849 1920 1849 
C 1978 1849 1978 1869 1978 1978 
L 1978 2697 
z
" transform="scale(0.015625)"/>
      </defs>
      <use xlink:href="#CMR17-52" transform="scale(0.996264)"/>
      <use xlink:href="#CMR17-6f" transform="translate(67.791102 0) scale(0.996264)"/>
      <use xlink:href="#CMR17-6c" transform="translate(113.481579 0) scale(0.996264)"/>
      <use xlink:href="#CMR17-6c" transform="translate(138.352638 0) scale(0.996264)"/>
      <use xlink:href="#CMR17-50" transform="translate(193.299662 0) scale(0.996264)"/>
      <use xlink:href="#CMR17-61" transform="translate(253.283509 0) scale(0.996264)"/>
      <use xlink:href="#CMR17-73" transform="translate(298.973986 0) scale(0.996264)"/>
      <use xlink:href="#CMR17-73" transform="translate(334.775324 0) scale(0.996264)"/>
     </g>
    </g>
   </g>
   <g id="matplotlib.axis_2">
    <g id="ytick_1">
     <g id="line2d_29">
      <path d="M 58.606467 165.075358 
L 421.2 165.075358 
" clip-path="url(#p9dbf4652f6)" style="fill: none; stroke: #b0b0b0; stroke-width: 0.8; stroke-linecap: square"/>
     </g>
     <g id="line2d_30">
      <defs>
       <path id="m3b64623863" d="M 0 0 
L -3.5 0 
" style="stroke: #000000; stroke-width: 0.8"/>
      </defs>
      <g>
       <use xlink:href="#m3b64623863" x="58.606467" y="165.075358" style="stroke: #000000; stroke-width: 0.8"/>
      </g>
     </g>
     <g id="text_16">
      <!-- $\mathdefault{2.5}$ -->
      <g transform="translate(38.876388 168.534607) scale(0.1 -0.1)">
       <defs>
        <path id="CMMI12-3a" d="M 1178 307 
C 1178 492 1024 619 870 619 
C 685 619 557 466 557 313 
C 557 128 710 0 864 0 
C 1050 0 1178 153 1178 307 
z
" transform="scale(0.015625)"/>
       </defs>
       <use xlink:href="#CMR17-32" transform="scale(0.996264)"/>
       <use xlink:href="#CMMI12-3a" transform="translate(45.690477 0) scale(0.996264)"/>
       <use xlink:href="#CMR17-35" transform="translate(72.787654 0) scale(0.996264)"/>
      </g>
     </g>
    </g>
    <g id="ytick_2">
     <g id="line2d_31">
      <path d="M 58.606467 141.498054 
L 421.2 141.498054 
" clip-path="url(#p9dbf4652f6)" style="fill: none; stroke: #b0b0b0; stroke-width: 0.8; stroke-linecap: square"/>
     </g>
     <g id="line2d_32">
      <g>
       <use xlink:href="#m3b64623863" x="58.606467" y="141.498054" style="stroke: #000000; stroke-width: 0.8"/>
      </g>
     </g>
     <g id="text_17">
      <!-- $\mathdefault{5.0}$ -->
      <g transform="translate(38.876388 144.957303) scale(0.1 -0.1)">
       <use xlink:href="#CMR17-35" transform="scale(0.996264)"/>
       <use xlink:href="#CMMI12-3a" transform="translate(45.690477 0) scale(0.996264)"/>
       <use xlink:href="#CMR17-30" transform="translate(72.787654 0) scale(0.996264)"/>
      </g>
     </g>
    </g>
    <g id="ytick_3">
     <g id="line2d_33">
      <path d="M 58.606467 117.92075 
L 421.2 117.92075 
" clip-path="url(#p9dbf4652f6)" style="fill: none; stroke: #b0b0b0; stroke-width: 0.8; stroke-linecap: square"/>
     </g>
     <g id="line2d_34">
      <g>
       <use xlink:href="#m3b64623863" x="58.606467" y="117.92075" style="stroke: #000000; stroke-width: 0.8"/>
      </g>
     </g>
     <g id="text_18">
      <!-- $\mathdefault{7.5}$ -->
      <g transform="translate(38.876388 121.379999) scale(0.1 -0.1)">
       <use xlink:href="#CMR17-37" transform="scale(0.996264)"/>
       <use xlink:href="#CMMI12-3a" transform="translate(45.690477 0) scale(0.996264)"/>
       <use xlink:href="#CMR17-35" transform="translate(72.787654 0) scale(0.996264)"/>
      </g>
     </g>
    </g>
    <g id="ytick_4">
     <g id="line2d_35">
      <path d="M 58.606467 94.343446 
L 421.2 94.343446 
" clip-path="url(#p9dbf4652f6)" style="fill: none; stroke: #b0b0b0; stroke-width: 0.8; stroke-linecap: square"/>
     </g>
     <g id="line2d_36">
      <g>
       <use xlink:href="#m3b64623863" x="58.606467" y="94.343446" style="stroke: #000000; stroke-width: 0.8"/>
      </g>
     </g>
     <g id="text_19">
      <!-- $\mathdefault{10.0}$ -->
      <g transform="translate(33.895053 97.802695) scale(0.1 -0.1)">
       <use xlink:href="#CMR17-31" transform="scale(0.996264)"/>
       <use xlink:href="#CMR17-30" transform="translate(45.690477 0) scale(0.996264)"/>
       <use xlink:href="#CMMI12-3a" transform="translate(91.380954 0) scale(0.996264)"/>
       <use xlink:href="#CMR17-30" transform="translate(118.478131 0) scale(0.996264)"/>
      </g>
     </g>
    </g>
    <g id="ytick_5">
     <g id="line2d_37">
      <path d="M 58.606467 70.766142 
L 421.2 70.766142 
" clip-path="url(#p9dbf4652f6)" style="fill: none; stroke: #b0b0b0; stroke-width: 0.8; stroke-linecap: square"/>
     </g>
     <g id="line2d_38">
      <g>
       <use xlink:href="#m3b64623863" x="58.606467" y="70.766142" style="stroke: #000000; stroke-width: 0.8"/>
      </g>
     </g>
     <g id="text_20">
      <!-- $\mathdefault{12.5}$ -->
      <g transform="translate(33.895053 74.225391) scale(0.1 -0.1)">
       <use xlink:href="#CMR17-31" transform="scale(0.996264)"/>
       <use xlink:href="#CMR17-32" transform="translate(45.690477 0) scale(0.996264)"/>
       <use xlink:href="#CMMI12-3a" transform="translate(91.380954 0) scale(0.996264)"/>
       <use xlink:href="#CMR17-35" transform="translate(118.478131 0) scale(0.996264)"/>
      </g>
     </g>
    </g>
    <g id="ytick_6">
     <g id="line2d_39">
      <path d="M 58.606467 47.188838 
L 421.2 47.188838 
" clip-path="url(#p9dbf4652f6)" style="fill: none; stroke: #b0b0b0; stroke-width: 0.8; stroke-linecap: square"/>
     </g>
     <g id="line2d_40">
      <g>
       <use xlink:href="#m3b64623863" x="58.606467" y="47.188838" style="stroke: #000000; stroke-width: 0.8"/>
      </g>
     </g>
     <g id="text_21">
      <!-- $\mathdefault{15.0}$ -->
      <g transform="translate(33.895053 50.648088) scale(0.1 -0.1)">
       <use xlink:href="#CMR17-31" transform="scale(0.996264)"/>
       <use xlink:href="#CMR17-35" transform="translate(45.690477 0) scale(0.996264)"/>
       <use xlink:href="#CMMI12-3a" transform="translate(91.380954 0) scale(0.996264)"/>
       <use xlink:href="#CMR17-30" transform="translate(118.478131 0) scale(0.996264)"/>
      </g>
     </g>
    </g>
    <g id="ytick_7">
     <g id="line2d_41">
      <path d="M 58.606467 23.611534 
L 421.2 23.611534 
" clip-path="url(#p9dbf4652f6)" style="fill: none; stroke: #b0b0b0; stroke-width: 0.8; stroke-linecap: square"/>
     </g>
     <g id="line2d_42">
      <g>
       <use xlink:href="#m3b64623863" x="58.606467" y="23.611534" style="stroke: #000000; stroke-width: 0.8"/>
      </g>
     </g>
     <g id="text_22">
      <!-- $\mathdefault{17.5}$ -->
      <g transform="translate(33.895053 27.070784) scale(0.1 -0.1)">
       <use xlink:href="#CMR17-31" transform="scale(0.996264)"/>
       <use xlink:href="#CMR17-37" transform="translate(45.690477 0) scale(0.996264)"/>
       <use xlink:href="#CMMI12-3a" transform="translate(91.380954 0) scale(0.996264)"/>
       <use xlink:href="#CMR17-35" transform="translate(118.478131 0) scale(0.996264)"/>
      </g>
     </g>
    </g>
    <g id="text_23">
     <!-- Standard Deviation of -->
     <g transform="translate(17.718498 142.018599) rotate(-90) scale(0.1 -0.1)">
      <defs>
       <path id="CMR17-53" d="M 2803 4290 
C 2803 4404 2797 4411 2758 4411 
C 2720 4411 2707 4385 2682 4328 
L 2490 3907 
C 2246 4257 1875 4416 1472 4416 
C 819 4416 294 3901 294 3253 
C 294 3056 339 2776 557 2510 
C 794 2218 1018 2167 1530 2033 
C 1722 1982 2042 1899 2106 1874 
C 2470 1722 2662 1341 2662 985 
C 2662 527 2336 38 1779 38 
C 1094 38 454 419 410 1311 
C 403 1413 397 1419 352 1419 
C 301 1419 294 1413 294 1285 
L 294 -1 
C 294 -115 301 -122 339 -122 
C 384 -122 397 -90 486 108 
C 493 127 493 140 614 381 
C 934 -39 1472 -128 1779 -128 
C 2477 -128 2970 451 2970 1124 
C 2970 1454 2848 1708 2778 1823 
C 2509 2230 2221 2306 1914 2382 
C 1869 2402 1856 2402 1498 2490 
C 1152 2579 1005 2624 845 2796 
C 666 2992 602 3196 602 3399 
C 602 3812 934 4263 1478 4263 
C 2157 4263 2579 3786 2675 2993 
C 2694 2878 2701 2872 2746 2872 
C 2803 2872 2803 2891 2803 2999 
L 2803 4290 
z
" transform="scale(0.015625)"/>
       <path id="CMR17-74" d="M 966 2560 
L 1862 2560 
L 1862 2725 
L 966 2725 
L 966 3904 
L 851 3904 
C 838 3245 614 2668 70 2668 
L 70 2560 
L 627 2560 
L 627 771 
C 627 650 627 -64 1370 -64 
C 1747 -64 1965 306 1965 777 
L 1965 1140 
L 1850 1140 
L 1850 783 
C 1850 344 1677 51 1408 51 
C 1222 51 966 178 966 758 
L 966 2560 
z
" transform="scale(0.015625)"/>
       <path id="CMR17-6e" d="M 2656 1933 
C 2656 2259 2592 2790 1837 2790 
C 1331 2790 1069 2400 973 2144 
L 966 2144 
L 966 2790 
L 211 2720 
L 211 2554 
C 589 2554 646 2515 646 2208 
L 646 428 
C 646 184 621 153 211 153 
L 211 -13 
C 365 0 646 0 813 0 
C 979 0 1267 0 1421 -13 
L 1421 153 
C 1011 153 986 178 986 428 
L 986 1658 
C 986 2247 1344 2688 1792 2688 
C 2266 2688 2317 2266 2317 1958 
L 2317 428 
C 2317 184 2291 153 1882 153 
L 1882 -13 
C 2035 0 2317 0 2483 0 
C 2650 0 2938 0 3091 -13 
L 3091 153 
C 2682 153 2656 178 2656 428 
L 2656 1933 
z
" transform="scale(0.015625)"/>
       <path id="CMR17-64" d="M 1869 4326 
L 1869 4160 
C 2246 4160 2304 4122 2304 3820 
L 2304 2345 
C 2278 2377 2016 2790 1498 2790 
C 845 2790 211 2208 211 1364 
C 211 525 806 -64 1434 -64 
C 1978 -64 2259 337 2291 380 
L 2291 -63 
L 3066 -63 
L 3066 128 
C 2688 128 2630 166 2630 473 
L 2630 4396 
L 1869 4326 
z
M 2291 755 
C 2291 563 2176 390 2029 262 
C 1811 70 1594 38 1472 38 
C 1286 38 621 134 621 1356 
C 621 2612 1363 2688 1530 2688 
C 1824 2688 2061 2522 2208 2291 
C 2291 2157 2291 2138 2291 2023 
L 2291 755 
z
" transform="scale(0.015625)"/>
       <path id="CMR17-72" d="M 960 1497 
C 960 2112 1222 2688 1702 2688 
C 1747 2688 1792 2682 1837 2662 
C 1837 2662 1696 2617 1696 2452 
C 1696 2298 1818 2234 1914 2234 
C 1990 2234 2131 2279 2131 2458 
C 2131 2663 1926 2790 1709 2790 
C 1222 2790 1011 2317 947 2093 
L 941 2093 
L 941 2790 
L 198 2720 
L 198 2554 
C 576 2554 634 2515 634 2208 
L 634 428 
C 634 184 608 153 198 153 
L 198 -13 
C 352 0 646 0 813 0 
C 998 0 1325 0 1498 -13 
L 1498 153 
C 1037 153 960 153 960 440 
L 960 1497 
z
" transform="scale(0.015625)"/>
       <path id="CMR17-44" d="M 333 4352 
L 333 4186 
C 774 4186 845 4186 845 3900 
L 845 452 
C 845 166 774 166 333 166 
L 333 0 
L 2368 0 
C 3398 0 4224 943 4224 2141 
C 4224 3346 3411 4352 2368 4352 
L 333 4352 
z
M 1523 166 
C 1267 166 1254 197 1254 414 
L 1254 3938 
C 1254 4155 1267 4186 1523 4186 
L 2240 4186 
C 2771 4186 3750 3874 3750 2141 
C 3750 1242 3488 879 3366 707 
C 3213 510 2848 166 2240 166 
L 1523 166 
z
" transform="scale(0.015625)"/>
       <path id="CMR17-65" d="M 2438 1472 
C 2464 1498 2464 1511 2464 1576 
C 2464 2238 2118 2816 1389 2816 
C 710 2816 173 2169 173 1383 
C 173 551 781 -64 1459 -64 
C 2176 -64 2458 607 2458 740 
C 2458 784 2419 784 2406 784 
C 2362 784 2355 771 2330 696 
C 2189 265 1837 51 1504 51 
C 1229 51 954 203 781 480 
C 582 803 582 1176 582 1472 
L 2438 1472 
z
M 589 1568 
C 634 2505 1126 2714 1382 2714 
C 1818 2714 2112 2297 2118 1568 
L 589 1568 
z
" transform="scale(0.015625)"/>
       <path id="CMR17-76" d="M 2502 2163 
C 2560 2304 2662 2560 3034 2560 
L 3034 2726 
C 2912 2726 2752 2726 2630 2726 
C 2496 2726 2285 2726 2157 2732 
L 2157 2566 
C 2317 2553 2406 2477 2406 2311 
C 2406 2253 2406 2240 2368 2151 
L 1664 377 
L 902 2286 
C 864 2369 864 2381 864 2407 
C 864 2560 1075 2560 1171 2560 
L 1171 2732 
C 1018 2726 736 2726 576 2726 
C 403 2726 205 2726 64 2732 
L 64 2560 
C 307 2560 442 2560 518 2362 
L 1446 44 
C 1485 -51 1491 -64 1549 -64 
C 1606 -64 1613 -51 1651 44 
L 2502 2163 
z
" transform="scale(0.015625)"/>
       <path id="CMR17-69" d="M 992 3909 
C 992 4049 877 4170 730 4170 
C 589 4170 467 4056 467 3909 
C 467 3769 582 3648 730 3648 
C 870 3648 992 3763 992 3909 
z
M 243 2706 
L 243 2541 
C 602 2541 653 2502 653 2197 
L 653 427 
C 653 184 627 153 218 153 
L 218 -13 
C 371 0 646 0 806 0 
C 960 0 1222 0 1370 -13 
L 1370 153 
C 992 153 979 191 979 420 
L 979 2776 
L 243 2706 
z
" transform="scale(0.015625)"/>
       <path id="CMR17-66" d="M 979 2560 
L 1709 2560 
L 1709 2725 
L 966 2725 
L 966 3494 
C 966 4022 1235 4352 1510 4352 
C 1594 4352 1690 4327 1754 4282 
C 1702 4269 1568 4225 1568 4067 
C 1568 3901 1696 3850 1786 3850 
C 1875 3850 2003 3901 2003 4067 
C 2003 4308 1773 4454 1517 4454 
C 1152 4454 653 4156 653 3481 
L 653 2725 
L 141 2725 
L 141 2560 
L 653 2560 
L 653 427 
C 653 184 627 153 218 153 
L 218 -13 
C 371 0 666 0 832 0 
C 1018 0 1344 0 1517 -13 
L 1517 153 
C 1056 153 979 153 979 439 
L 979 2560 
z
" transform="scale(0.015625)"/>
      </defs>
      <use xlink:href="#CMR17-53" transform="scale(0.996264)"/>
      <use xlink:href="#CMR17-74" transform="translate(50.89537 0) scale(0.996264)"/>
      <use xlink:href="#CMR17-61" transform="translate(86.176138 0) scale(0.996264)"/>
      <use xlink:href="#CMR17-6e" transform="translate(131.866615 0) scale(0.996264)"/>
      <use xlink:href="#CMR17-64" transform="translate(182.761984 0) scale(0.996264)"/>
      <use xlink:href="#CMR17-61" transform="translate(233.657354 0) scale(0.996264)"/>
      <use xlink:href="#CMR17-72" transform="translate(279.347831 0) scale(0.996264)"/>
      <use xlink:href="#CMR17-64" transform="translate(314.628599 0) scale(0.996264)"/>
      <use xlink:href="#CMR17-44" transform="translate(395.599935 0) scale(0.996264)"/>
      <use xlink:href="#CMR17-65" transform="translate(465.993491 0) scale(0.996264)"/>
      <use xlink:href="#CMR17-76" transform="translate(506.479152 0) scale(0.996264)"/>
      <use xlink:href="#CMR17-69" transform="translate(554.772068 0) scale(0.996264)"/>
      <use xlink:href="#CMR17-61" transform="translate(579.643126 0) scale(0.996264)"/>
      <use xlink:href="#CMR17-74" transform="translate(625.333603 0) scale(0.996264)"/>
      <use xlink:href="#CMR17-69" transform="translate(660.614371 0) scale(0.996264)"/>
      <use xlink:href="#CMR17-6f" transform="translate(685.485429 0) scale(0.996264)"/>
      <use xlink:href="#CMR17-6e" transform="translate(731.175907 0) scale(0.996264)"/>
      <use xlink:href="#CMR17-6f" transform="translate(812.147243 0) scale(0.996264)"/>
      <use xlink:href="#CMR17-66" transform="translate(857.83772 0) scale(0.996264)"/>
     </g>
     <!-- Workpiece Temperature \Temperature in \unit{\kelvin} -->
     <g transform="translate(27.957875 160.795392) rotate(-90) scale(0.1 -0.1)">
      <defs>
       <path id="CMR17-57" d="M 5523 3764 
C 5581 3936 5677 4160 6048 4160 
L 6048 4326 
C 5939 4326 5715 4326 5600 4326 
C 5440 4326 5158 4326 5005 4332 
L 5005 4160 
C 5293 4160 5414 4000 5414 3847 
C 5414 3802 5408 3777 5382 3707 
L 4390 555 
L 3347 3873 
C 3328 3937 3322 3963 3322 3988 
C 3322 4160 3603 4160 3725 4160 
L 3725 4326 
C 3539 4326 3219 4326 3021 4326 
C 2861 4326 2573 4326 2426 4332 
L 2426 4160 
C 2720 4160 2797 4141 2861 4027 
C 2886 3969 2989 3638 2989 3619 
C 2989 3593 2976 3555 2970 3536 
L 2029 561 
L 986 3867 
C 954 3957 954 3969 954 3982 
C 954 4160 1235 4160 1363 4160 
L 1363 4326 
C 1178 4326 858 4326 659 4326 
C 493 4326 211 4326 58 4332 
L 58 4160 
C 442 4160 467 4122 531 3918 
L 1779 -20 
C 1811 -115 1811 -128 1869 -128 
C 1920 -128 1939 -115 1965 -26 
L 3053 3433 
L 4141 -26 
C 4166 -115 4186 -128 4237 -128 
C 4294 -128 4294 -115 4326 -20 
L 5523 3764 
z
" transform="scale(0.015625)"/>
       <path id="CMR17-6b" d="M 1670 1673 
C 1664 1686 1632 1724 1632 1743 
C 1632 1756 2086 2171 2144 2222 
C 2509 2528 2739 2560 2906 2560 
L 2906 2733 
C 2867 2733 2854 2733 2848 2720 
L 2534 2720 
C 2355 2720 2080 2720 1907 2733 
L 1907 2566 
C 1997 2559 2061 2508 2061 2419 
C 2061 2291 1933 2170 1926 2170 
L 960 1289 
L 960 4396 
L 198 4326 
L 198 4160 
C 576 4160 634 4122 634 3817 
L 634 426 
C 634 184 608 153 198 153 
L 198 -13 
C 352 0 634 0 794 0 
C 954 0 1235 0 1389 -13 
L 1389 153 
C 979 153 954 178 954 428 
L 954 1130 
L 1395 1532 
L 2042 574 
C 2118 459 2182 369 2182 286 
C 2182 172 2067 153 1990 153 
L 1990 -13 
C 2144 0 2419 0 2579 0 
C 2694 0 2931 0 3040 0 
L 3040 153 
C 2739 153 2669 210 2477 491 
L 1670 1673 
z
" transform="scale(0.015625)"/>
       <path id="CMR17-70" d="M 1408 -1063 
C 998 -1063 973 -1037 973 -789 
L 973 402 
C 1158 134 1427 -38 1766 -38 
C 2406 -38 3053 523 3053 1388 
C 3053 2191 2496 2802 1837 2802 
C 1453 2802 1139 2592 960 2338 
L 960 2802 
L 198 2732 
L 198 2567 
C 576 2567 634 2528 634 2223 
L 634 -789 
C 634 -1031 608 -1063 198 -1063 
L 198 -1228 
C 352 -1216 634 -1216 800 -1216 
C 966 -1216 1254 -1216 1408 -1228 
L 1408 -1063 
z
M 973 2012 
C 973 2102 973 2235 1222 2471 
C 1254 2497 1472 2688 1792 2688 
C 2259 2688 2643 2108 2643 1382 
C 2643 656 2234 64 1728 64 
C 1498 64 1248 172 1056 472 
C 973 612 973 650 973 752 
L 973 2012 
z
" transform="scale(0.015625)"/>
       <path id="CMR17-63" d="M 2234 2240 
C 2112 2240 1933 2240 1933 2017 
C 1933 1838 2080 1787 2163 1787 
C 2208 1787 2394 1807 2394 2024 
C 2394 2467 1958 2803 1466 2803 
C 787 2803 211 2178 211 1363 
C 211 516 813 -64 1466 -64 
C 2259 -64 2458 677 2458 748 
C 2458 774 2451 793 2406 793 
C 2362 793 2355 787 2330 703 
C 2163 180 1798 51 1523 51 
C 1114 51 621 427 621 1369 
C 621 2338 1094 2688 1472 2688 
C 1722 2688 2093 2573 2234 2240 
z
" transform="scale(0.015625)"/>
       <path id="CMR17-54" d="M 3981 4326 
L 288 4326 
L 179 2918 
L 294 2918 
C 378 3976 467 4160 1453 4160 
C 1568 4160 1754 4160 1805 4154 
C 1926 4135 1926 4058 1926 3912 
L 1926 459 
C 1926 230 1907 160 1376 160 
L 1197 160 
L 1197 0 
C 1504 0 1824 0 2138 0 
C 2451 0 2771 0 3078 0 
L 3078 160 
L 2899 160 
C 2368 160 2349 230 2349 459 
L 2349 3912 
C 2349 4052 2349 4129 2464 4154 
C 2515 4160 2701 4160 2816 4160 
C 3795 4160 3891 3976 3974 2918 
L 4090 2918 
L 3981 4326 
z
" transform="scale(0.015625)"/>
       <path id="CMR17-6d" d="M 4326 1933 
C 4326 2252 4269 2790 3507 2790 
C 3072 2790 2771 2496 2656 2151 
L 2650 2151 
C 2573 2676 2195 2790 1837 2790 
C 1331 2790 1069 2400 973 2144 
L 966 2144 
L 966 2790 
L 211 2720 
L 211 2554 
C 589 2554 646 2515 646 2208 
L 646 428 
C 646 184 621 153 211 153 
L 211 -13 
C 365 0 646 0 813 0 
C 979 0 1267 0 1421 -13 
L 1421 153 
C 1011 153 986 178 986 428 
L 986 1658 
C 986 2247 1344 2688 1792 2688 
C 2266 2688 2317 2266 2317 1958 
L 2317 428 
C 2317 184 2291 153 1882 153 
L 1882 -13 
C 2035 0 2317 0 2483 0 
C 2650 0 2938 0 3091 -13 
L 3091 153 
C 2682 153 2656 178 2656 428 
L 2656 1658 
C 2656 2247 3014 2688 3462 2688 
C 3936 2688 3987 2266 3987 1958 
L 3987 428 
C 3987 184 3962 153 3552 153 
L 3552 -13 
C 3706 0 3987 0 4154 0 
C 4320 0 4608 0 4762 -13 
L 4762 153 
C 4352 153 4326 178 4326 428 
L 4326 1933 
z
" transform="scale(0.015625)"/>
       <path id="CMR17-75" d="M 1882 2693 
L 1882 2528 
C 2259 2528 2317 2489 2317 2186 
L 2317 1032 
C 2317 500 2029 38 1555 38 
C 1030 38 986 348 986 678 
L 986 2763 
L 211 2693 
L 211 2528 
C 467 2528 640 2528 646 2274 
L 646 1058 
C 646 633 646 361 813 183 
C 896 101 1056 -64 1517 -64 
C 2061 -64 2272 377 2323 506 
L 2330 506 
L 2330 -63 
L 3091 -63 
L 3091 128 
C 2714 128 2656 166 2656 473 
L 2656 2763 
L 1882 2693 
z
" transform="scale(0.015625)"/>
       <path id="CMR17-4b" d="M 2362 2675 
L 3469 3782 
C 3699 4006 3942 4186 4301 4186 
L 4301 4352 
C 4173 4352 4013 4352 3885 4352 
C 3712 4352 3411 4352 3245 4358 
L 3245 4192 
C 3411 4180 3437 4065 3437 4019 
C 3437 3975 3411 3905 3386 3867 
L 1261 1738 
L 1261 3900 
C 1261 4186 1331 4186 1773 4186 
L 1773 4352 
C 1587 4352 1248 4352 1050 4352 
C 851 4352 512 4352 326 4352 
L 326 4186 
C 768 4186 838 4186 838 3899 
L 838 446 
C 838 160 768 160 326 160 
L 326 0 
C 512 0 851 0 1050 0 
C 1248 0 1587 0 1773 0 
L 1773 160 
C 1331 160 1261 160 1261 447 
L 1261 1579 
L 2080 2390 
L 3290 537 
C 3328 473 3373 390 3373 326 
C 3373 160 3194 160 3110 160 
L 3110 0 
C 3315 0 3610 0 3821 0 
C 3974 0 4237 0 4384 -6 
L 4384 160 
C 4077 160 3981 198 3789 493 
L 2362 2675 
z
" transform="scale(0.015625)"/>
      </defs>
      <use xlink:href="#CMR17-57" transform="scale(0.996264)"/>
      <use xlink:href="#CMR17-6f" transform="translate(87.289395 0) scale(0.996264)"/>
      <use xlink:href="#CMR17-72" transform="translate(132.979872 0) scale(0.996264)"/>
      <use xlink:href="#CMR17-6b" transform="translate(168.260639 0) scale(0.996264)"/>
      <use xlink:href="#CMR17-70" transform="translate(216.553555 0) scale(0.996264)"/>
      <use xlink:href="#CMR17-69" transform="translate(267.448925 0) scale(0.996264)"/>
      <use xlink:href="#CMR17-65" transform="translate(292.319984 0) scale(0.996264)"/>
      <use xlink:href="#CMR17-63" transform="translate(332.805644 0) scale(0.996264)"/>
      <use xlink:href="#CMR17-65" transform="translate(373.291304 0) scale(0.996264)"/>
      <use xlink:href="#CMR17-54" transform="translate(443.852931 0) scale(0.996264)"/>
      <use xlink:href="#CMR17-65" transform="translate(502.555556 0) scale(0.996264)"/>
      <use xlink:href="#CMR17-6d" transform="translate(543.041217 0) scale(0.996264)"/>
      <use xlink:href="#CMR17-70" transform="translate(619.960807 0) scale(0.996264)"/>
      <use xlink:href="#CMR17-65" transform="translate(673.458615 0) scale(0.996264)"/>
      <use xlink:href="#CMR17-72" transform="translate(713.944276 0) scale(0.996264)"/>
      <use xlink:href="#CMR17-61" transform="translate(749.225044 0) scale(0.996264)"/>
      <use xlink:href="#CMR17-74" transform="translate(794.915521 0) scale(0.996264)"/>
      <use xlink:href="#CMR17-75" transform="translate(830.196288 0) scale(0.996264)"/>
      <use xlink:href="#CMR17-72" transform="translate(881.091658 0) scale(0.996264)"/>
      <use xlink:href="#CMR17-65" transform="translate(916.372426 0) scale(0.996264)"/>
      <use xlink:href="#CMR17-54" transform="translate(986.934053 0) scale(0.996264)"/>
      <use xlink:href="#CMR17-69" transform="translate(1053.443933 0) scale(0.996264)"/>
      <use xlink:href="#CMR17-6e" transform="translate(1078.314992 0) scale(0.996264)"/>
      <use xlink:href="#CMR17-4b" transform="translate(1159.286328 0) scale(0.996264)"/>
     </g>
    </g>
   </g>
   <g id="line2d_43">
    <path d="M 75.087992 91.388415 
L 87.296528 93.891128 
L 99.505064 99.197501 
L 111.713601 101.74454 
L 123.922137 106.79182 
L 136.130674 110.194386 
L 148.33921 116.663423 
L 160.547747 119.350219 
L 172.756283 124.550671 
L 184.96482 127.337353 
L 197.173356 133.567995 
L 209.381893 135.539655 
L 221.590429 140.254012 
L 233.798965 143.60129 
L 246.007502 149.57876 
L 258.216038 151.620136 
L 270.424575 155.563721 
L 282.633111 157.152987 
L 294.841648 161.169293 
L 307.050184 162.473594 
L 319.258721 165.457627 
L 331.467257 166.247188 
L 343.675794 166.402947 
L 355.88433 167.150486 
L 368.092866 167.273843 
L 380.301403 168.315073 
L 392.509939 168.434565 
L 404.718476 168.957344 
" clip-path="url(#p9dbf4652f6)" style="fill: none; stroke: #1f77b4; stroke-width: 1.5; stroke-linecap: square"/>
   </g>
   <g id="line2d_44">
    <path d="M 75.087992 91.388415 
L 87.296528 93.891128 
L 99.505064 83.420488 
L 111.713601 86.484291 
L 123.922137 83.393397 
L 136.130674 87.816627 
L 148.33921 75.695074 
L 160.547747 79.969286 
L 172.756283 70.681111 
L 184.96482 75.869385 
L 197.173356 64.088149 
L 209.381893 68.629191 
L 221.590429 52.590382 
L 233.798965 62.149476 
L 246.007502 30.380878 
L 258.216038 38.792504 
L 270.424575 27.191774 
L 282.633111 35.086516 
L 294.841648 18.331302 
L 307.050184 26.512692 
L 319.258721 31.270737 
L 331.467257 36.647718 
L 343.675794 37.7014 
L 355.88433 42.809312 
L 368.092866 43.643925 
L 380.301403 50.745544 
L 392.509939 51.554082 
L 404.718476 55.118331 
" clip-path="url(#p9dbf4652f6)" style="fill: none; stroke: #ff7f0e; stroke-width: 1.5; stroke-linecap: square"/>
   </g>
   <g id="patch_16">
    <path d="M 58.606467 176.488647 
L 58.606467 10.8 
" style="fill: none; stroke: #000000; stroke-width: 0.8; stroke-linejoin: miter; stroke-linecap: square"/>
   </g>
   <g id="patch_17">
    <path d="M 421.2 176.488647 
L 421.2 10.8 
" style="fill: none; stroke: #000000; stroke-width: 0.8; stroke-linejoin: miter; stroke-linecap: square"/>
   </g>
   <g id="patch_18">
    <path d="M 58.606467 176.488647 
L 421.2 176.488647 
" style="fill: none; stroke: #000000; stroke-width: 0.8; stroke-linejoin: miter; stroke-linecap: square"/>
   </g>
   <g id="patch_19">
    <path d="M 58.606467 10.8 
L 421.2 10.8 
" style="fill: none; stroke: #000000; stroke-width: 0.8; stroke-linejoin: miter; stroke-linecap: square"/>
   </g>
   <g id="legend_1">
    <g id="patch_20">
     <path d="M 281.770854 123.01868 
L 414.2 123.01868 
Q 416.2 123.01868 416.2 121.01868 
L 416.2 66.269967 
Q 416.2 64.269967 414.2 64.269967 
L 281.770854 64.269967 
Q 279.770854 64.269967 279.770854 66.269967 
L 279.770854 121.01868 
Q 279.770854 123.01868 281.770854 123.01868 
z
" style="fill: #ffffff; opacity: 0.8; stroke: #cccccc; stroke-linejoin: miter"/>
    </g>
    <g id="line2d_45">
     <path d="M 283.770854 71.769967 
L 293.770854 71.769967 
L 303.770854 71.769967 
" style="fill: none; stroke: #1f77b4; stroke-width: 1.5; stroke-linecap: square"/>
    </g>
    <g id="text_24">
     <!-- Only Varied Input -->
     <g transform="translate(311.770854 75.269967) scale(0.1 -0.1)">
      <defs>
       <path id="CMR17-4f" d="M 4307 2135 
C 4307 3437 3366 4416 2304 4416 
C 1216 4416 294 3424 294 2135 
C 294 845 1229 -128 2298 -128 
C 3392 -128 4307 864 4307 2135 
z
M 2304 -13 
C 1574 -13 781 711 781 2217 
C 781 3716 1651 4301 2298 4301 
C 2976 4301 3821 3698 3821 2217 
C 3821 686 3008 -13 2304 -13 
z
" transform="scale(0.015625)"/>
       <path id="CMR17-79" d="M 2496 2197 
C 2656 2586 2944 2586 3034 2586 
L 3034 2752 
C 2912 2752 2752 2752 2630 2752 
C 2496 2752 2285 2752 2157 2758 
L 2157 2592 
C 2400 2573 2406 2394 2406 2343 
C 2406 2280 2394 2248 2362 2171 
L 1664 449 
L 902 2306 
C 870 2382 870 2426 870 2433 
C 870 2573 1018 2586 1171 2586 
L 1171 2758 
C 1018 2752 742 2752 582 2752 
C 410 2752 205 2752 64 2758 
L 64 2586 
C 410 2586 448 2554 531 2350 
L 1485 15 
C 1197 -738 1030 -1178 627 -1178 
C 557 -1178 397 -1159 282 -1044 
C 429 -1031 493 -942 493 -833 
C 493 -725 416 -629 288 -629 
C 147 -629 77 -725 77 -840 
C 77 -1095 339 -1280 627 -1280 
C 998 -1280 1229 -922 1357 -604 
L 2496 2197 
z
" transform="scale(0.015625)"/>
       <path id="CMR17-56" d="M 3776 3745 
C 3834 3886 3936 4160 4365 4160 
L 4365 4332 
C 4218 4319 4051 4319 3891 4319 
C 3738 4319 3475 4319 3328 4332 
L 3328 4160 
C 3648 4160 3661 3936 3661 3898 
C 3661 3827 3642 3783 3622 3732 
L 2362 446 
L 1043 3886 
C 1024 3931 1011 3963 1011 3994 
C 1011 4160 1267 4160 1402 4160 
L 1402 4319 
C 1197 4319 896 4319 685 4319 
C 518 4319 218 4319 64 4332 
L 64 4160 
C 435 4160 506 4135 582 3931 
L 2106 -26 
C 2138 -115 2144 -128 2214 -128 
C 2285 -128 2291 -115 2323 -26 
L 3776 3745 
z
" transform="scale(0.015625)"/>
       <path id="CMR17-49" d="M 1261 3905 
C 1261 4192 1338 4192 1798 4192 
L 1798 4352 
C 1594 4352 1267 4352 1050 4352 
C 832 4352 506 4352 301 4352 
L 301 4192 
C 762 4192 838 4192 838 3905 
L 838 447 
C 838 160 762 160 301 160 
L 301 0 
C 506 0 832 0 1050 0 
C 1267 0 1594 0 1798 0 
L 1798 160 
C 1338 160 1261 160 1261 447 
L 1261 3905 
z
" transform="scale(0.015625)"/>
      </defs>
      <use xlink:href="#CMR17-4f" transform="scale(0.996264)"/>
      <use xlink:href="#CMR17-6e" transform="translate(71.714788 0) scale(0.996264)"/>
      <use xlink:href="#CMR17-6c" transform="translate(122.610158 0) scale(0.996264)"/>
      <use xlink:href="#CMR17-79" transform="translate(147.481217 0) scale(0.996264)"/>
      <use xlink:href="#CMR17-56" transform="translate(225.850099 0) scale(0.996264)"/>
      <use xlink:href="#CMR17-61" transform="translate(287.115273 0) scale(0.996264)"/>
      <use xlink:href="#CMR17-72" transform="translate(332.80575 0) scale(0.996264)"/>
      <use xlink:href="#CMR17-69" transform="translate(368.086518 0) scale(0.996264)"/>
      <use xlink:href="#CMR17-65" transform="translate(392.957577 0) scale(0.996264)"/>
      <use xlink:href="#CMR17-64" transform="translate(433.443237 0) scale(0.996264)"/>
      <use xlink:href="#CMR17-49" transform="translate(514.414573 0) scale(0.996264)"/>
      <use xlink:href="#CMR17-6e" transform="translate(547.052982 0) scale(0.996264)"/>
      <use xlink:href="#CMR17-70" transform="translate(597.948352 0) scale(0.996264)"/>
      <use xlink:href="#CMR17-75" transform="translate(648.843722 0) scale(0.996264)"/>
      <use xlink:href="#CMR17-74" transform="translate(699.739092 0) scale(0.996264)"/>
     </g>
    </g>
    <g id="line2d_46">
     <path d="M 283.770854 85.707145 
L 293.770854 85.707145 
L 303.770854 85.707145 
" style="fill: none; stroke: #ff7f0e; stroke-width: 1.5; stroke-linecap: square"/>
    </g>
    <g id="text_25">
     <!-- With Varied Durations -->
     <g transform="translate(311.770854 89.207145) scale(0.1 -0.1)">
      <defs>
       <path id="CMR17-68" d="M 2656 1933 
C 2656 2259 2592 2790 1837 2790 
C 1312 2790 1056 2368 979 2157 
L 973 2157 
L 973 4396 
L 211 4326 
L 211 4160 
C 589 4160 646 4122 646 3817 
L 646 426 
C 646 184 621 153 211 153 
L 211 -13 
C 365 0 646 0 813 0 
C 979 0 1267 0 1421 -13 
L 1421 153 
C 1011 153 986 178 986 428 
L 986 1658 
C 986 2247 1344 2688 1792 2688 
C 2266 2688 2317 2266 2317 1958 
L 2317 428 
C 2317 184 2291 153 1882 153 
L 1882 -13 
C 2035 0 2317 0 2483 0 
C 2650 0 2938 0 3091 -13 
L 3091 153 
C 2682 153 2656 178 2656 428 
L 2656 1933 
z
" transform="scale(0.015625)"/>
      </defs>
      <use xlink:href="#CMR17-57" transform="scale(0.996264)"/>
      <use xlink:href="#CMR17-69" transform="translate(95.09665 0) scale(0.996264)"/>
      <use xlink:href="#CMR17-74" transform="translate(119.967708 0) scale(0.996264)"/>
      <use xlink:href="#CMR17-68" transform="translate(155.248476 0) scale(0.996264)"/>
      <use xlink:href="#CMR17-56" transform="translate(236.219812 0) scale(0.996264)"/>
      <use xlink:href="#CMR17-61" transform="translate(297.484987 0) scale(0.996264)"/>
      <use xlink:href="#CMR17-72" transform="translate(343.175464 0) scale(0.996264)"/>
      <use xlink:href="#CMR17-69" transform="translate(378.456232 0) scale(0.996264)"/>
      <use xlink:href="#CMR17-65" transform="translate(403.32729 0) scale(0.996264)"/>
      <use xlink:href="#CMR17-64" transform="translate(443.812951 0) scale(0.996264)"/>
      <use xlink:href="#CMR17-44" transform="translate(524.784287 0) scale(0.996264)"/>
      <use xlink:href="#CMR17-75" transform="translate(595.177843 0) scale(0.996264)"/>
      <use xlink:href="#CMR17-72" transform="translate(646.073212 0) scale(0.996264)"/>
      <use xlink:href="#CMR17-61" transform="translate(681.35398 0) scale(0.996264)"/>
      <use xlink:href="#CMR17-74" transform="translate(727.044457 0) scale(0.996264)"/>
      <use xlink:href="#CMR17-69" transform="translate(762.325225 0) scale(0.996264)"/>
      <use xlink:href="#CMR17-6f" transform="translate(787.196284 0) scale(0.996264)"/>
      <use xlink:href="#CMR17-6e" transform="translate(832.886761 0) scale(0.996264)"/>
      <use xlink:href="#CMR17-73" transform="translate(883.78213 0) scale(0.996264)"/>
     </g>
    </g>
    <g id="patch_21">
     <path d="M 283.770854 103.144323 
L 303.770854 103.144323 
L 303.770854 96.144323 
L 283.770854 96.144323 
z
" style="fill: #d62728; opacity: 0.4"/>
    </g>
    <g id="text_26">
     <!-- Round Shape -->
     <g transform="translate(311.770854 103.144323) scale(0.1 -0.1)">
      <use xlink:href="#CMR17-52" transform="scale(0.996264)"/>
      <use xlink:href="#CMR17-6f" transform="translate(67.791102 0) scale(0.996264)"/>
      <use xlink:href="#CMR17-75" transform="translate(113.481579 0) scale(0.996264)"/>
      <use xlink:href="#CMR17-6e" transform="translate(164.376949 0) scale(0.996264)"/>
      <use xlink:href="#CMR17-64" transform="translate(215.272319 0) scale(0.996264)"/>
      <use xlink:href="#CMR17-53" transform="translate(296.243655 0) scale(0.996264)"/>
      <use xlink:href="#CMR17-68" transform="translate(347.139025 0) scale(0.996264)"/>
      <use xlink:href="#CMR17-61" transform="translate(398.034394 0) scale(0.996264)"/>
      <use xlink:href="#CMR17-70" transform="translate(443.724871 0) scale(0.996264)"/>
      <use xlink:href="#CMR17-65" transform="translate(497.22268 0) scale(0.996264)"/>
     </g>
    </g>
    <g id="patch_22">
     <path d="M 283.770854 117.081502 
L 303.770854 117.081502 
L 303.770854 110.081502 
L 283.770854 110.081502 
z
" style="fill: #2ca02c; opacity: 0.4"/>
    </g>
    <g id="text_27">
     <!-- Oval Shape -->
     <g transform="translate(311.770854 117.081502) scale(0.1 -0.1)">
      <use xlink:href="#CMR17-4f" transform="scale(0.996264)"/>
      <use xlink:href="#CMR17-76" transform="translate(71.714788 0) scale(0.996264)"/>
      <use xlink:href="#CMR17-61" transform="translate(114.802888 0) scale(0.996264)"/>
      <use xlink:href="#CMR17-6c" transform="translate(160.493365 0) scale(0.996264)"/>
      <use xlink:href="#CMR17-53" transform="translate(215.44039 0) scale(0.996264)"/>
      <use xlink:href="#CMR17-68" transform="translate(266.335759 0) scale(0.996264)"/>
      <use xlink:href="#CMR17-61" transform="translate(317.231129 0) scale(0.996264)"/>
      <use xlink:href="#CMR17-70" transform="translate(362.921606 0) scale(0.996264)"/>
      <use xlink:href="#CMR17-65" transform="translate(416.419415 0) scale(0.996264)"/>
     </g>
    </g>
   </g>
  </g>
 </g>
 <defs>
  <clipPath id="p9dbf4652f6">
   <rect x="58.606467" y="10.8" width="362.593533" height="165.688647"/>
  </clipPath>
 </defs>
</svg>
